%TF.GenerationSoftware,KiCad,Pcbnew,10.0.1*%
%TF.CreationDate,2026-05-11T19:38:50+02:00*%
%TF.ProjectId,esp32s3_adc_mini,65737033-3273-4335-9f61-64635f6d696e,rev?*%
%TF.SameCoordinates,Original*%
%TF.FileFunction,Legend,Top*%
%TF.FilePolarity,Positive*%
%FSLAX46Y46*%
G04 Gerber Fmt 4.6, Leading zero omitted, Abs format (unit mm)*
G04 Created by KiCad (PCBNEW 10.0.1) date 2026-05-11 19:38:50*
%MOMM*%
%LPD*%
G01*
G04 APERTURE LIST*
%ADD10C,0.150000*%
%ADD11C,0.062500*%
%ADD12C,0.120000*%
%ADD13C,0.250000*%
%ADD14C,0.400000*%
%ADD15C,0.060000*%
G04 APERTURE END LIST*
D10*
X145804819Y-98573154D02*
X146614342Y-98573154D01*
X146614342Y-98573154D02*
X146709580Y-98525535D01*
X146709580Y-98525535D02*
X146757200Y-98477916D01*
X146757200Y-98477916D02*
X146804819Y-98382678D01*
X146804819Y-98382678D02*
X146804819Y-98192202D01*
X146804819Y-98192202D02*
X146757200Y-98096964D01*
X146757200Y-98096964D02*
X146709580Y-98049345D01*
X146709580Y-98049345D02*
X146614342Y-98001726D01*
X146614342Y-98001726D02*
X145804819Y-98001726D01*
X146804819Y-97001726D02*
X146804819Y-97573154D01*
X146804819Y-97287440D02*
X145804819Y-97287440D01*
X145804819Y-97287440D02*
X145947676Y-97382678D01*
X145947676Y-97382678D02*
X146042914Y-97477916D01*
X146042914Y-97477916D02*
X146090533Y-97573154D01*
D11*
X150348571Y-92458059D02*
X150181905Y-92219964D01*
X150062857Y-92458059D02*
X150062857Y-91958059D01*
X150062857Y-91958059D02*
X150253333Y-91958059D01*
X150253333Y-91958059D02*
X150300952Y-91981869D01*
X150300952Y-91981869D02*
X150324762Y-92005678D01*
X150324762Y-92005678D02*
X150348571Y-92053297D01*
X150348571Y-92053297D02*
X150348571Y-92124726D01*
X150348571Y-92124726D02*
X150324762Y-92172345D01*
X150324762Y-92172345D02*
X150300952Y-92196154D01*
X150300952Y-92196154D02*
X150253333Y-92219964D01*
X150253333Y-92219964D02*
X150062857Y-92219964D01*
X150824762Y-92458059D02*
X150539048Y-92458059D01*
X150681905Y-92458059D02*
X150681905Y-91958059D01*
X150681905Y-91958059D02*
X150634286Y-92029488D01*
X150634286Y-92029488D02*
X150586667Y-92077107D01*
X150586667Y-92077107D02*
X150539048Y-92100916D01*
X151134285Y-91958059D02*
X151181904Y-91958059D01*
X151181904Y-91958059D02*
X151229523Y-91981869D01*
X151229523Y-91981869D02*
X151253333Y-92005678D01*
X151253333Y-92005678D02*
X151277142Y-92053297D01*
X151277142Y-92053297D02*
X151300952Y-92148535D01*
X151300952Y-92148535D02*
X151300952Y-92267583D01*
X151300952Y-92267583D02*
X151277142Y-92362821D01*
X151277142Y-92362821D02*
X151253333Y-92410440D01*
X151253333Y-92410440D02*
X151229523Y-92434250D01*
X151229523Y-92434250D02*
X151181904Y-92458059D01*
X151181904Y-92458059D02*
X151134285Y-92458059D01*
X151134285Y-92458059D02*
X151086666Y-92434250D01*
X151086666Y-92434250D02*
X151062857Y-92410440D01*
X151062857Y-92410440D02*
X151039047Y-92362821D01*
X151039047Y-92362821D02*
X151015238Y-92267583D01*
X151015238Y-92267583D02*
X151015238Y-92148535D01*
X151015238Y-92148535D02*
X151039047Y-92053297D01*
X151039047Y-92053297D02*
X151062857Y-92005678D01*
X151062857Y-92005678D02*
X151086666Y-91981869D01*
X151086666Y-91981869D02*
X151134285Y-91958059D01*
X154698571Y-84080440D02*
X154674762Y-84104250D01*
X154674762Y-84104250D02*
X154603333Y-84128059D01*
X154603333Y-84128059D02*
X154555714Y-84128059D01*
X154555714Y-84128059D02*
X154484286Y-84104250D01*
X154484286Y-84104250D02*
X154436667Y-84056630D01*
X154436667Y-84056630D02*
X154412857Y-84009011D01*
X154412857Y-84009011D02*
X154389048Y-83913773D01*
X154389048Y-83913773D02*
X154389048Y-83842345D01*
X154389048Y-83842345D02*
X154412857Y-83747107D01*
X154412857Y-83747107D02*
X154436667Y-83699488D01*
X154436667Y-83699488D02*
X154484286Y-83651869D01*
X154484286Y-83651869D02*
X154555714Y-83628059D01*
X154555714Y-83628059D02*
X154603333Y-83628059D01*
X154603333Y-83628059D02*
X154674762Y-83651869D01*
X154674762Y-83651869D02*
X154698571Y-83675678D01*
X155174762Y-84128059D02*
X154889048Y-84128059D01*
X155031905Y-84128059D02*
X155031905Y-83628059D01*
X155031905Y-83628059D02*
X154984286Y-83699488D01*
X154984286Y-83699488D02*
X154936667Y-83747107D01*
X154936667Y-83747107D02*
X154889048Y-83770916D01*
X155603333Y-83794726D02*
X155603333Y-84128059D01*
X155484285Y-83604250D02*
X155365238Y-83961392D01*
X155365238Y-83961392D02*
X155674761Y-83961392D01*
X159038059Y-85323333D02*
X158799964Y-85489999D01*
X159038059Y-85609047D02*
X158538059Y-85609047D01*
X158538059Y-85609047D02*
X158538059Y-85418571D01*
X158538059Y-85418571D02*
X158561869Y-85370952D01*
X158561869Y-85370952D02*
X158585678Y-85347142D01*
X158585678Y-85347142D02*
X158633297Y-85323333D01*
X158633297Y-85323333D02*
X158704726Y-85323333D01*
X158704726Y-85323333D02*
X158752345Y-85347142D01*
X158752345Y-85347142D02*
X158776154Y-85370952D01*
X158776154Y-85370952D02*
X158799964Y-85418571D01*
X158799964Y-85418571D02*
X158799964Y-85609047D01*
X158538059Y-84894761D02*
X158538059Y-84989999D01*
X158538059Y-84989999D02*
X158561869Y-85037618D01*
X158561869Y-85037618D02*
X158585678Y-85061428D01*
X158585678Y-85061428D02*
X158657107Y-85109047D01*
X158657107Y-85109047D02*
X158752345Y-85132856D01*
X158752345Y-85132856D02*
X158942821Y-85132856D01*
X158942821Y-85132856D02*
X158990440Y-85109047D01*
X158990440Y-85109047D02*
X159014250Y-85085237D01*
X159014250Y-85085237D02*
X159038059Y-85037618D01*
X159038059Y-85037618D02*
X159038059Y-84942380D01*
X159038059Y-84942380D02*
X159014250Y-84894761D01*
X159014250Y-84894761D02*
X158990440Y-84870952D01*
X158990440Y-84870952D02*
X158942821Y-84847142D01*
X158942821Y-84847142D02*
X158823773Y-84847142D01*
X158823773Y-84847142D02*
X158776154Y-84870952D01*
X158776154Y-84870952D02*
X158752345Y-84894761D01*
X158752345Y-84894761D02*
X158728535Y-84942380D01*
X158728535Y-84942380D02*
X158728535Y-85037618D01*
X158728535Y-85037618D02*
X158752345Y-85085237D01*
X158752345Y-85085237D02*
X158776154Y-85109047D01*
X158776154Y-85109047D02*
X158823773Y-85132856D01*
D10*
X156219580Y-101190476D02*
X156267200Y-101238095D01*
X156267200Y-101238095D02*
X156314819Y-101380952D01*
X156314819Y-101380952D02*
X156314819Y-101476190D01*
X156314819Y-101476190D02*
X156267200Y-101619047D01*
X156267200Y-101619047D02*
X156171961Y-101714285D01*
X156171961Y-101714285D02*
X156076723Y-101761904D01*
X156076723Y-101761904D02*
X155886247Y-101809523D01*
X155886247Y-101809523D02*
X155743390Y-101809523D01*
X155743390Y-101809523D02*
X155552914Y-101761904D01*
X155552914Y-101761904D02*
X155457676Y-101714285D01*
X155457676Y-101714285D02*
X155362438Y-101619047D01*
X155362438Y-101619047D02*
X155314819Y-101476190D01*
X155314819Y-101476190D02*
X155314819Y-101380952D01*
X155314819Y-101380952D02*
X155362438Y-101238095D01*
X155362438Y-101238095D02*
X155410057Y-101190476D01*
X156314819Y-100761904D02*
X155314819Y-100761904D01*
X155314819Y-100761904D02*
X156314819Y-100190476D01*
X156314819Y-100190476D02*
X155314819Y-100190476D01*
X156314819Y-99190476D02*
X156314819Y-99761904D01*
X156314819Y-99476190D02*
X155314819Y-99476190D01*
X155314819Y-99476190D02*
X155457676Y-99571428D01*
X155457676Y-99571428D02*
X155552914Y-99666666D01*
X155552914Y-99666666D02*
X155600533Y-99761904D01*
X165877200Y-88753332D02*
X165924819Y-88610475D01*
X165924819Y-88610475D02*
X165924819Y-88372380D01*
X165924819Y-88372380D02*
X165877200Y-88277142D01*
X165877200Y-88277142D02*
X165829580Y-88229523D01*
X165829580Y-88229523D02*
X165734342Y-88181904D01*
X165734342Y-88181904D02*
X165639104Y-88181904D01*
X165639104Y-88181904D02*
X165543866Y-88229523D01*
X165543866Y-88229523D02*
X165496247Y-88277142D01*
X165496247Y-88277142D02*
X165448628Y-88372380D01*
X165448628Y-88372380D02*
X165401009Y-88562856D01*
X165401009Y-88562856D02*
X165353390Y-88658094D01*
X165353390Y-88658094D02*
X165305771Y-88705713D01*
X165305771Y-88705713D02*
X165210533Y-88753332D01*
X165210533Y-88753332D02*
X165115295Y-88753332D01*
X165115295Y-88753332D02*
X165020057Y-88705713D01*
X165020057Y-88705713D02*
X164972438Y-88658094D01*
X164972438Y-88658094D02*
X164924819Y-88562856D01*
X164924819Y-88562856D02*
X164924819Y-88324761D01*
X164924819Y-88324761D02*
X164972438Y-88181904D01*
X164924819Y-87848570D02*
X165924819Y-87610475D01*
X165924819Y-87610475D02*
X165210533Y-87419999D01*
X165210533Y-87419999D02*
X165924819Y-87229523D01*
X165924819Y-87229523D02*
X164924819Y-86991428D01*
X165020057Y-86658094D02*
X164972438Y-86610475D01*
X164972438Y-86610475D02*
X164924819Y-86515237D01*
X164924819Y-86515237D02*
X164924819Y-86277142D01*
X164924819Y-86277142D02*
X164972438Y-86181904D01*
X164972438Y-86181904D02*
X165020057Y-86134285D01*
X165020057Y-86134285D02*
X165115295Y-86086666D01*
X165115295Y-86086666D02*
X165210533Y-86086666D01*
X165210533Y-86086666D02*
X165353390Y-86134285D01*
X165353390Y-86134285D02*
X165924819Y-86705713D01*
X165924819Y-86705713D02*
X165924819Y-86086666D01*
X140354819Y-87779404D02*
X141164342Y-87779404D01*
X141164342Y-87779404D02*
X141259580Y-87731785D01*
X141259580Y-87731785D02*
X141307200Y-87684166D01*
X141307200Y-87684166D02*
X141354819Y-87588928D01*
X141354819Y-87588928D02*
X141354819Y-87398452D01*
X141354819Y-87398452D02*
X141307200Y-87303214D01*
X141307200Y-87303214D02*
X141259580Y-87255595D01*
X141259580Y-87255595D02*
X141164342Y-87207976D01*
X141164342Y-87207976D02*
X140354819Y-87207976D01*
X140354819Y-86827023D02*
X140354819Y-86207976D01*
X140354819Y-86207976D02*
X140735771Y-86541309D01*
X140735771Y-86541309D02*
X140735771Y-86398452D01*
X140735771Y-86398452D02*
X140783390Y-86303214D01*
X140783390Y-86303214D02*
X140831009Y-86255595D01*
X140831009Y-86255595D02*
X140926247Y-86207976D01*
X140926247Y-86207976D02*
X141164342Y-86207976D01*
X141164342Y-86207976D02*
X141259580Y-86255595D01*
X141259580Y-86255595D02*
X141307200Y-86303214D01*
X141307200Y-86303214D02*
X141354819Y-86398452D01*
X141354819Y-86398452D02*
X141354819Y-86684166D01*
X141354819Y-86684166D02*
X141307200Y-86779404D01*
X141307200Y-86779404D02*
X141259580Y-86827023D01*
D11*
X155168571Y-92920440D02*
X155144762Y-92944250D01*
X155144762Y-92944250D02*
X155073333Y-92968059D01*
X155073333Y-92968059D02*
X155025714Y-92968059D01*
X155025714Y-92968059D02*
X154954286Y-92944250D01*
X154954286Y-92944250D02*
X154906667Y-92896630D01*
X154906667Y-92896630D02*
X154882857Y-92849011D01*
X154882857Y-92849011D02*
X154859048Y-92753773D01*
X154859048Y-92753773D02*
X154859048Y-92682345D01*
X154859048Y-92682345D02*
X154882857Y-92587107D01*
X154882857Y-92587107D02*
X154906667Y-92539488D01*
X154906667Y-92539488D02*
X154954286Y-92491869D01*
X154954286Y-92491869D02*
X155025714Y-92468059D01*
X155025714Y-92468059D02*
X155073333Y-92468059D01*
X155073333Y-92468059D02*
X155144762Y-92491869D01*
X155144762Y-92491869D02*
X155168571Y-92515678D01*
X155644762Y-92968059D02*
X155359048Y-92968059D01*
X155501905Y-92968059D02*
X155501905Y-92468059D01*
X155501905Y-92468059D02*
X155454286Y-92539488D01*
X155454286Y-92539488D02*
X155406667Y-92587107D01*
X155406667Y-92587107D02*
X155359048Y-92610916D01*
X155811428Y-92468059D02*
X156144761Y-92468059D01*
X156144761Y-92468059D02*
X155930476Y-92968059D01*
X159088059Y-91323333D02*
X158849964Y-91489999D01*
X159088059Y-91609047D02*
X158588059Y-91609047D01*
X158588059Y-91609047D02*
X158588059Y-91418571D01*
X158588059Y-91418571D02*
X158611869Y-91370952D01*
X158611869Y-91370952D02*
X158635678Y-91347142D01*
X158635678Y-91347142D02*
X158683297Y-91323333D01*
X158683297Y-91323333D02*
X158754726Y-91323333D01*
X158754726Y-91323333D02*
X158802345Y-91347142D01*
X158802345Y-91347142D02*
X158826154Y-91370952D01*
X158826154Y-91370952D02*
X158849964Y-91418571D01*
X158849964Y-91418571D02*
X158849964Y-91609047D01*
X158754726Y-90894761D02*
X159088059Y-90894761D01*
X158564250Y-91013809D02*
X158921392Y-91132856D01*
X158921392Y-91132856D02*
X158921392Y-90823333D01*
D10*
X143133333Y-82334580D02*
X143085714Y-82382200D01*
X143085714Y-82382200D02*
X142942857Y-82429819D01*
X142942857Y-82429819D02*
X142847619Y-82429819D01*
X142847619Y-82429819D02*
X142704762Y-82382200D01*
X142704762Y-82382200D02*
X142609524Y-82286961D01*
X142609524Y-82286961D02*
X142561905Y-82191723D01*
X142561905Y-82191723D02*
X142514286Y-82001247D01*
X142514286Y-82001247D02*
X142514286Y-81858390D01*
X142514286Y-81858390D02*
X142561905Y-81667914D01*
X142561905Y-81667914D02*
X142609524Y-81572676D01*
X142609524Y-81572676D02*
X142704762Y-81477438D01*
X142704762Y-81477438D02*
X142847619Y-81429819D01*
X142847619Y-81429819D02*
X142942857Y-81429819D01*
X142942857Y-81429819D02*
X143085714Y-81477438D01*
X143085714Y-81477438D02*
X143133333Y-81525057D01*
X143990476Y-81763152D02*
X143990476Y-82429819D01*
X143752381Y-81382200D02*
X143514286Y-82096485D01*
X143514286Y-82096485D02*
X144133333Y-82096485D01*
D11*
X152688571Y-79770440D02*
X152664762Y-79794250D01*
X152664762Y-79794250D02*
X152593333Y-79818059D01*
X152593333Y-79818059D02*
X152545714Y-79818059D01*
X152545714Y-79818059D02*
X152474286Y-79794250D01*
X152474286Y-79794250D02*
X152426667Y-79746630D01*
X152426667Y-79746630D02*
X152402857Y-79699011D01*
X152402857Y-79699011D02*
X152379048Y-79603773D01*
X152379048Y-79603773D02*
X152379048Y-79532345D01*
X152379048Y-79532345D02*
X152402857Y-79437107D01*
X152402857Y-79437107D02*
X152426667Y-79389488D01*
X152426667Y-79389488D02*
X152474286Y-79341869D01*
X152474286Y-79341869D02*
X152545714Y-79318059D01*
X152545714Y-79318059D02*
X152593333Y-79318059D01*
X152593333Y-79318059D02*
X152664762Y-79341869D01*
X152664762Y-79341869D02*
X152688571Y-79365678D01*
X153164762Y-79818059D02*
X152879048Y-79818059D01*
X153021905Y-79818059D02*
X153021905Y-79318059D01*
X153021905Y-79318059D02*
X152974286Y-79389488D01*
X152974286Y-79389488D02*
X152926667Y-79437107D01*
X152926667Y-79437107D02*
X152879048Y-79460916D01*
X153617142Y-79318059D02*
X153379047Y-79318059D01*
X153379047Y-79318059D02*
X153355238Y-79556154D01*
X153355238Y-79556154D02*
X153379047Y-79532345D01*
X153379047Y-79532345D02*
X153426666Y-79508535D01*
X153426666Y-79508535D02*
X153545714Y-79508535D01*
X153545714Y-79508535D02*
X153593333Y-79532345D01*
X153593333Y-79532345D02*
X153617142Y-79556154D01*
X153617142Y-79556154D02*
X153640952Y-79603773D01*
X153640952Y-79603773D02*
X153640952Y-79722821D01*
X153640952Y-79722821D02*
X153617142Y-79770440D01*
X153617142Y-79770440D02*
X153593333Y-79794250D01*
X153593333Y-79794250D02*
X153545714Y-79818059D01*
X153545714Y-79818059D02*
X153426666Y-79818059D01*
X153426666Y-79818059D02*
X153379047Y-79794250D01*
X153379047Y-79794250D02*
X153355238Y-79770440D01*
X159078059Y-92303333D02*
X158839964Y-92469999D01*
X159078059Y-92589047D02*
X158578059Y-92589047D01*
X158578059Y-92589047D02*
X158578059Y-92398571D01*
X158578059Y-92398571D02*
X158601869Y-92350952D01*
X158601869Y-92350952D02*
X158625678Y-92327142D01*
X158625678Y-92327142D02*
X158673297Y-92303333D01*
X158673297Y-92303333D02*
X158744726Y-92303333D01*
X158744726Y-92303333D02*
X158792345Y-92327142D01*
X158792345Y-92327142D02*
X158816154Y-92350952D01*
X158816154Y-92350952D02*
X158839964Y-92398571D01*
X158839964Y-92398571D02*
X158839964Y-92589047D01*
X158578059Y-91850952D02*
X158578059Y-92089047D01*
X158578059Y-92089047D02*
X158816154Y-92112856D01*
X158816154Y-92112856D02*
X158792345Y-92089047D01*
X158792345Y-92089047D02*
X158768535Y-92041428D01*
X158768535Y-92041428D02*
X158768535Y-91922380D01*
X158768535Y-91922380D02*
X158792345Y-91874761D01*
X158792345Y-91874761D02*
X158816154Y-91850952D01*
X158816154Y-91850952D02*
X158863773Y-91827142D01*
X158863773Y-91827142D02*
X158982821Y-91827142D01*
X158982821Y-91827142D02*
X159030440Y-91850952D01*
X159030440Y-91850952D02*
X159054250Y-91874761D01*
X159054250Y-91874761D02*
X159078059Y-91922380D01*
X159078059Y-91922380D02*
X159078059Y-92041428D01*
X159078059Y-92041428D02*
X159054250Y-92089047D01*
X159054250Y-92089047D02*
X159030440Y-92112856D01*
X148366666Y-92518059D02*
X148200000Y-92279964D01*
X148080952Y-92518059D02*
X148080952Y-92018059D01*
X148080952Y-92018059D02*
X148271428Y-92018059D01*
X148271428Y-92018059D02*
X148319047Y-92041869D01*
X148319047Y-92041869D02*
X148342857Y-92065678D01*
X148342857Y-92065678D02*
X148366666Y-92113297D01*
X148366666Y-92113297D02*
X148366666Y-92184726D01*
X148366666Y-92184726D02*
X148342857Y-92232345D01*
X148342857Y-92232345D02*
X148319047Y-92256154D01*
X148319047Y-92256154D02*
X148271428Y-92279964D01*
X148271428Y-92279964D02*
X148080952Y-92279964D01*
X148652381Y-92232345D02*
X148604762Y-92208535D01*
X148604762Y-92208535D02*
X148580952Y-92184726D01*
X148580952Y-92184726D02*
X148557143Y-92137107D01*
X148557143Y-92137107D02*
X148557143Y-92113297D01*
X148557143Y-92113297D02*
X148580952Y-92065678D01*
X148580952Y-92065678D02*
X148604762Y-92041869D01*
X148604762Y-92041869D02*
X148652381Y-92018059D01*
X148652381Y-92018059D02*
X148747619Y-92018059D01*
X148747619Y-92018059D02*
X148795238Y-92041869D01*
X148795238Y-92041869D02*
X148819047Y-92065678D01*
X148819047Y-92065678D02*
X148842857Y-92113297D01*
X148842857Y-92113297D02*
X148842857Y-92137107D01*
X148842857Y-92137107D02*
X148819047Y-92184726D01*
X148819047Y-92184726D02*
X148795238Y-92208535D01*
X148795238Y-92208535D02*
X148747619Y-92232345D01*
X148747619Y-92232345D02*
X148652381Y-92232345D01*
X148652381Y-92232345D02*
X148604762Y-92256154D01*
X148604762Y-92256154D02*
X148580952Y-92279964D01*
X148580952Y-92279964D02*
X148557143Y-92327583D01*
X148557143Y-92327583D02*
X148557143Y-92422821D01*
X148557143Y-92422821D02*
X148580952Y-92470440D01*
X148580952Y-92470440D02*
X148604762Y-92494250D01*
X148604762Y-92494250D02*
X148652381Y-92518059D01*
X148652381Y-92518059D02*
X148747619Y-92518059D01*
X148747619Y-92518059D02*
X148795238Y-92494250D01*
X148795238Y-92494250D02*
X148819047Y-92470440D01*
X148819047Y-92470440D02*
X148842857Y-92422821D01*
X148842857Y-92422821D02*
X148842857Y-92327583D01*
X148842857Y-92327583D02*
X148819047Y-92279964D01*
X148819047Y-92279964D02*
X148795238Y-92256154D01*
X148795238Y-92256154D02*
X148747619Y-92232345D01*
D10*
X140999580Y-98256666D02*
X141047200Y-98304285D01*
X141047200Y-98304285D02*
X141094819Y-98447142D01*
X141094819Y-98447142D02*
X141094819Y-98542380D01*
X141094819Y-98542380D02*
X141047200Y-98685237D01*
X141047200Y-98685237D02*
X140951961Y-98780475D01*
X140951961Y-98780475D02*
X140856723Y-98828094D01*
X140856723Y-98828094D02*
X140666247Y-98875713D01*
X140666247Y-98875713D02*
X140523390Y-98875713D01*
X140523390Y-98875713D02*
X140332914Y-98828094D01*
X140332914Y-98828094D02*
X140237676Y-98780475D01*
X140237676Y-98780475D02*
X140142438Y-98685237D01*
X140142438Y-98685237D02*
X140094819Y-98542380D01*
X140094819Y-98542380D02*
X140094819Y-98447142D01*
X140094819Y-98447142D02*
X140142438Y-98304285D01*
X140142438Y-98304285D02*
X140190057Y-98256666D01*
X141094819Y-97304285D02*
X141094819Y-97875713D01*
X141094819Y-97589999D02*
X140094819Y-97589999D01*
X140094819Y-97589999D02*
X140237676Y-97685237D01*
X140237676Y-97685237D02*
X140332914Y-97780475D01*
X140332914Y-97780475D02*
X140380533Y-97875713D01*
X165927200Y-94563332D02*
X165974819Y-94420475D01*
X165974819Y-94420475D02*
X165974819Y-94182380D01*
X165974819Y-94182380D02*
X165927200Y-94087142D01*
X165927200Y-94087142D02*
X165879580Y-94039523D01*
X165879580Y-94039523D02*
X165784342Y-93991904D01*
X165784342Y-93991904D02*
X165689104Y-93991904D01*
X165689104Y-93991904D02*
X165593866Y-94039523D01*
X165593866Y-94039523D02*
X165546247Y-94087142D01*
X165546247Y-94087142D02*
X165498628Y-94182380D01*
X165498628Y-94182380D02*
X165451009Y-94372856D01*
X165451009Y-94372856D02*
X165403390Y-94468094D01*
X165403390Y-94468094D02*
X165355771Y-94515713D01*
X165355771Y-94515713D02*
X165260533Y-94563332D01*
X165260533Y-94563332D02*
X165165295Y-94563332D01*
X165165295Y-94563332D02*
X165070057Y-94515713D01*
X165070057Y-94515713D02*
X165022438Y-94468094D01*
X165022438Y-94468094D02*
X164974819Y-94372856D01*
X164974819Y-94372856D02*
X164974819Y-94134761D01*
X164974819Y-94134761D02*
X165022438Y-93991904D01*
X164974819Y-93658570D02*
X165974819Y-93420475D01*
X165974819Y-93420475D02*
X165260533Y-93229999D01*
X165260533Y-93229999D02*
X165974819Y-93039523D01*
X165974819Y-93039523D02*
X164974819Y-92801428D01*
X165974819Y-91896666D02*
X165974819Y-92468094D01*
X165974819Y-92182380D02*
X164974819Y-92182380D01*
X164974819Y-92182380D02*
X165117676Y-92277618D01*
X165117676Y-92277618D02*
X165212914Y-92372856D01*
X165212914Y-92372856D02*
X165260533Y-92468094D01*
D11*
X149496666Y-92538059D02*
X149330000Y-92299964D01*
X149210952Y-92538059D02*
X149210952Y-92038059D01*
X149210952Y-92038059D02*
X149401428Y-92038059D01*
X149401428Y-92038059D02*
X149449047Y-92061869D01*
X149449047Y-92061869D02*
X149472857Y-92085678D01*
X149472857Y-92085678D02*
X149496666Y-92133297D01*
X149496666Y-92133297D02*
X149496666Y-92204726D01*
X149496666Y-92204726D02*
X149472857Y-92252345D01*
X149472857Y-92252345D02*
X149449047Y-92276154D01*
X149449047Y-92276154D02*
X149401428Y-92299964D01*
X149401428Y-92299964D02*
X149210952Y-92299964D01*
X149734762Y-92538059D02*
X149830000Y-92538059D01*
X149830000Y-92538059D02*
X149877619Y-92514250D01*
X149877619Y-92514250D02*
X149901428Y-92490440D01*
X149901428Y-92490440D02*
X149949047Y-92419011D01*
X149949047Y-92419011D02*
X149972857Y-92323773D01*
X149972857Y-92323773D02*
X149972857Y-92133297D01*
X149972857Y-92133297D02*
X149949047Y-92085678D01*
X149949047Y-92085678D02*
X149925238Y-92061869D01*
X149925238Y-92061869D02*
X149877619Y-92038059D01*
X149877619Y-92038059D02*
X149782381Y-92038059D01*
X149782381Y-92038059D02*
X149734762Y-92061869D01*
X149734762Y-92061869D02*
X149710952Y-92085678D01*
X149710952Y-92085678D02*
X149687143Y-92133297D01*
X149687143Y-92133297D02*
X149687143Y-92252345D01*
X149687143Y-92252345D02*
X149710952Y-92299964D01*
X149710952Y-92299964D02*
X149734762Y-92323773D01*
X149734762Y-92323773D02*
X149782381Y-92347583D01*
X149782381Y-92347583D02*
X149877619Y-92347583D01*
X149877619Y-92347583D02*
X149925238Y-92323773D01*
X149925238Y-92323773D02*
X149949047Y-92299964D01*
X149949047Y-92299964D02*
X149972857Y-92252345D01*
X147688571Y-79750440D02*
X147664762Y-79774250D01*
X147664762Y-79774250D02*
X147593333Y-79798059D01*
X147593333Y-79798059D02*
X147545714Y-79798059D01*
X147545714Y-79798059D02*
X147474286Y-79774250D01*
X147474286Y-79774250D02*
X147426667Y-79726630D01*
X147426667Y-79726630D02*
X147402857Y-79679011D01*
X147402857Y-79679011D02*
X147379048Y-79583773D01*
X147379048Y-79583773D02*
X147379048Y-79512345D01*
X147379048Y-79512345D02*
X147402857Y-79417107D01*
X147402857Y-79417107D02*
X147426667Y-79369488D01*
X147426667Y-79369488D02*
X147474286Y-79321869D01*
X147474286Y-79321869D02*
X147545714Y-79298059D01*
X147545714Y-79298059D02*
X147593333Y-79298059D01*
X147593333Y-79298059D02*
X147664762Y-79321869D01*
X147664762Y-79321869D02*
X147688571Y-79345678D01*
X148164762Y-79798059D02*
X147879048Y-79798059D01*
X148021905Y-79798059D02*
X148021905Y-79298059D01*
X148021905Y-79298059D02*
X147974286Y-79369488D01*
X147974286Y-79369488D02*
X147926667Y-79417107D01*
X147926667Y-79417107D02*
X147879048Y-79440916D01*
X148355238Y-79345678D02*
X148379047Y-79321869D01*
X148379047Y-79321869D02*
X148426666Y-79298059D01*
X148426666Y-79298059D02*
X148545714Y-79298059D01*
X148545714Y-79298059D02*
X148593333Y-79321869D01*
X148593333Y-79321869D02*
X148617142Y-79345678D01*
X148617142Y-79345678D02*
X148640952Y-79393297D01*
X148640952Y-79393297D02*
X148640952Y-79440916D01*
X148640952Y-79440916D02*
X148617142Y-79512345D01*
X148617142Y-79512345D02*
X148331428Y-79798059D01*
X148331428Y-79798059D02*
X148640952Y-79798059D01*
D10*
X154196666Y-105604819D02*
X154196666Y-106319104D01*
X154196666Y-106319104D02*
X154149047Y-106461961D01*
X154149047Y-106461961D02*
X154053809Y-106557200D01*
X154053809Y-106557200D02*
X153910952Y-106604819D01*
X153910952Y-106604819D02*
X153815714Y-106604819D01*
X155196666Y-106604819D02*
X154625238Y-106604819D01*
X154910952Y-106604819D02*
X154910952Y-105604819D01*
X154910952Y-105604819D02*
X154815714Y-105747676D01*
X154815714Y-105747676D02*
X154720476Y-105842914D01*
X154720476Y-105842914D02*
X154625238Y-105890533D01*
X158549580Y-88906666D02*
X158597200Y-88954285D01*
X158597200Y-88954285D02*
X158644819Y-89097142D01*
X158644819Y-89097142D02*
X158644819Y-89192380D01*
X158644819Y-89192380D02*
X158597200Y-89335237D01*
X158597200Y-89335237D02*
X158501961Y-89430475D01*
X158501961Y-89430475D02*
X158406723Y-89478094D01*
X158406723Y-89478094D02*
X158216247Y-89525713D01*
X158216247Y-89525713D02*
X158073390Y-89525713D01*
X158073390Y-89525713D02*
X157882914Y-89478094D01*
X157882914Y-89478094D02*
X157787676Y-89430475D01*
X157787676Y-89430475D02*
X157692438Y-89335237D01*
X157692438Y-89335237D02*
X157644819Y-89192380D01*
X157644819Y-89192380D02*
X157644819Y-89097142D01*
X157644819Y-89097142D02*
X157692438Y-88954285D01*
X157692438Y-88954285D02*
X157740057Y-88906666D01*
X158073390Y-88335237D02*
X158025771Y-88430475D01*
X158025771Y-88430475D02*
X157978152Y-88478094D01*
X157978152Y-88478094D02*
X157882914Y-88525713D01*
X157882914Y-88525713D02*
X157835295Y-88525713D01*
X157835295Y-88525713D02*
X157740057Y-88478094D01*
X157740057Y-88478094D02*
X157692438Y-88430475D01*
X157692438Y-88430475D02*
X157644819Y-88335237D01*
X157644819Y-88335237D02*
X157644819Y-88144761D01*
X157644819Y-88144761D02*
X157692438Y-88049523D01*
X157692438Y-88049523D02*
X157740057Y-88001904D01*
X157740057Y-88001904D02*
X157835295Y-87954285D01*
X157835295Y-87954285D02*
X157882914Y-87954285D01*
X157882914Y-87954285D02*
X157978152Y-88001904D01*
X157978152Y-88001904D02*
X158025771Y-88049523D01*
X158025771Y-88049523D02*
X158073390Y-88144761D01*
X158073390Y-88144761D02*
X158073390Y-88335237D01*
X158073390Y-88335237D02*
X158121009Y-88430475D01*
X158121009Y-88430475D02*
X158168628Y-88478094D01*
X158168628Y-88478094D02*
X158263866Y-88525713D01*
X158263866Y-88525713D02*
X158454342Y-88525713D01*
X158454342Y-88525713D02*
X158549580Y-88478094D01*
X158549580Y-88478094D02*
X158597200Y-88430475D01*
X158597200Y-88430475D02*
X158644819Y-88335237D01*
X158644819Y-88335237D02*
X158644819Y-88144761D01*
X158644819Y-88144761D02*
X158597200Y-88049523D01*
X158597200Y-88049523D02*
X158549580Y-88001904D01*
X158549580Y-88001904D02*
X158454342Y-87954285D01*
X158454342Y-87954285D02*
X158263866Y-87954285D01*
X158263866Y-87954285D02*
X158168628Y-88001904D01*
X158168628Y-88001904D02*
X158121009Y-88049523D01*
X158121009Y-88049523D02*
X158073390Y-88144761D01*
D11*
X147066666Y-100798059D02*
X146900000Y-100559964D01*
X146780952Y-100798059D02*
X146780952Y-100298059D01*
X146780952Y-100298059D02*
X146971428Y-100298059D01*
X146971428Y-100298059D02*
X147019047Y-100321869D01*
X147019047Y-100321869D02*
X147042857Y-100345678D01*
X147042857Y-100345678D02*
X147066666Y-100393297D01*
X147066666Y-100393297D02*
X147066666Y-100464726D01*
X147066666Y-100464726D02*
X147042857Y-100512345D01*
X147042857Y-100512345D02*
X147019047Y-100536154D01*
X147019047Y-100536154D02*
X146971428Y-100559964D01*
X146971428Y-100559964D02*
X146780952Y-100559964D01*
X147257143Y-100345678D02*
X147280952Y-100321869D01*
X147280952Y-100321869D02*
X147328571Y-100298059D01*
X147328571Y-100298059D02*
X147447619Y-100298059D01*
X147447619Y-100298059D02*
X147495238Y-100321869D01*
X147495238Y-100321869D02*
X147519047Y-100345678D01*
X147519047Y-100345678D02*
X147542857Y-100393297D01*
X147542857Y-100393297D02*
X147542857Y-100440916D01*
X147542857Y-100440916D02*
X147519047Y-100512345D01*
X147519047Y-100512345D02*
X147233333Y-100798059D01*
X147233333Y-100798059D02*
X147542857Y-100798059D01*
X159048059Y-86293333D02*
X158809964Y-86459999D01*
X159048059Y-86579047D02*
X158548059Y-86579047D01*
X158548059Y-86579047D02*
X158548059Y-86388571D01*
X158548059Y-86388571D02*
X158571869Y-86340952D01*
X158571869Y-86340952D02*
X158595678Y-86317142D01*
X158595678Y-86317142D02*
X158643297Y-86293333D01*
X158643297Y-86293333D02*
X158714726Y-86293333D01*
X158714726Y-86293333D02*
X158762345Y-86317142D01*
X158762345Y-86317142D02*
X158786154Y-86340952D01*
X158786154Y-86340952D02*
X158809964Y-86388571D01*
X158809964Y-86388571D02*
X158809964Y-86579047D01*
X158548059Y-86126666D02*
X158548059Y-85793333D01*
X158548059Y-85793333D02*
X159048059Y-86007618D01*
D10*
X143111905Y-101959819D02*
X143111905Y-100959819D01*
X143111905Y-100959819D02*
X143350000Y-100959819D01*
X143350000Y-100959819D02*
X143492857Y-101007438D01*
X143492857Y-101007438D02*
X143588095Y-101102676D01*
X143588095Y-101102676D02*
X143635714Y-101197914D01*
X143635714Y-101197914D02*
X143683333Y-101388390D01*
X143683333Y-101388390D02*
X143683333Y-101531247D01*
X143683333Y-101531247D02*
X143635714Y-101721723D01*
X143635714Y-101721723D02*
X143588095Y-101816961D01*
X143588095Y-101816961D02*
X143492857Y-101912200D01*
X143492857Y-101912200D02*
X143350000Y-101959819D01*
X143350000Y-101959819D02*
X143111905Y-101959819D01*
X144635714Y-101959819D02*
X144064286Y-101959819D01*
X144350000Y-101959819D02*
X144350000Y-100959819D01*
X144350000Y-100959819D02*
X144254762Y-101102676D01*
X144254762Y-101102676D02*
X144159524Y-101197914D01*
X144159524Y-101197914D02*
X144064286Y-101245533D01*
D11*
X151946666Y-100778059D02*
X151780000Y-100539964D01*
X151660952Y-100778059D02*
X151660952Y-100278059D01*
X151660952Y-100278059D02*
X151851428Y-100278059D01*
X151851428Y-100278059D02*
X151899047Y-100301869D01*
X151899047Y-100301869D02*
X151922857Y-100325678D01*
X151922857Y-100325678D02*
X151946666Y-100373297D01*
X151946666Y-100373297D02*
X151946666Y-100444726D01*
X151946666Y-100444726D02*
X151922857Y-100492345D01*
X151922857Y-100492345D02*
X151899047Y-100516154D01*
X151899047Y-100516154D02*
X151851428Y-100539964D01*
X151851428Y-100539964D02*
X151660952Y-100539964D01*
X152422857Y-100778059D02*
X152137143Y-100778059D01*
X152280000Y-100778059D02*
X152280000Y-100278059D01*
X152280000Y-100278059D02*
X152232381Y-100349488D01*
X152232381Y-100349488D02*
X152184762Y-100397107D01*
X152184762Y-100397107D02*
X152137143Y-100420916D01*
D10*
X141984819Y-95766666D02*
X141508628Y-96099999D01*
X141984819Y-96338094D02*
X140984819Y-96338094D01*
X140984819Y-96338094D02*
X140984819Y-95957142D01*
X140984819Y-95957142D02*
X141032438Y-95861904D01*
X141032438Y-95861904D02*
X141080057Y-95814285D01*
X141080057Y-95814285D02*
X141175295Y-95766666D01*
X141175295Y-95766666D02*
X141318152Y-95766666D01*
X141318152Y-95766666D02*
X141413390Y-95814285D01*
X141413390Y-95814285D02*
X141461009Y-95861904D01*
X141461009Y-95861904D02*
X141508628Y-95957142D01*
X141508628Y-95957142D02*
X141508628Y-96338094D01*
X140984819Y-95433332D02*
X140984819Y-94814285D01*
X140984819Y-94814285D02*
X141365771Y-95147618D01*
X141365771Y-95147618D02*
X141365771Y-95004761D01*
X141365771Y-95004761D02*
X141413390Y-94909523D01*
X141413390Y-94909523D02*
X141461009Y-94861904D01*
X141461009Y-94861904D02*
X141556247Y-94814285D01*
X141556247Y-94814285D02*
X141794342Y-94814285D01*
X141794342Y-94814285D02*
X141889580Y-94861904D01*
X141889580Y-94861904D02*
X141937200Y-94909523D01*
X141937200Y-94909523D02*
X141984819Y-95004761D01*
X141984819Y-95004761D02*
X141984819Y-95290475D01*
X141984819Y-95290475D02*
X141937200Y-95385713D01*
X141937200Y-95385713D02*
X141889580Y-95433332D01*
D11*
X152178571Y-92970440D02*
X152154762Y-92994250D01*
X152154762Y-92994250D02*
X152083333Y-93018059D01*
X152083333Y-93018059D02*
X152035714Y-93018059D01*
X152035714Y-93018059D02*
X151964286Y-92994250D01*
X151964286Y-92994250D02*
X151916667Y-92946630D01*
X151916667Y-92946630D02*
X151892857Y-92899011D01*
X151892857Y-92899011D02*
X151869048Y-92803773D01*
X151869048Y-92803773D02*
X151869048Y-92732345D01*
X151869048Y-92732345D02*
X151892857Y-92637107D01*
X151892857Y-92637107D02*
X151916667Y-92589488D01*
X151916667Y-92589488D02*
X151964286Y-92541869D01*
X151964286Y-92541869D02*
X152035714Y-92518059D01*
X152035714Y-92518059D02*
X152083333Y-92518059D01*
X152083333Y-92518059D02*
X152154762Y-92541869D01*
X152154762Y-92541869D02*
X152178571Y-92565678D01*
X152654762Y-93018059D02*
X152369048Y-93018059D01*
X152511905Y-93018059D02*
X152511905Y-92518059D01*
X152511905Y-92518059D02*
X152464286Y-92589488D01*
X152464286Y-92589488D02*
X152416667Y-92637107D01*
X152416667Y-92637107D02*
X152369048Y-92660916D01*
X153083333Y-92518059D02*
X152988095Y-92518059D01*
X152988095Y-92518059D02*
X152940476Y-92541869D01*
X152940476Y-92541869D02*
X152916666Y-92565678D01*
X152916666Y-92565678D02*
X152869047Y-92637107D01*
X152869047Y-92637107D02*
X152845238Y-92732345D01*
X152845238Y-92732345D02*
X152845238Y-92922821D01*
X152845238Y-92922821D02*
X152869047Y-92970440D01*
X152869047Y-92970440D02*
X152892857Y-92994250D01*
X152892857Y-92994250D02*
X152940476Y-93018059D01*
X152940476Y-93018059D02*
X153035714Y-93018059D01*
X153035714Y-93018059D02*
X153083333Y-92994250D01*
X153083333Y-92994250D02*
X153107142Y-92970440D01*
X153107142Y-92970440D02*
X153130952Y-92922821D01*
X153130952Y-92922821D02*
X153130952Y-92803773D01*
X153130952Y-92803773D02*
X153107142Y-92756154D01*
X153107142Y-92756154D02*
X153083333Y-92732345D01*
X153083333Y-92732345D02*
X153035714Y-92708535D01*
X153035714Y-92708535D02*
X152940476Y-92708535D01*
X152940476Y-92708535D02*
X152892857Y-92732345D01*
X152892857Y-92732345D02*
X152869047Y-92756154D01*
X152869047Y-92756154D02*
X152845238Y-92803773D01*
D10*
X152978095Y-87794819D02*
X152978095Y-88604342D01*
X152978095Y-88604342D02*
X153025714Y-88699580D01*
X153025714Y-88699580D02*
X153073333Y-88747200D01*
X153073333Y-88747200D02*
X153168571Y-88794819D01*
X153168571Y-88794819D02*
X153359047Y-88794819D01*
X153359047Y-88794819D02*
X153454285Y-88747200D01*
X153454285Y-88747200D02*
X153501904Y-88699580D01*
X153501904Y-88699580D02*
X153549523Y-88604342D01*
X153549523Y-88604342D02*
X153549523Y-87794819D01*
X154454285Y-88128152D02*
X154454285Y-88794819D01*
X154216190Y-87747200D02*
X153978095Y-88461485D01*
X153978095Y-88461485D02*
X154597142Y-88461485D01*
X141239580Y-93296666D02*
X141287200Y-93344285D01*
X141287200Y-93344285D02*
X141334819Y-93487142D01*
X141334819Y-93487142D02*
X141334819Y-93582380D01*
X141334819Y-93582380D02*
X141287200Y-93725237D01*
X141287200Y-93725237D02*
X141191961Y-93820475D01*
X141191961Y-93820475D02*
X141096723Y-93868094D01*
X141096723Y-93868094D02*
X140906247Y-93915713D01*
X140906247Y-93915713D02*
X140763390Y-93915713D01*
X140763390Y-93915713D02*
X140572914Y-93868094D01*
X140572914Y-93868094D02*
X140477676Y-93820475D01*
X140477676Y-93820475D02*
X140382438Y-93725237D01*
X140382438Y-93725237D02*
X140334819Y-93582380D01*
X140334819Y-93582380D02*
X140334819Y-93487142D01*
X140334819Y-93487142D02*
X140382438Y-93344285D01*
X140382438Y-93344285D02*
X140430057Y-93296666D01*
X140430057Y-92915713D02*
X140382438Y-92868094D01*
X140382438Y-92868094D02*
X140334819Y-92772856D01*
X140334819Y-92772856D02*
X140334819Y-92534761D01*
X140334819Y-92534761D02*
X140382438Y-92439523D01*
X140382438Y-92439523D02*
X140430057Y-92391904D01*
X140430057Y-92391904D02*
X140525295Y-92344285D01*
X140525295Y-92344285D02*
X140620533Y-92344285D01*
X140620533Y-92344285D02*
X140763390Y-92391904D01*
X140763390Y-92391904D02*
X141334819Y-92963332D01*
X141334819Y-92963332D02*
X141334819Y-92344285D01*
X141684819Y-76921904D02*
X142494342Y-76921904D01*
X142494342Y-76921904D02*
X142589580Y-76874285D01*
X142589580Y-76874285D02*
X142637200Y-76826666D01*
X142637200Y-76826666D02*
X142684819Y-76731428D01*
X142684819Y-76731428D02*
X142684819Y-76540952D01*
X142684819Y-76540952D02*
X142637200Y-76445714D01*
X142637200Y-76445714D02*
X142589580Y-76398095D01*
X142589580Y-76398095D02*
X142494342Y-76350476D01*
X142494342Y-76350476D02*
X141684819Y-76350476D01*
X141780057Y-75921904D02*
X141732438Y-75874285D01*
X141732438Y-75874285D02*
X141684819Y-75779047D01*
X141684819Y-75779047D02*
X141684819Y-75540952D01*
X141684819Y-75540952D02*
X141732438Y-75445714D01*
X141732438Y-75445714D02*
X141780057Y-75398095D01*
X141780057Y-75398095D02*
X141875295Y-75350476D01*
X141875295Y-75350476D02*
X141970533Y-75350476D01*
X141970533Y-75350476D02*
X142113390Y-75398095D01*
X142113390Y-75398095D02*
X142684819Y-75969523D01*
X142684819Y-75969523D02*
X142684819Y-75350476D01*
X134023333Y-66319580D02*
X133975714Y-66367200D01*
X133975714Y-66367200D02*
X133832857Y-66414819D01*
X133832857Y-66414819D02*
X133737619Y-66414819D01*
X133737619Y-66414819D02*
X133594762Y-66367200D01*
X133594762Y-66367200D02*
X133499524Y-66271961D01*
X133499524Y-66271961D02*
X133451905Y-66176723D01*
X133451905Y-66176723D02*
X133404286Y-65986247D01*
X133404286Y-65986247D02*
X133404286Y-65843390D01*
X133404286Y-65843390D02*
X133451905Y-65652914D01*
X133451905Y-65652914D02*
X133499524Y-65557676D01*
X133499524Y-65557676D02*
X133594762Y-65462438D01*
X133594762Y-65462438D02*
X133737619Y-65414819D01*
X133737619Y-65414819D02*
X133832857Y-65414819D01*
X133832857Y-65414819D02*
X133975714Y-65462438D01*
X133975714Y-65462438D02*
X134023333Y-65510057D01*
X134928095Y-65414819D02*
X134451905Y-65414819D01*
X134451905Y-65414819D02*
X134404286Y-65891009D01*
X134404286Y-65891009D02*
X134451905Y-65843390D01*
X134451905Y-65843390D02*
X134547143Y-65795771D01*
X134547143Y-65795771D02*
X134785238Y-65795771D01*
X134785238Y-65795771D02*
X134880476Y-65843390D01*
X134880476Y-65843390D02*
X134928095Y-65891009D01*
X134928095Y-65891009D02*
X134975714Y-65986247D01*
X134975714Y-65986247D02*
X134975714Y-66224342D01*
X134975714Y-66224342D02*
X134928095Y-66319580D01*
X134928095Y-66319580D02*
X134880476Y-66367200D01*
X134880476Y-66367200D02*
X134785238Y-66414819D01*
X134785238Y-66414819D02*
X134547143Y-66414819D01*
X134547143Y-66414819D02*
X134451905Y-66367200D01*
X134451905Y-66367200D02*
X134404286Y-66319580D01*
D11*
X150198571Y-79810440D02*
X150174762Y-79834250D01*
X150174762Y-79834250D02*
X150103333Y-79858059D01*
X150103333Y-79858059D02*
X150055714Y-79858059D01*
X150055714Y-79858059D02*
X149984286Y-79834250D01*
X149984286Y-79834250D02*
X149936667Y-79786630D01*
X149936667Y-79786630D02*
X149912857Y-79739011D01*
X149912857Y-79739011D02*
X149889048Y-79643773D01*
X149889048Y-79643773D02*
X149889048Y-79572345D01*
X149889048Y-79572345D02*
X149912857Y-79477107D01*
X149912857Y-79477107D02*
X149936667Y-79429488D01*
X149936667Y-79429488D02*
X149984286Y-79381869D01*
X149984286Y-79381869D02*
X150055714Y-79358059D01*
X150055714Y-79358059D02*
X150103333Y-79358059D01*
X150103333Y-79358059D02*
X150174762Y-79381869D01*
X150174762Y-79381869D02*
X150198571Y-79405678D01*
X150674762Y-79858059D02*
X150389048Y-79858059D01*
X150531905Y-79858059D02*
X150531905Y-79358059D01*
X150531905Y-79358059D02*
X150484286Y-79429488D01*
X150484286Y-79429488D02*
X150436667Y-79477107D01*
X150436667Y-79477107D02*
X150389048Y-79500916D01*
X150841428Y-79358059D02*
X151150952Y-79358059D01*
X151150952Y-79358059D02*
X150984285Y-79548535D01*
X150984285Y-79548535D02*
X151055714Y-79548535D01*
X151055714Y-79548535D02*
X151103333Y-79572345D01*
X151103333Y-79572345D02*
X151127142Y-79596154D01*
X151127142Y-79596154D02*
X151150952Y-79643773D01*
X151150952Y-79643773D02*
X151150952Y-79762821D01*
X151150952Y-79762821D02*
X151127142Y-79810440D01*
X151127142Y-79810440D02*
X151103333Y-79834250D01*
X151103333Y-79834250D02*
X151055714Y-79858059D01*
X151055714Y-79858059D02*
X150912857Y-79858059D01*
X150912857Y-79858059D02*
X150865238Y-79834250D01*
X150865238Y-79834250D02*
X150841428Y-79810440D01*
X158780440Y-94783333D02*
X158804250Y-94807142D01*
X158804250Y-94807142D02*
X158828059Y-94878571D01*
X158828059Y-94878571D02*
X158828059Y-94926190D01*
X158828059Y-94926190D02*
X158804250Y-94997618D01*
X158804250Y-94997618D02*
X158756630Y-95045237D01*
X158756630Y-95045237D02*
X158709011Y-95069047D01*
X158709011Y-95069047D02*
X158613773Y-95092856D01*
X158613773Y-95092856D02*
X158542345Y-95092856D01*
X158542345Y-95092856D02*
X158447107Y-95069047D01*
X158447107Y-95069047D02*
X158399488Y-95045237D01*
X158399488Y-95045237D02*
X158351869Y-94997618D01*
X158351869Y-94997618D02*
X158328059Y-94926190D01*
X158328059Y-94926190D02*
X158328059Y-94878571D01*
X158328059Y-94878571D02*
X158351869Y-94807142D01*
X158351869Y-94807142D02*
X158375678Y-94783333D01*
X158328059Y-94616666D02*
X158328059Y-94283333D01*
X158328059Y-94283333D02*
X158828059Y-94497618D01*
D10*
X141279580Y-90876666D02*
X141327200Y-90924285D01*
X141327200Y-90924285D02*
X141374819Y-91067142D01*
X141374819Y-91067142D02*
X141374819Y-91162380D01*
X141374819Y-91162380D02*
X141327200Y-91305237D01*
X141327200Y-91305237D02*
X141231961Y-91400475D01*
X141231961Y-91400475D02*
X141136723Y-91448094D01*
X141136723Y-91448094D02*
X140946247Y-91495713D01*
X140946247Y-91495713D02*
X140803390Y-91495713D01*
X140803390Y-91495713D02*
X140612914Y-91448094D01*
X140612914Y-91448094D02*
X140517676Y-91400475D01*
X140517676Y-91400475D02*
X140422438Y-91305237D01*
X140422438Y-91305237D02*
X140374819Y-91162380D01*
X140374819Y-91162380D02*
X140374819Y-91067142D01*
X140374819Y-91067142D02*
X140422438Y-90924285D01*
X140422438Y-90924285D02*
X140470057Y-90876666D01*
X140374819Y-90543332D02*
X140374819Y-89924285D01*
X140374819Y-89924285D02*
X140755771Y-90257618D01*
X140755771Y-90257618D02*
X140755771Y-90114761D01*
X140755771Y-90114761D02*
X140803390Y-90019523D01*
X140803390Y-90019523D02*
X140851009Y-89971904D01*
X140851009Y-89971904D02*
X140946247Y-89924285D01*
X140946247Y-89924285D02*
X141184342Y-89924285D01*
X141184342Y-89924285D02*
X141279580Y-89971904D01*
X141279580Y-89971904D02*
X141327200Y-90019523D01*
X141327200Y-90019523D02*
X141374819Y-90114761D01*
X141374819Y-90114761D02*
X141374819Y-90400475D01*
X141374819Y-90400475D02*
X141327200Y-90495713D01*
X141327200Y-90495713D02*
X141279580Y-90543332D01*
X138803333Y-69587580D02*
X138755714Y-69635200D01*
X138755714Y-69635200D02*
X138612857Y-69682819D01*
X138612857Y-69682819D02*
X138517619Y-69682819D01*
X138517619Y-69682819D02*
X138374762Y-69635200D01*
X138374762Y-69635200D02*
X138279524Y-69539961D01*
X138279524Y-69539961D02*
X138231905Y-69444723D01*
X138231905Y-69444723D02*
X138184286Y-69254247D01*
X138184286Y-69254247D02*
X138184286Y-69111390D01*
X138184286Y-69111390D02*
X138231905Y-68920914D01*
X138231905Y-68920914D02*
X138279524Y-68825676D01*
X138279524Y-68825676D02*
X138374762Y-68730438D01*
X138374762Y-68730438D02*
X138517619Y-68682819D01*
X138517619Y-68682819D02*
X138612857Y-68682819D01*
X138612857Y-68682819D02*
X138755714Y-68730438D01*
X138755714Y-68730438D02*
X138803333Y-68778057D01*
X139660476Y-68682819D02*
X139470000Y-68682819D01*
X139470000Y-68682819D02*
X139374762Y-68730438D01*
X139374762Y-68730438D02*
X139327143Y-68778057D01*
X139327143Y-68778057D02*
X139231905Y-68920914D01*
X139231905Y-68920914D02*
X139184286Y-69111390D01*
X139184286Y-69111390D02*
X139184286Y-69492342D01*
X139184286Y-69492342D02*
X139231905Y-69587580D01*
X139231905Y-69587580D02*
X139279524Y-69635200D01*
X139279524Y-69635200D02*
X139374762Y-69682819D01*
X139374762Y-69682819D02*
X139565238Y-69682819D01*
X139565238Y-69682819D02*
X139660476Y-69635200D01*
X139660476Y-69635200D02*
X139708095Y-69587580D01*
X139708095Y-69587580D02*
X139755714Y-69492342D01*
X139755714Y-69492342D02*
X139755714Y-69254247D01*
X139755714Y-69254247D02*
X139708095Y-69159009D01*
X139708095Y-69159009D02*
X139660476Y-69111390D01*
X139660476Y-69111390D02*
X139565238Y-69063771D01*
X139565238Y-69063771D02*
X139374762Y-69063771D01*
X139374762Y-69063771D02*
X139279524Y-69111390D01*
X139279524Y-69111390D02*
X139231905Y-69159009D01*
X139231905Y-69159009D02*
X139184286Y-69254247D01*
%TO.C,U1*%
D12*
X147190000Y-96901250D02*
X147240000Y-96901250D01*
X147190000Y-98721250D02*
X147190000Y-96901250D01*
X147240000Y-98721250D02*
X147190000Y-98721250D01*
X150260000Y-96901250D02*
X150310000Y-96901250D01*
X150310000Y-96901250D02*
X150310000Y-98721250D01*
X150310000Y-98721250D02*
X150260000Y-98721250D01*
X147240000Y-99261250D02*
X146910000Y-99501250D01*
X146910000Y-99021250D01*
X147240000Y-99261250D01*
G36*
X147240000Y-99261250D02*
G01*
X146910000Y-99501250D01*
X146910000Y-99021250D01*
X147240000Y-99261250D01*
G37*
%TO.C,R10*%
X150270000Y-93526359D02*
X150270000Y-93833641D01*
X151030000Y-93526359D02*
X151030000Y-93833641D01*
%TO.C,C14*%
X154738748Y-84595000D02*
X155261252Y-84595000D01*
X154738748Y-86065000D02*
X155261252Y-86065000D01*
%TO.C,R6*%
X160096359Y-84850000D02*
X160403641Y-84850000D01*
X160096359Y-85610000D02*
X160403641Y-85610000D01*
%TO.C,CN1*%
D13*
X157000000Y-96892500D02*
X161770000Y-96892500D01*
X157000000Y-97812500D02*
X157000000Y-96892500D01*
X157000000Y-101812500D02*
X157000000Y-99772500D01*
X157000000Y-104812500D02*
X157000000Y-103772500D01*
X157000000Y-108992500D02*
X157000000Y-106772500D01*
X157000000Y-108992500D02*
X163000000Y-108992500D01*
X157500000Y-108992500D02*
X157500000Y-110992500D01*
X157500000Y-110992500D02*
X162500000Y-110992500D01*
X162500000Y-110992500D02*
X162500000Y-108992500D01*
X163000000Y-108992500D02*
X163000000Y-98372500D01*
%TO.C,SW2*%
D12*
X161600000Y-85780000D02*
X161900000Y-85780000D01*
X161600000Y-89080000D02*
X161600000Y-85780000D01*
X161900000Y-89080000D02*
X161600000Y-89080000D01*
X164100000Y-89080000D02*
X164400000Y-89080000D01*
X164400000Y-85780000D02*
X164100000Y-85780000D01*
X164400000Y-89080000D02*
X164400000Y-85780000D01*
%TO.C,U3*%
X141740000Y-86107500D02*
X141790000Y-86107500D01*
X141740000Y-87927500D02*
X141740000Y-86107500D01*
X141790000Y-87927500D02*
X141740000Y-87927500D01*
X142910000Y-86107500D02*
X143690000Y-86107500D01*
X144810000Y-86107500D02*
X144860000Y-86107500D01*
X144860000Y-86107500D02*
X144860000Y-87927500D01*
X144860000Y-87927500D02*
X144810000Y-87927500D01*
X141790000Y-88467500D02*
X141460000Y-88707500D01*
X141460000Y-88227500D01*
X141790000Y-88467500D01*
G36*
X141790000Y-88467500D02*
G01*
X141460000Y-88707500D01*
X141460000Y-88227500D01*
X141790000Y-88467500D01*
G37*
%TO.C,J4*%
X134755000Y-69765000D02*
X135500000Y-69765000D01*
X134755000Y-70500000D02*
X134755000Y-69765000D01*
X134755000Y-71235000D02*
X134755000Y-92110000D01*
X134755000Y-71235000D02*
X134814435Y-71235000D01*
X134755000Y-92110000D02*
X135089970Y-92110000D01*
X135910030Y-92110000D02*
X136245000Y-92110000D01*
X136185565Y-71235000D02*
X136245000Y-71235000D01*
X136245000Y-71235000D02*
X136245000Y-92110000D01*
%TO.C,C17*%
X154775000Y-95191252D02*
X154775000Y-94668748D01*
X156245000Y-95191252D02*
X156245000Y-94668748D01*
%TO.C,R4*%
X160096359Y-90850000D02*
X160403641Y-90850000D01*
X160096359Y-91610000D02*
X160403641Y-91610000D01*
%TO.C,C4*%
X143038748Y-82920000D02*
X143561252Y-82920000D01*
X143038748Y-84390000D02*
X143561252Y-84390000D01*
%TO.C,C15*%
X152265000Y-82141252D02*
X152265000Y-81618748D01*
X153735000Y-82141252D02*
X153735000Y-81618748D01*
%TO.C,R5*%
X160403641Y-91850000D02*
X160096359Y-91850000D01*
X160403641Y-92610000D02*
X160096359Y-92610000D01*
%TO.C,R8*%
X148120000Y-93526359D02*
X148120000Y-93833641D01*
X148880000Y-93526359D02*
X148880000Y-93833641D01*
%TO.C,C1*%
X143511252Y-97420000D02*
X142988748Y-97420000D01*
X143511252Y-98890000D02*
X142988748Y-98890000D01*
%TO.C,SW1*%
X161600000Y-91580000D02*
X161900000Y-91580000D01*
X161600000Y-94880000D02*
X161600000Y-91580000D01*
X161900000Y-94880000D02*
X161600000Y-94880000D01*
X164100000Y-94880000D02*
X164400000Y-94880000D01*
X164400000Y-91580000D02*
X164100000Y-91580000D01*
X164400000Y-94880000D02*
X164400000Y-91580000D01*
%TO.C,R9*%
X149190000Y-93526359D02*
X149190000Y-93833641D01*
X149950000Y-93526359D02*
X149950000Y-93833641D01*
%TO.C,C12*%
X147265000Y-82141252D02*
X147265000Y-81618748D01*
X148735000Y-82141252D02*
X148735000Y-81618748D01*
%TO.C,J1*%
X143670000Y-104305000D02*
X143670000Y-106225000D01*
X143670000Y-109940000D02*
X143670000Y-108235000D01*
X152830000Y-106225000D02*
X152830000Y-104305000D01*
X152830000Y-108235000D02*
X152830000Y-109940000D01*
X152830000Y-109940000D02*
X143670000Y-109940000D01*
%TO.C,C8*%
X159265000Y-88468748D02*
X159265000Y-88991252D01*
X160735000Y-88468748D02*
X160735000Y-88991252D01*
%TO.C,R2*%
X145720000Y-100058641D02*
X145720000Y-99751359D01*
X146480000Y-100058641D02*
X146480000Y-99751359D01*
%TO.C,R7*%
X160403641Y-85850000D02*
X160096359Y-85850000D01*
X160403641Y-86610000D02*
X160096359Y-86610000D01*
%TO.C,D1*%
X144760000Y-99545000D02*
X143350000Y-99545000D01*
X144760000Y-100765000D02*
X143350000Y-100765000D01*
X144760000Y-100765000D02*
X144760000Y-99545000D01*
%TO.C,R1*%
X150600000Y-100443641D02*
X150600000Y-100136359D01*
X151360000Y-100443641D02*
X151360000Y-100136359D01*
%TO.C,R3*%
X143403641Y-95275000D02*
X143096359Y-95275000D01*
X143403641Y-96035000D02*
X143096359Y-96035000D01*
%TO.C,C16*%
X151765000Y-95191252D02*
X151765000Y-94668748D01*
X153235000Y-95191252D02*
X153235000Y-94668748D01*
%TO.C,U4*%
D13*
X147500000Y-90070000D02*
X147500000Y-86590000D01*
X152510000Y-86590000D02*
X147500000Y-86590000D01*
X152510000Y-86730000D02*
X152510000Y-87640000D01*
X152510000Y-89020000D02*
X152510000Y-90070000D01*
X152510000Y-90070000D02*
X147500000Y-90070000D01*
X152510000Y-89020000D02*
G75*
G02*
X152510000Y-87640000I0J690000D01*
G01*
D14*
X151830000Y-87220000D02*
G75*
G02*
X151430000Y-87220000I-200000J0D01*
G01*
X151430000Y-87220000D02*
G75*
G02*
X151830000Y-87220000I200000J0D01*
G01*
D15*
X152060000Y-85710000D02*
G75*
G02*
X152000000Y-85710000I-30000J0D01*
G01*
X152000000Y-85710000D02*
G75*
G02*
X152060000Y-85710000I30000J0D01*
G01*
%TO.C,C2*%
D12*
X143038748Y-92420000D02*
X143561252Y-92420000D01*
X143038748Y-93890000D02*
X143561252Y-93890000D01*
%TO.C,U2*%
X143530000Y-51860000D02*
X143530000Y-58060000D01*
X143530000Y-51860000D02*
X161930000Y-51860000D01*
X143530000Y-76710000D02*
X143530000Y-77710000D01*
X143530000Y-77710000D02*
X145030000Y-77710000D01*
X161930000Y-51860000D02*
X161930000Y-58060000D01*
X161930000Y-77710000D02*
X160430000Y-77710000D01*
X161930000Y-77710000D02*
X161930000Y-76710000D01*
X143530000Y-58735000D02*
X143030000Y-58735000D01*
X143530000Y-58235000D01*
X143530000Y-58735000D01*
G36*
X143530000Y-58735000D02*
G01*
X143030000Y-58735000D01*
X143530000Y-58235000D01*
X143530000Y-58735000D01*
G37*
%TO.C,C5*%
X135231252Y-66813000D02*
X134708748Y-66813000D01*
X135231252Y-68283000D02*
X134708748Y-68283000D01*
%TO.C,J5*%
X168755000Y-69765000D02*
X169500000Y-69765000D01*
X168755000Y-70500000D02*
X168755000Y-69765000D01*
X168755000Y-71235000D02*
X168755000Y-92110000D01*
X168755000Y-71235000D02*
X168814435Y-71235000D01*
X168755000Y-92110000D02*
X169089970Y-92110000D01*
X169910030Y-92110000D02*
X170245000Y-92110000D01*
X170185565Y-71235000D02*
X170245000Y-71235000D01*
X170245000Y-71235000D02*
X170245000Y-92110000D01*
%TO.C,C13*%
X149765000Y-81618748D02*
X149765000Y-82141252D01*
X151235000Y-81618748D02*
X151235000Y-82141252D01*
%TO.C,C7*%
X159265000Y-94418748D02*
X159265000Y-94941252D01*
X160735000Y-94418748D02*
X160735000Y-94941252D01*
%TO.C,C3*%
X143038748Y-89920000D02*
X143561252Y-89920000D01*
X143038748Y-91390000D02*
X143561252Y-91390000D01*
%TO.C,C6*%
X139231252Y-66813000D02*
X138708748Y-66813000D01*
X139231252Y-68283000D02*
X138708748Y-68283000D01*
%TD*%
M02*
