%TF.GenerationSoftware,KiCad,Pcbnew,10.0.1*%
%TF.CreationDate,2026-05-11T19:38:50+02:00*%
%TF.ProjectId,esp32s3_adc_mini,65737033-3273-4335-9f61-64635f6d696e,rev?*%
%TF.SameCoordinates,Original*%
%TF.FileFunction,Paste,Top*%
%TF.FilePolarity,Positive*%
%FSLAX46Y46*%
G04 Gerber Fmt 4.6, Leading zero omitted, Abs format (unit mm)*
G04 Created by KiCad (PCBNEW 10.0.1) date 2026-05-11 19:38:50*
%MOMM*%
%LPD*%
G01*
G04 APERTURE LIST*
G04 Aperture macros list*
%AMRoundRect*
0 Rectangle with rounded corners*
0 $1 Rounding radius*
0 $2 $3 $4 $5 $6 $7 $8 $9 X,Y pos of 4 corners*
0 Add a 4 corners polygon primitive as box body*
4,1,4,$2,$3,$4,$5,$6,$7,$8,$9,$2,$3,0*
0 Add four circle primitives for the rounded corners*
1,1,$1+$1,$2,$3*
1,1,$1+$1,$4,$5*
1,1,$1+$1,$6,$7*
1,1,$1+$1,$8,$9*
0 Add four rect primitives between the rounded corners*
20,1,$1+$1,$2,$3,$4,$5,0*
20,1,$1+$1,$4,$5,$6,$7,0*
20,1,$1+$1,$6,$7,$8,$9,0*
20,1,$1+$1,$8,$9,$2,$3,0*%
G04 Aperture macros list end*
%ADD10RoundRect,0.150000X0.150000X-0.512500X0.150000X0.512500X-0.150000X0.512500X-0.150000X-0.512500X0*%
%ADD11RoundRect,0.135000X-0.185000X0.135000X-0.185000X-0.135000X0.185000X-0.135000X0.185000X0.135000X0*%
%ADD12RoundRect,0.250000X-0.250000X-0.475000X0.250000X-0.475000X0.250000X0.475000X-0.250000X0.475000X0*%
%ADD13RoundRect,0.135000X-0.135000X-0.185000X0.135000X-0.185000X0.135000X0.185000X-0.135000X0.185000X0*%
%ADD14R,3.000000X1.500000*%
%ADD15R,1.700000X0.900000*%
%ADD16RoundRect,0.250000X0.475000X-0.250000X0.475000X0.250000X-0.475000X0.250000X-0.475000X-0.250000X0*%
%ADD17RoundRect,0.135000X0.135000X0.185000X-0.135000X0.185000X-0.135000X-0.185000X0.135000X-0.185000X0*%
%ADD18RoundRect,0.250000X0.250000X0.475000X-0.250000X0.475000X-0.250000X-0.475000X0.250000X-0.475000X0*%
%ADD19RoundRect,0.150000X-0.150000X-0.470000X0.150000X-0.470000X0.150000X0.470000X-0.150000X0.470000X0*%
%ADD20RoundRect,0.075000X-0.075000X-0.545000X0.075000X-0.545000X0.075000X0.545000X-0.075000X0.545000X0*%
%ADD21RoundRect,0.250000X-0.475000X0.250000X-0.475000X-0.250000X0.475000X-0.250000X0.475000X0.250000X0*%
%ADD22RoundRect,0.135000X0.185000X-0.135000X0.185000X0.135000X-0.185000X0.135000X-0.185000X-0.135000X0*%
%ADD23RoundRect,0.075000X0.075000X0.225000X-0.075000X0.225000X-0.075000X-0.225000X0.075000X-0.225000X0*%
%ADD24R,0.400000X1.700000*%
%ADD25R,0.900000X0.900000*%
%ADD26R,1.500000X0.900000*%
%ADD27R,0.900000X1.500000*%
G04 APERTURE END LIST*
D10*
%TO.C,U1*%
X147800000Y-98948750D03*
X148750000Y-98948750D03*
X149700000Y-98948750D03*
X149700000Y-96673750D03*
X148750000Y-96673750D03*
X147800000Y-96673750D03*
%TD*%
D11*
%TO.C,R10*%
X150650000Y-93170000D03*
X150650000Y-94190000D03*
%TD*%
D12*
%TO.C,C14*%
X154050000Y-85330000D03*
X155950000Y-85330000D03*
%TD*%
D13*
%TO.C,R6*%
X159740000Y-85230000D03*
X160760000Y-85230000D03*
%TD*%
D14*
%TO.C,CN1*%
X163500000Y-97392500D03*
X156500000Y-105792500D03*
X156500000Y-102792500D03*
X156500000Y-98792500D03*
%TD*%
D15*
%TO.C,SW2*%
X163000000Y-89130000D03*
X163000000Y-85730000D03*
%TD*%
D10*
%TO.C,U3*%
X142350000Y-88155000D03*
X143300000Y-88155000D03*
X144250000Y-88155000D03*
X144250000Y-85880000D03*
X142350000Y-85880000D03*
%TD*%
D16*
%TO.C,C17*%
X155510000Y-95880000D03*
X155510000Y-93980000D03*
%TD*%
D13*
%TO.C,R4*%
X159740000Y-91230000D03*
X160760000Y-91230000D03*
%TD*%
D12*
%TO.C,C4*%
X142350000Y-83655000D03*
X144250000Y-83655000D03*
%TD*%
D16*
%TO.C,C15*%
X153000000Y-82830000D03*
X153000000Y-80930000D03*
%TD*%
D17*
%TO.C,R5*%
X160760000Y-92230000D03*
X159740000Y-92230000D03*
%TD*%
D11*
%TO.C,R8*%
X148500000Y-93170000D03*
X148500000Y-94190000D03*
%TD*%
D18*
%TO.C,C1*%
X144200000Y-98155000D03*
X142300000Y-98155000D03*
%TD*%
D15*
%TO.C,SW1*%
X163000000Y-94930000D03*
X163000000Y-91530000D03*
%TD*%
D11*
%TO.C,R9*%
X149570000Y-93170000D03*
X149570000Y-94190000D03*
%TD*%
D16*
%TO.C,C12*%
X148000000Y-82830000D03*
X148000000Y-80930000D03*
%TD*%
D19*
%TO.C,J1*%
X145050000Y-102430000D03*
X145850000Y-102430000D03*
D20*
X147000000Y-102430000D03*
X148000000Y-102430000D03*
X148500000Y-102430000D03*
X149500000Y-102430000D03*
D19*
X150650000Y-102430000D03*
X151450000Y-102430000D03*
X151450000Y-102430000D03*
X150650000Y-102430000D03*
D20*
X150000000Y-102430000D03*
X149000000Y-102430000D03*
X147500000Y-102430000D03*
X146500000Y-102430000D03*
D19*
X145850000Y-102430000D03*
X145050000Y-102430000D03*
%TD*%
D21*
%TO.C,C8*%
X160000000Y-87780000D03*
X160000000Y-89680000D03*
%TD*%
D22*
%TO.C,R2*%
X146100000Y-100415000D03*
X146100000Y-99395000D03*
%TD*%
D17*
%TO.C,R7*%
X160760000Y-86230000D03*
X159740000Y-86230000D03*
%TD*%
D23*
%TO.C,D1*%
X144200000Y-100155000D03*
X143500000Y-100155000D03*
%TD*%
D22*
%TO.C,R1*%
X150980000Y-100800000D03*
X150980000Y-99780000D03*
%TD*%
D17*
%TO.C,R3*%
X143760000Y-95655000D03*
X142740000Y-95655000D03*
%TD*%
D16*
%TO.C,C16*%
X152500000Y-95880000D03*
X152500000Y-93980000D03*
%TD*%
D24*
%TO.C,U4*%
X151950000Y-85530000D03*
X151300000Y-85530000D03*
X150650000Y-85530000D03*
X150000000Y-85530000D03*
X149350000Y-85530000D03*
X148700000Y-85530000D03*
X148050000Y-85530000D03*
X148050000Y-91130000D03*
X148700000Y-91130000D03*
X149350000Y-91130000D03*
X150000000Y-91130000D03*
X150650000Y-91130000D03*
X151300000Y-91130000D03*
X151950000Y-91130000D03*
%TD*%
D12*
%TO.C,C2*%
X142350000Y-93155000D03*
X144250000Y-93155000D03*
%TD*%
D25*
%TO.C,U2*%
X149830000Y-65820000D03*
X149830000Y-67220000D03*
X149830000Y-68620000D03*
X151230000Y-65820000D03*
X151230000Y-67220000D03*
X151230000Y-68620000D03*
X152630000Y-65820000D03*
X152630000Y-67220000D03*
X152630000Y-68620000D03*
D26*
X143980000Y-59500000D03*
X143980000Y-60770000D03*
X143980000Y-62040000D03*
X143980000Y-63310000D03*
X143980000Y-64580000D03*
X143980000Y-65850000D03*
X143980000Y-67120000D03*
X143980000Y-68390000D03*
X143980000Y-69660000D03*
X143980000Y-70930000D03*
X143980000Y-72200000D03*
X143980000Y-73470000D03*
X143980000Y-74740000D03*
X143980000Y-76010000D03*
D27*
X145745000Y-77260000D03*
X147015000Y-77260000D03*
X148285000Y-77260000D03*
X149555000Y-77260000D03*
X150825000Y-77260000D03*
X152095000Y-77260000D03*
X153365000Y-77260000D03*
X154635000Y-77260000D03*
X155905000Y-77260000D03*
X157175000Y-77260000D03*
X158445000Y-77260000D03*
X159715000Y-77260000D03*
D26*
X161480000Y-76010000D03*
X161480000Y-74740000D03*
X161480000Y-73470000D03*
X161480000Y-72200000D03*
X161480000Y-70930000D03*
X161480000Y-69660000D03*
X161480000Y-68390000D03*
X161480000Y-67120000D03*
X161480000Y-65850000D03*
X161480000Y-64580000D03*
X161480000Y-63310000D03*
X161480000Y-62040000D03*
X161480000Y-60770000D03*
X161480000Y-59500000D03*
%TD*%
D18*
%TO.C,C5*%
X135920000Y-67548000D03*
X134020000Y-67548000D03*
%TD*%
D21*
%TO.C,C13*%
X150500000Y-80930000D03*
X150500000Y-82830000D03*
%TD*%
%TO.C,C7*%
X160000000Y-93730000D03*
X160000000Y-95630000D03*
%TD*%
D12*
%TO.C,C3*%
X142350000Y-90655000D03*
X144250000Y-90655000D03*
%TD*%
D18*
%TO.C,C6*%
X139920000Y-67548000D03*
X138020000Y-67548000D03*
%TD*%
M02*
