%TF.GenerationSoftware,KiCad,Pcbnew,10.0.1*%
%TF.CreationDate,2026-05-11T19:38:50+02:00*%
%TF.ProjectId,esp32s3_adc_mini,65737033-3273-4335-9f61-64635f6d696e,rev?*%
%TF.SameCoordinates,Original*%
%TF.FileFunction,Soldermask,Bot*%
%TF.FilePolarity,Negative*%
%FSLAX46Y46*%
G04 Gerber Fmt 4.6, Leading zero omitted, Abs format (unit mm)*
G04 Created by KiCad (PCBNEW 10.0.1) date 2026-05-11 19:38:50*
%MOMM*%
%LPD*%
G01*
G04 APERTURE LIST*
G04 APERTURE END LIST*
G36*
X144121342Y-106368060D02*
G01*
X144234381Y-106433323D01*
X144326677Y-106525619D01*
X144391940Y-106638658D01*
X144425722Y-106764737D01*
X144430000Y-106830000D01*
X144430000Y-107630000D01*
X144425722Y-107695263D01*
X144391940Y-107821342D01*
X144326677Y-107934381D01*
X144234381Y-108026677D01*
X144121342Y-108091940D01*
X143995263Y-108125722D01*
X143864737Y-108125722D01*
X143738658Y-108091940D01*
X143625619Y-108026677D01*
X143533323Y-107934381D01*
X143468060Y-107821342D01*
X143434278Y-107695263D01*
X143430000Y-107630000D01*
X143430000Y-106830000D01*
X143434278Y-106764737D01*
X143468060Y-106638658D01*
X143533323Y-106525619D01*
X143625619Y-106433323D01*
X143738658Y-106368060D01*
X143864737Y-106334278D01*
X143995263Y-106334278D01*
X144121342Y-106368060D01*
G37*
G36*
X152761342Y-106368060D02*
G01*
X152874381Y-106433323D01*
X152966677Y-106525619D01*
X153031940Y-106638658D01*
X153065722Y-106764737D01*
X153070000Y-106830000D01*
X153070000Y-107630000D01*
X153065722Y-107695263D01*
X153031940Y-107821342D01*
X152966677Y-107934381D01*
X152874381Y-108026677D01*
X152761342Y-108091940D01*
X152635263Y-108125722D01*
X152504737Y-108125722D01*
X152378658Y-108091940D01*
X152265619Y-108026677D01*
X152173323Y-107934381D01*
X152108060Y-107821342D01*
X152074278Y-107695263D01*
X152070000Y-107630000D01*
X152070000Y-106830000D01*
X152074278Y-106764737D01*
X152108060Y-106638658D01*
X152173323Y-106525619D01*
X152265619Y-106433323D01*
X152378658Y-106368060D01*
X152504737Y-106334278D01*
X152635263Y-106334278D01*
X152761342Y-106368060D01*
G37*
G36*
X160191342Y-106830560D02*
G01*
X160304381Y-106895823D01*
X160396677Y-106988119D01*
X160461940Y-107101158D01*
X160495722Y-107227237D01*
X160495722Y-107357763D01*
X160461940Y-107483842D01*
X160396677Y-107596881D01*
X160304381Y-107689177D01*
X160191342Y-107754440D01*
X160065263Y-107788222D01*
X159934737Y-107788222D01*
X159808658Y-107754440D01*
X159695619Y-107689177D01*
X159603323Y-107596881D01*
X159538060Y-107483842D01*
X159504278Y-107357763D01*
X159504278Y-107227237D01*
X159538060Y-107101158D01*
X159603323Y-106988119D01*
X159695619Y-106895823D01*
X159808658Y-106830560D01*
X159934737Y-106796778D01*
X160065263Y-106796778D01*
X160191342Y-106830560D01*
G37*
G36*
X137841408Y-101783626D02*
G01*
X138062519Y-101842872D01*
X138274005Y-101930473D01*
X138472248Y-102044928D01*
X138653855Y-102184280D01*
X138815720Y-102346145D01*
X138955072Y-102527752D01*
X139069527Y-102725995D01*
X139157128Y-102937481D01*
X139216374Y-103158592D01*
X139246253Y-103385545D01*
X139246253Y-103614455D01*
X139216374Y-103841408D01*
X139157128Y-104062519D01*
X139069527Y-104274005D01*
X138955072Y-104472248D01*
X138815720Y-104653855D01*
X138653855Y-104815720D01*
X138472248Y-104955072D01*
X138274005Y-105069527D01*
X138062519Y-105157128D01*
X137841408Y-105216374D01*
X137614455Y-105246253D01*
X137385545Y-105246253D01*
X137158592Y-105216374D01*
X136937481Y-105157128D01*
X136725995Y-105069527D01*
X136527752Y-104955072D01*
X136346145Y-104815720D01*
X136184280Y-104653855D01*
X136044928Y-104472248D01*
X135930473Y-104274005D01*
X135842872Y-104062519D01*
X135783626Y-103841408D01*
X135753747Y-103614455D01*
X135753747Y-103385545D01*
X135783626Y-103158592D01*
X135842872Y-102937481D01*
X135930473Y-102725995D01*
X136044928Y-102527752D01*
X136184280Y-102346145D01*
X136346145Y-102184280D01*
X136527752Y-102044928D01*
X136725995Y-101930473D01*
X136937481Y-101842872D01*
X137158592Y-101783626D01*
X137385545Y-101753747D01*
X137614455Y-101753747D01*
X137841408Y-101783626D01*
G37*
G36*
X168841408Y-101783626D02*
G01*
X169062519Y-101842872D01*
X169274005Y-101930473D01*
X169472248Y-102044928D01*
X169653855Y-102184280D01*
X169815720Y-102346145D01*
X169955072Y-102527752D01*
X170069527Y-102725995D01*
X170157128Y-102937481D01*
X170216374Y-103158592D01*
X170246253Y-103385545D01*
X170246253Y-103614455D01*
X170216374Y-103841408D01*
X170157128Y-104062519D01*
X170069527Y-104274005D01*
X169955072Y-104472248D01*
X169815720Y-104653855D01*
X169653855Y-104815720D01*
X169472248Y-104955072D01*
X169274005Y-105069527D01*
X169062519Y-105157128D01*
X168841408Y-105216374D01*
X168614455Y-105246253D01*
X168385545Y-105246253D01*
X168158592Y-105216374D01*
X167937481Y-105157128D01*
X167725995Y-105069527D01*
X167527752Y-104955072D01*
X167346145Y-104815720D01*
X167184280Y-104653855D01*
X167044928Y-104472248D01*
X166930473Y-104274005D01*
X166842872Y-104062519D01*
X166783626Y-103841408D01*
X166753747Y-103614455D01*
X166753747Y-103385545D01*
X166783626Y-103158592D01*
X166842872Y-102937481D01*
X166930473Y-102725995D01*
X167044928Y-102527752D01*
X167184280Y-102346145D01*
X167346145Y-102184280D01*
X167527752Y-102044928D01*
X167725995Y-101930473D01*
X167937481Y-101842872D01*
X168158592Y-101783626D01*
X168385545Y-101753747D01*
X168614455Y-101753747D01*
X168841408Y-101783626D01*
G37*
G36*
X144121342Y-102018060D02*
G01*
X144234381Y-102083323D01*
X144326677Y-102175619D01*
X144391940Y-102288658D01*
X144425722Y-102414737D01*
X144430000Y-102480000D01*
X144430000Y-103580000D01*
X144425722Y-103645263D01*
X144391940Y-103771342D01*
X144326677Y-103884381D01*
X144234381Y-103976677D01*
X144121342Y-104041940D01*
X143995263Y-104075722D01*
X143864737Y-104075722D01*
X143738658Y-104041940D01*
X143625619Y-103976677D01*
X143533323Y-103884381D01*
X143468060Y-103771342D01*
X143434278Y-103645263D01*
X143430000Y-103580000D01*
X143430000Y-102480000D01*
X143434278Y-102414737D01*
X143468060Y-102288658D01*
X143533323Y-102175619D01*
X143625619Y-102083323D01*
X143738658Y-102018060D01*
X143864737Y-101984278D01*
X143995263Y-101984278D01*
X144121342Y-102018060D01*
G37*
G36*
X152761342Y-102018060D02*
G01*
X152874381Y-102083323D01*
X152966677Y-102175619D01*
X153031940Y-102288658D01*
X153065722Y-102414737D01*
X153070000Y-102480000D01*
X153070000Y-103580000D01*
X153065722Y-103645263D01*
X153031940Y-103771342D01*
X152966677Y-103884381D01*
X152874381Y-103976677D01*
X152761342Y-104041940D01*
X152635263Y-104075722D01*
X152504737Y-104075722D01*
X152378658Y-104041940D01*
X152265619Y-103976677D01*
X152173323Y-103884381D01*
X152108060Y-103771342D01*
X152074278Y-103645263D01*
X152070000Y-103580000D01*
X152070000Y-102480000D01*
X152074278Y-102414737D01*
X152108060Y-102288658D01*
X152173323Y-102175619D01*
X152265619Y-102083323D01*
X152378658Y-102018060D01*
X152504737Y-101984278D01*
X152635263Y-101984278D01*
X152761342Y-102018060D01*
G37*
G36*
X145484372Y-103249739D02*
G01*
X145557847Y-103292160D01*
X145617840Y-103352153D01*
X145660261Y-103425628D01*
X145682220Y-103507579D01*
X145682220Y-103592421D01*
X145660261Y-103674372D01*
X145617840Y-103747847D01*
X145557847Y-103807840D01*
X145484372Y-103850261D01*
X145402421Y-103872220D01*
X145317579Y-103872220D01*
X145235628Y-103850261D01*
X145162153Y-103807840D01*
X145102160Y-103747847D01*
X145059739Y-103674372D01*
X145037780Y-103592421D01*
X145037780Y-103507579D01*
X145059739Y-103425628D01*
X145102160Y-103352153D01*
X145162153Y-103292160D01*
X145235628Y-103249739D01*
X145317579Y-103227780D01*
X145402421Y-103227780D01*
X145484372Y-103249739D01*
G37*
G36*
X151264372Y-103249739D02*
G01*
X151337847Y-103292160D01*
X151397840Y-103352153D01*
X151440261Y-103425628D01*
X151462220Y-103507579D01*
X151462220Y-103592421D01*
X151440261Y-103674372D01*
X151397840Y-103747847D01*
X151337847Y-103807840D01*
X151264372Y-103850261D01*
X151182421Y-103872220D01*
X151097579Y-103872220D01*
X151015628Y-103850261D01*
X150942153Y-103807840D01*
X150882160Y-103747847D01*
X150839739Y-103674372D01*
X150817780Y-103592421D01*
X150817780Y-103507579D01*
X150839739Y-103425628D01*
X150882160Y-103352153D01*
X150942153Y-103292160D01*
X151015628Y-103249739D01*
X151097579Y-103227780D01*
X151182421Y-103227780D01*
X151264372Y-103249739D01*
G37*
G36*
X160191342Y-99830560D02*
G01*
X160304381Y-99895823D01*
X160396677Y-99988119D01*
X160461940Y-100101158D01*
X160495722Y-100227237D01*
X160495722Y-100357763D01*
X160461940Y-100483842D01*
X160396677Y-100596881D01*
X160304381Y-100689177D01*
X160191342Y-100754440D01*
X160065263Y-100788222D01*
X159934737Y-100788222D01*
X159808658Y-100754440D01*
X159695619Y-100689177D01*
X159603323Y-100596881D01*
X159538060Y-100483842D01*
X159504278Y-100357763D01*
X159504278Y-100227237D01*
X159538060Y-100101158D01*
X159603323Y-99988119D01*
X159695619Y-99895823D01*
X159808658Y-99830560D01*
X159934737Y-99796778D01*
X160065263Y-99796778D01*
X160191342Y-99830560D01*
G37*
G36*
X135662640Y-91107351D02*
G01*
X135758724Y-91162825D01*
X135837175Y-91241276D01*
X135892649Y-91337360D01*
X135921364Y-91444526D01*
X135921364Y-91555474D01*
X135892649Y-91662640D01*
X135837175Y-91758724D01*
X135758724Y-91837175D01*
X135662640Y-91892649D01*
X135555474Y-91921364D01*
X135444526Y-91921364D01*
X135337360Y-91892649D01*
X135241276Y-91837175D01*
X135162825Y-91758724D01*
X135107351Y-91662640D01*
X135078636Y-91555474D01*
X135078636Y-91444526D01*
X135107351Y-91337360D01*
X135162825Y-91241276D01*
X135241276Y-91162825D01*
X135337360Y-91107351D01*
X135444526Y-91078636D01*
X135555474Y-91078636D01*
X135662640Y-91107351D01*
G37*
G36*
X169662640Y-91107351D02*
G01*
X169758724Y-91162825D01*
X169837175Y-91241276D01*
X169892649Y-91337360D01*
X169921364Y-91444526D01*
X169921364Y-91555474D01*
X169892649Y-91662640D01*
X169837175Y-91758724D01*
X169758724Y-91837175D01*
X169662640Y-91892649D01*
X169555474Y-91921364D01*
X169444526Y-91921364D01*
X169337360Y-91892649D01*
X169241276Y-91837175D01*
X169162825Y-91758724D01*
X169107351Y-91662640D01*
X169078636Y-91555474D01*
X169078636Y-91444526D01*
X169107351Y-91337360D01*
X169162825Y-91241276D01*
X169241276Y-91162825D01*
X169337360Y-91107351D01*
X169444526Y-91078636D01*
X169555474Y-91078636D01*
X169662640Y-91107351D01*
G37*
G36*
X135662640Y-90107351D02*
G01*
X135758724Y-90162825D01*
X135837175Y-90241276D01*
X135892649Y-90337360D01*
X135921364Y-90444526D01*
X135921364Y-90555474D01*
X135892649Y-90662640D01*
X135837175Y-90758724D01*
X135758724Y-90837175D01*
X135662640Y-90892649D01*
X135555474Y-90921364D01*
X135444526Y-90921364D01*
X135337360Y-90892649D01*
X135241276Y-90837175D01*
X135162825Y-90758724D01*
X135107351Y-90662640D01*
X135078636Y-90555474D01*
X135078636Y-90444526D01*
X135107351Y-90337360D01*
X135162825Y-90241276D01*
X135241276Y-90162825D01*
X135337360Y-90107351D01*
X135444526Y-90078636D01*
X135555474Y-90078636D01*
X135662640Y-90107351D01*
G37*
G36*
X169662640Y-90107351D02*
G01*
X169758724Y-90162825D01*
X169837175Y-90241276D01*
X169892649Y-90337360D01*
X169921364Y-90444526D01*
X169921364Y-90555474D01*
X169892649Y-90662640D01*
X169837175Y-90758724D01*
X169758724Y-90837175D01*
X169662640Y-90892649D01*
X169555474Y-90921364D01*
X169444526Y-90921364D01*
X169337360Y-90892649D01*
X169241276Y-90837175D01*
X169162825Y-90758724D01*
X169107351Y-90662640D01*
X169078636Y-90555474D01*
X169078636Y-90444526D01*
X169107351Y-90337360D01*
X169162825Y-90241276D01*
X169241276Y-90162825D01*
X169337360Y-90107351D01*
X169444526Y-90078636D01*
X169555474Y-90078636D01*
X169662640Y-90107351D01*
G37*
G36*
X135662640Y-89107351D02*
G01*
X135758724Y-89162825D01*
X135837175Y-89241276D01*
X135892649Y-89337360D01*
X135921364Y-89444526D01*
X135921364Y-89555474D01*
X135892649Y-89662640D01*
X135837175Y-89758724D01*
X135758724Y-89837175D01*
X135662640Y-89892649D01*
X135555474Y-89921364D01*
X135444526Y-89921364D01*
X135337360Y-89892649D01*
X135241276Y-89837175D01*
X135162825Y-89758724D01*
X135107351Y-89662640D01*
X135078636Y-89555474D01*
X135078636Y-89444526D01*
X135107351Y-89337360D01*
X135162825Y-89241276D01*
X135241276Y-89162825D01*
X135337360Y-89107351D01*
X135444526Y-89078636D01*
X135555474Y-89078636D01*
X135662640Y-89107351D01*
G37*
G36*
X169662640Y-89107351D02*
G01*
X169758724Y-89162825D01*
X169837175Y-89241276D01*
X169892649Y-89337360D01*
X169921364Y-89444526D01*
X169921364Y-89555474D01*
X169892649Y-89662640D01*
X169837175Y-89758724D01*
X169758724Y-89837175D01*
X169662640Y-89892649D01*
X169555474Y-89921364D01*
X169444526Y-89921364D01*
X169337360Y-89892649D01*
X169241276Y-89837175D01*
X169162825Y-89758724D01*
X169107351Y-89662640D01*
X169078636Y-89555474D01*
X169078636Y-89444526D01*
X169107351Y-89337360D01*
X169162825Y-89241276D01*
X169241276Y-89162825D01*
X169337360Y-89107351D01*
X169444526Y-89078636D01*
X169555474Y-89078636D01*
X169662640Y-89107351D01*
G37*
G36*
X135662640Y-88107351D02*
G01*
X135758724Y-88162825D01*
X135837175Y-88241276D01*
X135892649Y-88337360D01*
X135921364Y-88444526D01*
X135921364Y-88555474D01*
X135892649Y-88662640D01*
X135837175Y-88758724D01*
X135758724Y-88837175D01*
X135662640Y-88892649D01*
X135555474Y-88921364D01*
X135444526Y-88921364D01*
X135337360Y-88892649D01*
X135241276Y-88837175D01*
X135162825Y-88758724D01*
X135107351Y-88662640D01*
X135078636Y-88555474D01*
X135078636Y-88444526D01*
X135107351Y-88337360D01*
X135162825Y-88241276D01*
X135241276Y-88162825D01*
X135337360Y-88107351D01*
X135444526Y-88078636D01*
X135555474Y-88078636D01*
X135662640Y-88107351D01*
G37*
G36*
X169662640Y-88107351D02*
G01*
X169758724Y-88162825D01*
X169837175Y-88241276D01*
X169892649Y-88337360D01*
X169921364Y-88444526D01*
X169921364Y-88555474D01*
X169892649Y-88662640D01*
X169837175Y-88758724D01*
X169758724Y-88837175D01*
X169662640Y-88892649D01*
X169555474Y-88921364D01*
X169444526Y-88921364D01*
X169337360Y-88892649D01*
X169241276Y-88837175D01*
X169162825Y-88758724D01*
X169107351Y-88662640D01*
X169078636Y-88555474D01*
X169078636Y-88444526D01*
X169107351Y-88337360D01*
X169162825Y-88241276D01*
X169241276Y-88162825D01*
X169337360Y-88107351D01*
X169444526Y-88078636D01*
X169555474Y-88078636D01*
X169662640Y-88107351D01*
G37*
G36*
X135662640Y-87107351D02*
G01*
X135758724Y-87162825D01*
X135837175Y-87241276D01*
X135892649Y-87337360D01*
X135921364Y-87444526D01*
X135921364Y-87555474D01*
X135892649Y-87662640D01*
X135837175Y-87758724D01*
X135758724Y-87837175D01*
X135662640Y-87892649D01*
X135555474Y-87921364D01*
X135444526Y-87921364D01*
X135337360Y-87892649D01*
X135241276Y-87837175D01*
X135162825Y-87758724D01*
X135107351Y-87662640D01*
X135078636Y-87555474D01*
X135078636Y-87444526D01*
X135107351Y-87337360D01*
X135162825Y-87241276D01*
X135241276Y-87162825D01*
X135337360Y-87107351D01*
X135444526Y-87078636D01*
X135555474Y-87078636D01*
X135662640Y-87107351D01*
G37*
G36*
X169662640Y-87107351D02*
G01*
X169758724Y-87162825D01*
X169837175Y-87241276D01*
X169892649Y-87337360D01*
X169921364Y-87444526D01*
X169921364Y-87555474D01*
X169892649Y-87662640D01*
X169837175Y-87758724D01*
X169758724Y-87837175D01*
X169662640Y-87892649D01*
X169555474Y-87921364D01*
X169444526Y-87921364D01*
X169337360Y-87892649D01*
X169241276Y-87837175D01*
X169162825Y-87758724D01*
X169107351Y-87662640D01*
X169078636Y-87555474D01*
X169078636Y-87444526D01*
X169107351Y-87337360D01*
X169162825Y-87241276D01*
X169241276Y-87162825D01*
X169337360Y-87107351D01*
X169444526Y-87078636D01*
X169555474Y-87078636D01*
X169662640Y-87107351D01*
G37*
G36*
X135662640Y-86107351D02*
G01*
X135758724Y-86162825D01*
X135837175Y-86241276D01*
X135892649Y-86337360D01*
X135921364Y-86444526D01*
X135921364Y-86555474D01*
X135892649Y-86662640D01*
X135837175Y-86758724D01*
X135758724Y-86837175D01*
X135662640Y-86892649D01*
X135555474Y-86921364D01*
X135444526Y-86921364D01*
X135337360Y-86892649D01*
X135241276Y-86837175D01*
X135162825Y-86758724D01*
X135107351Y-86662640D01*
X135078636Y-86555474D01*
X135078636Y-86444526D01*
X135107351Y-86337360D01*
X135162825Y-86241276D01*
X135241276Y-86162825D01*
X135337360Y-86107351D01*
X135444526Y-86078636D01*
X135555474Y-86078636D01*
X135662640Y-86107351D01*
G37*
G36*
X169662640Y-86107351D02*
G01*
X169758724Y-86162825D01*
X169837175Y-86241276D01*
X169892649Y-86337360D01*
X169921364Y-86444526D01*
X169921364Y-86555474D01*
X169892649Y-86662640D01*
X169837175Y-86758724D01*
X169758724Y-86837175D01*
X169662640Y-86892649D01*
X169555474Y-86921364D01*
X169444526Y-86921364D01*
X169337360Y-86892649D01*
X169241276Y-86837175D01*
X169162825Y-86758724D01*
X169107351Y-86662640D01*
X169078636Y-86555474D01*
X169078636Y-86444526D01*
X169107351Y-86337360D01*
X169162825Y-86241276D01*
X169241276Y-86162825D01*
X169337360Y-86107351D01*
X169444526Y-86078636D01*
X169555474Y-86078636D01*
X169662640Y-86107351D01*
G37*
G36*
X135662640Y-85107351D02*
G01*
X135758724Y-85162825D01*
X135837175Y-85241276D01*
X135892649Y-85337360D01*
X135921364Y-85444526D01*
X135921364Y-85555474D01*
X135892649Y-85662640D01*
X135837175Y-85758724D01*
X135758724Y-85837175D01*
X135662640Y-85892649D01*
X135555474Y-85921364D01*
X135444526Y-85921364D01*
X135337360Y-85892649D01*
X135241276Y-85837175D01*
X135162825Y-85758724D01*
X135107351Y-85662640D01*
X135078636Y-85555474D01*
X135078636Y-85444526D01*
X135107351Y-85337360D01*
X135162825Y-85241276D01*
X135241276Y-85162825D01*
X135337360Y-85107351D01*
X135444526Y-85078636D01*
X135555474Y-85078636D01*
X135662640Y-85107351D01*
G37*
G36*
X169662640Y-85107351D02*
G01*
X169758724Y-85162825D01*
X169837175Y-85241276D01*
X169892649Y-85337360D01*
X169921364Y-85444526D01*
X169921364Y-85555474D01*
X169892649Y-85662640D01*
X169837175Y-85758724D01*
X169758724Y-85837175D01*
X169662640Y-85892649D01*
X169555474Y-85921364D01*
X169444526Y-85921364D01*
X169337360Y-85892649D01*
X169241276Y-85837175D01*
X169162825Y-85758724D01*
X169107351Y-85662640D01*
X169078636Y-85555474D01*
X169078636Y-85444526D01*
X169107351Y-85337360D01*
X169162825Y-85241276D01*
X169241276Y-85162825D01*
X169337360Y-85107351D01*
X169444526Y-85078636D01*
X169555474Y-85078636D01*
X169662640Y-85107351D01*
G37*
G36*
X135662640Y-84107351D02*
G01*
X135758724Y-84162825D01*
X135837175Y-84241276D01*
X135892649Y-84337360D01*
X135921364Y-84444526D01*
X135921364Y-84555474D01*
X135892649Y-84662640D01*
X135837175Y-84758724D01*
X135758724Y-84837175D01*
X135662640Y-84892649D01*
X135555474Y-84921364D01*
X135444526Y-84921364D01*
X135337360Y-84892649D01*
X135241276Y-84837175D01*
X135162825Y-84758724D01*
X135107351Y-84662640D01*
X135078636Y-84555474D01*
X135078636Y-84444526D01*
X135107351Y-84337360D01*
X135162825Y-84241276D01*
X135241276Y-84162825D01*
X135337360Y-84107351D01*
X135444526Y-84078636D01*
X135555474Y-84078636D01*
X135662640Y-84107351D01*
G37*
G36*
X169662640Y-84107351D02*
G01*
X169758724Y-84162825D01*
X169837175Y-84241276D01*
X169892649Y-84337360D01*
X169921364Y-84444526D01*
X169921364Y-84555474D01*
X169892649Y-84662640D01*
X169837175Y-84758724D01*
X169758724Y-84837175D01*
X169662640Y-84892649D01*
X169555474Y-84921364D01*
X169444526Y-84921364D01*
X169337360Y-84892649D01*
X169241276Y-84837175D01*
X169162825Y-84758724D01*
X169107351Y-84662640D01*
X169078636Y-84555474D01*
X169078636Y-84444526D01*
X169107351Y-84337360D01*
X169162825Y-84241276D01*
X169241276Y-84162825D01*
X169337360Y-84107351D01*
X169444526Y-84078636D01*
X169555474Y-84078636D01*
X169662640Y-84107351D01*
G37*
G36*
X135662640Y-83107351D02*
G01*
X135758724Y-83162825D01*
X135837175Y-83241276D01*
X135892649Y-83337360D01*
X135921364Y-83444526D01*
X135921364Y-83555474D01*
X135892649Y-83662640D01*
X135837175Y-83758724D01*
X135758724Y-83837175D01*
X135662640Y-83892649D01*
X135555474Y-83921364D01*
X135444526Y-83921364D01*
X135337360Y-83892649D01*
X135241276Y-83837175D01*
X135162825Y-83758724D01*
X135107351Y-83662640D01*
X135078636Y-83555474D01*
X135078636Y-83444526D01*
X135107351Y-83337360D01*
X135162825Y-83241276D01*
X135241276Y-83162825D01*
X135337360Y-83107351D01*
X135444526Y-83078636D01*
X135555474Y-83078636D01*
X135662640Y-83107351D01*
G37*
G36*
X169662640Y-83107351D02*
G01*
X169758724Y-83162825D01*
X169837175Y-83241276D01*
X169892649Y-83337360D01*
X169921364Y-83444526D01*
X169921364Y-83555474D01*
X169892649Y-83662640D01*
X169837175Y-83758724D01*
X169758724Y-83837175D01*
X169662640Y-83892649D01*
X169555474Y-83921364D01*
X169444526Y-83921364D01*
X169337360Y-83892649D01*
X169241276Y-83837175D01*
X169162825Y-83758724D01*
X169107351Y-83662640D01*
X169078636Y-83555474D01*
X169078636Y-83444526D01*
X169107351Y-83337360D01*
X169162825Y-83241276D01*
X169241276Y-83162825D01*
X169337360Y-83107351D01*
X169444526Y-83078636D01*
X169555474Y-83078636D01*
X169662640Y-83107351D01*
G37*
G36*
X135662640Y-82107351D02*
G01*
X135758724Y-82162825D01*
X135837175Y-82241276D01*
X135892649Y-82337360D01*
X135921364Y-82444526D01*
X135921364Y-82555474D01*
X135892649Y-82662640D01*
X135837175Y-82758724D01*
X135758724Y-82837175D01*
X135662640Y-82892649D01*
X135555474Y-82921364D01*
X135444526Y-82921364D01*
X135337360Y-82892649D01*
X135241276Y-82837175D01*
X135162825Y-82758724D01*
X135107351Y-82662640D01*
X135078636Y-82555474D01*
X135078636Y-82444526D01*
X135107351Y-82337360D01*
X135162825Y-82241276D01*
X135241276Y-82162825D01*
X135337360Y-82107351D01*
X135444526Y-82078636D01*
X135555474Y-82078636D01*
X135662640Y-82107351D01*
G37*
G36*
X169662640Y-82107351D02*
G01*
X169758724Y-82162825D01*
X169837175Y-82241276D01*
X169892649Y-82337360D01*
X169921364Y-82444526D01*
X169921364Y-82555474D01*
X169892649Y-82662640D01*
X169837175Y-82758724D01*
X169758724Y-82837175D01*
X169662640Y-82892649D01*
X169555474Y-82921364D01*
X169444526Y-82921364D01*
X169337360Y-82892649D01*
X169241276Y-82837175D01*
X169162825Y-82758724D01*
X169107351Y-82662640D01*
X169078636Y-82555474D01*
X169078636Y-82444526D01*
X169107351Y-82337360D01*
X169162825Y-82241276D01*
X169241276Y-82162825D01*
X169337360Y-82107351D01*
X169444526Y-82078636D01*
X169555474Y-82078636D01*
X169662640Y-82107351D01*
G37*
G36*
X135662640Y-81107351D02*
G01*
X135758724Y-81162825D01*
X135837175Y-81241276D01*
X135892649Y-81337360D01*
X135921364Y-81444526D01*
X135921364Y-81555474D01*
X135892649Y-81662640D01*
X135837175Y-81758724D01*
X135758724Y-81837175D01*
X135662640Y-81892649D01*
X135555474Y-81921364D01*
X135444526Y-81921364D01*
X135337360Y-81892649D01*
X135241276Y-81837175D01*
X135162825Y-81758724D01*
X135107351Y-81662640D01*
X135078636Y-81555474D01*
X135078636Y-81444526D01*
X135107351Y-81337360D01*
X135162825Y-81241276D01*
X135241276Y-81162825D01*
X135337360Y-81107351D01*
X135444526Y-81078636D01*
X135555474Y-81078636D01*
X135662640Y-81107351D01*
G37*
G36*
X169662640Y-81107351D02*
G01*
X169758724Y-81162825D01*
X169837175Y-81241276D01*
X169892649Y-81337360D01*
X169921364Y-81444526D01*
X169921364Y-81555474D01*
X169892649Y-81662640D01*
X169837175Y-81758724D01*
X169758724Y-81837175D01*
X169662640Y-81892649D01*
X169555474Y-81921364D01*
X169444526Y-81921364D01*
X169337360Y-81892649D01*
X169241276Y-81837175D01*
X169162825Y-81758724D01*
X169107351Y-81662640D01*
X169078636Y-81555474D01*
X169078636Y-81444526D01*
X169107351Y-81337360D01*
X169162825Y-81241276D01*
X169241276Y-81162825D01*
X169337360Y-81107351D01*
X169444526Y-81078636D01*
X169555474Y-81078636D01*
X169662640Y-81107351D01*
G37*
G36*
X135662640Y-80107351D02*
G01*
X135758724Y-80162825D01*
X135837175Y-80241276D01*
X135892649Y-80337360D01*
X135921364Y-80444526D01*
X135921364Y-80555474D01*
X135892649Y-80662640D01*
X135837175Y-80758724D01*
X135758724Y-80837175D01*
X135662640Y-80892649D01*
X135555474Y-80921364D01*
X135444526Y-80921364D01*
X135337360Y-80892649D01*
X135241276Y-80837175D01*
X135162825Y-80758724D01*
X135107351Y-80662640D01*
X135078636Y-80555474D01*
X135078636Y-80444526D01*
X135107351Y-80337360D01*
X135162825Y-80241276D01*
X135241276Y-80162825D01*
X135337360Y-80107351D01*
X135444526Y-80078636D01*
X135555474Y-80078636D01*
X135662640Y-80107351D01*
G37*
G36*
X169662640Y-80107351D02*
G01*
X169758724Y-80162825D01*
X169837175Y-80241276D01*
X169892649Y-80337360D01*
X169921364Y-80444526D01*
X169921364Y-80555474D01*
X169892649Y-80662640D01*
X169837175Y-80758724D01*
X169758724Y-80837175D01*
X169662640Y-80892649D01*
X169555474Y-80921364D01*
X169444526Y-80921364D01*
X169337360Y-80892649D01*
X169241276Y-80837175D01*
X169162825Y-80758724D01*
X169107351Y-80662640D01*
X169078636Y-80555474D01*
X169078636Y-80444526D01*
X169107351Y-80337360D01*
X169162825Y-80241276D01*
X169241276Y-80162825D01*
X169337360Y-80107351D01*
X169444526Y-80078636D01*
X169555474Y-80078636D01*
X169662640Y-80107351D01*
G37*
G36*
X135662640Y-79107351D02*
G01*
X135758724Y-79162825D01*
X135837175Y-79241276D01*
X135892649Y-79337360D01*
X135921364Y-79444526D01*
X135921364Y-79555474D01*
X135892649Y-79662640D01*
X135837175Y-79758724D01*
X135758724Y-79837175D01*
X135662640Y-79892649D01*
X135555474Y-79921364D01*
X135444526Y-79921364D01*
X135337360Y-79892649D01*
X135241276Y-79837175D01*
X135162825Y-79758724D01*
X135107351Y-79662640D01*
X135078636Y-79555474D01*
X135078636Y-79444526D01*
X135107351Y-79337360D01*
X135162825Y-79241276D01*
X135241276Y-79162825D01*
X135337360Y-79107351D01*
X135444526Y-79078636D01*
X135555474Y-79078636D01*
X135662640Y-79107351D01*
G37*
G36*
X169662640Y-79107351D02*
G01*
X169758724Y-79162825D01*
X169837175Y-79241276D01*
X169892649Y-79337360D01*
X169921364Y-79444526D01*
X169921364Y-79555474D01*
X169892649Y-79662640D01*
X169837175Y-79758724D01*
X169758724Y-79837175D01*
X169662640Y-79892649D01*
X169555474Y-79921364D01*
X169444526Y-79921364D01*
X169337360Y-79892649D01*
X169241276Y-79837175D01*
X169162825Y-79758724D01*
X169107351Y-79662640D01*
X169078636Y-79555474D01*
X169078636Y-79444526D01*
X169107351Y-79337360D01*
X169162825Y-79241276D01*
X169241276Y-79162825D01*
X169337360Y-79107351D01*
X169444526Y-79078636D01*
X169555474Y-79078636D01*
X169662640Y-79107351D01*
G37*
G36*
X135662640Y-78107351D02*
G01*
X135758724Y-78162825D01*
X135837175Y-78241276D01*
X135892649Y-78337360D01*
X135921364Y-78444526D01*
X135921364Y-78555474D01*
X135892649Y-78662640D01*
X135837175Y-78758724D01*
X135758724Y-78837175D01*
X135662640Y-78892649D01*
X135555474Y-78921364D01*
X135444526Y-78921364D01*
X135337360Y-78892649D01*
X135241276Y-78837175D01*
X135162825Y-78758724D01*
X135107351Y-78662640D01*
X135078636Y-78555474D01*
X135078636Y-78444526D01*
X135107351Y-78337360D01*
X135162825Y-78241276D01*
X135241276Y-78162825D01*
X135337360Y-78107351D01*
X135444526Y-78078636D01*
X135555474Y-78078636D01*
X135662640Y-78107351D01*
G37*
G36*
X169662640Y-78107351D02*
G01*
X169758724Y-78162825D01*
X169837175Y-78241276D01*
X169892649Y-78337360D01*
X169921364Y-78444526D01*
X169921364Y-78555474D01*
X169892649Y-78662640D01*
X169837175Y-78758724D01*
X169758724Y-78837175D01*
X169662640Y-78892649D01*
X169555474Y-78921364D01*
X169444526Y-78921364D01*
X169337360Y-78892649D01*
X169241276Y-78837175D01*
X169162825Y-78758724D01*
X169107351Y-78662640D01*
X169078636Y-78555474D01*
X169078636Y-78444526D01*
X169107351Y-78337360D01*
X169162825Y-78241276D01*
X169241276Y-78162825D01*
X169337360Y-78107351D01*
X169444526Y-78078636D01*
X169555474Y-78078636D01*
X169662640Y-78107351D01*
G37*
G36*
X135662640Y-77107351D02*
G01*
X135758724Y-77162825D01*
X135837175Y-77241276D01*
X135892649Y-77337360D01*
X135921364Y-77444526D01*
X135921364Y-77555474D01*
X135892649Y-77662640D01*
X135837175Y-77758724D01*
X135758724Y-77837175D01*
X135662640Y-77892649D01*
X135555474Y-77921364D01*
X135444526Y-77921364D01*
X135337360Y-77892649D01*
X135241276Y-77837175D01*
X135162825Y-77758724D01*
X135107351Y-77662640D01*
X135078636Y-77555474D01*
X135078636Y-77444526D01*
X135107351Y-77337360D01*
X135162825Y-77241276D01*
X135241276Y-77162825D01*
X135337360Y-77107351D01*
X135444526Y-77078636D01*
X135555474Y-77078636D01*
X135662640Y-77107351D01*
G37*
G36*
X169662640Y-77107351D02*
G01*
X169758724Y-77162825D01*
X169837175Y-77241276D01*
X169892649Y-77337360D01*
X169921364Y-77444526D01*
X169921364Y-77555474D01*
X169892649Y-77662640D01*
X169837175Y-77758724D01*
X169758724Y-77837175D01*
X169662640Y-77892649D01*
X169555474Y-77921364D01*
X169444526Y-77921364D01*
X169337360Y-77892649D01*
X169241276Y-77837175D01*
X169162825Y-77758724D01*
X169107351Y-77662640D01*
X169078636Y-77555474D01*
X169078636Y-77444526D01*
X169107351Y-77337360D01*
X169162825Y-77241276D01*
X169241276Y-77162825D01*
X169337360Y-77107351D01*
X169444526Y-77078636D01*
X169555474Y-77078636D01*
X169662640Y-77107351D01*
G37*
G36*
X135662640Y-76107351D02*
G01*
X135758724Y-76162825D01*
X135837175Y-76241276D01*
X135892649Y-76337360D01*
X135921364Y-76444526D01*
X135921364Y-76555474D01*
X135892649Y-76662640D01*
X135837175Y-76758724D01*
X135758724Y-76837175D01*
X135662640Y-76892649D01*
X135555474Y-76921364D01*
X135444526Y-76921364D01*
X135337360Y-76892649D01*
X135241276Y-76837175D01*
X135162825Y-76758724D01*
X135107351Y-76662640D01*
X135078636Y-76555474D01*
X135078636Y-76444526D01*
X135107351Y-76337360D01*
X135162825Y-76241276D01*
X135241276Y-76162825D01*
X135337360Y-76107351D01*
X135444526Y-76078636D01*
X135555474Y-76078636D01*
X135662640Y-76107351D01*
G37*
G36*
X169662640Y-76107351D02*
G01*
X169758724Y-76162825D01*
X169837175Y-76241276D01*
X169892649Y-76337360D01*
X169921364Y-76444526D01*
X169921364Y-76555474D01*
X169892649Y-76662640D01*
X169837175Y-76758724D01*
X169758724Y-76837175D01*
X169662640Y-76892649D01*
X169555474Y-76921364D01*
X169444526Y-76921364D01*
X169337360Y-76892649D01*
X169241276Y-76837175D01*
X169162825Y-76758724D01*
X169107351Y-76662640D01*
X169078636Y-76555474D01*
X169078636Y-76444526D01*
X169107351Y-76337360D01*
X169162825Y-76241276D01*
X169241276Y-76162825D01*
X169337360Y-76107351D01*
X169444526Y-76078636D01*
X169555474Y-76078636D01*
X169662640Y-76107351D01*
G37*
G36*
X135662640Y-75107351D02*
G01*
X135758724Y-75162825D01*
X135837175Y-75241276D01*
X135892649Y-75337360D01*
X135921364Y-75444526D01*
X135921364Y-75555474D01*
X135892649Y-75662640D01*
X135837175Y-75758724D01*
X135758724Y-75837175D01*
X135662640Y-75892649D01*
X135555474Y-75921364D01*
X135444526Y-75921364D01*
X135337360Y-75892649D01*
X135241276Y-75837175D01*
X135162825Y-75758724D01*
X135107351Y-75662640D01*
X135078636Y-75555474D01*
X135078636Y-75444526D01*
X135107351Y-75337360D01*
X135162825Y-75241276D01*
X135241276Y-75162825D01*
X135337360Y-75107351D01*
X135444526Y-75078636D01*
X135555474Y-75078636D01*
X135662640Y-75107351D01*
G37*
G36*
X169662640Y-75107351D02*
G01*
X169758724Y-75162825D01*
X169837175Y-75241276D01*
X169892649Y-75337360D01*
X169921364Y-75444526D01*
X169921364Y-75555474D01*
X169892649Y-75662640D01*
X169837175Y-75758724D01*
X169758724Y-75837175D01*
X169662640Y-75892649D01*
X169555474Y-75921364D01*
X169444526Y-75921364D01*
X169337360Y-75892649D01*
X169241276Y-75837175D01*
X169162825Y-75758724D01*
X169107351Y-75662640D01*
X169078636Y-75555474D01*
X169078636Y-75444526D01*
X169107351Y-75337360D01*
X169162825Y-75241276D01*
X169241276Y-75162825D01*
X169337360Y-75107351D01*
X169444526Y-75078636D01*
X169555474Y-75078636D01*
X169662640Y-75107351D01*
G37*
G36*
X135662640Y-74107351D02*
G01*
X135758724Y-74162825D01*
X135837175Y-74241276D01*
X135892649Y-74337360D01*
X135921364Y-74444526D01*
X135921364Y-74555474D01*
X135892649Y-74662640D01*
X135837175Y-74758724D01*
X135758724Y-74837175D01*
X135662640Y-74892649D01*
X135555474Y-74921364D01*
X135444526Y-74921364D01*
X135337360Y-74892649D01*
X135241276Y-74837175D01*
X135162825Y-74758724D01*
X135107351Y-74662640D01*
X135078636Y-74555474D01*
X135078636Y-74444526D01*
X135107351Y-74337360D01*
X135162825Y-74241276D01*
X135241276Y-74162825D01*
X135337360Y-74107351D01*
X135444526Y-74078636D01*
X135555474Y-74078636D01*
X135662640Y-74107351D01*
G37*
G36*
X169662640Y-74107351D02*
G01*
X169758724Y-74162825D01*
X169837175Y-74241276D01*
X169892649Y-74337360D01*
X169921364Y-74444526D01*
X169921364Y-74555474D01*
X169892649Y-74662640D01*
X169837175Y-74758724D01*
X169758724Y-74837175D01*
X169662640Y-74892649D01*
X169555474Y-74921364D01*
X169444526Y-74921364D01*
X169337360Y-74892649D01*
X169241276Y-74837175D01*
X169162825Y-74758724D01*
X169107351Y-74662640D01*
X169078636Y-74555474D01*
X169078636Y-74444526D01*
X169107351Y-74337360D01*
X169162825Y-74241276D01*
X169241276Y-74162825D01*
X169337360Y-74107351D01*
X169444526Y-74078636D01*
X169555474Y-74078636D01*
X169662640Y-74107351D01*
G37*
G36*
X135662640Y-73107351D02*
G01*
X135758724Y-73162825D01*
X135837175Y-73241276D01*
X135892649Y-73337360D01*
X135921364Y-73444526D01*
X135921364Y-73555474D01*
X135892649Y-73662640D01*
X135837175Y-73758724D01*
X135758724Y-73837175D01*
X135662640Y-73892649D01*
X135555474Y-73921364D01*
X135444526Y-73921364D01*
X135337360Y-73892649D01*
X135241276Y-73837175D01*
X135162825Y-73758724D01*
X135107351Y-73662640D01*
X135078636Y-73555474D01*
X135078636Y-73444526D01*
X135107351Y-73337360D01*
X135162825Y-73241276D01*
X135241276Y-73162825D01*
X135337360Y-73107351D01*
X135444526Y-73078636D01*
X135555474Y-73078636D01*
X135662640Y-73107351D01*
G37*
G36*
X169662640Y-73107351D02*
G01*
X169758724Y-73162825D01*
X169837175Y-73241276D01*
X169892649Y-73337360D01*
X169921364Y-73444526D01*
X169921364Y-73555474D01*
X169892649Y-73662640D01*
X169837175Y-73758724D01*
X169758724Y-73837175D01*
X169662640Y-73892649D01*
X169555474Y-73921364D01*
X169444526Y-73921364D01*
X169337360Y-73892649D01*
X169241276Y-73837175D01*
X169162825Y-73758724D01*
X169107351Y-73662640D01*
X169078636Y-73555474D01*
X169078636Y-73444526D01*
X169107351Y-73337360D01*
X169162825Y-73241276D01*
X169241276Y-73162825D01*
X169337360Y-73107351D01*
X169444526Y-73078636D01*
X169555474Y-73078636D01*
X169662640Y-73107351D01*
G37*
G36*
X135662640Y-72107351D02*
G01*
X135758724Y-72162825D01*
X135837175Y-72241276D01*
X135892649Y-72337360D01*
X135921364Y-72444526D01*
X135921364Y-72555474D01*
X135892649Y-72662640D01*
X135837175Y-72758724D01*
X135758724Y-72837175D01*
X135662640Y-72892649D01*
X135555474Y-72921364D01*
X135444526Y-72921364D01*
X135337360Y-72892649D01*
X135241276Y-72837175D01*
X135162825Y-72758724D01*
X135107351Y-72662640D01*
X135078636Y-72555474D01*
X135078636Y-72444526D01*
X135107351Y-72337360D01*
X135162825Y-72241276D01*
X135241276Y-72162825D01*
X135337360Y-72107351D01*
X135444526Y-72078636D01*
X135555474Y-72078636D01*
X135662640Y-72107351D01*
G37*
G36*
X169662640Y-72107351D02*
G01*
X169758724Y-72162825D01*
X169837175Y-72241276D01*
X169892649Y-72337360D01*
X169921364Y-72444526D01*
X169921364Y-72555474D01*
X169892649Y-72662640D01*
X169837175Y-72758724D01*
X169758724Y-72837175D01*
X169662640Y-72892649D01*
X169555474Y-72921364D01*
X169444526Y-72921364D01*
X169337360Y-72892649D01*
X169241276Y-72837175D01*
X169162825Y-72758724D01*
X169107351Y-72662640D01*
X169078636Y-72555474D01*
X169078636Y-72444526D01*
X169107351Y-72337360D01*
X169162825Y-72241276D01*
X169241276Y-72162825D01*
X169337360Y-72107351D01*
X169444526Y-72078636D01*
X169555474Y-72078636D01*
X169662640Y-72107351D01*
G37*
G36*
X135662640Y-71107351D02*
G01*
X135758724Y-71162825D01*
X135837175Y-71241276D01*
X135892649Y-71337360D01*
X135921364Y-71444526D01*
X135921364Y-71555474D01*
X135892649Y-71662640D01*
X135837175Y-71758724D01*
X135758724Y-71837175D01*
X135662640Y-71892649D01*
X135555474Y-71921364D01*
X135444526Y-71921364D01*
X135337360Y-71892649D01*
X135241276Y-71837175D01*
X135162825Y-71758724D01*
X135107351Y-71662640D01*
X135078636Y-71555474D01*
X135078636Y-71444526D01*
X135107351Y-71337360D01*
X135162825Y-71241276D01*
X135241276Y-71162825D01*
X135337360Y-71107351D01*
X135444526Y-71078636D01*
X135555474Y-71078636D01*
X135662640Y-71107351D01*
G37*
G36*
X169662640Y-71107351D02*
G01*
X169758724Y-71162825D01*
X169837175Y-71241276D01*
X169892649Y-71337360D01*
X169921364Y-71444526D01*
X169921364Y-71555474D01*
X169892649Y-71662640D01*
X169837175Y-71758724D01*
X169758724Y-71837175D01*
X169662640Y-71892649D01*
X169555474Y-71921364D01*
X169444526Y-71921364D01*
X169337360Y-71892649D01*
X169241276Y-71837175D01*
X169162825Y-71758724D01*
X169107351Y-71662640D01*
X169078636Y-71555474D01*
X169078636Y-71444526D01*
X169107351Y-71337360D01*
X169162825Y-71241276D01*
X169241276Y-71162825D01*
X169337360Y-71107351D01*
X169444526Y-71078636D01*
X169555474Y-71078636D01*
X169662640Y-71107351D01*
G37*
G36*
X135925000Y-70925000D02*
G01*
X135075000Y-70925000D01*
X135075000Y-70075000D01*
X135925000Y-70075000D01*
X135925000Y-70925000D01*
G37*
G36*
X169925000Y-70925000D02*
G01*
X169075000Y-70925000D01*
X169075000Y-70075000D01*
X169925000Y-70075000D01*
X169925000Y-70925000D01*
G37*
G36*
X137841408Y-60783626D02*
G01*
X138062519Y-60842872D01*
X138274005Y-60930473D01*
X138472248Y-61044928D01*
X138653855Y-61184280D01*
X138815720Y-61346145D01*
X138955072Y-61527752D01*
X139069527Y-61725995D01*
X139157128Y-61937481D01*
X139216374Y-62158592D01*
X139246253Y-62385545D01*
X139246253Y-62614455D01*
X139216374Y-62841408D01*
X139157128Y-63062519D01*
X139069527Y-63274005D01*
X138955072Y-63472248D01*
X138815720Y-63653855D01*
X138653855Y-63815720D01*
X138472248Y-63955072D01*
X138274005Y-64069527D01*
X138062519Y-64157128D01*
X137841408Y-64216374D01*
X137614455Y-64246253D01*
X137385545Y-64246253D01*
X137158592Y-64216374D01*
X136937481Y-64157128D01*
X136725995Y-64069527D01*
X136527752Y-63955072D01*
X136346145Y-63815720D01*
X136184280Y-63653855D01*
X136044928Y-63472248D01*
X135930473Y-63274005D01*
X135842872Y-63062519D01*
X135783626Y-62841408D01*
X135753747Y-62614455D01*
X135753747Y-62385545D01*
X135783626Y-62158592D01*
X135842872Y-61937481D01*
X135930473Y-61725995D01*
X136044928Y-61527752D01*
X136184280Y-61346145D01*
X136346145Y-61184280D01*
X136527752Y-61044928D01*
X136725995Y-60930473D01*
X136937481Y-60842872D01*
X137158592Y-60783626D01*
X137385545Y-60753747D01*
X137614455Y-60753747D01*
X137841408Y-60783626D01*
G37*
G36*
X168841408Y-60783626D02*
G01*
X169062519Y-60842872D01*
X169274005Y-60930473D01*
X169472248Y-61044928D01*
X169653855Y-61184280D01*
X169815720Y-61346145D01*
X169955072Y-61527752D01*
X170069527Y-61725995D01*
X170157128Y-61937481D01*
X170216374Y-62158592D01*
X170246253Y-62385545D01*
X170246253Y-62614455D01*
X170216374Y-62841408D01*
X170157128Y-63062519D01*
X170069527Y-63274005D01*
X169955072Y-63472248D01*
X169815720Y-63653855D01*
X169653855Y-63815720D01*
X169472248Y-63955072D01*
X169274005Y-64069527D01*
X169062519Y-64157128D01*
X168841408Y-64216374D01*
X168614455Y-64246253D01*
X168385545Y-64246253D01*
X168158592Y-64216374D01*
X167937481Y-64157128D01*
X167725995Y-64069527D01*
X167527752Y-63955072D01*
X167346145Y-63815720D01*
X167184280Y-63653855D01*
X167044928Y-63472248D01*
X166930473Y-63274005D01*
X166842872Y-63062519D01*
X166783626Y-62841408D01*
X166753747Y-62614455D01*
X166753747Y-62385545D01*
X166783626Y-62158592D01*
X166842872Y-61937481D01*
X166930473Y-61725995D01*
X167044928Y-61527752D01*
X167184280Y-61346145D01*
X167346145Y-61184280D01*
X167527752Y-61044928D01*
X167725995Y-60930473D01*
X167937481Y-60842872D01*
X168158592Y-60783626D01*
X168385545Y-60753747D01*
X168614455Y-60753747D01*
X168841408Y-60783626D01*
G37*
M02*
