%TF.GenerationSoftware,KiCad,Pcbnew,10.0.1*%
%TF.CreationDate,2026-05-11T19:38:50+02:00*%
%TF.ProjectId,esp32s3_adc_mini,65737033-3273-4335-9f61-64635f6d696e,rev?*%
%TF.SameCoordinates,Original*%
%TF.FileFunction,Copper,L2,Bot*%
%TF.FilePolarity,Positive*%
%FSLAX46Y46*%
G04 Gerber Fmt 4.6, Leading zero omitted, Abs format (unit mm)*
G04 Created by KiCad (PCBNEW 10.0.1) date 2026-05-11 19:38:50*
%MOMM*%
%LPD*%
G01*
G04 APERTURE LIST*
%TA.AperFunction,ComponentPad*%
%ADD10C,1.000000*%
%TD*%
%TA.AperFunction,ComponentPad*%
%ADD11R,0.850000X0.850000*%
%TD*%
%TA.AperFunction,ComponentPad*%
%ADD12C,0.850000*%
%TD*%
%TA.AperFunction,ComponentPad*%
%ADD13O,1.000000X2.100000*%
%TD*%
%TA.AperFunction,ComponentPad*%
%ADD14O,1.000000X1.800000*%
%TD*%
%TA.AperFunction,HeatsinkPad*%
%ADD15C,0.600000*%
%TD*%
%TA.AperFunction,ViaPad*%
%ADD16C,0.600000*%
%TD*%
%TA.AperFunction,Conductor*%
%ADD17C,0.383800*%
%TD*%
%TA.AperFunction,Conductor*%
%ADD18C,0.600000*%
%TD*%
%TA.AperFunction,Conductor*%
%ADD19C,0.200000*%
%TD*%
%TA.AperFunction,Conductor*%
%ADD20C,0.127000*%
%TD*%
G04 APERTURE END LIST*
D10*
%TO.P,CN1,*%
%TO.N,*%
X160000000Y-107292500D03*
X160000000Y-100292500D03*
%TD*%
D11*
%TO.P,J4,1,Pin_1_1*%
%TO.N,+3V3*%
X135500000Y-70500000D03*
D12*
%TO.P,J4,2,Pin_2_2*%
X135500000Y-71500000D03*
%TO.P,J4,3,Pin_3_3*%
%TO.N,EN*%
X135500000Y-72500000D03*
%TO.P,J4,4,Pin_4_4*%
%TO.N,IO4*%
X135500000Y-73500000D03*
%TO.P,J4,5,Pin_5_5*%
%TO.N,IO5*%
X135500000Y-74500000D03*
%TO.P,J4,6,Pin_6_6*%
%TO.N,IO6*%
X135500000Y-75500000D03*
%TO.P,J4,7,Pin_7_7*%
%TO.N,IO7*%
X135500000Y-76500000D03*
%TO.P,J4,8,Pin_8_8*%
%TO.N,DOUT*%
X135500000Y-77500000D03*
%TO.P,J4,9,Pin_9_9*%
%TO.N,IO16*%
X135500000Y-78500000D03*
%TO.P,J4,10,Pin_10_10*%
%TO.N,unconnected-(J4-Pin_10-Pad10)*%
X135500000Y-79500000D03*
%TO.P,J4,11,Pin_11_11*%
%TO.N,BCK*%
X135500000Y-80500000D03*
%TO.P,J4,12,Pin_12_12*%
%TO.N,IO8*%
X135500000Y-81500000D03*
%TO.P,J4,13,Pin_13_13*%
%TO.N,unconnected-(J4-Pin_13-Pad13)*%
X135500000Y-82500000D03*
%TO.P,J4,14,Pin_14_14*%
%TO.N,unconnected-(J4-Pin_14-Pad14)*%
X135500000Y-83500000D03*
%TO.P,J4,15,Pin_15_15*%
%TO.N,unconnected-(J4-Pin_15-Pad15)*%
X135500000Y-84500000D03*
%TO.P,J4,16,Pin_16_16*%
%TO.N,unconnected-(J4-Pin_16-Pad16)*%
X135500000Y-85500000D03*
%TO.P,J4,17,Pin_17_17*%
%TO.N,unconnected-(J4-Pin_17-Pad17)*%
X135500000Y-86500000D03*
%TO.P,J4,18,Pin_18_18*%
%TO.N,unconnected-(J4-Pin_18-Pad18)*%
X135500000Y-87500000D03*
%TO.P,J4,19,Pin_19_19*%
%TO.N,unconnected-(J4-Pin_19-Pad19)*%
X135500000Y-88500000D03*
%TO.P,J4,20,Pin_20_20*%
%TO.N,unconnected-(J4-Pin_20-Pad20)*%
X135500000Y-89500000D03*
%TO.P,J4,21,Pin_21_21*%
%TO.N,+5V*%
X135500000Y-90500000D03*
%TO.P,J4,22,Pin_22_22*%
%TO.N,GND*%
X135500000Y-91500000D03*
%TD*%
D13*
%TO.P,J1,SH,SHIELD_SH*%
%TO.N,GND*%
X143930000Y-103030000D03*
D14*
X143930000Y-107230000D03*
D13*
X152570000Y-103030000D03*
D14*
X152570000Y-107230000D03*
%TD*%
D15*
%TO.P,U2,41,GND_41*%
%TO.N,GND*%
X149830000Y-66520000D03*
X149830000Y-67920000D03*
X150530000Y-65820000D03*
X150530000Y-67220000D03*
X150530000Y-68620000D03*
X151230000Y-66520000D03*
X151230000Y-67920000D03*
X151930000Y-65820000D03*
X151930000Y-67220000D03*
X151930000Y-68620000D03*
X152630000Y-66520000D03*
X152630000Y-67920000D03*
%TD*%
D11*
%TO.P,J5,1,Pin_1_1*%
%TO.N,GND*%
X169500000Y-70500000D03*
D12*
%TO.P,J5,2,Pin_2_2*%
%TO.N,TXD0*%
X169500000Y-71500000D03*
%TO.P,J5,3,Pin_3_3*%
%TO.N,RXD0*%
X169500000Y-72500000D03*
%TO.P,J5,4,Pin_4_4*%
%TO.N,IO1*%
X169500000Y-73500000D03*
%TO.P,J5,5,Pin_5_5*%
%TO.N,SCKI*%
X169500000Y-74500000D03*
%TO.P,J5,6,Pin_6_6*%
%TO.N,IO42*%
X169500000Y-75500000D03*
%TO.P,J5,7,Pin_7_7*%
%TO.N,IO41*%
X169500000Y-76500000D03*
%TO.P,J5,8,Pin_8_8*%
%TO.N,IO40*%
X169500000Y-77500000D03*
%TO.P,J5,9,Pin_9_9*%
%TO.N,IO39*%
X169500000Y-78500000D03*
%TO.P,J5,10,Pin_10_10*%
%TO.N,IO38*%
X169500000Y-79500000D03*
%TO.P,J5,11,Pin_11_11*%
%TO.N,IO37*%
X169500000Y-80500000D03*
%TO.P,J5,12,Pin_12_12*%
%TO.N,IO36*%
X169500000Y-81500000D03*
%TO.P,J5,13,Pin_13_13*%
%TO.N,IO35*%
X169500000Y-82500000D03*
%TO.P,J5,14,Pin_14_14*%
%TO.N,IO0*%
X169500000Y-83500000D03*
%TO.P,J5,15,Pin_15_15*%
%TO.N,IO45*%
X169500000Y-84500000D03*
%TO.P,J5,16,Pin_16_16*%
%TO.N,IO48*%
X169500000Y-85500000D03*
%TO.P,J5,17,Pin_17_17*%
%TO.N,LRCK*%
X169500000Y-86500000D03*
%TO.P,J5,18,Pin_18_18*%
%TO.N,IO21*%
X169500000Y-87500000D03*
%TO.P,J5,19,Pin_19_19*%
%TO.N,unconnected-(J5-Pin_19-Pad19)*%
X169500000Y-88500000D03*
%TO.P,J5,20,Pin_20_20*%
%TO.N,unconnected-(J5-Pin_20-Pad20)*%
X169500000Y-89500000D03*
%TO.P,J5,21,Pin_21_21*%
%TO.N,GND*%
X169500000Y-90500000D03*
%TO.P,J5,22,Pin_22_22*%
X169500000Y-91500000D03*
%TD*%
D16*
%TO.N,GND*%
X143300000Y-88155000D03*
X150500000Y-82830000D03*
X151450000Y-102430000D03*
X148750000Y-98948750D03*
X144250000Y-83655000D03*
X148000000Y-80930000D03*
X144250000Y-90655000D03*
X142300000Y-98155000D03*
X149350000Y-85530000D03*
X151300000Y-85530000D03*
X145050000Y-102430000D03*
X160000000Y-89680000D03*
%TO.N,USB_D+*%
X144000000Y-76010000D03*
X149700000Y-96673750D03*
%TO.N,USB_D-*%
X144000000Y-74740000D03*
X147800000Y-96673750D03*
%TO.N,+3V3*%
X142350000Y-83730000D03*
%TO.N,+5V*%
X142350000Y-88155000D03*
X144250000Y-88155000D03*
%TO.N,EN*%
X157500000Y-80500000D03*
X144000000Y-62040000D03*
%TO.N,DOUT*%
X144070000Y-68450000D03*
X149220000Y-81730000D03*
%TO.N,BCK*%
X138760000Y-96618500D03*
X145350000Y-95300000D03*
%TO.N,IO0*%
X160000000Y-87780000D03*
%TO.N,SCKI*%
X148310000Y-84070000D03*
%TO.N,RXD0*%
X161500000Y-64580000D03*
%TO.N,TXD0*%
X161500000Y-63310000D03*
%TD*%
%TO.N,USB_D+*%
D17*
X147365351Y-94798100D02*
X147824350Y-94798100D01*
X143411768Y-75656900D02*
X140357402Y-78711266D01*
X144000000Y-76010000D02*
X143646900Y-75656900D01*
X146391900Y-88779933D02*
X146391900Y-90133346D01*
X146391900Y-90133346D02*
X146391900Y-93824649D01*
X144536768Y-79728100D02*
X146391900Y-81583232D01*
X146391900Y-93824649D02*
X147365351Y-94798100D01*
X140357402Y-78711266D02*
X140357402Y-79252946D01*
X140357402Y-79252946D02*
X140832556Y-79728100D01*
X140832556Y-79728100D02*
X144536768Y-79728100D01*
X147824350Y-94798100D02*
X149700000Y-96673750D01*
X146391900Y-81583232D02*
X146391900Y-88779933D01*
X143646900Y-75656900D02*
X143411768Y-75656900D01*
%TO.N,USB_D-*%
X145828100Y-94058185D02*
X145828100Y-81816768D01*
X140599020Y-80291900D02*
X139793602Y-79486482D01*
X147800000Y-96673750D02*
X147800000Y-95571084D01*
X143646900Y-75093100D02*
X144000000Y-74740000D01*
X143178232Y-75093100D02*
X143646900Y-75093100D01*
X145828100Y-81816768D02*
X144303232Y-80291900D01*
X139793602Y-78477730D02*
X143178232Y-75093100D01*
X139793602Y-79486482D02*
X139793602Y-78477730D01*
X147131815Y-95361900D02*
X145828100Y-94058185D01*
X147800000Y-95571084D02*
X147590816Y-95361900D01*
X144303232Y-80291900D02*
X140599020Y-80291900D01*
X147590816Y-95361900D02*
X147131815Y-95361900D01*
%TO.N,+3V3*%
D18*
X137970000Y-79350000D02*
X137970000Y-73368960D01*
X142350000Y-83730000D02*
X137970000Y-79350000D01*
X137970000Y-73368960D02*
X136101040Y-71500000D01*
X136101040Y-71500000D02*
X135500000Y-71500000D01*
%TO.N,+5V*%
X144250000Y-86870000D02*
X144250000Y-88155000D01*
X142350000Y-88155000D02*
X142360000Y-88145000D01*
X142360000Y-88145000D02*
X142360000Y-86850000D01*
X144230000Y-86850000D02*
X144250000Y-86870000D01*
X142360000Y-86850000D02*
X144230000Y-86850000D01*
%TO.N,EN*%
D19*
X144000000Y-62040000D02*
X144460000Y-62040000D01*
X144460000Y-62040000D02*
X146020000Y-63600000D01*
X157490000Y-80500000D02*
X157500000Y-80500000D01*
X146020000Y-63600000D02*
X146020000Y-69030000D01*
X146020000Y-69030000D02*
X157490000Y-80500000D01*
%TO.N,DOUT*%
X151530000Y-79420000D02*
X151530000Y-75910000D01*
X151530000Y-79420000D02*
X149220000Y-81730000D01*
X151530000Y-75910000D02*
X144070000Y-68450000D01*
%TO.N,BCK*%
D20*
X144031500Y-96618500D02*
X145350000Y-95300000D01*
X138760000Y-96618500D02*
X144031500Y-96618500D01*
%TO.N,IO0*%
D19*
X167550000Y-84750000D02*
X168800000Y-83500000D01*
X168800000Y-83500000D02*
X169500000Y-83500000D01*
X160000000Y-87780000D02*
X166150000Y-87780000D01*
X167550000Y-84750000D02*
X167550000Y-86380000D01*
X166150000Y-87780000D02*
X167550000Y-86380000D01*
%TO.N,SCKI*%
X150230000Y-84070000D02*
X150290000Y-84130000D01*
X151260000Y-87140000D02*
X153730000Y-87140000D01*
X148310000Y-84070000D02*
X150230000Y-84070000D01*
X150290000Y-86170000D02*
X151260000Y-87140000D01*
X150290000Y-84130000D02*
X150290000Y-86170000D01*
X153730000Y-87140000D02*
X166370000Y-74500000D01*
X166370000Y-74500000D02*
X169500000Y-74500000D01*
%TO.N,RXD0*%
X161580000Y-64580000D02*
X169500000Y-72500000D01*
X161500000Y-64580000D02*
X161580000Y-64580000D01*
%TO.N,TXD0*%
X169210000Y-71500000D02*
X168360000Y-70650000D01*
X168360000Y-70350000D02*
X161500000Y-63490000D01*
X169500000Y-71490000D02*
X169490000Y-71500000D01*
X169490000Y-71500000D02*
X169210000Y-71500000D01*
X169500000Y-71500000D02*
X169500000Y-71490000D01*
X168360000Y-70650000D02*
X168360000Y-70350000D01*
X161500000Y-63490000D02*
X161500000Y-63310000D01*
%TD*%
%TA.AperFunction,Conductor*%
%TO.N,GND*%
G36*
X172025677Y-58029685D02*
G01*
X172046319Y-58046319D01*
X173463181Y-59463181D01*
X173496666Y-59524504D01*
X173499500Y-59550862D01*
X173499500Y-106449138D01*
X173479815Y-106516177D01*
X173463181Y-106536819D01*
X171536819Y-108463181D01*
X171475496Y-108496666D01*
X171449138Y-108499500D01*
X153414077Y-108499500D01*
X153347038Y-108479815D01*
X153301283Y-108427011D01*
X153291339Y-108357853D01*
X153320364Y-108294297D01*
X153326396Y-108287819D01*
X153346748Y-108267466D01*
X153346751Y-108267462D01*
X153456185Y-108103684D01*
X153456192Y-108103671D01*
X153531569Y-107921693D01*
X153531572Y-107921681D01*
X153569999Y-107728495D01*
X153570000Y-107728492D01*
X153570000Y-107480000D01*
X152870000Y-107480000D01*
X152870000Y-107366420D01*
X159249499Y-107366420D01*
X159278340Y-107511407D01*
X159278343Y-107511417D01*
X159334912Y-107647988D01*
X159334919Y-107648001D01*
X159417048Y-107770915D01*
X159417051Y-107770919D01*
X159521580Y-107875448D01*
X159521584Y-107875451D01*
X159644498Y-107957580D01*
X159644511Y-107957587D01*
X159781082Y-108014156D01*
X159781087Y-108014158D01*
X159781091Y-108014158D01*
X159781092Y-108014159D01*
X159926079Y-108043000D01*
X159926082Y-108043000D01*
X160073920Y-108043000D01*
X160171462Y-108023596D01*
X160218913Y-108014158D01*
X160355495Y-107957584D01*
X160478416Y-107875451D01*
X160582951Y-107770916D01*
X160665084Y-107647995D01*
X160721658Y-107511413D01*
X160750500Y-107366418D01*
X160750500Y-107218582D01*
X160750500Y-107218579D01*
X160721659Y-107073592D01*
X160721658Y-107073591D01*
X160721658Y-107073587D01*
X160682893Y-106980000D01*
X160665087Y-106937011D01*
X160665080Y-106936998D01*
X160582951Y-106814084D01*
X160582948Y-106814080D01*
X160478419Y-106709551D01*
X160478415Y-106709548D01*
X160355501Y-106627419D01*
X160355488Y-106627412D01*
X160218917Y-106570843D01*
X160218907Y-106570840D01*
X160073920Y-106542000D01*
X160073918Y-106542000D01*
X159926082Y-106542000D01*
X159926080Y-106542000D01*
X159781092Y-106570840D01*
X159781082Y-106570843D01*
X159644511Y-106627412D01*
X159644498Y-106627419D01*
X159521584Y-106709548D01*
X159521580Y-106709551D01*
X159417051Y-106814080D01*
X159417048Y-106814084D01*
X159334919Y-106936998D01*
X159334912Y-106937011D01*
X159278343Y-107073582D01*
X159278340Y-107073592D01*
X159249500Y-107218579D01*
X159249500Y-107218582D01*
X159249500Y-107366418D01*
X159249500Y-107366420D01*
X159249499Y-107366420D01*
X152870000Y-107366420D01*
X152870000Y-106980000D01*
X153570000Y-106980000D01*
X153570000Y-106731508D01*
X153569999Y-106731504D01*
X153531572Y-106538318D01*
X153531569Y-106538306D01*
X153456192Y-106356328D01*
X153456185Y-106356315D01*
X153346751Y-106192537D01*
X153346748Y-106192533D01*
X153207466Y-106053251D01*
X153207462Y-106053248D01*
X153043684Y-105943814D01*
X153043671Y-105943807D01*
X152861691Y-105868429D01*
X152861683Y-105868427D01*
X152820000Y-105860135D01*
X152820000Y-106663011D01*
X152810060Y-106645795D01*
X152754205Y-106589940D01*
X152685796Y-106550444D01*
X152609496Y-106530000D01*
X152530504Y-106530000D01*
X152454204Y-106550444D01*
X152385795Y-106589940D01*
X152329940Y-106645795D01*
X152320000Y-106663011D01*
X152320000Y-105860136D01*
X152319999Y-105860135D01*
X152278316Y-105868427D01*
X152278308Y-105868429D01*
X152096328Y-105943807D01*
X152096315Y-105943814D01*
X151932537Y-106053248D01*
X151932533Y-106053251D01*
X151793251Y-106192533D01*
X151793248Y-106192537D01*
X151683814Y-106356315D01*
X151683807Y-106356328D01*
X151608430Y-106538306D01*
X151608427Y-106538318D01*
X151570000Y-106731504D01*
X151570000Y-106980000D01*
X152270000Y-106980000D01*
X152270000Y-107480000D01*
X151570000Y-107480000D01*
X151570000Y-107728495D01*
X151608427Y-107921681D01*
X151608430Y-107921693D01*
X151683807Y-108103671D01*
X151683814Y-108103684D01*
X151793248Y-108267462D01*
X151793251Y-108267466D01*
X151813604Y-108287819D01*
X151847089Y-108349142D01*
X151842105Y-108418834D01*
X151800233Y-108474767D01*
X151734769Y-108499184D01*
X151725923Y-108499500D01*
X144774077Y-108499500D01*
X144707038Y-108479815D01*
X144661283Y-108427011D01*
X144651339Y-108357853D01*
X144680364Y-108294297D01*
X144686396Y-108287819D01*
X144706748Y-108267466D01*
X144706751Y-108267462D01*
X144816185Y-108103684D01*
X144816192Y-108103671D01*
X144891569Y-107921693D01*
X144891572Y-107921681D01*
X144929999Y-107728495D01*
X144930000Y-107728492D01*
X144930000Y-107480000D01*
X144230000Y-107480000D01*
X144230000Y-106980000D01*
X144930000Y-106980000D01*
X144930000Y-106731508D01*
X144929999Y-106731504D01*
X144891572Y-106538318D01*
X144891569Y-106538306D01*
X144816192Y-106356328D01*
X144816185Y-106356315D01*
X144706751Y-106192537D01*
X144706748Y-106192533D01*
X144567466Y-106053251D01*
X144567462Y-106053248D01*
X144403684Y-105943814D01*
X144403671Y-105943807D01*
X144221691Y-105868429D01*
X144221683Y-105868427D01*
X144180000Y-105860135D01*
X144180000Y-106663011D01*
X144170060Y-106645795D01*
X144114205Y-106589940D01*
X144045796Y-106550444D01*
X143969496Y-106530000D01*
X143890504Y-106530000D01*
X143814204Y-106550444D01*
X143745795Y-106589940D01*
X143689940Y-106645795D01*
X143680000Y-106663011D01*
X143680000Y-105860136D01*
X143679999Y-105860135D01*
X143638316Y-105868427D01*
X143638308Y-105868429D01*
X143456328Y-105943807D01*
X143456315Y-105943814D01*
X143292537Y-106053248D01*
X143292533Y-106053251D01*
X143153251Y-106192533D01*
X143153248Y-106192537D01*
X143043814Y-106356315D01*
X143043807Y-106356328D01*
X142968430Y-106538306D01*
X142968427Y-106538318D01*
X142930000Y-106731504D01*
X142930000Y-106980000D01*
X143630000Y-106980000D01*
X143630000Y-107480000D01*
X142930000Y-107480000D01*
X142930000Y-107728495D01*
X142968427Y-107921681D01*
X142968430Y-107921693D01*
X143043807Y-108103671D01*
X143043814Y-108103684D01*
X143153248Y-108267462D01*
X143153251Y-108267466D01*
X143173604Y-108287819D01*
X143207089Y-108349142D01*
X143202105Y-108418834D01*
X143160233Y-108474767D01*
X143094769Y-108499184D01*
X143085923Y-108499500D01*
X134550862Y-108499500D01*
X134483823Y-108479815D01*
X134463181Y-108463181D01*
X132536819Y-106536819D01*
X132503334Y-106475496D01*
X132500500Y-106449138D01*
X132500500Y-103368872D01*
X135499500Y-103368872D01*
X135499500Y-103631127D01*
X135524375Y-103820060D01*
X135533730Y-103891116D01*
X135596533Y-104125500D01*
X135601602Y-104144418D01*
X135601605Y-104144428D01*
X135701953Y-104386690D01*
X135701958Y-104386700D01*
X135833075Y-104613803D01*
X135992718Y-104821851D01*
X135992726Y-104821860D01*
X136178140Y-105007274D01*
X136178148Y-105007281D01*
X136386196Y-105166924D01*
X136613299Y-105298041D01*
X136613309Y-105298046D01*
X136855571Y-105398394D01*
X136855581Y-105398398D01*
X137108884Y-105466270D01*
X137368880Y-105500500D01*
X137368887Y-105500500D01*
X137631113Y-105500500D01*
X137631120Y-105500500D01*
X137891116Y-105466270D01*
X138144419Y-105398398D01*
X138386697Y-105298043D01*
X138613803Y-105166924D01*
X138821851Y-105007282D01*
X138821855Y-105007277D01*
X138821860Y-105007274D01*
X139007274Y-104821860D01*
X139007277Y-104821855D01*
X139007282Y-104821851D01*
X139166924Y-104613803D01*
X139298043Y-104386697D01*
X139398398Y-104144419D01*
X139466270Y-103891116D01*
X139500500Y-103631120D01*
X139500500Y-103368880D01*
X139466270Y-103108884D01*
X139398398Y-102855581D01*
X139398394Y-102855571D01*
X139298046Y-102613309D01*
X139298041Y-102613299D01*
X139196496Y-102437417D01*
X139166924Y-102386196D01*
X139163324Y-102381504D01*
X142930000Y-102381504D01*
X142930000Y-102780000D01*
X143630000Y-102780000D01*
X143630000Y-103280000D01*
X142930000Y-103280000D01*
X142930000Y-103678495D01*
X142968427Y-103871681D01*
X142968430Y-103871693D01*
X143043807Y-104053671D01*
X143043814Y-104053684D01*
X143153248Y-104217462D01*
X143153251Y-104217466D01*
X143292533Y-104356748D01*
X143292537Y-104356751D01*
X143456315Y-104466185D01*
X143456328Y-104466192D01*
X143638308Y-104541569D01*
X143680000Y-104549862D01*
X143680000Y-103746988D01*
X143689940Y-103764205D01*
X143745795Y-103820060D01*
X143814204Y-103859556D01*
X143890504Y-103880000D01*
X143969496Y-103880000D01*
X144045796Y-103859556D01*
X144114205Y-103820060D01*
X144170060Y-103764205D01*
X144180000Y-103746988D01*
X144180000Y-104549862D01*
X144221690Y-104541569D01*
X144221692Y-104541569D01*
X144403671Y-104466192D01*
X144403684Y-104466185D01*
X144567462Y-104356751D01*
X144567466Y-104356748D01*
X144706748Y-104217466D01*
X144706751Y-104217462D01*
X144816181Y-104053690D01*
X144819037Y-104048346D01*
X144867993Y-103998495D01*
X144936128Y-103983025D01*
X145001811Y-104006847D01*
X145003895Y-104008412D01*
X145006632Y-104010512D01*
X145006635Y-104010515D01*
X145137865Y-104086281D01*
X145284234Y-104125500D01*
X145284236Y-104125500D01*
X145435764Y-104125500D01*
X145435766Y-104125500D01*
X145582135Y-104086281D01*
X145713365Y-104010515D01*
X145820515Y-103903365D01*
X145896281Y-103772135D01*
X145935500Y-103625766D01*
X145935500Y-103474234D01*
X150564500Y-103474234D01*
X150564500Y-103625766D01*
X150578628Y-103678492D01*
X150603719Y-103772136D01*
X150641602Y-103837750D01*
X150679485Y-103903365D01*
X150786635Y-104010515D01*
X150917865Y-104086281D01*
X151064234Y-104125500D01*
X151064236Y-104125500D01*
X151215764Y-104125500D01*
X151215766Y-104125500D01*
X151362135Y-104086281D01*
X151493365Y-104010515D01*
X151493373Y-104010506D01*
X151496105Y-104008412D01*
X151498834Y-104007356D01*
X151500403Y-104006451D01*
X151500544Y-104006695D01*
X151561274Y-103983215D01*
X151629719Y-103997251D01*
X151679710Y-104046064D01*
X151680955Y-104048335D01*
X151683812Y-104053680D01*
X151793248Y-104217462D01*
X151793251Y-104217466D01*
X151932533Y-104356748D01*
X151932537Y-104356751D01*
X152096315Y-104466185D01*
X152096328Y-104466192D01*
X152278308Y-104541569D01*
X152320000Y-104549862D01*
X152320000Y-103746988D01*
X152329940Y-103764205D01*
X152385795Y-103820060D01*
X152454204Y-103859556D01*
X152530504Y-103880000D01*
X152609496Y-103880000D01*
X152685796Y-103859556D01*
X152754205Y-103820060D01*
X152810060Y-103764205D01*
X152820000Y-103746988D01*
X152820000Y-104549862D01*
X152861690Y-104541569D01*
X152861692Y-104541569D01*
X153043671Y-104466192D01*
X153043684Y-104466185D01*
X153207462Y-104356751D01*
X153207466Y-104356748D01*
X153346748Y-104217466D01*
X153346751Y-104217462D01*
X153456185Y-104053684D01*
X153456192Y-104053671D01*
X153531569Y-103871693D01*
X153531572Y-103871681D01*
X153569999Y-103678495D01*
X153570000Y-103678492D01*
X153570000Y-103368872D01*
X166499500Y-103368872D01*
X166499500Y-103631127D01*
X166524375Y-103820060D01*
X166533730Y-103891116D01*
X166596533Y-104125500D01*
X166601602Y-104144418D01*
X166601605Y-104144428D01*
X166701953Y-104386690D01*
X166701958Y-104386700D01*
X166833075Y-104613803D01*
X166992718Y-104821851D01*
X166992726Y-104821860D01*
X167178140Y-105007274D01*
X167178148Y-105007281D01*
X167386196Y-105166924D01*
X167613299Y-105298041D01*
X167613309Y-105298046D01*
X167855571Y-105398394D01*
X167855581Y-105398398D01*
X168108884Y-105466270D01*
X168368880Y-105500500D01*
X168368887Y-105500500D01*
X168631113Y-105500500D01*
X168631120Y-105500500D01*
X168891116Y-105466270D01*
X169144419Y-105398398D01*
X169386697Y-105298043D01*
X169613803Y-105166924D01*
X169821851Y-105007282D01*
X169821855Y-105007277D01*
X169821860Y-105007274D01*
X170007274Y-104821860D01*
X170007277Y-104821855D01*
X170007282Y-104821851D01*
X170166924Y-104613803D01*
X170298043Y-104386697D01*
X170398398Y-104144419D01*
X170466270Y-103891116D01*
X170500500Y-103631120D01*
X170500500Y-103368880D01*
X170466270Y-103108884D01*
X170398398Y-102855581D01*
X170398394Y-102855571D01*
X170298046Y-102613309D01*
X170298041Y-102613299D01*
X170166924Y-102386196D01*
X170007281Y-102178148D01*
X170007274Y-102178140D01*
X169821860Y-101992726D01*
X169821851Y-101992718D01*
X169613803Y-101833075D01*
X169386700Y-101701958D01*
X169386690Y-101701953D01*
X169144428Y-101601605D01*
X169144421Y-101601603D01*
X169144419Y-101601602D01*
X168891116Y-101533730D01*
X168833339Y-101526123D01*
X168631127Y-101499500D01*
X168631120Y-101499500D01*
X168368880Y-101499500D01*
X168368872Y-101499500D01*
X168137772Y-101529926D01*
X168108884Y-101533730D01*
X167884646Y-101593814D01*
X167855581Y-101601602D01*
X167855571Y-101601605D01*
X167613309Y-101701953D01*
X167613299Y-101701958D01*
X167386196Y-101833075D01*
X167178148Y-101992718D01*
X166992718Y-102178148D01*
X166833075Y-102386196D01*
X166701958Y-102613299D01*
X166701953Y-102613309D01*
X166601605Y-102855571D01*
X166601602Y-102855581D01*
X166538928Y-103089487D01*
X166533730Y-103108885D01*
X166499500Y-103368872D01*
X153570000Y-103368872D01*
X153570000Y-103280000D01*
X152870000Y-103280000D01*
X152870000Y-102780000D01*
X153570000Y-102780000D01*
X153570000Y-102381508D01*
X153569999Y-102381504D01*
X153531572Y-102188318D01*
X153531569Y-102188306D01*
X153456192Y-102006328D01*
X153456185Y-102006315D01*
X153346751Y-101842537D01*
X153346748Y-101842533D01*
X153207466Y-101703251D01*
X153207462Y-101703248D01*
X153043684Y-101593814D01*
X153043671Y-101593807D01*
X152861691Y-101518429D01*
X152861683Y-101518427D01*
X152820000Y-101510135D01*
X152820000Y-102313011D01*
X152810060Y-102295795D01*
X152754205Y-102239940D01*
X152685796Y-102200444D01*
X152609496Y-102180000D01*
X152530504Y-102180000D01*
X152454204Y-102200444D01*
X152385795Y-102239940D01*
X152329940Y-102295795D01*
X152320000Y-102313011D01*
X152320000Y-101510136D01*
X152319999Y-101510135D01*
X152278316Y-101518427D01*
X152278308Y-101518429D01*
X152096328Y-101593807D01*
X152096315Y-101593814D01*
X151932537Y-101703248D01*
X151932533Y-101703251D01*
X151793251Y-101842533D01*
X151793248Y-101842537D01*
X151683814Y-102006315D01*
X151683807Y-102006328D01*
X151608430Y-102188306D01*
X151608427Y-102188318D01*
X151570000Y-102381504D01*
X151570000Y-102780000D01*
X152270000Y-102780000D01*
X152270000Y-103280000D01*
X151720237Y-103280000D01*
X151653198Y-103260315D01*
X151612850Y-103218000D01*
X151600515Y-103196635D01*
X151493365Y-103089485D01*
X151427750Y-103051602D01*
X151362136Y-103013719D01*
X151288950Y-102994109D01*
X151215766Y-102974500D01*
X151064234Y-102974500D01*
X150917863Y-103013719D01*
X150786635Y-103089485D01*
X150786632Y-103089487D01*
X150679487Y-103196632D01*
X150679485Y-103196635D01*
X150603719Y-103327863D01*
X150564500Y-103474234D01*
X145935500Y-103474234D01*
X145896281Y-103327865D01*
X145820515Y-103196635D01*
X145713365Y-103089485D01*
X145647750Y-103051602D01*
X145582136Y-103013719D01*
X145508950Y-102994109D01*
X145435766Y-102974500D01*
X145284234Y-102974500D01*
X145137863Y-103013719D01*
X145006635Y-103089485D01*
X145006632Y-103089487D01*
X144899487Y-103196632D01*
X144899483Y-103196638D01*
X144887150Y-103218000D01*
X144836583Y-103266216D01*
X144779763Y-103280000D01*
X144230000Y-103280000D01*
X144230000Y-102780000D01*
X144930000Y-102780000D01*
X144930000Y-102381508D01*
X144929999Y-102381504D01*
X144891572Y-102188318D01*
X144891569Y-102188306D01*
X144816192Y-102006328D01*
X144816185Y-102006315D01*
X144706751Y-101842537D01*
X144706748Y-101842533D01*
X144567466Y-101703251D01*
X144567462Y-101703248D01*
X144403684Y-101593814D01*
X144403671Y-101593807D01*
X144221691Y-101518429D01*
X144221683Y-101518427D01*
X144180000Y-101510135D01*
X144180000Y-102313011D01*
X144170060Y-102295795D01*
X144114205Y-102239940D01*
X144045796Y-102200444D01*
X143969496Y-102180000D01*
X143890504Y-102180000D01*
X143814204Y-102200444D01*
X143745795Y-102239940D01*
X143689940Y-102295795D01*
X143680000Y-102313011D01*
X143680000Y-101510136D01*
X143679999Y-101510135D01*
X143638316Y-101518427D01*
X143638308Y-101518429D01*
X143456328Y-101593807D01*
X143456315Y-101593814D01*
X143292537Y-101703248D01*
X143292533Y-101703251D01*
X143153251Y-101842533D01*
X143153248Y-101842537D01*
X143043814Y-102006315D01*
X143043807Y-102006328D01*
X142968430Y-102188306D01*
X142968427Y-102188318D01*
X142930000Y-102381504D01*
X139163324Y-102381504D01*
X139007281Y-102178148D01*
X139007274Y-102178140D01*
X138821860Y-101992726D01*
X138821851Y-101992718D01*
X138613803Y-101833075D01*
X138386700Y-101701958D01*
X138386690Y-101701953D01*
X138144428Y-101601605D01*
X138144421Y-101601603D01*
X138144419Y-101601602D01*
X137891116Y-101533730D01*
X137833339Y-101526123D01*
X137631127Y-101499500D01*
X137631120Y-101499500D01*
X137368880Y-101499500D01*
X137368872Y-101499500D01*
X137137772Y-101529926D01*
X137108884Y-101533730D01*
X136884646Y-101593814D01*
X136855581Y-101601602D01*
X136855571Y-101601605D01*
X136613309Y-101701953D01*
X136613299Y-101701958D01*
X136386196Y-101833075D01*
X136178148Y-101992718D01*
X135992718Y-102178148D01*
X135833075Y-102386196D01*
X135701958Y-102613299D01*
X135701953Y-102613309D01*
X135601605Y-102855571D01*
X135601602Y-102855581D01*
X135538928Y-103089487D01*
X135533730Y-103108885D01*
X135499500Y-103368872D01*
X132500500Y-103368872D01*
X132500500Y-100366420D01*
X159249499Y-100366420D01*
X159278340Y-100511407D01*
X159278343Y-100511417D01*
X159334912Y-100647988D01*
X159334919Y-100648001D01*
X159417048Y-100770915D01*
X159417051Y-100770919D01*
X159521580Y-100875448D01*
X159521584Y-100875451D01*
X159644498Y-100957580D01*
X159644511Y-100957587D01*
X159781082Y-101014156D01*
X159781087Y-101014158D01*
X159781091Y-101014158D01*
X159781092Y-101014159D01*
X159926079Y-101043000D01*
X159926082Y-101043000D01*
X160073920Y-101043000D01*
X160171462Y-101023596D01*
X160218913Y-101014158D01*
X160355495Y-100957584D01*
X160478416Y-100875451D01*
X160582951Y-100770916D01*
X160665084Y-100647995D01*
X160721658Y-100511413D01*
X160750500Y-100366418D01*
X160750500Y-100218582D01*
X160750500Y-100218579D01*
X160721659Y-100073592D01*
X160721658Y-100073591D01*
X160721658Y-100073587D01*
X160721656Y-100073582D01*
X160665087Y-99937011D01*
X160665080Y-99936998D01*
X160582951Y-99814084D01*
X160582948Y-99814080D01*
X160478419Y-99709551D01*
X160478415Y-99709548D01*
X160355501Y-99627419D01*
X160355488Y-99627412D01*
X160218917Y-99570843D01*
X160218907Y-99570840D01*
X160073920Y-99542000D01*
X160073918Y-99542000D01*
X159926082Y-99542000D01*
X159926080Y-99542000D01*
X159781092Y-99570840D01*
X159781082Y-99570843D01*
X159644511Y-99627412D01*
X159644498Y-99627419D01*
X159521584Y-99709548D01*
X159521580Y-99709551D01*
X159417051Y-99814080D01*
X159417048Y-99814084D01*
X159334919Y-99936998D01*
X159334912Y-99937011D01*
X159278343Y-100073582D01*
X159278340Y-100073592D01*
X159249500Y-100218579D01*
X159249500Y-100218582D01*
X159249500Y-100366418D01*
X159249500Y-100366420D01*
X159249499Y-100366420D01*
X132500500Y-100366420D01*
X132500500Y-96552608D01*
X138259500Y-96552608D01*
X138259500Y-96684391D01*
X138293608Y-96811687D01*
X138325507Y-96866936D01*
X138359500Y-96925814D01*
X138452686Y-97019000D01*
X138566814Y-97084892D01*
X138694108Y-97119000D01*
X138694110Y-97119000D01*
X138825890Y-97119000D01*
X138825892Y-97119000D01*
X138953186Y-97084892D01*
X139067314Y-97019000D01*
X139160500Y-96925814D01*
X139160500Y-96925813D01*
X139166247Y-96920067D01*
X139168461Y-96922281D01*
X139212960Y-96889803D01*
X139254886Y-96882500D01*
X144084012Y-96882500D01*
X144084013Y-96882500D01*
X144181044Y-96842308D01*
X145186740Y-95836611D01*
X145248061Y-95803128D01*
X145275981Y-95801967D01*
X145275981Y-95800500D01*
X145415890Y-95800500D01*
X145415892Y-95800500D01*
X145543186Y-95766392D01*
X145657314Y-95700500D01*
X145750500Y-95607314D01*
X145816392Y-95493186D01*
X145850500Y-95365892D01*
X145850500Y-95234108D01*
X145816392Y-95106814D01*
X145750500Y-94992686D01*
X145657314Y-94899500D01*
X145600250Y-94866554D01*
X145543187Y-94833608D01*
X145479539Y-94816554D01*
X145415892Y-94799500D01*
X145284108Y-94799500D01*
X145156812Y-94833608D01*
X145042686Y-94899500D01*
X145042683Y-94899502D01*
X144949502Y-94992683D01*
X144949500Y-94992686D01*
X144883608Y-95106812D01*
X144849500Y-95234108D01*
X144849500Y-95374019D01*
X144846367Y-95374019D01*
X144837870Y-95428445D01*
X144813386Y-95463259D01*
X143958467Y-96318181D01*
X143897144Y-96351666D01*
X143870786Y-96354500D01*
X139254886Y-96354500D01*
X139187847Y-96334815D01*
X139167281Y-96315898D01*
X139166247Y-96316933D01*
X139067316Y-96218002D01*
X139067314Y-96218000D01*
X138989805Y-96173250D01*
X138953187Y-96152108D01*
X138889539Y-96135054D01*
X138825892Y-96118000D01*
X138694108Y-96118000D01*
X138566812Y-96152108D01*
X138452686Y-96218000D01*
X138452683Y-96218002D01*
X138359502Y-96311183D01*
X138359500Y-96311186D01*
X138293608Y-96425312D01*
X138259500Y-96552608D01*
X132500500Y-96552608D01*
X132500500Y-92308500D01*
X135045050Y-92308500D01*
X135061849Y-92319725D01*
X135061855Y-92319728D01*
X135230182Y-92389451D01*
X135230194Y-92389454D01*
X135408890Y-92424999D01*
X135408894Y-92425000D01*
X135591106Y-92425000D01*
X135591109Y-92424999D01*
X135769805Y-92389454D01*
X135769813Y-92389452D01*
X135938151Y-92319724D01*
X135938154Y-92319723D01*
X135954947Y-92308500D01*
X135954948Y-92308500D01*
X135500001Y-91853553D01*
X135500000Y-91853553D01*
X135045050Y-92308500D01*
X132500500Y-92308500D01*
X132500500Y-91408890D01*
X134575000Y-91408890D01*
X134575000Y-91591109D01*
X134610545Y-91769805D01*
X134610548Y-91769817D01*
X134680271Y-91938145D01*
X134691498Y-91954947D01*
X135146446Y-91500000D01*
X135146446Y-91499999D01*
X135096719Y-91450272D01*
X135250000Y-91450272D01*
X135250000Y-91549728D01*
X135288060Y-91641614D01*
X135358386Y-91711940D01*
X135450272Y-91750000D01*
X135549728Y-91750000D01*
X135641614Y-91711940D01*
X135711940Y-91641614D01*
X135750000Y-91549728D01*
X135750000Y-91499999D01*
X135853553Y-91499999D01*
X135853553Y-91500001D01*
X136308500Y-91954948D01*
X136308500Y-91954947D01*
X136319723Y-91938154D01*
X136319724Y-91938151D01*
X136389452Y-91769813D01*
X136389454Y-91769805D01*
X136424999Y-91591109D01*
X136425000Y-91591106D01*
X136425000Y-91408894D01*
X136424999Y-91408890D01*
X136389454Y-91230194D01*
X136389451Y-91230182D01*
X136319728Y-91061855D01*
X136319725Y-91061849D01*
X136308500Y-91045050D01*
X135853553Y-91499999D01*
X135750000Y-91499999D01*
X135750000Y-91450272D01*
X135711940Y-91358386D01*
X135641614Y-91288060D01*
X135549728Y-91250000D01*
X135450272Y-91250000D01*
X135358386Y-91288060D01*
X135288060Y-91358386D01*
X135250000Y-91450272D01*
X135096719Y-91450272D01*
X134691498Y-91045050D01*
X134680274Y-91061848D01*
X134610547Y-91230186D01*
X134610545Y-91230194D01*
X134575000Y-91408890D01*
X132500500Y-91408890D01*
X132500500Y-70055247D01*
X134874500Y-70055247D01*
X134874500Y-70944752D01*
X134886131Y-71003229D01*
X134886132Y-71003230D01*
X134937233Y-71079707D01*
X134933541Y-71082173D01*
X134955567Y-71122510D01*
X134950583Y-71192202D01*
X134947943Y-71198054D01*
X134948020Y-71198086D01*
X134898538Y-71317545D01*
X134898535Y-71317555D01*
X134874500Y-71438389D01*
X134874500Y-71561610D01*
X134898535Y-71682444D01*
X134898538Y-71682454D01*
X134945687Y-71796283D01*
X134945692Y-71796292D01*
X135014141Y-71898732D01*
X135014144Y-71898736D01*
X135027727Y-71912319D01*
X135061212Y-71973642D01*
X135056228Y-72043334D01*
X135027727Y-72087681D01*
X135014144Y-72101263D01*
X135014141Y-72101267D01*
X134945692Y-72203707D01*
X134945687Y-72203716D01*
X134898538Y-72317545D01*
X134898535Y-72317555D01*
X134874500Y-72438389D01*
X134874500Y-72561610D01*
X134898535Y-72682444D01*
X134898538Y-72682454D01*
X134945687Y-72796283D01*
X134945692Y-72796292D01*
X135014141Y-72898732D01*
X135014144Y-72898736D01*
X135027727Y-72912319D01*
X135061212Y-72973642D01*
X135056228Y-73043334D01*
X135027727Y-73087681D01*
X135014144Y-73101263D01*
X135014141Y-73101267D01*
X134945692Y-73203707D01*
X134945687Y-73203716D01*
X134898538Y-73317545D01*
X134898535Y-73317555D01*
X134874500Y-73438389D01*
X134874500Y-73561610D01*
X134898535Y-73682444D01*
X134898538Y-73682454D01*
X134945687Y-73796283D01*
X134945692Y-73796292D01*
X135014141Y-73898732D01*
X135014144Y-73898736D01*
X135027727Y-73912319D01*
X135061212Y-73973642D01*
X135056228Y-74043334D01*
X135027727Y-74087681D01*
X135014144Y-74101263D01*
X135014141Y-74101267D01*
X134945692Y-74203707D01*
X134945687Y-74203716D01*
X134898538Y-74317545D01*
X134898535Y-74317555D01*
X134874500Y-74438389D01*
X134874500Y-74561610D01*
X134898535Y-74682444D01*
X134898538Y-74682454D01*
X134945687Y-74796283D01*
X134945692Y-74796292D01*
X135014141Y-74898732D01*
X135014144Y-74898736D01*
X135027727Y-74912319D01*
X135061212Y-74973642D01*
X135056228Y-75043334D01*
X135027727Y-75087681D01*
X135014144Y-75101263D01*
X135014141Y-75101267D01*
X134945692Y-75203707D01*
X134945687Y-75203716D01*
X134898538Y-75317545D01*
X134898535Y-75317555D01*
X134874500Y-75438389D01*
X134874500Y-75561610D01*
X134898535Y-75682444D01*
X134898538Y-75682454D01*
X134945687Y-75796283D01*
X134945692Y-75796292D01*
X135014141Y-75898732D01*
X135014144Y-75898736D01*
X135027727Y-75912319D01*
X135061212Y-75973642D01*
X135056228Y-76043334D01*
X135027727Y-76087681D01*
X135014144Y-76101263D01*
X135014141Y-76101267D01*
X134945692Y-76203707D01*
X134945687Y-76203716D01*
X134898538Y-76317545D01*
X134898535Y-76317555D01*
X134874500Y-76438389D01*
X134874500Y-76561610D01*
X134898535Y-76682444D01*
X134898538Y-76682454D01*
X134945687Y-76796283D01*
X134945692Y-76796292D01*
X135014141Y-76898732D01*
X135014144Y-76898736D01*
X135027727Y-76912319D01*
X135061212Y-76973642D01*
X135056228Y-77043334D01*
X135027727Y-77087681D01*
X135014144Y-77101263D01*
X135014141Y-77101267D01*
X134945692Y-77203707D01*
X134945687Y-77203716D01*
X134898538Y-77317545D01*
X134898535Y-77317555D01*
X134874500Y-77438389D01*
X134874500Y-77561610D01*
X134898535Y-77682444D01*
X134898538Y-77682454D01*
X134945687Y-77796283D01*
X134945692Y-77796292D01*
X135014141Y-77898732D01*
X135014144Y-77898736D01*
X135027727Y-77912319D01*
X135061212Y-77973642D01*
X135056228Y-78043334D01*
X135027727Y-78087681D01*
X135014144Y-78101263D01*
X135014141Y-78101267D01*
X134945692Y-78203707D01*
X134945687Y-78203716D01*
X134898538Y-78317545D01*
X134898535Y-78317555D01*
X134874500Y-78438389D01*
X134874500Y-78561610D01*
X134898535Y-78682444D01*
X134898538Y-78682454D01*
X134945687Y-78796283D01*
X134945692Y-78796292D01*
X135014141Y-78898732D01*
X135014144Y-78898736D01*
X135027727Y-78912319D01*
X135061212Y-78973642D01*
X135056228Y-79043334D01*
X135027727Y-79087681D01*
X135014144Y-79101263D01*
X135014141Y-79101267D01*
X134945692Y-79203707D01*
X134945687Y-79203716D01*
X134898538Y-79317545D01*
X134898535Y-79317555D01*
X134874500Y-79438389D01*
X134874500Y-79561610D01*
X134898535Y-79682444D01*
X134898538Y-79682454D01*
X134945687Y-79796283D01*
X134945692Y-79796292D01*
X135014141Y-79898732D01*
X135014144Y-79898736D01*
X135027727Y-79912319D01*
X135061212Y-79973642D01*
X135056228Y-80043334D01*
X135027727Y-80087681D01*
X135014144Y-80101263D01*
X135014141Y-80101267D01*
X134945692Y-80203707D01*
X134945687Y-80203716D01*
X134898538Y-80317545D01*
X134898535Y-80317555D01*
X134874500Y-80438389D01*
X134874500Y-80561610D01*
X134898535Y-80682444D01*
X134898537Y-80682452D01*
X134902983Y-80693186D01*
X134945687Y-80796283D01*
X134945692Y-80796292D01*
X135014141Y-80898732D01*
X135014144Y-80898736D01*
X135027727Y-80912319D01*
X135061212Y-80973642D01*
X135056228Y-81043334D01*
X135027727Y-81087681D01*
X135014144Y-81101263D01*
X135014141Y-81101267D01*
X134945692Y-81203707D01*
X134945687Y-81203716D01*
X134898538Y-81317545D01*
X134898535Y-81317555D01*
X134874500Y-81438389D01*
X134874500Y-81561610D01*
X134898535Y-81682444D01*
X134898538Y-81682454D01*
X134945687Y-81796283D01*
X134945692Y-81796292D01*
X135014141Y-81898732D01*
X135014144Y-81898736D01*
X135027727Y-81912319D01*
X135061212Y-81973642D01*
X135056228Y-82043334D01*
X135027727Y-82087681D01*
X135014144Y-82101263D01*
X135014141Y-82101267D01*
X134945692Y-82203707D01*
X134945687Y-82203716D01*
X134898538Y-82317545D01*
X134898535Y-82317555D01*
X134874500Y-82438389D01*
X134874500Y-82561610D01*
X134898535Y-82682444D01*
X134898538Y-82682454D01*
X134945687Y-82796283D01*
X134945692Y-82796292D01*
X135014141Y-82898732D01*
X135014144Y-82898736D01*
X135027727Y-82912319D01*
X135061212Y-82973642D01*
X135056228Y-83043334D01*
X135027727Y-83087681D01*
X135014144Y-83101263D01*
X135014141Y-83101267D01*
X134945692Y-83203707D01*
X134945687Y-83203716D01*
X134898538Y-83317545D01*
X134898535Y-83317555D01*
X134874500Y-83438389D01*
X134874500Y-83561610D01*
X134898535Y-83682444D01*
X134898538Y-83682454D01*
X134945687Y-83796283D01*
X134945692Y-83796292D01*
X135014141Y-83898732D01*
X135014144Y-83898736D01*
X135027727Y-83912319D01*
X135061212Y-83973642D01*
X135056228Y-84043334D01*
X135027727Y-84087681D01*
X135014144Y-84101263D01*
X135014141Y-84101267D01*
X134945692Y-84203707D01*
X134945687Y-84203716D01*
X134898538Y-84317545D01*
X134898535Y-84317555D01*
X134874500Y-84438389D01*
X134874500Y-84561610D01*
X134898535Y-84682444D01*
X134898538Y-84682454D01*
X134945687Y-84796283D01*
X134945692Y-84796292D01*
X135014141Y-84898732D01*
X135014144Y-84898736D01*
X135027727Y-84912319D01*
X135061212Y-84973642D01*
X135056228Y-85043334D01*
X135027727Y-85087681D01*
X135014144Y-85101263D01*
X135014141Y-85101267D01*
X134945692Y-85203707D01*
X134945687Y-85203716D01*
X134898538Y-85317545D01*
X134898535Y-85317555D01*
X134874500Y-85438389D01*
X134874500Y-85561610D01*
X134898535Y-85682444D01*
X134898538Y-85682454D01*
X134945687Y-85796283D01*
X134945692Y-85796292D01*
X135014141Y-85898732D01*
X135014144Y-85898736D01*
X135027727Y-85912319D01*
X135061212Y-85973642D01*
X135056228Y-86043334D01*
X135027727Y-86087681D01*
X135014144Y-86101263D01*
X135014141Y-86101267D01*
X134945692Y-86203707D01*
X134945687Y-86203716D01*
X134898538Y-86317545D01*
X134898535Y-86317555D01*
X134874500Y-86438389D01*
X134874500Y-86561610D01*
X134898535Y-86682444D01*
X134898538Y-86682454D01*
X134945687Y-86796283D01*
X134945692Y-86796292D01*
X135014141Y-86898732D01*
X135014144Y-86898736D01*
X135027727Y-86912319D01*
X135061212Y-86973642D01*
X135056228Y-87043334D01*
X135027727Y-87087681D01*
X135014144Y-87101263D01*
X135014141Y-87101267D01*
X134945692Y-87203707D01*
X134945687Y-87203716D01*
X134898538Y-87317545D01*
X134898535Y-87317555D01*
X134874500Y-87438389D01*
X134874500Y-87561610D01*
X134898535Y-87682444D01*
X134898538Y-87682454D01*
X134945687Y-87796283D01*
X134945692Y-87796292D01*
X135014141Y-87898732D01*
X135014144Y-87898736D01*
X135027727Y-87912319D01*
X135061212Y-87973642D01*
X135056228Y-88043334D01*
X135027727Y-88087681D01*
X135014144Y-88101263D01*
X135014141Y-88101267D01*
X134945692Y-88203707D01*
X134945687Y-88203716D01*
X134898538Y-88317545D01*
X134898535Y-88317555D01*
X134874500Y-88438389D01*
X134874500Y-88561610D01*
X134898535Y-88682444D01*
X134898538Y-88682454D01*
X134945687Y-88796283D01*
X134945692Y-88796292D01*
X135014141Y-88898732D01*
X135014144Y-88898736D01*
X135027727Y-88912319D01*
X135061212Y-88973642D01*
X135056228Y-89043334D01*
X135027727Y-89087681D01*
X135014144Y-89101263D01*
X135014141Y-89101267D01*
X134945692Y-89203707D01*
X134945687Y-89203716D01*
X134898538Y-89317545D01*
X134898535Y-89317555D01*
X134874500Y-89438389D01*
X134874500Y-89561610D01*
X134898535Y-89682444D01*
X134898538Y-89682454D01*
X134945687Y-89796283D01*
X134945692Y-89796292D01*
X135014141Y-89898732D01*
X135014144Y-89898736D01*
X135027727Y-89912319D01*
X135061212Y-89973642D01*
X135056228Y-90043334D01*
X135027727Y-90087681D01*
X135014144Y-90101263D01*
X135014141Y-90101267D01*
X134945692Y-90203707D01*
X134945687Y-90203716D01*
X134898538Y-90317545D01*
X134898535Y-90317555D01*
X134874500Y-90438389D01*
X134874500Y-90561610D01*
X134898535Y-90682444D01*
X134898538Y-90682454D01*
X134945687Y-90796283D01*
X134945692Y-90796292D01*
X135014141Y-90898732D01*
X135014144Y-90898736D01*
X135101263Y-90985855D01*
X135101267Y-90985858D01*
X135203707Y-91054307D01*
X135203716Y-91054312D01*
X135208320Y-91056219D01*
X135317548Y-91101463D01*
X135374292Y-91112749D01*
X135435858Y-91124996D01*
X135435860Y-91124996D01*
X135438394Y-91125500D01*
X135561606Y-91125500D01*
X135564140Y-91124996D01*
X135564142Y-91124996D01*
X135613666Y-91115144D01*
X135682452Y-91101463D01*
X135796286Y-91054311D01*
X135898733Y-90985858D01*
X135985858Y-90898733D01*
X136054311Y-90796286D01*
X136101463Y-90682452D01*
X136125500Y-90561606D01*
X136125500Y-90438394D01*
X136101463Y-90317548D01*
X136054311Y-90203714D01*
X136054310Y-90203713D01*
X136054307Y-90203707D01*
X135985858Y-90101267D01*
X135985855Y-90101263D01*
X135972273Y-90087681D01*
X135938788Y-90026358D01*
X135943772Y-89956666D01*
X135972273Y-89912319D01*
X135985855Y-89898736D01*
X135985858Y-89898733D01*
X136054311Y-89796286D01*
X136101463Y-89682452D01*
X136125500Y-89561606D01*
X136125500Y-89438394D01*
X136101463Y-89317548D01*
X136054311Y-89203714D01*
X136054310Y-89203713D01*
X136054307Y-89203707D01*
X135985858Y-89101267D01*
X135985855Y-89101263D01*
X135972273Y-89087681D01*
X135938788Y-89026358D01*
X135943772Y-88956666D01*
X135972273Y-88912319D01*
X135985855Y-88898736D01*
X135985858Y-88898733D01*
X136054311Y-88796286D01*
X136101463Y-88682452D01*
X136125500Y-88561606D01*
X136125500Y-88438394D01*
X136101463Y-88317548D01*
X136054311Y-88203714D01*
X135985858Y-88101267D01*
X135973697Y-88089106D01*
X141849500Y-88089106D01*
X141849500Y-88089108D01*
X141849500Y-88220892D01*
X141865472Y-88280500D01*
X141883608Y-88348187D01*
X141916554Y-88405250D01*
X141949500Y-88462314D01*
X142042686Y-88555500D01*
X142156814Y-88621392D01*
X142284108Y-88655500D01*
X142284110Y-88655500D01*
X142415890Y-88655500D01*
X142415892Y-88655500D01*
X142543186Y-88621392D01*
X142657314Y-88555500D01*
X142760500Y-88452314D01*
X142826392Y-88338186D01*
X142860500Y-88210893D01*
X142860500Y-88079108D01*
X142860500Y-87474500D01*
X142880185Y-87407461D01*
X142932989Y-87361706D01*
X142984500Y-87350500D01*
X143625500Y-87350500D01*
X143692539Y-87370185D01*
X143738294Y-87422989D01*
X143749500Y-87474500D01*
X143749500Y-88220892D01*
X143765472Y-88280500D01*
X143783608Y-88348187D01*
X143816554Y-88405250D01*
X143849500Y-88462314D01*
X143942686Y-88555500D01*
X144056814Y-88621392D01*
X144184108Y-88655500D01*
X144184110Y-88655500D01*
X144315890Y-88655500D01*
X144315892Y-88655500D01*
X144443186Y-88621392D01*
X144557314Y-88555500D01*
X144650500Y-88462314D01*
X144716392Y-88348186D01*
X144750500Y-88220892D01*
X144750500Y-86804108D01*
X144716392Y-86676814D01*
X144650500Y-86562686D01*
X144557314Y-86469500D01*
X144537314Y-86449500D01*
X144480250Y-86416554D01*
X144423187Y-86383608D01*
X144314593Y-86354511D01*
X144295892Y-86349500D01*
X142425892Y-86349500D01*
X142294108Y-86349500D01*
X142166812Y-86383608D01*
X142052686Y-86449500D01*
X142052683Y-86449502D01*
X141959502Y-86542683D01*
X141959500Y-86542686D01*
X141893608Y-86656812D01*
X141859500Y-86784108D01*
X141859500Y-88035462D01*
X141855275Y-88067554D01*
X141849500Y-88089106D01*
X135973697Y-88089106D01*
X135966301Y-88081710D01*
X135961193Y-88074982D01*
X135951645Y-88049904D01*
X135938788Y-88026358D01*
X135939403Y-88017750D01*
X135936333Y-88009685D01*
X135941857Y-87983430D01*
X135943772Y-87956666D01*
X135949300Y-87948064D01*
X135950721Y-87941313D01*
X135959093Y-87932825D01*
X135972273Y-87912319D01*
X135985855Y-87898736D01*
X135985858Y-87898733D01*
X136054311Y-87796286D01*
X136101463Y-87682452D01*
X136125500Y-87561606D01*
X136125500Y-87438394D01*
X136101463Y-87317548D01*
X136054311Y-87203714D01*
X136054310Y-87203713D01*
X136054307Y-87203707D01*
X135985858Y-87101267D01*
X135985855Y-87101263D01*
X135972273Y-87087681D01*
X135938788Y-87026358D01*
X135943772Y-86956666D01*
X135972273Y-86912319D01*
X135985855Y-86898736D01*
X135985858Y-86898733D01*
X136054311Y-86796286D01*
X136101463Y-86682452D01*
X136125500Y-86561606D01*
X136125500Y-86438394D01*
X136101463Y-86317548D01*
X136054311Y-86203714D01*
X136054310Y-86203713D01*
X136054307Y-86203707D01*
X135985858Y-86101267D01*
X135985855Y-86101263D01*
X135972273Y-86087681D01*
X135938788Y-86026358D01*
X135943772Y-85956666D01*
X135972273Y-85912319D01*
X135985855Y-85898736D01*
X135985858Y-85898733D01*
X136054311Y-85796286D01*
X136101463Y-85682452D01*
X136125500Y-85561606D01*
X136125500Y-85438394D01*
X136101463Y-85317548D01*
X136054311Y-85203714D01*
X136054310Y-85203713D01*
X136054307Y-85203707D01*
X135985858Y-85101267D01*
X135985855Y-85101263D01*
X135972273Y-85087681D01*
X135938788Y-85026358D01*
X135943772Y-84956666D01*
X135972273Y-84912319D01*
X135985855Y-84898736D01*
X135985858Y-84898733D01*
X136054311Y-84796286D01*
X136101463Y-84682452D01*
X136125500Y-84561606D01*
X136125500Y-84438394D01*
X136101463Y-84317548D01*
X136054311Y-84203714D01*
X136054310Y-84203713D01*
X136054307Y-84203707D01*
X135985858Y-84101267D01*
X135985855Y-84101263D01*
X135972273Y-84087681D01*
X135938788Y-84026358D01*
X135943772Y-83956666D01*
X135972273Y-83912319D01*
X135985855Y-83898736D01*
X135985858Y-83898733D01*
X136054311Y-83796286D01*
X136101463Y-83682452D01*
X136125500Y-83561606D01*
X136125500Y-83438394D01*
X136101463Y-83317548D01*
X136063020Y-83224739D01*
X136054312Y-83203716D01*
X136054307Y-83203707D01*
X135985858Y-83101267D01*
X135985855Y-83101263D01*
X135972273Y-83087681D01*
X135938788Y-83026358D01*
X135943772Y-82956666D01*
X135972273Y-82912319D01*
X135985855Y-82898736D01*
X135985858Y-82898733D01*
X136054311Y-82796286D01*
X136101463Y-82682452D01*
X136125500Y-82561606D01*
X136125500Y-82438394D01*
X136101463Y-82317548D01*
X136054311Y-82203714D01*
X136054310Y-82203713D01*
X136054307Y-82203707D01*
X135985858Y-82101267D01*
X135985855Y-82101263D01*
X135972273Y-82087681D01*
X135938788Y-82026358D01*
X135943772Y-81956666D01*
X135972273Y-81912319D01*
X135985855Y-81898736D01*
X135985858Y-81898733D01*
X136054311Y-81796286D01*
X136101463Y-81682452D01*
X136125500Y-81561606D01*
X136125500Y-81438394D01*
X136101463Y-81317548D01*
X136054311Y-81203714D01*
X136054310Y-81203713D01*
X136054307Y-81203707D01*
X135985858Y-81101267D01*
X135985855Y-81101263D01*
X135972273Y-81087681D01*
X135938788Y-81026358D01*
X135943772Y-80956666D01*
X135972273Y-80912319D01*
X135985855Y-80898736D01*
X135985858Y-80898733D01*
X136054311Y-80796286D01*
X136101463Y-80682452D01*
X136125500Y-80561606D01*
X136125500Y-80438394D01*
X136101463Y-80317548D01*
X136054311Y-80203714D01*
X136054310Y-80203713D01*
X136054307Y-80203707D01*
X135985858Y-80101267D01*
X135985855Y-80101263D01*
X135972273Y-80087681D01*
X135938788Y-80026358D01*
X135943772Y-79956666D01*
X135972273Y-79912319D01*
X135985855Y-79898736D01*
X135985858Y-79898733D01*
X136054311Y-79796286D01*
X136101463Y-79682452D01*
X136125500Y-79561606D01*
X136125500Y-79438394D01*
X136101463Y-79317548D01*
X136054311Y-79203714D01*
X136054310Y-79203713D01*
X136054307Y-79203707D01*
X135985858Y-79101267D01*
X135985855Y-79101263D01*
X135972273Y-79087681D01*
X135938788Y-79026358D01*
X135943772Y-78956666D01*
X135972273Y-78912319D01*
X135985855Y-78898736D01*
X135985858Y-78898733D01*
X136054311Y-78796286D01*
X136101463Y-78682452D01*
X136125500Y-78561606D01*
X136125500Y-78438394D01*
X136101463Y-78317548D01*
X136054311Y-78203714D01*
X136054310Y-78203713D01*
X136054307Y-78203707D01*
X135985858Y-78101267D01*
X135985855Y-78101263D01*
X135972273Y-78087681D01*
X135938788Y-78026358D01*
X135943772Y-77956666D01*
X135972273Y-77912319D01*
X135985855Y-77898736D01*
X135985858Y-77898733D01*
X136054311Y-77796286D01*
X136101463Y-77682452D01*
X136125500Y-77561606D01*
X136125500Y-77438394D01*
X136101463Y-77317548D01*
X136054311Y-77203714D01*
X136054310Y-77203713D01*
X136054307Y-77203707D01*
X135985858Y-77101267D01*
X135985855Y-77101263D01*
X135972273Y-77087681D01*
X135938788Y-77026358D01*
X135943772Y-76956666D01*
X135972273Y-76912319D01*
X135985855Y-76898736D01*
X135985858Y-76898733D01*
X136054311Y-76796286D01*
X136101463Y-76682452D01*
X136125500Y-76561606D01*
X136125500Y-76438394D01*
X136101463Y-76317548D01*
X136054311Y-76203714D01*
X136054310Y-76203713D01*
X136054307Y-76203707D01*
X135985858Y-76101267D01*
X135985855Y-76101263D01*
X135972273Y-76087681D01*
X135938788Y-76026358D01*
X135943772Y-75956666D01*
X135972273Y-75912319D01*
X135985855Y-75898736D01*
X135985858Y-75898733D01*
X136054311Y-75796286D01*
X136101463Y-75682452D01*
X136125500Y-75561606D01*
X136125500Y-75438394D01*
X136101463Y-75317548D01*
X136054311Y-75203714D01*
X136054310Y-75203713D01*
X136054307Y-75203707D01*
X135985858Y-75101267D01*
X135985855Y-75101263D01*
X135972273Y-75087681D01*
X135938788Y-75026358D01*
X135943772Y-74956666D01*
X135972273Y-74912319D01*
X135985855Y-74898736D01*
X135985858Y-74898733D01*
X136054311Y-74796286D01*
X136101463Y-74682452D01*
X136125500Y-74561606D01*
X136125500Y-74438394D01*
X136101463Y-74317548D01*
X136063020Y-74224739D01*
X136054312Y-74203716D01*
X136054307Y-74203707D01*
X135985858Y-74101267D01*
X135985855Y-74101263D01*
X135972273Y-74087681D01*
X135938788Y-74026358D01*
X135943772Y-73956666D01*
X135972273Y-73912319D01*
X135985855Y-73898736D01*
X135985858Y-73898733D01*
X136054311Y-73796286D01*
X136101463Y-73682452D01*
X136125500Y-73561606D01*
X136125500Y-73438394D01*
X136101463Y-73317548D01*
X136054311Y-73203714D01*
X136054310Y-73203713D01*
X136054307Y-73203707D01*
X135985858Y-73101267D01*
X135985855Y-73101263D01*
X135972273Y-73087681D01*
X135938788Y-73026358D01*
X135943772Y-72956666D01*
X135972273Y-72912319D01*
X135985855Y-72898736D01*
X135985858Y-72898733D01*
X136054311Y-72796286D01*
X136101463Y-72682452D01*
X136125500Y-72561606D01*
X136125500Y-72531636D01*
X136145185Y-72464597D01*
X136197989Y-72418842D01*
X136267147Y-72408898D01*
X136330703Y-72437923D01*
X136337181Y-72443955D01*
X137433181Y-73539955D01*
X137466666Y-73601278D01*
X137469500Y-73627636D01*
X137469500Y-79284108D01*
X137469500Y-79415892D01*
X137481201Y-79459560D01*
X137503608Y-79543187D01*
X137536554Y-79600250D01*
X137569500Y-79657314D01*
X141949500Y-84037314D01*
X142042686Y-84130500D01*
X142110343Y-84169562D01*
X142156814Y-84196392D01*
X142284107Y-84230500D01*
X142284108Y-84230500D01*
X142284109Y-84230500D01*
X142415890Y-84230500D01*
X142415892Y-84230500D01*
X142543186Y-84196392D01*
X142657314Y-84130500D01*
X142750500Y-84037314D01*
X142816392Y-83923186D01*
X142850500Y-83795892D01*
X142850500Y-83664108D01*
X142837606Y-83615988D01*
X142816392Y-83536814D01*
X142759569Y-83438394D01*
X142750500Y-83422686D01*
X142657314Y-83329500D01*
X138506819Y-79179005D01*
X138473334Y-79117682D01*
X138470500Y-79091324D01*
X138470500Y-78426070D01*
X139401202Y-78426070D01*
X139401202Y-78433026D01*
X139401202Y-79538142D01*
X139427943Y-79637944D01*
X139439126Y-79657313D01*
X139479604Y-79727422D01*
X140358080Y-80605898D01*
X140447559Y-80657559D01*
X140547359Y-80684300D01*
X140547360Y-80684300D01*
X144089332Y-80684300D01*
X144156371Y-80703985D01*
X144177013Y-80720619D01*
X145399381Y-81942987D01*
X145432866Y-82004310D01*
X145435700Y-82030668D01*
X145435700Y-94109845D01*
X145462441Y-94209647D01*
X145488271Y-94254385D01*
X145514102Y-94299125D01*
X146890875Y-95675898D01*
X146933487Y-95700500D01*
X146980354Y-95727559D01*
X147080155Y-95754300D01*
X147283600Y-95754300D01*
X147350639Y-95773985D01*
X147396394Y-95826789D01*
X147407600Y-95878300D01*
X147407600Y-96319180D01*
X147390987Y-96381180D01*
X147333609Y-96480560D01*
X147333609Y-96480561D01*
X147299500Y-96607858D01*
X147299500Y-96739641D01*
X147333608Y-96866937D01*
X147346810Y-96889803D01*
X147399500Y-96981064D01*
X147492686Y-97074250D01*
X147606814Y-97140142D01*
X147734108Y-97174250D01*
X147734110Y-97174250D01*
X147865890Y-97174250D01*
X147865892Y-97174250D01*
X147993186Y-97140142D01*
X148107314Y-97074250D01*
X148200500Y-96981064D01*
X148266392Y-96866936D01*
X148300500Y-96739642D01*
X148300500Y-96607858D01*
X148266392Y-96480564D01*
X148266390Y-96480560D01*
X148209013Y-96381180D01*
X148192400Y-96319180D01*
X148192400Y-96020449D01*
X148212085Y-95953410D01*
X148264889Y-95907655D01*
X148334047Y-95897711D01*
X148397603Y-95926736D01*
X148404081Y-95932768D01*
X149171813Y-96700500D01*
X149203907Y-96756088D01*
X149233608Y-96866937D01*
X149246810Y-96889803D01*
X149299500Y-96981064D01*
X149392686Y-97074250D01*
X149506814Y-97140142D01*
X149634108Y-97174250D01*
X149634110Y-97174250D01*
X149765890Y-97174250D01*
X149765892Y-97174250D01*
X149893186Y-97140142D01*
X150007314Y-97074250D01*
X150100500Y-96981064D01*
X150166392Y-96866936D01*
X150200500Y-96739642D01*
X150200500Y-96607858D01*
X150166392Y-96480564D01*
X150100500Y-96366436D01*
X150007314Y-96273250D01*
X149950250Y-96240304D01*
X149893187Y-96207358D01*
X149845083Y-96194469D01*
X149782336Y-96177656D01*
X149726750Y-96145563D01*
X148065292Y-94484104D01*
X148065291Y-94484103D01*
X148065290Y-94484102D01*
X148020550Y-94458271D01*
X147975812Y-94432441D01*
X147925911Y-94419070D01*
X147876011Y-94405700D01*
X147876010Y-94405700D01*
X147579250Y-94405700D01*
X147512211Y-94386015D01*
X147491569Y-94369381D01*
X146820619Y-93698430D01*
X146787134Y-93637107D01*
X146784300Y-93610749D01*
X146784300Y-92308500D01*
X169045050Y-92308500D01*
X169061849Y-92319725D01*
X169061855Y-92319728D01*
X169230182Y-92389451D01*
X169230194Y-92389454D01*
X169408890Y-92424999D01*
X169408894Y-92425000D01*
X169591106Y-92425000D01*
X169591109Y-92424999D01*
X169769805Y-92389454D01*
X169769813Y-92389452D01*
X169938151Y-92319724D01*
X169938154Y-92319723D01*
X169954947Y-92308500D01*
X169954948Y-92308500D01*
X169500001Y-91853553D01*
X169500000Y-91853553D01*
X169045050Y-92308500D01*
X146784300Y-92308500D01*
X146784300Y-90408890D01*
X168575000Y-90408890D01*
X168575000Y-90591109D01*
X168610545Y-90769805D01*
X168610547Y-90769813D01*
X168680278Y-90938159D01*
X168682092Y-90941553D01*
X168682504Y-90943533D01*
X168682606Y-90943779D01*
X168682559Y-90943798D01*
X168696331Y-91009956D01*
X168682092Y-91058447D01*
X168680278Y-91061840D01*
X168610547Y-91230186D01*
X168610545Y-91230194D01*
X168575000Y-91408890D01*
X168575000Y-91591109D01*
X168610545Y-91769805D01*
X168610548Y-91769817D01*
X168680271Y-91938145D01*
X168691498Y-91954947D01*
X169235542Y-91410904D01*
X169275298Y-91389195D01*
X169250000Y-91450272D01*
X169250000Y-91549728D01*
X169288060Y-91641614D01*
X169358386Y-91711940D01*
X169450272Y-91750000D01*
X169549728Y-91750000D01*
X169641614Y-91711940D01*
X169711940Y-91641614D01*
X169750000Y-91549728D01*
X169750000Y-91450272D01*
X169722533Y-91383961D01*
X169764457Y-91410904D01*
X170308500Y-91954948D01*
X170308500Y-91954947D01*
X170319723Y-91938154D01*
X170319724Y-91938151D01*
X170389452Y-91769813D01*
X170389454Y-91769805D01*
X170424999Y-91591109D01*
X170425000Y-91591106D01*
X170425000Y-91408894D01*
X170424999Y-91408890D01*
X170389454Y-91230194D01*
X170389451Y-91230182D01*
X170319726Y-91061851D01*
X170317915Y-91058462D01*
X170317502Y-91056479D01*
X170317394Y-91056219D01*
X170317443Y-91056198D01*
X170303667Y-90990061D01*
X170317915Y-90941538D01*
X170319726Y-90938148D01*
X170389451Y-90769817D01*
X170389454Y-90769805D01*
X170424999Y-90591109D01*
X170425000Y-90591106D01*
X170425000Y-90408894D01*
X170424999Y-90408890D01*
X170389454Y-90230194D01*
X170389451Y-90230182D01*
X170319728Y-90061855D01*
X170319725Y-90061849D01*
X170308500Y-90045050D01*
X169764457Y-90589095D01*
X169724702Y-90610802D01*
X169750000Y-90549728D01*
X169750000Y-90450272D01*
X169711940Y-90358386D01*
X169641614Y-90288060D01*
X169549728Y-90250000D01*
X169450272Y-90250000D01*
X169358386Y-90288060D01*
X169288060Y-90358386D01*
X169250000Y-90450272D01*
X169250000Y-90549728D01*
X169277466Y-90616039D01*
X169235542Y-90589095D01*
X168691498Y-90045050D01*
X168680274Y-90061848D01*
X168610547Y-90230186D01*
X168610545Y-90230194D01*
X168575000Y-90408890D01*
X146784300Y-90408890D01*
X146784300Y-84004108D01*
X147809500Y-84004108D01*
X147809500Y-84135891D01*
X147843608Y-84263187D01*
X147874992Y-84317545D01*
X147909500Y-84377314D01*
X148002686Y-84470500D01*
X148116814Y-84536392D01*
X148244108Y-84570500D01*
X148244110Y-84570500D01*
X148375890Y-84570500D01*
X148375892Y-84570500D01*
X148503186Y-84536392D01*
X148617314Y-84470500D01*
X148680995Y-84406819D01*
X148742318Y-84373334D01*
X148768676Y-84370500D01*
X149865500Y-84370500D01*
X149932539Y-84390185D01*
X149978294Y-84442989D01*
X149989500Y-84494500D01*
X149989500Y-86209562D01*
X150009979Y-86285989D01*
X150028200Y-86317548D01*
X150049540Y-86354511D01*
X151019540Y-87324511D01*
X151075489Y-87380460D01*
X151075491Y-87380461D01*
X151075495Y-87380464D01*
X151122256Y-87407461D01*
X151144011Y-87420021D01*
X151220438Y-87440500D01*
X151220440Y-87440500D01*
X153769560Y-87440500D01*
X153769562Y-87440500D01*
X153845989Y-87420021D01*
X153914511Y-87380460D01*
X153970460Y-87324511D01*
X166458152Y-74836819D01*
X166519475Y-74803334D01*
X166545833Y-74800500D01*
X168882225Y-74800500D01*
X168885939Y-74801590D01*
X168889714Y-74800726D01*
X168919203Y-74811358D01*
X168949264Y-74820185D01*
X168952853Y-74823490D01*
X168955443Y-74824424D01*
X168967268Y-74836764D01*
X168980671Y-74849106D01*
X168983112Y-74852294D01*
X169014142Y-74898733D01*
X169033510Y-74918101D01*
X169038492Y-74924606D01*
X169048234Y-74949874D01*
X169061212Y-74973642D01*
X169060615Y-74981988D01*
X169063626Y-74989798D01*
X169058159Y-75016321D01*
X169056228Y-75043334D01*
X169050876Y-75051660D01*
X169049523Y-75058230D01*
X169041161Y-75066776D01*
X169027727Y-75087681D01*
X169014144Y-75101263D01*
X169014141Y-75101267D01*
X168945692Y-75203707D01*
X168945687Y-75203716D01*
X168898538Y-75317545D01*
X168898535Y-75317555D01*
X168874500Y-75438389D01*
X168874500Y-75561610D01*
X168898535Y-75682444D01*
X168898538Y-75682454D01*
X168945687Y-75796283D01*
X168945692Y-75796292D01*
X169014141Y-75898732D01*
X169014144Y-75898736D01*
X169027727Y-75912319D01*
X169061212Y-75973642D01*
X169056228Y-76043334D01*
X169027727Y-76087681D01*
X169014144Y-76101263D01*
X169014141Y-76101267D01*
X168945692Y-76203707D01*
X168945687Y-76203716D01*
X168898538Y-76317545D01*
X168898535Y-76317555D01*
X168874500Y-76438389D01*
X168874500Y-76561610D01*
X168898535Y-76682444D01*
X168898538Y-76682454D01*
X168945687Y-76796283D01*
X168945692Y-76796292D01*
X169014141Y-76898732D01*
X169014144Y-76898736D01*
X169027727Y-76912319D01*
X169061212Y-76973642D01*
X169056228Y-77043334D01*
X169027727Y-77087681D01*
X169014144Y-77101263D01*
X169014141Y-77101267D01*
X168945692Y-77203707D01*
X168945687Y-77203716D01*
X168898538Y-77317545D01*
X168898535Y-77317555D01*
X168874500Y-77438389D01*
X168874500Y-77561610D01*
X168898535Y-77682444D01*
X168898538Y-77682454D01*
X168945687Y-77796283D01*
X168945692Y-77796292D01*
X169014141Y-77898732D01*
X169014144Y-77898736D01*
X169027727Y-77912319D01*
X169061212Y-77973642D01*
X169056228Y-78043334D01*
X169027727Y-78087681D01*
X169014144Y-78101263D01*
X169014141Y-78101267D01*
X168945692Y-78203707D01*
X168945687Y-78203716D01*
X168898538Y-78317545D01*
X168898535Y-78317555D01*
X168874500Y-78438389D01*
X168874500Y-78561610D01*
X168898535Y-78682444D01*
X168898538Y-78682454D01*
X168945687Y-78796283D01*
X168945692Y-78796292D01*
X169014141Y-78898732D01*
X169014144Y-78898736D01*
X169027727Y-78912319D01*
X169061212Y-78973642D01*
X169056228Y-79043334D01*
X169027727Y-79087681D01*
X169014144Y-79101263D01*
X169014141Y-79101267D01*
X168945692Y-79203707D01*
X168945687Y-79203716D01*
X168898538Y-79317545D01*
X168898535Y-79317555D01*
X168874500Y-79438389D01*
X168874500Y-79561610D01*
X168898535Y-79682444D01*
X168898538Y-79682454D01*
X168945687Y-79796283D01*
X168945692Y-79796292D01*
X169014141Y-79898732D01*
X169014144Y-79898736D01*
X169027727Y-79912319D01*
X169061212Y-79973642D01*
X169056228Y-80043334D01*
X169027727Y-80087681D01*
X169014144Y-80101263D01*
X169014141Y-80101267D01*
X168945692Y-80203707D01*
X168945687Y-80203716D01*
X168898538Y-80317545D01*
X168898535Y-80317555D01*
X168874500Y-80438389D01*
X168874500Y-80561610D01*
X168898535Y-80682444D01*
X168898537Y-80682452D01*
X168902983Y-80693186D01*
X168945687Y-80796283D01*
X168945692Y-80796292D01*
X169014141Y-80898732D01*
X169014144Y-80898736D01*
X169027727Y-80912319D01*
X169061212Y-80973642D01*
X169056228Y-81043334D01*
X169027727Y-81087681D01*
X169014144Y-81101263D01*
X169014141Y-81101267D01*
X168945692Y-81203707D01*
X168945687Y-81203716D01*
X168898538Y-81317545D01*
X168898535Y-81317555D01*
X168874500Y-81438389D01*
X168874500Y-81561610D01*
X168898535Y-81682444D01*
X168898538Y-81682454D01*
X168945687Y-81796283D01*
X168945692Y-81796292D01*
X169014141Y-81898732D01*
X169014144Y-81898736D01*
X169027727Y-81912319D01*
X169061212Y-81973642D01*
X169056228Y-82043334D01*
X169027727Y-82087681D01*
X169014144Y-82101263D01*
X169014141Y-82101267D01*
X168945692Y-82203707D01*
X168945687Y-82203716D01*
X168898538Y-82317545D01*
X168898535Y-82317555D01*
X168874500Y-82438389D01*
X168874500Y-82561610D01*
X168898535Y-82682444D01*
X168898538Y-82682454D01*
X168945687Y-82796283D01*
X168945692Y-82796292D01*
X169014141Y-82898732D01*
X169014144Y-82898736D01*
X169027727Y-82912319D01*
X169028065Y-82912939D01*
X169028683Y-82913285D01*
X169044793Y-82943573D01*
X169061212Y-82973642D01*
X169061161Y-82974347D01*
X169061494Y-82974972D01*
X169058672Y-83009154D01*
X169056228Y-83043334D01*
X169055784Y-83044135D01*
X169055746Y-83044605D01*
X169054266Y-83046879D01*
X169038492Y-83075394D01*
X169033510Y-83081898D01*
X169014142Y-83101267D01*
X168983112Y-83147705D01*
X168980671Y-83150894D01*
X168955579Y-83169251D01*
X168931715Y-83189196D01*
X168926968Y-83190184D01*
X168924282Y-83192150D01*
X168914759Y-83192726D01*
X168882225Y-83199500D01*
X168760438Y-83199500D01*
X168722224Y-83209739D01*
X168684009Y-83219979D01*
X168684004Y-83219982D01*
X168615495Y-83259535D01*
X168615487Y-83259541D01*
X167309541Y-84565487D01*
X167309535Y-84565495D01*
X167269982Y-84634004D01*
X167269979Y-84634009D01*
X167249500Y-84710439D01*
X167249500Y-86204167D01*
X167229815Y-86271206D01*
X167213181Y-86291848D01*
X166061848Y-87443181D01*
X166000525Y-87476666D01*
X165974167Y-87479500D01*
X160458676Y-87479500D01*
X160391637Y-87459815D01*
X160370995Y-87443181D01*
X160307316Y-87379502D01*
X160307314Y-87379500D01*
X160212071Y-87324511D01*
X160193187Y-87313608D01*
X160129539Y-87296554D01*
X160065892Y-87279500D01*
X159934108Y-87279500D01*
X159806812Y-87313608D01*
X159692686Y-87379500D01*
X159692683Y-87379502D01*
X159599502Y-87472683D01*
X159599500Y-87472686D01*
X159533608Y-87586812D01*
X159499500Y-87714108D01*
X159499500Y-87845891D01*
X159533608Y-87973187D01*
X159560902Y-88020460D01*
X159599500Y-88087314D01*
X159692686Y-88180500D01*
X159806814Y-88246392D01*
X159934108Y-88280500D01*
X159934110Y-88280500D01*
X160065890Y-88280500D01*
X160065892Y-88280500D01*
X160193186Y-88246392D01*
X160307314Y-88180500D01*
X160370995Y-88116819D01*
X160432318Y-88083334D01*
X160458676Y-88080500D01*
X166189560Y-88080500D01*
X166189562Y-88080500D01*
X166265989Y-88060021D01*
X166334511Y-88020460D01*
X166390460Y-87964511D01*
X167790460Y-86564511D01*
X167792137Y-86561606D01*
X167830021Y-86495989D01*
X167850500Y-86419562D01*
X167850500Y-84925833D01*
X167870185Y-84858794D01*
X167886819Y-84838152D01*
X168354471Y-84370500D01*
X168832703Y-83892267D01*
X168841176Y-83887640D01*
X168847040Y-83879965D01*
X168871343Y-83871168D01*
X168894024Y-83858784D01*
X168903656Y-83859472D01*
X168912738Y-83856186D01*
X168937934Y-83861924D01*
X168963715Y-83863768D01*
X168973263Y-83869969D01*
X168980864Y-83871701D01*
X168998041Y-83886064D01*
X169008911Y-83893125D01*
X169013566Y-83897872D01*
X169014142Y-83898733D01*
X169028116Y-83912707D01*
X169028575Y-83913175D01*
X169044759Y-83943511D01*
X169061212Y-83973642D01*
X169061167Y-83974266D01*
X169061463Y-83974821D01*
X169058678Y-84009074D01*
X169056228Y-84043334D01*
X169055844Y-84043931D01*
X169055801Y-84044461D01*
X169053927Y-84046914D01*
X169027727Y-84087681D01*
X169014144Y-84101263D01*
X169014141Y-84101267D01*
X168945692Y-84203707D01*
X168945687Y-84203716D01*
X168898538Y-84317545D01*
X168898535Y-84317555D01*
X168874500Y-84438389D01*
X168874500Y-84561610D01*
X168898535Y-84682444D01*
X168898538Y-84682454D01*
X168945687Y-84796283D01*
X168945692Y-84796292D01*
X169014141Y-84898732D01*
X169014144Y-84898736D01*
X169027727Y-84912319D01*
X169061212Y-84973642D01*
X169056228Y-85043334D01*
X169027727Y-85087681D01*
X169014144Y-85101263D01*
X169014141Y-85101267D01*
X168945692Y-85203707D01*
X168945687Y-85203716D01*
X168898538Y-85317545D01*
X168898535Y-85317555D01*
X168874500Y-85438389D01*
X168874500Y-85561610D01*
X168898535Y-85682444D01*
X168898538Y-85682454D01*
X168945687Y-85796283D01*
X168945692Y-85796292D01*
X169014141Y-85898732D01*
X169014144Y-85898736D01*
X169027727Y-85912319D01*
X169061212Y-85973642D01*
X169056228Y-86043334D01*
X169027727Y-86087681D01*
X169014144Y-86101263D01*
X169014141Y-86101267D01*
X168945692Y-86203707D01*
X168945687Y-86203716D01*
X168898538Y-86317545D01*
X168898535Y-86317555D01*
X168874500Y-86438389D01*
X168874500Y-86561610D01*
X168898535Y-86682444D01*
X168898538Y-86682454D01*
X168945687Y-86796283D01*
X168945692Y-86796292D01*
X169014141Y-86898732D01*
X169014144Y-86898736D01*
X169027727Y-86912319D01*
X169061212Y-86973642D01*
X169056228Y-87043334D01*
X169027727Y-87087681D01*
X169014144Y-87101263D01*
X169014141Y-87101267D01*
X168945692Y-87203707D01*
X168945687Y-87203716D01*
X168898538Y-87317545D01*
X168898535Y-87317555D01*
X168874500Y-87438389D01*
X168874500Y-87561610D01*
X168898535Y-87682444D01*
X168898538Y-87682454D01*
X168945687Y-87796283D01*
X168945692Y-87796292D01*
X169014141Y-87898732D01*
X169014144Y-87898736D01*
X169027727Y-87912319D01*
X169061212Y-87973642D01*
X169056228Y-88043334D01*
X169027727Y-88087681D01*
X169014144Y-88101263D01*
X169014141Y-88101267D01*
X168945692Y-88203707D01*
X168945687Y-88203716D01*
X168898538Y-88317545D01*
X168898535Y-88317555D01*
X168874500Y-88438389D01*
X168874500Y-88561610D01*
X168898535Y-88682444D01*
X168898538Y-88682454D01*
X168945687Y-88796283D01*
X168945692Y-88796292D01*
X169014141Y-88898732D01*
X169014144Y-88898736D01*
X169027727Y-88912319D01*
X169061212Y-88973642D01*
X169056228Y-89043334D01*
X169027727Y-89087681D01*
X169014144Y-89101263D01*
X169014141Y-89101267D01*
X168945692Y-89203707D01*
X168945687Y-89203716D01*
X168898538Y-89317545D01*
X168898535Y-89317555D01*
X168874500Y-89438389D01*
X168874500Y-89561610D01*
X168898535Y-89682444D01*
X168898538Y-89682454D01*
X168945687Y-89796283D01*
X168945692Y-89796292D01*
X169014141Y-89898732D01*
X169014144Y-89898736D01*
X169101263Y-89985855D01*
X169101267Y-89985858D01*
X169203707Y-90054307D01*
X169203713Y-90054310D01*
X169203714Y-90054311D01*
X169317548Y-90101463D01*
X169374292Y-90112749D01*
X169435858Y-90124996D01*
X169435860Y-90124996D01*
X169438394Y-90125500D01*
X169561606Y-90125500D01*
X169564140Y-90124996D01*
X169564142Y-90124996D01*
X169613666Y-90115144D01*
X169682452Y-90101463D01*
X169796286Y-90054311D01*
X169898733Y-89985858D01*
X169985858Y-89898733D01*
X170054311Y-89796286D01*
X170101463Y-89682452D01*
X170125500Y-89561606D01*
X170125500Y-89438394D01*
X170101463Y-89317548D01*
X170054311Y-89203714D01*
X170054310Y-89203713D01*
X170054307Y-89203707D01*
X169985858Y-89101267D01*
X169985855Y-89101263D01*
X169972273Y-89087681D01*
X169938788Y-89026358D01*
X169943772Y-88956666D01*
X169972273Y-88912319D01*
X169985855Y-88898736D01*
X169985858Y-88898733D01*
X170054311Y-88796286D01*
X170101463Y-88682452D01*
X170125500Y-88561606D01*
X170125500Y-88438394D01*
X170101463Y-88317548D01*
X170054311Y-88203714D01*
X170054310Y-88203713D01*
X170054307Y-88203707D01*
X169985858Y-88101267D01*
X169985855Y-88101263D01*
X169972273Y-88087681D01*
X169938788Y-88026358D01*
X169943772Y-87956666D01*
X169972273Y-87912319D01*
X169985855Y-87898736D01*
X169985858Y-87898733D01*
X170054311Y-87796286D01*
X170101463Y-87682452D01*
X170125500Y-87561606D01*
X170125500Y-87438394D01*
X170101463Y-87317548D01*
X170054311Y-87203714D01*
X170054310Y-87203713D01*
X170054307Y-87203707D01*
X169985858Y-87101267D01*
X169985855Y-87101263D01*
X169972273Y-87087681D01*
X169938788Y-87026358D01*
X169943772Y-86956666D01*
X169972273Y-86912319D01*
X169985855Y-86898736D01*
X169985858Y-86898733D01*
X170054311Y-86796286D01*
X170101463Y-86682452D01*
X170125500Y-86561606D01*
X170125500Y-86438394D01*
X170101463Y-86317548D01*
X170054311Y-86203714D01*
X170054310Y-86203713D01*
X170054307Y-86203707D01*
X169985858Y-86101267D01*
X169985855Y-86101263D01*
X169972273Y-86087681D01*
X169938788Y-86026358D01*
X169943772Y-85956666D01*
X169972273Y-85912319D01*
X169985855Y-85898736D01*
X169985858Y-85898733D01*
X170054311Y-85796286D01*
X170101463Y-85682452D01*
X170125500Y-85561606D01*
X170125500Y-85438394D01*
X170101463Y-85317548D01*
X170054311Y-85203714D01*
X170054310Y-85203713D01*
X170054307Y-85203707D01*
X169985858Y-85101267D01*
X169985855Y-85101263D01*
X169972273Y-85087681D01*
X169938788Y-85026358D01*
X169943772Y-84956666D01*
X169972273Y-84912319D01*
X169985855Y-84898736D01*
X169985858Y-84898733D01*
X170054311Y-84796286D01*
X170101463Y-84682452D01*
X170125500Y-84561606D01*
X170125500Y-84438394D01*
X170101463Y-84317548D01*
X170054311Y-84203714D01*
X170054310Y-84203713D01*
X170054307Y-84203707D01*
X169985858Y-84101267D01*
X169985855Y-84101263D01*
X169972273Y-84087681D01*
X169938788Y-84026358D01*
X169943772Y-83956666D01*
X169972273Y-83912319D01*
X169985855Y-83898736D01*
X169985858Y-83898733D01*
X170054311Y-83796286D01*
X170101463Y-83682452D01*
X170125500Y-83561606D01*
X170125500Y-83438394D01*
X170101463Y-83317548D01*
X170063020Y-83224739D01*
X170054312Y-83203716D01*
X170054307Y-83203707D01*
X169985858Y-83101267D01*
X169985855Y-83101263D01*
X169972273Y-83087681D01*
X169938788Y-83026358D01*
X169943772Y-82956666D01*
X169972273Y-82912319D01*
X169985855Y-82898736D01*
X169985858Y-82898733D01*
X170054311Y-82796286D01*
X170101463Y-82682452D01*
X170125500Y-82561606D01*
X170125500Y-82438394D01*
X170101463Y-82317548D01*
X170054311Y-82203714D01*
X170054310Y-82203713D01*
X170054307Y-82203707D01*
X169985858Y-82101267D01*
X169985855Y-82101263D01*
X169972273Y-82087681D01*
X169938788Y-82026358D01*
X169943772Y-81956666D01*
X169972273Y-81912319D01*
X169985855Y-81898736D01*
X169985858Y-81898733D01*
X170054311Y-81796286D01*
X170101463Y-81682452D01*
X170125500Y-81561606D01*
X170125500Y-81438394D01*
X170101463Y-81317548D01*
X170054311Y-81203714D01*
X170054310Y-81203713D01*
X170054307Y-81203707D01*
X169985858Y-81101267D01*
X169985855Y-81101263D01*
X169972273Y-81087681D01*
X169938788Y-81026358D01*
X169943772Y-80956666D01*
X169972273Y-80912319D01*
X169985855Y-80898736D01*
X169985858Y-80898733D01*
X170054311Y-80796286D01*
X170101463Y-80682452D01*
X170125500Y-80561606D01*
X170125500Y-80438394D01*
X170101463Y-80317548D01*
X170054311Y-80203714D01*
X170054310Y-80203713D01*
X170054307Y-80203707D01*
X169985858Y-80101267D01*
X169985855Y-80101263D01*
X169972273Y-80087681D01*
X169938788Y-80026358D01*
X169943772Y-79956666D01*
X169972273Y-79912319D01*
X169985855Y-79898736D01*
X169985858Y-79898733D01*
X170054311Y-79796286D01*
X170101463Y-79682452D01*
X170125500Y-79561606D01*
X170125500Y-79438394D01*
X170101463Y-79317548D01*
X170054311Y-79203714D01*
X170054310Y-79203713D01*
X170054307Y-79203707D01*
X169985858Y-79101267D01*
X169985855Y-79101263D01*
X169972273Y-79087681D01*
X169938788Y-79026358D01*
X169943772Y-78956666D01*
X169972273Y-78912319D01*
X169985855Y-78898736D01*
X169985858Y-78898733D01*
X170054311Y-78796286D01*
X170101463Y-78682452D01*
X170125500Y-78561606D01*
X170125500Y-78438394D01*
X170101463Y-78317548D01*
X170054311Y-78203714D01*
X170054310Y-78203713D01*
X170054307Y-78203707D01*
X169985858Y-78101267D01*
X169985855Y-78101263D01*
X169972273Y-78087681D01*
X169938788Y-78026358D01*
X169943772Y-77956666D01*
X169972273Y-77912319D01*
X169985855Y-77898736D01*
X169985858Y-77898733D01*
X170054311Y-77796286D01*
X170101463Y-77682452D01*
X170125500Y-77561606D01*
X170125500Y-77438394D01*
X170101463Y-77317548D01*
X170054311Y-77203714D01*
X170054310Y-77203713D01*
X170054307Y-77203707D01*
X169985858Y-77101267D01*
X169985855Y-77101263D01*
X169972273Y-77087681D01*
X169938788Y-77026358D01*
X169943772Y-76956666D01*
X169972273Y-76912319D01*
X169985855Y-76898736D01*
X169985858Y-76898733D01*
X170054311Y-76796286D01*
X170101463Y-76682452D01*
X170125500Y-76561606D01*
X170125500Y-76438394D01*
X170101463Y-76317548D01*
X170054311Y-76203714D01*
X170054310Y-76203713D01*
X170054307Y-76203707D01*
X169985858Y-76101267D01*
X169985855Y-76101263D01*
X169972273Y-76087681D01*
X169938788Y-76026358D01*
X169943772Y-75956666D01*
X169972273Y-75912319D01*
X169985855Y-75898736D01*
X169985858Y-75898733D01*
X170054311Y-75796286D01*
X170101463Y-75682452D01*
X170125500Y-75561606D01*
X170125500Y-75438394D01*
X170101463Y-75317548D01*
X170054311Y-75203714D01*
X170054310Y-75203713D01*
X170054307Y-75203707D01*
X169985858Y-75101267D01*
X169985855Y-75101263D01*
X169972273Y-75087681D01*
X169938788Y-75026358D01*
X169943772Y-74956666D01*
X169972273Y-74912319D01*
X169985855Y-74898736D01*
X169985858Y-74898733D01*
X170054311Y-74796286D01*
X170101463Y-74682452D01*
X170125500Y-74561606D01*
X170125500Y-74438394D01*
X170101463Y-74317548D01*
X170063020Y-74224739D01*
X170054312Y-74203716D01*
X170054307Y-74203707D01*
X169985858Y-74101267D01*
X169985855Y-74101263D01*
X169972273Y-74087681D01*
X169938788Y-74026358D01*
X169943772Y-73956666D01*
X169972273Y-73912319D01*
X169985855Y-73898736D01*
X169985858Y-73898733D01*
X170054311Y-73796286D01*
X170101463Y-73682452D01*
X170125500Y-73561606D01*
X170125500Y-73438394D01*
X170101463Y-73317548D01*
X170054311Y-73203714D01*
X170054310Y-73203713D01*
X170054307Y-73203707D01*
X169985858Y-73101267D01*
X169985855Y-73101263D01*
X169972273Y-73087681D01*
X169938788Y-73026358D01*
X169943772Y-72956666D01*
X169972273Y-72912319D01*
X169985855Y-72898736D01*
X169985858Y-72898733D01*
X170054311Y-72796286D01*
X170101463Y-72682452D01*
X170125500Y-72561606D01*
X170125500Y-72438394D01*
X170101463Y-72317548D01*
X170054311Y-72203714D01*
X170054310Y-72203713D01*
X170054307Y-72203707D01*
X169985858Y-72101267D01*
X169985855Y-72101263D01*
X169972273Y-72087681D01*
X169938788Y-72026358D01*
X169943772Y-71956666D01*
X169972273Y-71912319D01*
X169985855Y-71898736D01*
X169985858Y-71898733D01*
X170054311Y-71796286D01*
X170101463Y-71682452D01*
X170125500Y-71561606D01*
X170125500Y-71461556D01*
X170145185Y-71394517D01*
X170175189Y-71362290D01*
X170282187Y-71282190D01*
X170282190Y-71282187D01*
X170368350Y-71167093D01*
X170368354Y-71167086D01*
X170418596Y-71032379D01*
X170418598Y-71032372D01*
X170424999Y-70972844D01*
X170425000Y-70972827D01*
X170425000Y-70750000D01*
X169624000Y-70750000D01*
X169580538Y-70737238D01*
X169641614Y-70711940D01*
X169711940Y-70641614D01*
X169750000Y-70549728D01*
X169750000Y-70450272D01*
X169711940Y-70358386D01*
X169641614Y-70288060D01*
X169549728Y-70250000D01*
X169750000Y-70250000D01*
X170425000Y-70250000D01*
X170425000Y-70027172D01*
X170424999Y-70027155D01*
X170418598Y-69967627D01*
X170418596Y-69967620D01*
X170368354Y-69832913D01*
X170368350Y-69832906D01*
X170282190Y-69717812D01*
X170282187Y-69717809D01*
X170167093Y-69631649D01*
X170167086Y-69631645D01*
X170032379Y-69581403D01*
X170032372Y-69581401D01*
X169972844Y-69575000D01*
X169750000Y-69575000D01*
X169750000Y-70250000D01*
X169549728Y-70250000D01*
X169450272Y-70250000D01*
X169358386Y-70288060D01*
X169288060Y-70358386D01*
X169260593Y-70424696D01*
X169250000Y-70376000D01*
X169250000Y-69575000D01*
X169027155Y-69575000D01*
X168967627Y-69581401D01*
X168967620Y-69581403D01*
X168832913Y-69631645D01*
X168832906Y-69631649D01*
X168717812Y-69717809D01*
X168717809Y-69717812D01*
X168631649Y-69832906D01*
X168631643Y-69832917D01*
X168600254Y-69917074D01*
X168558383Y-69973008D01*
X168492918Y-69997424D01*
X168424645Y-69982572D01*
X168396392Y-69961421D01*
X162011047Y-63576076D01*
X161977562Y-63514753D01*
X161978952Y-63456307D01*
X162000500Y-63375892D01*
X162000500Y-63244108D01*
X161966392Y-63116814D01*
X161900500Y-63002686D01*
X161807314Y-62909500D01*
X161750250Y-62876554D01*
X161693187Y-62843608D01*
X161629539Y-62826554D01*
X161565892Y-62809500D01*
X161434108Y-62809500D01*
X161306812Y-62843608D01*
X161192686Y-62909500D01*
X161192683Y-62909502D01*
X161099502Y-63002683D01*
X161099500Y-63002686D01*
X161033608Y-63116812D01*
X161026211Y-63144419D01*
X160999500Y-63244108D01*
X160999500Y-63375892D01*
X161016554Y-63439539D01*
X161033608Y-63503187D01*
X161066554Y-63560250D01*
X161099500Y-63617314D01*
X161192686Y-63710500D01*
X161306814Y-63776392D01*
X161349314Y-63787779D01*
X161363199Y-63795796D01*
X161376648Y-63798722D01*
X161404902Y-63819873D01*
X161463967Y-63878938D01*
X161497452Y-63940261D01*
X161492468Y-64009953D01*
X161450596Y-64065886D01*
X161408381Y-64086393D01*
X161306814Y-64113608D01*
X161306812Y-64113608D01*
X161306812Y-64113609D01*
X161192686Y-64179500D01*
X161192683Y-64179502D01*
X161099502Y-64272683D01*
X161099500Y-64272686D01*
X161033608Y-64386812D01*
X160999500Y-64514108D01*
X160999500Y-64645891D01*
X161033608Y-64773187D01*
X161066554Y-64830250D01*
X161099500Y-64887314D01*
X161192686Y-64980500D01*
X161306814Y-65046392D01*
X161434108Y-65080500D01*
X161434110Y-65080500D01*
X161565891Y-65080500D01*
X161565892Y-65080500D01*
X161567429Y-65080088D01*
X161568776Y-65080120D01*
X161573949Y-65079439D01*
X161574055Y-65080245D01*
X161637279Y-65081747D01*
X161687209Y-65112180D01*
X168850681Y-72275652D01*
X168884166Y-72336975D01*
X168884618Y-72387522D01*
X168874500Y-72438393D01*
X168874500Y-72561610D01*
X168898535Y-72682444D01*
X168898538Y-72682454D01*
X168945687Y-72796283D01*
X168945692Y-72796292D01*
X169014141Y-72898732D01*
X169014144Y-72898736D01*
X169027727Y-72912319D01*
X169061212Y-72973642D01*
X169056228Y-73043334D01*
X169027727Y-73087681D01*
X169014144Y-73101263D01*
X169014141Y-73101267D01*
X168945692Y-73203707D01*
X168945687Y-73203716D01*
X168898538Y-73317545D01*
X168898535Y-73317555D01*
X168874500Y-73438389D01*
X168874500Y-73561610D01*
X168898535Y-73682444D01*
X168898538Y-73682454D01*
X168945687Y-73796283D01*
X168945692Y-73796292D01*
X169014141Y-73898732D01*
X169014144Y-73898736D01*
X169027727Y-73912319D01*
X169028065Y-73912939D01*
X169028683Y-73913285D01*
X169044793Y-73943573D01*
X169061212Y-73973642D01*
X169061161Y-73974347D01*
X169061494Y-73974972D01*
X169058672Y-74009154D01*
X169056228Y-74043334D01*
X169055784Y-74044135D01*
X169055746Y-74044605D01*
X169054266Y-74046879D01*
X169038492Y-74075394D01*
X169033510Y-74081898D01*
X169014142Y-74101267D01*
X168983112Y-74147705D01*
X168980671Y-74150894D01*
X168955579Y-74169251D01*
X168931715Y-74189196D01*
X168926968Y-74190184D01*
X168924282Y-74192150D01*
X168914759Y-74192726D01*
X168882225Y-74199500D01*
X166330438Y-74199500D01*
X166292224Y-74209739D01*
X166254009Y-74219979D01*
X166254004Y-74219982D01*
X166185495Y-74259535D01*
X166185487Y-74259541D01*
X153641848Y-86803181D01*
X153580525Y-86836666D01*
X153554167Y-86839500D01*
X151435833Y-86839500D01*
X151368794Y-86819815D01*
X151348152Y-86803181D01*
X150626819Y-86081848D01*
X150593334Y-86020525D01*
X150590500Y-85994167D01*
X150590500Y-84090439D01*
X150589761Y-84087681D01*
X150570021Y-84014011D01*
X150547395Y-83974821D01*
X150530464Y-83945495D01*
X150530458Y-83945487D01*
X150414512Y-83829541D01*
X150414507Y-83829537D01*
X150390628Y-83815751D01*
X150376014Y-83807314D01*
X150376013Y-83807313D01*
X150345994Y-83789981D01*
X150345991Y-83789979D01*
X150307775Y-83779739D01*
X150269562Y-83769500D01*
X150269560Y-83769500D01*
X148768676Y-83769500D01*
X148701637Y-83749815D01*
X148680995Y-83733181D01*
X148617316Y-83669502D01*
X148617314Y-83669500D01*
X148524629Y-83615988D01*
X148503187Y-83603608D01*
X148439539Y-83586554D01*
X148375892Y-83569500D01*
X148244108Y-83569500D01*
X148116812Y-83603608D01*
X148002686Y-83669500D01*
X148002683Y-83669502D01*
X147909502Y-83762683D01*
X147909500Y-83762686D01*
X147843608Y-83876812D01*
X147809500Y-84004108D01*
X146784300Y-84004108D01*
X146784300Y-81531574D01*
X146784300Y-81531572D01*
X146757559Y-81431771D01*
X146705898Y-81342293D01*
X146632839Y-81269234D01*
X144777708Y-79414102D01*
X144732968Y-79388271D01*
X144688230Y-79362441D01*
X144638329Y-79349070D01*
X144588429Y-79335700D01*
X144588428Y-79335700D01*
X141046456Y-79335700D01*
X141017015Y-79327055D01*
X140987029Y-79320532D01*
X140982013Y-79316777D01*
X140979417Y-79316015D01*
X140958775Y-79299381D01*
X140786121Y-79126727D01*
X140752636Y-79065404D01*
X140749802Y-79039046D01*
X140749802Y-78925164D01*
X140769487Y-78858125D01*
X140786116Y-78837488D01*
X143377911Y-76245692D01*
X143439232Y-76212209D01*
X143508924Y-76217193D01*
X143564857Y-76259065D01*
X143572977Y-76271375D01*
X143599500Y-76317314D01*
X143692686Y-76410500D01*
X143806814Y-76476392D01*
X143934108Y-76510500D01*
X143934110Y-76510500D01*
X144065890Y-76510500D01*
X144065892Y-76510500D01*
X144193186Y-76476392D01*
X144307314Y-76410500D01*
X144400500Y-76317314D01*
X144466392Y-76203186D01*
X144500500Y-76075892D01*
X144500500Y-75944108D01*
X144466392Y-75816814D01*
X144400500Y-75702686D01*
X144307314Y-75609500D01*
X144193186Y-75543608D01*
X144082338Y-75513906D01*
X144068453Y-75505890D01*
X144055009Y-75502966D01*
X144026754Y-75481816D01*
X144022162Y-75477225D01*
X144007620Y-75462682D01*
X143974134Y-75401361D01*
X143979117Y-75331669D01*
X144007619Y-75287319D01*
X144026752Y-75268186D01*
X144082337Y-75236093D01*
X144193186Y-75206392D01*
X144307314Y-75140500D01*
X144400500Y-75047314D01*
X144466392Y-74933186D01*
X144500500Y-74805892D01*
X144500500Y-74674108D01*
X144466392Y-74546814D01*
X144400500Y-74432686D01*
X144307314Y-74339500D01*
X144250250Y-74306554D01*
X144193187Y-74273608D01*
X144129539Y-74256554D01*
X144065892Y-74239500D01*
X143934108Y-74239500D01*
X143806812Y-74273608D01*
X143692686Y-74339500D01*
X143692683Y-74339502D01*
X143599502Y-74432683D01*
X143599500Y-74432686D01*
X143533608Y-74546814D01*
X143517001Y-74608794D01*
X143480636Y-74668454D01*
X143417789Y-74698983D01*
X143397226Y-74700700D01*
X143126572Y-74700700D01*
X143026767Y-74727442D01*
X143026765Y-74727443D01*
X142937299Y-74779098D01*
X142937290Y-74779104D01*
X139479606Y-78236787D01*
X139479602Y-78236793D01*
X139427942Y-78326269D01*
X139423084Y-78344400D01*
X139423067Y-78344465D01*
X139422762Y-78345607D01*
X139401202Y-78426070D01*
X138470500Y-78426070D01*
X138470500Y-73303070D01*
X138470500Y-73303068D01*
X138436392Y-73175774D01*
X138370500Y-73061646D01*
X138277314Y-72968460D01*
X136408354Y-71099500D01*
X136294226Y-71033608D01*
X136217405Y-71013024D01*
X136157745Y-70976658D01*
X136127217Y-70913811D01*
X136125500Y-70893249D01*
X136125500Y-70055249D01*
X136125499Y-70055247D01*
X136113868Y-69996770D01*
X136113867Y-69996769D01*
X136069552Y-69930447D01*
X136003230Y-69886132D01*
X136003229Y-69886131D01*
X135944752Y-69874500D01*
X135944748Y-69874500D01*
X135055252Y-69874500D01*
X135055247Y-69874500D01*
X134996770Y-69886131D01*
X134996769Y-69886132D01*
X134930447Y-69930447D01*
X134886132Y-69996769D01*
X134886131Y-69996770D01*
X134874500Y-70055247D01*
X132500500Y-70055247D01*
X132500500Y-68384108D01*
X143569500Y-68384108D01*
X143569500Y-68515892D01*
X143581814Y-68561848D01*
X143603608Y-68643187D01*
X143636554Y-68700250D01*
X143669500Y-68757314D01*
X143762686Y-68850500D01*
X143876814Y-68916392D01*
X144004108Y-68950500D01*
X144004110Y-68950500D01*
X144094167Y-68950500D01*
X144161206Y-68970185D01*
X144181848Y-68986819D01*
X151193181Y-75998152D01*
X151226666Y-76059475D01*
X151229500Y-76085833D01*
X151229500Y-79244166D01*
X151209815Y-79311205D01*
X151193181Y-79331847D01*
X149331847Y-81193181D01*
X149270524Y-81226666D01*
X149244166Y-81229500D01*
X149154108Y-81229500D01*
X149026812Y-81263608D01*
X148912686Y-81329500D01*
X148912683Y-81329502D01*
X148819502Y-81422683D01*
X148819500Y-81422686D01*
X148753608Y-81536812D01*
X148719500Y-81664108D01*
X148719500Y-81795891D01*
X148753608Y-81923187D01*
X148782739Y-81973642D01*
X148819500Y-82037314D01*
X148912686Y-82130500D01*
X149026814Y-82196392D01*
X149154108Y-82230500D01*
X149154110Y-82230500D01*
X149285890Y-82230500D01*
X149285892Y-82230500D01*
X149413186Y-82196392D01*
X149527314Y-82130500D01*
X149620500Y-82037314D01*
X149686392Y-81923186D01*
X149720500Y-81795892D01*
X149720500Y-81705832D01*
X149740185Y-81638793D01*
X149756819Y-81618151D01*
X150717412Y-80657558D01*
X151770460Y-79604511D01*
X151771511Y-79602689D01*
X151792140Y-79566961D01*
X151792143Y-79566952D01*
X151792149Y-79566944D01*
X151810021Y-79535989D01*
X151830500Y-79459562D01*
X151830500Y-75870438D01*
X151810021Y-75794011D01*
X151810017Y-75794004D01*
X151770464Y-75725495D01*
X151770458Y-75725487D01*
X144606819Y-68561848D01*
X144573334Y-68500525D01*
X144570500Y-68474167D01*
X144570500Y-68384110D01*
X144570500Y-68384108D01*
X144536392Y-68256814D01*
X144470500Y-68142686D01*
X144377314Y-68049500D01*
X144320250Y-68016554D01*
X144263187Y-67983608D01*
X144199539Y-67966554D01*
X144135892Y-67949500D01*
X144004108Y-67949500D01*
X143876812Y-67983608D01*
X143762686Y-68049500D01*
X143762683Y-68049502D01*
X143669502Y-68142683D01*
X143669500Y-68142686D01*
X143603608Y-68256812D01*
X143569500Y-68384108D01*
X132500500Y-68384108D01*
X132500500Y-62368872D01*
X135499500Y-62368872D01*
X135499500Y-62631127D01*
X135522985Y-62809500D01*
X135533730Y-62891116D01*
X135601602Y-63144418D01*
X135601605Y-63144428D01*
X135701953Y-63386690D01*
X135701958Y-63386700D01*
X135833075Y-63613803D01*
X135992718Y-63821851D01*
X135992726Y-63821860D01*
X136178140Y-64007274D01*
X136178148Y-64007281D01*
X136386196Y-64166924D01*
X136613299Y-64298041D01*
X136613309Y-64298046D01*
X136855571Y-64398394D01*
X136855581Y-64398398D01*
X137108884Y-64466270D01*
X137368880Y-64500500D01*
X137368887Y-64500500D01*
X137631113Y-64500500D01*
X137631120Y-64500500D01*
X137891116Y-64466270D01*
X138144419Y-64398398D01*
X138386697Y-64298043D01*
X138613803Y-64166924D01*
X138821851Y-64007282D01*
X138821855Y-64007277D01*
X138821860Y-64007274D01*
X139007274Y-63821860D01*
X139007277Y-63821855D01*
X139007282Y-63821851D01*
X139166924Y-63613803D01*
X139298043Y-63386697D01*
X139398398Y-63144419D01*
X139466270Y-62891116D01*
X139500500Y-62631120D01*
X139500500Y-62368880D01*
X139466270Y-62108884D01*
X139430157Y-61974108D01*
X143499500Y-61974108D01*
X143499500Y-62105891D01*
X143533608Y-62233187D01*
X143566554Y-62290250D01*
X143599500Y-62347314D01*
X143692686Y-62440500D01*
X143806814Y-62506392D01*
X143934108Y-62540500D01*
X143934110Y-62540500D01*
X144065890Y-62540500D01*
X144065892Y-62540500D01*
X144193186Y-62506392D01*
X144306199Y-62441143D01*
X144374097Y-62424671D01*
X144440124Y-62447523D01*
X144455879Y-62460850D01*
X145683181Y-63688152D01*
X145716666Y-63749475D01*
X145719500Y-63775833D01*
X145719500Y-69069562D01*
X145733152Y-69120513D01*
X145739979Y-69145990D01*
X145739982Y-69145995D01*
X145779535Y-69214504D01*
X145779541Y-69214512D01*
X156963181Y-80398152D01*
X156996666Y-80459475D01*
X156999500Y-80485833D01*
X156999500Y-80565892D01*
X157016554Y-80629539D01*
X157033608Y-80693187D01*
X157049446Y-80720619D01*
X157099500Y-80807314D01*
X157192686Y-80900500D01*
X157306814Y-80966392D01*
X157434108Y-81000500D01*
X157434110Y-81000500D01*
X157565890Y-81000500D01*
X157565892Y-81000500D01*
X157693186Y-80966392D01*
X157807314Y-80900500D01*
X157900500Y-80807314D01*
X157966392Y-80693186D01*
X158000500Y-80565892D01*
X158000500Y-80434108D01*
X157966392Y-80306814D01*
X157900500Y-80192686D01*
X157807314Y-80099500D01*
X157750250Y-80066554D01*
X157693187Y-80033608D01*
X157581376Y-80003649D01*
X157565892Y-79999500D01*
X157465833Y-79999500D01*
X157398794Y-79979815D01*
X157378152Y-79963181D01*
X146356819Y-68941848D01*
X146323334Y-68880525D01*
X146320500Y-68854167D01*
X146320500Y-63560439D01*
X146300020Y-63484009D01*
X146300017Y-63484004D01*
X146260464Y-63415495D01*
X146260458Y-63415487D01*
X145213843Y-62368872D01*
X166499500Y-62368872D01*
X166499500Y-62631127D01*
X166522985Y-62809500D01*
X166533730Y-62891116D01*
X166601602Y-63144418D01*
X166601605Y-63144428D01*
X166701953Y-63386690D01*
X166701958Y-63386700D01*
X166833075Y-63613803D01*
X166992718Y-63821851D01*
X166992726Y-63821860D01*
X167178140Y-64007274D01*
X167178148Y-64007281D01*
X167386196Y-64166924D01*
X167613299Y-64298041D01*
X167613309Y-64298046D01*
X167855571Y-64398394D01*
X167855581Y-64398398D01*
X168108884Y-64466270D01*
X168368880Y-64500500D01*
X168368887Y-64500500D01*
X168631113Y-64500500D01*
X168631120Y-64500500D01*
X168891116Y-64466270D01*
X169144419Y-64398398D01*
X169386697Y-64298043D01*
X169613803Y-64166924D01*
X169821851Y-64007282D01*
X169821855Y-64007277D01*
X169821860Y-64007274D01*
X170007274Y-63821860D01*
X170007277Y-63821855D01*
X170007282Y-63821851D01*
X170166924Y-63613803D01*
X170298043Y-63386697D01*
X170398398Y-63144419D01*
X170466270Y-62891116D01*
X170500500Y-62631120D01*
X170500500Y-62368880D01*
X170466270Y-62108884D01*
X170398398Y-61855581D01*
X170375185Y-61799540D01*
X170298046Y-61613309D01*
X170298041Y-61613299D01*
X170166924Y-61386196D01*
X170007281Y-61178148D01*
X170007274Y-61178140D01*
X169821860Y-60992726D01*
X169821851Y-60992718D01*
X169613803Y-60833075D01*
X169386700Y-60701958D01*
X169386690Y-60701953D01*
X169144428Y-60601605D01*
X169144421Y-60601603D01*
X169144419Y-60601602D01*
X168891116Y-60533730D01*
X168833339Y-60526123D01*
X168631127Y-60499500D01*
X168631120Y-60499500D01*
X168368880Y-60499500D01*
X168368872Y-60499500D01*
X168137772Y-60529926D01*
X168108884Y-60533730D01*
X167855581Y-60601602D01*
X167855571Y-60601605D01*
X167613309Y-60701953D01*
X167613299Y-60701958D01*
X167386196Y-60833075D01*
X167178148Y-60992718D01*
X166992718Y-61178148D01*
X166833075Y-61386196D01*
X166701958Y-61613299D01*
X166701953Y-61613309D01*
X166601605Y-61855571D01*
X166601602Y-61855581D01*
X166533730Y-62108885D01*
X166499500Y-62368872D01*
X145213843Y-62368872D01*
X144645759Y-61800788D01*
X144644511Y-61799540D01*
X144635066Y-61794087D01*
X144575989Y-61759979D01*
X144499562Y-61739500D01*
X144440554Y-61739500D01*
X144423190Y-61734314D01*
X144408471Y-61724758D01*
X144391637Y-61719815D01*
X144370995Y-61703181D01*
X144307316Y-61639502D01*
X144307314Y-61639500D01*
X144250250Y-61606554D01*
X144193187Y-61573608D01*
X144129539Y-61556554D01*
X144065892Y-61539500D01*
X143934108Y-61539500D01*
X143806812Y-61573608D01*
X143692686Y-61639500D01*
X143692683Y-61639502D01*
X143599502Y-61732683D01*
X143599500Y-61732686D01*
X143533608Y-61846812D01*
X143499500Y-61974108D01*
X139430157Y-61974108D01*
X139398398Y-61855581D01*
X139375185Y-61799540D01*
X139298046Y-61613309D01*
X139298041Y-61613299D01*
X139166924Y-61386196D01*
X139007281Y-61178148D01*
X139007274Y-61178140D01*
X138821860Y-60992726D01*
X138821851Y-60992718D01*
X138613803Y-60833075D01*
X138386700Y-60701958D01*
X138386690Y-60701953D01*
X138144428Y-60601605D01*
X138144421Y-60601603D01*
X138144419Y-60601602D01*
X137891116Y-60533730D01*
X137833339Y-60526123D01*
X137631127Y-60499500D01*
X137631120Y-60499500D01*
X137368880Y-60499500D01*
X137368872Y-60499500D01*
X137137772Y-60529926D01*
X137108884Y-60533730D01*
X136855581Y-60601602D01*
X136855571Y-60601605D01*
X136613309Y-60701953D01*
X136613299Y-60701958D01*
X136386196Y-60833075D01*
X136178148Y-60992718D01*
X135992718Y-61178148D01*
X135833075Y-61386196D01*
X135701958Y-61613299D01*
X135701953Y-61613309D01*
X135601605Y-61855571D01*
X135601602Y-61855581D01*
X135533730Y-62108885D01*
X135499500Y-62368872D01*
X132500500Y-62368872D01*
X132500500Y-59550862D01*
X132520185Y-59483823D01*
X132536819Y-59463181D01*
X133953681Y-58046319D01*
X134015004Y-58012834D01*
X134041362Y-58010000D01*
X171958638Y-58010000D01*
X172025677Y-58029685D01*
G37*
%TD.AperFunction*%
%TD*%
M02*
