%TF.GenerationSoftware,KiCad,Pcbnew,10.0.1*%
%TF.CreationDate,2026-05-11T19:38:50+02:00*%
%TF.ProjectId,esp32s3_adc_mini,65737033-3273-4335-9f61-64635f6d696e,rev?*%
%TF.SameCoordinates,Original*%
%TF.FileFunction,Copper,L1,Top*%
%TF.FilePolarity,Positive*%
%FSLAX46Y46*%
G04 Gerber Fmt 4.6, Leading zero omitted, Abs format (unit mm)*
G04 Created by KiCad (PCBNEW 10.0.1) date 2026-05-11 19:38:50*
%MOMM*%
%LPD*%
G01*
G04 APERTURE LIST*
G04 Aperture macros list*
%AMRoundRect*
0 Rectangle with rounded corners*
0 $1 Rounding radius*
0 $2 $3 $4 $5 $6 $7 $8 $9 X,Y pos of 4 corners*
0 Add a 4 corners polygon primitive as box body*
4,1,4,$2,$3,$4,$5,$6,$7,$8,$9,$2,$3,0*
0 Add four circle primitives for the rounded corners*
1,1,$1+$1,$2,$3*
1,1,$1+$1,$4,$5*
1,1,$1+$1,$6,$7*
1,1,$1+$1,$8,$9*
0 Add four rect primitives between the rounded corners*
20,1,$1+$1,$2,$3,$4,$5,0*
20,1,$1+$1,$4,$5,$6,$7,0*
20,1,$1+$1,$6,$7,$8,$9,0*
20,1,$1+$1,$8,$9,$2,$3,0*%
G04 Aperture macros list end*
%TA.AperFunction,SMDPad,CuDef*%
%ADD10RoundRect,0.150000X0.150000X-0.512500X0.150000X0.512500X-0.150000X0.512500X-0.150000X-0.512500X0*%
%TD*%
%TA.AperFunction,SMDPad,CuDef*%
%ADD11RoundRect,0.135000X-0.185000X0.135000X-0.185000X-0.135000X0.185000X-0.135000X0.185000X0.135000X0*%
%TD*%
%TA.AperFunction,SMDPad,CuDef*%
%ADD12RoundRect,0.250000X-0.250000X-0.475000X0.250000X-0.475000X0.250000X0.475000X-0.250000X0.475000X0*%
%TD*%
%TA.AperFunction,SMDPad,CuDef*%
%ADD13RoundRect,0.135000X-0.135000X-0.185000X0.135000X-0.185000X0.135000X0.185000X-0.135000X0.185000X0*%
%TD*%
%TA.AperFunction,ComponentPad*%
%ADD14C,1.000000*%
%TD*%
%TA.AperFunction,SMDPad,CuDef*%
%ADD15R,3.000000X1.500000*%
%TD*%
%TA.AperFunction,SMDPad,CuDef*%
%ADD16R,1.700000X0.900000*%
%TD*%
%TA.AperFunction,ComponentPad*%
%ADD17R,0.850000X0.850000*%
%TD*%
%TA.AperFunction,ComponentPad*%
%ADD18C,0.850000*%
%TD*%
%TA.AperFunction,SMDPad,CuDef*%
%ADD19RoundRect,0.250000X0.475000X-0.250000X0.475000X0.250000X-0.475000X0.250000X-0.475000X-0.250000X0*%
%TD*%
%TA.AperFunction,SMDPad,CuDef*%
%ADD20RoundRect,0.135000X0.135000X0.185000X-0.135000X0.185000X-0.135000X-0.185000X0.135000X-0.185000X0*%
%TD*%
%TA.AperFunction,SMDPad,CuDef*%
%ADD21RoundRect,0.250000X0.250000X0.475000X-0.250000X0.475000X-0.250000X-0.475000X0.250000X-0.475000X0*%
%TD*%
%TA.AperFunction,SMDPad,CuDef*%
%ADD22RoundRect,0.150000X-0.150000X-0.470000X0.150000X-0.470000X0.150000X0.470000X-0.150000X0.470000X0*%
%TD*%
%TA.AperFunction,SMDPad,CuDef*%
%ADD23RoundRect,0.075000X-0.075000X-0.545000X0.075000X-0.545000X0.075000X0.545000X-0.075000X0.545000X0*%
%TD*%
%TA.AperFunction,ComponentPad*%
%ADD24O,1.000000X2.100000*%
%TD*%
%TA.AperFunction,ComponentPad*%
%ADD25O,1.000000X1.800000*%
%TD*%
%TA.AperFunction,SMDPad,CuDef*%
%ADD26RoundRect,0.250000X-0.475000X0.250000X-0.475000X-0.250000X0.475000X-0.250000X0.475000X0.250000X0*%
%TD*%
%TA.AperFunction,SMDPad,CuDef*%
%ADD27RoundRect,0.135000X0.185000X-0.135000X0.185000X0.135000X-0.185000X0.135000X-0.185000X-0.135000X0*%
%TD*%
%TA.AperFunction,SMDPad,CuDef*%
%ADD28RoundRect,0.125000X0.125000X0.225000X-0.125000X0.225000X-0.125000X-0.225000X0.125000X-0.225000X0*%
%TD*%
%TA.AperFunction,SMDPad,CuDef*%
%ADD29R,0.400000X1.700000*%
%TD*%
%TA.AperFunction,SMDPad,CuDef*%
%ADD30R,1.500000X0.900000*%
%TD*%
%TA.AperFunction,SMDPad,CuDef*%
%ADD31R,0.900000X1.500000*%
%TD*%
%TA.AperFunction,HeatsinkPad*%
%ADD32C,0.600000*%
%TD*%
%TA.AperFunction,HeatsinkPad*%
%ADD33R,3.900000X3.900000*%
%TD*%
%TA.AperFunction,ViaPad*%
%ADD34C,0.600000*%
%TD*%
%TA.AperFunction,Conductor*%
%ADD35C,0.200000*%
%TD*%
%TA.AperFunction,Conductor*%
%ADD36C,0.152400*%
%TD*%
%TA.AperFunction,Conductor*%
%ADD37C,0.400000*%
%TD*%
%TA.AperFunction,Conductor*%
%ADD38C,0.127000*%
%TD*%
%TA.AperFunction,Conductor*%
%ADD39C,0.600000*%
%TD*%
%TA.AperFunction,Conductor*%
%ADD40C,0.150000*%
%TD*%
G04 APERTURE END LIST*
D10*
%TO.P,U1,1,I/O1_1*%
%TO.N,/USB_ENTRY/D-*%
X147800000Y-98948750D03*
%TO.P,U1,2,GND_2*%
%TO.N,GND*%
X148750000Y-98948750D03*
%TO.P,U1,3,I/O2_3*%
%TO.N,/USB_ENTRY/D+*%
X149700000Y-98948750D03*
%TO.P,U1,4,I/O2_4*%
%TO.N,USB_D+*%
X149700000Y-96673750D03*
%TO.P,U1,5,VBUS_5*%
%TO.N,unconnected-(U1-VBUS-Pad5)*%
X148750000Y-96673750D03*
%TO.P,U1,6,I/O1_6*%
%TO.N,USB_D-*%
X147800000Y-96673750D03*
%TD*%
D11*
%TO.P,R10,1*%
%TO.N,Net-(U4-FMT)*%
X150650000Y-93170000D03*
%TO.P,R10,2*%
%TO.N,GND*%
X150650000Y-94190000D03*
%TD*%
D12*
%TO.P,C14,1*%
%TO.N,Net-(U4-VREF)*%
X154050000Y-85330000D03*
%TO.P,C14,2*%
%TO.N,GND*%
X155950000Y-85330000D03*
%TD*%
D13*
%TO.P,R6,1*%
%TO.N,+3V3*%
X159740000Y-85230000D03*
%TO.P,R6,2*%
%TO.N,Net-(R6-Pad2)*%
X160760000Y-85230000D03*
%TD*%
D14*
%TO.P,CN1,*%
%TO.N,*%
X160000000Y-107292500D03*
X160000000Y-100292500D03*
D15*
%TO.P,CN1,1,1_1*%
%TO.N,GND*%
X163500000Y-97392500D03*
%TO.P,CN1,2,2_2*%
X156500000Y-105792500D03*
%TO.P,CN1,3,3_3*%
%TO.N,LINE-IN-R*%
X156500000Y-102792500D03*
%TO.P,CN1,4,4_4*%
%TO.N,LINE-IN-L*%
X156500000Y-98792500D03*
%TD*%
D16*
%TO.P,SW2,1,1_1*%
%TO.N,GND*%
X163000000Y-89130000D03*
%TO.P,SW2,2,2_2*%
%TO.N,Net-(R6-Pad2)*%
X163000000Y-85730000D03*
%TD*%
D10*
%TO.P,U3,1,VIN_1*%
%TO.N,+5V*%
X142350000Y-88155000D03*
%TO.P,U3,2,GND_2*%
%TO.N,GND*%
X143300000Y-88155000D03*
%TO.P,U3,3,EN_3*%
%TO.N,+5V*%
X144250000Y-88155000D03*
%TO.P,U3,4,NC_4*%
%TO.N,unconnected-(U3-NC-Pad4)*%
X144250000Y-85880000D03*
%TO.P,U3,5,VOUT_5*%
%TO.N,+3V3*%
X142350000Y-85880000D03*
%TD*%
D17*
%TO.P,J4,1,Pin_1_1*%
%TO.N,+3V3*%
X135500000Y-70500000D03*
D18*
%TO.P,J4,2,Pin_2_2*%
X135500000Y-71500000D03*
%TO.P,J4,3,Pin_3_3*%
%TO.N,EN*%
X135500000Y-72500000D03*
%TO.P,J4,4,Pin_4_4*%
%TO.N,IO4*%
X135500000Y-73500000D03*
%TO.P,J4,5,Pin_5_5*%
%TO.N,IO5*%
X135500000Y-74500000D03*
%TO.P,J4,6,Pin_6_6*%
%TO.N,IO6*%
X135500000Y-75500000D03*
%TO.P,J4,7,Pin_7_7*%
%TO.N,IO7*%
X135500000Y-76500000D03*
%TO.P,J4,8,Pin_8_8*%
%TO.N,DOUT*%
X135500000Y-77500000D03*
%TO.P,J4,9,Pin_9_9*%
%TO.N,IO16*%
X135500000Y-78500000D03*
%TO.P,J4,10,Pin_10_10*%
%TO.N,unconnected-(J4-Pin_10-Pad10)*%
X135500000Y-79500000D03*
%TO.P,J4,11,Pin_11_11*%
%TO.N,BCK*%
X135500000Y-80500000D03*
%TO.P,J4,12,Pin_12_12*%
%TO.N,IO8*%
X135500000Y-81500000D03*
%TO.P,J4,13,Pin_13_13*%
%TO.N,unconnected-(J4-Pin_13-Pad13)*%
X135500000Y-82500000D03*
%TO.P,J4,14,Pin_14_14*%
%TO.N,unconnected-(J4-Pin_14-Pad14)*%
X135500000Y-83500000D03*
%TO.P,J4,15,Pin_15_15*%
%TO.N,unconnected-(J4-Pin_15-Pad15)*%
X135500000Y-84500000D03*
%TO.P,J4,16,Pin_16_16*%
%TO.N,unconnected-(J4-Pin_16-Pad16)*%
X135500000Y-85500000D03*
%TO.P,J4,17,Pin_17_17*%
%TO.N,unconnected-(J4-Pin_17-Pad17)*%
X135500000Y-86500000D03*
%TO.P,J4,18,Pin_18_18*%
%TO.N,unconnected-(J4-Pin_18-Pad18)*%
X135500000Y-87500000D03*
%TO.P,J4,19,Pin_19_19*%
%TO.N,unconnected-(J4-Pin_19-Pad19)*%
X135500000Y-88500000D03*
%TO.P,J4,20,Pin_20_20*%
%TO.N,unconnected-(J4-Pin_20-Pad20)*%
X135500000Y-89500000D03*
%TO.P,J4,21,Pin_21_21*%
%TO.N,+5V*%
X135500000Y-90500000D03*
%TO.P,J4,22,Pin_22_22*%
%TO.N,GND*%
X135500000Y-91500000D03*
%TD*%
D19*
%TO.P,C17,1*%
%TO.N,Net-(U4-VINL)*%
X155510000Y-95880000D03*
%TO.P,C17,2*%
%TO.N,LINE-IN-L*%
X155510000Y-93980000D03*
%TD*%
D13*
%TO.P,R4,1*%
%TO.N,+3V3*%
X159740000Y-91230000D03*
%TO.P,R4,2*%
%TO.N,Net-(R4-Pad2)*%
X160760000Y-91230000D03*
%TD*%
D12*
%TO.P,C4,1*%
%TO.N,+3V3*%
X142350000Y-83655000D03*
%TO.P,C4,2*%
%TO.N,GND*%
X144250000Y-83655000D03*
%TD*%
D19*
%TO.P,C15,1*%
%TO.N,+5V*%
X153000000Y-82830000D03*
%TO.P,C15,2*%
%TO.N,GND*%
X153000000Y-80930000D03*
%TD*%
D20*
%TO.P,R5,1*%
%TO.N,Net-(R4-Pad2)*%
X160760000Y-92230000D03*
%TO.P,R5,2*%
%TO.N,EN*%
X159740000Y-92230000D03*
%TD*%
D11*
%TO.P,R8,1*%
%TO.N,Net-(U4-MD0)*%
X148500000Y-93170000D03*
%TO.P,R8,2*%
%TO.N,GND*%
X148500000Y-94190000D03*
%TD*%
D21*
%TO.P,C1,1*%
%TO.N,VBUS*%
X144200000Y-98155000D03*
%TO.P,C1,2*%
%TO.N,GND*%
X142300000Y-98155000D03*
%TD*%
D16*
%TO.P,SW1,1,1_1*%
%TO.N,GND*%
X163000000Y-94930000D03*
%TO.P,SW1,2,2_2*%
%TO.N,Net-(R4-Pad2)*%
X163000000Y-91530000D03*
%TD*%
D11*
%TO.P,R9,1*%
%TO.N,Net-(U4-MD1)*%
X149570000Y-93170000D03*
%TO.P,R9,2*%
%TO.N,GND*%
X149570000Y-94190000D03*
%TD*%
D19*
%TO.P,C12,1*%
%TO.N,+3V3*%
X148000000Y-82830000D03*
%TO.P,C12,2*%
%TO.N,GND*%
X148000000Y-80930000D03*
%TD*%
D22*
%TO.P,J1,A1,GND_A1*%
%TO.N,GND*%
X145050000Y-102430000D03*
%TO.P,J1,A4,VBUS_A4*%
%TO.N,VBUS*%
X145850000Y-102430000D03*
D23*
%TO.P,J1,A5,CC1_A5*%
%TO.N,Net-(J1-CC1)*%
X147000000Y-102430000D03*
%TO.P,J1,A6,D+_A6*%
%TO.N,/USB_ENTRY/D+*%
X148000000Y-102430000D03*
%TO.P,J1,A7,D-_A7*%
%TO.N,/USB_ENTRY/D-*%
X148500000Y-102430000D03*
%TO.P,J1,A8,SBU1_A8*%
%TO.N,unconnected-(J1-SBU1-PadA8)*%
X149500000Y-102430000D03*
D22*
%TO.P,J1,A9,VBUS_A9*%
%TO.N,VBUS*%
X150650000Y-102430000D03*
%TO.P,J1,A12,GND_A12*%
%TO.N,GND*%
X151450000Y-102430000D03*
%TO.P,J1,B1,GND_B1*%
X151450000Y-102430000D03*
%TO.P,J1,B4,VBUS_B4*%
%TO.N,VBUS*%
X150650000Y-102430000D03*
D23*
%TO.P,J1,B5,CC2_B5*%
%TO.N,Net-(J1-CC2)*%
X150000000Y-102430000D03*
%TO.P,J1,B6,D+_B6*%
%TO.N,/USB_ENTRY/D+*%
X149000000Y-102430000D03*
%TO.P,J1,B7,D-_B7*%
%TO.N,/USB_ENTRY/D-*%
X147500000Y-102430000D03*
%TO.P,J1,B8,SBU2_B8*%
%TO.N,unconnected-(J1-SBU2-PadB8)*%
X146500000Y-102430000D03*
D22*
%TO.P,J1,B9,VBUS_B9*%
%TO.N,VBUS*%
X145850000Y-102430000D03*
%TO.P,J1,B12,GND_B12*%
%TO.N,GND*%
X145050000Y-102430000D03*
D24*
%TO.P,J1,SH,SHIELD_SH*%
X143930000Y-103030000D03*
D25*
X143930000Y-107230000D03*
D24*
X152570000Y-103030000D03*
D25*
X152570000Y-107230000D03*
%TD*%
D26*
%TO.P,C8,1*%
%TO.N,IO0*%
X160000000Y-87780000D03*
%TO.P,C8,2*%
%TO.N,GND*%
X160000000Y-89680000D03*
%TD*%
D27*
%TO.P,R2,1*%
%TO.N,Net-(J1-CC1)*%
X146100000Y-100415000D03*
%TO.P,R2,2*%
%TO.N,GND*%
X146100000Y-99395000D03*
%TD*%
D20*
%TO.P,R7,1*%
%TO.N,Net-(R6-Pad2)*%
X160760000Y-86230000D03*
%TO.P,R7,2*%
%TO.N,IO0*%
X159740000Y-86230000D03*
%TD*%
D28*
%TO.P,D1,1,K_1*%
%TO.N,VBUS*%
X144250000Y-100155000D03*
%TO.P,D1,2,A_2*%
%TO.N,GND*%
X143450000Y-100155000D03*
%TD*%
D27*
%TO.P,R1,1*%
%TO.N,Net-(J1-CC2)*%
X150980000Y-100800000D03*
%TO.P,R1,2*%
%TO.N,GND*%
X150980000Y-99780000D03*
%TD*%
D20*
%TO.P,R3,1*%
%TO.N,VBUS*%
X143760000Y-95655000D03*
%TO.P,R3,2*%
%TO.N,+5V*%
X142740000Y-95655000D03*
%TD*%
D19*
%TO.P,C16,1*%
%TO.N,Net-(U4-VINR)*%
X152500000Y-95880000D03*
%TO.P,C16,2*%
%TO.N,LINE-IN-R*%
X152500000Y-93980000D03*
%TD*%
D29*
%TO.P,U4,1,VREF_1*%
%TO.N,Net-(U4-VREF)*%
X151950000Y-85530000D03*
%TO.P,U4,2,AGND_2*%
%TO.N,GND*%
X151300000Y-85530000D03*
%TO.P,U4,3,VCC_3*%
%TO.N,+5V*%
X150650000Y-85530000D03*
%TO.P,U4,4,VDD_4*%
%TO.N,+3V3*%
X150000000Y-85530000D03*
%TO.P,U4,5,DGND_5*%
%TO.N,GND*%
X149350000Y-85530000D03*
%TO.P,U4,6,SCKI_6*%
%TO.N,SCKI*%
X148700000Y-85530000D03*
%TO.P,U4,7,LRCK_7*%
%TO.N,LRCK*%
X148050000Y-85530000D03*
%TO.P,U4,8,BCK_8*%
%TO.N,BCK*%
X148050000Y-91130000D03*
%TO.P,U4,9,DOUT_9*%
%TO.N,DOUT*%
X148700000Y-91130000D03*
%TO.P,U4,10,MD0_10*%
%TO.N,Net-(U4-MD0)*%
X149350000Y-91130000D03*
%TO.P,U4,11,MD1_11*%
%TO.N,Net-(U4-MD1)*%
X150000000Y-91130000D03*
%TO.P,U4,12,FMT_12*%
%TO.N,Net-(U4-FMT)*%
X150650000Y-91130000D03*
%TO.P,U4,13,VINL_13*%
%TO.N,Net-(U4-VINL)*%
X151300000Y-91130000D03*
%TO.P,U4,14,VINR_14*%
%TO.N,Net-(U4-VINR)*%
X151950000Y-91130000D03*
%TD*%
D12*
%TO.P,C2,1*%
%TO.N,+5V*%
X142350000Y-93155000D03*
%TO.P,C2,2*%
%TO.N,GND*%
X144250000Y-93155000D03*
%TD*%
D30*
%TO.P,U2,1,GND_1*%
%TO.N,GND*%
X143980000Y-59500000D03*
%TO.P,U2,2,3V3_2*%
%TO.N,+3V3*%
X143980000Y-60770000D03*
%TO.P,U2,3,EN_3*%
%TO.N,EN*%
X143980000Y-62040000D03*
%TO.P,U2,4,IO4_4*%
%TO.N,IO4*%
X143980000Y-63310000D03*
%TO.P,U2,5,IO5_5*%
%TO.N,IO5*%
X143980000Y-64580000D03*
%TO.P,U2,6,IO6_6*%
%TO.N,IO6*%
X143980000Y-65850000D03*
%TO.P,U2,7,IO7_7*%
%TO.N,IO7*%
X143980000Y-67120000D03*
%TO.P,U2,8,IO15_8*%
%TO.N,DOUT*%
X143980000Y-68390000D03*
%TO.P,U2,9,IO16_9*%
%TO.N,IO16*%
X143980000Y-69660000D03*
%TO.P,U2,10,IO17_10*%
%TO.N,BCK*%
X143980000Y-70930000D03*
%TO.P,U2,11,IO18_11*%
%TO.N,IO18*%
X143980000Y-72200000D03*
%TO.P,U2,12,IO8_12*%
%TO.N,IO8*%
X143980000Y-73470000D03*
%TO.P,U2,13,USB_D-_13*%
%TO.N,USB_D-*%
X143980000Y-74740000D03*
%TO.P,U2,14,USB_D+_14*%
%TO.N,USB_D+*%
X143980000Y-76010000D03*
D31*
%TO.P,U2,15,IO3_15*%
%TO.N,IO3*%
X145745000Y-77260000D03*
%TO.P,U2,16,IO46_16*%
%TO.N,IO46*%
X147015000Y-77260000D03*
%TO.P,U2,17,IO9_17*%
%TO.N,IO9*%
X148285000Y-77260000D03*
%TO.P,U2,18,IO10_18*%
%TO.N,IO10*%
X149555000Y-77260000D03*
%TO.P,U2,19,IO11_19*%
%TO.N,IO11*%
X150825000Y-77260000D03*
%TO.P,U2,20,IO12_20*%
%TO.N,IO12*%
X152095000Y-77260000D03*
%TO.P,U2,21,IO13_21*%
%TO.N,IO13*%
X153365000Y-77260000D03*
%TO.P,U2,22,IO14_22*%
%TO.N,IO14*%
X154635000Y-77260000D03*
%TO.P,U2,23,IO21_23*%
%TO.N,IO21*%
X155905000Y-77260000D03*
%TO.P,U2,24,IO47_24*%
%TO.N,LRCK*%
X157175000Y-77260000D03*
%TO.P,U2,25,IO48_25*%
%TO.N,IO48*%
X158445000Y-77260000D03*
%TO.P,U2,26,IO45_26*%
%TO.N,IO45*%
X159715000Y-77260000D03*
D30*
%TO.P,U2,27,IO0_27*%
%TO.N,IO0*%
X161480000Y-76010000D03*
%TO.P,U2,28,IO35_28*%
%TO.N,IO35*%
X161480000Y-74740000D03*
%TO.P,U2,29,IO36_29*%
%TO.N,IO36*%
X161480000Y-73470000D03*
%TO.P,U2,30,IO37_30*%
%TO.N,IO37*%
X161480000Y-72200000D03*
%TO.P,U2,31,IO38_31*%
%TO.N,IO38*%
X161480000Y-70930000D03*
%TO.P,U2,32,IO39_32*%
%TO.N,IO39*%
X161480000Y-69660000D03*
%TO.P,U2,33,IO40_33*%
%TO.N,IO40*%
X161480000Y-68390000D03*
%TO.P,U2,34,IO41_34*%
%TO.N,IO41*%
X161480000Y-67120000D03*
%TO.P,U2,35,IO42_35*%
%TO.N,IO42*%
X161480000Y-65850000D03*
%TO.P,U2,36,RXD0_36*%
%TO.N,RXD0*%
X161480000Y-64580000D03*
%TO.P,U2,37,TXD0_37*%
%TO.N,TXD0*%
X161480000Y-63310000D03*
%TO.P,U2,38,IO2_38*%
%TO.N,SCKI*%
X161480000Y-62040000D03*
%TO.P,U2,39,IO1_39*%
%TO.N,IO1*%
X161480000Y-60770000D03*
%TO.P,U2,40,GND_40*%
%TO.N,GND*%
X161480000Y-59500000D03*
D32*
%TO.P,U2,41,GND_41*%
X149830000Y-66520000D03*
X149830000Y-67920000D03*
X150530000Y-65820000D03*
X150530000Y-67220000D03*
X150530000Y-68620000D03*
X151230000Y-66520000D03*
D33*
X151230000Y-67220000D03*
D32*
X151230000Y-67920000D03*
X151930000Y-65820000D03*
X151930000Y-67220000D03*
X151930000Y-68620000D03*
X152630000Y-66520000D03*
X152630000Y-67920000D03*
%TD*%
D21*
%TO.P,C5,1*%
%TO.N,+3V3*%
X135920000Y-67548000D03*
%TO.P,C5,2*%
%TO.N,GND*%
X134020000Y-67548000D03*
%TD*%
D17*
%TO.P,J5,1,Pin_1_1*%
%TO.N,GND*%
X169500000Y-70500000D03*
D18*
%TO.P,J5,2,Pin_2_2*%
%TO.N,TXD0*%
X169500000Y-71500000D03*
%TO.P,J5,3,Pin_3_3*%
%TO.N,RXD0*%
X169500000Y-72500000D03*
%TO.P,J5,4,Pin_4_4*%
%TO.N,IO1*%
X169500000Y-73500000D03*
%TO.P,J5,5,Pin_5_5*%
%TO.N,SCKI*%
X169500000Y-74500000D03*
%TO.P,J5,6,Pin_6_6*%
%TO.N,IO42*%
X169500000Y-75500000D03*
%TO.P,J5,7,Pin_7_7*%
%TO.N,IO41*%
X169500000Y-76500000D03*
%TO.P,J5,8,Pin_8_8*%
%TO.N,IO40*%
X169500000Y-77500000D03*
%TO.P,J5,9,Pin_9_9*%
%TO.N,IO39*%
X169500000Y-78500000D03*
%TO.P,J5,10,Pin_10_10*%
%TO.N,IO38*%
X169500000Y-79500000D03*
%TO.P,J5,11,Pin_11_11*%
%TO.N,IO37*%
X169500000Y-80500000D03*
%TO.P,J5,12,Pin_12_12*%
%TO.N,IO36*%
X169500000Y-81500000D03*
%TO.P,J5,13,Pin_13_13*%
%TO.N,IO35*%
X169500000Y-82500000D03*
%TO.P,J5,14,Pin_14_14*%
%TO.N,IO0*%
X169500000Y-83500000D03*
%TO.P,J5,15,Pin_15_15*%
%TO.N,IO45*%
X169500000Y-84500000D03*
%TO.P,J5,16,Pin_16_16*%
%TO.N,IO48*%
X169500000Y-85500000D03*
%TO.P,J5,17,Pin_17_17*%
%TO.N,LRCK*%
X169500000Y-86500000D03*
%TO.P,J5,18,Pin_18_18*%
%TO.N,IO21*%
X169500000Y-87500000D03*
%TO.P,J5,19,Pin_19_19*%
%TO.N,unconnected-(J5-Pin_19-Pad19)*%
X169500000Y-88500000D03*
%TO.P,J5,20,Pin_20_20*%
%TO.N,unconnected-(J5-Pin_20-Pad20)*%
X169500000Y-89500000D03*
%TO.P,J5,21,Pin_21_21*%
%TO.N,GND*%
X169500000Y-90500000D03*
%TO.P,J5,22,Pin_22_22*%
X169500000Y-91500000D03*
%TD*%
D26*
%TO.P,C13,1*%
%TO.N,+5V*%
X150500000Y-80930000D03*
%TO.P,C13,2*%
%TO.N,GND*%
X150500000Y-82830000D03*
%TD*%
%TO.P,C7,1*%
%TO.N,EN*%
X160000000Y-93730000D03*
%TO.P,C7,2*%
%TO.N,GND*%
X160000000Y-95630000D03*
%TD*%
D12*
%TO.P,C3,1*%
%TO.N,+5V*%
X142350000Y-90655000D03*
%TO.P,C3,2*%
%TO.N,GND*%
X144250000Y-90655000D03*
%TD*%
D21*
%TO.P,C6,1*%
%TO.N,+3V3*%
X139920000Y-67548000D03*
%TO.P,C6,2*%
%TO.N,GND*%
X138020000Y-67548000D03*
%TD*%
D34*
%TO.N,GND*%
X143300000Y-88155000D03*
X150500000Y-82830000D03*
X151450000Y-102430000D03*
X148750000Y-98948750D03*
X144250000Y-83655000D03*
X148000000Y-80930000D03*
X144250000Y-90655000D03*
X142300000Y-98155000D03*
X149350000Y-85530000D03*
X151300000Y-85530000D03*
X145050000Y-102430000D03*
X160000000Y-89680000D03*
%TO.N,USB_D+*%
X144000000Y-76010000D03*
X149700000Y-96673750D03*
%TO.N,USB_D-*%
X144000000Y-74740000D03*
X147800000Y-96673750D03*
%TO.N,+3V3*%
X142350000Y-83730000D03*
%TO.N,+5V*%
X142350000Y-88155000D03*
X144250000Y-88155000D03*
%TO.N,EN*%
X157500000Y-80500000D03*
X144000000Y-62040000D03*
%TO.N,DOUT*%
X144070000Y-68450000D03*
X149220000Y-81730000D03*
%TO.N,BCK*%
X138760000Y-96618500D03*
X145350000Y-95300000D03*
%TO.N,IO0*%
X160000000Y-87780000D03*
%TO.N,SCKI*%
X148310000Y-84070000D03*
%TO.N,RXD0*%
X161500000Y-64580000D03*
%TO.N,TXD0*%
X161500000Y-63310000D03*
%TD*%
%TO.N,/USB_ENTRY/D-*%
D35*
X147767590Y-101510000D02*
X148232410Y-101510000D01*
X148232410Y-101510000D02*
X148500000Y-101777590D01*
D36*
X148546800Y-100689301D02*
X148546800Y-101453199D01*
X148500000Y-101499999D02*
X148500000Y-102430000D01*
X147800000Y-99942501D02*
X148546800Y-100689301D01*
D35*
X147500000Y-102430000D02*
X147500000Y-101777590D01*
D36*
X147800000Y-98948750D02*
X147800000Y-99942501D01*
D35*
X147500000Y-101777590D02*
X147767590Y-101510000D01*
X148500000Y-101777590D02*
X148500000Y-102430000D01*
D36*
X148546800Y-101453199D02*
X148500000Y-101499999D01*
%TO.N,/USB_ENTRY/D+*%
D35*
X148000000Y-102430000D02*
X148000000Y-103082410D01*
D36*
X148953200Y-101453199D02*
X149000000Y-101499999D01*
D35*
X149000000Y-103082410D02*
X149000000Y-102430000D01*
D36*
X148953200Y-100689301D02*
X148953200Y-101453199D01*
X149000000Y-101499999D02*
X149000000Y-102430000D01*
D35*
X148732410Y-103350000D02*
X149000000Y-103082410D01*
X148000000Y-103082410D02*
X148267590Y-103350000D01*
D36*
X149700000Y-98948750D02*
X149700000Y-99942501D01*
D35*
X148267590Y-103350000D02*
X148732410Y-103350000D01*
D36*
X149700000Y-99942501D02*
X148953200Y-100689301D01*
%TO.N,Net-(U4-FMT)*%
D35*
X150650000Y-93170000D02*
X150650000Y-91130000D01*
%TO.N,Net-(U4-VREF)*%
X151950000Y-85530000D02*
X153850000Y-85530000D01*
X153850000Y-85530000D02*
X154050000Y-85330000D01*
%TO.N,+3V3*%
X157450000Y-88680000D02*
X156320000Y-88680000D01*
D37*
X150000000Y-84105000D02*
X148725000Y-82830000D01*
D38*
X140730000Y-64790000D02*
X140730000Y-65290000D01*
X140730000Y-65290000D02*
X139920000Y-66100000D01*
D35*
X159740000Y-91230000D02*
X159740000Y-90970000D01*
D38*
X141480000Y-62480000D02*
X141480000Y-63630000D01*
D35*
X150000000Y-86530000D02*
X150000000Y-85530000D01*
D38*
X141110000Y-64000000D02*
X141110000Y-64410000D01*
D35*
X135920000Y-69980000D02*
X135920000Y-67548000D01*
X135968000Y-67596000D02*
X135920000Y-67548000D01*
X137182000Y-68810000D02*
X135920000Y-67548000D01*
D39*
X142350000Y-85880000D02*
X142350000Y-83730000D01*
D35*
X159740000Y-85230000D02*
X156320000Y-88650000D01*
D37*
X143674938Y-82330062D02*
X142350000Y-83655000D01*
X150000000Y-85530000D02*
X150000000Y-84105000D01*
D38*
X139920000Y-66100000D02*
X139920000Y-67548000D01*
D37*
X147500062Y-82330062D02*
X143674938Y-82330062D01*
D35*
X135500000Y-70500000D02*
X135500000Y-70400000D01*
D38*
X143980000Y-60770000D02*
X143980000Y-61326500D01*
X141110000Y-64410000D02*
X140730000Y-64790000D01*
D39*
X142350000Y-83730000D02*
X142350000Y-83655000D01*
D38*
X143980000Y-61326500D02*
X142633500Y-61326500D01*
D35*
X135500000Y-70400000D02*
X135920000Y-69980000D01*
X138658000Y-68810000D02*
X137182000Y-68810000D01*
X156320000Y-88650000D02*
X156320000Y-88680000D01*
X135500000Y-71500000D02*
X135500000Y-70500000D01*
X139920000Y-67548000D02*
X138658000Y-68810000D01*
D37*
X148725000Y-82830000D02*
X148000000Y-82830000D01*
D35*
X156320000Y-88680000D02*
X152150000Y-88680000D01*
D38*
X142633500Y-61326500D02*
X141480000Y-62480000D01*
D37*
X148000000Y-82830000D02*
X147500062Y-82330062D01*
D35*
X159740000Y-90970000D02*
X157450000Y-88680000D01*
X152150000Y-88680000D02*
X150000000Y-86530000D01*
D38*
X141480000Y-63630000D02*
X141110000Y-64000000D01*
%TO.N,Net-(R6-Pad2)*%
X160760000Y-85970000D02*
X161000000Y-85730000D01*
D35*
X163000000Y-85730000D02*
X161000000Y-85730000D01*
D38*
X160760000Y-86230000D02*
X160760000Y-85970000D01*
X160760000Y-85230000D02*
X160760000Y-85490000D01*
X160760000Y-85490000D02*
X161000000Y-85730000D01*
%TO.N,LINE-IN-R*%
D35*
X156500000Y-102792500D02*
X155662500Y-102792500D01*
X153700000Y-95180000D02*
X152500000Y-93980000D01*
X153700000Y-100830000D02*
X153700000Y-95180000D01*
X155662500Y-102792500D02*
X153700000Y-100830000D01*
%TO.N,LINE-IN-L*%
X156500000Y-98792500D02*
X156500000Y-94970000D01*
X156500000Y-94970000D02*
X155510000Y-93980000D01*
%TO.N,+5V*%
D37*
X150650000Y-84480000D02*
X152300000Y-82830000D01*
X150650000Y-85530000D02*
X150650000Y-84480000D01*
D39*
X142350000Y-93155000D02*
X142350000Y-90655000D01*
X142350000Y-88155000D02*
X138125000Y-83930000D01*
X142195000Y-90500000D02*
X135500000Y-90500000D01*
D37*
X152300000Y-82830000D02*
X153000000Y-82830000D01*
D39*
X149500000Y-79930000D02*
X150500000Y-80930000D01*
X142350000Y-90655000D02*
X142350000Y-88155000D01*
X142350000Y-90655000D02*
X142195000Y-90500000D01*
X142337500Y-95655000D02*
X142337500Y-93167500D01*
X142125000Y-79930000D02*
X149500000Y-79930000D01*
X142337500Y-93167500D02*
X142350000Y-93155000D01*
D37*
X152400000Y-82830000D02*
X150500000Y-80930000D01*
X153000000Y-82830000D02*
X152400000Y-82830000D01*
D39*
X138125000Y-83930000D02*
X142125000Y-79930000D01*
%TO.N,EN*%
D35*
X163270000Y-93730000D02*
X160000000Y-93730000D01*
X157500000Y-80500000D02*
X161500000Y-84500000D01*
D38*
X142966500Y-62596500D02*
X143523000Y-62040000D01*
D35*
X143616000Y-62040000D02*
X144000000Y-62040000D01*
D38*
X159740000Y-93470000D02*
X160000000Y-93730000D01*
X141520000Y-64726500D02*
X142966500Y-63280000D01*
X141520000Y-68037654D02*
X141520000Y-64726500D01*
X140500000Y-70880000D02*
X140500000Y-69057654D01*
X135500000Y-72500000D02*
X138880000Y-72500000D01*
D35*
X165000000Y-85830000D02*
X165000000Y-92000000D01*
X163670000Y-84500000D02*
X165000000Y-85830000D01*
D38*
X159740000Y-92230000D02*
X159740000Y-93470000D01*
X142966500Y-63280000D02*
X142966500Y-62596500D01*
X143523000Y-62040000D02*
X143980000Y-62040000D01*
D35*
X161500000Y-84500000D02*
X163670000Y-84500000D01*
D38*
X138880000Y-72500000D02*
X140500000Y-70880000D01*
X143980000Y-62040000D02*
X143616000Y-62040000D01*
D35*
X165000000Y-92000000D02*
X163270000Y-93730000D01*
D38*
X140500000Y-69057654D02*
X141520000Y-68037654D01*
%TO.N,IO4*%
X143523000Y-63310000D02*
X143980000Y-63310000D01*
D40*
X141858500Y-68177866D02*
X141858500Y-64951500D01*
X140838500Y-69197866D02*
X141858500Y-68177866D01*
X143500000Y-63310000D02*
X143980000Y-63310000D01*
X135500000Y-73500000D02*
X138480000Y-73500000D01*
X141858500Y-64951500D02*
X143500000Y-63310000D01*
X140838500Y-71141500D02*
X140838500Y-69197866D01*
X138480000Y-73500000D02*
X140838500Y-71141500D01*
%TO.N,IO5*%
X143980000Y-64580000D02*
X143360000Y-64580000D01*
X143360000Y-64580000D02*
X142255000Y-65685000D01*
X141188500Y-69342840D02*
X141188500Y-71511500D01*
X142255000Y-68276340D02*
X141188500Y-69342840D01*
X141188500Y-71511500D02*
X138200000Y-74500000D01*
D35*
X143700000Y-64580000D02*
X144000000Y-64580000D01*
D40*
X138200000Y-74500000D02*
X135500000Y-74500000D01*
X142255000Y-65685000D02*
X142255000Y-68276340D01*
%TO.N,IO6*%
X135500000Y-75500000D02*
X136005025Y-75500000D01*
X136005025Y-75500000D02*
X136055026Y-75450000D01*
X138010000Y-75450000D02*
X141538500Y-71921500D01*
X141538500Y-71921500D02*
X141538500Y-69487814D01*
X136055026Y-75450000D02*
X138010000Y-75450000D01*
X142605000Y-66745000D02*
X143500000Y-65850000D01*
X143500000Y-65850000D02*
X143980000Y-65850000D01*
X142605000Y-68421314D02*
X142605000Y-66745000D01*
X141538500Y-69487814D02*
X142605000Y-68421314D01*
%TO.N,IO7*%
X141850000Y-72290000D02*
X138340000Y-75800000D01*
X143350000Y-67120000D02*
X142955000Y-67515000D01*
X142955000Y-67515000D02*
X142955000Y-68566288D01*
X141850000Y-69671288D02*
X141850000Y-72290000D01*
X142955000Y-68566288D02*
X141850000Y-69671288D01*
D35*
X135500000Y-76500000D02*
X135775000Y-76225000D01*
D40*
X138340000Y-75800000D02*
X136200000Y-75800000D01*
X143980000Y-67120000D02*
X143350000Y-67120000D01*
D35*
X135775000Y-76225000D02*
X135800305Y-76225000D01*
D40*
X136200000Y-75800000D02*
X135500000Y-76500000D01*
%TO.N,DOUT*%
D35*
X142009448Y-86842500D02*
X141403052Y-86236104D01*
X146515552Y-86842500D02*
X142009448Y-86842500D01*
D38*
X137280000Y-77500000D02*
X142140000Y-72640000D01*
D35*
X141403052Y-86236104D02*
X141403052Y-81959524D01*
X141632576Y-81730000D02*
X149220000Y-81730000D01*
X143616000Y-68390000D02*
X144000000Y-68390000D01*
X141403052Y-81959524D02*
X141632576Y-81730000D01*
D38*
X142140000Y-72640000D02*
X142140000Y-69860000D01*
X144090000Y-68500000D02*
X143980000Y-68390000D01*
D35*
X148700000Y-89026948D02*
X146515552Y-86842500D01*
D38*
X135500000Y-77500000D02*
X137280000Y-77500000D01*
D35*
X148700000Y-91130000D02*
X148700000Y-89026948D01*
D38*
X143610000Y-68390000D02*
X143980000Y-68390000D01*
X142140000Y-69860000D02*
X143610000Y-68390000D01*
%TO.N,IO16*%
D40*
X142800000Y-69660000D02*
X143980000Y-69660000D01*
D35*
X143616000Y-69660000D02*
X144000000Y-69660000D01*
D40*
X142428500Y-73001500D02*
X142428500Y-70031500D01*
X136930000Y-78500000D02*
X142428500Y-73001500D01*
X135500000Y-78500000D02*
X136930000Y-78500000D01*
X142428500Y-70031500D02*
X142800000Y-69660000D01*
%TO.N,BCK*%
D38*
X138760000Y-96618500D02*
X135233756Y-96618500D01*
D35*
X142800000Y-73200000D02*
X142800000Y-71250000D01*
X135500000Y-80500000D02*
X142800000Y-73200000D01*
D38*
X134050000Y-80500000D02*
X135500000Y-80500000D01*
X135233756Y-96618500D02*
X134000000Y-95384744D01*
D35*
X143120000Y-70930000D02*
X144000000Y-70930000D01*
X142800000Y-71250000D02*
X143120000Y-70930000D01*
D38*
X134000000Y-95384744D02*
X134000000Y-80550000D01*
X148050000Y-91130000D02*
X148050000Y-92600000D01*
X148050000Y-92600000D02*
X145350000Y-95300000D01*
X134000000Y-80550000D02*
X134050000Y-80500000D01*
%TO.N,IO8*%
D35*
X143530000Y-73470000D02*
X144000000Y-73470000D01*
X135500000Y-81500000D02*
X143530000Y-73470000D01*
%TO.N,Net-(U4-VINL)*%
X154558000Y-94928000D02*
X154558000Y-94537744D01*
X154558000Y-92234000D02*
X152284000Y-89960000D01*
X154558000Y-93422256D02*
X154558000Y-92234000D01*
X152284000Y-89960000D02*
X151420000Y-89960000D01*
X155510000Y-95880000D02*
X154558000Y-94928000D01*
X154485000Y-94464744D02*
X154485000Y-93495256D01*
X151420000Y-89960000D02*
X151300000Y-90080000D01*
X154558000Y-94537744D02*
X154485000Y-94464744D01*
X151300000Y-90080000D02*
X151300000Y-91130000D01*
X154485000Y-93495256D02*
X154558000Y-93422256D01*
%TO.N,Net-(R4-Pad2)*%
D38*
X160760000Y-92230000D02*
X160760000Y-91230000D01*
X160760000Y-91230000D02*
X162700000Y-91230000D01*
X162700000Y-91230000D02*
X163000000Y-91530000D01*
%TO.N,Net-(U4-MD0)*%
X149350000Y-92320000D02*
X148500000Y-93170000D01*
X149350000Y-91130000D02*
X149350000Y-92320000D01*
%TO.N,VBUS*%
D35*
X149382410Y-104200000D02*
X146964594Y-104200000D01*
X146964594Y-104200000D02*
X145850000Y-103085406D01*
X145850000Y-103085406D02*
X145850000Y-102430000D01*
D39*
X144200000Y-100105000D02*
X144250000Y-100155000D01*
X144200000Y-95692500D02*
X144162500Y-95655000D01*
D35*
X145850000Y-102430000D02*
X145850000Y-101755000D01*
D39*
X144200000Y-98155000D02*
X144200000Y-95692500D01*
X144250000Y-98205000D02*
X144200000Y-98155000D01*
X144200000Y-98155000D02*
X144200000Y-100105000D01*
D35*
X150650000Y-102932410D02*
X149382410Y-104200000D01*
X150650000Y-102430000D02*
X150650000Y-102932410D01*
X145850000Y-101755000D02*
X144250000Y-100155000D01*
%TO.N,Net-(U4-MD1)*%
D38*
X150000000Y-92670000D02*
X149570000Y-93100000D01*
X150000000Y-91130000D02*
X150000000Y-92670000D01*
X149570000Y-93100000D02*
X149570000Y-93170000D01*
%TO.N,Net-(J1-CC1)*%
X147000000Y-101055000D02*
X147000000Y-102430000D01*
X147000000Y-101055000D02*
X146740000Y-101055000D01*
X146740000Y-101055000D02*
X146100000Y-100415000D01*
%TO.N,Net-(J1-CC2)*%
X150000000Y-102430000D02*
X150000000Y-101780000D01*
X150000000Y-101780000D02*
X150980000Y-100800000D01*
%TO.N,IO0*%
D35*
X162010000Y-76010000D02*
X169500000Y-83500000D01*
D40*
X159740000Y-87520000D02*
X160000000Y-87780000D01*
D35*
X161500000Y-76010000D02*
X162010000Y-76010000D01*
D40*
X159740000Y-86230000D02*
X159740000Y-87520000D01*
%TO.N,Net-(U4-VINR)*%
D35*
X151310000Y-94690000D02*
X151310000Y-92820000D01*
X151310000Y-92820000D02*
X151950000Y-92180000D01*
X151950000Y-92180000D02*
X151950000Y-91130000D01*
X152500000Y-95880000D02*
X151310000Y-94690000D01*
%TO.N,SCKI*%
X169500000Y-74225000D02*
X169199695Y-74225000D01*
X163000000Y-62500000D02*
X162540000Y-62040000D01*
X167340000Y-68410000D02*
X163000000Y-64070000D01*
X168775000Y-73365991D02*
X168080000Y-72670990D01*
X169500000Y-74500000D02*
X169500000Y-74225000D01*
X168080000Y-72025686D02*
X167340000Y-71285686D01*
X148700000Y-85530000D02*
X148700000Y-84460000D01*
X168080000Y-72670990D02*
X168080000Y-72025686D01*
X168775000Y-73800305D02*
X168775000Y-73365991D01*
X163000000Y-64070000D02*
X163000000Y-62500000D01*
X162540000Y-62040000D02*
X161500000Y-62040000D01*
X167340000Y-71285686D02*
X167340000Y-68410000D01*
X169199695Y-74225000D02*
X168775000Y-73800305D01*
X148700000Y-84460000D02*
X148310000Y-84070000D01*
%TO.N,LRCK*%
X158799315Y-78900000D02*
X161900000Y-78900000D01*
X169199695Y-86225000D02*
X169225000Y-86225000D01*
X157695000Y-78310000D02*
X158565000Y-78310000D01*
X150600000Y-89080000D02*
X152119744Y-89080000D01*
X165580000Y-100440000D02*
X171180000Y-94840000D01*
X161900000Y-78900000D02*
X168775000Y-85775000D01*
X158565000Y-78310000D02*
X158565000Y-78665685D01*
X168775000Y-85775000D02*
X168775000Y-85800305D01*
X157695000Y-77260000D02*
X157695000Y-78310000D01*
X158565000Y-78665685D02*
X158799315Y-78900000D01*
X157820000Y-94780256D02*
X157820000Y-96310000D01*
X168775000Y-85800305D02*
X169199695Y-86225000D01*
X171180000Y-87578960D02*
X170101040Y-86500000D01*
X161950000Y-100440000D02*
X165580000Y-100440000D01*
X171180000Y-94840000D02*
X171180000Y-87578960D01*
X169225000Y-86225000D02*
X169500000Y-86500000D01*
X157195000Y-77260000D02*
X157695000Y-77260000D01*
X157820000Y-96310000D02*
X161950000Y-100440000D01*
X170101040Y-86500000D02*
X169500000Y-86500000D01*
X148050000Y-85530000D02*
X148050000Y-86530000D01*
X152119744Y-89080000D02*
X157820000Y-94780256D01*
X148050000Y-86530000D02*
X150600000Y-89080000D01*
%TO.N,IO3*%
X145740000Y-77260000D02*
X145765000Y-77260000D01*
%TO.N,IO21*%
X169199695Y-87225000D02*
X169225000Y-87225000D01*
X157529315Y-78710000D02*
X158165000Y-78710000D01*
X155925000Y-77260000D02*
X156425000Y-77260000D01*
X158633630Y-79300000D02*
X161300000Y-79300000D01*
X157295000Y-78475685D02*
X157529315Y-78710000D01*
X168775000Y-86775000D02*
X168775000Y-86800305D01*
X168775000Y-86800305D02*
X169199695Y-87225000D01*
X158165000Y-78831371D02*
X158633630Y-79300000D01*
X156425000Y-77260000D02*
X156425000Y-78310000D01*
X161300000Y-79300000D02*
X168775000Y-86775000D01*
X158165000Y-78710000D02*
X158165000Y-78831371D01*
X169225000Y-87225000D02*
X169500000Y-87500000D01*
X156425000Y-78310000D02*
X157295000Y-78310000D01*
X157295000Y-78310000D02*
X157295000Y-78475685D01*
%TO.N,IO48*%
X168775000Y-84800305D02*
X169199695Y-85225000D01*
X169225000Y-85225000D02*
X169500000Y-85500000D01*
X169199695Y-85225000D02*
X169225000Y-85225000D01*
X158965000Y-78500000D02*
X162500000Y-78500000D01*
X162500000Y-78500000D02*
X168775000Y-84775000D01*
X158965000Y-77780000D02*
X158445000Y-77260000D01*
X168775000Y-84775000D02*
X168775000Y-84800305D01*
X158965000Y-78500000D02*
X158965000Y-77780000D01*
X158465000Y-77260000D02*
X158445000Y-77260000D01*
%TO.N,IO45*%
X159735000Y-77260000D02*
X162260000Y-77260000D01*
X162260000Y-77260000D02*
X169500000Y-84500000D01*
%TO.N,IO35*%
X169500000Y-82500000D02*
X169380000Y-82500000D01*
X162660000Y-75790000D02*
X162660000Y-75370000D01*
X161780000Y-74740000D02*
X161480000Y-74740000D01*
X162660000Y-75370000D02*
X162150000Y-74860000D01*
X161900000Y-74860000D02*
X161780000Y-74740000D01*
X162670000Y-75790000D02*
X162660000Y-75790000D01*
X169380000Y-82500000D02*
X162670000Y-75790000D01*
X162150000Y-74860000D02*
X161900000Y-74860000D01*
%TO.N,IO36*%
X162610000Y-74170000D02*
X162610000Y-74610000D01*
X161930000Y-73490000D02*
X162610000Y-74170000D01*
X161510000Y-73490000D02*
X161930000Y-73490000D01*
X162610000Y-74610000D02*
X169500000Y-81500000D01*
X161500000Y-73500000D02*
X161510000Y-73490000D01*
%TO.N,IO37*%
X162970000Y-73970000D02*
X162970000Y-72920000D01*
X169500000Y-80500000D02*
X162970000Y-73970000D01*
X162250000Y-72200000D02*
X161500000Y-72200000D01*
X162970000Y-72920000D02*
X162250000Y-72200000D01*
%TO.N,IO38*%
X162530000Y-71660000D02*
X162530000Y-71450000D01*
X167625000Y-77155330D02*
X167625000Y-76755000D01*
X169225000Y-79225000D02*
X169199695Y-79225000D01*
X169199695Y-79225000D02*
X168775000Y-78800305D01*
X162530000Y-71450000D02*
X162010000Y-70930000D01*
X169500000Y-79500000D02*
X169225000Y-79225000D01*
X167625000Y-76755000D02*
X162530000Y-71660000D01*
X162010000Y-70930000D02*
X161480000Y-70930000D01*
X168775000Y-78800305D02*
X168775000Y-78305330D01*
X168775000Y-78305330D02*
X167625000Y-77155330D01*
%TO.N,IO39*%
D40*
X168000000Y-77000000D02*
X169500000Y-78500000D01*
X168000000Y-75700000D02*
X168000000Y-77000000D01*
X161960000Y-69660000D02*
X168000000Y-75700000D01*
X161480000Y-69660000D02*
X161960000Y-69660000D01*
%TO.N,IO40*%
D35*
X161884000Y-68390000D02*
X161500000Y-68390000D01*
X167975000Y-75131676D02*
X167975000Y-74697363D01*
X168775000Y-76365991D02*
X168375000Y-75965990D01*
X169500000Y-77500000D02*
X169500000Y-77225000D01*
X169500000Y-77225000D02*
X169199695Y-77225000D01*
X167975000Y-74697363D02*
X167575000Y-74297362D01*
X169199695Y-77225000D02*
X168775000Y-76800305D01*
X167575000Y-74081000D02*
X161884000Y-68390000D01*
X168375000Y-75531677D02*
X167975000Y-75131676D01*
X168775000Y-76800305D02*
X168775000Y-76365991D01*
X167575000Y-74297362D02*
X167575000Y-74081000D01*
X168375000Y-75965990D02*
X168375000Y-75531677D01*
%TO.N,IO41*%
X169500000Y-76225000D02*
X169500000Y-76500000D01*
X167280000Y-73002362D02*
X167975000Y-73697363D01*
X161884000Y-67120000D02*
X167280000Y-72516000D01*
X168775000Y-75365991D02*
X168775000Y-75800305D01*
X169199695Y-76225000D02*
X169500000Y-76225000D01*
X167280000Y-72516000D02*
X167280000Y-73002362D01*
X168375000Y-74965991D02*
X168775000Y-75365991D01*
X167975000Y-73697363D02*
X167975000Y-74131677D01*
X168375000Y-74531677D02*
X168375000Y-74965991D01*
X161500000Y-67120000D02*
X161884000Y-67120000D01*
X168775000Y-75800305D02*
X169199695Y-76225000D01*
X167975000Y-74131677D02*
X168375000Y-74531677D01*
%TO.N,IO42*%
X167680000Y-72191372D02*
X167680000Y-72836676D01*
X169199695Y-75225000D02*
X169500000Y-75225000D01*
X168775000Y-74800305D02*
X169199695Y-75225000D01*
X168375000Y-73965991D02*
X168775000Y-74365991D01*
X161500000Y-65850000D02*
X161890000Y-65850000D01*
X167680000Y-72836676D02*
X168375000Y-73531677D01*
X161890000Y-65850000D02*
X166130000Y-70090000D01*
X166130000Y-70641372D02*
X167680000Y-72191372D01*
X166130000Y-70090000D02*
X166130000Y-70641372D01*
X168375000Y-73531677D02*
X168375000Y-73965991D01*
X169500000Y-75225000D02*
X169500000Y-75500000D01*
X168775000Y-74365991D02*
X168775000Y-74800305D01*
%TO.N,IO1*%
X163530000Y-62107552D02*
X163000000Y-61577552D01*
X168480000Y-72505305D02*
X168480000Y-71860000D01*
X167890000Y-71270000D02*
X167890000Y-68210000D01*
X169500000Y-73500000D02*
X169225000Y-73225000D01*
X168480000Y-71860000D02*
X167890000Y-71270000D01*
X169225000Y-73225000D02*
X169199695Y-73225000D01*
X163000000Y-61577552D02*
X163000000Y-61000000D01*
X167890000Y-68210000D02*
X163530000Y-63850000D01*
X163000000Y-61000000D02*
X162770000Y-60770000D01*
X169199695Y-73225000D02*
X168480000Y-72505305D01*
X162770000Y-60770000D02*
X161500000Y-60770000D01*
X163530000Y-63850000D02*
X163530000Y-62107552D01*
%TD*%
%TA.AperFunction,Conductor*%
%TO.N,GND*%
G36*
X142948834Y-74578650D02*
G01*
X143004767Y-74620522D01*
X143029184Y-74685986D01*
X143029500Y-74694832D01*
X143029500Y-75209752D01*
X143041131Y-75268229D01*
X143041132Y-75268230D01*
X143066442Y-75306109D01*
X143087320Y-75372787D01*
X143068835Y-75440167D01*
X143066442Y-75443891D01*
X143041132Y-75481769D01*
X143041131Y-75481770D01*
X143029500Y-75540247D01*
X143029500Y-76479752D01*
X143041131Y-76538229D01*
X143041132Y-76538230D01*
X143085447Y-76604552D01*
X143151769Y-76648867D01*
X143151770Y-76648868D01*
X143210247Y-76660499D01*
X143210250Y-76660500D01*
X143210252Y-76660500D01*
X144749750Y-76660500D01*
X144749751Y-76660499D01*
X144764568Y-76657552D01*
X144808229Y-76648868D01*
X144808229Y-76648867D01*
X144808231Y-76648867D01*
X144874552Y-76604552D01*
X144874553Y-76604551D01*
X144882819Y-76596286D01*
X144944142Y-76562801D01*
X145013834Y-76567785D01*
X145069767Y-76609657D01*
X145094184Y-76675121D01*
X145094500Y-76683967D01*
X145094500Y-78029752D01*
X145106131Y-78088229D01*
X145106132Y-78088230D01*
X145150447Y-78154552D01*
X145216769Y-78198867D01*
X145216770Y-78198868D01*
X145275247Y-78210499D01*
X145275250Y-78210500D01*
X145275252Y-78210500D01*
X146214750Y-78210500D01*
X146214751Y-78210499D01*
X146229568Y-78207552D01*
X146273229Y-78198868D01*
X146273231Y-78198867D01*
X146311108Y-78173558D01*
X146377785Y-78152679D01*
X146445165Y-78171163D01*
X146448892Y-78173558D01*
X146486768Y-78198867D01*
X146486770Y-78198868D01*
X146545247Y-78210499D01*
X146545250Y-78210500D01*
X146545252Y-78210500D01*
X147484750Y-78210500D01*
X147484751Y-78210499D01*
X147499568Y-78207552D01*
X147543229Y-78198868D01*
X147543231Y-78198867D01*
X147581108Y-78173558D01*
X147647785Y-78152679D01*
X147715165Y-78171163D01*
X147718892Y-78173558D01*
X147756768Y-78198867D01*
X147756770Y-78198868D01*
X147815247Y-78210499D01*
X147815250Y-78210500D01*
X147815252Y-78210500D01*
X148754750Y-78210500D01*
X148754751Y-78210499D01*
X148769568Y-78207552D01*
X148813229Y-78198868D01*
X148813231Y-78198867D01*
X148851108Y-78173558D01*
X148917785Y-78152679D01*
X148985165Y-78171163D01*
X148988892Y-78173558D01*
X149026768Y-78198867D01*
X149026770Y-78198868D01*
X149085247Y-78210499D01*
X149085250Y-78210500D01*
X149085252Y-78210500D01*
X150024750Y-78210500D01*
X150024751Y-78210499D01*
X150039568Y-78207552D01*
X150083229Y-78198868D01*
X150083231Y-78198867D01*
X150121108Y-78173558D01*
X150187785Y-78152679D01*
X150255165Y-78171163D01*
X150258892Y-78173558D01*
X150296768Y-78198867D01*
X150296770Y-78198868D01*
X150355247Y-78210499D01*
X150355250Y-78210500D01*
X150355252Y-78210500D01*
X151294750Y-78210500D01*
X151294751Y-78210499D01*
X151309568Y-78207552D01*
X151353229Y-78198868D01*
X151353231Y-78198867D01*
X151391108Y-78173558D01*
X151457785Y-78152679D01*
X151525165Y-78171163D01*
X151528892Y-78173558D01*
X151566768Y-78198867D01*
X151566770Y-78198868D01*
X151625247Y-78210499D01*
X151625250Y-78210500D01*
X151625252Y-78210500D01*
X152564750Y-78210500D01*
X152564751Y-78210499D01*
X152579568Y-78207552D01*
X152623229Y-78198868D01*
X152623231Y-78198867D01*
X152661108Y-78173558D01*
X152727785Y-78152679D01*
X152795165Y-78171163D01*
X152798892Y-78173558D01*
X152836768Y-78198867D01*
X152836770Y-78198868D01*
X152895247Y-78210499D01*
X152895250Y-78210500D01*
X152895252Y-78210500D01*
X153834750Y-78210500D01*
X153834751Y-78210499D01*
X153849568Y-78207552D01*
X153893229Y-78198868D01*
X153893231Y-78198867D01*
X153931108Y-78173558D01*
X153997785Y-78152679D01*
X154065165Y-78171163D01*
X154068892Y-78173558D01*
X154106768Y-78198867D01*
X154106770Y-78198868D01*
X154165247Y-78210499D01*
X154165250Y-78210500D01*
X154165252Y-78210500D01*
X155104750Y-78210500D01*
X155104751Y-78210499D01*
X155119568Y-78207552D01*
X155163229Y-78198868D01*
X155163231Y-78198867D01*
X155201108Y-78173558D01*
X155267785Y-78152679D01*
X155335165Y-78171163D01*
X155338892Y-78173558D01*
X155376768Y-78198867D01*
X155376770Y-78198868D01*
X155435247Y-78210499D01*
X155435250Y-78210500D01*
X155435252Y-78210500D01*
X156000500Y-78210500D01*
X156067539Y-78230185D01*
X156113294Y-78282989D01*
X156124500Y-78334500D01*
X156124500Y-78349562D01*
X156136269Y-78393482D01*
X156144979Y-78425990D01*
X156144982Y-78425995D01*
X156184535Y-78494504D01*
X156184539Y-78494509D01*
X156184540Y-78494511D01*
X156240489Y-78550460D01*
X156240491Y-78550461D01*
X156240495Y-78550464D01*
X156259796Y-78561607D01*
X156309011Y-78590021D01*
X156385438Y-78610500D01*
X156955257Y-78610500D01*
X157022296Y-78630185D01*
X157048734Y-78654507D01*
X157048793Y-78654449D01*
X157050184Y-78655840D01*
X157053631Y-78659011D01*
X157054539Y-78660194D01*
X157054540Y-78660196D01*
X157288855Y-78894511D01*
X157344804Y-78950460D01*
X157344806Y-78950461D01*
X157344810Y-78950464D01*
X157406115Y-78985858D01*
X157413326Y-78990021D01*
X157489753Y-79010500D01*
X157568877Y-79010500D01*
X157867796Y-79010500D01*
X157934835Y-79030185D01*
X157955477Y-79046819D01*
X158191933Y-79283274D01*
X158393170Y-79484511D01*
X158449119Y-79540460D01*
X158449121Y-79540461D01*
X158449125Y-79540464D01*
X158485752Y-79561610D01*
X158517641Y-79580021D01*
X158594068Y-79600500D01*
X158673192Y-79600500D01*
X161124167Y-79600500D01*
X161191206Y-79620185D01*
X161211848Y-79636819D01*
X168488429Y-86913400D01*
X168508136Y-86939083D01*
X168511950Y-86945689D01*
X168534540Y-86984816D01*
X168534542Y-86984818D01*
X168846483Y-87296759D01*
X168879968Y-87358082D01*
X168880420Y-87408628D01*
X168874500Y-87438393D01*
X168874500Y-87561610D01*
X168898535Y-87682444D01*
X168898538Y-87682454D01*
X168945687Y-87796283D01*
X168945692Y-87796292D01*
X169014141Y-87898732D01*
X169014144Y-87898736D01*
X169027727Y-87912319D01*
X169061212Y-87973642D01*
X169056228Y-88043334D01*
X169027727Y-88087681D01*
X169014144Y-88101263D01*
X169014141Y-88101267D01*
X168945692Y-88203707D01*
X168945687Y-88203716D01*
X168898538Y-88317545D01*
X168898535Y-88317555D01*
X168874500Y-88438389D01*
X168874500Y-88561610D01*
X168898535Y-88682444D01*
X168898537Y-88682452D01*
X168907246Y-88703477D01*
X168945687Y-88796283D01*
X168945692Y-88796292D01*
X169014141Y-88898732D01*
X169014144Y-88898736D01*
X169027727Y-88912319D01*
X169061212Y-88973642D01*
X169056228Y-89043334D01*
X169027727Y-89087681D01*
X169014144Y-89101263D01*
X169014141Y-89101267D01*
X168945692Y-89203707D01*
X168945687Y-89203716D01*
X168898538Y-89317545D01*
X168898535Y-89317555D01*
X168874500Y-89438389D01*
X168874500Y-89561610D01*
X168898535Y-89682444D01*
X168898538Y-89682454D01*
X168945687Y-89796283D01*
X168945692Y-89796292D01*
X169014141Y-89898732D01*
X169014144Y-89898736D01*
X169101263Y-89985855D01*
X169101267Y-89985858D01*
X169203707Y-90054307D01*
X169203713Y-90054310D01*
X169203714Y-90054311D01*
X169317548Y-90101463D01*
X169374292Y-90112749D01*
X169435858Y-90124996D01*
X169435860Y-90124996D01*
X169438394Y-90125500D01*
X169561606Y-90125500D01*
X169564140Y-90124996D01*
X169564142Y-90124996D01*
X169622690Y-90113350D01*
X169682452Y-90101463D01*
X169796286Y-90054311D01*
X169898733Y-89985858D01*
X169985858Y-89898733D01*
X170054311Y-89796286D01*
X170101463Y-89682452D01*
X170125500Y-89561606D01*
X170125500Y-89438394D01*
X170101463Y-89317548D01*
X170054311Y-89203714D01*
X170054310Y-89203713D01*
X170054307Y-89203707D01*
X169985858Y-89101267D01*
X169985855Y-89101263D01*
X169972273Y-89087681D01*
X169938788Y-89026358D01*
X169943772Y-88956666D01*
X169972273Y-88912319D01*
X169985855Y-88898736D01*
X169985858Y-88898733D01*
X170054311Y-88796286D01*
X170101463Y-88682452D01*
X170125500Y-88561606D01*
X170125500Y-88438394D01*
X170101463Y-88317548D01*
X170054311Y-88203714D01*
X170054310Y-88203713D01*
X170054307Y-88203707D01*
X169985858Y-88101267D01*
X169985855Y-88101263D01*
X169972273Y-88087681D01*
X169938788Y-88026358D01*
X169943772Y-87956666D01*
X169972273Y-87912319D01*
X169985855Y-87898736D01*
X169985858Y-87898733D01*
X170054311Y-87796286D01*
X170101463Y-87682452D01*
X170125500Y-87561606D01*
X170125500Y-87438394D01*
X170101463Y-87317548D01*
X170062727Y-87224033D01*
X170055259Y-87154566D01*
X170086534Y-87092087D01*
X170146623Y-87056434D01*
X170216448Y-87058927D01*
X170264970Y-87088901D01*
X170843181Y-87667112D01*
X170876666Y-87728435D01*
X170879500Y-87754793D01*
X170879500Y-94664167D01*
X170859815Y-94731206D01*
X170843181Y-94751848D01*
X165491848Y-100103181D01*
X165430525Y-100136666D01*
X165404167Y-100139500D01*
X162125833Y-100139500D01*
X162058794Y-100119815D01*
X162038152Y-100103181D01*
X160125315Y-98190344D01*
X161500000Y-98190344D01*
X161506401Y-98249872D01*
X161506403Y-98249879D01*
X161556645Y-98384586D01*
X161556649Y-98384593D01*
X161642809Y-98499687D01*
X161642812Y-98499690D01*
X161757906Y-98585850D01*
X161757913Y-98585854D01*
X161892620Y-98636096D01*
X161892627Y-98636098D01*
X161952155Y-98642499D01*
X161952172Y-98642500D01*
X163250000Y-98642500D01*
X163750000Y-98642500D01*
X165047828Y-98642500D01*
X165047844Y-98642499D01*
X165107372Y-98636098D01*
X165107379Y-98636096D01*
X165242086Y-98585854D01*
X165242093Y-98585850D01*
X165357187Y-98499690D01*
X165357190Y-98499687D01*
X165443350Y-98384593D01*
X165443354Y-98384586D01*
X165493596Y-98249879D01*
X165493598Y-98249872D01*
X165499999Y-98190344D01*
X165500000Y-98190327D01*
X165500000Y-97642500D01*
X163750000Y-97642500D01*
X163750000Y-98642500D01*
X163250000Y-98642500D01*
X163250000Y-97642500D01*
X161500000Y-97642500D01*
X161500000Y-98190344D01*
X160125315Y-98190344D01*
X158156819Y-96221848D01*
X158123334Y-96160525D01*
X158120500Y-96134167D01*
X158120500Y-95929986D01*
X158775001Y-95929986D01*
X158785494Y-96032697D01*
X158840641Y-96199119D01*
X158840643Y-96199124D01*
X158932684Y-96348345D01*
X159056654Y-96472315D01*
X159205875Y-96564356D01*
X159205880Y-96564358D01*
X159372302Y-96619505D01*
X159372309Y-96619506D01*
X159475019Y-96629999D01*
X159749999Y-96629999D01*
X160250000Y-96629999D01*
X160524972Y-96629999D01*
X160524986Y-96629998D01*
X160627697Y-96619505D01*
X160702689Y-96594655D01*
X161500000Y-96594655D01*
X161500000Y-97142500D01*
X163250000Y-97142500D01*
X163750000Y-97142500D01*
X165500000Y-97142500D01*
X165500000Y-96594672D01*
X165499999Y-96594655D01*
X165493598Y-96535127D01*
X165493596Y-96535120D01*
X165443354Y-96400413D01*
X165443350Y-96400406D01*
X165357190Y-96285312D01*
X165357187Y-96285309D01*
X165242093Y-96199149D01*
X165242086Y-96199145D01*
X165107379Y-96148903D01*
X165107372Y-96148901D01*
X165047844Y-96142500D01*
X163750000Y-96142500D01*
X163750000Y-97142500D01*
X163250000Y-97142500D01*
X163250000Y-96142500D01*
X161952155Y-96142500D01*
X161892627Y-96148901D01*
X161892620Y-96148903D01*
X161757913Y-96199145D01*
X161757906Y-96199149D01*
X161642812Y-96285309D01*
X161642809Y-96285312D01*
X161556649Y-96400406D01*
X161556645Y-96400413D01*
X161506403Y-96535120D01*
X161506401Y-96535127D01*
X161500000Y-96594655D01*
X160702689Y-96594655D01*
X160794119Y-96564358D01*
X160794124Y-96564356D01*
X160921464Y-96485812D01*
X160921465Y-96485811D01*
X160943343Y-96472317D01*
X161067315Y-96348345D01*
X161159356Y-96199124D01*
X161159358Y-96199119D01*
X161214505Y-96032697D01*
X161214506Y-96032690D01*
X161224999Y-95929986D01*
X161225000Y-95929973D01*
X161225000Y-95880000D01*
X160250000Y-95880000D01*
X160250000Y-96629999D01*
X159749999Y-96629999D01*
X159750000Y-96629998D01*
X159750000Y-95880000D01*
X158775001Y-95880000D01*
X158775001Y-95929986D01*
X158120500Y-95929986D01*
X158120500Y-95427844D01*
X161650000Y-95427844D01*
X161656401Y-95487372D01*
X161656403Y-95487379D01*
X161706645Y-95622086D01*
X161706649Y-95622093D01*
X161792809Y-95737187D01*
X161792812Y-95737190D01*
X161907906Y-95823350D01*
X161907913Y-95823354D01*
X162042620Y-95873596D01*
X162042627Y-95873598D01*
X162102155Y-95879999D01*
X162102172Y-95880000D01*
X162750000Y-95880000D01*
X163250000Y-95880000D01*
X163897828Y-95880000D01*
X163897844Y-95879999D01*
X163957372Y-95873598D01*
X163957379Y-95873596D01*
X164092086Y-95823354D01*
X164092093Y-95823350D01*
X164207187Y-95737190D01*
X164207190Y-95737187D01*
X164293350Y-95622093D01*
X164293354Y-95622086D01*
X164343596Y-95487379D01*
X164343598Y-95487372D01*
X164349999Y-95427844D01*
X164350000Y-95427827D01*
X164350000Y-95180000D01*
X163250000Y-95180000D01*
X163250000Y-95880000D01*
X162750000Y-95880000D01*
X162750000Y-95180000D01*
X161650000Y-95180000D01*
X161650000Y-95427844D01*
X158120500Y-95427844D01*
X158120500Y-94740695D01*
X158120500Y-94740694D01*
X158100021Y-94664267D01*
X158080119Y-94629795D01*
X158060464Y-94595751D01*
X158060458Y-94595743D01*
X152656896Y-89192181D01*
X152623411Y-89130858D01*
X152628395Y-89061166D01*
X152670267Y-89005233D01*
X152735731Y-88980816D01*
X152744577Y-88980500D01*
X156280438Y-88980500D01*
X156359562Y-88980500D01*
X157274167Y-88980500D01*
X157341206Y-89000185D01*
X157361848Y-89016819D01*
X159235708Y-90890679D01*
X159269193Y-90952002D01*
X159270966Y-90994541D01*
X159269676Y-91004352D01*
X159269500Y-91005687D01*
X159269500Y-91454314D01*
X159275931Y-91503171D01*
X159325935Y-91610404D01*
X159357850Y-91642319D01*
X159391335Y-91703642D01*
X159386351Y-91773334D01*
X159357850Y-91817681D01*
X159325935Y-91849595D01*
X159275931Y-91956828D01*
X159269500Y-92005683D01*
X159269500Y-92454316D01*
X159275931Y-92503171D01*
X159309353Y-92574843D01*
X159325935Y-92610404D01*
X159368043Y-92652512D01*
X159409596Y-92694065D01*
X159418482Y-92700287D01*
X159416855Y-92702610D01*
X159417415Y-92703103D01*
X159433203Y-92710313D01*
X159443099Y-92725711D01*
X159456836Y-92737804D01*
X159461723Y-92754691D01*
X159470977Y-92769091D01*
X159476000Y-92804026D01*
X159476000Y-92931879D01*
X159456315Y-92998918D01*
X159403511Y-93044673D01*
X159392956Y-93048920D01*
X159312117Y-93077207D01*
X159202850Y-93157850D01*
X159122207Y-93267117D01*
X159122206Y-93267119D01*
X159077353Y-93395298D01*
X159077353Y-93395300D01*
X159074500Y-93425730D01*
X159074500Y-94034269D01*
X159077353Y-94064699D01*
X159077353Y-94064701D01*
X159122206Y-94192880D01*
X159122207Y-94192882D01*
X159202850Y-94302150D01*
X159312118Y-94382793D01*
X159376033Y-94405158D01*
X159432807Y-94445878D01*
X159458555Y-94510830D01*
X159445099Y-94579392D01*
X159396712Y-94629795D01*
X159374082Y-94639904D01*
X159205878Y-94695642D01*
X159205875Y-94695643D01*
X159056654Y-94787684D01*
X158932684Y-94911654D01*
X158840643Y-95060875D01*
X158840641Y-95060880D01*
X158785494Y-95227302D01*
X158785493Y-95227309D01*
X158775000Y-95330013D01*
X158775000Y-95380000D01*
X161224999Y-95380000D01*
X161224999Y-95330028D01*
X161224998Y-95330013D01*
X161214505Y-95227302D01*
X161194736Y-95167642D01*
X161159358Y-95060880D01*
X161159356Y-95060875D01*
X161067315Y-94911654D01*
X160943345Y-94787684D01*
X160794124Y-94695643D01*
X160794119Y-94695641D01*
X160625917Y-94639905D01*
X160568472Y-94600133D01*
X160541649Y-94535617D01*
X160553964Y-94466841D01*
X160601507Y-94415641D01*
X160623966Y-94405158D01*
X160623972Y-94405156D01*
X160687882Y-94382793D01*
X160797150Y-94302150D01*
X160877793Y-94192882D01*
X160895827Y-94141341D01*
X160905555Y-94113544D01*
X160946277Y-94056769D01*
X161011230Y-94031022D01*
X161022596Y-94030500D01*
X161614192Y-94030500D01*
X161681231Y-94050185D01*
X161726986Y-94102989D01*
X161736930Y-94172147D01*
X161713460Y-94228810D01*
X161706646Y-94237911D01*
X161706645Y-94237913D01*
X161656403Y-94372620D01*
X161656401Y-94372627D01*
X161650000Y-94432155D01*
X161650000Y-94680000D01*
X164350000Y-94680000D01*
X164350000Y-94432172D01*
X164349999Y-94432155D01*
X164343598Y-94372627D01*
X164343596Y-94372620D01*
X164293354Y-94237913D01*
X164293350Y-94237906D01*
X164207190Y-94122812D01*
X164207187Y-94122809D01*
X164092093Y-94036649D01*
X164092086Y-94036645D01*
X163957379Y-93986403D01*
X163957372Y-93986401D01*
X163897844Y-93980000D01*
X163744333Y-93980000D01*
X163677294Y-93960315D01*
X163631539Y-93907511D01*
X163621595Y-93838353D01*
X163650620Y-93774797D01*
X163656652Y-93768319D01*
X165116471Y-92308500D01*
X169045050Y-92308500D01*
X169061849Y-92319725D01*
X169061855Y-92319728D01*
X169230182Y-92389451D01*
X169230194Y-92389454D01*
X169408890Y-92424999D01*
X169408894Y-92425000D01*
X169591106Y-92425000D01*
X169591109Y-92424999D01*
X169769805Y-92389454D01*
X169769813Y-92389452D01*
X169938151Y-92319724D01*
X169938154Y-92319723D01*
X169954947Y-92308500D01*
X169954948Y-92308500D01*
X169500001Y-91853553D01*
X169500000Y-91853553D01*
X169045050Y-92308500D01*
X165116471Y-92308500D01*
X165238407Y-92186564D01*
X165240460Y-92184511D01*
X165244515Y-92177487D01*
X165280021Y-92115989D01*
X165300500Y-92039562D01*
X165300500Y-90408890D01*
X168575000Y-90408890D01*
X168575000Y-90591109D01*
X168610545Y-90769805D01*
X168610547Y-90769813D01*
X168680278Y-90938159D01*
X168682092Y-90941553D01*
X168682504Y-90943533D01*
X168682606Y-90943779D01*
X168682559Y-90943798D01*
X168696331Y-91009956D01*
X168682092Y-91058447D01*
X168680278Y-91061840D01*
X168610547Y-91230186D01*
X168610545Y-91230194D01*
X168575000Y-91408890D01*
X168575000Y-91591109D01*
X168610545Y-91769805D01*
X168610548Y-91769817D01*
X168680271Y-91938145D01*
X168691498Y-91954947D01*
X169235542Y-91410904D01*
X169275298Y-91389195D01*
X169250000Y-91450272D01*
X169250000Y-91549728D01*
X169288060Y-91641614D01*
X169358386Y-91711940D01*
X169450272Y-91750000D01*
X169549728Y-91750000D01*
X169641614Y-91711940D01*
X169711940Y-91641614D01*
X169750000Y-91549728D01*
X169750000Y-91450272D01*
X169722533Y-91383961D01*
X169764457Y-91410904D01*
X170308500Y-91954948D01*
X170308500Y-91954947D01*
X170319723Y-91938154D01*
X170319724Y-91938151D01*
X170389452Y-91769813D01*
X170389454Y-91769805D01*
X170424999Y-91591109D01*
X170425000Y-91591106D01*
X170425000Y-91408894D01*
X170424999Y-91408890D01*
X170389454Y-91230194D01*
X170389451Y-91230182D01*
X170319726Y-91061851D01*
X170317915Y-91058462D01*
X170317502Y-91056479D01*
X170317394Y-91056219D01*
X170317443Y-91056198D01*
X170303667Y-90990061D01*
X170317915Y-90941538D01*
X170319726Y-90938148D01*
X170389451Y-90769817D01*
X170389454Y-90769805D01*
X170424999Y-90591109D01*
X170425000Y-90591106D01*
X170425000Y-90408894D01*
X170424999Y-90408890D01*
X170389454Y-90230194D01*
X170389451Y-90230182D01*
X170319728Y-90061855D01*
X170319725Y-90061849D01*
X170308500Y-90045050D01*
X169764457Y-90589095D01*
X169724702Y-90610802D01*
X169750000Y-90549728D01*
X169750000Y-90450272D01*
X169711940Y-90358386D01*
X169641614Y-90288060D01*
X169549728Y-90250000D01*
X169450272Y-90250000D01*
X169358386Y-90288060D01*
X169288060Y-90358386D01*
X169250000Y-90450272D01*
X169250000Y-90549728D01*
X169277466Y-90616039D01*
X169235542Y-90589095D01*
X168691498Y-90045050D01*
X168680274Y-90061848D01*
X168610547Y-90230186D01*
X168610545Y-90230194D01*
X168575000Y-90408890D01*
X165300500Y-90408890D01*
X165300500Y-85790438D01*
X165280021Y-85714011D01*
X165261802Y-85682454D01*
X165240464Y-85645495D01*
X165240458Y-85645487D01*
X163854512Y-84259541D01*
X163854507Y-84259537D01*
X163830628Y-84245751D01*
X163816014Y-84237314D01*
X163816013Y-84237313D01*
X163785994Y-84219981D01*
X163785991Y-84219979D01*
X163747775Y-84209739D01*
X163709562Y-84199500D01*
X163709560Y-84199500D01*
X161675833Y-84199500D01*
X161608794Y-84179815D01*
X161588152Y-84163181D01*
X158036819Y-80611848D01*
X158003334Y-80550525D01*
X158000500Y-80524167D01*
X158000500Y-80434110D01*
X158000500Y-80434108D01*
X157966392Y-80306814D01*
X157900500Y-80192686D01*
X157807314Y-80099500D01*
X157750250Y-80066554D01*
X157693187Y-80033608D01*
X157620537Y-80014142D01*
X157565892Y-79999500D01*
X157434108Y-79999500D01*
X157306812Y-80033608D01*
X157192686Y-80099500D01*
X157192683Y-80099502D01*
X157099502Y-80192683D01*
X157099500Y-80192686D01*
X157033608Y-80306812D01*
X157019121Y-80360880D01*
X156999500Y-80434108D01*
X156999500Y-80565892D01*
X157001805Y-80574494D01*
X157033608Y-80693187D01*
X157059088Y-80737318D01*
X157099500Y-80807314D01*
X157192686Y-80900500D01*
X157306814Y-80966392D01*
X157434108Y-81000500D01*
X157434110Y-81000500D01*
X157524167Y-81000500D01*
X157591206Y-81020185D01*
X157611848Y-81036819D01*
X161079325Y-84504296D01*
X161112810Y-84565619D01*
X161107826Y-84635311D01*
X161065954Y-84691244D01*
X161000490Y-84715661D01*
X160975460Y-84714916D01*
X160934318Y-84709500D01*
X160934316Y-84709500D01*
X160585684Y-84709500D01*
X160585683Y-84709500D01*
X160536828Y-84715931D01*
X160429595Y-84765935D01*
X160338264Y-84857267D01*
X160335440Y-84854443D01*
X160296958Y-84885183D01*
X160227458Y-84892352D01*
X160165114Y-84860808D01*
X160161901Y-84857101D01*
X160161736Y-84857267D01*
X160070404Y-84765935D01*
X160015773Y-84740460D01*
X159963173Y-84715932D01*
X159963171Y-84715931D01*
X159963172Y-84715931D01*
X159914317Y-84709500D01*
X159914316Y-84709500D01*
X159565684Y-84709500D01*
X159565683Y-84709500D01*
X159516828Y-84715931D01*
X159409595Y-84765935D01*
X159325935Y-84849595D01*
X159275931Y-84956828D01*
X159269500Y-85005683D01*
X159269500Y-85224167D01*
X159249815Y-85291206D01*
X159233181Y-85311848D01*
X156201848Y-88343181D01*
X156140525Y-88376666D01*
X156114167Y-88379500D01*
X152325833Y-88379500D01*
X152258794Y-88359815D01*
X152238152Y-88343181D01*
X150986652Y-87091681D01*
X150953167Y-87030358D01*
X150958151Y-86960666D01*
X151000023Y-86904733D01*
X151065487Y-86880316D01*
X151074333Y-86880000D01*
X151100000Y-86880000D01*
X151100000Y-85654000D01*
X151102550Y-85645314D01*
X151101262Y-85636353D01*
X151112240Y-85612312D01*
X151119685Y-85586961D01*
X151126525Y-85581033D01*
X151130287Y-85572797D01*
X151152521Y-85558507D01*
X151172489Y-85541206D01*
X151183003Y-85538918D01*
X151189065Y-85535023D01*
X151224000Y-85530000D01*
X151376000Y-85530000D01*
X151443039Y-85549685D01*
X151488794Y-85602489D01*
X151500000Y-85654000D01*
X151500000Y-86880000D01*
X151547828Y-86880000D01*
X151547844Y-86879999D01*
X151607372Y-86873598D01*
X151607379Y-86873596D01*
X151742086Y-86823354D01*
X151742093Y-86823350D01*
X151857187Y-86737190D01*
X151857190Y-86737187D01*
X151937290Y-86630189D01*
X151993223Y-86588318D01*
X152036556Y-86580500D01*
X152169750Y-86580500D01*
X152169751Y-86580499D01*
X152184568Y-86577552D01*
X152228229Y-86568868D01*
X152228229Y-86568867D01*
X152228231Y-86568867D01*
X152294552Y-86524552D01*
X152338867Y-86458231D01*
X152338867Y-86458229D01*
X152338868Y-86458229D01*
X152347552Y-86414568D01*
X152350500Y-86399748D01*
X152350500Y-85954500D01*
X152370185Y-85887461D01*
X152422989Y-85841706D01*
X152474500Y-85830500D01*
X153243656Y-85830500D01*
X153310695Y-85850185D01*
X153356450Y-85902989D01*
X153360697Y-85913544D01*
X153390950Y-86000000D01*
X153397207Y-86017882D01*
X153477850Y-86127150D01*
X153587118Y-86207793D01*
X153621944Y-86219979D01*
X153715299Y-86252646D01*
X153745730Y-86255500D01*
X153745734Y-86255500D01*
X154354270Y-86255500D01*
X154384699Y-86252646D01*
X154384701Y-86252646D01*
X154448790Y-86230219D01*
X154512882Y-86207793D01*
X154622150Y-86127150D01*
X154702793Y-86017882D01*
X154725158Y-85953964D01*
X154765877Y-85897192D01*
X154830830Y-85871444D01*
X154899392Y-85884900D01*
X154949795Y-85933287D01*
X154959904Y-85955917D01*
X155015642Y-86124121D01*
X155015643Y-86124124D01*
X155107684Y-86273345D01*
X155231654Y-86397315D01*
X155380875Y-86489356D01*
X155380880Y-86489358D01*
X155547302Y-86544505D01*
X155547309Y-86544506D01*
X155650019Y-86554999D01*
X156200000Y-86554999D01*
X156249972Y-86554999D01*
X156249986Y-86554998D01*
X156352697Y-86544505D01*
X156519119Y-86489358D01*
X156519124Y-86489356D01*
X156668345Y-86397315D01*
X156792315Y-86273345D01*
X156884356Y-86124124D01*
X156884358Y-86124119D01*
X156939505Y-85957697D01*
X156939506Y-85957690D01*
X156949999Y-85854986D01*
X156950000Y-85854973D01*
X156950000Y-85580000D01*
X156200000Y-85580000D01*
X156200000Y-86554999D01*
X155650019Y-86554999D01*
X155699999Y-86554998D01*
X155700000Y-86554998D01*
X155700000Y-85080000D01*
X156200000Y-85080000D01*
X156949999Y-85080000D01*
X156949999Y-84805028D01*
X156949998Y-84805013D01*
X156939505Y-84702302D01*
X156884358Y-84535880D01*
X156884356Y-84535875D01*
X156792315Y-84386654D01*
X156668345Y-84262684D01*
X156519124Y-84170643D01*
X156519119Y-84170641D01*
X156352697Y-84115494D01*
X156352690Y-84115493D01*
X156249986Y-84105000D01*
X156200000Y-84105000D01*
X156200000Y-85080000D01*
X155700000Y-85080000D01*
X155700000Y-84105000D01*
X155699999Y-84104999D01*
X155650029Y-84105000D01*
X155650011Y-84105001D01*
X155547302Y-84115494D01*
X155380880Y-84170641D01*
X155380875Y-84170643D01*
X155231654Y-84262684D01*
X155107684Y-84386654D01*
X155015643Y-84535875D01*
X155015641Y-84535880D01*
X154959905Y-84704082D01*
X154920132Y-84761527D01*
X154855617Y-84788350D01*
X154786841Y-84776035D01*
X154735641Y-84728492D01*
X154725158Y-84706033D01*
X154709137Y-84660249D01*
X154702793Y-84642118D01*
X154622150Y-84532850D01*
X154512882Y-84452207D01*
X154512880Y-84452206D01*
X154384700Y-84407353D01*
X154354270Y-84404500D01*
X154354266Y-84404500D01*
X153745734Y-84404500D01*
X153745730Y-84404500D01*
X153715300Y-84407353D01*
X153715298Y-84407353D01*
X153587119Y-84452206D01*
X153587117Y-84452207D01*
X153477850Y-84532850D01*
X153397207Y-84642117D01*
X153397206Y-84642119D01*
X153352353Y-84770298D01*
X153352353Y-84770300D01*
X153349500Y-84800730D01*
X153349500Y-85105500D01*
X153329815Y-85172539D01*
X153277011Y-85218294D01*
X153225500Y-85229500D01*
X152474500Y-85229500D01*
X152407461Y-85209815D01*
X152361706Y-85157011D01*
X152350500Y-85105500D01*
X152350500Y-84660249D01*
X152350499Y-84660247D01*
X152338868Y-84601770D01*
X152338867Y-84601769D01*
X152294552Y-84535447D01*
X152228230Y-84491132D01*
X152228229Y-84491131D01*
X152169752Y-84479500D01*
X152169748Y-84479500D01*
X152036556Y-84479500D01*
X151969517Y-84459815D01*
X151937290Y-84429811D01*
X151857190Y-84322812D01*
X151857187Y-84322809D01*
X151742093Y-84236649D01*
X151742087Y-84236646D01*
X151717228Y-84227374D01*
X151661294Y-84185502D01*
X151636878Y-84120037D01*
X151651730Y-84051764D01*
X151672881Y-84023511D01*
X151915392Y-83781000D01*
X152184044Y-83512347D01*
X152245365Y-83478864D01*
X152312678Y-83482989D01*
X152440299Y-83527646D01*
X152470730Y-83530500D01*
X152470734Y-83530500D01*
X153529270Y-83530500D01*
X153559699Y-83527646D01*
X153559701Y-83527646D01*
X153635706Y-83501050D01*
X153687882Y-83482793D01*
X153797150Y-83402150D01*
X153877793Y-83292882D01*
X153900219Y-83228790D01*
X153922646Y-83164701D01*
X153922646Y-83164699D01*
X153925500Y-83134269D01*
X153925500Y-82525730D01*
X153922646Y-82495300D01*
X153922646Y-82495298D01*
X153877793Y-82367119D01*
X153877792Y-82367117D01*
X153797150Y-82257850D01*
X153687882Y-82177207D01*
X153687880Y-82177206D01*
X153623967Y-82154842D01*
X153567191Y-82114120D01*
X153541444Y-82049168D01*
X153554901Y-81980606D01*
X153603288Y-81930203D01*
X153625918Y-81920095D01*
X153794119Y-81864358D01*
X153794124Y-81864356D01*
X153943345Y-81772315D01*
X154067315Y-81648345D01*
X154159356Y-81499124D01*
X154159358Y-81499119D01*
X154214505Y-81332697D01*
X154214506Y-81332690D01*
X154224999Y-81229986D01*
X154225000Y-81229973D01*
X154225000Y-81180000D01*
X151775001Y-81180000D01*
X151775001Y-81229989D01*
X151786072Y-81338359D01*
X151780910Y-81366123D01*
X151778896Y-81394294D01*
X151774609Y-81400020D01*
X151773302Y-81407052D01*
X151753947Y-81427620D01*
X151737024Y-81450227D01*
X151730323Y-81452726D01*
X151725421Y-81457936D01*
X151698017Y-81464775D01*
X151671560Y-81474644D01*
X151664571Y-81473123D01*
X151657631Y-81474856D01*
X151630879Y-81465794D01*
X151603287Y-81459792D01*
X151595128Y-81453684D01*
X151591455Y-81452440D01*
X151575033Y-81438641D01*
X151461793Y-81325401D01*
X151428308Y-81264078D01*
X151426050Y-81237165D01*
X151425500Y-81237165D01*
X151425500Y-80630013D01*
X151775000Y-80630013D01*
X151775000Y-80680000D01*
X152750000Y-80680000D01*
X153250000Y-80680000D01*
X154224999Y-80680000D01*
X154224999Y-80630028D01*
X154224998Y-80630013D01*
X154214505Y-80527302D01*
X154159358Y-80360880D01*
X154159356Y-80360875D01*
X154067315Y-80211654D01*
X153943345Y-80087684D01*
X153794124Y-79995643D01*
X153794119Y-79995641D01*
X153627697Y-79940494D01*
X153627690Y-79940493D01*
X153524986Y-79930000D01*
X153250000Y-79930000D01*
X153250000Y-80680000D01*
X152750000Y-80680000D01*
X152750000Y-79930000D01*
X152475029Y-79930000D01*
X152475012Y-79930001D01*
X152372302Y-79940494D01*
X152205880Y-79995641D01*
X152205875Y-79995643D01*
X152056654Y-80087684D01*
X151932684Y-80211654D01*
X151840643Y-80360875D01*
X151840641Y-80360880D01*
X151785494Y-80527302D01*
X151785493Y-80527309D01*
X151775000Y-80630013D01*
X151425500Y-80630013D01*
X151425500Y-80625730D01*
X151422646Y-80595300D01*
X151422646Y-80595298D01*
X151384974Y-80487641D01*
X151377793Y-80467118D01*
X151297150Y-80357850D01*
X151187882Y-80277207D01*
X151187880Y-80277206D01*
X151059700Y-80232353D01*
X151029270Y-80229500D01*
X151029266Y-80229500D01*
X150558676Y-80229500D01*
X150491637Y-80209815D01*
X150470995Y-80193181D01*
X149807316Y-79529502D01*
X149807314Y-79529500D01*
X149729391Y-79484511D01*
X149693187Y-79463608D01*
X149599081Y-79438393D01*
X149565892Y-79429500D01*
X142190892Y-79429500D01*
X142059107Y-79429500D01*
X141943644Y-79460438D01*
X141943643Y-79460438D01*
X141931816Y-79463606D01*
X141931815Y-79463607D01*
X141817689Y-79529498D01*
X141817683Y-79529502D01*
X141767169Y-79580017D01*
X141724500Y-79622686D01*
X141724498Y-79622688D01*
X139764393Y-81582793D01*
X137800245Y-83546940D01*
X137800244Y-83546940D01*
X137800245Y-83546941D01*
X137724500Y-83622686D01*
X137658608Y-83736812D01*
X137625845Y-83859087D01*
X137624500Y-83864108D01*
X137624500Y-83995892D01*
X137632663Y-84026358D01*
X137658608Y-84123187D01*
X137677130Y-84155267D01*
X137724500Y-84237314D01*
X137724501Y-84237315D01*
X141813181Y-88325994D01*
X141846666Y-88387317D01*
X141849500Y-88413675D01*
X141849500Y-89742372D01*
X141829815Y-89809411D01*
X141819410Y-89823346D01*
X141810324Y-89833882D01*
X141777850Y-89857850D01*
X141707692Y-89952911D01*
X141704620Y-89956474D01*
X141679067Y-89972983D01*
X141654833Y-89991384D01*
X141648900Y-89992475D01*
X141645934Y-89994392D01*
X141638379Y-89994410D01*
X141610710Y-89999500D01*
X136150516Y-89999500D01*
X136083477Y-89979815D01*
X136037722Y-89927011D01*
X136027778Y-89857853D01*
X136047414Y-89806609D01*
X136054307Y-89796292D01*
X136054307Y-89796291D01*
X136054311Y-89796286D01*
X136101463Y-89682452D01*
X136125500Y-89561606D01*
X136125500Y-89438394D01*
X136101463Y-89317548D01*
X136054311Y-89203714D01*
X136054310Y-89203713D01*
X136054307Y-89203707D01*
X135985858Y-89101267D01*
X135985855Y-89101263D01*
X135972273Y-89087681D01*
X135938788Y-89026358D01*
X135943772Y-88956666D01*
X135972273Y-88912319D01*
X135985855Y-88898736D01*
X135985858Y-88898733D01*
X136054311Y-88796286D01*
X136101463Y-88682452D01*
X136125500Y-88561606D01*
X136125500Y-88438394D01*
X136101463Y-88317548D01*
X136054311Y-88203714D01*
X136054310Y-88203713D01*
X136054307Y-88203707D01*
X135985858Y-88101267D01*
X135985855Y-88101263D01*
X135972273Y-88087681D01*
X135938788Y-88026358D01*
X135943772Y-87956666D01*
X135972273Y-87912319D01*
X135985855Y-87898736D01*
X135985858Y-87898733D01*
X136054311Y-87796286D01*
X136101463Y-87682452D01*
X136125500Y-87561606D01*
X136125500Y-87438394D01*
X136101463Y-87317548D01*
X136054311Y-87203714D01*
X136054310Y-87203713D01*
X136054307Y-87203707D01*
X135985858Y-87101267D01*
X135985855Y-87101263D01*
X135972273Y-87087681D01*
X135938788Y-87026358D01*
X135943772Y-86956666D01*
X135972273Y-86912319D01*
X135985855Y-86898736D01*
X135985858Y-86898733D01*
X136053389Y-86797665D01*
X136054307Y-86796292D01*
X136054307Y-86796291D01*
X136054311Y-86796286D01*
X136101463Y-86682452D01*
X136125500Y-86561606D01*
X136125500Y-86438394D01*
X136101463Y-86317548D01*
X136054311Y-86203714D01*
X136054310Y-86203713D01*
X136054307Y-86203707D01*
X135985858Y-86101267D01*
X135985855Y-86101263D01*
X135972273Y-86087681D01*
X135938788Y-86026358D01*
X135943772Y-85956666D01*
X135972273Y-85912319D01*
X135985855Y-85898736D01*
X135985858Y-85898733D01*
X136054311Y-85796286D01*
X136101463Y-85682452D01*
X136125500Y-85561606D01*
X136125500Y-85438394D01*
X136101463Y-85317548D01*
X136054311Y-85203714D01*
X136054310Y-85203713D01*
X136054307Y-85203707D01*
X135985858Y-85101267D01*
X135985855Y-85101263D01*
X135972273Y-85087681D01*
X135938788Y-85026358D01*
X135943772Y-84956666D01*
X135972273Y-84912319D01*
X135985855Y-84898736D01*
X135985858Y-84898733D01*
X136054311Y-84796286D01*
X136101463Y-84682452D01*
X136125500Y-84561606D01*
X136125500Y-84438394D01*
X136101463Y-84317548D01*
X136054311Y-84203714D01*
X136054310Y-84203713D01*
X136054307Y-84203707D01*
X135985858Y-84101267D01*
X135985855Y-84101263D01*
X135972273Y-84087681D01*
X135938788Y-84026358D01*
X135943772Y-83956666D01*
X135972273Y-83912319D01*
X135985855Y-83898736D01*
X135985858Y-83898733D01*
X136054311Y-83796286D01*
X136101463Y-83682452D01*
X136125500Y-83561606D01*
X136125500Y-83438394D01*
X136101463Y-83317548D01*
X136054311Y-83203714D01*
X136054310Y-83203713D01*
X136054307Y-83203707D01*
X135985858Y-83101267D01*
X135985855Y-83101263D01*
X135972273Y-83087681D01*
X135938788Y-83026358D01*
X135943772Y-82956666D01*
X135972273Y-82912319D01*
X135985855Y-82898736D01*
X135985858Y-82898733D01*
X136054311Y-82796286D01*
X136101463Y-82682452D01*
X136125500Y-82561606D01*
X136125500Y-82438394D01*
X136101463Y-82317548D01*
X136054311Y-82203714D01*
X136054310Y-82203713D01*
X136054307Y-82203707D01*
X135985858Y-82101267D01*
X135985855Y-82101263D01*
X135972273Y-82087681D01*
X135938788Y-82026358D01*
X135943772Y-81956666D01*
X135972273Y-81912319D01*
X135985855Y-81898736D01*
X135985858Y-81898733D01*
X136054311Y-81796286D01*
X136101463Y-81682452D01*
X136125500Y-81561606D01*
X136125500Y-81438394D01*
X136115381Y-81387523D01*
X136121607Y-81317935D01*
X136149315Y-81275654D01*
X142817821Y-74607149D01*
X142879142Y-74573666D01*
X142948834Y-74578650D01*
G37*
%TD.AperFunction*%
%TA.AperFunction,Conductor*%
G36*
X146406758Y-87162685D02*
G01*
X146427400Y-87179319D01*
X148363181Y-89115100D01*
X148396666Y-89176423D01*
X148399500Y-89202781D01*
X148399500Y-89955500D01*
X148379815Y-90022539D01*
X148327011Y-90068294D01*
X148275500Y-90079500D01*
X147830247Y-90079500D01*
X147771770Y-90091131D01*
X147771769Y-90091132D01*
X147705447Y-90135447D01*
X147661132Y-90201769D01*
X147661131Y-90201770D01*
X147649500Y-90260247D01*
X147649500Y-91999752D01*
X147661131Y-92058229D01*
X147661132Y-92058230D01*
X147705447Y-92124552D01*
X147721204Y-92135080D01*
X147730889Y-92141551D01*
X147735979Y-92147642D01*
X147743203Y-92150941D01*
X147758066Y-92174069D01*
X147775695Y-92195162D01*
X147777647Y-92204537D01*
X147780977Y-92209719D01*
X147786000Y-92244654D01*
X147786000Y-92439285D01*
X147766315Y-92506324D01*
X147749681Y-92526966D01*
X145513260Y-94763386D01*
X145451937Y-94796871D01*
X145424019Y-94798037D01*
X145424019Y-94799500D01*
X145284108Y-94799500D01*
X145156812Y-94833608D01*
X145042686Y-94899500D01*
X145042683Y-94899502D01*
X144949502Y-94992683D01*
X144949500Y-94992686D01*
X144883608Y-95106812D01*
X144849500Y-95234108D01*
X144849500Y-95353692D01*
X144829815Y-95420731D01*
X144777011Y-95466486D01*
X144707853Y-95476430D01*
X144644297Y-95447405D01*
X144618113Y-95415693D01*
X144600500Y-95385186D01*
X144507314Y-95292000D01*
X144469814Y-95254500D01*
X144412750Y-95221554D01*
X144355687Y-95188608D01*
X144277439Y-95167642D01*
X144228392Y-95154500D01*
X144096608Y-95154500D01*
X144096604Y-95154500D01*
X144086637Y-95157171D01*
X144016787Y-95155506D01*
X144002143Y-95149777D01*
X143983179Y-95140934D01*
X143983174Y-95140932D01*
X143983173Y-95140932D01*
X143983171Y-95140931D01*
X143983169Y-95140931D01*
X143934317Y-95134500D01*
X143934316Y-95134500D01*
X143585684Y-95134500D01*
X143585683Y-95134500D01*
X143536828Y-95140931D01*
X143429595Y-95190935D01*
X143338264Y-95282267D01*
X143335440Y-95279443D01*
X143296958Y-95310183D01*
X143227458Y-95317352D01*
X143165114Y-95285808D01*
X143161901Y-95282101D01*
X143161736Y-95282267D01*
X143070404Y-95190935D01*
X142997997Y-95157171D01*
X142963173Y-95140932D01*
X142963171Y-95140931D01*
X142963172Y-95140931D01*
X142945813Y-95138646D01*
X142881917Y-95110378D01*
X142843446Y-95052053D01*
X142838000Y-95015707D01*
X142838000Y-94076852D01*
X142857685Y-94009813D01*
X142888361Y-93977086D01*
X142922150Y-93952150D01*
X143002793Y-93842882D01*
X143025158Y-93778964D01*
X143065877Y-93722192D01*
X143130830Y-93696444D01*
X143199392Y-93709900D01*
X143249795Y-93758287D01*
X143259904Y-93780917D01*
X143315642Y-93949121D01*
X143315643Y-93949124D01*
X143407684Y-94098345D01*
X143531654Y-94222315D01*
X143680875Y-94314356D01*
X143680880Y-94314358D01*
X143847302Y-94369505D01*
X143847309Y-94369506D01*
X143950019Y-94379999D01*
X144500000Y-94379999D01*
X144549972Y-94379999D01*
X144549986Y-94379998D01*
X144652697Y-94369505D01*
X144819119Y-94314358D01*
X144819124Y-94314356D01*
X144968345Y-94222315D01*
X145092315Y-94098345D01*
X145184356Y-93949124D01*
X145184358Y-93949119D01*
X145239505Y-93782697D01*
X145239506Y-93782690D01*
X145249999Y-93679986D01*
X145250000Y-93679973D01*
X145250000Y-93405000D01*
X144500000Y-93405000D01*
X144500000Y-94379999D01*
X143950019Y-94379999D01*
X143999999Y-94379998D01*
X144000000Y-94379998D01*
X144000000Y-92905000D01*
X144500000Y-92905000D01*
X145249999Y-92905000D01*
X145249999Y-92630028D01*
X145249998Y-92630013D01*
X145239505Y-92527302D01*
X145184358Y-92360880D01*
X145184356Y-92360875D01*
X145092315Y-92211654D01*
X144968345Y-92087684D01*
X144843273Y-92010539D01*
X144796549Y-91958591D01*
X144785326Y-91889628D01*
X144813170Y-91825546D01*
X144843273Y-91799461D01*
X144968345Y-91722315D01*
X145092315Y-91598345D01*
X145184356Y-91449124D01*
X145184358Y-91449119D01*
X145239505Y-91282697D01*
X145239506Y-91282690D01*
X145249999Y-91179986D01*
X145250000Y-91179973D01*
X145250000Y-90905000D01*
X144500000Y-90905000D01*
X144500000Y-92905000D01*
X144000000Y-92905000D01*
X144000000Y-90405000D01*
X144500000Y-90405000D01*
X145249999Y-90405000D01*
X145249999Y-90130028D01*
X145249998Y-90130013D01*
X145239505Y-90027302D01*
X145184358Y-89860880D01*
X145184356Y-89860875D01*
X145092315Y-89711654D01*
X144968345Y-89587684D01*
X144819124Y-89495643D01*
X144819119Y-89495641D01*
X144652697Y-89440494D01*
X144652690Y-89440493D01*
X144549986Y-89430000D01*
X144500000Y-89430000D01*
X144500000Y-90405000D01*
X144000000Y-90405000D01*
X144000000Y-89430000D01*
X143999999Y-89429999D01*
X143950029Y-89430000D01*
X143950009Y-89430001D01*
X143892426Y-89435884D01*
X143823733Y-89423114D01*
X143772849Y-89375233D01*
X143755929Y-89307443D01*
X143778345Y-89241267D01*
X143816705Y-89205793D01*
X143851555Y-89185182D01*
X143851561Y-89185178D01*
X143967679Y-89069060D01*
X143970051Y-89066003D01*
X143972520Y-89064219D01*
X143973200Y-89063540D01*
X143973309Y-89063649D01*
X143982770Y-89056816D01*
X143991944Y-89044090D01*
X144010511Y-89036780D01*
X144026692Y-89025094D01*
X144050632Y-89020985D01*
X144056957Y-89018496D01*
X144060750Y-89019249D01*
X144068033Y-89018000D01*
X144433261Y-89018000D01*
X144459739Y-89014142D01*
X144501393Y-89008073D01*
X144606483Y-88956698D01*
X144689198Y-88873983D01*
X144740573Y-88768893D01*
X144750500Y-88700760D01*
X144750500Y-87609240D01*
X144740573Y-87541107D01*
X144689198Y-87436017D01*
X144689196Y-87436015D01*
X144689196Y-87436014D01*
X144607863Y-87354681D01*
X144574378Y-87293358D01*
X144579362Y-87223666D01*
X144621234Y-87167733D01*
X144686698Y-87143316D01*
X144695544Y-87143000D01*
X146339719Y-87143000D01*
X146406758Y-87162685D01*
G37*
%TD.AperFunction*%
%TA.AperFunction,Conductor*%
G36*
X164255703Y-85511120D02*
G01*
X164262181Y-85517152D01*
X164663181Y-85918152D01*
X164696666Y-85979475D01*
X164699500Y-86005833D01*
X164699500Y-91824167D01*
X164679815Y-91891206D01*
X164663181Y-91911848D01*
X163181848Y-93393181D01*
X163120525Y-93426666D01*
X163094167Y-93429500D01*
X161022596Y-93429500D01*
X160955557Y-93409815D01*
X160909802Y-93357011D01*
X160905555Y-93346456D01*
X160883124Y-93282353D01*
X160877793Y-93267118D01*
X160797150Y-93157850D01*
X160687882Y-93077207D01*
X160687880Y-93077206D01*
X160559700Y-93032353D01*
X160529270Y-93029500D01*
X160529266Y-93029500D01*
X160128000Y-93029500D01*
X160119314Y-93026949D01*
X160110353Y-93028238D01*
X160086312Y-93017259D01*
X160060961Y-93009815D01*
X160055033Y-93002974D01*
X160046797Y-92999213D01*
X160032507Y-92976978D01*
X160015206Y-92957011D01*
X160012918Y-92946496D01*
X160009023Y-92940435D01*
X160004000Y-92905500D01*
X160004000Y-92804026D01*
X160023685Y-92736987D01*
X160063107Y-92702556D01*
X160061518Y-92700287D01*
X160070401Y-92694066D01*
X160070404Y-92694065D01*
X160154065Y-92610404D01*
X160154065Y-92610402D01*
X160161735Y-92602733D01*
X160164563Y-92605561D01*
X160202977Y-92574843D01*
X160272474Y-92567635D01*
X160334835Y-92599143D01*
X160338093Y-92602903D01*
X160338264Y-92602733D01*
X160345935Y-92610404D01*
X160429596Y-92694065D01*
X160536827Y-92744068D01*
X160585683Y-92750500D01*
X160585684Y-92750500D01*
X160934317Y-92750500D01*
X160950601Y-92748356D01*
X160983173Y-92744068D01*
X161090404Y-92694065D01*
X161174065Y-92610404D01*
X161224068Y-92503173D01*
X161230500Y-92454316D01*
X161230500Y-92005684D01*
X161224068Y-91956827D01*
X161174065Y-91849596D01*
X161142150Y-91817681D01*
X161108665Y-91756358D01*
X161113649Y-91686666D01*
X161127867Y-91659435D01*
X161134233Y-91650235D01*
X161174065Y-91610404D01*
X161199400Y-91556072D01*
X161205378Y-91547435D01*
X161224709Y-91531807D01*
X161241133Y-91513156D01*
X161251490Y-91510159D01*
X161259715Y-91503511D01*
X161283393Y-91500929D01*
X161307342Y-91494000D01*
X161825500Y-91494000D01*
X161892539Y-91513685D01*
X161938294Y-91566489D01*
X161949500Y-91618000D01*
X161949500Y-91999752D01*
X161961131Y-92058229D01*
X161961132Y-92058230D01*
X162005447Y-92124552D01*
X162071769Y-92168867D01*
X162071770Y-92168868D01*
X162130247Y-92180499D01*
X162130250Y-92180500D01*
X162130252Y-92180500D01*
X163869750Y-92180500D01*
X163869751Y-92180499D01*
X163893442Y-92175787D01*
X163928229Y-92168868D01*
X163928229Y-92168867D01*
X163928231Y-92168867D01*
X163994552Y-92124552D01*
X164038867Y-92058231D01*
X164038867Y-92058229D01*
X164038868Y-92058229D01*
X164047552Y-92014568D01*
X164050500Y-91999748D01*
X164050500Y-91060252D01*
X164050500Y-91060249D01*
X164050499Y-91060247D01*
X164038868Y-91001770D01*
X164038867Y-91001769D01*
X163994552Y-90935447D01*
X163928230Y-90891132D01*
X163928229Y-90891131D01*
X163869752Y-90879500D01*
X163869748Y-90879500D01*
X162130252Y-90879500D01*
X162130247Y-90879500D01*
X162071770Y-90891131D01*
X162071768Y-90891132D01*
X161995295Y-90942232D01*
X161993406Y-90939405D01*
X161949892Y-90963166D01*
X161923534Y-90966000D01*
X161307342Y-90966000D01*
X161240303Y-90946315D01*
X161194960Y-90894405D01*
X161192590Y-90889324D01*
X161174065Y-90849596D01*
X161090404Y-90765935D01*
X160984464Y-90716534D01*
X160932025Y-90670361D01*
X160912874Y-90603167D01*
X160933090Y-90536286D01*
X160949189Y-90516470D01*
X161067317Y-90398342D01*
X161159356Y-90249124D01*
X161159358Y-90249119D01*
X161214505Y-90082697D01*
X161214506Y-90082690D01*
X161224999Y-89979986D01*
X161225000Y-89979973D01*
X161225000Y-89930000D01*
X160124000Y-89930000D01*
X160056961Y-89910315D01*
X160011206Y-89857511D01*
X160000000Y-89806000D01*
X160000000Y-89627844D01*
X161650000Y-89627844D01*
X161656401Y-89687372D01*
X161656403Y-89687379D01*
X161706645Y-89822086D01*
X161706649Y-89822093D01*
X161792809Y-89937187D01*
X161792812Y-89937190D01*
X161907906Y-90023350D01*
X161907913Y-90023354D01*
X162042620Y-90073596D01*
X162042627Y-90073598D01*
X162102155Y-90079999D01*
X162102172Y-90080000D01*
X162750000Y-90080000D01*
X163250000Y-90080000D01*
X163897828Y-90080000D01*
X163897844Y-90079999D01*
X163957372Y-90073598D01*
X163957379Y-90073596D01*
X164092086Y-90023354D01*
X164092093Y-90023350D01*
X164207187Y-89937190D01*
X164207190Y-89937187D01*
X164293350Y-89822093D01*
X164293354Y-89822086D01*
X164343596Y-89687379D01*
X164343598Y-89687372D01*
X164349999Y-89627844D01*
X164350000Y-89627827D01*
X164350000Y-89380000D01*
X163250000Y-89380000D01*
X163250000Y-90080000D01*
X162750000Y-90080000D01*
X162750000Y-89380000D01*
X161650000Y-89380000D01*
X161650000Y-89627844D01*
X160000000Y-89627844D01*
X160000000Y-89554000D01*
X160019685Y-89486961D01*
X160072489Y-89441206D01*
X160124000Y-89430000D01*
X161224999Y-89430000D01*
X161224999Y-89380028D01*
X161224998Y-89380015D01*
X161221037Y-89341241D01*
X161221037Y-89341239D01*
X161214505Y-89277303D01*
X161159358Y-89110880D01*
X161159356Y-89110875D01*
X161067315Y-88961654D01*
X160943345Y-88837684D01*
X160794124Y-88745643D01*
X160794119Y-88745641D01*
X160625917Y-88689905D01*
X160568472Y-88650133D01*
X160560998Y-88632155D01*
X161650000Y-88632155D01*
X161650000Y-88880000D01*
X162750000Y-88880000D01*
X163250000Y-88880000D01*
X164350000Y-88880000D01*
X164350000Y-88632172D01*
X164349999Y-88632155D01*
X164343598Y-88572627D01*
X164343596Y-88572620D01*
X164293354Y-88437913D01*
X164293350Y-88437906D01*
X164207190Y-88322812D01*
X164207187Y-88322809D01*
X164092093Y-88236649D01*
X164092086Y-88236645D01*
X163957379Y-88186403D01*
X163957372Y-88186401D01*
X163897844Y-88180000D01*
X163250000Y-88180000D01*
X163250000Y-88880000D01*
X162750000Y-88880000D01*
X162750000Y-88180000D01*
X162102155Y-88180000D01*
X162042627Y-88186401D01*
X162042620Y-88186403D01*
X161907913Y-88236645D01*
X161907906Y-88236649D01*
X161792812Y-88322809D01*
X161792809Y-88322812D01*
X161706649Y-88437906D01*
X161706645Y-88437913D01*
X161656403Y-88572620D01*
X161656401Y-88572627D01*
X161650000Y-88632155D01*
X160560998Y-88632155D01*
X160541649Y-88585617D01*
X160553964Y-88516841D01*
X160601507Y-88465641D01*
X160623966Y-88455158D01*
X160668594Y-88439542D01*
X160687882Y-88432793D01*
X160797150Y-88352150D01*
X160877793Y-88242882D01*
X160908544Y-88155000D01*
X160922646Y-88114701D01*
X160922646Y-88114699D01*
X160925500Y-88084269D01*
X160925500Y-87475730D01*
X160922646Y-87445300D01*
X160922646Y-87445298D01*
X160877793Y-87317119D01*
X160877792Y-87317117D01*
X160797150Y-87207850D01*
X160687882Y-87127207D01*
X160687880Y-87127206D01*
X160559700Y-87082353D01*
X160529270Y-87079500D01*
X160529266Y-87079500D01*
X160139500Y-87079500D01*
X160130814Y-87076949D01*
X160121853Y-87078238D01*
X160097812Y-87067259D01*
X160072461Y-87059815D01*
X160066533Y-87052974D01*
X160058297Y-87049213D01*
X160044007Y-87026978D01*
X160026706Y-87007011D01*
X160024418Y-86996496D01*
X160020523Y-86990435D01*
X160015500Y-86955500D01*
X160015500Y-86797059D01*
X160035185Y-86730020D01*
X160068377Y-86695484D01*
X160070398Y-86694067D01*
X160070404Y-86694065D01*
X160154065Y-86610404D01*
X160154065Y-86610403D01*
X160161736Y-86602733D01*
X160164564Y-86605561D01*
X160202977Y-86574843D01*
X160272474Y-86567635D01*
X160334835Y-86599143D01*
X160338093Y-86602903D01*
X160338264Y-86602733D01*
X160345935Y-86610404D01*
X160429596Y-86694065D01*
X160536827Y-86744068D01*
X160585683Y-86750500D01*
X160585684Y-86750500D01*
X160934317Y-86750500D01*
X160950601Y-86748356D01*
X160983173Y-86744068D01*
X161090404Y-86694065D01*
X161174065Y-86610404D01*
X161224068Y-86503173D01*
X161230500Y-86454316D01*
X161230500Y-86154500D01*
X161250185Y-86087461D01*
X161302989Y-86041706D01*
X161354500Y-86030500D01*
X161825500Y-86030500D01*
X161892539Y-86050185D01*
X161938294Y-86102989D01*
X161949500Y-86154500D01*
X161949500Y-86199752D01*
X161961131Y-86258229D01*
X161961132Y-86258230D01*
X162005447Y-86324552D01*
X162071769Y-86368867D01*
X162071770Y-86368868D01*
X162130247Y-86380499D01*
X162130250Y-86380500D01*
X162130252Y-86380500D01*
X163869750Y-86380500D01*
X163869751Y-86380499D01*
X163884568Y-86377552D01*
X163928229Y-86368868D01*
X163928229Y-86368867D01*
X163928231Y-86368867D01*
X163994552Y-86324552D01*
X164038867Y-86258231D01*
X164038867Y-86258229D01*
X164038868Y-86258229D01*
X164049711Y-86203714D01*
X164050500Y-86199748D01*
X164050500Y-85604833D01*
X164070185Y-85537794D01*
X164122989Y-85492039D01*
X164192147Y-85482095D01*
X164255703Y-85511120D01*
G37*
%TD.AperFunction*%
%TA.AperFunction,Conductor*%
G36*
X143493039Y-88174685D02*
G01*
X143538794Y-88227489D01*
X143550000Y-88279000D01*
X143550000Y-89314795D01*
X143560319Y-89324334D01*
X143592851Y-89331169D01*
X143642607Y-89380222D01*
X143657945Y-89448387D01*
X143633995Y-89514024D01*
X143599298Y-89545960D01*
X143531659Y-89587680D01*
X143531655Y-89587683D01*
X143407684Y-89711654D01*
X143315643Y-89860875D01*
X143315641Y-89860880D01*
X143259905Y-90029082D01*
X143220132Y-90086527D01*
X143155617Y-90113350D01*
X143086841Y-90101035D01*
X143035641Y-90053492D01*
X143025158Y-90031033D01*
X143012343Y-89994410D01*
X143002793Y-89967118D01*
X142922150Y-89857850D01*
X142900865Y-89842141D01*
X142858615Y-89786494D01*
X142850500Y-89742372D01*
X142850500Y-89422516D01*
X142870185Y-89355477D01*
X142922989Y-89309722D01*
X142992147Y-89299778D01*
X143009095Y-89303439D01*
X143047514Y-89314600D01*
X143047511Y-89314600D01*
X143049998Y-89314795D01*
X143050000Y-89314795D01*
X143050000Y-88279000D01*
X143069685Y-88211961D01*
X143122489Y-88166206D01*
X143174000Y-88155000D01*
X143426000Y-88155000D01*
X143493039Y-88174685D01*
G37*
%TD.AperFunction*%
%TA.AperFunction,Conductor*%
G36*
X147017539Y-82750247D02*
G01*
X147063294Y-82803051D01*
X147074500Y-82854562D01*
X147074500Y-83134269D01*
X147077353Y-83164699D01*
X147077353Y-83164701D01*
X147122206Y-83292880D01*
X147122207Y-83292882D01*
X147202850Y-83402150D01*
X147312118Y-83482793D01*
X147344775Y-83494220D01*
X147440299Y-83527646D01*
X147470730Y-83530500D01*
X147842324Y-83530500D01*
X147909363Y-83550185D01*
X147955118Y-83602989D01*
X147965062Y-83672147D01*
X147936037Y-83735703D01*
X147930005Y-83742181D01*
X147909502Y-83762683D01*
X147909500Y-83762686D01*
X147843608Y-83876812D01*
X147817663Y-83973642D01*
X147809500Y-84004108D01*
X147809500Y-84135892D01*
X147843473Y-84262684D01*
X147843609Y-84263188D01*
X147843609Y-84263189D01*
X147867734Y-84304975D01*
X147884207Y-84372876D01*
X147861354Y-84438902D01*
X147806433Y-84482093D01*
X147784540Y-84488592D01*
X147771769Y-84491132D01*
X147705447Y-84535447D01*
X147661132Y-84601769D01*
X147661131Y-84601770D01*
X147649500Y-84660247D01*
X147649500Y-86399752D01*
X147661131Y-86458229D01*
X147661132Y-86458230D01*
X147705447Y-86524552D01*
X147705612Y-86524662D01*
X147705891Y-86524996D01*
X147714083Y-86533188D01*
X147713349Y-86533921D01*
X147718141Y-86539654D01*
X147734074Y-86550963D01*
X147743802Y-86570359D01*
X147750417Y-86578275D01*
X147751768Y-86581501D01*
X147754558Y-86588441D01*
X147769979Y-86645989D01*
X147791031Y-86682452D01*
X147795418Y-86690050D01*
X147795419Y-86690053D01*
X147809537Y-86714507D01*
X147809539Y-86714510D01*
X147809540Y-86714511D01*
X150415489Y-89320460D01*
X150484012Y-89360022D01*
X150560438Y-89380500D01*
X150639562Y-89380500D01*
X151943911Y-89380500D01*
X151973351Y-89389144D01*
X152003338Y-89395668D01*
X152008353Y-89399422D01*
X152010950Y-89400185D01*
X152031592Y-89416819D01*
X152062592Y-89447819D01*
X152096077Y-89509142D01*
X152091093Y-89578834D01*
X152049221Y-89634767D01*
X151983757Y-89659184D01*
X151974911Y-89659500D01*
X151380438Y-89659500D01*
X151304010Y-89679978D01*
X151235489Y-89719540D01*
X151235486Y-89719542D01*
X151059541Y-89895487D01*
X151059535Y-89895495D01*
X151019982Y-89964004D01*
X151019979Y-89964011D01*
X151013055Y-89989849D01*
X150976687Y-90049508D01*
X150913839Y-90080035D01*
X150875874Y-90079470D01*
X150875813Y-90080097D01*
X150869751Y-90079500D01*
X150869748Y-90079500D01*
X150430252Y-90079500D01*
X150430249Y-90079500D01*
X150359791Y-90093515D01*
X150359537Y-90092239D01*
X150302977Y-90098317D01*
X150279089Y-90091303D01*
X150219751Y-90079500D01*
X150219748Y-90079500D01*
X149780252Y-90079500D01*
X149780249Y-90079500D01*
X149709791Y-90093515D01*
X149709537Y-90092239D01*
X149652977Y-90098317D01*
X149629089Y-90091303D01*
X149569751Y-90079500D01*
X149569748Y-90079500D01*
X149130252Y-90079500D01*
X149124500Y-90079500D01*
X149057461Y-90059815D01*
X149011706Y-90007011D01*
X149000500Y-89955500D01*
X149000500Y-88987387D01*
X149000500Y-88987386D01*
X148980021Y-88910959D01*
X148958673Y-88873983D01*
X148940464Y-88842443D01*
X148940458Y-88842435D01*
X146700064Y-86602041D01*
X146700056Y-86602035D01*
X146662754Y-86580499D01*
X146662750Y-86580498D01*
X146651860Y-86574210D01*
X146631542Y-86562479D01*
X146631543Y-86562479D01*
X146593327Y-86552239D01*
X146555114Y-86542000D01*
X146555112Y-86542000D01*
X144874500Y-86542000D01*
X144807461Y-86522315D01*
X144761706Y-86469511D01*
X144750500Y-86418000D01*
X144750500Y-85334239D01*
X144740573Y-85266108D01*
X144740573Y-85266107D01*
X144689198Y-85161017D01*
X144689196Y-85161015D01*
X144689196Y-85161014D01*
X144603310Y-85075128D01*
X144569825Y-85013805D01*
X144574809Y-84944113D01*
X144616681Y-84888180D01*
X144651987Y-84869741D01*
X144819119Y-84814358D01*
X144819124Y-84814356D01*
X144968345Y-84722315D01*
X145092315Y-84598345D01*
X145184356Y-84449124D01*
X145184358Y-84449119D01*
X145239505Y-84282697D01*
X145239506Y-84282690D01*
X145249999Y-84179986D01*
X145250000Y-84179973D01*
X145250000Y-83905000D01*
X144374000Y-83905000D01*
X144306961Y-83885315D01*
X144261206Y-83832511D01*
X144250000Y-83781000D01*
X144250000Y-83529000D01*
X144269685Y-83461961D01*
X144322489Y-83416206D01*
X144374000Y-83405000D01*
X145249999Y-83405000D01*
X145249999Y-83130028D01*
X145249998Y-83130013D01*
X145239506Y-83027304D01*
X145195189Y-82893567D01*
X145192787Y-82823738D01*
X145228518Y-82763696D01*
X145291039Y-82732503D01*
X145312895Y-82730562D01*
X146950500Y-82730562D01*
X147017539Y-82750247D01*
G37*
%TD.AperFunction*%
%TA.AperFunction,Conductor*%
G36*
X149493039Y-85549685D02*
G01*
X149538794Y-85602489D01*
X149550000Y-85654000D01*
X149550000Y-86880000D01*
X149597828Y-86880000D01*
X149597844Y-86879999D01*
X149657372Y-86873598D01*
X149657383Y-86873595D01*
X149772990Y-86830476D01*
X149842681Y-86825491D01*
X149904002Y-86858973D01*
X149904005Y-86858976D01*
X151612848Y-88567819D01*
X151646333Y-88629142D01*
X151641349Y-88698834D01*
X151599477Y-88754767D01*
X151534013Y-88779184D01*
X151525167Y-88779500D01*
X150775833Y-88779500D01*
X150708794Y-88759815D01*
X150688152Y-88743181D01*
X149036652Y-87091681D01*
X149003167Y-87030358D01*
X149008151Y-86960666D01*
X149050023Y-86904733D01*
X149115487Y-86880316D01*
X149124333Y-86880000D01*
X149150000Y-86880000D01*
X149150000Y-85654000D01*
X149152550Y-85645314D01*
X149151262Y-85636353D01*
X149162240Y-85612312D01*
X149169685Y-85586961D01*
X149176525Y-85581033D01*
X149180287Y-85572797D01*
X149202521Y-85558507D01*
X149222489Y-85541206D01*
X149233003Y-85538918D01*
X149239065Y-85535023D01*
X149274000Y-85530000D01*
X149426000Y-85530000D01*
X149493039Y-85549685D01*
G37*
%TD.AperFunction*%
%TA.AperFunction,Conductor*%
G36*
X146672779Y-80434819D02*
G01*
X146688100Y-80434191D01*
X146705623Y-80444463D01*
X146725109Y-80450185D01*
X146735148Y-80461771D01*
X146748377Y-80469526D01*
X146757564Y-80487641D01*
X146770864Y-80502989D01*
X146773517Y-80519093D01*
X146779982Y-80531839D01*
X146781428Y-80567103D01*
X146775000Y-80630013D01*
X146775000Y-80680000D01*
X149224999Y-80680000D01*
X149224999Y-80662175D01*
X149231237Y-80640929D01*
X149232817Y-80618841D01*
X149240889Y-80608057D01*
X149244684Y-80595136D01*
X149261417Y-80580636D01*
X149274689Y-80562908D01*
X149287309Y-80558200D01*
X149297488Y-80549381D01*
X149319405Y-80546229D01*
X149340153Y-80538491D01*
X149353313Y-80541353D01*
X149366646Y-80539437D01*
X149386789Y-80548636D01*
X149408426Y-80553343D01*
X149426151Y-80566611D01*
X149430202Y-80568462D01*
X149436680Y-80574494D01*
X149538181Y-80675995D01*
X149571666Y-80737318D01*
X149574500Y-80763676D01*
X149574500Y-81145232D01*
X149554815Y-81212271D01*
X149502011Y-81258026D01*
X149432853Y-81267970D01*
X149418407Y-81265007D01*
X149392353Y-81258026D01*
X149302423Y-81233929D01*
X149246836Y-81201836D01*
X149225000Y-81180000D01*
X146775001Y-81180000D01*
X146775001Y-81229989D01*
X146781428Y-81292899D01*
X146768658Y-81361592D01*
X146720777Y-81412476D01*
X146658070Y-81429500D01*
X141632675Y-81429500D01*
X141565636Y-81409815D01*
X141519881Y-81357011D01*
X141509937Y-81287853D01*
X141538962Y-81224297D01*
X141544994Y-81217819D01*
X142295994Y-80466819D01*
X142357317Y-80433334D01*
X142383675Y-80430500D01*
X146658070Y-80430500D01*
X146672779Y-80434819D01*
G37*
%TD.AperFunction*%
%TA.AperFunction,Conductor*%
G36*
X172025677Y-58029685D02*
G01*
X172046319Y-58046319D01*
X173463181Y-59463181D01*
X173496666Y-59524504D01*
X173499500Y-59550862D01*
X173499500Y-106449138D01*
X173479815Y-106516177D01*
X173463181Y-106536819D01*
X171536819Y-108463181D01*
X171475496Y-108496666D01*
X171449138Y-108499500D01*
X153414077Y-108499500D01*
X153347038Y-108479815D01*
X153301283Y-108427011D01*
X153291339Y-108357853D01*
X153320364Y-108294297D01*
X153326396Y-108287819D01*
X153346748Y-108267466D01*
X153346751Y-108267462D01*
X153456185Y-108103684D01*
X153456192Y-108103671D01*
X153531569Y-107921693D01*
X153531572Y-107921681D01*
X153569999Y-107728495D01*
X153570000Y-107728492D01*
X153570000Y-107480000D01*
X152870000Y-107480000D01*
X152870000Y-107366420D01*
X159249499Y-107366420D01*
X159278340Y-107511407D01*
X159278343Y-107511417D01*
X159334912Y-107647988D01*
X159334919Y-107648001D01*
X159417048Y-107770915D01*
X159417051Y-107770919D01*
X159521580Y-107875448D01*
X159521584Y-107875451D01*
X159644498Y-107957580D01*
X159644511Y-107957587D01*
X159781082Y-108014156D01*
X159781087Y-108014158D01*
X159781091Y-108014158D01*
X159781092Y-108014159D01*
X159926079Y-108043000D01*
X159926082Y-108043000D01*
X160073920Y-108043000D01*
X160171462Y-108023596D01*
X160218913Y-108014158D01*
X160355495Y-107957584D01*
X160478416Y-107875451D01*
X160582951Y-107770916D01*
X160665084Y-107647995D01*
X160721658Y-107511413D01*
X160750500Y-107366418D01*
X160750500Y-107218582D01*
X160750500Y-107218579D01*
X160721659Y-107073592D01*
X160721658Y-107073591D01*
X160721658Y-107073587D01*
X160721656Y-107073582D01*
X160665087Y-106937011D01*
X160665080Y-106936998D01*
X160582951Y-106814084D01*
X160582948Y-106814080D01*
X160478419Y-106709551D01*
X160478415Y-106709548D01*
X160355501Y-106627419D01*
X160355488Y-106627412D01*
X160218917Y-106570843D01*
X160218907Y-106570840D01*
X160073920Y-106542000D01*
X160073918Y-106542000D01*
X159926082Y-106542000D01*
X159926080Y-106542000D01*
X159781092Y-106570840D01*
X159781082Y-106570843D01*
X159644511Y-106627412D01*
X159644498Y-106627419D01*
X159521584Y-106709548D01*
X159521580Y-106709551D01*
X159417051Y-106814080D01*
X159417048Y-106814084D01*
X159334919Y-106936998D01*
X159334912Y-106937011D01*
X159278343Y-107073582D01*
X159278340Y-107073592D01*
X159249500Y-107218579D01*
X159249500Y-107218582D01*
X159249500Y-107366418D01*
X159249500Y-107366420D01*
X159249499Y-107366420D01*
X152870000Y-107366420D01*
X152870000Y-106980000D01*
X153570000Y-106980000D01*
X153570000Y-106731508D01*
X153569999Y-106731504D01*
X153541921Y-106590344D01*
X154500000Y-106590344D01*
X154506401Y-106649872D01*
X154506403Y-106649879D01*
X154556645Y-106784586D01*
X154556649Y-106784593D01*
X154642809Y-106899687D01*
X154642812Y-106899690D01*
X154757906Y-106985850D01*
X154757913Y-106985854D01*
X154892620Y-107036096D01*
X154892627Y-107036098D01*
X154952155Y-107042499D01*
X154952172Y-107042500D01*
X156250000Y-107042500D01*
X156750000Y-107042500D01*
X158047828Y-107042500D01*
X158047844Y-107042499D01*
X158107372Y-107036098D01*
X158107379Y-107036096D01*
X158242086Y-106985854D01*
X158242093Y-106985850D01*
X158357187Y-106899690D01*
X158357190Y-106899687D01*
X158443350Y-106784593D01*
X158443354Y-106784586D01*
X158493596Y-106649879D01*
X158493598Y-106649872D01*
X158499999Y-106590344D01*
X158500000Y-106590327D01*
X158500000Y-106042500D01*
X156750000Y-106042500D01*
X156750000Y-107042500D01*
X156250000Y-107042500D01*
X156250000Y-106042500D01*
X154500000Y-106042500D01*
X154500000Y-106590344D01*
X153541921Y-106590344D01*
X153531572Y-106538318D01*
X153531569Y-106538306D01*
X153456192Y-106356328D01*
X153456185Y-106356315D01*
X153346751Y-106192537D01*
X153346748Y-106192533D01*
X153207466Y-106053251D01*
X153207462Y-106053248D01*
X153043684Y-105943814D01*
X153043671Y-105943807D01*
X152861691Y-105868429D01*
X152861683Y-105868427D01*
X152820000Y-105860135D01*
X152820000Y-106663011D01*
X152810060Y-106645795D01*
X152754205Y-106589940D01*
X152685796Y-106550444D01*
X152609496Y-106530000D01*
X152530504Y-106530000D01*
X152454204Y-106550444D01*
X152385795Y-106589940D01*
X152329940Y-106645795D01*
X152320000Y-106663011D01*
X152320000Y-105860136D01*
X152319999Y-105860135D01*
X152278316Y-105868427D01*
X152278308Y-105868429D01*
X152096328Y-105943807D01*
X152096315Y-105943814D01*
X151932537Y-106053248D01*
X151932533Y-106053251D01*
X151793251Y-106192533D01*
X151793248Y-106192537D01*
X151683814Y-106356315D01*
X151683807Y-106356328D01*
X151608430Y-106538306D01*
X151608427Y-106538318D01*
X151570000Y-106731504D01*
X151570000Y-106980000D01*
X152270000Y-106980000D01*
X152270000Y-107480000D01*
X151570000Y-107480000D01*
X151570000Y-107728495D01*
X151608427Y-107921681D01*
X151608430Y-107921693D01*
X151683807Y-108103671D01*
X151683814Y-108103684D01*
X151793248Y-108267462D01*
X151793251Y-108267466D01*
X151813604Y-108287819D01*
X151847089Y-108349142D01*
X151842105Y-108418834D01*
X151800233Y-108474767D01*
X151734769Y-108499184D01*
X151725923Y-108499500D01*
X144774077Y-108499500D01*
X144707038Y-108479815D01*
X144661283Y-108427011D01*
X144651339Y-108357853D01*
X144680364Y-108294297D01*
X144686396Y-108287819D01*
X144706748Y-108267466D01*
X144706751Y-108267462D01*
X144816185Y-108103684D01*
X144816192Y-108103671D01*
X144891569Y-107921693D01*
X144891572Y-107921681D01*
X144929999Y-107728495D01*
X144930000Y-107728492D01*
X144930000Y-107480000D01*
X144230000Y-107480000D01*
X144230000Y-106980000D01*
X144930000Y-106980000D01*
X144930000Y-106731508D01*
X144929999Y-106731504D01*
X144891572Y-106538318D01*
X144891569Y-106538306D01*
X144816192Y-106356328D01*
X144816185Y-106356315D01*
X144706751Y-106192537D01*
X144706748Y-106192533D01*
X144567466Y-106053251D01*
X144567462Y-106053248D01*
X144403684Y-105943814D01*
X144403671Y-105943807D01*
X144221691Y-105868429D01*
X144221683Y-105868427D01*
X144180000Y-105860135D01*
X144180000Y-106663011D01*
X144170060Y-106645795D01*
X144114205Y-106589940D01*
X144045796Y-106550444D01*
X143969496Y-106530000D01*
X143890504Y-106530000D01*
X143814204Y-106550444D01*
X143745795Y-106589940D01*
X143689940Y-106645795D01*
X143680000Y-106663011D01*
X143680000Y-105860136D01*
X143679999Y-105860135D01*
X143638316Y-105868427D01*
X143638308Y-105868429D01*
X143456328Y-105943807D01*
X143456315Y-105943814D01*
X143292537Y-106053248D01*
X143292533Y-106053251D01*
X143153251Y-106192533D01*
X143153248Y-106192537D01*
X143043814Y-106356315D01*
X143043807Y-106356328D01*
X142968430Y-106538306D01*
X142968427Y-106538318D01*
X142930000Y-106731504D01*
X142930000Y-106980000D01*
X143630000Y-106980000D01*
X143630000Y-107480000D01*
X142930000Y-107480000D01*
X142930000Y-107728495D01*
X142968427Y-107921681D01*
X142968430Y-107921693D01*
X143043807Y-108103671D01*
X143043814Y-108103684D01*
X143153248Y-108267462D01*
X143153251Y-108267466D01*
X143173604Y-108287819D01*
X143207089Y-108349142D01*
X143202105Y-108418834D01*
X143160233Y-108474767D01*
X143094769Y-108499184D01*
X143085923Y-108499500D01*
X134550862Y-108499500D01*
X134483823Y-108479815D01*
X134463181Y-108463181D01*
X132536819Y-106536819D01*
X132503334Y-106475496D01*
X132500500Y-106449138D01*
X132500500Y-103368872D01*
X135499500Y-103368872D01*
X135499500Y-103631127D01*
X135518505Y-103775477D01*
X135533730Y-103891116D01*
X135596533Y-104125500D01*
X135601602Y-104144418D01*
X135601605Y-104144428D01*
X135701953Y-104386690D01*
X135701958Y-104386700D01*
X135833075Y-104613803D01*
X135992718Y-104821851D01*
X135992726Y-104821860D01*
X136178140Y-105007274D01*
X136178148Y-105007281D01*
X136386196Y-105166924D01*
X136613299Y-105298041D01*
X136613309Y-105298046D01*
X136855571Y-105398394D01*
X136855581Y-105398398D01*
X137108884Y-105466270D01*
X137368880Y-105500500D01*
X137368887Y-105500500D01*
X137631113Y-105500500D01*
X137631120Y-105500500D01*
X137891116Y-105466270D01*
X138144419Y-105398398D01*
X138386697Y-105298043D01*
X138613803Y-105166924D01*
X138821851Y-105007282D01*
X138821855Y-105007277D01*
X138821860Y-105007274D01*
X138834479Y-104994655D01*
X154500000Y-104994655D01*
X154500000Y-105542500D01*
X156250000Y-105542500D01*
X156750000Y-105542500D01*
X158500000Y-105542500D01*
X158500000Y-104994672D01*
X158499999Y-104994655D01*
X158493598Y-104935127D01*
X158493596Y-104935120D01*
X158443354Y-104800413D01*
X158443350Y-104800406D01*
X158357190Y-104685312D01*
X158357187Y-104685309D01*
X158242093Y-104599149D01*
X158242086Y-104599145D01*
X158107379Y-104548903D01*
X158107372Y-104548901D01*
X158047844Y-104542500D01*
X156750000Y-104542500D01*
X156750000Y-105542500D01*
X156250000Y-105542500D01*
X156250000Y-104542500D01*
X154952155Y-104542500D01*
X154892627Y-104548901D01*
X154892620Y-104548903D01*
X154757913Y-104599145D01*
X154757906Y-104599149D01*
X154642812Y-104685309D01*
X154642809Y-104685312D01*
X154556649Y-104800406D01*
X154556645Y-104800413D01*
X154506403Y-104935120D01*
X154506401Y-104935127D01*
X154500000Y-104994655D01*
X138834479Y-104994655D01*
X139007274Y-104821860D01*
X139007277Y-104821855D01*
X139007282Y-104821851D01*
X139166924Y-104613803D01*
X139298043Y-104386697D01*
X139298949Y-104384511D01*
X139368141Y-104217466D01*
X139398398Y-104144419D01*
X139466270Y-103891116D01*
X139500500Y-103631120D01*
X139500500Y-103368880D01*
X139466270Y-103108884D01*
X139398398Y-102855581D01*
X139398394Y-102855571D01*
X139298046Y-102613309D01*
X139298041Y-102613299D01*
X139196496Y-102437417D01*
X139166924Y-102386196D01*
X139007281Y-102178148D01*
X139007274Y-102178140D01*
X138821860Y-101992726D01*
X138821851Y-101992718D01*
X138613803Y-101833075D01*
X138386700Y-101701958D01*
X138386690Y-101701953D01*
X138144428Y-101601605D01*
X138144421Y-101601603D01*
X138144419Y-101601602D01*
X137891116Y-101533730D01*
X137833339Y-101526123D01*
X137631127Y-101499500D01*
X137631120Y-101499500D01*
X137368880Y-101499500D01*
X137368872Y-101499500D01*
X137137772Y-101529926D01*
X137108884Y-101533730D01*
X136884646Y-101593814D01*
X136855581Y-101601602D01*
X136855571Y-101601605D01*
X136613309Y-101701953D01*
X136613299Y-101701958D01*
X136386196Y-101833075D01*
X136178148Y-101992718D01*
X135992718Y-102178148D01*
X135833075Y-102386196D01*
X135701958Y-102613299D01*
X135701953Y-102613309D01*
X135601605Y-102855571D01*
X135601602Y-102855581D01*
X135533730Y-103108885D01*
X135499500Y-103368872D01*
X132500500Y-103368872D01*
X132500500Y-100443118D01*
X142700000Y-100443118D01*
X142702788Y-100478547D01*
X142702789Y-100478553D01*
X142746843Y-100630185D01*
X142746844Y-100630188D01*
X142827226Y-100766108D01*
X142827232Y-100766116D01*
X142938883Y-100877767D01*
X142938891Y-100877773D01*
X143074808Y-100958154D01*
X143074814Y-100958156D01*
X143199999Y-100994525D01*
X143200000Y-100994525D01*
X143200000Y-100405000D01*
X142700000Y-100405000D01*
X142700000Y-100443118D01*
X132500500Y-100443118D01*
X132500500Y-98679986D01*
X141300001Y-98679986D01*
X141310494Y-98782697D01*
X141365641Y-98949119D01*
X141365643Y-98949124D01*
X141457684Y-99098345D01*
X141581654Y-99222315D01*
X141730875Y-99314356D01*
X141730880Y-99314358D01*
X141897302Y-99369505D01*
X141897309Y-99369506D01*
X142000019Y-99379999D01*
X142049999Y-99379998D01*
X142050000Y-99379998D01*
X142050000Y-98405000D01*
X141300001Y-98405000D01*
X141300001Y-98679986D01*
X132500500Y-98679986D01*
X132500500Y-97630013D01*
X141300000Y-97630013D01*
X141300000Y-97905000D01*
X142050000Y-97905000D01*
X142050000Y-96930000D01*
X142049999Y-96929999D01*
X142000029Y-96930000D01*
X142000011Y-96930001D01*
X141897302Y-96940494D01*
X141730880Y-96995641D01*
X141730875Y-96995643D01*
X141581654Y-97087684D01*
X141457684Y-97211654D01*
X141365643Y-97360875D01*
X141365641Y-97360880D01*
X141310494Y-97527302D01*
X141310493Y-97527309D01*
X141300000Y-97630013D01*
X132500500Y-97630013D01*
X132500500Y-80497487D01*
X133736000Y-80497487D01*
X133736000Y-95332231D01*
X133736000Y-95437257D01*
X133776192Y-95534288D01*
X135009948Y-96768044D01*
X135084212Y-96842308D01*
X135181243Y-96882500D01*
X138265114Y-96882500D01*
X138332153Y-96902185D01*
X138352718Y-96921101D01*
X138353753Y-96920067D01*
X138359499Y-96925813D01*
X138359500Y-96925814D01*
X138452686Y-97019000D01*
X138566814Y-97084892D01*
X138694108Y-97119000D01*
X138694110Y-97119000D01*
X138825890Y-97119000D01*
X138825892Y-97119000D01*
X138953186Y-97084892D01*
X139067314Y-97019000D01*
X139160500Y-96925814D01*
X139226392Y-96811686D01*
X139260500Y-96684392D01*
X139260500Y-96552608D01*
X139226392Y-96425314D01*
X139160500Y-96311186D01*
X139067314Y-96218000D01*
X138967765Y-96160525D01*
X138953187Y-96152108D01*
X138886229Y-96134167D01*
X138825892Y-96118000D01*
X138694108Y-96118000D01*
X138566812Y-96152108D01*
X138452686Y-96218000D01*
X138452683Y-96218002D01*
X138353753Y-96316933D01*
X138351538Y-96314718D01*
X138307040Y-96347197D01*
X138265114Y-96354500D01*
X135394470Y-96354500D01*
X135327431Y-96334815D01*
X135306789Y-96318181D01*
X134300319Y-95311711D01*
X134266834Y-95250388D01*
X134264000Y-95224030D01*
X134264000Y-92308500D01*
X135045050Y-92308500D01*
X135061849Y-92319725D01*
X135061855Y-92319728D01*
X135230182Y-92389451D01*
X135230194Y-92389454D01*
X135408890Y-92424999D01*
X135408894Y-92425000D01*
X135591106Y-92425000D01*
X135591109Y-92424999D01*
X135769805Y-92389454D01*
X135769813Y-92389452D01*
X135938151Y-92319724D01*
X135938154Y-92319723D01*
X135954947Y-92308500D01*
X135954948Y-92308500D01*
X135500001Y-91853553D01*
X135500000Y-91853553D01*
X135045050Y-92308500D01*
X134264000Y-92308500D01*
X134264000Y-91408890D01*
X134575000Y-91408890D01*
X134575000Y-91591109D01*
X134610545Y-91769805D01*
X134610548Y-91769817D01*
X134680271Y-91938145D01*
X134691498Y-91954947D01*
X135146446Y-91500000D01*
X135146446Y-91499999D01*
X134691498Y-91045050D01*
X134680274Y-91061848D01*
X134610547Y-91230186D01*
X134610545Y-91230194D01*
X134575000Y-91408890D01*
X134264000Y-91408890D01*
X134264000Y-80888000D01*
X134283685Y-80820961D01*
X134336489Y-80775206D01*
X134388000Y-80764000D01*
X134857837Y-80764000D01*
X134924876Y-80783685D01*
X134960939Y-80819110D01*
X135014138Y-80898728D01*
X135014144Y-80898736D01*
X135027727Y-80912319D01*
X135061212Y-80973642D01*
X135056228Y-81043334D01*
X135027727Y-81087681D01*
X135014144Y-81101263D01*
X135014141Y-81101267D01*
X134945692Y-81203707D01*
X134945687Y-81203716D01*
X134898538Y-81317545D01*
X134898535Y-81317555D01*
X134874500Y-81438389D01*
X134874500Y-81561610D01*
X134898535Y-81682444D01*
X134898538Y-81682454D01*
X134945687Y-81796283D01*
X134945692Y-81796292D01*
X135014141Y-81898732D01*
X135014144Y-81898736D01*
X135027727Y-81912319D01*
X135061212Y-81973642D01*
X135056228Y-82043334D01*
X135027727Y-82087681D01*
X135014144Y-82101263D01*
X135014141Y-82101267D01*
X134945692Y-82203707D01*
X134945687Y-82203716D01*
X134898538Y-82317545D01*
X134898535Y-82317555D01*
X134874500Y-82438389D01*
X134874500Y-82561610D01*
X134898535Y-82682444D01*
X134898537Y-82682452D01*
X134907246Y-82703477D01*
X134945687Y-82796283D01*
X134945692Y-82796292D01*
X135014141Y-82898732D01*
X135014144Y-82898736D01*
X135027727Y-82912319D01*
X135061212Y-82973642D01*
X135056228Y-83043334D01*
X135027727Y-83087681D01*
X135014144Y-83101263D01*
X135014141Y-83101267D01*
X134945692Y-83203707D01*
X134945687Y-83203716D01*
X134898538Y-83317545D01*
X134898535Y-83317555D01*
X134874500Y-83438389D01*
X134874500Y-83561610D01*
X134898535Y-83682444D01*
X134898538Y-83682454D01*
X134945687Y-83796283D01*
X134945692Y-83796292D01*
X135014141Y-83898732D01*
X135014144Y-83898736D01*
X135027727Y-83912319D01*
X135061212Y-83973642D01*
X135056228Y-84043334D01*
X135027727Y-84087681D01*
X135014144Y-84101263D01*
X135014141Y-84101267D01*
X134945692Y-84203707D01*
X134945687Y-84203716D01*
X134898538Y-84317545D01*
X134898535Y-84317555D01*
X134874500Y-84438389D01*
X134874500Y-84561610D01*
X134898535Y-84682444D01*
X134898538Y-84682454D01*
X134945687Y-84796283D01*
X134945692Y-84796292D01*
X135014141Y-84898732D01*
X135014144Y-84898736D01*
X135027727Y-84912319D01*
X135061212Y-84973642D01*
X135056228Y-85043334D01*
X135027727Y-85087681D01*
X135014144Y-85101263D01*
X135014141Y-85101267D01*
X134945692Y-85203707D01*
X134945687Y-85203716D01*
X134898538Y-85317545D01*
X134898535Y-85317555D01*
X134874500Y-85438389D01*
X134874500Y-85561610D01*
X134898535Y-85682444D01*
X134898538Y-85682454D01*
X134945687Y-85796283D01*
X134945692Y-85796292D01*
X135014141Y-85898732D01*
X135014144Y-85898736D01*
X135027727Y-85912319D01*
X135061212Y-85973642D01*
X135056228Y-86043334D01*
X135027727Y-86087681D01*
X135014144Y-86101263D01*
X135014141Y-86101267D01*
X134945692Y-86203707D01*
X134945687Y-86203716D01*
X134898538Y-86317545D01*
X134898535Y-86317555D01*
X134874500Y-86438389D01*
X134874500Y-86561610D01*
X134891284Y-86645989D01*
X134898537Y-86682452D01*
X134920436Y-86735321D01*
X134945687Y-86796283D01*
X134945692Y-86796292D01*
X135014141Y-86898732D01*
X135014144Y-86898736D01*
X135027727Y-86912319D01*
X135061212Y-86973642D01*
X135056228Y-87043334D01*
X135027727Y-87087681D01*
X135014144Y-87101263D01*
X135014141Y-87101267D01*
X134945692Y-87203707D01*
X134945687Y-87203716D01*
X134898538Y-87317545D01*
X134898535Y-87317555D01*
X134874500Y-87438389D01*
X134874500Y-87561610D01*
X134898535Y-87682444D01*
X134898538Y-87682454D01*
X134945687Y-87796283D01*
X134945692Y-87796292D01*
X135014141Y-87898732D01*
X135014144Y-87898736D01*
X135027727Y-87912319D01*
X135061212Y-87973642D01*
X135056228Y-88043334D01*
X135027727Y-88087681D01*
X135014144Y-88101263D01*
X135014141Y-88101267D01*
X134945692Y-88203707D01*
X134945687Y-88203716D01*
X134898538Y-88317545D01*
X134898535Y-88317555D01*
X134874500Y-88438389D01*
X134874500Y-88561610D01*
X134898535Y-88682444D01*
X134898537Y-88682452D01*
X134907246Y-88703477D01*
X134945687Y-88796283D01*
X134945692Y-88796292D01*
X135014141Y-88898732D01*
X135014144Y-88898736D01*
X135027727Y-88912319D01*
X135061212Y-88973642D01*
X135056228Y-89043334D01*
X135027727Y-89087681D01*
X135014144Y-89101263D01*
X135014141Y-89101267D01*
X134945692Y-89203707D01*
X134945687Y-89203716D01*
X134898538Y-89317545D01*
X134898535Y-89317555D01*
X134874500Y-89438389D01*
X134874500Y-89561610D01*
X134898535Y-89682444D01*
X134898538Y-89682454D01*
X134945687Y-89796283D01*
X134945692Y-89796292D01*
X135014141Y-89898732D01*
X135014144Y-89898736D01*
X135027727Y-89912319D01*
X135061212Y-89973642D01*
X135056228Y-90043334D01*
X135027727Y-90087681D01*
X135014144Y-90101263D01*
X135014141Y-90101267D01*
X134945692Y-90203707D01*
X134945687Y-90203716D01*
X134898538Y-90317545D01*
X134898535Y-90317555D01*
X134874500Y-90438389D01*
X134874500Y-90561610D01*
X134898535Y-90682444D01*
X134898538Y-90682454D01*
X134945687Y-90796283D01*
X134945692Y-90796292D01*
X135014141Y-90898732D01*
X135014144Y-90898736D01*
X135101263Y-90985855D01*
X135101267Y-90985858D01*
X135203707Y-91054307D01*
X135203716Y-91054312D01*
X135208320Y-91056219D01*
X135317548Y-91101463D01*
X135378392Y-91113565D01*
X135438382Y-91125498D01*
X135438385Y-91125498D01*
X135438394Y-91125500D01*
X135438402Y-91125500D01*
X135439335Y-91125592D01*
X135439802Y-91125780D01*
X135444369Y-91126689D01*
X135444196Y-91127554D01*
X135462359Y-91134887D01*
X135486615Y-91140164D01*
X135499710Y-91149966D01*
X135504124Y-91151749D01*
X135514869Y-91161315D01*
X135641614Y-91288060D01*
X135549728Y-91250000D01*
X135450272Y-91250000D01*
X135358386Y-91288060D01*
X135288060Y-91358386D01*
X135250000Y-91450272D01*
X135250000Y-91549728D01*
X135288060Y-91641614D01*
X135358386Y-91711940D01*
X135450272Y-91750000D01*
X135549728Y-91750000D01*
X135641614Y-91711940D01*
X135711940Y-91641614D01*
X135750000Y-91549728D01*
X135750000Y-91450272D01*
X135711940Y-91358386D01*
X136308500Y-91954948D01*
X136308500Y-91954947D01*
X136319723Y-91938154D01*
X136319724Y-91938151D01*
X136389452Y-91769813D01*
X136389454Y-91769805D01*
X136424999Y-91591109D01*
X136425000Y-91591106D01*
X136425000Y-91408894D01*
X136424999Y-91408890D01*
X136389454Y-91230194D01*
X136389451Y-91230182D01*
X136365332Y-91171952D01*
X136357863Y-91102483D01*
X136389139Y-91040004D01*
X136449228Y-91004352D01*
X136479893Y-91000500D01*
X141525500Y-91000500D01*
X141592539Y-91020185D01*
X141638294Y-91072989D01*
X141649500Y-91124500D01*
X141649500Y-91184269D01*
X141652353Y-91214699D01*
X141652353Y-91214701D01*
X141690328Y-91323223D01*
X141697207Y-91342882D01*
X141726375Y-91382403D01*
X141775616Y-91449124D01*
X141777850Y-91452150D01*
X141799132Y-91467857D01*
X141841384Y-91523503D01*
X141849500Y-91567628D01*
X141849500Y-92242372D01*
X141829815Y-92309411D01*
X141799134Y-92342142D01*
X141777850Y-92357850D01*
X141697207Y-92467117D01*
X141697206Y-92467119D01*
X141652353Y-92595298D01*
X141652353Y-92595300D01*
X141649500Y-92625730D01*
X141649500Y-93684269D01*
X141652353Y-93714699D01*
X141652353Y-93714701D01*
X141697206Y-93842880D01*
X141697207Y-93842882D01*
X141777850Y-93952150D01*
X141786632Y-93958631D01*
X141828884Y-94014277D01*
X141837000Y-94058402D01*
X141837000Y-95720891D01*
X141871108Y-95848187D01*
X141889081Y-95879316D01*
X141937000Y-95962314D01*
X142030186Y-96055500D01*
X142129021Y-96112563D01*
X142140283Y-96119065D01*
X142144314Y-96121392D01*
X142271608Y-96155500D01*
X142271610Y-96155500D01*
X142403391Y-96155500D01*
X142403392Y-96155500D01*
X142410537Y-96153585D01*
X142413357Y-96152830D01*
X142483207Y-96154492D01*
X142497856Y-96160222D01*
X142506167Y-96164097D01*
X142516827Y-96169068D01*
X142565683Y-96175500D01*
X142565684Y-96175500D01*
X142914317Y-96175500D01*
X142930601Y-96173356D01*
X142963173Y-96169068D01*
X143070404Y-96119065D01*
X143154065Y-96035404D01*
X143154065Y-96035403D01*
X143161736Y-96027733D01*
X143164564Y-96030561D01*
X143202977Y-95999843D01*
X143272474Y-95992635D01*
X143334835Y-96024143D01*
X143338093Y-96027903D01*
X143338264Y-96027733D01*
X143345935Y-96035404D01*
X143429596Y-96119065D01*
X143536827Y-96169068D01*
X143589709Y-96176030D01*
X143589511Y-96177532D01*
X143649193Y-96199371D01*
X143691410Y-96255044D01*
X143699500Y-96299098D01*
X143699500Y-97242372D01*
X143679815Y-97309411D01*
X143649134Y-97342142D01*
X143627850Y-97357850D01*
X143547207Y-97467117D01*
X143524842Y-97531033D01*
X143484120Y-97587808D01*
X143419167Y-97613555D01*
X143350605Y-97600098D01*
X143300203Y-97551711D01*
X143290095Y-97529081D01*
X143234358Y-97360880D01*
X143234356Y-97360875D01*
X143142315Y-97211654D01*
X143018345Y-97087684D01*
X142869124Y-96995643D01*
X142869119Y-96995641D01*
X142702697Y-96940494D01*
X142702690Y-96940493D01*
X142599986Y-96930000D01*
X142550000Y-96930000D01*
X142550000Y-99379999D01*
X142599972Y-99379999D01*
X142599986Y-99379998D01*
X142700614Y-99369718D01*
X142769307Y-99382487D01*
X142820191Y-99430368D01*
X142837112Y-99498158D01*
X142819949Y-99556196D01*
X142746843Y-99679813D01*
X142746843Y-99679814D01*
X142702789Y-99831446D01*
X142702788Y-99831452D01*
X142700000Y-99866881D01*
X142700000Y-99905000D01*
X143200000Y-99905000D01*
X143200000Y-99315472D01*
X143157311Y-99283420D01*
X143115519Y-99227426D01*
X143110635Y-99157727D01*
X143139363Y-99105212D01*
X143137839Y-99104007D01*
X143142315Y-99098346D01*
X143234356Y-98949124D01*
X143234359Y-98949117D01*
X143290094Y-98780918D01*
X143329866Y-98723473D01*
X143394382Y-98696649D01*
X143463158Y-98708964D01*
X143514358Y-98756506D01*
X143524841Y-98778965D01*
X143526147Y-98782697D01*
X143547207Y-98842882D01*
X143565534Y-98867714D01*
X143625616Y-98949124D01*
X143627850Y-98952150D01*
X143649132Y-98967857D01*
X143691384Y-99023503D01*
X143699500Y-99067628D01*
X143699500Y-100175186D01*
X143700000Y-100182816D01*
X143700000Y-100994525D01*
X143825185Y-100958156D01*
X143825191Y-100958154D01*
X143961108Y-100877773D01*
X143961116Y-100877767D01*
X144072765Y-100766118D01*
X144077549Y-100759951D01*
X144078612Y-100760776D01*
X144080915Y-100758626D01*
X144085633Y-100748296D01*
X144105995Y-100735209D01*
X144123686Y-100718693D01*
X144136378Y-100715684D01*
X144144411Y-100710522D01*
X144179341Y-100705499D01*
X144324166Y-100705499D01*
X144391205Y-100725184D01*
X144411847Y-100741818D01*
X144792925Y-101122896D01*
X144826410Y-101184219D01*
X144821426Y-101253911D01*
X144779554Y-101309844D01*
X144739840Y-101329653D01*
X144639804Y-101358716D01*
X144639803Y-101358717D01*
X144498447Y-101442314D01*
X144498438Y-101442321D01*
X144422151Y-101518609D01*
X144360828Y-101552094D01*
X144291136Y-101547110D01*
X144287017Y-101545489D01*
X144221687Y-101518428D01*
X144221683Y-101518427D01*
X144180000Y-101510135D01*
X144180000Y-102313011D01*
X144170060Y-102295795D01*
X144114205Y-102239940D01*
X144045796Y-102200444D01*
X143969496Y-102180000D01*
X143890504Y-102180000D01*
X143814204Y-102200444D01*
X143745795Y-102239940D01*
X143689940Y-102295795D01*
X143680000Y-102313011D01*
X143680000Y-101510136D01*
X143679999Y-101510135D01*
X143638316Y-101518427D01*
X143638308Y-101518429D01*
X143456328Y-101593807D01*
X143456315Y-101593814D01*
X143292537Y-101703248D01*
X143292533Y-101703251D01*
X143153251Y-101842533D01*
X143153248Y-101842537D01*
X143043814Y-102006315D01*
X143043807Y-102006328D01*
X142968430Y-102188306D01*
X142968427Y-102188318D01*
X142930000Y-102381504D01*
X142930000Y-102780000D01*
X143630000Y-102780000D01*
X143630000Y-103280000D01*
X142930000Y-103280000D01*
X142930000Y-103678495D01*
X142968427Y-103871681D01*
X142968430Y-103871693D01*
X143043807Y-104053671D01*
X143043814Y-104053684D01*
X143153248Y-104217462D01*
X143153251Y-104217466D01*
X143292533Y-104356748D01*
X143292537Y-104356751D01*
X143456315Y-104466185D01*
X143456328Y-104466192D01*
X143638308Y-104541569D01*
X143680000Y-104549862D01*
X143680000Y-103746988D01*
X143689940Y-103764205D01*
X143745795Y-103820060D01*
X143814204Y-103859556D01*
X143890504Y-103880000D01*
X143969496Y-103880000D01*
X144045796Y-103859556D01*
X144114205Y-103820060D01*
X144170060Y-103764205D01*
X144180000Y-103746988D01*
X144180000Y-104549862D01*
X144221690Y-104541569D01*
X144221692Y-104541569D01*
X144403671Y-104466192D01*
X144403684Y-104466185D01*
X144567462Y-104356751D01*
X144567466Y-104356748D01*
X144706748Y-104217466D01*
X144706751Y-104217462D01*
X144816181Y-104053690D01*
X144819037Y-104048346D01*
X144867993Y-103998495D01*
X144936128Y-103983025D01*
X145001811Y-104006847D01*
X145003895Y-104008412D01*
X145006632Y-104010512D01*
X145006635Y-104010515D01*
X145137865Y-104086281D01*
X145284234Y-104125500D01*
X145284236Y-104125500D01*
X145435764Y-104125500D01*
X145435766Y-104125500D01*
X145582135Y-104086281D01*
X145713365Y-104010515D01*
X145820515Y-103903365D01*
X145894352Y-103775475D01*
X145944918Y-103727261D01*
X146013525Y-103714038D01*
X146078390Y-103740006D01*
X146089419Y-103749796D01*
X146724134Y-104384511D01*
X146780083Y-104440460D01*
X146780085Y-104440461D01*
X146780089Y-104440464D01*
X146824640Y-104466185D01*
X146848605Y-104480021D01*
X146925032Y-104500500D01*
X146925034Y-104500500D01*
X149421970Y-104500500D01*
X149421972Y-104500500D01*
X149498399Y-104480021D01*
X149566921Y-104440460D01*
X149622870Y-104384511D01*
X150373985Y-103633394D01*
X150435306Y-103599911D01*
X150504997Y-103604895D01*
X150560931Y-103646766D01*
X150581438Y-103688981D01*
X150603719Y-103772135D01*
X150679485Y-103903365D01*
X150786635Y-104010515D01*
X150917865Y-104086281D01*
X151064234Y-104125500D01*
X151064236Y-104125500D01*
X151215764Y-104125500D01*
X151215766Y-104125500D01*
X151362135Y-104086281D01*
X151493365Y-104010515D01*
X151493373Y-104010506D01*
X151496105Y-104008412D01*
X151498834Y-104007356D01*
X151500403Y-104006451D01*
X151500544Y-104006695D01*
X151561274Y-103983215D01*
X151629719Y-103997251D01*
X151679710Y-104046064D01*
X151680955Y-104048335D01*
X151683812Y-104053680D01*
X151793248Y-104217462D01*
X151793251Y-104217466D01*
X151932533Y-104356748D01*
X151932537Y-104356751D01*
X152096315Y-104466185D01*
X152096328Y-104466192D01*
X152278308Y-104541569D01*
X152320000Y-104549862D01*
X152320000Y-103746988D01*
X152329940Y-103764205D01*
X152385795Y-103820060D01*
X152454204Y-103859556D01*
X152530504Y-103880000D01*
X152609496Y-103880000D01*
X152685796Y-103859556D01*
X152754205Y-103820060D01*
X152810060Y-103764205D01*
X152820000Y-103746988D01*
X152820000Y-104549862D01*
X152861690Y-104541569D01*
X152861692Y-104541569D01*
X153043671Y-104466192D01*
X153043684Y-104466185D01*
X153207462Y-104356751D01*
X153207466Y-104356748D01*
X153346748Y-104217466D01*
X153346751Y-104217462D01*
X153456185Y-104053684D01*
X153456192Y-104053671D01*
X153531569Y-103871693D01*
X153531572Y-103871681D01*
X153569999Y-103678495D01*
X153570000Y-103678492D01*
X153570000Y-103280000D01*
X152870000Y-103280000D01*
X152870000Y-102780000D01*
X153570000Y-102780000D01*
X153570000Y-102381508D01*
X153569999Y-102381504D01*
X153531572Y-102188318D01*
X153531569Y-102188306D01*
X153456192Y-102006328D01*
X153456185Y-102006315D01*
X153346751Y-101842537D01*
X153346748Y-101842533D01*
X153207466Y-101703251D01*
X153207462Y-101703248D01*
X153043684Y-101593814D01*
X153043671Y-101593807D01*
X152861691Y-101518429D01*
X152861683Y-101518427D01*
X152820000Y-101510135D01*
X152820000Y-102313011D01*
X152810060Y-102295795D01*
X152754205Y-102239940D01*
X152685796Y-102200444D01*
X152609496Y-102180000D01*
X152530504Y-102180000D01*
X152454204Y-102200444D01*
X152385795Y-102239940D01*
X152329940Y-102295795D01*
X152320000Y-102313011D01*
X152320000Y-101510136D01*
X152319999Y-101510135D01*
X152278316Y-101518427D01*
X152278313Y-101518428D01*
X152212980Y-101545489D01*
X152143510Y-101552956D01*
X152081032Y-101521681D01*
X152077848Y-101518608D01*
X152001561Y-101442321D01*
X152001552Y-101442314D01*
X151860196Y-101358717D01*
X151860193Y-101358716D01*
X151702494Y-101312900D01*
X151702497Y-101312900D01*
X151700000Y-101312703D01*
X151700000Y-102306000D01*
X151680315Y-102373039D01*
X151627511Y-102418794D01*
X151576000Y-102430000D01*
X151324000Y-102430000D01*
X151256961Y-102410315D01*
X151211206Y-102357511D01*
X151200000Y-102306000D01*
X151200000Y-101367859D01*
X151219685Y-101300820D01*
X151271593Y-101255478D01*
X151360404Y-101214065D01*
X151444065Y-101130404D01*
X151494068Y-101023173D01*
X151500500Y-100974316D01*
X151500500Y-100625684D01*
X151494068Y-100576827D01*
X151491496Y-100568002D01*
X151491634Y-100498132D01*
X151529525Y-100439429D01*
X151547426Y-100426568D01*
X151557288Y-100420735D01*
X151557294Y-100420731D01*
X151670731Y-100307294D01*
X151670738Y-100307285D01*
X151752404Y-100169194D01*
X151792844Y-100030000D01*
X151104000Y-100030000D01*
X151036961Y-100010315D01*
X150991206Y-99957511D01*
X150980000Y-99906000D01*
X150980000Y-99780000D01*
X150854000Y-99780000D01*
X150786961Y-99760315D01*
X150741206Y-99707511D01*
X150730000Y-99656000D01*
X150730000Y-99530000D01*
X151230000Y-99530000D01*
X151792844Y-99530000D01*
X151752404Y-99390805D01*
X151670738Y-99252714D01*
X151670731Y-99252705D01*
X151557294Y-99139268D01*
X151557285Y-99139261D01*
X151419191Y-99057593D01*
X151419188Y-99057592D01*
X151265130Y-99012834D01*
X151230000Y-99010068D01*
X151230000Y-99530000D01*
X150730000Y-99530000D01*
X150730000Y-99010068D01*
X150729999Y-99010068D01*
X150694869Y-99012834D01*
X150694868Y-99012834D01*
X150540811Y-99057592D01*
X150540808Y-99057593D01*
X150402709Y-99139264D01*
X150400498Y-99140980D01*
X150398448Y-99141784D01*
X150395996Y-99143235D01*
X150395762Y-99142839D01*
X150335461Y-99166514D01*
X150266944Y-99152832D01*
X150216701Y-99104279D01*
X150200500Y-99042999D01*
X150200500Y-98402989D01*
X150190573Y-98334858D01*
X150149030Y-98249879D01*
X150139198Y-98229767D01*
X150139196Y-98229765D01*
X150139196Y-98229764D01*
X150056485Y-98147053D01*
X149951391Y-98095676D01*
X149883261Y-98085750D01*
X149883260Y-98085750D01*
X149518033Y-98085750D01*
X149450994Y-98066065D01*
X149420051Y-98037747D01*
X149417679Y-98034689D01*
X149301561Y-97918571D01*
X149301552Y-97918564D01*
X149160196Y-97834967D01*
X149160193Y-97834966D01*
X149002494Y-97789150D01*
X149002497Y-97789150D01*
X149000000Y-97788953D01*
X149000000Y-100120972D01*
X149002927Y-100128822D01*
X149015286Y-100149483D01*
X149014916Y-100160966D01*
X149018932Y-100171731D01*
X149013814Y-100195255D01*
X149013041Y-100219317D01*
X149006140Y-100230532D01*
X149004080Y-100240004D01*
X148982929Y-100268259D01*
X148837680Y-100413507D01*
X148776357Y-100446991D01*
X148706665Y-100442007D01*
X148662318Y-100413506D01*
X148517070Y-100268258D01*
X148483585Y-100206935D01*
X148488569Y-100137243D01*
X148500000Y-100120201D01*
X148500000Y-97788953D01*
X148497503Y-97789150D01*
X148339806Y-97834966D01*
X148339803Y-97834967D01*
X148198447Y-97918564D01*
X148198442Y-97918568D01*
X148082316Y-98034695D01*
X148079944Y-98037754D01*
X148077475Y-98039536D01*
X148076802Y-98040210D01*
X148076693Y-98040101D01*
X148023300Y-98078659D01*
X147981967Y-98085750D01*
X147616739Y-98085750D01*
X147548608Y-98095676D01*
X147443514Y-98147053D01*
X147360803Y-98229764D01*
X147309426Y-98334858D01*
X147299500Y-98402989D01*
X147299500Y-99494510D01*
X147309426Y-99562641D01*
X147360803Y-99667735D01*
X147443515Y-99750447D01*
X147453759Y-99755455D01*
X147505342Y-99802582D01*
X147523300Y-99866856D01*
X147523300Y-99978934D01*
X147542155Y-100049304D01*
X147542155Y-100049305D01*
X147578581Y-100112393D01*
X147578587Y-100112402D01*
X148233781Y-100767595D01*
X148248484Y-100794522D01*
X148265077Y-100820341D01*
X148265968Y-100826541D01*
X148267266Y-100828918D01*
X148270100Y-100855276D01*
X148270100Y-101085500D01*
X148250415Y-101152539D01*
X148197611Y-101198294D01*
X148146100Y-101209500D01*
X147728028Y-101209500D01*
X147660629Y-101227559D01*
X147651597Y-101229980D01*
X147604719Y-101257045D01*
X147604715Y-101257048D01*
X147592557Y-101264068D01*
X147583079Y-101269540D01*
X147474087Y-101378531D01*
X147472445Y-101380059D01*
X147443124Y-101394715D01*
X147414358Y-101410423D01*
X147412033Y-101410256D01*
X147409948Y-101411299D01*
X147377368Y-101407777D01*
X147344666Y-101405439D01*
X147342798Y-101404041D01*
X147340483Y-101403791D01*
X147314974Y-101383211D01*
X147288733Y-101363567D01*
X147287918Y-101361384D01*
X147286104Y-101359920D01*
X147275770Y-101328813D01*
X147264316Y-101298103D01*
X147264165Y-101293878D01*
X147264077Y-101293613D01*
X147264145Y-101293343D01*
X147264000Y-101289257D01*
X147264000Y-101002488D01*
X147264000Y-101002487D01*
X147223808Y-100905456D01*
X147149544Y-100831192D01*
X147052513Y-100791000D01*
X146900715Y-100791000D01*
X146871274Y-100782355D01*
X146841288Y-100775832D01*
X146836272Y-100772077D01*
X146833676Y-100771315D01*
X146813034Y-100754681D01*
X146656819Y-100598466D01*
X146623334Y-100537143D01*
X146620500Y-100510785D01*
X146620500Y-100240683D01*
X146614068Y-100191827D01*
X146611496Y-100183002D01*
X146611634Y-100113132D01*
X146649525Y-100054429D01*
X146667426Y-100041568D01*
X146677288Y-100035735D01*
X146677294Y-100035731D01*
X146790731Y-99922294D01*
X146790738Y-99922285D01*
X146872404Y-99784194D01*
X146912844Y-99645000D01*
X145287156Y-99645000D01*
X145327595Y-99784194D01*
X145409261Y-99922285D01*
X145409268Y-99922294D01*
X145522705Y-100035731D01*
X145522711Y-100035736D01*
X145532575Y-100041569D01*
X145580260Y-100092637D01*
X145592766Y-100161379D01*
X145588505Y-100182994D01*
X145585932Y-100191822D01*
X145579500Y-100240683D01*
X145579500Y-100589316D01*
X145585931Y-100638171D01*
X145585932Y-100638173D01*
X145635935Y-100745404D01*
X145719596Y-100829065D01*
X145826827Y-100879068D01*
X145875683Y-100885500D01*
X145875684Y-100885500D01*
X146145786Y-100885500D01*
X146212825Y-100905185D01*
X146233466Y-100921818D01*
X146590456Y-101278809D01*
X146659067Y-101307228D01*
X146659484Y-101307400D01*
X146686524Y-101329202D01*
X146713717Y-101351028D01*
X146713762Y-101351164D01*
X146713874Y-101351254D01*
X146724863Y-101384300D01*
X146735912Y-101417279D01*
X146735916Y-101417537D01*
X146735922Y-101417553D01*
X146735917Y-101417570D01*
X146736000Y-101421948D01*
X146736000Y-101485871D01*
X146716315Y-101552910D01*
X146663511Y-101598665D01*
X146608224Y-101607884D01*
X146608225Y-101609500D01*
X146397870Y-101609500D01*
X146317504Y-101625485D01*
X146290719Y-101643383D01*
X146279457Y-101646908D01*
X146270341Y-101654396D01*
X146246728Y-101657156D01*
X146224041Y-101664260D01*
X146210908Y-101661344D01*
X146200944Y-101662509D01*
X146167355Y-101651673D01*
X146165658Y-101650843D01*
X146159514Y-101647839D01*
X146107938Y-101600705D01*
X146106603Y-101598448D01*
X146090462Y-101570492D01*
X146090457Y-101570486D01*
X144786819Y-100266848D01*
X144753334Y-100205525D01*
X144750500Y-100179167D01*
X144750500Y-100089110D01*
X144750500Y-100089108D01*
X144716392Y-99961814D01*
X144716388Y-99961807D01*
X144713281Y-99954304D01*
X144714616Y-99953751D01*
X144700500Y-99901062D01*
X144700500Y-99145000D01*
X145287156Y-99145000D01*
X145850000Y-99145000D01*
X146350000Y-99145000D01*
X146912844Y-99145000D01*
X146872404Y-99005805D01*
X146790738Y-98867714D01*
X146790731Y-98867705D01*
X146677294Y-98754268D01*
X146677285Y-98754261D01*
X146539191Y-98672593D01*
X146539188Y-98672592D01*
X146385130Y-98627834D01*
X146350000Y-98625068D01*
X146350000Y-99145000D01*
X145850000Y-99145000D01*
X145850000Y-98625068D01*
X145849999Y-98625068D01*
X145814869Y-98627834D01*
X145814868Y-98627834D01*
X145660811Y-98672592D01*
X145660808Y-98672593D01*
X145522714Y-98754261D01*
X145522705Y-98754268D01*
X145409268Y-98867705D01*
X145409261Y-98867714D01*
X145327595Y-99005805D01*
X145287156Y-99145000D01*
X144700500Y-99145000D01*
X144700500Y-99067628D01*
X144720185Y-99000589D01*
X144750866Y-98967857D01*
X144772150Y-98952150D01*
X144852793Y-98842882D01*
X144883017Y-98756506D01*
X144897646Y-98714701D01*
X144897646Y-98714699D01*
X144900500Y-98684269D01*
X144900500Y-97625730D01*
X144897646Y-97595300D01*
X144897646Y-97595298D01*
X144852793Y-97467119D01*
X144852792Y-97467117D01*
X144772150Y-97357850D01*
X144750865Y-97342141D01*
X144708615Y-97286494D01*
X144700500Y-97242372D01*
X144700500Y-96127989D01*
X147299500Y-96127989D01*
X147299500Y-97219510D01*
X147309426Y-97287641D01*
X147360803Y-97392735D01*
X147443514Y-97475446D01*
X147443515Y-97475446D01*
X147443517Y-97475448D01*
X147548607Y-97526823D01*
X147564105Y-97529081D01*
X147616739Y-97536750D01*
X147616740Y-97536750D01*
X147983261Y-97536750D01*
X148005971Y-97533441D01*
X148051393Y-97526823D01*
X148156483Y-97475448D01*
X148164814Y-97467117D01*
X148187319Y-97444613D01*
X148248642Y-97411128D01*
X148318334Y-97416112D01*
X148362681Y-97444613D01*
X148393514Y-97475446D01*
X148393515Y-97475446D01*
X148393517Y-97475448D01*
X148498607Y-97526823D01*
X148514105Y-97529081D01*
X148566739Y-97536750D01*
X148566740Y-97536750D01*
X148933261Y-97536750D01*
X148955971Y-97533441D01*
X149001393Y-97526823D01*
X149106483Y-97475448D01*
X149114814Y-97467117D01*
X149137319Y-97444613D01*
X149198642Y-97411128D01*
X149268334Y-97416112D01*
X149312681Y-97444613D01*
X149343514Y-97475446D01*
X149343515Y-97475446D01*
X149343517Y-97475448D01*
X149448607Y-97526823D01*
X149464105Y-97529081D01*
X149516739Y-97536750D01*
X149516740Y-97536750D01*
X149883261Y-97536750D01*
X149905971Y-97533441D01*
X149951393Y-97526823D01*
X150056483Y-97475448D01*
X150139198Y-97392733D01*
X150190573Y-97287643D01*
X150200500Y-97219510D01*
X150200500Y-96127990D01*
X150199199Y-96119064D01*
X150190573Y-96059858D01*
X150188443Y-96055500D01*
X150139198Y-95954767D01*
X150139196Y-95954765D01*
X150139196Y-95954764D01*
X150056485Y-95872053D01*
X149951391Y-95820676D01*
X149883261Y-95810750D01*
X149883260Y-95810750D01*
X149516740Y-95810750D01*
X149516739Y-95810750D01*
X149448608Y-95820676D01*
X149343514Y-95872053D01*
X149312681Y-95902887D01*
X149251358Y-95936372D01*
X149181666Y-95931388D01*
X149137319Y-95902887D01*
X149106485Y-95872053D01*
X149001391Y-95820676D01*
X148933261Y-95810750D01*
X148933260Y-95810750D01*
X148566740Y-95810750D01*
X148566739Y-95810750D01*
X148498608Y-95820676D01*
X148393514Y-95872053D01*
X148362681Y-95902887D01*
X148301358Y-95936372D01*
X148231666Y-95931388D01*
X148187319Y-95902887D01*
X148156485Y-95872053D01*
X148051391Y-95820676D01*
X147983261Y-95810750D01*
X147983260Y-95810750D01*
X147616740Y-95810750D01*
X147616739Y-95810750D01*
X147548608Y-95820676D01*
X147443514Y-95872053D01*
X147360803Y-95954764D01*
X147309426Y-96059858D01*
X147299500Y-96127989D01*
X144700500Y-96127989D01*
X144700500Y-95638807D01*
X144720185Y-95571768D01*
X144772989Y-95526013D01*
X144842147Y-95516069D01*
X144905703Y-95545094D01*
X144931886Y-95576805D01*
X144949500Y-95607314D01*
X145042686Y-95700500D01*
X145156814Y-95766392D01*
X145284108Y-95800500D01*
X145284110Y-95800500D01*
X145415890Y-95800500D01*
X145415892Y-95800500D01*
X145543186Y-95766392D01*
X145657314Y-95700500D01*
X145750500Y-95607314D01*
X145816392Y-95493186D01*
X145850500Y-95365892D01*
X145850500Y-95234108D01*
X145850500Y-95225981D01*
X145853638Y-95225981D01*
X145862113Y-95171584D01*
X145886610Y-95136740D01*
X146583350Y-94440000D01*
X147687156Y-94440000D01*
X147727595Y-94579194D01*
X147809261Y-94717285D01*
X147809268Y-94717294D01*
X147922705Y-94830731D01*
X147922714Y-94830738D01*
X148060808Y-94912406D01*
X148060811Y-94912407D01*
X148214871Y-94957166D01*
X148214877Y-94957167D01*
X148250000Y-94959931D01*
X148250000Y-94959930D01*
X148750000Y-94959930D01*
X148785122Y-94957167D01*
X148785128Y-94957166D01*
X148939189Y-94912407D01*
X148939192Y-94912406D01*
X148971877Y-94893076D01*
X149039601Y-94875892D01*
X149098123Y-94893076D01*
X149130807Y-94912406D01*
X149130810Y-94912407D01*
X149284871Y-94957166D01*
X149284877Y-94957167D01*
X149320000Y-94959931D01*
X149320000Y-94959930D01*
X149820000Y-94959930D01*
X149855122Y-94957167D01*
X149855128Y-94957166D01*
X150009189Y-94912407D01*
X150009192Y-94912406D01*
X150046877Y-94890119D01*
X150114601Y-94872935D01*
X150173123Y-94890119D01*
X150210807Y-94912406D01*
X150210810Y-94912407D01*
X150364871Y-94957166D01*
X150364877Y-94957167D01*
X150400000Y-94959931D01*
X150400000Y-94440000D01*
X149820000Y-94440000D01*
X149820000Y-94959930D01*
X149320000Y-94959930D01*
X149320000Y-94440000D01*
X148750000Y-94440000D01*
X148750000Y-94959930D01*
X148250000Y-94959930D01*
X148250000Y-94440000D01*
X147687156Y-94440000D01*
X146583350Y-94440000D01*
X147767820Y-93255530D01*
X147829142Y-93222047D01*
X147898834Y-93227031D01*
X147954767Y-93268903D01*
X147978141Y-93324903D01*
X147979500Y-93334005D01*
X147979500Y-93344316D01*
X147985932Y-93393173D01*
X147989464Y-93400749D01*
X147992098Y-93418386D01*
X147988417Y-93445002D01*
X147988363Y-93471873D01*
X147983704Y-93479089D01*
X147982528Y-93487597D01*
X147965043Y-93507997D01*
X147950469Y-93530574D01*
X147938037Y-93539505D01*
X147937059Y-93540648D01*
X147936011Y-93540961D01*
X147932582Y-93543426D01*
X147922708Y-93549265D01*
X147922708Y-93549266D01*
X147809268Y-93662705D01*
X147809261Y-93662714D01*
X147727595Y-93800805D01*
X147687156Y-93940000D01*
X150526000Y-93940000D01*
X150593039Y-93959685D01*
X150638794Y-94012489D01*
X150650000Y-94064000D01*
X150650000Y-94190000D01*
X150776000Y-94190000D01*
X150843039Y-94209685D01*
X150888794Y-94262489D01*
X150900000Y-94314000D01*
X150900000Y-94959930D01*
X150935122Y-94957167D01*
X150935125Y-94957166D01*
X151032905Y-94928758D01*
X151102774Y-94928957D01*
X151155182Y-94960153D01*
X151564505Y-95369476D01*
X151597990Y-95430799D01*
X151593866Y-95498110D01*
X151577354Y-95545298D01*
X151577353Y-95545305D01*
X151574500Y-95575730D01*
X151574500Y-96184269D01*
X151577353Y-96214699D01*
X151577353Y-96214701D01*
X151619384Y-96334815D01*
X151622207Y-96342882D01*
X151702850Y-96452150D01*
X151812118Y-96532793D01*
X151854845Y-96547744D01*
X151940299Y-96577646D01*
X151970730Y-96580500D01*
X151970734Y-96580500D01*
X153029270Y-96580500D01*
X153059699Y-96577646D01*
X153059701Y-96577646D01*
X153131254Y-96552608D01*
X153187882Y-96532793D01*
X153201867Y-96522471D01*
X153267495Y-96498501D01*
X153335665Y-96513816D01*
X153384734Y-96563556D01*
X153399500Y-96622242D01*
X153399500Y-100869562D01*
X153409118Y-100905456D01*
X153419979Y-100945989D01*
X153436332Y-100974312D01*
X153436333Y-100974316D01*
X153436334Y-100974316D01*
X153459539Y-101014510D01*
X154763181Y-102318152D01*
X154796666Y-102379475D01*
X154799500Y-102405833D01*
X154799500Y-103562252D01*
X154811131Y-103620729D01*
X154811132Y-103620730D01*
X154855447Y-103687052D01*
X154921769Y-103731367D01*
X154921770Y-103731368D01*
X154980247Y-103742999D01*
X154980250Y-103743000D01*
X154980252Y-103743000D01*
X158019750Y-103743000D01*
X158019751Y-103742999D01*
X158034800Y-103740006D01*
X158078229Y-103731368D01*
X158078229Y-103731367D01*
X158078231Y-103731367D01*
X158144552Y-103687052D01*
X158188867Y-103620731D01*
X158188867Y-103620729D01*
X158188868Y-103620729D01*
X158200499Y-103562252D01*
X158200500Y-103562250D01*
X158200500Y-103368872D01*
X166499500Y-103368872D01*
X166499500Y-103631127D01*
X166518505Y-103775477D01*
X166533730Y-103891116D01*
X166596533Y-104125500D01*
X166601602Y-104144418D01*
X166601605Y-104144428D01*
X166701953Y-104386690D01*
X166701958Y-104386700D01*
X166833075Y-104613803D01*
X166992718Y-104821851D01*
X166992726Y-104821860D01*
X167178140Y-105007274D01*
X167178148Y-105007281D01*
X167386196Y-105166924D01*
X167613299Y-105298041D01*
X167613309Y-105298046D01*
X167855571Y-105398394D01*
X167855581Y-105398398D01*
X168108884Y-105466270D01*
X168368880Y-105500500D01*
X168368887Y-105500500D01*
X168631113Y-105500500D01*
X168631120Y-105500500D01*
X168891116Y-105466270D01*
X169144419Y-105398398D01*
X169386697Y-105298043D01*
X169613803Y-105166924D01*
X169821851Y-105007282D01*
X169821855Y-105007277D01*
X169821860Y-105007274D01*
X170007274Y-104821860D01*
X170007277Y-104821855D01*
X170007282Y-104821851D01*
X170166924Y-104613803D01*
X170298043Y-104386697D01*
X170298949Y-104384511D01*
X170368141Y-104217466D01*
X170398398Y-104144419D01*
X170466270Y-103891116D01*
X170500500Y-103631120D01*
X170500500Y-103368880D01*
X170466270Y-103108884D01*
X170398398Y-102855581D01*
X170398394Y-102855571D01*
X170298046Y-102613309D01*
X170298041Y-102613299D01*
X170166924Y-102386196D01*
X170007281Y-102178148D01*
X170007274Y-102178140D01*
X169821860Y-101992726D01*
X169821851Y-101992718D01*
X169613803Y-101833075D01*
X169386700Y-101701958D01*
X169386690Y-101701953D01*
X169144428Y-101601605D01*
X169144421Y-101601603D01*
X169144419Y-101601602D01*
X168891116Y-101533730D01*
X168833339Y-101526123D01*
X168631127Y-101499500D01*
X168631120Y-101499500D01*
X168368880Y-101499500D01*
X168368872Y-101499500D01*
X168137772Y-101529926D01*
X168108884Y-101533730D01*
X167884646Y-101593814D01*
X167855581Y-101601602D01*
X167855571Y-101601605D01*
X167613309Y-101701953D01*
X167613299Y-101701958D01*
X167386196Y-101833075D01*
X167178148Y-101992718D01*
X166992718Y-102178148D01*
X166833075Y-102386196D01*
X166701958Y-102613299D01*
X166701953Y-102613309D01*
X166601605Y-102855571D01*
X166601602Y-102855581D01*
X166533730Y-103108885D01*
X166499500Y-103368872D01*
X158200500Y-103368872D01*
X158200500Y-102022749D01*
X158200499Y-102022747D01*
X158188868Y-101964270D01*
X158188867Y-101964269D01*
X158144552Y-101897947D01*
X158078230Y-101853632D01*
X158078229Y-101853631D01*
X158019752Y-101842000D01*
X158019748Y-101842000D01*
X155188333Y-101842000D01*
X155121294Y-101822315D01*
X155100652Y-101805681D01*
X154036819Y-100741848D01*
X154003334Y-100680525D01*
X154000500Y-100654167D01*
X154000500Y-95140439D01*
X153998909Y-95134500D01*
X153980021Y-95064011D01*
X153978213Y-95060880D01*
X153940464Y-94995495D01*
X153940458Y-94995487D01*
X153435493Y-94490522D01*
X153402008Y-94429199D01*
X153406132Y-94361890D01*
X153422646Y-94314699D01*
X153425500Y-94284266D01*
X153425500Y-93675734D01*
X153422646Y-93645301D01*
X153422646Y-93645300D01*
X153422646Y-93645298D01*
X153389006Y-93549163D01*
X153377793Y-93517118D01*
X153297150Y-93407850D01*
X153187882Y-93327207D01*
X153187880Y-93327206D01*
X153059700Y-93282353D01*
X153029270Y-93279500D01*
X153029266Y-93279500D01*
X151970734Y-93279500D01*
X151970730Y-93279500D01*
X151940300Y-93282353D01*
X151940298Y-93282353D01*
X151812119Y-93327206D01*
X151812115Y-93327208D01*
X151808130Y-93330150D01*
X151795871Y-93334627D01*
X151786011Y-93343171D01*
X151763689Y-93346380D01*
X151742501Y-93354119D01*
X151729768Y-93351257D01*
X151716853Y-93353115D01*
X151696337Y-93343745D01*
X151674331Y-93338801D01*
X151665166Y-93329510D01*
X151653297Y-93324090D01*
X151641103Y-93305116D01*
X151625264Y-93289059D01*
X151621712Y-93274943D01*
X151615523Y-93265312D01*
X151610500Y-93230377D01*
X151610500Y-92995833D01*
X151630185Y-92928794D01*
X151646819Y-92908152D01*
X151902459Y-92652512D01*
X152190460Y-92364511D01*
X152230022Y-92295988D01*
X152250500Y-92219562D01*
X152250500Y-92219553D01*
X152251561Y-92211502D01*
X152252932Y-92211682D01*
X152270185Y-92152928D01*
X152286819Y-92132286D01*
X152294551Y-92124553D01*
X152294552Y-92124552D01*
X152338867Y-92058231D01*
X152338867Y-92058229D01*
X152338868Y-92058229D01*
X152347552Y-92014568D01*
X152350500Y-91999748D01*
X152350500Y-90750833D01*
X152370185Y-90683794D01*
X152422989Y-90638039D01*
X152492147Y-90628095D01*
X152555703Y-90657120D01*
X152562181Y-90663152D01*
X154221181Y-92322152D01*
X154254666Y-92383475D01*
X154257500Y-92409833D01*
X154257500Y-93255071D01*
X154240888Y-93317070D01*
X154204979Y-93379266D01*
X154194739Y-93417480D01*
X154184500Y-93455694D01*
X154184500Y-94504306D01*
X154192890Y-94535617D01*
X154204979Y-94580735D01*
X154204981Y-94580738D01*
X154231978Y-94627497D01*
X154231981Y-94627501D01*
X154240889Y-94642931D01*
X154240900Y-94642978D01*
X154257500Y-94704928D01*
X154257500Y-94967562D01*
X154264232Y-94992686D01*
X154277979Y-95043990D01*
X154277980Y-95043991D01*
X154302227Y-95085988D01*
X154302228Y-95085989D01*
X154317539Y-95112510D01*
X154574505Y-95369476D01*
X154607990Y-95430799D01*
X154603866Y-95498110D01*
X154587354Y-95545298D01*
X154587353Y-95545305D01*
X154584500Y-95575730D01*
X154584500Y-96184269D01*
X154587353Y-96214699D01*
X154587353Y-96214701D01*
X154629384Y-96334815D01*
X154632207Y-96342882D01*
X154712850Y-96452150D01*
X154822118Y-96532793D01*
X154864845Y-96547744D01*
X154950299Y-96577646D01*
X154980730Y-96580500D01*
X154980734Y-96580500D01*
X156039269Y-96580500D01*
X156063922Y-96578188D01*
X156132507Y-96591527D01*
X156182992Y-96639828D01*
X156199500Y-96701646D01*
X156199500Y-97718000D01*
X156179815Y-97785039D01*
X156127011Y-97830794D01*
X156075500Y-97842000D01*
X154980247Y-97842000D01*
X154921770Y-97853631D01*
X154921769Y-97853632D01*
X154855447Y-97897947D01*
X154811132Y-97964269D01*
X154811131Y-97964270D01*
X154799500Y-98022747D01*
X154799500Y-99562252D01*
X154811131Y-99620729D01*
X154811132Y-99620730D01*
X154855447Y-99687052D01*
X154921769Y-99731367D01*
X154921770Y-99731368D01*
X154980247Y-99742999D01*
X154980250Y-99743000D01*
X154980252Y-99743000D01*
X158019750Y-99743000D01*
X158019751Y-99742999D01*
X158034568Y-99740052D01*
X158078229Y-99731368D01*
X158078229Y-99731367D01*
X158078231Y-99731367D01*
X158144552Y-99687052D01*
X158188867Y-99620731D01*
X158188867Y-99620729D01*
X158188868Y-99620729D01*
X158198790Y-99570843D01*
X158200500Y-99562248D01*
X158200500Y-98022752D01*
X158200500Y-98022749D01*
X158200499Y-98022747D01*
X158188868Y-97964270D01*
X158188867Y-97964269D01*
X158144552Y-97897947D01*
X158078230Y-97853632D01*
X158078229Y-97853631D01*
X158019752Y-97842000D01*
X158019748Y-97842000D01*
X156924500Y-97842000D01*
X156857461Y-97822315D01*
X156811706Y-97769511D01*
X156800500Y-97718000D01*
X156800500Y-94930439D01*
X156800500Y-94930438D01*
X156780021Y-94854011D01*
X156780017Y-94854004D01*
X156740464Y-94785495D01*
X156740458Y-94785487D01*
X156445493Y-94490522D01*
X156412008Y-94429199D01*
X156416132Y-94361890D01*
X156432646Y-94314699D01*
X156435500Y-94284266D01*
X156435500Y-94120089D01*
X156455185Y-94053050D01*
X156507989Y-94007295D01*
X156577147Y-93997351D01*
X156640703Y-94026376D01*
X156647181Y-94032408D01*
X157483181Y-94868408D01*
X157516666Y-94929731D01*
X157519500Y-94956089D01*
X157519500Y-96349562D01*
X157533124Y-96400406D01*
X157539979Y-96425990D01*
X157552382Y-96447472D01*
X157564786Y-96468956D01*
X157574517Y-96485811D01*
X157579539Y-96494510D01*
X160540981Y-99455952D01*
X160574466Y-99517275D01*
X160569482Y-99586967D01*
X160527610Y-99642900D01*
X160462146Y-99667317D01*
X160393873Y-99652465D01*
X160384409Y-99646735D01*
X160355501Y-99627419D01*
X160355488Y-99627412D01*
X160218917Y-99570843D01*
X160218907Y-99570840D01*
X160073920Y-99542000D01*
X160073918Y-99542000D01*
X159926082Y-99542000D01*
X159926080Y-99542000D01*
X159781092Y-99570840D01*
X159781082Y-99570843D01*
X159644511Y-99627412D01*
X159644498Y-99627419D01*
X159521584Y-99709548D01*
X159521580Y-99709551D01*
X159417051Y-99814080D01*
X159417048Y-99814084D01*
X159334919Y-99936998D01*
X159334912Y-99937011D01*
X159278343Y-100073582D01*
X159278340Y-100073592D01*
X159249500Y-100218579D01*
X159249500Y-100218582D01*
X159249500Y-100366418D01*
X159249500Y-100366420D01*
X159249499Y-100366420D01*
X159278340Y-100511407D01*
X159278343Y-100511417D01*
X159334912Y-100647988D01*
X159334919Y-100648001D01*
X159417048Y-100770915D01*
X159417051Y-100770919D01*
X159521580Y-100875448D01*
X159521584Y-100875451D01*
X159644498Y-100957580D01*
X159644511Y-100957587D01*
X159752913Y-101002488D01*
X159781087Y-101014158D01*
X159781091Y-101014158D01*
X159781092Y-101014159D01*
X159926079Y-101043000D01*
X159926082Y-101043000D01*
X160073920Y-101043000D01*
X160173603Y-101023171D01*
X160218913Y-101014158D01*
X160355495Y-100957584D01*
X160478416Y-100875451D01*
X160582951Y-100770916D01*
X160665084Y-100647995D01*
X160674326Y-100625684D01*
X160677902Y-100617047D01*
X160721658Y-100511413D01*
X160739695Y-100420736D01*
X160750500Y-100366420D01*
X160750500Y-100218579D01*
X160721659Y-100073592D01*
X160721658Y-100073591D01*
X160721658Y-100073587D01*
X160708395Y-100041568D01*
X160665087Y-99937011D01*
X160665085Y-99937007D01*
X160665084Y-99937005D01*
X160663269Y-99934288D01*
X160645764Y-99908090D01*
X160624886Y-99841413D01*
X160643370Y-99774033D01*
X160695349Y-99727342D01*
X160764319Y-99716166D01*
X160828383Y-99744051D01*
X160836547Y-99751518D01*
X161709540Y-100624511D01*
X161765489Y-100680460D01*
X161765491Y-100680461D01*
X161765495Y-100680464D01*
X161808910Y-100705529D01*
X161834011Y-100720021D01*
X161910438Y-100740500D01*
X161910440Y-100740500D01*
X165619560Y-100740500D01*
X165619562Y-100740500D01*
X165695989Y-100720021D01*
X165764511Y-100680460D01*
X165820460Y-100624511D01*
X171420460Y-95024511D01*
X171446435Y-94979520D01*
X171460021Y-94955989D01*
X171480500Y-94879562D01*
X171480500Y-87539398D01*
X171460021Y-87462971D01*
X171444459Y-87436017D01*
X171420464Y-87394455D01*
X171420458Y-87394447D01*
X170285550Y-86259539D01*
X170255069Y-86241941D01*
X170255067Y-86241940D01*
X170241314Y-86234000D01*
X170217029Y-86219979D01*
X170140602Y-86199500D01*
X170101007Y-86199500D01*
X170084842Y-86195047D01*
X170068816Y-86185124D01*
X170050736Y-86179815D01*
X170034523Y-86163889D01*
X170025438Y-86158264D01*
X170022475Y-86152055D01*
X170014673Y-86144391D01*
X169985858Y-86101267D01*
X169985855Y-86101263D01*
X169972273Y-86087681D01*
X169938788Y-86026358D01*
X169943772Y-85956666D01*
X169972273Y-85912319D01*
X169985855Y-85898736D01*
X169985858Y-85898733D01*
X170054311Y-85796286D01*
X170101463Y-85682452D01*
X170125500Y-85561606D01*
X170125500Y-85438394D01*
X170101463Y-85317548D01*
X170054311Y-85203714D01*
X170054310Y-85203713D01*
X170054307Y-85203707D01*
X169985858Y-85101267D01*
X169985855Y-85101263D01*
X169972273Y-85087681D01*
X169938788Y-85026358D01*
X169943772Y-84956666D01*
X169972273Y-84912319D01*
X169985855Y-84898736D01*
X169985858Y-84898733D01*
X170054311Y-84796286D01*
X170101463Y-84682452D01*
X170125500Y-84561606D01*
X170125500Y-84438394D01*
X170101463Y-84317548D01*
X170054311Y-84203714D01*
X170054310Y-84203713D01*
X170054307Y-84203707D01*
X169985858Y-84101267D01*
X169985855Y-84101263D01*
X169972273Y-84087681D01*
X169938788Y-84026358D01*
X169943772Y-83956666D01*
X169972273Y-83912319D01*
X169985855Y-83898736D01*
X169985858Y-83898733D01*
X170054311Y-83796286D01*
X170101463Y-83682452D01*
X170125500Y-83561606D01*
X170125500Y-83438394D01*
X170101463Y-83317548D01*
X170054311Y-83203714D01*
X170054310Y-83203713D01*
X170054307Y-83203707D01*
X169985858Y-83101267D01*
X169985855Y-83101263D01*
X169972273Y-83087681D01*
X169938788Y-83026358D01*
X169943772Y-82956666D01*
X169972273Y-82912319D01*
X169985855Y-82898736D01*
X169985858Y-82898733D01*
X170054311Y-82796286D01*
X170101463Y-82682452D01*
X170125500Y-82561606D01*
X170125500Y-82438394D01*
X170101463Y-82317548D01*
X170054311Y-82203714D01*
X170054310Y-82203713D01*
X170054307Y-82203707D01*
X169985858Y-82101267D01*
X169985855Y-82101263D01*
X169972273Y-82087681D01*
X169938788Y-82026358D01*
X169943772Y-81956666D01*
X169972273Y-81912319D01*
X169985855Y-81898736D01*
X169985858Y-81898733D01*
X170054311Y-81796286D01*
X170101463Y-81682452D01*
X170125500Y-81561606D01*
X170125500Y-81438394D01*
X170101463Y-81317548D01*
X170060154Y-81217819D01*
X170054312Y-81203716D01*
X170054307Y-81203707D01*
X169985858Y-81101267D01*
X169985855Y-81101263D01*
X169972273Y-81087681D01*
X169938788Y-81026358D01*
X169943772Y-80956666D01*
X169972273Y-80912319D01*
X169985855Y-80898736D01*
X169985858Y-80898733D01*
X170054311Y-80796286D01*
X170101463Y-80682452D01*
X170125500Y-80561606D01*
X170125500Y-80438394D01*
X170101463Y-80317548D01*
X170054311Y-80203714D01*
X170054310Y-80203713D01*
X170054307Y-80203707D01*
X169985858Y-80101267D01*
X169985855Y-80101263D01*
X169972273Y-80087681D01*
X169938788Y-80026358D01*
X169943772Y-79956666D01*
X169972273Y-79912319D01*
X169985855Y-79898736D01*
X169985858Y-79898733D01*
X170054311Y-79796286D01*
X170101463Y-79682452D01*
X170125500Y-79561606D01*
X170125500Y-79438394D01*
X170101463Y-79317548D01*
X170063020Y-79224739D01*
X170054312Y-79203716D01*
X170054307Y-79203707D01*
X169985858Y-79101267D01*
X169985855Y-79101263D01*
X169972273Y-79087681D01*
X169938788Y-79026358D01*
X169943772Y-78956666D01*
X169972273Y-78912319D01*
X169985855Y-78898736D01*
X169985858Y-78898733D01*
X170054311Y-78796286D01*
X170101463Y-78682452D01*
X170125500Y-78561606D01*
X170125500Y-78438394D01*
X170101463Y-78317548D01*
X170057122Y-78210500D01*
X170054312Y-78203716D01*
X170054307Y-78203707D01*
X169985858Y-78101267D01*
X169985855Y-78101263D01*
X169972273Y-78087681D01*
X169938788Y-78026358D01*
X169943772Y-77956666D01*
X169972273Y-77912319D01*
X169985855Y-77898736D01*
X169985858Y-77898733D01*
X170054311Y-77796286D01*
X170101463Y-77682452D01*
X170125500Y-77561606D01*
X170125500Y-77438394D01*
X170101463Y-77317548D01*
X170054311Y-77203714D01*
X170054310Y-77203713D01*
X170054307Y-77203707D01*
X169985858Y-77101267D01*
X169985855Y-77101263D01*
X169972273Y-77087681D01*
X169938788Y-77026358D01*
X169943772Y-76956666D01*
X169972273Y-76912319D01*
X169985855Y-76898736D01*
X169985858Y-76898733D01*
X170054311Y-76796286D01*
X170101463Y-76682452D01*
X170125500Y-76561606D01*
X170125500Y-76438394D01*
X170101463Y-76317548D01*
X170054311Y-76203714D01*
X170054310Y-76203713D01*
X170054307Y-76203707D01*
X169985858Y-76101267D01*
X169985855Y-76101263D01*
X169972273Y-76087681D01*
X169938788Y-76026358D01*
X169943772Y-75956666D01*
X169972273Y-75912319D01*
X169985855Y-75898736D01*
X169985858Y-75898733D01*
X170054311Y-75796286D01*
X170101463Y-75682452D01*
X170125500Y-75561606D01*
X170125500Y-75438394D01*
X170101463Y-75317548D01*
X170056811Y-75209750D01*
X170054312Y-75203716D01*
X170054307Y-75203707D01*
X169985858Y-75101267D01*
X169985855Y-75101263D01*
X169972273Y-75087681D01*
X169938788Y-75026358D01*
X169943772Y-74956666D01*
X169972273Y-74912319D01*
X169985855Y-74898736D01*
X169985858Y-74898733D01*
X170054311Y-74796286D01*
X170101463Y-74682452D01*
X170125500Y-74561606D01*
X170125500Y-74438394D01*
X170101463Y-74317548D01*
X170054311Y-74203714D01*
X170054310Y-74203713D01*
X170054307Y-74203707D01*
X169985858Y-74101267D01*
X169985855Y-74101263D01*
X169972273Y-74087681D01*
X169938788Y-74026358D01*
X169943772Y-73956666D01*
X169972273Y-73912319D01*
X169985855Y-73898736D01*
X169985858Y-73898733D01*
X170054311Y-73796286D01*
X170101463Y-73682452D01*
X170125500Y-73561606D01*
X170125500Y-73438394D01*
X170101463Y-73317548D01*
X170054311Y-73203714D01*
X170054310Y-73203713D01*
X170054307Y-73203707D01*
X169985858Y-73101267D01*
X169985855Y-73101263D01*
X169972273Y-73087681D01*
X169938788Y-73026358D01*
X169943772Y-72956666D01*
X169972273Y-72912319D01*
X169985855Y-72898736D01*
X169985858Y-72898733D01*
X170054311Y-72796286D01*
X170101463Y-72682452D01*
X170125500Y-72561606D01*
X170125500Y-72438394D01*
X170101463Y-72317548D01*
X170054311Y-72203714D01*
X170054310Y-72203713D01*
X170054307Y-72203707D01*
X169985858Y-72101267D01*
X169985855Y-72101263D01*
X169972273Y-72087681D01*
X169938788Y-72026358D01*
X169943772Y-71956666D01*
X169972273Y-71912319D01*
X169985855Y-71898736D01*
X169985858Y-71898733D01*
X170054311Y-71796286D01*
X170101463Y-71682452D01*
X170125500Y-71561606D01*
X170125500Y-71461556D01*
X170145185Y-71394517D01*
X170175189Y-71362290D01*
X170282187Y-71282190D01*
X170282190Y-71282187D01*
X170368350Y-71167093D01*
X170368354Y-71167086D01*
X170418596Y-71032379D01*
X170418598Y-71032372D01*
X170424999Y-70972844D01*
X170425000Y-70972827D01*
X170425000Y-70750000D01*
X169549728Y-70750000D01*
X169641614Y-70711940D01*
X169711940Y-70641614D01*
X169750000Y-70549728D01*
X169750000Y-70450272D01*
X169711940Y-70358386D01*
X169641614Y-70288060D01*
X169549728Y-70250000D01*
X169750000Y-70250000D01*
X170425000Y-70250000D01*
X170425000Y-70027172D01*
X170424999Y-70027155D01*
X170418598Y-69967627D01*
X170418596Y-69967620D01*
X170368354Y-69832913D01*
X170368350Y-69832906D01*
X170282190Y-69717812D01*
X170282187Y-69717809D01*
X170167093Y-69631649D01*
X170167086Y-69631645D01*
X170032379Y-69581403D01*
X170032372Y-69581401D01*
X169972844Y-69575000D01*
X169750000Y-69575000D01*
X169750000Y-70250000D01*
X169549728Y-70250000D01*
X169450272Y-70250000D01*
X169358386Y-70288060D01*
X169288060Y-70358386D01*
X169250000Y-70450272D01*
X169250000Y-70549728D01*
X169288060Y-70641614D01*
X169358386Y-70711940D01*
X169450272Y-70750000D01*
X168575000Y-70750000D01*
X168575000Y-70972844D01*
X168581401Y-71032372D01*
X168581403Y-71032379D01*
X168631645Y-71167086D01*
X168631649Y-71167093D01*
X168717809Y-71282187D01*
X168717812Y-71282190D01*
X168824811Y-71362290D01*
X168866682Y-71418223D01*
X168874500Y-71461556D01*
X168874500Y-71530167D01*
X168854815Y-71597206D01*
X168802011Y-71642961D01*
X168732853Y-71652905D01*
X168669297Y-71623880D01*
X168662819Y-71617848D01*
X168226819Y-71181848D01*
X168193334Y-71120525D01*
X168190500Y-71094167D01*
X168190500Y-70027155D01*
X168575000Y-70027155D01*
X168575000Y-70250000D01*
X169250000Y-70250000D01*
X169250000Y-69575000D01*
X169027155Y-69575000D01*
X168967627Y-69581401D01*
X168967620Y-69581403D01*
X168832913Y-69631645D01*
X168832906Y-69631649D01*
X168717812Y-69717809D01*
X168717809Y-69717812D01*
X168631649Y-69832906D01*
X168631645Y-69832913D01*
X168581403Y-69967620D01*
X168581401Y-69967627D01*
X168575000Y-70027155D01*
X168190500Y-70027155D01*
X168190500Y-68170439D01*
X168184891Y-68149506D01*
X168170021Y-68094011D01*
X168143083Y-68047352D01*
X168130464Y-68025495D01*
X168130458Y-68025487D01*
X163866819Y-63761848D01*
X163833334Y-63700525D01*
X163830500Y-63674167D01*
X163830500Y-62368872D01*
X166499500Y-62368872D01*
X166499500Y-62631127D01*
X166519334Y-62781769D01*
X166533730Y-62891116D01*
X166601602Y-63144418D01*
X166601605Y-63144428D01*
X166701953Y-63386690D01*
X166701958Y-63386700D01*
X166833075Y-63613803D01*
X166992718Y-63821851D01*
X166992726Y-63821860D01*
X167178140Y-64007274D01*
X167178148Y-64007281D01*
X167178149Y-64007282D01*
X167226554Y-64044424D01*
X167386196Y-64166924D01*
X167613299Y-64298041D01*
X167613309Y-64298046D01*
X167855571Y-64398394D01*
X167855581Y-64398398D01*
X168108884Y-64466270D01*
X168368880Y-64500500D01*
X168368887Y-64500500D01*
X168631113Y-64500500D01*
X168631120Y-64500500D01*
X168891116Y-64466270D01*
X169144419Y-64398398D01*
X169343425Y-64315967D01*
X169386690Y-64298046D01*
X169386691Y-64298045D01*
X169386697Y-64298043D01*
X169613803Y-64166924D01*
X169821851Y-64007282D01*
X169821855Y-64007277D01*
X169821860Y-64007274D01*
X170007274Y-63821860D01*
X170007277Y-63821855D01*
X170007282Y-63821851D01*
X170166924Y-63613803D01*
X170298043Y-63386697D01*
X170398398Y-63144419D01*
X170466270Y-62891116D01*
X170500500Y-62631120D01*
X170500500Y-62368880D01*
X170466270Y-62108884D01*
X170398398Y-61855581D01*
X170375185Y-61799540D01*
X170298046Y-61613309D01*
X170298041Y-61613299D01*
X170166924Y-61386196D01*
X170019829Y-61194500D01*
X170007282Y-61178149D01*
X170007281Y-61178148D01*
X170007274Y-61178140D01*
X169821860Y-60992726D01*
X169821851Y-60992718D01*
X169613803Y-60833075D01*
X169386700Y-60701958D01*
X169386690Y-60701953D01*
X169144428Y-60601605D01*
X169144421Y-60601603D01*
X169144419Y-60601602D01*
X168891116Y-60533730D01*
X168833339Y-60526123D01*
X168631127Y-60499500D01*
X168631120Y-60499500D01*
X168368880Y-60499500D01*
X168368872Y-60499500D01*
X168140732Y-60529537D01*
X168108884Y-60533730D01*
X167855581Y-60601602D01*
X167855571Y-60601605D01*
X167613309Y-60701953D01*
X167613299Y-60701958D01*
X167386196Y-60833075D01*
X167178148Y-60992718D01*
X166992718Y-61178148D01*
X166833075Y-61386196D01*
X166701958Y-61613299D01*
X166701953Y-61613309D01*
X166601605Y-61855571D01*
X166601602Y-61855581D01*
X166544688Y-62067990D01*
X166533730Y-62108885D01*
X166499500Y-62368872D01*
X163830500Y-62368872D01*
X163830500Y-62067991D01*
X163810020Y-61991561D01*
X163810017Y-61991556D01*
X163770464Y-61923047D01*
X163770458Y-61923039D01*
X163336819Y-61489400D01*
X163303334Y-61428077D01*
X163300500Y-61401719D01*
X163300500Y-60960439D01*
X163300500Y-60960438D01*
X163280021Y-60884011D01*
X163250614Y-60833076D01*
X163240464Y-60815495D01*
X163240458Y-60815487D01*
X162954512Y-60529541D01*
X162954507Y-60529537D01*
X162929216Y-60514936D01*
X162913738Y-60506000D01*
X162913736Y-60505998D01*
X162913736Y-60505999D01*
X162913734Y-60505998D01*
X162902480Y-60499500D01*
X162885990Y-60489979D01*
X162885991Y-60489979D01*
X162847775Y-60479739D01*
X162809562Y-60469500D01*
X162809560Y-60469500D01*
X162713405Y-60469500D01*
X162646366Y-60449815D01*
X162600611Y-60397011D01*
X162590667Y-60327853D01*
X162614139Y-60271188D01*
X162673352Y-60192089D01*
X162673354Y-60192086D01*
X162723596Y-60057379D01*
X162723598Y-60057372D01*
X162729999Y-59997844D01*
X162730000Y-59997827D01*
X162730000Y-59750000D01*
X160230000Y-59750000D01*
X160230000Y-59997844D01*
X160236401Y-60057372D01*
X160236403Y-60057379D01*
X160286645Y-60192086D01*
X160286649Y-60192093D01*
X160372809Y-60307187D01*
X160372812Y-60307190D01*
X160479811Y-60387290D01*
X160521682Y-60443223D01*
X160529500Y-60486556D01*
X160529500Y-61239752D01*
X160541131Y-61298229D01*
X160541132Y-61298230D01*
X160566442Y-61336109D01*
X160587320Y-61402787D01*
X160568835Y-61470167D01*
X160566442Y-61473891D01*
X160541132Y-61511769D01*
X160541131Y-61511770D01*
X160529500Y-61570247D01*
X160529500Y-62509752D01*
X160541131Y-62568229D01*
X160541132Y-62568230D01*
X160566442Y-62606109D01*
X160587320Y-62672787D01*
X160568835Y-62740167D01*
X160566442Y-62743891D01*
X160541132Y-62781769D01*
X160541131Y-62781770D01*
X160529500Y-62840247D01*
X160529500Y-63779752D01*
X160541131Y-63838229D01*
X160541132Y-63838230D01*
X160566442Y-63876109D01*
X160587320Y-63942787D01*
X160568835Y-64010167D01*
X160566442Y-64013891D01*
X160541132Y-64051769D01*
X160541131Y-64051770D01*
X160529500Y-64110247D01*
X160529500Y-65049752D01*
X160541131Y-65108229D01*
X160541132Y-65108230D01*
X160566442Y-65146109D01*
X160587320Y-65212787D01*
X160568835Y-65280167D01*
X160566442Y-65283891D01*
X160541132Y-65321769D01*
X160541131Y-65321770D01*
X160529500Y-65380247D01*
X160529500Y-66319752D01*
X160541131Y-66378229D01*
X160541132Y-66378230D01*
X160566442Y-66416109D01*
X160587320Y-66482787D01*
X160568835Y-66550167D01*
X160566442Y-66553891D01*
X160541132Y-66591769D01*
X160541131Y-66591770D01*
X160529500Y-66650247D01*
X160529500Y-67589752D01*
X160541131Y-67648229D01*
X160541132Y-67648230D01*
X160566442Y-67686109D01*
X160587320Y-67752787D01*
X160568835Y-67820167D01*
X160566442Y-67823891D01*
X160541132Y-67861769D01*
X160541131Y-67861770D01*
X160529500Y-67920247D01*
X160529500Y-68859752D01*
X160541131Y-68918229D01*
X160541132Y-68918230D01*
X160566442Y-68956109D01*
X160587320Y-69022787D01*
X160568835Y-69090167D01*
X160566442Y-69093891D01*
X160541132Y-69131769D01*
X160541131Y-69131770D01*
X160529500Y-69190247D01*
X160529500Y-70129752D01*
X160541131Y-70188229D01*
X160541132Y-70188230D01*
X160566442Y-70226109D01*
X160587320Y-70292787D01*
X160568835Y-70360167D01*
X160566442Y-70363891D01*
X160541132Y-70401769D01*
X160541131Y-70401770D01*
X160529500Y-70460247D01*
X160529500Y-71399752D01*
X160541131Y-71458229D01*
X160541132Y-71458230D01*
X160566442Y-71496109D01*
X160587320Y-71562787D01*
X160568835Y-71630167D01*
X160566442Y-71633891D01*
X160541132Y-71671769D01*
X160541131Y-71671770D01*
X160529500Y-71730247D01*
X160529500Y-72669752D01*
X160541131Y-72728229D01*
X160541132Y-72728230D01*
X160566442Y-72766109D01*
X160587320Y-72832787D01*
X160568835Y-72900167D01*
X160566442Y-72903891D01*
X160541132Y-72941769D01*
X160541131Y-72941770D01*
X160529500Y-73000247D01*
X160529500Y-73939752D01*
X160541131Y-73998229D01*
X160541132Y-73998230D01*
X160566442Y-74036109D01*
X160587320Y-74102787D01*
X160568835Y-74170167D01*
X160566442Y-74173891D01*
X160541132Y-74211769D01*
X160541131Y-74211770D01*
X160529500Y-74270247D01*
X160529500Y-75209752D01*
X160541131Y-75268229D01*
X160541132Y-75268230D01*
X160566442Y-75306109D01*
X160587320Y-75372787D01*
X160568835Y-75440167D01*
X160566442Y-75443891D01*
X160541132Y-75481769D01*
X160541131Y-75481770D01*
X160529500Y-75540247D01*
X160529500Y-76286033D01*
X160509815Y-76353072D01*
X160457011Y-76398827D01*
X160387853Y-76408771D01*
X160324297Y-76379746D01*
X160317819Y-76373714D01*
X160309553Y-76365448D01*
X160243230Y-76321132D01*
X160243229Y-76321131D01*
X160184752Y-76309500D01*
X160184748Y-76309500D01*
X159245252Y-76309500D01*
X159245247Y-76309500D01*
X159186770Y-76321131D01*
X159186769Y-76321132D01*
X159148891Y-76346442D01*
X159082213Y-76367320D01*
X159014833Y-76348835D01*
X159011109Y-76346442D01*
X158973230Y-76321132D01*
X158973229Y-76321131D01*
X158914752Y-76309500D01*
X158914748Y-76309500D01*
X157975252Y-76309500D01*
X157975247Y-76309500D01*
X157916770Y-76321131D01*
X157916769Y-76321132D01*
X157878891Y-76346442D01*
X157812213Y-76367320D01*
X157744833Y-76348835D01*
X157741109Y-76346442D01*
X157703230Y-76321132D01*
X157703229Y-76321131D01*
X157644752Y-76309500D01*
X157644748Y-76309500D01*
X156705252Y-76309500D01*
X156705247Y-76309500D01*
X156646770Y-76321131D01*
X156646769Y-76321132D01*
X156608891Y-76346442D01*
X156542213Y-76367320D01*
X156474833Y-76348835D01*
X156471109Y-76346442D01*
X156433230Y-76321132D01*
X156433229Y-76321131D01*
X156374752Y-76309500D01*
X156374748Y-76309500D01*
X155435252Y-76309500D01*
X155435247Y-76309500D01*
X155376770Y-76321131D01*
X155376769Y-76321132D01*
X155338891Y-76346442D01*
X155272213Y-76367320D01*
X155204833Y-76348835D01*
X155201109Y-76346442D01*
X155163230Y-76321132D01*
X155163229Y-76321131D01*
X155104752Y-76309500D01*
X155104748Y-76309500D01*
X154165252Y-76309500D01*
X154165247Y-76309500D01*
X154106770Y-76321131D01*
X154106769Y-76321132D01*
X154068891Y-76346442D01*
X154002213Y-76367320D01*
X153934833Y-76348835D01*
X153931109Y-76346442D01*
X153893230Y-76321132D01*
X153893229Y-76321131D01*
X153834752Y-76309500D01*
X153834748Y-76309500D01*
X152895252Y-76309500D01*
X152895247Y-76309500D01*
X152836770Y-76321131D01*
X152836769Y-76321132D01*
X152798891Y-76346442D01*
X152732213Y-76367320D01*
X152664833Y-76348835D01*
X152661109Y-76346442D01*
X152623230Y-76321132D01*
X152623229Y-76321131D01*
X152564752Y-76309500D01*
X152564748Y-76309500D01*
X151625252Y-76309500D01*
X151625247Y-76309500D01*
X151566770Y-76321131D01*
X151566769Y-76321132D01*
X151528891Y-76346442D01*
X151462213Y-76367320D01*
X151394833Y-76348835D01*
X151391109Y-76346442D01*
X151353230Y-76321132D01*
X151353229Y-76321131D01*
X151294752Y-76309500D01*
X151294748Y-76309500D01*
X150355252Y-76309500D01*
X150355247Y-76309500D01*
X150296770Y-76321131D01*
X150296769Y-76321132D01*
X150258891Y-76346442D01*
X150192213Y-76367320D01*
X150124833Y-76348835D01*
X150121109Y-76346442D01*
X150083230Y-76321132D01*
X150083229Y-76321131D01*
X150024752Y-76309500D01*
X150024748Y-76309500D01*
X149085252Y-76309500D01*
X149085247Y-76309500D01*
X149026770Y-76321131D01*
X149026769Y-76321132D01*
X148988891Y-76346442D01*
X148922213Y-76367320D01*
X148854833Y-76348835D01*
X148851109Y-76346442D01*
X148813230Y-76321132D01*
X148813229Y-76321131D01*
X148754752Y-76309500D01*
X148754748Y-76309500D01*
X147815252Y-76309500D01*
X147815247Y-76309500D01*
X147756770Y-76321131D01*
X147756769Y-76321132D01*
X147718891Y-76346442D01*
X147652213Y-76367320D01*
X147584833Y-76348835D01*
X147581109Y-76346442D01*
X147543230Y-76321132D01*
X147543229Y-76321131D01*
X147484752Y-76309500D01*
X147484748Y-76309500D01*
X146545252Y-76309500D01*
X146545247Y-76309500D01*
X146486770Y-76321131D01*
X146486769Y-76321132D01*
X146448891Y-76346442D01*
X146382213Y-76367320D01*
X146314833Y-76348835D01*
X146311109Y-76346442D01*
X146273230Y-76321132D01*
X146273229Y-76321131D01*
X146214752Y-76309500D01*
X146214748Y-76309500D01*
X145275252Y-76309500D01*
X145275247Y-76309500D01*
X145216770Y-76321131D01*
X145216769Y-76321132D01*
X145150446Y-76365448D01*
X145142181Y-76373714D01*
X145080858Y-76407199D01*
X145011166Y-76402215D01*
X144955233Y-76360343D01*
X144930816Y-76294879D01*
X144930500Y-76286033D01*
X144930500Y-75540249D01*
X144930499Y-75540247D01*
X144918868Y-75481770D01*
X144918867Y-75481768D01*
X144893558Y-75443892D01*
X144872679Y-75377215D01*
X144891163Y-75309835D01*
X144893558Y-75306108D01*
X144918867Y-75268231D01*
X144918868Y-75268229D01*
X144930499Y-75209752D01*
X144930500Y-75209750D01*
X144930500Y-74270249D01*
X144930499Y-74270247D01*
X144918868Y-74211770D01*
X144918867Y-74211768D01*
X144893558Y-74173892D01*
X144872679Y-74107215D01*
X144891163Y-74039835D01*
X144893558Y-74036108D01*
X144918867Y-73998231D01*
X144918868Y-73998229D01*
X144930499Y-73939752D01*
X144930500Y-73939750D01*
X144930500Y-73000249D01*
X144930499Y-73000247D01*
X144918868Y-72941770D01*
X144918867Y-72941768D01*
X144893558Y-72903892D01*
X144872679Y-72837215D01*
X144891163Y-72769835D01*
X144893558Y-72766108D01*
X144918867Y-72728231D01*
X144918868Y-72728229D01*
X144930499Y-72669752D01*
X144930500Y-72669750D01*
X144930500Y-71730249D01*
X144930499Y-71730247D01*
X144918868Y-71671770D01*
X144918867Y-71671768D01*
X144893558Y-71633892D01*
X144872679Y-71567215D01*
X144891163Y-71499835D01*
X144893558Y-71496108D01*
X144918867Y-71458231D01*
X144918868Y-71458229D01*
X144930499Y-71399752D01*
X144930500Y-71399750D01*
X144930500Y-70460249D01*
X144930499Y-70460247D01*
X144918868Y-70401770D01*
X144918867Y-70401768D01*
X144893558Y-70363892D01*
X144872679Y-70297215D01*
X144891163Y-70229835D01*
X144893558Y-70226108D01*
X144918867Y-70188231D01*
X144918868Y-70188229D01*
X144930499Y-70129752D01*
X144930500Y-70129750D01*
X144930500Y-69190249D01*
X144930499Y-69190247D01*
X144918868Y-69131770D01*
X144918867Y-69131768D01*
X144893558Y-69093892D01*
X144872679Y-69027215D01*
X144891163Y-68959835D01*
X144893558Y-68956108D01*
X144918867Y-68918231D01*
X144918868Y-68918229D01*
X144930499Y-68859752D01*
X144930500Y-68859750D01*
X144930500Y-67920249D01*
X144930499Y-67920247D01*
X144918868Y-67861770D01*
X144918867Y-67861768D01*
X144893558Y-67823892D01*
X144872679Y-67757215D01*
X144891163Y-67689835D01*
X144893558Y-67686108D01*
X144918867Y-67648231D01*
X144918868Y-67648229D01*
X144930499Y-67589752D01*
X144930500Y-67589750D01*
X144930500Y-66650249D01*
X144930499Y-66650247D01*
X144918868Y-66591770D01*
X144918867Y-66591768D01*
X144893558Y-66553892D01*
X144872679Y-66487215D01*
X144891163Y-66419835D01*
X144893558Y-66416108D01*
X144918867Y-66378231D01*
X144918868Y-66378229D01*
X144930499Y-66319752D01*
X144930500Y-66319750D01*
X144930500Y-65380249D01*
X144930499Y-65380247D01*
X144918868Y-65321770D01*
X144918867Y-65321768D01*
X144893558Y-65283892D01*
X144872679Y-65217215D01*
X144891163Y-65149835D01*
X144893558Y-65146108D01*
X144918867Y-65108231D01*
X144918868Y-65108229D01*
X144930499Y-65049752D01*
X144930500Y-65049750D01*
X144930500Y-64110249D01*
X144930499Y-64110247D01*
X144918868Y-64051770D01*
X144918867Y-64051768D01*
X144893558Y-64013892D01*
X144872679Y-63947215D01*
X144891163Y-63879835D01*
X144893558Y-63876108D01*
X144918867Y-63838231D01*
X144918868Y-63838229D01*
X144930499Y-63779752D01*
X144930500Y-63779750D01*
X144930500Y-62840249D01*
X144930499Y-62840247D01*
X144918868Y-62781770D01*
X144918867Y-62781768D01*
X144893558Y-62743892D01*
X144872679Y-62677215D01*
X144891163Y-62609835D01*
X144893558Y-62606108D01*
X144918867Y-62568231D01*
X144918868Y-62568229D01*
X144930499Y-62509752D01*
X144930500Y-62509750D01*
X144930500Y-61570249D01*
X144930499Y-61570247D01*
X144918868Y-61511770D01*
X144918867Y-61511768D01*
X144893558Y-61473892D01*
X144872679Y-61407215D01*
X144891163Y-61339835D01*
X144893558Y-61336108D01*
X144918867Y-61298231D01*
X144918868Y-61298229D01*
X144930499Y-61239752D01*
X144930500Y-61239750D01*
X144930500Y-60486556D01*
X144950185Y-60419517D01*
X144980189Y-60387290D01*
X145087187Y-60307190D01*
X145087190Y-60307187D01*
X145173350Y-60192093D01*
X145173354Y-60192086D01*
X145223596Y-60057379D01*
X145223598Y-60057372D01*
X145229999Y-59997844D01*
X145230000Y-59997827D01*
X145230000Y-59750000D01*
X142730000Y-59750000D01*
X142730000Y-59997844D01*
X142736401Y-60057372D01*
X142736403Y-60057379D01*
X142786645Y-60192086D01*
X142786649Y-60192093D01*
X142872809Y-60307187D01*
X142872812Y-60307190D01*
X142979811Y-60387290D01*
X143021682Y-60443223D01*
X143029500Y-60486556D01*
X143029500Y-60938500D01*
X143009815Y-61005539D01*
X142957011Y-61051294D01*
X142905500Y-61062500D01*
X142580986Y-61062500D01*
X142534620Y-61081706D01*
X142492853Y-61099007D01*
X142483954Y-61102693D01*
X141256193Y-62330454D01*
X141216000Y-62427486D01*
X141216000Y-63469286D01*
X141196315Y-63536325D01*
X141179681Y-63556967D01*
X140886193Y-63850454D01*
X140846000Y-63947486D01*
X140846000Y-64249286D01*
X140826315Y-64316325D01*
X140809681Y-64336967D01*
X140506193Y-64640454D01*
X140466000Y-64737486D01*
X140466000Y-65129286D01*
X140446315Y-65196325D01*
X140429681Y-65216967D01*
X139696193Y-65950454D01*
X139696192Y-65950455D01*
X139696192Y-65950456D01*
X139689255Y-65967203D01*
X139656000Y-66047486D01*
X139656000Y-66512632D01*
X139636315Y-66579671D01*
X139583511Y-66625426D01*
X139572956Y-66629673D01*
X139457117Y-66670207D01*
X139347850Y-66750850D01*
X139267207Y-66860117D01*
X139244842Y-66924033D01*
X139204120Y-66980808D01*
X139139167Y-67006555D01*
X139070605Y-66993098D01*
X139020203Y-66944711D01*
X139010095Y-66922081D01*
X138954358Y-66753880D01*
X138954356Y-66753875D01*
X138862315Y-66604654D01*
X138738345Y-66480684D01*
X138589124Y-66388643D01*
X138589119Y-66388641D01*
X138422697Y-66333494D01*
X138422690Y-66333493D01*
X138319986Y-66323000D01*
X138270000Y-66323000D01*
X138270000Y-67424000D01*
X138250315Y-67491039D01*
X138197511Y-67536794D01*
X138146000Y-67548000D01*
X138020000Y-67548000D01*
X138020000Y-67674000D01*
X138000315Y-67741039D01*
X137947511Y-67786794D01*
X137896000Y-67798000D01*
X137020001Y-67798000D01*
X137020001Y-67923668D01*
X137013762Y-67944913D01*
X137012183Y-67967002D01*
X137004110Y-67977785D01*
X137000316Y-67990707D01*
X136983582Y-68005206D01*
X136970311Y-68022935D01*
X136957690Y-68027642D01*
X136947512Y-68036462D01*
X136925594Y-68039613D01*
X136904847Y-68047352D01*
X136891686Y-68044489D01*
X136878354Y-68046406D01*
X136858210Y-68037206D01*
X136836574Y-68032500D01*
X136818848Y-68019231D01*
X136814798Y-68017381D01*
X136808320Y-68011349D01*
X136656819Y-67859848D01*
X136623334Y-67798525D01*
X136620500Y-67772167D01*
X136620500Y-67023013D01*
X137020000Y-67023013D01*
X137020000Y-67298000D01*
X137770000Y-67298000D01*
X137770000Y-66323000D01*
X137769999Y-66322999D01*
X137720029Y-66323000D01*
X137720011Y-66323001D01*
X137617302Y-66333494D01*
X137450880Y-66388641D01*
X137450875Y-66388643D01*
X137301654Y-66480684D01*
X137177684Y-66604654D01*
X137085643Y-66753875D01*
X137085641Y-66753880D01*
X137030494Y-66920302D01*
X137030493Y-66920309D01*
X137020000Y-67023013D01*
X136620500Y-67023013D01*
X136620500Y-67018730D01*
X136617646Y-66988300D01*
X136617646Y-66988298D01*
X136572793Y-66860119D01*
X136572792Y-66860117D01*
X136492150Y-66750850D01*
X136382882Y-66670207D01*
X136382880Y-66670206D01*
X136254700Y-66625353D01*
X136224270Y-66622500D01*
X136224266Y-66622500D01*
X135615734Y-66622500D01*
X135615730Y-66622500D01*
X135585300Y-66625353D01*
X135585298Y-66625353D01*
X135457119Y-66670206D01*
X135457117Y-66670207D01*
X135347850Y-66750850D01*
X135267207Y-66860117D01*
X135244842Y-66924033D01*
X135204120Y-66980808D01*
X135139167Y-67006555D01*
X135070605Y-66993098D01*
X135020203Y-66944711D01*
X135010095Y-66922081D01*
X134954358Y-66753880D01*
X134954356Y-66753875D01*
X134862315Y-66604654D01*
X134738345Y-66480684D01*
X134589124Y-66388643D01*
X134589119Y-66388641D01*
X134422697Y-66333494D01*
X134422690Y-66333493D01*
X134319986Y-66323000D01*
X134270000Y-66323000D01*
X134270000Y-68772999D01*
X134319972Y-68772999D01*
X134319986Y-68772998D01*
X134422697Y-68762505D01*
X134589119Y-68707358D01*
X134589124Y-68707356D01*
X134738345Y-68615315D01*
X134862315Y-68491345D01*
X134954356Y-68342124D01*
X134954359Y-68342117D01*
X135010094Y-68173918D01*
X135049866Y-68116473D01*
X135114382Y-68089649D01*
X135183158Y-68101964D01*
X135234358Y-68149506D01*
X135244841Y-68171965D01*
X135246147Y-68175697D01*
X135267207Y-68235882D01*
X135347850Y-68345150D01*
X135457118Y-68425793D01*
X135536458Y-68453555D01*
X135593231Y-68494275D01*
X135618978Y-68559228D01*
X135619500Y-68570595D01*
X135619500Y-69750500D01*
X135599815Y-69817539D01*
X135547011Y-69863294D01*
X135495500Y-69874500D01*
X135055247Y-69874500D01*
X134996770Y-69886131D01*
X134996769Y-69886132D01*
X134930447Y-69930447D01*
X134886132Y-69996769D01*
X134886131Y-69996770D01*
X134874500Y-70055247D01*
X134874500Y-70944752D01*
X134886131Y-71003229D01*
X134886132Y-71003230D01*
X134937233Y-71079707D01*
X134933541Y-71082173D01*
X134955567Y-71122510D01*
X134950583Y-71192202D01*
X134947943Y-71198054D01*
X134948020Y-71198086D01*
X134898538Y-71317545D01*
X134898535Y-71317555D01*
X134874500Y-71438389D01*
X134874500Y-71561610D01*
X134898535Y-71682444D01*
X134898538Y-71682454D01*
X134945687Y-71796283D01*
X134945692Y-71796292D01*
X135014141Y-71898732D01*
X135014144Y-71898736D01*
X135027727Y-71912319D01*
X135061212Y-71973642D01*
X135056228Y-72043334D01*
X135027727Y-72087681D01*
X135014144Y-72101263D01*
X135014141Y-72101267D01*
X134945692Y-72203707D01*
X134945687Y-72203716D01*
X134898538Y-72317545D01*
X134898535Y-72317555D01*
X134874500Y-72438389D01*
X134874500Y-72561610D01*
X134898535Y-72682444D01*
X134898538Y-72682454D01*
X134945687Y-72796283D01*
X134945692Y-72796292D01*
X135014141Y-72898732D01*
X135014144Y-72898736D01*
X135027727Y-72912319D01*
X135061212Y-72973642D01*
X135056228Y-73043334D01*
X135027727Y-73087681D01*
X135014144Y-73101263D01*
X135014141Y-73101267D01*
X134945692Y-73203707D01*
X134945687Y-73203716D01*
X134898538Y-73317545D01*
X134898535Y-73317555D01*
X134874500Y-73438389D01*
X134874500Y-73561610D01*
X134898535Y-73682444D01*
X134898538Y-73682454D01*
X134945687Y-73796283D01*
X134945692Y-73796292D01*
X135014141Y-73898732D01*
X135014144Y-73898736D01*
X135027727Y-73912319D01*
X135061212Y-73973642D01*
X135056228Y-74043334D01*
X135027727Y-74087681D01*
X135014144Y-74101263D01*
X135014141Y-74101267D01*
X134945692Y-74203707D01*
X134945687Y-74203716D01*
X134898538Y-74317545D01*
X134898535Y-74317555D01*
X134874500Y-74438389D01*
X134874500Y-74561610D01*
X134898535Y-74682444D01*
X134898538Y-74682454D01*
X134945687Y-74796283D01*
X134945692Y-74796292D01*
X135014141Y-74898732D01*
X135014144Y-74898736D01*
X135027727Y-74912319D01*
X135061212Y-74973642D01*
X135056228Y-75043334D01*
X135027727Y-75087681D01*
X135014144Y-75101263D01*
X135014141Y-75101267D01*
X134945692Y-75203707D01*
X134945687Y-75203716D01*
X134898538Y-75317545D01*
X134898535Y-75317555D01*
X134874500Y-75438389D01*
X134874500Y-75561610D01*
X134898535Y-75682444D01*
X134898538Y-75682454D01*
X134945687Y-75796283D01*
X134945692Y-75796292D01*
X135014141Y-75898732D01*
X135014144Y-75898736D01*
X135027727Y-75912319D01*
X135061212Y-75973642D01*
X135056228Y-76043334D01*
X135027727Y-76087681D01*
X135014144Y-76101263D01*
X135014141Y-76101267D01*
X134945692Y-76203707D01*
X134945687Y-76203716D01*
X134898538Y-76317545D01*
X134898535Y-76317555D01*
X134874500Y-76438389D01*
X134874500Y-76561610D01*
X134898535Y-76682444D01*
X134898538Y-76682454D01*
X134945687Y-76796283D01*
X134945692Y-76796292D01*
X135014141Y-76898732D01*
X135014144Y-76898736D01*
X135027727Y-76912319D01*
X135061212Y-76973642D01*
X135056228Y-77043334D01*
X135027727Y-77087681D01*
X135014144Y-77101263D01*
X135014141Y-77101267D01*
X134945692Y-77203707D01*
X134945687Y-77203716D01*
X134898538Y-77317545D01*
X134898535Y-77317555D01*
X134874500Y-77438389D01*
X134874500Y-77561610D01*
X134898535Y-77682444D01*
X134898538Y-77682454D01*
X134945687Y-77796283D01*
X134945692Y-77796292D01*
X135014141Y-77898732D01*
X135014144Y-77898736D01*
X135027727Y-77912319D01*
X135061212Y-77973642D01*
X135056228Y-78043334D01*
X135027727Y-78087681D01*
X135014144Y-78101263D01*
X135014141Y-78101267D01*
X134945692Y-78203707D01*
X134945687Y-78203716D01*
X134898538Y-78317545D01*
X134898535Y-78317555D01*
X134874500Y-78438389D01*
X134874500Y-78561610D01*
X134898535Y-78682444D01*
X134898538Y-78682454D01*
X134945687Y-78796283D01*
X134945692Y-78796292D01*
X135014141Y-78898732D01*
X135014144Y-78898736D01*
X135027727Y-78912319D01*
X135061212Y-78973642D01*
X135056228Y-79043334D01*
X135027727Y-79087681D01*
X135014144Y-79101263D01*
X135014141Y-79101267D01*
X134945692Y-79203707D01*
X134945687Y-79203716D01*
X134898538Y-79317545D01*
X134898535Y-79317555D01*
X134874500Y-79438389D01*
X134874500Y-79561610D01*
X134898535Y-79682444D01*
X134898538Y-79682454D01*
X134945687Y-79796283D01*
X134945692Y-79796292D01*
X135014141Y-79898732D01*
X135014144Y-79898736D01*
X135027727Y-79912319D01*
X135061212Y-79973642D01*
X135056228Y-80043334D01*
X135040008Y-80073373D01*
X135034411Y-80080997D01*
X135014142Y-80101267D01*
X134959416Y-80183169D01*
X134957799Y-80185373D01*
X134932112Y-80204981D01*
X134907327Y-80225696D01*
X134904096Y-80226368D01*
X134902262Y-80227769D01*
X134894256Y-80228417D01*
X134857837Y-80236000D01*
X133997487Y-80236000D01*
X133969068Y-80247769D01*
X133969069Y-80247770D01*
X133900456Y-80276190D01*
X133831235Y-80345413D01*
X133776192Y-80400456D01*
X133757964Y-80444463D01*
X133736000Y-80497487D01*
X132500500Y-80497487D01*
X132500500Y-68072986D01*
X133020001Y-68072986D01*
X133030494Y-68175697D01*
X133085641Y-68342119D01*
X133085643Y-68342124D01*
X133177684Y-68491345D01*
X133301654Y-68615315D01*
X133450875Y-68707356D01*
X133450880Y-68707358D01*
X133617302Y-68762505D01*
X133617309Y-68762506D01*
X133720019Y-68772999D01*
X133769999Y-68772998D01*
X133770000Y-68772998D01*
X133770000Y-67798000D01*
X133020001Y-67798000D01*
X133020001Y-68072986D01*
X132500500Y-68072986D01*
X132500500Y-67023013D01*
X133020000Y-67023013D01*
X133020000Y-67298000D01*
X133770000Y-67298000D01*
X133770000Y-66323000D01*
X133769999Y-66322999D01*
X133720029Y-66323000D01*
X133720011Y-66323001D01*
X133617302Y-66333494D01*
X133450880Y-66388641D01*
X133450875Y-66388643D01*
X133301654Y-66480684D01*
X133177684Y-66604654D01*
X133085643Y-66753875D01*
X133085641Y-66753880D01*
X133030494Y-66920302D01*
X133030493Y-66920309D01*
X133020000Y-67023013D01*
X132500500Y-67023013D01*
X132500500Y-62368872D01*
X135499500Y-62368872D01*
X135499500Y-62631127D01*
X135519334Y-62781769D01*
X135533730Y-62891116D01*
X135601602Y-63144418D01*
X135601605Y-63144428D01*
X135701953Y-63386690D01*
X135701958Y-63386700D01*
X135833075Y-63613803D01*
X135992718Y-63821851D01*
X135992726Y-63821860D01*
X136178140Y-64007274D01*
X136178148Y-64007281D01*
X136178149Y-64007282D01*
X136226554Y-64044424D01*
X136386196Y-64166924D01*
X136613299Y-64298041D01*
X136613309Y-64298046D01*
X136855571Y-64398394D01*
X136855581Y-64398398D01*
X137108884Y-64466270D01*
X137368880Y-64500500D01*
X137368887Y-64500500D01*
X137631113Y-64500500D01*
X137631120Y-64500500D01*
X137891116Y-64466270D01*
X138144419Y-64398398D01*
X138343425Y-64315967D01*
X138386690Y-64298046D01*
X138386691Y-64298045D01*
X138386697Y-64298043D01*
X138613803Y-64166924D01*
X138821851Y-64007282D01*
X138821855Y-64007277D01*
X138821860Y-64007274D01*
X139007274Y-63821860D01*
X139007277Y-63821855D01*
X139007282Y-63821851D01*
X139166924Y-63613803D01*
X139298043Y-63386697D01*
X139398398Y-63144419D01*
X139466270Y-62891116D01*
X139500500Y-62631120D01*
X139500500Y-62368880D01*
X139466270Y-62108884D01*
X139398398Y-61855581D01*
X139375185Y-61799540D01*
X139298046Y-61613309D01*
X139298041Y-61613299D01*
X139166924Y-61386196D01*
X139019829Y-61194500D01*
X139007282Y-61178149D01*
X139007281Y-61178148D01*
X139007274Y-61178140D01*
X138821860Y-60992726D01*
X138821851Y-60992718D01*
X138613803Y-60833075D01*
X138386700Y-60701958D01*
X138386690Y-60701953D01*
X138144428Y-60601605D01*
X138144421Y-60601603D01*
X138144419Y-60601602D01*
X137891116Y-60533730D01*
X137833339Y-60526123D01*
X137631127Y-60499500D01*
X137631120Y-60499500D01*
X137368880Y-60499500D01*
X137368872Y-60499500D01*
X137140732Y-60529537D01*
X137108884Y-60533730D01*
X136855581Y-60601602D01*
X136855571Y-60601605D01*
X136613309Y-60701953D01*
X136613299Y-60701958D01*
X136386196Y-60833075D01*
X136178148Y-60992718D01*
X135992718Y-61178148D01*
X135833075Y-61386196D01*
X135701958Y-61613299D01*
X135701953Y-61613309D01*
X135601605Y-61855571D01*
X135601602Y-61855581D01*
X135544688Y-62067990D01*
X135533730Y-62108885D01*
X135499500Y-62368872D01*
X132500500Y-62368872D01*
X132500500Y-59550862D01*
X132520185Y-59483823D01*
X132536819Y-59463181D01*
X132997845Y-59002155D01*
X142730000Y-59002155D01*
X142730000Y-59250000D01*
X143730000Y-59250000D01*
X144230000Y-59250000D01*
X145230000Y-59250000D01*
X145230000Y-59002172D01*
X145229999Y-59002155D01*
X160230000Y-59002155D01*
X160230000Y-59250000D01*
X161230000Y-59250000D01*
X161730000Y-59250000D01*
X162730000Y-59250000D01*
X162730000Y-59002172D01*
X162729999Y-59002155D01*
X162723598Y-58942627D01*
X162723596Y-58942620D01*
X162673354Y-58807913D01*
X162673350Y-58807906D01*
X162587190Y-58692812D01*
X162587187Y-58692809D01*
X162472093Y-58606649D01*
X162472086Y-58606645D01*
X162337379Y-58556403D01*
X162337372Y-58556401D01*
X162277844Y-58550000D01*
X161730000Y-58550000D01*
X161730000Y-59250000D01*
X161230000Y-59250000D01*
X161230000Y-58550000D01*
X160682155Y-58550000D01*
X160622627Y-58556401D01*
X160622620Y-58556403D01*
X160487913Y-58606645D01*
X160487906Y-58606649D01*
X160372812Y-58692809D01*
X160372809Y-58692812D01*
X160286649Y-58807906D01*
X160286645Y-58807913D01*
X160236403Y-58942620D01*
X160236401Y-58942627D01*
X160230000Y-59002155D01*
X145229999Y-59002155D01*
X145223598Y-58942627D01*
X145223596Y-58942620D01*
X145173354Y-58807913D01*
X145173350Y-58807906D01*
X145087190Y-58692812D01*
X145087187Y-58692809D01*
X144972093Y-58606649D01*
X144972086Y-58606645D01*
X144837379Y-58556403D01*
X144837372Y-58556401D01*
X144777844Y-58550000D01*
X144230000Y-58550000D01*
X144230000Y-59250000D01*
X143730000Y-59250000D01*
X143730000Y-58550000D01*
X143182155Y-58550000D01*
X143122627Y-58556401D01*
X143122620Y-58556403D01*
X142987913Y-58606645D01*
X142987906Y-58606649D01*
X142872812Y-58692809D01*
X142872809Y-58692812D01*
X142786649Y-58807906D01*
X142786645Y-58807913D01*
X142736403Y-58942620D01*
X142736401Y-58942627D01*
X142730000Y-59002155D01*
X132997845Y-59002155D01*
X133953681Y-58046319D01*
X134015004Y-58012834D01*
X134041362Y-58010000D01*
X171958638Y-58010000D01*
X172025677Y-58029685D01*
G37*
%TD.AperFunction*%
%TD*%
M02*
