%TF.GenerationSoftware,KiCad,Pcbnew,10.0.1*%
%TF.CreationDate,2026-09-10T17:39:56+02:00*%
%TF.ProjectId,esp32s3_adc_mini_bat,65737033-3273-4335-9f61-64635f6d696e,rev?*%
%TF.SameCoordinates,Original*%
%TF.FileFunction,Legend,Bot*%
%TF.FilePolarity,Positive*%
%FSLAX46Y46*%
G04 Gerber Fmt 4.6, Leading zero omitted, Abs format (unit mm)*
G04 Created by KiCad (PCBNEW 10.0.1) date 2026-09-10 17:39:56*
%MOMM*%
%LPD*%
G01*
G04 APERTURE LIST*
G04 APERTURE END LIST*
%LPC*%
G36*
X144121342Y-111368060D02*
G01*
X144234381Y-111433323D01*
X144326677Y-111525619D01*
X144391940Y-111638658D01*
X144425722Y-111764737D01*
X144430000Y-111830000D01*
X144430000Y-112630000D01*
X144425722Y-112695263D01*
X144391940Y-112821342D01*
X144326677Y-112934381D01*
X144234381Y-113026677D01*
X144121342Y-113091940D01*
X143995263Y-113125722D01*
X143864737Y-113125722D01*
X143738658Y-113091940D01*
X143625619Y-113026677D01*
X143533323Y-112934381D01*
X143468060Y-112821342D01*
X143434278Y-112695263D01*
X143430000Y-112630000D01*
X143430000Y-111830000D01*
X143434278Y-111764737D01*
X143468060Y-111638658D01*
X143533323Y-111525619D01*
X143625619Y-111433323D01*
X143738658Y-111368060D01*
X143864737Y-111334278D01*
X143995263Y-111334278D01*
X144121342Y-111368060D01*
G37*
G36*
X152761342Y-111368060D02*
G01*
X152874381Y-111433323D01*
X152966677Y-111525619D01*
X153031940Y-111638658D01*
X153065722Y-111764737D01*
X153070000Y-111830000D01*
X153070000Y-112630000D01*
X153065722Y-112695263D01*
X153031940Y-112821342D01*
X152966677Y-112934381D01*
X152874381Y-113026677D01*
X152761342Y-113091940D01*
X152635263Y-113125722D01*
X152504737Y-113125722D01*
X152378658Y-113091940D01*
X152265619Y-113026677D01*
X152173323Y-112934381D01*
X152108060Y-112821342D01*
X152074278Y-112695263D01*
X152070000Y-112630000D01*
X152070000Y-111830000D01*
X152074278Y-111764737D01*
X152108060Y-111638658D01*
X152173323Y-111525619D01*
X152265619Y-111433323D01*
X152378658Y-111368060D01*
X152504737Y-111334278D01*
X152635263Y-111334278D01*
X152761342Y-111368060D01*
G37*
G36*
X160191342Y-111830560D02*
G01*
X160304381Y-111895823D01*
X160396677Y-111988119D01*
X160461940Y-112101158D01*
X160495722Y-112227237D01*
X160495722Y-112357763D01*
X160461940Y-112483842D01*
X160396677Y-112596881D01*
X160304381Y-112689177D01*
X160191342Y-112754440D01*
X160065263Y-112788222D01*
X159934737Y-112788222D01*
X159808658Y-112754440D01*
X159695619Y-112689177D01*
X159603323Y-112596881D01*
X159538060Y-112483842D01*
X159504278Y-112357763D01*
X159504278Y-112227237D01*
X159538060Y-112101158D01*
X159603323Y-111988119D01*
X159695619Y-111895823D01*
X159808658Y-111830560D01*
X159934737Y-111796778D01*
X160065263Y-111796778D01*
X160191342Y-111830560D01*
G37*
G36*
X137841408Y-106783626D02*
G01*
X138062519Y-106842872D01*
X138274005Y-106930473D01*
X138472248Y-107044928D01*
X138653855Y-107184280D01*
X138815720Y-107346145D01*
X138955072Y-107527752D01*
X139069527Y-107725995D01*
X139157128Y-107937481D01*
X139216374Y-108158592D01*
X139246253Y-108385545D01*
X139246253Y-108614455D01*
X139216374Y-108841408D01*
X139157128Y-109062519D01*
X139069527Y-109274005D01*
X138955072Y-109472248D01*
X138815720Y-109653855D01*
X138653855Y-109815720D01*
X138472248Y-109955072D01*
X138274005Y-110069527D01*
X138062519Y-110157128D01*
X137841408Y-110216374D01*
X137614455Y-110246253D01*
X137385545Y-110246253D01*
X137158592Y-110216374D01*
X136937481Y-110157128D01*
X136725995Y-110069527D01*
X136527752Y-109955072D01*
X136346145Y-109815720D01*
X136184280Y-109653855D01*
X136044928Y-109472248D01*
X135930473Y-109274005D01*
X135842872Y-109062519D01*
X135783626Y-108841408D01*
X135753747Y-108614455D01*
X135753747Y-108385545D01*
X135783626Y-108158592D01*
X135842872Y-107937481D01*
X135930473Y-107725995D01*
X136044928Y-107527752D01*
X136184280Y-107346145D01*
X136346145Y-107184280D01*
X136527752Y-107044928D01*
X136725995Y-106930473D01*
X136937481Y-106842872D01*
X137158592Y-106783626D01*
X137385545Y-106753747D01*
X137614455Y-106753747D01*
X137841408Y-106783626D01*
G37*
G36*
X168841408Y-106783626D02*
G01*
X169062519Y-106842872D01*
X169274005Y-106930473D01*
X169472248Y-107044928D01*
X169653855Y-107184280D01*
X169815720Y-107346145D01*
X169955072Y-107527752D01*
X170069527Y-107725995D01*
X170157128Y-107937481D01*
X170216374Y-108158592D01*
X170246253Y-108385545D01*
X170246253Y-108614455D01*
X170216374Y-108841408D01*
X170157128Y-109062519D01*
X170069527Y-109274005D01*
X169955072Y-109472248D01*
X169815720Y-109653855D01*
X169653855Y-109815720D01*
X169472248Y-109955072D01*
X169274005Y-110069527D01*
X169062519Y-110157128D01*
X168841408Y-110216374D01*
X168614455Y-110246253D01*
X168385545Y-110246253D01*
X168158592Y-110216374D01*
X167937481Y-110157128D01*
X167725995Y-110069527D01*
X167527752Y-109955072D01*
X167346145Y-109815720D01*
X167184280Y-109653855D01*
X167044928Y-109472248D01*
X166930473Y-109274005D01*
X166842872Y-109062519D01*
X166783626Y-108841408D01*
X166753747Y-108614455D01*
X166753747Y-108385545D01*
X166783626Y-108158592D01*
X166842872Y-107937481D01*
X166930473Y-107725995D01*
X167044928Y-107527752D01*
X167184280Y-107346145D01*
X167346145Y-107184280D01*
X167527752Y-107044928D01*
X167725995Y-106930473D01*
X167937481Y-106842872D01*
X168158592Y-106783626D01*
X168385545Y-106753747D01*
X168614455Y-106753747D01*
X168841408Y-106783626D01*
G37*
G36*
X144121342Y-107018060D02*
G01*
X144234381Y-107083323D01*
X144326677Y-107175619D01*
X144391940Y-107288658D01*
X144425722Y-107414737D01*
X144430000Y-107480000D01*
X144430000Y-108580000D01*
X144425722Y-108645263D01*
X144391940Y-108771342D01*
X144326677Y-108884381D01*
X144234381Y-108976677D01*
X144121342Y-109041940D01*
X143995263Y-109075722D01*
X143864737Y-109075722D01*
X143738658Y-109041940D01*
X143625619Y-108976677D01*
X143533323Y-108884381D01*
X143468060Y-108771342D01*
X143434278Y-108645263D01*
X143430000Y-108580000D01*
X143430000Y-107480000D01*
X143434278Y-107414737D01*
X143468060Y-107288658D01*
X143533323Y-107175619D01*
X143625619Y-107083323D01*
X143738658Y-107018060D01*
X143864737Y-106984278D01*
X143995263Y-106984278D01*
X144121342Y-107018060D01*
G37*
G36*
X152761342Y-107018060D02*
G01*
X152874381Y-107083323D01*
X152966677Y-107175619D01*
X153031940Y-107288658D01*
X153065722Y-107414737D01*
X153070000Y-107480000D01*
X153070000Y-108580000D01*
X153065722Y-108645263D01*
X153031940Y-108771342D01*
X152966677Y-108884381D01*
X152874381Y-108976677D01*
X152761342Y-109041940D01*
X152635263Y-109075722D01*
X152504737Y-109075722D01*
X152378658Y-109041940D01*
X152265619Y-108976677D01*
X152173323Y-108884381D01*
X152108060Y-108771342D01*
X152074278Y-108645263D01*
X152070000Y-108580000D01*
X152070000Y-107480000D01*
X152074278Y-107414737D01*
X152108060Y-107288658D01*
X152173323Y-107175619D01*
X152265619Y-107083323D01*
X152378658Y-107018060D01*
X152504737Y-106984278D01*
X152635263Y-106984278D01*
X152761342Y-107018060D01*
G37*
G36*
X145484372Y-108249739D02*
G01*
X145557847Y-108292160D01*
X145617840Y-108352153D01*
X145660261Y-108425628D01*
X145682220Y-108507579D01*
X145682220Y-108592421D01*
X145660261Y-108674372D01*
X145617840Y-108747847D01*
X145557847Y-108807840D01*
X145484372Y-108850261D01*
X145402421Y-108872220D01*
X145317579Y-108872220D01*
X145235628Y-108850261D01*
X145162153Y-108807840D01*
X145102160Y-108747847D01*
X145059739Y-108674372D01*
X145037780Y-108592421D01*
X145037780Y-108507579D01*
X145059739Y-108425628D01*
X145102160Y-108352153D01*
X145162153Y-108292160D01*
X145235628Y-108249739D01*
X145317579Y-108227780D01*
X145402421Y-108227780D01*
X145484372Y-108249739D01*
G37*
G36*
X151264372Y-108249739D02*
G01*
X151337847Y-108292160D01*
X151397840Y-108352153D01*
X151440261Y-108425628D01*
X151462220Y-108507579D01*
X151462220Y-108592421D01*
X151440261Y-108674372D01*
X151397840Y-108747847D01*
X151337847Y-108807840D01*
X151264372Y-108850261D01*
X151182421Y-108872220D01*
X151097579Y-108872220D01*
X151015628Y-108850261D01*
X150942153Y-108807840D01*
X150882160Y-108747847D01*
X150839739Y-108674372D01*
X150817780Y-108592421D01*
X150817780Y-108507579D01*
X150839739Y-108425628D01*
X150882160Y-108352153D01*
X150942153Y-108292160D01*
X151015628Y-108249739D01*
X151097579Y-108227780D01*
X151182421Y-108227780D01*
X151264372Y-108249739D01*
G37*
G36*
X160191342Y-104830560D02*
G01*
X160304381Y-104895823D01*
X160396677Y-104988119D01*
X160461940Y-105101158D01*
X160495722Y-105227237D01*
X160495722Y-105357763D01*
X160461940Y-105483842D01*
X160396677Y-105596881D01*
X160304381Y-105689177D01*
X160191342Y-105754440D01*
X160065263Y-105788222D01*
X159934737Y-105788222D01*
X159808658Y-105754440D01*
X159695619Y-105689177D01*
X159603323Y-105596881D01*
X159538060Y-105483842D01*
X159504278Y-105357763D01*
X159504278Y-105227237D01*
X159538060Y-105101158D01*
X159603323Y-104988119D01*
X159695619Y-104895823D01*
X159808658Y-104830560D01*
X159934737Y-104796778D01*
X160065263Y-104796778D01*
X160191342Y-104830560D01*
G37*
G36*
X134388163Y-101803601D02*
G01*
X134478595Y-101855812D01*
X134552431Y-101929648D01*
X134604642Y-102020080D01*
X134631668Y-102120943D01*
X134631668Y-102225363D01*
X134604642Y-102326226D01*
X134552431Y-102416658D01*
X134478595Y-102490494D01*
X134388163Y-102542705D01*
X134287300Y-102569731D01*
X134182880Y-102569731D01*
X134082017Y-102542705D01*
X133991585Y-102490494D01*
X133917749Y-102416658D01*
X133865538Y-102326226D01*
X133838512Y-102225363D01*
X133838512Y-102120943D01*
X133865538Y-102020080D01*
X133917749Y-101929648D01*
X133991585Y-101855812D01*
X134082017Y-101803601D01*
X134182880Y-101776575D01*
X134287300Y-101776575D01*
X134388163Y-101803601D01*
G37*
G36*
X134388163Y-98803601D02*
G01*
X134478595Y-98855812D01*
X134552431Y-98929648D01*
X134604642Y-99020080D01*
X134631668Y-99120943D01*
X134631668Y-99225363D01*
X134604642Y-99326226D01*
X134552431Y-99416658D01*
X134478595Y-99490494D01*
X134388163Y-99542705D01*
X134287300Y-99569731D01*
X134182880Y-99569731D01*
X134082017Y-99542705D01*
X133991585Y-99490494D01*
X133917749Y-99416658D01*
X133865538Y-99326226D01*
X133838512Y-99225363D01*
X133838512Y-99120943D01*
X133865538Y-99020080D01*
X133917749Y-98929648D01*
X133991585Y-98855812D01*
X134082017Y-98803601D01*
X134182880Y-98776575D01*
X134287300Y-98776575D01*
X134388163Y-98803601D01*
G37*
G36*
X135076852Y-93795269D02*
G01*
X135221741Y-93855284D01*
X135352139Y-93942413D01*
X135463032Y-94053306D01*
X135550161Y-94183704D01*
X135610176Y-94328593D01*
X135640772Y-94482407D01*
X135640772Y-94639235D01*
X135610176Y-94793049D01*
X135550161Y-94937938D01*
X135463032Y-95068336D01*
X135352139Y-95179229D01*
X135221741Y-95266358D01*
X135076852Y-95326373D01*
X134923038Y-95356969D01*
X134766210Y-95356969D01*
X134612396Y-95326373D01*
X134467507Y-95266358D01*
X134337109Y-95179229D01*
X134226216Y-95068336D01*
X134139087Y-94937938D01*
X134079072Y-94793049D01*
X134048476Y-94639235D01*
X134048476Y-94482407D01*
X134079072Y-94328593D01*
X134139087Y-94183704D01*
X134226216Y-94053306D01*
X134337109Y-93942413D01*
X134467507Y-93855284D01*
X134612396Y-93795269D01*
X134766210Y-93764673D01*
X134923038Y-93764673D01*
X135076852Y-93795269D01*
G37*
G36*
X137076852Y-93795269D02*
G01*
X137221741Y-93855284D01*
X137352139Y-93942413D01*
X137463032Y-94053306D01*
X137550161Y-94183704D01*
X137610176Y-94328593D01*
X137640772Y-94482407D01*
X137640772Y-94639235D01*
X137610176Y-94793049D01*
X137550161Y-94937938D01*
X137463032Y-95068336D01*
X137352139Y-95179229D01*
X137221741Y-95266358D01*
X137076852Y-95326373D01*
X136923038Y-95356969D01*
X136766210Y-95356969D01*
X136612396Y-95326373D01*
X136467507Y-95266358D01*
X136337109Y-95179229D01*
X136226216Y-95068336D01*
X136139087Y-94937938D01*
X136079072Y-94793049D01*
X136048476Y-94639235D01*
X136048476Y-94482407D01*
X136079072Y-94328593D01*
X136139087Y-94183704D01*
X136226216Y-94053306D01*
X136337109Y-93942413D01*
X136467507Y-93855284D01*
X136612396Y-93795269D01*
X136766210Y-93764673D01*
X136923038Y-93764673D01*
X137076852Y-93795269D01*
G37*
G36*
X169662640Y-91107351D02*
G01*
X169758724Y-91162825D01*
X169837175Y-91241276D01*
X169892649Y-91337360D01*
X169921364Y-91444526D01*
X169921364Y-91555474D01*
X169892649Y-91662640D01*
X169837175Y-91758724D01*
X169758724Y-91837175D01*
X169662640Y-91892649D01*
X169555474Y-91921364D01*
X169444526Y-91921364D01*
X169337360Y-91892649D01*
X169241276Y-91837175D01*
X169162825Y-91758724D01*
X169107351Y-91662640D01*
X169078636Y-91555474D01*
X169078636Y-91444526D01*
X169107351Y-91337360D01*
X169162825Y-91241276D01*
X169241276Y-91162825D01*
X169337360Y-91107351D01*
X169444526Y-91078636D01*
X169555474Y-91078636D01*
X169662640Y-91107351D01*
G37*
G36*
X135662640Y-90197351D02*
G01*
X135758724Y-90252825D01*
X135837175Y-90331276D01*
X135892649Y-90427360D01*
X135921364Y-90534526D01*
X135921364Y-90645474D01*
X135892649Y-90752640D01*
X135837175Y-90848724D01*
X135758724Y-90927175D01*
X135662640Y-90982649D01*
X135555474Y-91011364D01*
X135444526Y-91011364D01*
X135337360Y-90982649D01*
X135241276Y-90927175D01*
X135162825Y-90848724D01*
X135107351Y-90752640D01*
X135078636Y-90645474D01*
X135078636Y-90534526D01*
X135107351Y-90427360D01*
X135162825Y-90331276D01*
X135241276Y-90252825D01*
X135337360Y-90197351D01*
X135444526Y-90168636D01*
X135555474Y-90168636D01*
X135662640Y-90197351D01*
G37*
G36*
X169662640Y-90107351D02*
G01*
X169758724Y-90162825D01*
X169837175Y-90241276D01*
X169892649Y-90337360D01*
X169921364Y-90444526D01*
X169921364Y-90555474D01*
X169892649Y-90662640D01*
X169837175Y-90758724D01*
X169758724Y-90837175D01*
X169662640Y-90892649D01*
X169555474Y-90921364D01*
X169444526Y-90921364D01*
X169337360Y-90892649D01*
X169241276Y-90837175D01*
X169162825Y-90758724D01*
X169107351Y-90662640D01*
X169078636Y-90555474D01*
X169078636Y-90444526D01*
X169107351Y-90337360D01*
X169162825Y-90241276D01*
X169241276Y-90162825D01*
X169337360Y-90107351D01*
X169444526Y-90078636D01*
X169555474Y-90078636D01*
X169662640Y-90107351D01*
G37*
G36*
X135662640Y-89197351D02*
G01*
X135758724Y-89252825D01*
X135837175Y-89331276D01*
X135892649Y-89427360D01*
X135921364Y-89534526D01*
X135921364Y-89645474D01*
X135892649Y-89752640D01*
X135837175Y-89848724D01*
X135758724Y-89927175D01*
X135662640Y-89982649D01*
X135555474Y-90011364D01*
X135444526Y-90011364D01*
X135337360Y-89982649D01*
X135241276Y-89927175D01*
X135162825Y-89848724D01*
X135107351Y-89752640D01*
X135078636Y-89645474D01*
X135078636Y-89534526D01*
X135107351Y-89427360D01*
X135162825Y-89331276D01*
X135241276Y-89252825D01*
X135337360Y-89197351D01*
X135444526Y-89168636D01*
X135555474Y-89168636D01*
X135662640Y-89197351D01*
G37*
G36*
X169662640Y-89107351D02*
G01*
X169758724Y-89162825D01*
X169837175Y-89241276D01*
X169892649Y-89337360D01*
X169921364Y-89444526D01*
X169921364Y-89555474D01*
X169892649Y-89662640D01*
X169837175Y-89758724D01*
X169758724Y-89837175D01*
X169662640Y-89892649D01*
X169555474Y-89921364D01*
X169444526Y-89921364D01*
X169337360Y-89892649D01*
X169241276Y-89837175D01*
X169162825Y-89758724D01*
X169107351Y-89662640D01*
X169078636Y-89555474D01*
X169078636Y-89444526D01*
X169107351Y-89337360D01*
X169162825Y-89241276D01*
X169241276Y-89162825D01*
X169337360Y-89107351D01*
X169444526Y-89078636D01*
X169555474Y-89078636D01*
X169662640Y-89107351D01*
G37*
G36*
X135662640Y-88197351D02*
G01*
X135758724Y-88252825D01*
X135837175Y-88331276D01*
X135892649Y-88427360D01*
X135921364Y-88534526D01*
X135921364Y-88645474D01*
X135892649Y-88752640D01*
X135837175Y-88848724D01*
X135758724Y-88927175D01*
X135662640Y-88982649D01*
X135555474Y-89011364D01*
X135444526Y-89011364D01*
X135337360Y-88982649D01*
X135241276Y-88927175D01*
X135162825Y-88848724D01*
X135107351Y-88752640D01*
X135078636Y-88645474D01*
X135078636Y-88534526D01*
X135107351Y-88427360D01*
X135162825Y-88331276D01*
X135241276Y-88252825D01*
X135337360Y-88197351D01*
X135444526Y-88168636D01*
X135555474Y-88168636D01*
X135662640Y-88197351D01*
G37*
G36*
X169662640Y-88107351D02*
G01*
X169758724Y-88162825D01*
X169837175Y-88241276D01*
X169892649Y-88337360D01*
X169921364Y-88444526D01*
X169921364Y-88555474D01*
X169892649Y-88662640D01*
X169837175Y-88758724D01*
X169758724Y-88837175D01*
X169662640Y-88892649D01*
X169555474Y-88921364D01*
X169444526Y-88921364D01*
X169337360Y-88892649D01*
X169241276Y-88837175D01*
X169162825Y-88758724D01*
X169107351Y-88662640D01*
X169078636Y-88555474D01*
X169078636Y-88444526D01*
X169107351Y-88337360D01*
X169162825Y-88241276D01*
X169241276Y-88162825D01*
X169337360Y-88107351D01*
X169444526Y-88078636D01*
X169555474Y-88078636D01*
X169662640Y-88107351D01*
G37*
G36*
X135662640Y-87197351D02*
G01*
X135758724Y-87252825D01*
X135837175Y-87331276D01*
X135892649Y-87427360D01*
X135921364Y-87534526D01*
X135921364Y-87645474D01*
X135892649Y-87752640D01*
X135837175Y-87848724D01*
X135758724Y-87927175D01*
X135662640Y-87982649D01*
X135555474Y-88011364D01*
X135444526Y-88011364D01*
X135337360Y-87982649D01*
X135241276Y-87927175D01*
X135162825Y-87848724D01*
X135107351Y-87752640D01*
X135078636Y-87645474D01*
X135078636Y-87534526D01*
X135107351Y-87427360D01*
X135162825Y-87331276D01*
X135241276Y-87252825D01*
X135337360Y-87197351D01*
X135444526Y-87168636D01*
X135555474Y-87168636D01*
X135662640Y-87197351D01*
G37*
G36*
X169662640Y-87107351D02*
G01*
X169758724Y-87162825D01*
X169837175Y-87241276D01*
X169892649Y-87337360D01*
X169921364Y-87444526D01*
X169921364Y-87555474D01*
X169892649Y-87662640D01*
X169837175Y-87758724D01*
X169758724Y-87837175D01*
X169662640Y-87892649D01*
X169555474Y-87921364D01*
X169444526Y-87921364D01*
X169337360Y-87892649D01*
X169241276Y-87837175D01*
X169162825Y-87758724D01*
X169107351Y-87662640D01*
X169078636Y-87555474D01*
X169078636Y-87444526D01*
X169107351Y-87337360D01*
X169162825Y-87241276D01*
X169241276Y-87162825D01*
X169337360Y-87107351D01*
X169444526Y-87078636D01*
X169555474Y-87078636D01*
X169662640Y-87107351D01*
G37*
G36*
X135662640Y-86197351D02*
G01*
X135758724Y-86252825D01*
X135837175Y-86331276D01*
X135892649Y-86427360D01*
X135921364Y-86534526D01*
X135921364Y-86645474D01*
X135892649Y-86752640D01*
X135837175Y-86848724D01*
X135758724Y-86927175D01*
X135662640Y-86982649D01*
X135555474Y-87011364D01*
X135444526Y-87011364D01*
X135337360Y-86982649D01*
X135241276Y-86927175D01*
X135162825Y-86848724D01*
X135107351Y-86752640D01*
X135078636Y-86645474D01*
X135078636Y-86534526D01*
X135107351Y-86427360D01*
X135162825Y-86331276D01*
X135241276Y-86252825D01*
X135337360Y-86197351D01*
X135444526Y-86168636D01*
X135555474Y-86168636D01*
X135662640Y-86197351D01*
G37*
G36*
X169662640Y-86107351D02*
G01*
X169758724Y-86162825D01*
X169837175Y-86241276D01*
X169892649Y-86337360D01*
X169921364Y-86444526D01*
X169921364Y-86555474D01*
X169892649Y-86662640D01*
X169837175Y-86758724D01*
X169758724Y-86837175D01*
X169662640Y-86892649D01*
X169555474Y-86921364D01*
X169444526Y-86921364D01*
X169337360Y-86892649D01*
X169241276Y-86837175D01*
X169162825Y-86758724D01*
X169107351Y-86662640D01*
X169078636Y-86555474D01*
X169078636Y-86444526D01*
X169107351Y-86337360D01*
X169162825Y-86241276D01*
X169241276Y-86162825D01*
X169337360Y-86107351D01*
X169444526Y-86078636D01*
X169555474Y-86078636D01*
X169662640Y-86107351D01*
G37*
G36*
X135662640Y-85197351D02*
G01*
X135758724Y-85252825D01*
X135837175Y-85331276D01*
X135892649Y-85427360D01*
X135921364Y-85534526D01*
X135921364Y-85645474D01*
X135892649Y-85752640D01*
X135837175Y-85848724D01*
X135758724Y-85927175D01*
X135662640Y-85982649D01*
X135555474Y-86011364D01*
X135444526Y-86011364D01*
X135337360Y-85982649D01*
X135241276Y-85927175D01*
X135162825Y-85848724D01*
X135107351Y-85752640D01*
X135078636Y-85645474D01*
X135078636Y-85534526D01*
X135107351Y-85427360D01*
X135162825Y-85331276D01*
X135241276Y-85252825D01*
X135337360Y-85197351D01*
X135444526Y-85168636D01*
X135555474Y-85168636D01*
X135662640Y-85197351D01*
G37*
G36*
X169662640Y-85107351D02*
G01*
X169758724Y-85162825D01*
X169837175Y-85241276D01*
X169892649Y-85337360D01*
X169921364Y-85444526D01*
X169921364Y-85555474D01*
X169892649Y-85662640D01*
X169837175Y-85758724D01*
X169758724Y-85837175D01*
X169662640Y-85892649D01*
X169555474Y-85921364D01*
X169444526Y-85921364D01*
X169337360Y-85892649D01*
X169241276Y-85837175D01*
X169162825Y-85758724D01*
X169107351Y-85662640D01*
X169078636Y-85555474D01*
X169078636Y-85444526D01*
X169107351Y-85337360D01*
X169162825Y-85241276D01*
X169241276Y-85162825D01*
X169337360Y-85107351D01*
X169444526Y-85078636D01*
X169555474Y-85078636D01*
X169662640Y-85107351D01*
G37*
G36*
X135662640Y-84197351D02*
G01*
X135758724Y-84252825D01*
X135837175Y-84331276D01*
X135892649Y-84427360D01*
X135921364Y-84534526D01*
X135921364Y-84645474D01*
X135892649Y-84752640D01*
X135837175Y-84848724D01*
X135758724Y-84927175D01*
X135662640Y-84982649D01*
X135555474Y-85011364D01*
X135444526Y-85011364D01*
X135337360Y-84982649D01*
X135241276Y-84927175D01*
X135162825Y-84848724D01*
X135107351Y-84752640D01*
X135078636Y-84645474D01*
X135078636Y-84534526D01*
X135107351Y-84427360D01*
X135162825Y-84331276D01*
X135241276Y-84252825D01*
X135337360Y-84197351D01*
X135444526Y-84168636D01*
X135555474Y-84168636D01*
X135662640Y-84197351D01*
G37*
G36*
X169662640Y-84107351D02*
G01*
X169758724Y-84162825D01*
X169837175Y-84241276D01*
X169892649Y-84337360D01*
X169921364Y-84444526D01*
X169921364Y-84555474D01*
X169892649Y-84662640D01*
X169837175Y-84758724D01*
X169758724Y-84837175D01*
X169662640Y-84892649D01*
X169555474Y-84921364D01*
X169444526Y-84921364D01*
X169337360Y-84892649D01*
X169241276Y-84837175D01*
X169162825Y-84758724D01*
X169107351Y-84662640D01*
X169078636Y-84555474D01*
X169078636Y-84444526D01*
X169107351Y-84337360D01*
X169162825Y-84241276D01*
X169241276Y-84162825D01*
X169337360Y-84107351D01*
X169444526Y-84078636D01*
X169555474Y-84078636D01*
X169662640Y-84107351D01*
G37*
G36*
X135662640Y-83197351D02*
G01*
X135758724Y-83252825D01*
X135837175Y-83331276D01*
X135892649Y-83427360D01*
X135921364Y-83534526D01*
X135921364Y-83645474D01*
X135892649Y-83752640D01*
X135837175Y-83848724D01*
X135758724Y-83927175D01*
X135662640Y-83982649D01*
X135555474Y-84011364D01*
X135444526Y-84011364D01*
X135337360Y-83982649D01*
X135241276Y-83927175D01*
X135162825Y-83848724D01*
X135107351Y-83752640D01*
X135078636Y-83645474D01*
X135078636Y-83534526D01*
X135107351Y-83427360D01*
X135162825Y-83331276D01*
X135241276Y-83252825D01*
X135337360Y-83197351D01*
X135444526Y-83168636D01*
X135555474Y-83168636D01*
X135662640Y-83197351D01*
G37*
G36*
X169662640Y-83107351D02*
G01*
X169758724Y-83162825D01*
X169837175Y-83241276D01*
X169892649Y-83337360D01*
X169921364Y-83444526D01*
X169921364Y-83555474D01*
X169892649Y-83662640D01*
X169837175Y-83758724D01*
X169758724Y-83837175D01*
X169662640Y-83892649D01*
X169555474Y-83921364D01*
X169444526Y-83921364D01*
X169337360Y-83892649D01*
X169241276Y-83837175D01*
X169162825Y-83758724D01*
X169107351Y-83662640D01*
X169078636Y-83555474D01*
X169078636Y-83444526D01*
X169107351Y-83337360D01*
X169162825Y-83241276D01*
X169241276Y-83162825D01*
X169337360Y-83107351D01*
X169444526Y-83078636D01*
X169555474Y-83078636D01*
X169662640Y-83107351D01*
G37*
G36*
X135662640Y-82197351D02*
G01*
X135758724Y-82252825D01*
X135837175Y-82331276D01*
X135892649Y-82427360D01*
X135921364Y-82534526D01*
X135921364Y-82645474D01*
X135892649Y-82752640D01*
X135837175Y-82848724D01*
X135758724Y-82927175D01*
X135662640Y-82982649D01*
X135555474Y-83011364D01*
X135444526Y-83011364D01*
X135337360Y-82982649D01*
X135241276Y-82927175D01*
X135162825Y-82848724D01*
X135107351Y-82752640D01*
X135078636Y-82645474D01*
X135078636Y-82534526D01*
X135107351Y-82427360D01*
X135162825Y-82331276D01*
X135241276Y-82252825D01*
X135337360Y-82197351D01*
X135444526Y-82168636D01*
X135555474Y-82168636D01*
X135662640Y-82197351D01*
G37*
G36*
X169662640Y-82107351D02*
G01*
X169758724Y-82162825D01*
X169837175Y-82241276D01*
X169892649Y-82337360D01*
X169921364Y-82444526D01*
X169921364Y-82555474D01*
X169892649Y-82662640D01*
X169837175Y-82758724D01*
X169758724Y-82837175D01*
X169662640Y-82892649D01*
X169555474Y-82921364D01*
X169444526Y-82921364D01*
X169337360Y-82892649D01*
X169241276Y-82837175D01*
X169162825Y-82758724D01*
X169107351Y-82662640D01*
X169078636Y-82555474D01*
X169078636Y-82444526D01*
X169107351Y-82337360D01*
X169162825Y-82241276D01*
X169241276Y-82162825D01*
X169337360Y-82107351D01*
X169444526Y-82078636D01*
X169555474Y-82078636D01*
X169662640Y-82107351D01*
G37*
G36*
X135662640Y-81197351D02*
G01*
X135758724Y-81252825D01*
X135837175Y-81331276D01*
X135892649Y-81427360D01*
X135921364Y-81534526D01*
X135921364Y-81645474D01*
X135892649Y-81752640D01*
X135837175Y-81848724D01*
X135758724Y-81927175D01*
X135662640Y-81982649D01*
X135555474Y-82011364D01*
X135444526Y-82011364D01*
X135337360Y-81982649D01*
X135241276Y-81927175D01*
X135162825Y-81848724D01*
X135107351Y-81752640D01*
X135078636Y-81645474D01*
X135078636Y-81534526D01*
X135107351Y-81427360D01*
X135162825Y-81331276D01*
X135241276Y-81252825D01*
X135337360Y-81197351D01*
X135444526Y-81168636D01*
X135555474Y-81168636D01*
X135662640Y-81197351D01*
G37*
G36*
X169662640Y-81107351D02*
G01*
X169758724Y-81162825D01*
X169837175Y-81241276D01*
X169892649Y-81337360D01*
X169921364Y-81444526D01*
X169921364Y-81555474D01*
X169892649Y-81662640D01*
X169837175Y-81758724D01*
X169758724Y-81837175D01*
X169662640Y-81892649D01*
X169555474Y-81921364D01*
X169444526Y-81921364D01*
X169337360Y-81892649D01*
X169241276Y-81837175D01*
X169162825Y-81758724D01*
X169107351Y-81662640D01*
X169078636Y-81555474D01*
X169078636Y-81444526D01*
X169107351Y-81337360D01*
X169162825Y-81241276D01*
X169241276Y-81162825D01*
X169337360Y-81107351D01*
X169444526Y-81078636D01*
X169555474Y-81078636D01*
X169662640Y-81107351D01*
G37*
G36*
X135662640Y-80197351D02*
G01*
X135758724Y-80252825D01*
X135837175Y-80331276D01*
X135892649Y-80427360D01*
X135921364Y-80534526D01*
X135921364Y-80645474D01*
X135892649Y-80752640D01*
X135837175Y-80848724D01*
X135758724Y-80927175D01*
X135662640Y-80982649D01*
X135555474Y-81011364D01*
X135444526Y-81011364D01*
X135337360Y-80982649D01*
X135241276Y-80927175D01*
X135162825Y-80848724D01*
X135107351Y-80752640D01*
X135078636Y-80645474D01*
X135078636Y-80534526D01*
X135107351Y-80427360D01*
X135162825Y-80331276D01*
X135241276Y-80252825D01*
X135337360Y-80197351D01*
X135444526Y-80168636D01*
X135555474Y-80168636D01*
X135662640Y-80197351D01*
G37*
G36*
X169662640Y-80107351D02*
G01*
X169758724Y-80162825D01*
X169837175Y-80241276D01*
X169892649Y-80337360D01*
X169921364Y-80444526D01*
X169921364Y-80555474D01*
X169892649Y-80662640D01*
X169837175Y-80758724D01*
X169758724Y-80837175D01*
X169662640Y-80892649D01*
X169555474Y-80921364D01*
X169444526Y-80921364D01*
X169337360Y-80892649D01*
X169241276Y-80837175D01*
X169162825Y-80758724D01*
X169107351Y-80662640D01*
X169078636Y-80555474D01*
X169078636Y-80444526D01*
X169107351Y-80337360D01*
X169162825Y-80241276D01*
X169241276Y-80162825D01*
X169337360Y-80107351D01*
X169444526Y-80078636D01*
X169555474Y-80078636D01*
X169662640Y-80107351D01*
G37*
G36*
X135662640Y-79197351D02*
G01*
X135758724Y-79252825D01*
X135837175Y-79331276D01*
X135892649Y-79427360D01*
X135921364Y-79534526D01*
X135921364Y-79645474D01*
X135892649Y-79752640D01*
X135837175Y-79848724D01*
X135758724Y-79927175D01*
X135662640Y-79982649D01*
X135555474Y-80011364D01*
X135444526Y-80011364D01*
X135337360Y-79982649D01*
X135241276Y-79927175D01*
X135162825Y-79848724D01*
X135107351Y-79752640D01*
X135078636Y-79645474D01*
X135078636Y-79534526D01*
X135107351Y-79427360D01*
X135162825Y-79331276D01*
X135241276Y-79252825D01*
X135337360Y-79197351D01*
X135444526Y-79168636D01*
X135555474Y-79168636D01*
X135662640Y-79197351D01*
G37*
G36*
X169662640Y-79107351D02*
G01*
X169758724Y-79162825D01*
X169837175Y-79241276D01*
X169892649Y-79337360D01*
X169921364Y-79444526D01*
X169921364Y-79555474D01*
X169892649Y-79662640D01*
X169837175Y-79758724D01*
X169758724Y-79837175D01*
X169662640Y-79892649D01*
X169555474Y-79921364D01*
X169444526Y-79921364D01*
X169337360Y-79892649D01*
X169241276Y-79837175D01*
X169162825Y-79758724D01*
X169107351Y-79662640D01*
X169078636Y-79555474D01*
X169078636Y-79444526D01*
X169107351Y-79337360D01*
X169162825Y-79241276D01*
X169241276Y-79162825D01*
X169337360Y-79107351D01*
X169444526Y-79078636D01*
X169555474Y-79078636D01*
X169662640Y-79107351D01*
G37*
G36*
X135662640Y-78197351D02*
G01*
X135758724Y-78252825D01*
X135837175Y-78331276D01*
X135892649Y-78427360D01*
X135921364Y-78534526D01*
X135921364Y-78645474D01*
X135892649Y-78752640D01*
X135837175Y-78848724D01*
X135758724Y-78927175D01*
X135662640Y-78982649D01*
X135555474Y-79011364D01*
X135444526Y-79011364D01*
X135337360Y-78982649D01*
X135241276Y-78927175D01*
X135162825Y-78848724D01*
X135107351Y-78752640D01*
X135078636Y-78645474D01*
X135078636Y-78534526D01*
X135107351Y-78427360D01*
X135162825Y-78331276D01*
X135241276Y-78252825D01*
X135337360Y-78197351D01*
X135444526Y-78168636D01*
X135555474Y-78168636D01*
X135662640Y-78197351D01*
G37*
G36*
X169662640Y-78107351D02*
G01*
X169758724Y-78162825D01*
X169837175Y-78241276D01*
X169892649Y-78337360D01*
X169921364Y-78444526D01*
X169921364Y-78555474D01*
X169892649Y-78662640D01*
X169837175Y-78758724D01*
X169758724Y-78837175D01*
X169662640Y-78892649D01*
X169555474Y-78921364D01*
X169444526Y-78921364D01*
X169337360Y-78892649D01*
X169241276Y-78837175D01*
X169162825Y-78758724D01*
X169107351Y-78662640D01*
X169078636Y-78555474D01*
X169078636Y-78444526D01*
X169107351Y-78337360D01*
X169162825Y-78241276D01*
X169241276Y-78162825D01*
X169337360Y-78107351D01*
X169444526Y-78078636D01*
X169555474Y-78078636D01*
X169662640Y-78107351D01*
G37*
G36*
X135662640Y-77197351D02*
G01*
X135758724Y-77252825D01*
X135837175Y-77331276D01*
X135892649Y-77427360D01*
X135921364Y-77534526D01*
X135921364Y-77645474D01*
X135892649Y-77752640D01*
X135837175Y-77848724D01*
X135758724Y-77927175D01*
X135662640Y-77982649D01*
X135555474Y-78011364D01*
X135444526Y-78011364D01*
X135337360Y-77982649D01*
X135241276Y-77927175D01*
X135162825Y-77848724D01*
X135107351Y-77752640D01*
X135078636Y-77645474D01*
X135078636Y-77534526D01*
X135107351Y-77427360D01*
X135162825Y-77331276D01*
X135241276Y-77252825D01*
X135337360Y-77197351D01*
X135444526Y-77168636D01*
X135555474Y-77168636D01*
X135662640Y-77197351D01*
G37*
G36*
X169662640Y-77107351D02*
G01*
X169758724Y-77162825D01*
X169837175Y-77241276D01*
X169892649Y-77337360D01*
X169921364Y-77444526D01*
X169921364Y-77555474D01*
X169892649Y-77662640D01*
X169837175Y-77758724D01*
X169758724Y-77837175D01*
X169662640Y-77892649D01*
X169555474Y-77921364D01*
X169444526Y-77921364D01*
X169337360Y-77892649D01*
X169241276Y-77837175D01*
X169162825Y-77758724D01*
X169107351Y-77662640D01*
X169078636Y-77555474D01*
X169078636Y-77444526D01*
X169107351Y-77337360D01*
X169162825Y-77241276D01*
X169241276Y-77162825D01*
X169337360Y-77107351D01*
X169444526Y-77078636D01*
X169555474Y-77078636D01*
X169662640Y-77107351D01*
G37*
G36*
X135662640Y-76197351D02*
G01*
X135758724Y-76252825D01*
X135837175Y-76331276D01*
X135892649Y-76427360D01*
X135921364Y-76534526D01*
X135921364Y-76645474D01*
X135892649Y-76752640D01*
X135837175Y-76848724D01*
X135758724Y-76927175D01*
X135662640Y-76982649D01*
X135555474Y-77011364D01*
X135444526Y-77011364D01*
X135337360Y-76982649D01*
X135241276Y-76927175D01*
X135162825Y-76848724D01*
X135107351Y-76752640D01*
X135078636Y-76645474D01*
X135078636Y-76534526D01*
X135107351Y-76427360D01*
X135162825Y-76331276D01*
X135241276Y-76252825D01*
X135337360Y-76197351D01*
X135444526Y-76168636D01*
X135555474Y-76168636D01*
X135662640Y-76197351D01*
G37*
G36*
X169662640Y-76107351D02*
G01*
X169758724Y-76162825D01*
X169837175Y-76241276D01*
X169892649Y-76337360D01*
X169921364Y-76444526D01*
X169921364Y-76555474D01*
X169892649Y-76662640D01*
X169837175Y-76758724D01*
X169758724Y-76837175D01*
X169662640Y-76892649D01*
X169555474Y-76921364D01*
X169444526Y-76921364D01*
X169337360Y-76892649D01*
X169241276Y-76837175D01*
X169162825Y-76758724D01*
X169107351Y-76662640D01*
X169078636Y-76555474D01*
X169078636Y-76444526D01*
X169107351Y-76337360D01*
X169162825Y-76241276D01*
X169241276Y-76162825D01*
X169337360Y-76107351D01*
X169444526Y-76078636D01*
X169555474Y-76078636D01*
X169662640Y-76107351D01*
G37*
G36*
X135662640Y-75197351D02*
G01*
X135758724Y-75252825D01*
X135837175Y-75331276D01*
X135892649Y-75427360D01*
X135921364Y-75534526D01*
X135921364Y-75645474D01*
X135892649Y-75752640D01*
X135837175Y-75848724D01*
X135758724Y-75927175D01*
X135662640Y-75982649D01*
X135555474Y-76011364D01*
X135444526Y-76011364D01*
X135337360Y-75982649D01*
X135241276Y-75927175D01*
X135162825Y-75848724D01*
X135107351Y-75752640D01*
X135078636Y-75645474D01*
X135078636Y-75534526D01*
X135107351Y-75427360D01*
X135162825Y-75331276D01*
X135241276Y-75252825D01*
X135337360Y-75197351D01*
X135444526Y-75168636D01*
X135555474Y-75168636D01*
X135662640Y-75197351D01*
G37*
G36*
X169662640Y-75107351D02*
G01*
X169758724Y-75162825D01*
X169837175Y-75241276D01*
X169892649Y-75337360D01*
X169921364Y-75444526D01*
X169921364Y-75555474D01*
X169892649Y-75662640D01*
X169837175Y-75758724D01*
X169758724Y-75837175D01*
X169662640Y-75892649D01*
X169555474Y-75921364D01*
X169444526Y-75921364D01*
X169337360Y-75892649D01*
X169241276Y-75837175D01*
X169162825Y-75758724D01*
X169107351Y-75662640D01*
X169078636Y-75555474D01*
X169078636Y-75444526D01*
X169107351Y-75337360D01*
X169162825Y-75241276D01*
X169241276Y-75162825D01*
X169337360Y-75107351D01*
X169444526Y-75078636D01*
X169555474Y-75078636D01*
X169662640Y-75107351D01*
G37*
G36*
X135662640Y-74197351D02*
G01*
X135758724Y-74252825D01*
X135837175Y-74331276D01*
X135892649Y-74427360D01*
X135921364Y-74534526D01*
X135921364Y-74645474D01*
X135892649Y-74752640D01*
X135837175Y-74848724D01*
X135758724Y-74927175D01*
X135662640Y-74982649D01*
X135555474Y-75011364D01*
X135444526Y-75011364D01*
X135337360Y-74982649D01*
X135241276Y-74927175D01*
X135162825Y-74848724D01*
X135107351Y-74752640D01*
X135078636Y-74645474D01*
X135078636Y-74534526D01*
X135107351Y-74427360D01*
X135162825Y-74331276D01*
X135241276Y-74252825D01*
X135337360Y-74197351D01*
X135444526Y-74168636D01*
X135555474Y-74168636D01*
X135662640Y-74197351D01*
G37*
G36*
X169662640Y-74107351D02*
G01*
X169758724Y-74162825D01*
X169837175Y-74241276D01*
X169892649Y-74337360D01*
X169921364Y-74444526D01*
X169921364Y-74555474D01*
X169892649Y-74662640D01*
X169837175Y-74758724D01*
X169758724Y-74837175D01*
X169662640Y-74892649D01*
X169555474Y-74921364D01*
X169444526Y-74921364D01*
X169337360Y-74892649D01*
X169241276Y-74837175D01*
X169162825Y-74758724D01*
X169107351Y-74662640D01*
X169078636Y-74555474D01*
X169078636Y-74444526D01*
X169107351Y-74337360D01*
X169162825Y-74241276D01*
X169241276Y-74162825D01*
X169337360Y-74107351D01*
X169444526Y-74078636D01*
X169555474Y-74078636D01*
X169662640Y-74107351D01*
G37*
G36*
X135662640Y-73197351D02*
G01*
X135758724Y-73252825D01*
X135837175Y-73331276D01*
X135892649Y-73427360D01*
X135921364Y-73534526D01*
X135921364Y-73645474D01*
X135892649Y-73752640D01*
X135837175Y-73848724D01*
X135758724Y-73927175D01*
X135662640Y-73982649D01*
X135555474Y-74011364D01*
X135444526Y-74011364D01*
X135337360Y-73982649D01*
X135241276Y-73927175D01*
X135162825Y-73848724D01*
X135107351Y-73752640D01*
X135078636Y-73645474D01*
X135078636Y-73534526D01*
X135107351Y-73427360D01*
X135162825Y-73331276D01*
X135241276Y-73252825D01*
X135337360Y-73197351D01*
X135444526Y-73168636D01*
X135555474Y-73168636D01*
X135662640Y-73197351D01*
G37*
G36*
X169662640Y-73107351D02*
G01*
X169758724Y-73162825D01*
X169837175Y-73241276D01*
X169892649Y-73337360D01*
X169921364Y-73444526D01*
X169921364Y-73555474D01*
X169892649Y-73662640D01*
X169837175Y-73758724D01*
X169758724Y-73837175D01*
X169662640Y-73892649D01*
X169555474Y-73921364D01*
X169444526Y-73921364D01*
X169337360Y-73892649D01*
X169241276Y-73837175D01*
X169162825Y-73758724D01*
X169107351Y-73662640D01*
X169078636Y-73555474D01*
X169078636Y-73444526D01*
X169107351Y-73337360D01*
X169162825Y-73241276D01*
X169241276Y-73162825D01*
X169337360Y-73107351D01*
X169444526Y-73078636D01*
X169555474Y-73078636D01*
X169662640Y-73107351D01*
G37*
G36*
X135662640Y-72197351D02*
G01*
X135758724Y-72252825D01*
X135837175Y-72331276D01*
X135892649Y-72427360D01*
X135921364Y-72534526D01*
X135921364Y-72645474D01*
X135892649Y-72752640D01*
X135837175Y-72848724D01*
X135758724Y-72927175D01*
X135662640Y-72982649D01*
X135555474Y-73011364D01*
X135444526Y-73011364D01*
X135337360Y-72982649D01*
X135241276Y-72927175D01*
X135162825Y-72848724D01*
X135107351Y-72752640D01*
X135078636Y-72645474D01*
X135078636Y-72534526D01*
X135107351Y-72427360D01*
X135162825Y-72331276D01*
X135241276Y-72252825D01*
X135337360Y-72197351D01*
X135444526Y-72168636D01*
X135555474Y-72168636D01*
X135662640Y-72197351D01*
G37*
G36*
X169662640Y-72107351D02*
G01*
X169758724Y-72162825D01*
X169837175Y-72241276D01*
X169892649Y-72337360D01*
X169921364Y-72444526D01*
X169921364Y-72555474D01*
X169892649Y-72662640D01*
X169837175Y-72758724D01*
X169758724Y-72837175D01*
X169662640Y-72892649D01*
X169555474Y-72921364D01*
X169444526Y-72921364D01*
X169337360Y-72892649D01*
X169241276Y-72837175D01*
X169162825Y-72758724D01*
X169107351Y-72662640D01*
X169078636Y-72555474D01*
X169078636Y-72444526D01*
X169107351Y-72337360D01*
X169162825Y-72241276D01*
X169241276Y-72162825D01*
X169337360Y-72107351D01*
X169444526Y-72078636D01*
X169555474Y-72078636D01*
X169662640Y-72107351D01*
G37*
G36*
X135662640Y-71197351D02*
G01*
X135758724Y-71252825D01*
X135837175Y-71331276D01*
X135892649Y-71427360D01*
X135921364Y-71534526D01*
X135921364Y-71645474D01*
X135892649Y-71752640D01*
X135837175Y-71848724D01*
X135758724Y-71927175D01*
X135662640Y-71982649D01*
X135555474Y-72011364D01*
X135444526Y-72011364D01*
X135337360Y-71982649D01*
X135241276Y-71927175D01*
X135162825Y-71848724D01*
X135107351Y-71752640D01*
X135078636Y-71645474D01*
X135078636Y-71534526D01*
X135107351Y-71427360D01*
X135162825Y-71331276D01*
X135241276Y-71252825D01*
X135337360Y-71197351D01*
X135444526Y-71168636D01*
X135555474Y-71168636D01*
X135662640Y-71197351D01*
G37*
G36*
X169662640Y-71107351D02*
G01*
X169758724Y-71162825D01*
X169837175Y-71241276D01*
X169892649Y-71337360D01*
X169921364Y-71444526D01*
X169921364Y-71555474D01*
X169892649Y-71662640D01*
X169837175Y-71758724D01*
X169758724Y-71837175D01*
X169662640Y-71892649D01*
X169555474Y-71921364D01*
X169444526Y-71921364D01*
X169337360Y-71892649D01*
X169241276Y-71837175D01*
X169162825Y-71758724D01*
X169107351Y-71662640D01*
X169078636Y-71555474D01*
X169078636Y-71444526D01*
X169107351Y-71337360D01*
X169162825Y-71241276D01*
X169241276Y-71162825D01*
X169337360Y-71107351D01*
X169444526Y-71078636D01*
X169555474Y-71078636D01*
X169662640Y-71107351D01*
G37*
G36*
X135662640Y-70197351D02*
G01*
X135758724Y-70252825D01*
X135837175Y-70331276D01*
X135892649Y-70427360D01*
X135921364Y-70534526D01*
X135921364Y-70645474D01*
X135892649Y-70752640D01*
X135837175Y-70848724D01*
X135758724Y-70927175D01*
X135662640Y-70982649D01*
X135555474Y-71011364D01*
X135444526Y-71011364D01*
X135337360Y-70982649D01*
X135241276Y-70927175D01*
X135162825Y-70848724D01*
X135107351Y-70752640D01*
X135078636Y-70645474D01*
X135078636Y-70534526D01*
X135107351Y-70427360D01*
X135162825Y-70331276D01*
X135241276Y-70252825D01*
X135337360Y-70197351D01*
X135444526Y-70168636D01*
X135555474Y-70168636D01*
X135662640Y-70197351D01*
G37*
G36*
X169925000Y-70925000D02*
G01*
X169075000Y-70925000D01*
X169075000Y-70075000D01*
X169925000Y-70075000D01*
X169925000Y-70925000D01*
G37*
G36*
X135925000Y-70015000D02*
G01*
X135075000Y-70015000D01*
X135075000Y-69165000D01*
X135925000Y-69165000D01*
X135925000Y-70015000D01*
G37*
G36*
X137841408Y-60783626D02*
G01*
X138062519Y-60842872D01*
X138274005Y-60930473D01*
X138472248Y-61044928D01*
X138653855Y-61184280D01*
X138815720Y-61346145D01*
X138955072Y-61527752D01*
X139069527Y-61725995D01*
X139157128Y-61937481D01*
X139216374Y-62158592D01*
X139246253Y-62385545D01*
X139246253Y-62614455D01*
X139216374Y-62841408D01*
X139157128Y-63062519D01*
X139069527Y-63274005D01*
X138955072Y-63472248D01*
X138815720Y-63653855D01*
X138653855Y-63815720D01*
X138472248Y-63955072D01*
X138274005Y-64069527D01*
X138062519Y-64157128D01*
X137841408Y-64216374D01*
X137614455Y-64246253D01*
X137385545Y-64246253D01*
X137158592Y-64216374D01*
X136937481Y-64157128D01*
X136725995Y-64069527D01*
X136527752Y-63955072D01*
X136346145Y-63815720D01*
X136184280Y-63653855D01*
X136044928Y-63472248D01*
X135930473Y-63274005D01*
X135842872Y-63062519D01*
X135783626Y-62841408D01*
X135753747Y-62614455D01*
X135753747Y-62385545D01*
X135783626Y-62158592D01*
X135842872Y-61937481D01*
X135930473Y-61725995D01*
X136044928Y-61527752D01*
X136184280Y-61346145D01*
X136346145Y-61184280D01*
X136527752Y-61044928D01*
X136725995Y-60930473D01*
X136937481Y-60842872D01*
X137158592Y-60783626D01*
X137385545Y-60753747D01*
X137614455Y-60753747D01*
X137841408Y-60783626D01*
G37*
G36*
X168841408Y-60783626D02*
G01*
X169062519Y-60842872D01*
X169274005Y-60930473D01*
X169472248Y-61044928D01*
X169653855Y-61184280D01*
X169815720Y-61346145D01*
X169955072Y-61527752D01*
X170069527Y-61725995D01*
X170157128Y-61937481D01*
X170216374Y-62158592D01*
X170246253Y-62385545D01*
X170246253Y-62614455D01*
X170216374Y-62841408D01*
X170157128Y-63062519D01*
X170069527Y-63274005D01*
X169955072Y-63472248D01*
X169815720Y-63653855D01*
X169653855Y-63815720D01*
X169472248Y-63955072D01*
X169274005Y-64069527D01*
X169062519Y-64157128D01*
X168841408Y-64216374D01*
X168614455Y-64246253D01*
X168385545Y-64246253D01*
X168158592Y-64216374D01*
X167937481Y-64157128D01*
X167725995Y-64069527D01*
X167527752Y-63955072D01*
X167346145Y-63815720D01*
X167184280Y-63653855D01*
X167044928Y-63472248D01*
X166930473Y-63274005D01*
X166842872Y-63062519D01*
X166783626Y-62841408D01*
X166753747Y-62614455D01*
X166753747Y-62385545D01*
X166783626Y-62158592D01*
X166842872Y-61937481D01*
X166930473Y-61725995D01*
X167044928Y-61527752D01*
X167184280Y-61346145D01*
X167346145Y-61184280D01*
X167527752Y-61044928D01*
X167725995Y-60930473D01*
X167937481Y-60842872D01*
X168158592Y-60783626D01*
X168385545Y-60753747D01*
X168614455Y-60753747D01*
X168841408Y-60783626D01*
G37*
%LPD*%
M02*
