%TF.GenerationSoftware,KiCad,Pcbnew,10.0.1*%
%TF.CreationDate,2026-09-10T17:39:56+02:00*%
%TF.ProjectId,esp32s3_adc_mini_bat,65737033-3273-4335-9f61-64635f6d696e,rev?*%
%TF.SameCoordinates,Original*%
%TF.FileFunction,Legend,Top*%
%TF.FilePolarity,Positive*%
%FSLAX46Y46*%
G04 Gerber Fmt 4.6, Leading zero omitted, Abs format (unit mm)*
G04 Created by KiCad (PCBNEW 10.0.1) date 2026-09-10 17:39:56*
%MOMM*%
%LPD*%
G01*
G04 APERTURE LIST*
%ADD10C,0.100000*%
%ADD11C,0.150000*%
%ADD12C,0.250000*%
%ADD13C,0.060000*%
%ADD14C,0.120000*%
G04 APERTURE END LIST*
D10*
X134360000Y-81100000D02*
X134360000Y-89090000D01*
X134380000Y-78100000D02*
X134380000Y-79090000D01*
X134540000Y-81100000D02*
X134360000Y-81100000D01*
X134540000Y-89090000D02*
X134360000Y-89090000D01*
X134560000Y-78100000D02*
X134380000Y-78100000D01*
X134560000Y-79090000D02*
X134380000Y-79090000D01*
X170638561Y-88030000D02*
X170638561Y-89999931D01*
X170638561Y-89999931D02*
X170458561Y-89999931D01*
X170640000Y-88030000D02*
X170460000Y-88030000D01*
D11*
X172329819Y-90183220D02*
X171329819Y-90183220D01*
X171329819Y-90183220D02*
X172329819Y-89611792D01*
X172329819Y-89611792D02*
X171329819Y-89611792D01*
X171329819Y-88945125D02*
X171329819Y-88754649D01*
X171329819Y-88754649D02*
X171377438Y-88659411D01*
X171377438Y-88659411D02*
X171472676Y-88564173D01*
X171472676Y-88564173D02*
X171663152Y-88516554D01*
X171663152Y-88516554D02*
X171996485Y-88516554D01*
X171996485Y-88516554D02*
X172186961Y-88564173D01*
X172186961Y-88564173D02*
X172282200Y-88659411D01*
X172282200Y-88659411D02*
X172329819Y-88754649D01*
X172329819Y-88754649D02*
X172329819Y-88945125D01*
X172329819Y-88945125D02*
X172282200Y-89040363D01*
X172282200Y-89040363D02*
X172186961Y-89135601D01*
X172186961Y-89135601D02*
X171996485Y-89183220D01*
X171996485Y-89183220D02*
X171663152Y-89183220D01*
X171663152Y-89183220D02*
X171472676Y-89135601D01*
X171472676Y-89135601D02*
X171377438Y-89040363D01*
X171377438Y-89040363D02*
X171329819Y-88945125D01*
X172329819Y-88087982D02*
X171329819Y-88087982D01*
X171329819Y-88087982D02*
X171329819Y-87707030D01*
X171329819Y-87707030D02*
X171377438Y-87611792D01*
X171377438Y-87611792D02*
X171425057Y-87564173D01*
X171425057Y-87564173D02*
X171520295Y-87516554D01*
X171520295Y-87516554D02*
X171663152Y-87516554D01*
X171663152Y-87516554D02*
X171758390Y-87564173D01*
X171758390Y-87564173D02*
X171806009Y-87611792D01*
X171806009Y-87611792D02*
X171853628Y-87707030D01*
X171853628Y-87707030D02*
X171853628Y-88087982D01*
X133000180Y-77416779D02*
X134000180Y-77416779D01*
X134000180Y-77416779D02*
X133000180Y-77988207D01*
X133000180Y-77988207D02*
X134000180Y-77988207D01*
X134000180Y-78654874D02*
X134000180Y-78845350D01*
X134000180Y-78845350D02*
X133952561Y-78940588D01*
X133952561Y-78940588D02*
X133857323Y-79035826D01*
X133857323Y-79035826D02*
X133666847Y-79083445D01*
X133666847Y-79083445D02*
X133333514Y-79083445D01*
X133333514Y-79083445D02*
X133143038Y-79035826D01*
X133143038Y-79035826D02*
X133047800Y-78940588D01*
X133047800Y-78940588D02*
X133000180Y-78845350D01*
X133000180Y-78845350D02*
X133000180Y-78654874D01*
X133000180Y-78654874D02*
X133047800Y-78559636D01*
X133047800Y-78559636D02*
X133143038Y-78464398D01*
X133143038Y-78464398D02*
X133333514Y-78416779D01*
X133333514Y-78416779D02*
X133666847Y-78416779D01*
X133666847Y-78416779D02*
X133857323Y-78464398D01*
X133857323Y-78464398D02*
X133952561Y-78559636D01*
X133952561Y-78559636D02*
X134000180Y-78654874D01*
X133000180Y-79512017D02*
X134000180Y-79512017D01*
X134000180Y-79512017D02*
X134000180Y-79892969D01*
X134000180Y-79892969D02*
X133952561Y-79988207D01*
X133952561Y-79988207D02*
X133904942Y-80035826D01*
X133904942Y-80035826D02*
X133809704Y-80083445D01*
X133809704Y-80083445D02*
X133666847Y-80083445D01*
X133666847Y-80083445D02*
X133571609Y-80035826D01*
X133571609Y-80035826D02*
X133523990Y-79988207D01*
X133523990Y-79988207D02*
X133476371Y-79892969D01*
X133476371Y-79892969D02*
X133476371Y-79512017D01*
X133000180Y-83736779D02*
X134000180Y-83736779D01*
X134000180Y-83736779D02*
X133000180Y-84308207D01*
X133000180Y-84308207D02*
X134000180Y-84308207D01*
X134000180Y-84974874D02*
X134000180Y-85165350D01*
X134000180Y-85165350D02*
X133952561Y-85260588D01*
X133952561Y-85260588D02*
X133857323Y-85355826D01*
X133857323Y-85355826D02*
X133666847Y-85403445D01*
X133666847Y-85403445D02*
X133333514Y-85403445D01*
X133333514Y-85403445D02*
X133143038Y-85355826D01*
X133143038Y-85355826D02*
X133047800Y-85260588D01*
X133047800Y-85260588D02*
X133000180Y-85165350D01*
X133000180Y-85165350D02*
X133000180Y-84974874D01*
X133000180Y-84974874D02*
X133047800Y-84879636D01*
X133047800Y-84879636D02*
X133143038Y-84784398D01*
X133143038Y-84784398D02*
X133333514Y-84736779D01*
X133333514Y-84736779D02*
X133666847Y-84736779D01*
X133666847Y-84736779D02*
X133857323Y-84784398D01*
X133857323Y-84784398D02*
X133952561Y-84879636D01*
X133952561Y-84879636D02*
X134000180Y-84974874D01*
X133000180Y-85832017D02*
X134000180Y-85832017D01*
X134000180Y-85832017D02*
X134000180Y-86212969D01*
X134000180Y-86212969D02*
X133952561Y-86308207D01*
X133952561Y-86308207D02*
X133904942Y-86355826D01*
X133904942Y-86355826D02*
X133809704Y-86403445D01*
X133809704Y-86403445D02*
X133666847Y-86403445D01*
X133666847Y-86403445D02*
X133571609Y-86355826D01*
X133571609Y-86355826D02*
X133523990Y-86308207D01*
X133523990Y-86308207D02*
X133476371Y-86212969D01*
X133476371Y-86212969D02*
X133476371Y-85832017D01*
D10*
X122857419Y-85738095D02*
X122857419Y-86214285D01*
X122857419Y-86214285D02*
X123333609Y-86261904D01*
X123333609Y-86261904D02*
X123285990Y-86214285D01*
X123285990Y-86214285D02*
X123238371Y-86119047D01*
X123238371Y-86119047D02*
X123238371Y-85880952D01*
X123238371Y-85880952D02*
X123285990Y-85785714D01*
X123285990Y-85785714D02*
X123333609Y-85738095D01*
X123333609Y-85738095D02*
X123428847Y-85690476D01*
X123428847Y-85690476D02*
X123666942Y-85690476D01*
X123666942Y-85690476D02*
X123762180Y-85738095D01*
X123762180Y-85738095D02*
X123809800Y-85785714D01*
X123809800Y-85785714D02*
X123857419Y-85880952D01*
X123857419Y-85880952D02*
X123857419Y-86119047D01*
X123857419Y-86119047D02*
X123809800Y-86214285D01*
X123809800Y-86214285D02*
X123762180Y-86261904D01*
X122857419Y-85357142D02*
X122857419Y-84690476D01*
X122857419Y-84690476D02*
X123857419Y-85119047D01*
X131500000Y-57000000D02*
X123913580Y-57000000D01*
X123913580Y-114000000D02*
X131500000Y-114000000D01*
X124500000Y-57000000D02*
X124500000Y-114000000D01*
X124500000Y-57000000D02*
X125086421Y-58126504D01*
X124500000Y-57000000D02*
X123913579Y-58126504D01*
X124500000Y-114000000D02*
X123913579Y-112873496D01*
X124500000Y-114000000D02*
X125086421Y-112873496D01*
X152714285Y-121190752D02*
X152714285Y-121857419D01*
X152476190Y-120809800D02*
X152238095Y-121524085D01*
X152238095Y-121524085D02*
X152857142Y-121524085D01*
X153190476Y-120952657D02*
X153238095Y-120905038D01*
X153238095Y-120905038D02*
X153333333Y-120857419D01*
X153333333Y-120857419D02*
X153571428Y-120857419D01*
X153571428Y-120857419D02*
X153666666Y-120905038D01*
X153666666Y-120905038D02*
X153714285Y-120952657D01*
X153714285Y-120952657D02*
X153761904Y-121047895D01*
X153761904Y-121047895D02*
X153761904Y-121143133D01*
X153761904Y-121143133D02*
X153714285Y-121285990D01*
X153714285Y-121285990D02*
X153142857Y-121857419D01*
X153142857Y-121857419D02*
X153761904Y-121857419D01*
X174000000Y-114492500D02*
X174000000Y-123086420D01*
X132000000Y-123086420D02*
X132000000Y-114500000D01*
X174000000Y-122500000D02*
X132000000Y-122500000D01*
X174000000Y-122500000D02*
X172873496Y-123086421D01*
X174000000Y-122500000D02*
X172873496Y-121913579D01*
X132000000Y-122500000D02*
X133126504Y-121913579D01*
X132000000Y-122500000D02*
X133126504Y-123086421D01*
D11*
X139971904Y-93231009D02*
X140114761Y-93278628D01*
X140114761Y-93278628D02*
X140162380Y-93326247D01*
X140162380Y-93326247D02*
X140209999Y-93421485D01*
X140209999Y-93421485D02*
X140209999Y-93564342D01*
X140209999Y-93564342D02*
X140162380Y-93659580D01*
X140162380Y-93659580D02*
X140114761Y-93707200D01*
X140114761Y-93707200D02*
X140019523Y-93754819D01*
X140019523Y-93754819D02*
X139638571Y-93754819D01*
X139638571Y-93754819D02*
X139638571Y-92754819D01*
X139638571Y-92754819D02*
X139971904Y-92754819D01*
X139971904Y-92754819D02*
X140067142Y-92802438D01*
X140067142Y-92802438D02*
X140114761Y-92850057D01*
X140114761Y-92850057D02*
X140162380Y-92945295D01*
X140162380Y-92945295D02*
X140162380Y-93040533D01*
X140162380Y-93040533D02*
X140114761Y-93135771D01*
X140114761Y-93135771D02*
X140067142Y-93183390D01*
X140067142Y-93183390D02*
X139971904Y-93231009D01*
X139971904Y-93231009D02*
X139638571Y-93231009D01*
X140590952Y-93469104D02*
X141067142Y-93469104D01*
X140495714Y-93754819D02*
X140829047Y-92754819D01*
X140829047Y-92754819D02*
X141162380Y-93754819D01*
X141352857Y-92754819D02*
X141924285Y-92754819D01*
X141638571Y-93754819D02*
X141638571Y-92754819D01*
X165406666Y-85321009D02*
X165549523Y-85368628D01*
X165549523Y-85368628D02*
X165597142Y-85416247D01*
X165597142Y-85416247D02*
X165644761Y-85511485D01*
X165644761Y-85511485D02*
X165644761Y-85654342D01*
X165644761Y-85654342D02*
X165597142Y-85749580D01*
X165597142Y-85749580D02*
X165549523Y-85797200D01*
X165549523Y-85797200D02*
X165454285Y-85844819D01*
X165454285Y-85844819D02*
X165073333Y-85844819D01*
X165073333Y-85844819D02*
X165073333Y-84844819D01*
X165073333Y-84844819D02*
X165406666Y-84844819D01*
X165406666Y-84844819D02*
X165501904Y-84892438D01*
X165501904Y-84892438D02*
X165549523Y-84940057D01*
X165549523Y-84940057D02*
X165597142Y-85035295D01*
X165597142Y-85035295D02*
X165597142Y-85130533D01*
X165597142Y-85130533D02*
X165549523Y-85225771D01*
X165549523Y-85225771D02*
X165501904Y-85273390D01*
X165501904Y-85273390D02*
X165406666Y-85321009D01*
X165406666Y-85321009D02*
X165073333Y-85321009D01*
X166263809Y-84844819D02*
X166454285Y-84844819D01*
X166454285Y-84844819D02*
X166549523Y-84892438D01*
X166549523Y-84892438D02*
X166644761Y-84987676D01*
X166644761Y-84987676D02*
X166692380Y-85178152D01*
X166692380Y-85178152D02*
X166692380Y-85511485D01*
X166692380Y-85511485D02*
X166644761Y-85701961D01*
X166644761Y-85701961D02*
X166549523Y-85797200D01*
X166549523Y-85797200D02*
X166454285Y-85844819D01*
X166454285Y-85844819D02*
X166263809Y-85844819D01*
X166263809Y-85844819D02*
X166168571Y-85797200D01*
X166168571Y-85797200D02*
X166073333Y-85701961D01*
X166073333Y-85701961D02*
X166025714Y-85511485D01*
X166025714Y-85511485D02*
X166025714Y-85178152D01*
X166025714Y-85178152D02*
X166073333Y-84987676D01*
X166073333Y-84987676D02*
X166168571Y-84892438D01*
X166168571Y-84892438D02*
X166263809Y-84844819D01*
X166978095Y-84844819D02*
X167549523Y-84844819D01*
X167263809Y-85844819D02*
X167263809Y-84844819D01*
X165739999Y-100474819D02*
X165406666Y-99998628D01*
X165168571Y-100474819D02*
X165168571Y-99474819D01*
X165168571Y-99474819D02*
X165549523Y-99474819D01*
X165549523Y-99474819D02*
X165644761Y-99522438D01*
X165644761Y-99522438D02*
X165692380Y-99570057D01*
X165692380Y-99570057D02*
X165739999Y-99665295D01*
X165739999Y-99665295D02*
X165739999Y-99808152D01*
X165739999Y-99808152D02*
X165692380Y-99903390D01*
X165692380Y-99903390D02*
X165644761Y-99951009D01*
X165644761Y-99951009D02*
X165549523Y-99998628D01*
X165549523Y-99998628D02*
X165168571Y-99998628D01*
X166120952Y-100427200D02*
X166263809Y-100474819D01*
X166263809Y-100474819D02*
X166501904Y-100474819D01*
X166501904Y-100474819D02*
X166597142Y-100427200D01*
X166597142Y-100427200D02*
X166644761Y-100379580D01*
X166644761Y-100379580D02*
X166692380Y-100284342D01*
X166692380Y-100284342D02*
X166692380Y-100189104D01*
X166692380Y-100189104D02*
X166644761Y-100093866D01*
X166644761Y-100093866D02*
X166597142Y-100046247D01*
X166597142Y-100046247D02*
X166501904Y-99998628D01*
X166501904Y-99998628D02*
X166311428Y-99951009D01*
X166311428Y-99951009D02*
X166216190Y-99903390D01*
X166216190Y-99903390D02*
X166168571Y-99855771D01*
X166168571Y-99855771D02*
X166120952Y-99760533D01*
X166120952Y-99760533D02*
X166120952Y-99665295D01*
X166120952Y-99665295D02*
X166168571Y-99570057D01*
X166168571Y-99570057D02*
X166216190Y-99522438D01*
X166216190Y-99522438D02*
X166311428Y-99474819D01*
X166311428Y-99474819D02*
X166549523Y-99474819D01*
X166549523Y-99474819D02*
X166692380Y-99522438D01*
X166978095Y-99474819D02*
X167549523Y-99474819D01*
X167263809Y-100474819D02*
X167263809Y-99474819D01*
X133306667Y-106624819D02*
X133306667Y-105624819D01*
X133306667Y-105624819D02*
X133687619Y-105624819D01*
X133687619Y-105624819D02*
X133782857Y-105672438D01*
X133782857Y-105672438D02*
X133830476Y-105720057D01*
X133830476Y-105720057D02*
X133878095Y-105815295D01*
X133878095Y-105815295D02*
X133878095Y-105958152D01*
X133878095Y-105958152D02*
X133830476Y-106053390D01*
X133830476Y-106053390D02*
X133782857Y-106101009D01*
X133782857Y-106101009D02*
X133687619Y-106148628D01*
X133687619Y-106148628D02*
X133306667Y-106148628D01*
X134211429Y-105624819D02*
X134449524Y-106624819D01*
X134449524Y-106624819D02*
X134640000Y-105910533D01*
X134640000Y-105910533D02*
X134830476Y-106624819D01*
X134830476Y-106624819D02*
X135068572Y-105624819D01*
X136020952Y-106624819D02*
X135687619Y-106148628D01*
X135449524Y-106624819D02*
X135449524Y-105624819D01*
X135449524Y-105624819D02*
X135830476Y-105624819D01*
X135830476Y-105624819D02*
X135925714Y-105672438D01*
X135925714Y-105672438D02*
X135973333Y-105720057D01*
X135973333Y-105720057D02*
X136020952Y-105815295D01*
X136020952Y-105815295D02*
X136020952Y-105958152D01*
X136020952Y-105958152D02*
X135973333Y-106053390D01*
X135973333Y-106053390D02*
X135925714Y-106101009D01*
X135925714Y-106101009D02*
X135830476Y-106148628D01*
X135830476Y-106148628D02*
X135449524Y-106148628D01*
%TO.C,D2*%
D12*
X142970000Y-95220000D02*
X143200000Y-95220000D01*
X142970000Y-99420000D02*
X142970000Y-95220000D01*
X143200000Y-99420000D02*
X142970000Y-99420000D01*
X143770000Y-97570000D02*
X144770000Y-97570000D01*
X144270000Y-96600000D02*
X144270000Y-98070000D01*
X144270000Y-97070000D02*
X143770000Y-97570000D01*
X144770000Y-97070000D02*
X143770000Y-97070000D01*
X144770000Y-97570000D02*
X144270000Y-97070000D01*
X145340000Y-95220000D02*
X145570000Y-95220000D01*
X145570000Y-95220000D02*
X145570000Y-99420000D01*
X145570000Y-99420000D02*
X145340000Y-99420000D01*
D13*
X143000000Y-94690000D02*
G75*
G02*
X142940000Y-94690000I-30000J0D01*
G01*
X142940000Y-94690000D02*
G75*
G02*
X143000000Y-94690000I30000J0D01*
G01*
%TO.C,D4*%
D10*
X149325000Y-97820000D02*
G75*
G02*
X149225000Y-97820000I-50000J0D01*
G01*
X149225000Y-97820000D02*
G75*
G02*
X149325000Y-97820000I50000J0D01*
G01*
%TO.C,U1*%
D14*
X147190000Y-101901250D02*
X147240000Y-101901250D01*
X147190000Y-103721250D02*
X147190000Y-101901250D01*
X147240000Y-103721250D02*
X147190000Y-103721250D01*
X150260000Y-101901250D02*
X150310000Y-101901250D01*
X150310000Y-101901250D02*
X150310000Y-103721250D01*
X150310000Y-103721250D02*
X150260000Y-103721250D01*
X147240000Y-104261250D02*
X146910000Y-104501250D01*
X146910000Y-104021250D01*
X147240000Y-104261250D01*
G36*
X147240000Y-104261250D02*
G01*
X146910000Y-104501250D01*
X146910000Y-104021250D01*
X147240000Y-104261250D01*
G37*
%TO.C,BAT*%
D12*
X132844624Y-91760821D02*
X138844624Y-91760821D01*
X132844624Y-96260821D02*
X132844624Y-91760821D01*
X132924624Y-94310821D02*
X133434624Y-94310821D01*
X132924624Y-94940821D02*
X133434624Y-94940821D01*
X133434624Y-92400821D02*
X138384624Y-92400821D01*
X133434624Y-94310821D02*
X133434624Y-92400821D01*
X133434624Y-94940821D02*
X133434624Y-95700821D01*
X133434624Y-95700821D02*
X135594624Y-95700821D01*
X135594624Y-95700821D02*
X135594624Y-96210821D01*
X136174624Y-95700821D02*
X136174624Y-96210821D01*
X138334624Y-94940821D02*
X138334624Y-95700821D01*
X138334624Y-95700821D02*
X136174624Y-95700821D01*
X138384624Y-92400821D02*
X138384624Y-94310821D01*
X138384624Y-94310821D02*
X138764624Y-94310821D01*
X138844624Y-91760821D02*
X138844624Y-96260821D01*
X138844624Y-94940821D02*
X138334624Y-94940821D01*
X138844624Y-96260821D02*
X132844624Y-96260821D01*
D13*
X138824624Y-91760821D02*
G75*
G02*
X138764624Y-91760821I-30000J0D01*
G01*
X138764624Y-91760821D02*
G75*
G02*
X138824624Y-91760821I30000J0D01*
G01*
%TO.C,R10*%
D14*
X147176359Y-94950000D02*
X147483641Y-94950000D01*
X147176359Y-95710000D02*
X147483641Y-95710000D01*
%TO.C,R16*%
X155942391Y-88720000D02*
X155635109Y-88720000D01*
X155942391Y-89480000D02*
X155635109Y-89480000D01*
%TO.C,R6*%
X163316359Y-87506500D02*
X163623641Y-87506500D01*
X163316359Y-88266500D02*
X163623641Y-88266500D01*
%TO.C,C23*%
X159075000Y-99961252D02*
X159075000Y-99438748D01*
X160545000Y-99961252D02*
X160545000Y-99438748D01*
%TO.C,CN1*%
D12*
X157000000Y-101892500D02*
X161770000Y-101892500D01*
X157000000Y-102812500D02*
X157000000Y-101892500D01*
X157000000Y-106812500D02*
X157000000Y-104772500D01*
X157000000Y-109812500D02*
X157000000Y-108772500D01*
X157000000Y-113992500D02*
X157000000Y-111772500D01*
X157000000Y-113992500D02*
X163000000Y-113992500D01*
X157500000Y-113992500D02*
X157500000Y-115992500D01*
X157500000Y-115992500D02*
X162500000Y-115992500D01*
X162500000Y-115992500D02*
X162500000Y-113992500D01*
X163000000Y-113992500D02*
X163000000Y-103372500D01*
%TO.C,C21*%
D14*
X145860580Y-87844000D02*
X145579420Y-87844000D01*
X145860580Y-88864000D02*
X145579420Y-88864000D01*
%TO.C,U3*%
X136970000Y-85857500D02*
X137020000Y-85857500D01*
X136970000Y-87677500D02*
X136970000Y-85857500D01*
X137020000Y-87677500D02*
X136970000Y-87677500D01*
X138140000Y-85857500D02*
X138920000Y-85857500D01*
X140040000Y-85857500D02*
X140090000Y-85857500D01*
X140090000Y-85857500D02*
X140090000Y-87677500D01*
X140090000Y-87677500D02*
X140040000Y-87677500D01*
X137020000Y-88217500D02*
X136690000Y-88457500D01*
X136690000Y-87977500D01*
X137020000Y-88217500D01*
G36*
X137020000Y-88217500D02*
G01*
X136690000Y-88457500D01*
X136690000Y-87977500D01*
X137020000Y-88217500D01*
G37*
%TO.C,J4*%
X134755000Y-68855000D02*
X135500000Y-68855000D01*
X134755000Y-69590000D02*
X134755000Y-68855000D01*
X134755000Y-70325000D02*
X134755000Y-91200000D01*
X134755000Y-70325000D02*
X134814435Y-70325000D01*
X134755000Y-91200000D02*
X135089970Y-91200000D01*
X135910030Y-91200000D02*
X136245000Y-91200000D01*
X136185565Y-70325000D02*
X136245000Y-70325000D01*
X136245000Y-70325000D02*
X136245000Y-91200000D01*
%TO.C,C25*%
X155876586Y-84837500D02*
X155660914Y-84837500D01*
X155876586Y-85557500D02*
X155660914Y-85557500D01*
%TO.C,C20*%
X146397836Y-89460000D02*
X146182164Y-89460000D01*
X146397836Y-90180000D02*
X146182164Y-90180000D01*
%TO.C,BOT*%
D11*
X164750000Y-87526500D02*
X164750000Y-91586500D01*
X164750000Y-87526500D02*
X165180000Y-87526500D01*
X164750000Y-91586500D02*
X165180000Y-91586500D01*
X167400000Y-87526500D02*
X167830000Y-87526500D01*
X167830000Y-87526500D02*
X167830000Y-91586500D01*
X167830000Y-91586500D02*
X167400000Y-91586500D01*
D13*
X164850000Y-87056500D02*
G75*
G02*
X164790000Y-87056500I-30000J0D01*
G01*
X164790000Y-87056500D02*
G75*
G02*
X164850000Y-87056500I30000J0D01*
G01*
D12*
X167190000Y-89556500D02*
G75*
G02*
X165390000Y-89556500I-900000J0D01*
G01*
X165390000Y-89556500D02*
G75*
G02*
X167190000Y-89556500I900000J0D01*
G01*
%TO.C,R4*%
D14*
X163316359Y-93506500D02*
X163623641Y-93506500D01*
X163316359Y-94266500D02*
X163623641Y-94266500D01*
%TO.C,C24*%
X150180000Y-82045580D02*
X150180000Y-81764420D01*
X151200000Y-82045580D02*
X151200000Y-81764420D01*
%TO.C,C4*%
X137275000Y-82303748D02*
X137275000Y-82826252D01*
X138745000Y-82303748D02*
X138745000Y-82826252D01*
%TO.C,R5*%
X163623641Y-94506500D02*
X163316359Y-94506500D01*
X163623641Y-95266500D02*
X163316359Y-95266500D01*
%TO.C,C1*%
X143961252Y-102495000D02*
X143438748Y-102495000D01*
X143961252Y-103965000D02*
X143438748Y-103965000D01*
%TO.C,J1*%
X143670000Y-109305000D02*
X143670000Y-111225000D01*
X143670000Y-114940000D02*
X143670000Y-113235000D01*
X152830000Y-111225000D02*
X152830000Y-109305000D01*
X152830000Y-113235000D02*
X152830000Y-114940000D01*
X152830000Y-114940000D02*
X143670000Y-114940000D01*
%TO.C,C8*%
X162485000Y-91125248D02*
X162485000Y-91647752D01*
X163955000Y-91125248D02*
X163955000Y-91647752D01*
%TO.C,R2*%
X145720000Y-105058641D02*
X145720000Y-104751359D01*
X146480000Y-105058641D02*
X146480000Y-104751359D01*
%TO.C,R7*%
X163623641Y-88506500D02*
X163316359Y-88506500D01*
X163623641Y-89266500D02*
X163316359Y-89266500D01*
%TO.C,C27*%
X156479330Y-86075000D02*
X156198170Y-86075000D01*
X156479330Y-87095000D02*
X156198170Y-87095000D01*
%TO.C,R13*%
X151785000Y-82301359D02*
X151785000Y-82608641D01*
X152545000Y-82301359D02*
X152545000Y-82608641D01*
%TO.C,D1*%
X144760000Y-104545000D02*
X143350000Y-104545000D01*
X144760000Y-105765000D02*
X143350000Y-105765000D01*
X144760000Y-105765000D02*
X144760000Y-104545000D01*
%TO.C,R1*%
X150600000Y-105443641D02*
X150600000Y-105136359D01*
X151360000Y-105443641D02*
X151360000Y-105136359D01*
%TO.C,C18*%
X146382836Y-86610000D02*
X146167164Y-86610000D01*
X146382836Y-87330000D02*
X146167164Y-87330000D01*
%TO.C,R9*%
X147246359Y-98710000D02*
X147553641Y-98710000D01*
X147246359Y-99470000D02*
X147553641Y-99470000D01*
%TO.C,R15*%
X155942391Y-83690000D02*
X155635109Y-83690000D01*
X155942391Y-84450000D02*
X155635109Y-84450000D01*
%TO.C,U5*%
D11*
X148808750Y-84520000D02*
X148808750Y-84930000D01*
X148808750Y-88680000D02*
X148808750Y-88270000D01*
X149218750Y-84520000D02*
X148808750Y-84520000D01*
X149218750Y-88680000D02*
X148808750Y-88680000D01*
X152558750Y-84520000D02*
X152968750Y-84520000D01*
X152558750Y-88680000D02*
X152968750Y-88680000D01*
X152968750Y-84520000D02*
X152968750Y-84930000D01*
X152968750Y-88680000D02*
X152968750Y-88270000D01*
D13*
X152918750Y-88600000D02*
G75*
G02*
X152858750Y-88600000I-30000J0D01*
G01*
X152858750Y-88600000D02*
G75*
G02*
X152918750Y-88600000I30000J0D01*
G01*
D11*
X153498750Y-87950000D02*
G75*
G02*
X153358750Y-87950000I-70000J0D01*
G01*
X153358750Y-87950000D02*
G75*
G02*
X153498750Y-87950000I70000J0D01*
G01*
%TO.C,RST*%
X164800000Y-93816500D02*
X164800000Y-97876500D01*
X164800000Y-93816500D02*
X165230000Y-93816500D01*
X164800000Y-97876500D02*
X165230000Y-97876500D01*
X167450000Y-93816500D02*
X167880000Y-93816500D01*
X167880000Y-93816500D02*
X167880000Y-97876500D01*
X167880000Y-97876500D02*
X167450000Y-97876500D01*
D13*
X164900000Y-93346500D02*
G75*
G02*
X164840000Y-93346500I-30000J0D01*
G01*
X164840000Y-93346500D02*
G75*
G02*
X164900000Y-93346500I30000J0D01*
G01*
D12*
X167240000Y-95846500D02*
G75*
G02*
X165440000Y-95846500I-900000J0D01*
G01*
X165440000Y-95846500D02*
G75*
G02*
X167240000Y-95846500I900000J0D01*
G01*
%TO.C,C2*%
D14*
X139661252Y-102285000D02*
X139138748Y-102285000D01*
X139661252Y-103755000D02*
X139138748Y-103755000D01*
%TO.C,U2*%
X143530000Y-51860000D02*
X143530000Y-58060000D01*
X143530000Y-51860000D02*
X161930000Y-51860000D01*
X143530000Y-76710000D02*
X143530000Y-77710000D01*
X143530000Y-77710000D02*
X145030000Y-77710000D01*
X161930000Y-51860000D02*
X161930000Y-58060000D01*
X161930000Y-77710000D02*
X160430000Y-77710000D01*
X161930000Y-77710000D02*
X161930000Y-76710000D01*
X143530000Y-58735000D02*
X143030000Y-58735000D01*
X143530000Y-58235000D01*
X143530000Y-58735000D01*
G36*
X143530000Y-58735000D02*
G01*
X143030000Y-58735000D01*
X143530000Y-58235000D01*
X143530000Y-58735000D01*
G37*
%TO.C,C10*%
X145710580Y-81980000D02*
X145429420Y-81980000D01*
X145710580Y-83000000D02*
X145429420Y-83000000D01*
%TO.C,C5*%
X135231252Y-66813000D02*
X134708748Y-66813000D01*
X135231252Y-68283000D02*
X134708748Y-68283000D01*
%TO.C,C19*%
X145845580Y-84970000D02*
X145564420Y-84970000D01*
X145845580Y-85990000D02*
X145564420Y-85990000D01*
%TO.C,R11*%
X152748750Y-90703641D02*
X152748750Y-90396359D01*
X153508750Y-90703641D02*
X153508750Y-90396359D01*
%TO.C,C11*%
X146027836Y-80660000D02*
X145812164Y-80660000D01*
X146027836Y-81380000D02*
X145812164Y-81380000D01*
%TO.C,R8*%
X156006359Y-100150000D02*
X156313641Y-100150000D01*
X156006359Y-100910000D02*
X156313641Y-100910000D01*
%TO.C,PWR*%
D12*
X130215090Y-99353153D02*
X132715090Y-99353153D01*
X130215090Y-100653153D02*
X130215090Y-99353153D01*
X132715090Y-100653153D02*
X130215090Y-100653153D01*
X132715090Y-103593153D02*
X132715090Y-97753153D01*
X133765090Y-97243153D02*
X134705090Y-97243153D01*
X133765090Y-103973153D02*
X134705090Y-103973153D01*
X135755090Y-97793153D02*
X135755090Y-97753153D01*
X135755090Y-100793153D02*
X135755090Y-99053153D01*
X135755090Y-102293153D02*
X135755090Y-102053153D01*
X135755090Y-103593153D02*
X135755090Y-103553153D01*
D13*
X136615090Y-104593153D02*
G75*
G02*
X136555090Y-104593153I-30000J0D01*
G01*
X136555090Y-104593153D02*
G75*
G02*
X136615090Y-104593153I30000J0D01*
G01*
%TO.C,J5*%
D14*
X168755000Y-69765000D02*
X169500000Y-69765000D01*
X168755000Y-70500000D02*
X168755000Y-69765000D01*
X168755000Y-71235000D02*
X168755000Y-92110000D01*
X168755000Y-71235000D02*
X168814435Y-71235000D01*
X168755000Y-92110000D02*
X169089970Y-92110000D01*
X169910030Y-92110000D02*
X170245000Y-92110000D01*
X170185565Y-71235000D02*
X170245000Y-71235000D01*
X170245000Y-71235000D02*
X170245000Y-92110000D01*
%TO.C,D3*%
D12*
X139120000Y-95220000D02*
X139350000Y-95220000D01*
X139120000Y-99420000D02*
X139120000Y-95220000D01*
X139350000Y-99420000D02*
X139120000Y-99420000D01*
X139920000Y-97570000D02*
X140920000Y-97570000D01*
X140420000Y-96600000D02*
X140420000Y-98070000D01*
X140420000Y-97070000D02*
X139920000Y-97570000D01*
X140920000Y-97070000D02*
X139920000Y-97070000D01*
X140920000Y-97570000D02*
X140420000Y-97070000D01*
X141490000Y-95220000D02*
X141720000Y-95220000D01*
X141720000Y-95220000D02*
X141720000Y-99420000D01*
X141720000Y-99420000D02*
X141490000Y-99420000D01*
D13*
X139150000Y-94690000D02*
G75*
G02*
X139090000Y-94690000I-30000J0D01*
G01*
X139090000Y-94690000D02*
G75*
G02*
X139150000Y-94690000I30000J0D01*
G01*
%TO.C,C26*%
D14*
X155876586Y-87612500D02*
X155660914Y-87612500D01*
X155876586Y-88332500D02*
X155660914Y-88332500D01*
%TO.C,D5*%
D10*
X149315000Y-96500000D02*
G75*
G02*
X149215000Y-96500000I-50000J0D01*
G01*
X149215000Y-96500000D02*
G75*
G02*
X149315000Y-96500000I50000J0D01*
G01*
%TO.C,C9*%
D14*
X146197836Y-83680000D02*
X145982164Y-83680000D01*
X146197836Y-84400000D02*
X145982164Y-84400000D01*
%TO.C,R12*%
X151428750Y-90703641D02*
X151428750Y-90396359D01*
X152188750Y-90703641D02*
X152188750Y-90396359D01*
%TO.C,C22*%
X152555000Y-104351252D02*
X152555000Y-103828748D01*
X154025000Y-104351252D02*
X154025000Y-103828748D01*
%TO.C,C7*%
X162485000Y-97075248D02*
X162485000Y-97597752D01*
X163955000Y-97075248D02*
X163955000Y-97597752D01*
%TO.C,U4*%
D12*
X151230000Y-94625000D02*
X155330000Y-94625000D01*
X151230000Y-99725000D02*
X151230000Y-94625000D01*
X152480000Y-99725000D02*
X151230000Y-99725000D01*
X154080000Y-99725000D02*
X155330000Y-99725000D01*
X155330000Y-94625000D02*
X155330000Y-99725000D01*
X152476354Y-99682773D02*
G75*
G02*
X154080000Y-99675000I803646J-372227D01*
G01*
X155950000Y-100205000D02*
G75*
G02*
X155610000Y-100205000I-170000J0D01*
G01*
X155610000Y-100205000D02*
G75*
G02*
X155950000Y-100205000I170000J0D01*
G01*
D13*
X156260000Y-99625000D02*
G75*
G02*
X156200000Y-99625000I-30000J0D01*
G01*
X156200000Y-99625000D02*
G75*
G02*
X156260000Y-99625000I30000J0D01*
G01*
%TO.C,C3*%
D14*
X138158748Y-89635000D02*
X138681252Y-89635000D01*
X138158748Y-91105000D02*
X138681252Y-91105000D01*
%TO.C,R14*%
X153000000Y-82301359D02*
X153000000Y-82608641D01*
X153760000Y-82301359D02*
X153760000Y-82608641D01*
%TO.C,C6*%
X139231252Y-66813000D02*
X138708748Y-66813000D01*
X139231252Y-68283000D02*
X138708748Y-68283000D01*
%TD*%
%LPC*%
G36*
X144121342Y-111368060D02*
G01*
X144234381Y-111433323D01*
X144326677Y-111525619D01*
X144391940Y-111638658D01*
X144425722Y-111764737D01*
X144430000Y-111830000D01*
X144430000Y-112630000D01*
X144425722Y-112695263D01*
X144391940Y-112821342D01*
X144326677Y-112934381D01*
X144234381Y-113026677D01*
X144121342Y-113091940D01*
X143995263Y-113125722D01*
X143864737Y-113125722D01*
X143738658Y-113091940D01*
X143625619Y-113026677D01*
X143533323Y-112934381D01*
X143468060Y-112821342D01*
X143434278Y-112695263D01*
X143430000Y-112630000D01*
X143430000Y-111830000D01*
X143434278Y-111764737D01*
X143468060Y-111638658D01*
X143533323Y-111525619D01*
X143625619Y-111433323D01*
X143738658Y-111368060D01*
X143864737Y-111334278D01*
X143995263Y-111334278D01*
X144121342Y-111368060D01*
G37*
G36*
X152761342Y-111368060D02*
G01*
X152874381Y-111433323D01*
X152966677Y-111525619D01*
X153031940Y-111638658D01*
X153065722Y-111764737D01*
X153070000Y-111830000D01*
X153070000Y-112630000D01*
X153065722Y-112695263D01*
X153031940Y-112821342D01*
X152966677Y-112934381D01*
X152874381Y-113026677D01*
X152761342Y-113091940D01*
X152635263Y-113125722D01*
X152504737Y-113125722D01*
X152378658Y-113091940D01*
X152265619Y-113026677D01*
X152173323Y-112934381D01*
X152108060Y-112821342D01*
X152074278Y-112695263D01*
X152070000Y-112630000D01*
X152070000Y-111830000D01*
X152074278Y-111764737D01*
X152108060Y-111638658D01*
X152173323Y-111525619D01*
X152265619Y-111433323D01*
X152378658Y-111368060D01*
X152504737Y-111334278D01*
X152635263Y-111334278D01*
X152761342Y-111368060D01*
G37*
G36*
X160191342Y-111830560D02*
G01*
X160304381Y-111895823D01*
X160396677Y-111988119D01*
X160461940Y-112101158D01*
X160495722Y-112227237D01*
X160495722Y-112357763D01*
X160461940Y-112483842D01*
X160396677Y-112596881D01*
X160304381Y-112689177D01*
X160191342Y-112754440D01*
X160065263Y-112788222D01*
X159934737Y-112788222D01*
X159808658Y-112754440D01*
X159695619Y-112689177D01*
X159603323Y-112596881D01*
X159538060Y-112483842D01*
X159504278Y-112357763D01*
X159504278Y-112227237D01*
X159538060Y-112101158D01*
X159603323Y-111988119D01*
X159695619Y-111895823D01*
X159808658Y-111830560D01*
X159934737Y-111796778D01*
X160065263Y-111796778D01*
X160191342Y-111830560D01*
G37*
G36*
X158000000Y-111542500D02*
G01*
X155000000Y-111542500D01*
X155000000Y-110042500D01*
X158000000Y-110042500D01*
X158000000Y-111542500D01*
G37*
G36*
X137841408Y-106783626D02*
G01*
X138062519Y-106842872D01*
X138274005Y-106930473D01*
X138472248Y-107044928D01*
X138653855Y-107184280D01*
X138815720Y-107346145D01*
X138955072Y-107527752D01*
X139069527Y-107725995D01*
X139157128Y-107937481D01*
X139216374Y-108158592D01*
X139246253Y-108385545D01*
X139246253Y-108614455D01*
X139216374Y-108841408D01*
X139157128Y-109062519D01*
X139069527Y-109274005D01*
X138955072Y-109472248D01*
X138815720Y-109653855D01*
X138653855Y-109815720D01*
X138472248Y-109955072D01*
X138274005Y-110069527D01*
X138062519Y-110157128D01*
X137841408Y-110216374D01*
X137614455Y-110246253D01*
X137385545Y-110246253D01*
X137158592Y-110216374D01*
X136937481Y-110157128D01*
X136725995Y-110069527D01*
X136527752Y-109955072D01*
X136346145Y-109815720D01*
X136184280Y-109653855D01*
X136044928Y-109472248D01*
X135930473Y-109274005D01*
X135842872Y-109062519D01*
X135783626Y-108841408D01*
X135753747Y-108614455D01*
X135753747Y-108385545D01*
X135783626Y-108158592D01*
X135842872Y-107937481D01*
X135930473Y-107725995D01*
X136044928Y-107527752D01*
X136184280Y-107346145D01*
X136346145Y-107184280D01*
X136527752Y-107044928D01*
X136725995Y-106930473D01*
X136937481Y-106842872D01*
X137158592Y-106783626D01*
X137385545Y-106753747D01*
X137614455Y-106753747D01*
X137841408Y-106783626D01*
G37*
G36*
X168841408Y-106783626D02*
G01*
X169062519Y-106842872D01*
X169274005Y-106930473D01*
X169472248Y-107044928D01*
X169653855Y-107184280D01*
X169815720Y-107346145D01*
X169955072Y-107527752D01*
X170069527Y-107725995D01*
X170157128Y-107937481D01*
X170216374Y-108158592D01*
X170246253Y-108385545D01*
X170246253Y-108614455D01*
X170216374Y-108841408D01*
X170157128Y-109062519D01*
X170069527Y-109274005D01*
X169955072Y-109472248D01*
X169815720Y-109653855D01*
X169653855Y-109815720D01*
X169472248Y-109955072D01*
X169274005Y-110069527D01*
X169062519Y-110157128D01*
X168841408Y-110216374D01*
X168614455Y-110246253D01*
X168385545Y-110246253D01*
X168158592Y-110216374D01*
X167937481Y-110157128D01*
X167725995Y-110069527D01*
X167527752Y-109955072D01*
X167346145Y-109815720D01*
X167184280Y-109653855D01*
X167044928Y-109472248D01*
X166930473Y-109274005D01*
X166842872Y-109062519D01*
X166783626Y-108841408D01*
X166753747Y-108614455D01*
X166753747Y-108385545D01*
X166783626Y-108158592D01*
X166842872Y-107937481D01*
X166930473Y-107725995D01*
X167044928Y-107527752D01*
X167184280Y-107346145D01*
X167346145Y-107184280D01*
X167527752Y-107044928D01*
X167725995Y-106930473D01*
X167937481Y-106842872D01*
X168158592Y-106783626D01*
X168385545Y-106753747D01*
X168614455Y-106753747D01*
X168841408Y-106783626D01*
G37*
G36*
X144121342Y-107018060D02*
G01*
X144234381Y-107083323D01*
X144326677Y-107175619D01*
X144391940Y-107288658D01*
X144425722Y-107414737D01*
X144430000Y-107480000D01*
X144430000Y-108580000D01*
X144425722Y-108645263D01*
X144391940Y-108771342D01*
X144326677Y-108884381D01*
X144234381Y-108976677D01*
X144121342Y-109041940D01*
X143995263Y-109075722D01*
X143864737Y-109075722D01*
X143738658Y-109041940D01*
X143625619Y-108976677D01*
X143533323Y-108884381D01*
X143468060Y-108771342D01*
X143434278Y-108645263D01*
X143430000Y-108580000D01*
X143430000Y-107480000D01*
X143434278Y-107414737D01*
X143468060Y-107288658D01*
X143533323Y-107175619D01*
X143625619Y-107083323D01*
X143738658Y-107018060D01*
X143864737Y-106984278D01*
X143995263Y-106984278D01*
X144121342Y-107018060D01*
G37*
G36*
X152761342Y-107018060D02*
G01*
X152874381Y-107083323D01*
X152966677Y-107175619D01*
X153031940Y-107288658D01*
X153065722Y-107414737D01*
X153070000Y-107480000D01*
X153070000Y-108580000D01*
X153065722Y-108645263D01*
X153031940Y-108771342D01*
X152966677Y-108884381D01*
X152874381Y-108976677D01*
X152761342Y-109041940D01*
X152635263Y-109075722D01*
X152504737Y-109075722D01*
X152378658Y-109041940D01*
X152265619Y-108976677D01*
X152173323Y-108884381D01*
X152108060Y-108771342D01*
X152074278Y-108645263D01*
X152070000Y-108580000D01*
X152070000Y-107480000D01*
X152074278Y-107414737D01*
X152108060Y-107288658D01*
X152173323Y-107175619D01*
X152265619Y-107083323D01*
X152378658Y-107018060D01*
X152504737Y-106984278D01*
X152635263Y-106984278D01*
X152761342Y-107018060D01*
G37*
G36*
X145484372Y-108249739D02*
G01*
X145557847Y-108292160D01*
X145617840Y-108352153D01*
X145660261Y-108425628D01*
X145682220Y-108507579D01*
X145682220Y-108592421D01*
X145660261Y-108674372D01*
X145617840Y-108747847D01*
X145557847Y-108807840D01*
X145484372Y-108850261D01*
X145402421Y-108872220D01*
X145317579Y-108872220D01*
X145235628Y-108850261D01*
X145162153Y-108807840D01*
X145102160Y-108747847D01*
X145059739Y-108674372D01*
X145037780Y-108592421D01*
X145037780Y-108507579D01*
X145059739Y-108425628D01*
X145102160Y-108352153D01*
X145162153Y-108292160D01*
X145235628Y-108249739D01*
X145317579Y-108227780D01*
X145402421Y-108227780D01*
X145484372Y-108249739D01*
G37*
G36*
X151264372Y-108249739D02*
G01*
X151337847Y-108292160D01*
X151397840Y-108352153D01*
X151440261Y-108425628D01*
X151462220Y-108507579D01*
X151462220Y-108592421D01*
X151440261Y-108674372D01*
X151397840Y-108747847D01*
X151337847Y-108807840D01*
X151264372Y-108850261D01*
X151182421Y-108872220D01*
X151097579Y-108872220D01*
X151015628Y-108850261D01*
X150942153Y-108807840D01*
X150882160Y-108747847D01*
X150839739Y-108674372D01*
X150817780Y-108592421D01*
X150817780Y-108507579D01*
X150839739Y-108425628D01*
X150882160Y-108352153D01*
X150942153Y-108292160D01*
X151015628Y-108249739D01*
X151097579Y-108227780D01*
X151182421Y-108227780D01*
X151264372Y-108249739D01*
G37*
G36*
X158000000Y-108542500D02*
G01*
X155000000Y-108542500D01*
X155000000Y-107042500D01*
X158000000Y-107042500D01*
X158000000Y-108542500D01*
G37*
G36*
X145257403Y-106821418D02*
G01*
X145306066Y-106853934D01*
X145338582Y-106902597D01*
X145350000Y-106960000D01*
X145350000Y-107900000D01*
X145338582Y-107957403D01*
X145306066Y-108006066D01*
X145257403Y-108038582D01*
X145200000Y-108050000D01*
X144900000Y-108050000D01*
X144842597Y-108038582D01*
X144793934Y-108006066D01*
X144761418Y-107957403D01*
X144750000Y-107900000D01*
X144750000Y-106960000D01*
X144761418Y-106902597D01*
X144793934Y-106853934D01*
X144842597Y-106821418D01*
X144900000Y-106810000D01*
X145200000Y-106810000D01*
X145257403Y-106821418D01*
G37*
G36*
X146057403Y-106821418D02*
G01*
X146106066Y-106853934D01*
X146138582Y-106902597D01*
X146150000Y-106960000D01*
X146150000Y-107900000D01*
X146138582Y-107957403D01*
X146106066Y-108006066D01*
X146057403Y-108038582D01*
X146000000Y-108050000D01*
X145700000Y-108050000D01*
X145642597Y-108038582D01*
X145593934Y-108006066D01*
X145561418Y-107957403D01*
X145550000Y-107900000D01*
X145550000Y-106960000D01*
X145561418Y-106902597D01*
X145593934Y-106853934D01*
X145642597Y-106821418D01*
X145700000Y-106810000D01*
X146000000Y-106810000D01*
X146057403Y-106821418D01*
G37*
G36*
X146603701Y-106815709D02*
G01*
X146628033Y-106831967D01*
X146644291Y-106856299D01*
X146650000Y-106885000D01*
X146650000Y-107975000D01*
X146644291Y-108003701D01*
X146628033Y-108028033D01*
X146603701Y-108044291D01*
X146575000Y-108050000D01*
X146425000Y-108050000D01*
X146396299Y-108044291D01*
X146371967Y-108028033D01*
X146355709Y-108003701D01*
X146350000Y-107975000D01*
X146350000Y-106885000D01*
X146355709Y-106856299D01*
X146371967Y-106831967D01*
X146396299Y-106815709D01*
X146425000Y-106810000D01*
X146575000Y-106810000D01*
X146603701Y-106815709D01*
G37*
G36*
X147103701Y-106815709D02*
G01*
X147128033Y-106831967D01*
X147144291Y-106856299D01*
X147150000Y-106885000D01*
X147150000Y-107975000D01*
X147144291Y-108003701D01*
X147128033Y-108028033D01*
X147103701Y-108044291D01*
X147075000Y-108050000D01*
X146925000Y-108050000D01*
X146896299Y-108044291D01*
X146871967Y-108028033D01*
X146855709Y-108003701D01*
X146850000Y-107975000D01*
X146850000Y-106885000D01*
X146855709Y-106856299D01*
X146871967Y-106831967D01*
X146896299Y-106815709D01*
X146925000Y-106810000D01*
X147075000Y-106810000D01*
X147103701Y-106815709D01*
G37*
G36*
X147603701Y-106815709D02*
G01*
X147628033Y-106831967D01*
X147644291Y-106856299D01*
X147650000Y-106885000D01*
X147650000Y-107975000D01*
X147644291Y-108003701D01*
X147628033Y-108028033D01*
X147603701Y-108044291D01*
X147575000Y-108050000D01*
X147425000Y-108050000D01*
X147396299Y-108044291D01*
X147371967Y-108028033D01*
X147355709Y-108003701D01*
X147350000Y-107975000D01*
X147350000Y-106885000D01*
X147355709Y-106856299D01*
X147371967Y-106831967D01*
X147396299Y-106815709D01*
X147425000Y-106810000D01*
X147575000Y-106810000D01*
X147603701Y-106815709D01*
G37*
G36*
X148103701Y-106815709D02*
G01*
X148128033Y-106831967D01*
X148144291Y-106856299D01*
X148150000Y-106885000D01*
X148150000Y-107975000D01*
X148144291Y-108003701D01*
X148128033Y-108028033D01*
X148103701Y-108044291D01*
X148075000Y-108050000D01*
X147925000Y-108050000D01*
X147896299Y-108044291D01*
X147871967Y-108028033D01*
X147855709Y-108003701D01*
X147850000Y-107975000D01*
X147850000Y-106885000D01*
X147855709Y-106856299D01*
X147871967Y-106831967D01*
X147896299Y-106815709D01*
X147925000Y-106810000D01*
X148075000Y-106810000D01*
X148103701Y-106815709D01*
G37*
G36*
X148603701Y-106815709D02*
G01*
X148628033Y-106831967D01*
X148644291Y-106856299D01*
X148650000Y-106885000D01*
X148650000Y-107975000D01*
X148644291Y-108003701D01*
X148628033Y-108028033D01*
X148603701Y-108044291D01*
X148575000Y-108050000D01*
X148425000Y-108050000D01*
X148396299Y-108044291D01*
X148371967Y-108028033D01*
X148355709Y-108003701D01*
X148350000Y-107975000D01*
X148350000Y-106885000D01*
X148355709Y-106856299D01*
X148371967Y-106831967D01*
X148396299Y-106815709D01*
X148425000Y-106810000D01*
X148575000Y-106810000D01*
X148603701Y-106815709D01*
G37*
G36*
X149103701Y-106815709D02*
G01*
X149128033Y-106831967D01*
X149144291Y-106856299D01*
X149150000Y-106885000D01*
X149150000Y-107975000D01*
X149144291Y-108003701D01*
X149128033Y-108028033D01*
X149103701Y-108044291D01*
X149075000Y-108050000D01*
X148925000Y-108050000D01*
X148896299Y-108044291D01*
X148871967Y-108028033D01*
X148855709Y-108003701D01*
X148850000Y-107975000D01*
X148850000Y-106885000D01*
X148855709Y-106856299D01*
X148871967Y-106831967D01*
X148896299Y-106815709D01*
X148925000Y-106810000D01*
X149075000Y-106810000D01*
X149103701Y-106815709D01*
G37*
G36*
X149603701Y-106815709D02*
G01*
X149628033Y-106831967D01*
X149644291Y-106856299D01*
X149650000Y-106885000D01*
X149650000Y-107975000D01*
X149644291Y-108003701D01*
X149628033Y-108028033D01*
X149603701Y-108044291D01*
X149575000Y-108050000D01*
X149425000Y-108050000D01*
X149396299Y-108044291D01*
X149371967Y-108028033D01*
X149355709Y-108003701D01*
X149350000Y-107975000D01*
X149350000Y-106885000D01*
X149355709Y-106856299D01*
X149371967Y-106831967D01*
X149396299Y-106815709D01*
X149425000Y-106810000D01*
X149575000Y-106810000D01*
X149603701Y-106815709D01*
G37*
G36*
X150103701Y-106815709D02*
G01*
X150128033Y-106831967D01*
X150144291Y-106856299D01*
X150150000Y-106885000D01*
X150150000Y-107975000D01*
X150144291Y-108003701D01*
X150128033Y-108028033D01*
X150103701Y-108044291D01*
X150075000Y-108050000D01*
X149925000Y-108050000D01*
X149896299Y-108044291D01*
X149871967Y-108028033D01*
X149855709Y-108003701D01*
X149850000Y-107975000D01*
X149850000Y-106885000D01*
X149855709Y-106856299D01*
X149871967Y-106831967D01*
X149896299Y-106815709D01*
X149925000Y-106810000D01*
X150075000Y-106810000D01*
X150103701Y-106815709D01*
G37*
G36*
X150857403Y-106821418D02*
G01*
X150906066Y-106853934D01*
X150938582Y-106902597D01*
X150950000Y-106960000D01*
X150950000Y-107900000D01*
X150938582Y-107957403D01*
X150906066Y-108006066D01*
X150857403Y-108038582D01*
X150800000Y-108050000D01*
X150500000Y-108050000D01*
X150442597Y-108038582D01*
X150393934Y-108006066D01*
X150361418Y-107957403D01*
X150350000Y-107900000D01*
X150350000Y-106960000D01*
X150361418Y-106902597D01*
X150393934Y-106853934D01*
X150442597Y-106821418D01*
X150500000Y-106810000D01*
X150800000Y-106810000D01*
X150857403Y-106821418D01*
G37*
G36*
X151657403Y-106821418D02*
G01*
X151706066Y-106853934D01*
X151738582Y-106902597D01*
X151750000Y-106960000D01*
X151750000Y-107900000D01*
X151738582Y-107957403D01*
X151706066Y-108006066D01*
X151657403Y-108038582D01*
X151600000Y-108050000D01*
X151300000Y-108050000D01*
X151242597Y-108038582D01*
X151193934Y-108006066D01*
X151161418Y-107957403D01*
X151150000Y-107900000D01*
X151150000Y-106960000D01*
X151161418Y-106902597D01*
X151193934Y-106853934D01*
X151242597Y-106821418D01*
X151300000Y-106810000D01*
X151600000Y-106810000D01*
X151657403Y-106821418D01*
G37*
G36*
X151216662Y-105540276D02*
G01*
X151260459Y-105569541D01*
X151289724Y-105613338D01*
X151300000Y-105665000D01*
X151300000Y-105935000D01*
X151289724Y-105986662D01*
X151260459Y-106030459D01*
X151216662Y-106059724D01*
X151165000Y-106070000D01*
X150795000Y-106070000D01*
X150743338Y-106059724D01*
X150699541Y-106030459D01*
X150670276Y-105986662D01*
X150660000Y-105935000D01*
X150660000Y-105665000D01*
X150670276Y-105613338D01*
X150699541Y-105569541D01*
X150743338Y-105540276D01*
X150795000Y-105530000D01*
X151165000Y-105530000D01*
X151216662Y-105540276D01*
G37*
G36*
X160191342Y-104830560D02*
G01*
X160304381Y-104895823D01*
X160396677Y-104988119D01*
X160461940Y-105101158D01*
X160495722Y-105227237D01*
X160495722Y-105357763D01*
X160461940Y-105483842D01*
X160396677Y-105596881D01*
X160304381Y-105689177D01*
X160191342Y-105754440D01*
X160065263Y-105788222D01*
X159934737Y-105788222D01*
X159808658Y-105754440D01*
X159695619Y-105689177D01*
X159603323Y-105596881D01*
X159538060Y-105483842D01*
X159504278Y-105357763D01*
X159504278Y-105227237D01*
X159538060Y-105101158D01*
X159603323Y-104988119D01*
X159695619Y-104895823D01*
X159808658Y-104830560D01*
X159934737Y-104796778D01*
X160065263Y-104796778D01*
X160191342Y-104830560D01*
G37*
G36*
X146336662Y-105155276D02*
G01*
X146380459Y-105184541D01*
X146409724Y-105228338D01*
X146420000Y-105280000D01*
X146420000Y-105550000D01*
X146409724Y-105601662D01*
X146380459Y-105645459D01*
X146336662Y-105674724D01*
X146285000Y-105685000D01*
X145915000Y-105685000D01*
X145863338Y-105674724D01*
X145819541Y-105645459D01*
X145790276Y-105601662D01*
X145780000Y-105550000D01*
X145780000Y-105280000D01*
X145790276Y-105228338D01*
X145819541Y-105184541D01*
X145863338Y-105155276D01*
X145915000Y-105145000D01*
X146285000Y-105145000D01*
X146336662Y-105155276D01*
G37*
G36*
X153769850Y-104540964D02*
G01*
X153820040Y-104546787D01*
X153837189Y-104554359D01*
X153860671Y-104559030D01*
X153885810Y-104575827D01*
X153905696Y-104584608D01*
X153919277Y-104598189D01*
X153941777Y-104613223D01*
X153956810Y-104635722D01*
X153970391Y-104649303D01*
X153979170Y-104669186D01*
X153995970Y-104694329D01*
X154000641Y-104717812D01*
X154008212Y-104734959D01*
X154014033Y-104785139D01*
X154015000Y-104790000D01*
X154015000Y-105290000D01*
X154014032Y-105294863D01*
X154008212Y-105345040D01*
X154000641Y-105362185D01*
X153995970Y-105385671D01*
X153979169Y-105410815D01*
X153970391Y-105430696D01*
X153956812Y-105444274D01*
X153941777Y-105466777D01*
X153919274Y-105481812D01*
X153905696Y-105495391D01*
X153885815Y-105504169D01*
X153860671Y-105520970D01*
X153837185Y-105525641D01*
X153820040Y-105533212D01*
X153769861Y-105539032D01*
X153765000Y-105540000D01*
X152815000Y-105540000D01*
X152810138Y-105539032D01*
X152759959Y-105533212D01*
X152742812Y-105525641D01*
X152719329Y-105520970D01*
X152694186Y-105504170D01*
X152674303Y-105495391D01*
X152660722Y-105481810D01*
X152638223Y-105466777D01*
X152623189Y-105444277D01*
X152609608Y-105430696D01*
X152600827Y-105410810D01*
X152584030Y-105385671D01*
X152579359Y-105362189D01*
X152571787Y-105345040D01*
X152565964Y-105294849D01*
X152565000Y-105290000D01*
X152565000Y-104790000D01*
X152565964Y-104785150D01*
X152571787Y-104734959D01*
X152579359Y-104717808D01*
X152584030Y-104694329D01*
X152600826Y-104669191D01*
X152609608Y-104649303D01*
X152623191Y-104635719D01*
X152638223Y-104613223D01*
X152660719Y-104598191D01*
X152674303Y-104584608D01*
X152694191Y-104575826D01*
X152719329Y-104559030D01*
X152742808Y-104554359D01*
X152759959Y-104546787D01*
X152810151Y-104540964D01*
X152815000Y-104540000D01*
X153765000Y-104540000D01*
X153769850Y-104540964D01*
G37*
G36*
X143622835Y-104814515D02*
G01*
X143663388Y-104841612D01*
X143690485Y-104882165D01*
X143700000Y-104930000D01*
X143700000Y-105380000D01*
X143690485Y-105427835D01*
X143663388Y-105468388D01*
X143622835Y-105495485D01*
X143575000Y-105505000D01*
X143325000Y-105505000D01*
X143277165Y-105495485D01*
X143236612Y-105468388D01*
X143209515Y-105427835D01*
X143200000Y-105380000D01*
X143200000Y-104930000D01*
X143209515Y-104882165D01*
X143236612Y-104841612D01*
X143277165Y-104814515D01*
X143325000Y-104805000D01*
X143575000Y-104805000D01*
X143622835Y-104814515D01*
G37*
G36*
X144422835Y-104814515D02*
G01*
X144463388Y-104841612D01*
X144490485Y-104882165D01*
X144500000Y-104930000D01*
X144500000Y-105380000D01*
X144490485Y-105427835D01*
X144463388Y-105468388D01*
X144422835Y-105495485D01*
X144375000Y-105505000D01*
X144125000Y-105505000D01*
X144077165Y-105495485D01*
X144036612Y-105468388D01*
X144009515Y-105427835D01*
X144000000Y-105380000D01*
X144000000Y-104930000D01*
X144009515Y-104882165D01*
X144036612Y-104841612D01*
X144077165Y-104814515D01*
X144125000Y-104805000D01*
X144375000Y-104805000D01*
X144422835Y-104814515D01*
G37*
G36*
X151216662Y-104520276D02*
G01*
X151260459Y-104549541D01*
X151289724Y-104593338D01*
X151300000Y-104645000D01*
X151300000Y-104915000D01*
X151289724Y-104966662D01*
X151260459Y-105010459D01*
X151216662Y-105039724D01*
X151165000Y-105050000D01*
X150795000Y-105050000D01*
X150743338Y-105039724D01*
X150699541Y-105010459D01*
X150670276Y-104966662D01*
X150660000Y-104915000D01*
X150660000Y-104645000D01*
X150670276Y-104593338D01*
X150699541Y-104549541D01*
X150743338Y-104520276D01*
X150795000Y-104510000D01*
X151165000Y-104510000D01*
X151216662Y-104520276D01*
G37*
G36*
X133535090Y-104823153D02*
G01*
X132735090Y-104823153D01*
X132735090Y-103823153D01*
X133535090Y-103823153D01*
X133535090Y-104823153D01*
G37*
G36*
X135735090Y-104823153D02*
G01*
X134935090Y-104823153D01*
X134935090Y-103823153D01*
X135735090Y-103823153D01*
X135735090Y-104823153D01*
G37*
G36*
X146336662Y-104135276D02*
G01*
X146380459Y-104164541D01*
X146409724Y-104208338D01*
X146420000Y-104260000D01*
X146420000Y-104530000D01*
X146409724Y-104581662D01*
X146380459Y-104625459D01*
X146336662Y-104654724D01*
X146285000Y-104665000D01*
X145915000Y-104665000D01*
X145863338Y-104654724D01*
X145819541Y-104625459D01*
X145790276Y-104581662D01*
X145780000Y-104530000D01*
X145780000Y-104260000D01*
X145790276Y-104208338D01*
X145819541Y-104164541D01*
X145863338Y-104135276D01*
X145915000Y-104125000D01*
X146285000Y-104125000D01*
X146336662Y-104135276D01*
G37*
G36*
X148007403Y-103297668D02*
G01*
X148056066Y-103330184D01*
X148088582Y-103378847D01*
X148100000Y-103436250D01*
X148100000Y-104461250D01*
X148088582Y-104518653D01*
X148056066Y-104567316D01*
X148007403Y-104599832D01*
X147950000Y-104611250D01*
X147650000Y-104611250D01*
X147592597Y-104599832D01*
X147543934Y-104567316D01*
X147511418Y-104518653D01*
X147500000Y-104461250D01*
X147500000Y-103436250D01*
X147511418Y-103378847D01*
X147543934Y-103330184D01*
X147592597Y-103297668D01*
X147650000Y-103286250D01*
X147950000Y-103286250D01*
X148007403Y-103297668D01*
G37*
G36*
X148957403Y-103297668D02*
G01*
X149006066Y-103330184D01*
X149038582Y-103378847D01*
X149050000Y-103436250D01*
X149050000Y-104461250D01*
X149038582Y-104518653D01*
X149006066Y-104567316D01*
X148957403Y-104599832D01*
X148900000Y-104611250D01*
X148600000Y-104611250D01*
X148542597Y-104599832D01*
X148493934Y-104567316D01*
X148461418Y-104518653D01*
X148450000Y-104461250D01*
X148450000Y-103436250D01*
X148461418Y-103378847D01*
X148493934Y-103330184D01*
X148542597Y-103297668D01*
X148600000Y-103286250D01*
X148900000Y-103286250D01*
X148957403Y-103297668D01*
G37*
G36*
X149907403Y-103297668D02*
G01*
X149956066Y-103330184D01*
X149988582Y-103378847D01*
X150000000Y-103436250D01*
X150000000Y-104461250D01*
X149988582Y-104518653D01*
X149956066Y-104567316D01*
X149907403Y-104599832D01*
X149850000Y-104611250D01*
X149550000Y-104611250D01*
X149492597Y-104599832D01*
X149443934Y-104567316D01*
X149411418Y-104518653D01*
X149400000Y-104461250D01*
X149400000Y-103436250D01*
X149411418Y-103378847D01*
X149443934Y-103330184D01*
X149492597Y-103297668D01*
X149550000Y-103286250D01*
X149850000Y-103286250D01*
X149907403Y-103297668D01*
G37*
G36*
X158000000Y-104542500D02*
G01*
X155000000Y-104542500D01*
X155000000Y-103042500D01*
X158000000Y-103042500D01*
X158000000Y-104542500D01*
G37*
G36*
X143004850Y-102505964D02*
G01*
X143055040Y-102511787D01*
X143072189Y-102519359D01*
X143095671Y-102524030D01*
X143120810Y-102540827D01*
X143140696Y-102549608D01*
X143154277Y-102563189D01*
X143176777Y-102578223D01*
X143191810Y-102600722D01*
X143205391Y-102614303D01*
X143214170Y-102634186D01*
X143230970Y-102659329D01*
X143235641Y-102682812D01*
X143243212Y-102699959D01*
X143249033Y-102750139D01*
X143250000Y-102755000D01*
X143250000Y-103705000D01*
X143249032Y-103709863D01*
X143243212Y-103760040D01*
X143235641Y-103777185D01*
X143230970Y-103800671D01*
X143214169Y-103825815D01*
X143205391Y-103845696D01*
X143191812Y-103859274D01*
X143176777Y-103881777D01*
X143154274Y-103896812D01*
X143140696Y-103910391D01*
X143120815Y-103919169D01*
X143095671Y-103935970D01*
X143072185Y-103940641D01*
X143055040Y-103948212D01*
X143004861Y-103954032D01*
X143000000Y-103955000D01*
X142500000Y-103955000D01*
X142495138Y-103954032D01*
X142444959Y-103948212D01*
X142427812Y-103940641D01*
X142404329Y-103935970D01*
X142379186Y-103919170D01*
X142359303Y-103910391D01*
X142345722Y-103896810D01*
X142323223Y-103881777D01*
X142308189Y-103859277D01*
X142294608Y-103845696D01*
X142285827Y-103825810D01*
X142269030Y-103800671D01*
X142264359Y-103777189D01*
X142256787Y-103760040D01*
X142250964Y-103709849D01*
X142250000Y-103705000D01*
X142250000Y-102755000D01*
X142250964Y-102750150D01*
X142256787Y-102699959D01*
X142264359Y-102682808D01*
X142269030Y-102659329D01*
X142285826Y-102634191D01*
X142294608Y-102614303D01*
X142308191Y-102600719D01*
X142323223Y-102578223D01*
X142345719Y-102563191D01*
X142359303Y-102549608D01*
X142379191Y-102540826D01*
X142404329Y-102524030D01*
X142427808Y-102519359D01*
X142444959Y-102511787D01*
X142495151Y-102505964D01*
X142500000Y-102505000D01*
X143000000Y-102505000D01*
X143004850Y-102505964D01*
G37*
G36*
X144904850Y-102505964D02*
G01*
X144955040Y-102511787D01*
X144972189Y-102519359D01*
X144995671Y-102524030D01*
X145020810Y-102540827D01*
X145040696Y-102549608D01*
X145054277Y-102563189D01*
X145076777Y-102578223D01*
X145091810Y-102600722D01*
X145105391Y-102614303D01*
X145114170Y-102634186D01*
X145130970Y-102659329D01*
X145135641Y-102682812D01*
X145143212Y-102699959D01*
X145149033Y-102750139D01*
X145150000Y-102755000D01*
X145150000Y-103705000D01*
X145149032Y-103709863D01*
X145143212Y-103760040D01*
X145135641Y-103777185D01*
X145130970Y-103800671D01*
X145114169Y-103825815D01*
X145105391Y-103845696D01*
X145091812Y-103859274D01*
X145076777Y-103881777D01*
X145054274Y-103896812D01*
X145040696Y-103910391D01*
X145020815Y-103919169D01*
X144995671Y-103935970D01*
X144972185Y-103940641D01*
X144955040Y-103948212D01*
X144904861Y-103954032D01*
X144900000Y-103955000D01*
X144400000Y-103955000D01*
X144395138Y-103954032D01*
X144344959Y-103948212D01*
X144327812Y-103940641D01*
X144304329Y-103935970D01*
X144279186Y-103919170D01*
X144259303Y-103910391D01*
X144245722Y-103896810D01*
X144223223Y-103881777D01*
X144208189Y-103859277D01*
X144194608Y-103845696D01*
X144185827Y-103825810D01*
X144169030Y-103800671D01*
X144164359Y-103777189D01*
X144156787Y-103760040D01*
X144150964Y-103709849D01*
X144150000Y-103705000D01*
X144150000Y-102755000D01*
X144150964Y-102750150D01*
X144156787Y-102699959D01*
X144164359Y-102682808D01*
X144169030Y-102659329D01*
X144185826Y-102634191D01*
X144194608Y-102614303D01*
X144208191Y-102600719D01*
X144223223Y-102578223D01*
X144245719Y-102563191D01*
X144259303Y-102549608D01*
X144279191Y-102540826D01*
X144304329Y-102524030D01*
X144327808Y-102519359D01*
X144344959Y-102511787D01*
X144395151Y-102505964D01*
X144400000Y-102505000D01*
X144900000Y-102505000D01*
X144904850Y-102505964D01*
G37*
G36*
X138704850Y-102295964D02*
G01*
X138755040Y-102301787D01*
X138772189Y-102309359D01*
X138795671Y-102314030D01*
X138820810Y-102330827D01*
X138840696Y-102339608D01*
X138854277Y-102353189D01*
X138876777Y-102368223D01*
X138891810Y-102390722D01*
X138905391Y-102404303D01*
X138914170Y-102424186D01*
X138930970Y-102449329D01*
X138935641Y-102472812D01*
X138943212Y-102489959D01*
X138949033Y-102540139D01*
X138950000Y-102545000D01*
X138950000Y-103495000D01*
X138949032Y-103499863D01*
X138943212Y-103550040D01*
X138935641Y-103567185D01*
X138930970Y-103590671D01*
X138914169Y-103615815D01*
X138905391Y-103635696D01*
X138891812Y-103649274D01*
X138876777Y-103671777D01*
X138854274Y-103686812D01*
X138840696Y-103700391D01*
X138820815Y-103709169D01*
X138795671Y-103725970D01*
X138772185Y-103730641D01*
X138755040Y-103738212D01*
X138704861Y-103744032D01*
X138700000Y-103745000D01*
X138200000Y-103745000D01*
X138195138Y-103744032D01*
X138144959Y-103738212D01*
X138127812Y-103730641D01*
X138104329Y-103725970D01*
X138079186Y-103709170D01*
X138059303Y-103700391D01*
X138045722Y-103686810D01*
X138023223Y-103671777D01*
X138008189Y-103649277D01*
X137994608Y-103635696D01*
X137985827Y-103615810D01*
X137969030Y-103590671D01*
X137964359Y-103567189D01*
X137956787Y-103550040D01*
X137950964Y-103499849D01*
X137950000Y-103495000D01*
X137950000Y-102545000D01*
X137950964Y-102540150D01*
X137956787Y-102489959D01*
X137964359Y-102472808D01*
X137969030Y-102449329D01*
X137985826Y-102424191D01*
X137994608Y-102404303D01*
X138008191Y-102390719D01*
X138023223Y-102368223D01*
X138045719Y-102353191D01*
X138059303Y-102339608D01*
X138079191Y-102330826D01*
X138104329Y-102314030D01*
X138127808Y-102309359D01*
X138144959Y-102301787D01*
X138195151Y-102295964D01*
X138200000Y-102295000D01*
X138700000Y-102295000D01*
X138704850Y-102295964D01*
G37*
G36*
X140604850Y-102295964D02*
G01*
X140655040Y-102301787D01*
X140672189Y-102309359D01*
X140695671Y-102314030D01*
X140720810Y-102330827D01*
X140740696Y-102339608D01*
X140754277Y-102353189D01*
X140776777Y-102368223D01*
X140791810Y-102390722D01*
X140805391Y-102404303D01*
X140814170Y-102424186D01*
X140830970Y-102449329D01*
X140835641Y-102472812D01*
X140843212Y-102489959D01*
X140849033Y-102540139D01*
X140850000Y-102545000D01*
X140850000Y-103495000D01*
X140849032Y-103499863D01*
X140843212Y-103550040D01*
X140835641Y-103567185D01*
X140830970Y-103590671D01*
X140814169Y-103615815D01*
X140805391Y-103635696D01*
X140791812Y-103649274D01*
X140776777Y-103671777D01*
X140754274Y-103686812D01*
X140740696Y-103700391D01*
X140720815Y-103709169D01*
X140695671Y-103725970D01*
X140672185Y-103730641D01*
X140655040Y-103738212D01*
X140604861Y-103744032D01*
X140600000Y-103745000D01*
X140100000Y-103745000D01*
X140095138Y-103744032D01*
X140044959Y-103738212D01*
X140027812Y-103730641D01*
X140004329Y-103725970D01*
X139979186Y-103709170D01*
X139959303Y-103700391D01*
X139945722Y-103686810D01*
X139923223Y-103671777D01*
X139908189Y-103649277D01*
X139894608Y-103635696D01*
X139885827Y-103615810D01*
X139869030Y-103590671D01*
X139864359Y-103567189D01*
X139856787Y-103550040D01*
X139850964Y-103499849D01*
X139850000Y-103495000D01*
X139850000Y-102545000D01*
X139850964Y-102540150D01*
X139856787Y-102489959D01*
X139864359Y-102472808D01*
X139869030Y-102449329D01*
X139885826Y-102424191D01*
X139894608Y-102404303D01*
X139908191Y-102390719D01*
X139923223Y-102368223D01*
X139945719Y-102353191D01*
X139959303Y-102339608D01*
X139979191Y-102330826D01*
X140004329Y-102314030D01*
X140027808Y-102309359D01*
X140044959Y-102301787D01*
X140095151Y-102295964D01*
X140100000Y-102295000D01*
X140600000Y-102295000D01*
X140604850Y-102295964D01*
G37*
G36*
X153769850Y-102640964D02*
G01*
X153820040Y-102646787D01*
X153837189Y-102654359D01*
X153860671Y-102659030D01*
X153885810Y-102675827D01*
X153905696Y-102684608D01*
X153919277Y-102698189D01*
X153941777Y-102713223D01*
X153956810Y-102735722D01*
X153970391Y-102749303D01*
X153979170Y-102769186D01*
X153995970Y-102794329D01*
X154000641Y-102817812D01*
X154008212Y-102834959D01*
X154014033Y-102885139D01*
X154015000Y-102890000D01*
X154015000Y-103390000D01*
X154014032Y-103394863D01*
X154008212Y-103445040D01*
X154000641Y-103462185D01*
X153995970Y-103485671D01*
X153979169Y-103510815D01*
X153970391Y-103530696D01*
X153956812Y-103544274D01*
X153941777Y-103566777D01*
X153919274Y-103581812D01*
X153905696Y-103595391D01*
X153885815Y-103604169D01*
X153860671Y-103620970D01*
X153837185Y-103625641D01*
X153820040Y-103633212D01*
X153769861Y-103639032D01*
X153765000Y-103640000D01*
X152815000Y-103640000D01*
X152810138Y-103639032D01*
X152759959Y-103633212D01*
X152742812Y-103625641D01*
X152719329Y-103620970D01*
X152694186Y-103604170D01*
X152674303Y-103595391D01*
X152660722Y-103581810D01*
X152638223Y-103566777D01*
X152623189Y-103544277D01*
X152609608Y-103530696D01*
X152600827Y-103510810D01*
X152584030Y-103485671D01*
X152579359Y-103462189D01*
X152571787Y-103445040D01*
X152565964Y-103394849D01*
X152565000Y-103390000D01*
X152565000Y-102890000D01*
X152565964Y-102885150D01*
X152571787Y-102834959D01*
X152579359Y-102817808D01*
X152584030Y-102794329D01*
X152600826Y-102769191D01*
X152609608Y-102749303D01*
X152623191Y-102735719D01*
X152638223Y-102713223D01*
X152660719Y-102698191D01*
X152674303Y-102684608D01*
X152694191Y-102675826D01*
X152719329Y-102659030D01*
X152742808Y-102654359D01*
X152759959Y-102646787D01*
X152810151Y-102640964D01*
X152815000Y-102640000D01*
X153765000Y-102640000D01*
X153769850Y-102640964D01*
G37*
G36*
X136835090Y-103323153D02*
G01*
X135235090Y-103323153D01*
X135235090Y-102523153D01*
X136835090Y-102523153D01*
X136835090Y-103323153D01*
G37*
G36*
X165000000Y-103142500D02*
G01*
X162000000Y-103142500D01*
X162000000Y-101642500D01*
X165000000Y-101642500D01*
X165000000Y-103142500D01*
G37*
G36*
X134388163Y-101803601D02*
G01*
X134478595Y-101855812D01*
X134552431Y-101929648D01*
X134604642Y-102020080D01*
X134631668Y-102120943D01*
X134631668Y-102225363D01*
X134604642Y-102326226D01*
X134552431Y-102416658D01*
X134478595Y-102490494D01*
X134388163Y-102542705D01*
X134287300Y-102569731D01*
X134182880Y-102569731D01*
X134082017Y-102542705D01*
X133991585Y-102490494D01*
X133917749Y-102416658D01*
X133865538Y-102326226D01*
X133838512Y-102225363D01*
X133838512Y-102120943D01*
X133865538Y-102020080D01*
X133917749Y-101929648D01*
X133991585Y-101855812D01*
X134082017Y-101803601D01*
X134182880Y-101776575D01*
X134287300Y-101776575D01*
X134388163Y-101803601D01*
G37*
G36*
X148007403Y-101022668D02*
G01*
X148056066Y-101055184D01*
X148088582Y-101103847D01*
X148100000Y-101161250D01*
X148100000Y-102186250D01*
X148088582Y-102243653D01*
X148056066Y-102292316D01*
X148007403Y-102324832D01*
X147950000Y-102336250D01*
X147650000Y-102336250D01*
X147592597Y-102324832D01*
X147543934Y-102292316D01*
X147511418Y-102243653D01*
X147500000Y-102186250D01*
X147500000Y-101161250D01*
X147511418Y-101103847D01*
X147543934Y-101055184D01*
X147592597Y-101022668D01*
X147650000Y-101011250D01*
X147950000Y-101011250D01*
X148007403Y-101022668D01*
G37*
G36*
X148957403Y-101022668D02*
G01*
X149006066Y-101055184D01*
X149038582Y-101103847D01*
X149050000Y-101161250D01*
X149050000Y-102186250D01*
X149038582Y-102243653D01*
X149006066Y-102292316D01*
X148957403Y-102324832D01*
X148900000Y-102336250D01*
X148600000Y-102336250D01*
X148542597Y-102324832D01*
X148493934Y-102292316D01*
X148461418Y-102243653D01*
X148450000Y-102186250D01*
X148450000Y-101161250D01*
X148461418Y-101103847D01*
X148493934Y-101055184D01*
X148542597Y-101022668D01*
X148600000Y-101011250D01*
X148900000Y-101011250D01*
X148957403Y-101022668D01*
G37*
G36*
X149907403Y-101022668D02*
G01*
X149956066Y-101055184D01*
X149988582Y-101103847D01*
X150000000Y-101161250D01*
X150000000Y-102186250D01*
X149988582Y-102243653D01*
X149956066Y-102292316D01*
X149907403Y-102324832D01*
X149850000Y-102336250D01*
X149550000Y-102336250D01*
X149492597Y-102324832D01*
X149443934Y-102292316D01*
X149411418Y-102243653D01*
X149400000Y-102186250D01*
X149400000Y-101161250D01*
X149411418Y-101103847D01*
X149443934Y-101055184D01*
X149492597Y-101022668D01*
X149550000Y-101011250D01*
X149850000Y-101011250D01*
X149907403Y-101022668D01*
G37*
G36*
X136835090Y-101823153D02*
G01*
X135235090Y-101823153D01*
X135235090Y-101023153D01*
X136835090Y-101023153D01*
X136835090Y-101823153D01*
G37*
G36*
X160289850Y-100150964D02*
G01*
X160340040Y-100156787D01*
X160357189Y-100164359D01*
X160380671Y-100169030D01*
X160405810Y-100185827D01*
X160425696Y-100194608D01*
X160439277Y-100208189D01*
X160461777Y-100223223D01*
X160476810Y-100245722D01*
X160490391Y-100259303D01*
X160499170Y-100279186D01*
X160515970Y-100304329D01*
X160520641Y-100327812D01*
X160528212Y-100344959D01*
X160534033Y-100395139D01*
X160535000Y-100400000D01*
X160535000Y-100900000D01*
X160534032Y-100904863D01*
X160528212Y-100955040D01*
X160520641Y-100972185D01*
X160515970Y-100995671D01*
X160499169Y-101020815D01*
X160490391Y-101040696D01*
X160476812Y-101054274D01*
X160461777Y-101076777D01*
X160439274Y-101091812D01*
X160425696Y-101105391D01*
X160405815Y-101114169D01*
X160380671Y-101130970D01*
X160357185Y-101135641D01*
X160340040Y-101143212D01*
X160289861Y-101149032D01*
X160285000Y-101150000D01*
X159335000Y-101150000D01*
X159330138Y-101149032D01*
X159279959Y-101143212D01*
X159262812Y-101135641D01*
X159239329Y-101130970D01*
X159214186Y-101114170D01*
X159194303Y-101105391D01*
X159180722Y-101091810D01*
X159158223Y-101076777D01*
X159143189Y-101054277D01*
X159129608Y-101040696D01*
X159120827Y-101020810D01*
X159104030Y-100995671D01*
X159099359Y-100972189D01*
X159091787Y-100955040D01*
X159085964Y-100904849D01*
X159085000Y-100900000D01*
X159085000Y-100400000D01*
X159085964Y-100395150D01*
X159091787Y-100344959D01*
X159099359Y-100327808D01*
X159104030Y-100304329D01*
X159120826Y-100279191D01*
X159129608Y-100259303D01*
X159143191Y-100245719D01*
X159158223Y-100223223D01*
X159180719Y-100208191D01*
X159194303Y-100194608D01*
X159214191Y-100185826D01*
X159239329Y-100169030D01*
X159262808Y-100164359D01*
X159279959Y-100156787D01*
X159330151Y-100150964D01*
X159335000Y-100150000D01*
X160285000Y-100150000D01*
X160289850Y-100150964D01*
G37*
G36*
X155836662Y-100220276D02*
G01*
X155880459Y-100249541D01*
X155909724Y-100293338D01*
X155920000Y-100345000D01*
X155920000Y-100715000D01*
X155909724Y-100766662D01*
X155880459Y-100810459D01*
X155836662Y-100839724D01*
X155785000Y-100850000D01*
X155515000Y-100850000D01*
X155463338Y-100839724D01*
X155419541Y-100810459D01*
X155390276Y-100766662D01*
X155380000Y-100715000D01*
X155380000Y-100345000D01*
X155390276Y-100293338D01*
X155419541Y-100249541D01*
X155463338Y-100220276D01*
X155515000Y-100210000D01*
X155785000Y-100210000D01*
X155836662Y-100220276D01*
G37*
G36*
X156856662Y-100220276D02*
G01*
X156900459Y-100249541D01*
X156929724Y-100293338D01*
X156940000Y-100345000D01*
X156940000Y-100715000D01*
X156929724Y-100766662D01*
X156900459Y-100810459D01*
X156856662Y-100839724D01*
X156805000Y-100850000D01*
X156535000Y-100850000D01*
X156483338Y-100839724D01*
X156439541Y-100810459D01*
X156410276Y-100766662D01*
X156400000Y-100715000D01*
X156400000Y-100345000D01*
X156410276Y-100293338D01*
X156439541Y-100249541D01*
X156483338Y-100220276D01*
X156535000Y-100210000D01*
X156805000Y-100210000D01*
X156856662Y-100220276D01*
G37*
G36*
X141260000Y-100040000D02*
G01*
X139580000Y-100040000D01*
X139580000Y-98520000D01*
X141260000Y-98520000D01*
X141260000Y-100040000D01*
G37*
G36*
X145110000Y-100040000D02*
G01*
X143430000Y-100040000D01*
X143430000Y-98520000D01*
X145110000Y-98520000D01*
X145110000Y-100040000D01*
G37*
G36*
X134388163Y-98803601D02*
G01*
X134478595Y-98855812D01*
X134552431Y-98929648D01*
X134604642Y-99020080D01*
X134631668Y-99120943D01*
X134631668Y-99225363D01*
X134604642Y-99326226D01*
X134552431Y-99416658D01*
X134478595Y-99490494D01*
X134388163Y-99542705D01*
X134287300Y-99569731D01*
X134182880Y-99569731D01*
X134082017Y-99542705D01*
X133991585Y-99490494D01*
X133917749Y-99416658D01*
X133865538Y-99326226D01*
X133838512Y-99225363D01*
X133838512Y-99120943D01*
X133865538Y-99020080D01*
X133917749Y-98929648D01*
X133991585Y-98855812D01*
X134082017Y-98803601D01*
X134182880Y-98776575D01*
X134287300Y-98776575D01*
X134388163Y-98803601D01*
G37*
G36*
X147076662Y-98780276D02*
G01*
X147120459Y-98809541D01*
X147149724Y-98853338D01*
X147160000Y-98905000D01*
X147160000Y-99275000D01*
X147149724Y-99326662D01*
X147120459Y-99370459D01*
X147076662Y-99399724D01*
X147025000Y-99410000D01*
X146755000Y-99410000D01*
X146703338Y-99399724D01*
X146659541Y-99370459D01*
X146630276Y-99326662D01*
X146620000Y-99275000D01*
X146620000Y-98905000D01*
X146630276Y-98853338D01*
X146659541Y-98809541D01*
X146703338Y-98780276D01*
X146755000Y-98770000D01*
X147025000Y-98770000D01*
X147076662Y-98780276D01*
G37*
G36*
X148096662Y-98780276D02*
G01*
X148140459Y-98809541D01*
X148169724Y-98853338D01*
X148180000Y-98905000D01*
X148180000Y-99275000D01*
X148169724Y-99326662D01*
X148140459Y-99370459D01*
X148096662Y-99399724D01*
X148045000Y-99410000D01*
X147775000Y-99410000D01*
X147723338Y-99399724D01*
X147679541Y-99370459D01*
X147650276Y-99326662D01*
X147640000Y-99275000D01*
X147640000Y-98905000D01*
X147650276Y-98853338D01*
X147679541Y-98809541D01*
X147723338Y-98780276D01*
X147775000Y-98770000D01*
X148045000Y-98770000D01*
X148096662Y-98780276D01*
G37*
G36*
X150970000Y-99385000D02*
G01*
X149770000Y-99385000D01*
X149770000Y-98785000D01*
X150970000Y-98785000D01*
X150970000Y-99385000D01*
G37*
G36*
X156790000Y-99385000D02*
G01*
X155590000Y-99385000D01*
X155590000Y-98785000D01*
X156790000Y-98785000D01*
X156790000Y-99385000D01*
G37*
G36*
X160289850Y-98250964D02*
G01*
X160340040Y-98256787D01*
X160357189Y-98264359D01*
X160380671Y-98269030D01*
X160405810Y-98285827D01*
X160425696Y-98294608D01*
X160439277Y-98308189D01*
X160461777Y-98323223D01*
X160476810Y-98345722D01*
X160490391Y-98359303D01*
X160499170Y-98379186D01*
X160515970Y-98404329D01*
X160520641Y-98427812D01*
X160528212Y-98444959D01*
X160534033Y-98495139D01*
X160535000Y-98500000D01*
X160535000Y-99000000D01*
X160534032Y-99004863D01*
X160528212Y-99055040D01*
X160520641Y-99072185D01*
X160515970Y-99095671D01*
X160499169Y-99120815D01*
X160490391Y-99140696D01*
X160476812Y-99154274D01*
X160461777Y-99176777D01*
X160439274Y-99191812D01*
X160425696Y-99205391D01*
X160405815Y-99214169D01*
X160380671Y-99230970D01*
X160357185Y-99235641D01*
X160340040Y-99243212D01*
X160289861Y-99249032D01*
X160285000Y-99250000D01*
X159335000Y-99250000D01*
X159330138Y-99249032D01*
X159279959Y-99243212D01*
X159262812Y-99235641D01*
X159239329Y-99230970D01*
X159214186Y-99214170D01*
X159194303Y-99205391D01*
X159180722Y-99191810D01*
X159158223Y-99176777D01*
X159143189Y-99154277D01*
X159129608Y-99140696D01*
X159120827Y-99120810D01*
X159104030Y-99095671D01*
X159099359Y-99072189D01*
X159091787Y-99055040D01*
X159085964Y-99004849D01*
X159085000Y-99000000D01*
X159085000Y-98500000D01*
X159085964Y-98495150D01*
X159091787Y-98444959D01*
X159099359Y-98427808D01*
X159104030Y-98404329D01*
X159120826Y-98379191D01*
X159129608Y-98359303D01*
X159143191Y-98345719D01*
X159158223Y-98323223D01*
X159180719Y-98308191D01*
X159194303Y-98294608D01*
X159214191Y-98285826D01*
X159239329Y-98269030D01*
X159262808Y-98264359D01*
X159279959Y-98256787D01*
X159330151Y-98250964D01*
X159335000Y-98250000D01*
X160285000Y-98250000D01*
X160289850Y-98250964D01*
G37*
G36*
X154480000Y-98825000D02*
G01*
X152080000Y-98825000D01*
X152080000Y-95525000D01*
X154480000Y-95525000D01*
X154480000Y-98825000D01*
G37*
G36*
X136835090Y-98823153D02*
G01*
X135235090Y-98823153D01*
X135235090Y-98023153D01*
X136835090Y-98023153D01*
X136835090Y-98823153D01*
G37*
G36*
X163699850Y-97787464D02*
G01*
X163750040Y-97793287D01*
X163767189Y-97800859D01*
X163790671Y-97805530D01*
X163815810Y-97822327D01*
X163835696Y-97831108D01*
X163849277Y-97844689D01*
X163871777Y-97859723D01*
X163886810Y-97882222D01*
X163900391Y-97895803D01*
X163909170Y-97915686D01*
X163925970Y-97940829D01*
X163930641Y-97964312D01*
X163938212Y-97981459D01*
X163944033Y-98031639D01*
X163945000Y-98036500D01*
X163945000Y-98536500D01*
X163944032Y-98541363D01*
X163938212Y-98591540D01*
X163930641Y-98608685D01*
X163925970Y-98632171D01*
X163909169Y-98657315D01*
X163900391Y-98677196D01*
X163886812Y-98690774D01*
X163871777Y-98713277D01*
X163849274Y-98728312D01*
X163835696Y-98741891D01*
X163815815Y-98750669D01*
X163790671Y-98767470D01*
X163767185Y-98772141D01*
X163750040Y-98779712D01*
X163699861Y-98785532D01*
X163695000Y-98786500D01*
X162745000Y-98786500D01*
X162740138Y-98785532D01*
X162689959Y-98779712D01*
X162672812Y-98772141D01*
X162649329Y-98767470D01*
X162624186Y-98750670D01*
X162604303Y-98741891D01*
X162590722Y-98728310D01*
X162568223Y-98713277D01*
X162553189Y-98690777D01*
X162539608Y-98677196D01*
X162530827Y-98657310D01*
X162514030Y-98632171D01*
X162509359Y-98608689D01*
X162501787Y-98591540D01*
X162495964Y-98541349D01*
X162495000Y-98536500D01*
X162495000Y-98036500D01*
X162495964Y-98031650D01*
X162501787Y-97981459D01*
X162509359Y-97964308D01*
X162514030Y-97940829D01*
X162530826Y-97915691D01*
X162539608Y-97895803D01*
X162553191Y-97882219D01*
X162568223Y-97859723D01*
X162590719Y-97844691D01*
X162604303Y-97831108D01*
X162624191Y-97822326D01*
X162649329Y-97805530D01*
X162672808Y-97800859D01*
X162689959Y-97793287D01*
X162740151Y-97787464D01*
X162745000Y-97786500D01*
X163695000Y-97786500D01*
X163699850Y-97787464D01*
G37*
G36*
X167270000Y-98641500D02*
G01*
X165410000Y-98641500D01*
X165410000Y-97411500D01*
X167270000Y-97411500D01*
X167270000Y-98641500D01*
G37*
G36*
X147903946Y-97511228D02*
G01*
X147951798Y-97543202D01*
X147983772Y-97591054D01*
X147995000Y-97647500D01*
X147995000Y-97992500D01*
X147983772Y-98048946D01*
X147951798Y-98096798D01*
X147903946Y-98128772D01*
X147847500Y-98140000D01*
X147552500Y-98140000D01*
X147496054Y-98128772D01*
X147448202Y-98096798D01*
X147416228Y-98048946D01*
X147405000Y-97992500D01*
X147405000Y-97647500D01*
X147416228Y-97591054D01*
X147448202Y-97543202D01*
X147496054Y-97511228D01*
X147552500Y-97500000D01*
X147847500Y-97500000D01*
X147903946Y-97511228D01*
G37*
G36*
X148873946Y-97511228D02*
G01*
X148921798Y-97543202D01*
X148953772Y-97591054D01*
X148965000Y-97647500D01*
X148965000Y-97992500D01*
X148953772Y-98048946D01*
X148921798Y-98096798D01*
X148873946Y-98128772D01*
X148817500Y-98140000D01*
X148522500Y-98140000D01*
X148466054Y-98128772D01*
X148418202Y-98096798D01*
X148386228Y-98048946D01*
X148375000Y-97992500D01*
X148375000Y-97647500D01*
X148386228Y-97591054D01*
X148418202Y-97543202D01*
X148466054Y-97511228D01*
X148522500Y-97500000D01*
X148817500Y-97500000D01*
X148873946Y-97511228D01*
G37*
G36*
X150970000Y-98105000D02*
G01*
X149770000Y-98105000D01*
X149770000Y-97505000D01*
X150970000Y-97505000D01*
X150970000Y-98105000D01*
G37*
G36*
X156790000Y-98105000D02*
G01*
X155590000Y-98105000D01*
X155590000Y-97505000D01*
X156790000Y-97505000D01*
X156790000Y-98105000D01*
G37*
G36*
X133535090Y-97523153D02*
G01*
X132735090Y-97523153D01*
X132735090Y-96523153D01*
X133535090Y-96523153D01*
X133535090Y-97523153D01*
G37*
G36*
X135735090Y-97523153D02*
G01*
X134935090Y-97523153D01*
X134935090Y-96523153D01*
X135735090Y-96523153D01*
X135735090Y-97523153D01*
G37*
G36*
X163699850Y-95887464D02*
G01*
X163750040Y-95893287D01*
X163767189Y-95900859D01*
X163790671Y-95905530D01*
X163815810Y-95922327D01*
X163835696Y-95931108D01*
X163849277Y-95944689D01*
X163871777Y-95959723D01*
X163886810Y-95982222D01*
X163900391Y-95995803D01*
X163909170Y-96015686D01*
X163925970Y-96040829D01*
X163930641Y-96064312D01*
X163938212Y-96081459D01*
X163944033Y-96131639D01*
X163945000Y-96136500D01*
X163945000Y-96636500D01*
X163944032Y-96641363D01*
X163938212Y-96691540D01*
X163930641Y-96708685D01*
X163925970Y-96732171D01*
X163909169Y-96757315D01*
X163900391Y-96777196D01*
X163886812Y-96790774D01*
X163871777Y-96813277D01*
X163849274Y-96828312D01*
X163835696Y-96841891D01*
X163815815Y-96850669D01*
X163790671Y-96867470D01*
X163767185Y-96872141D01*
X163750040Y-96879712D01*
X163699861Y-96885532D01*
X163695000Y-96886500D01*
X162745000Y-96886500D01*
X162740138Y-96885532D01*
X162689959Y-96879712D01*
X162672812Y-96872141D01*
X162649329Y-96867470D01*
X162624186Y-96850670D01*
X162604303Y-96841891D01*
X162590722Y-96828310D01*
X162568223Y-96813277D01*
X162553189Y-96790777D01*
X162539608Y-96777196D01*
X162530827Y-96757310D01*
X162514030Y-96732171D01*
X162509359Y-96708689D01*
X162501787Y-96691540D01*
X162495964Y-96641349D01*
X162495000Y-96636500D01*
X162495000Y-96136500D01*
X162495964Y-96131650D01*
X162501787Y-96081459D01*
X162509359Y-96064308D01*
X162514030Y-96040829D01*
X162530826Y-96015691D01*
X162539608Y-95995803D01*
X162553191Y-95982219D01*
X162568223Y-95959723D01*
X162590719Y-95944691D01*
X162604303Y-95931108D01*
X162624191Y-95922326D01*
X162649329Y-95905530D01*
X162672808Y-95900859D01*
X162689959Y-95893287D01*
X162740151Y-95887464D01*
X162745000Y-95886500D01*
X163695000Y-95886500D01*
X163699850Y-95887464D01*
G37*
G36*
X150970000Y-96835000D02*
G01*
X149770000Y-96835000D01*
X149770000Y-96235000D01*
X150970000Y-96235000D01*
X150970000Y-96835000D01*
G37*
G36*
X156790000Y-96835000D02*
G01*
X155590000Y-96835000D01*
X155590000Y-96235000D01*
X156790000Y-96235000D01*
X156790000Y-96835000D01*
G37*
G36*
X147893946Y-96191228D02*
G01*
X147941798Y-96223202D01*
X147973772Y-96271054D01*
X147985000Y-96327500D01*
X147985000Y-96672500D01*
X147973772Y-96728946D01*
X147941798Y-96776798D01*
X147893946Y-96808772D01*
X147837500Y-96820000D01*
X147542500Y-96820000D01*
X147486054Y-96808772D01*
X147438202Y-96776798D01*
X147406228Y-96728946D01*
X147395000Y-96672500D01*
X147395000Y-96327500D01*
X147406228Y-96271054D01*
X147438202Y-96223202D01*
X147486054Y-96191228D01*
X147542500Y-96180000D01*
X147837500Y-96180000D01*
X147893946Y-96191228D01*
G37*
G36*
X148863946Y-96191228D02*
G01*
X148911798Y-96223202D01*
X148943772Y-96271054D01*
X148955000Y-96327500D01*
X148955000Y-96672500D01*
X148943772Y-96728946D01*
X148911798Y-96776798D01*
X148863946Y-96808772D01*
X148807500Y-96820000D01*
X148512500Y-96820000D01*
X148456054Y-96808772D01*
X148408202Y-96776798D01*
X148376228Y-96728946D01*
X148365000Y-96672500D01*
X148365000Y-96327500D01*
X148376228Y-96271054D01*
X148408202Y-96223202D01*
X148456054Y-96191228D01*
X148512500Y-96180000D01*
X148807500Y-96180000D01*
X148863946Y-96191228D01*
G37*
G36*
X141260000Y-96120000D02*
G01*
X139580000Y-96120000D01*
X139580000Y-94600000D01*
X141260000Y-94600000D01*
X141260000Y-96120000D01*
G37*
G36*
X145110000Y-96120000D02*
G01*
X143430000Y-96120000D01*
X143430000Y-94600000D01*
X145110000Y-94600000D01*
X145110000Y-96120000D01*
G37*
G36*
X147006662Y-95020276D02*
G01*
X147050459Y-95049541D01*
X147079724Y-95093338D01*
X147090000Y-95145000D01*
X147090000Y-95515000D01*
X147079724Y-95566662D01*
X147050459Y-95610459D01*
X147006662Y-95639724D01*
X146955000Y-95650000D01*
X146685000Y-95650000D01*
X146633338Y-95639724D01*
X146589541Y-95610459D01*
X146560276Y-95566662D01*
X146550000Y-95515000D01*
X146550000Y-95145000D01*
X146560276Y-95093338D01*
X146589541Y-95049541D01*
X146633338Y-95020276D01*
X146685000Y-95010000D01*
X146955000Y-95010000D01*
X147006662Y-95020276D01*
G37*
G36*
X148026662Y-95020276D02*
G01*
X148070459Y-95049541D01*
X148099724Y-95093338D01*
X148110000Y-95145000D01*
X148110000Y-95515000D01*
X148099724Y-95566662D01*
X148070459Y-95610459D01*
X148026662Y-95639724D01*
X147975000Y-95650000D01*
X147705000Y-95650000D01*
X147653338Y-95639724D01*
X147609541Y-95610459D01*
X147580276Y-95566662D01*
X147570000Y-95515000D01*
X147570000Y-95145000D01*
X147580276Y-95093338D01*
X147609541Y-95049541D01*
X147653338Y-95020276D01*
X147705000Y-95010000D01*
X147975000Y-95010000D01*
X148026662Y-95020276D01*
G37*
G36*
X150970000Y-95565000D02*
G01*
X149770000Y-95565000D01*
X149770000Y-94965000D01*
X150970000Y-94965000D01*
X150970000Y-95565000D01*
G37*
G36*
X156790000Y-95565000D02*
G01*
X155590000Y-95565000D01*
X155590000Y-94965000D01*
X156790000Y-94965000D01*
X156790000Y-95565000D01*
G37*
G36*
X135076852Y-93795269D02*
G01*
X135221741Y-93855284D01*
X135352139Y-93942413D01*
X135463032Y-94053306D01*
X135550161Y-94183704D01*
X135610176Y-94328593D01*
X135640772Y-94482407D01*
X135640772Y-94639235D01*
X135610176Y-94793049D01*
X135550161Y-94937938D01*
X135463032Y-95068336D01*
X135352139Y-95179229D01*
X135221741Y-95266358D01*
X135076852Y-95326373D01*
X134923038Y-95356969D01*
X134766210Y-95356969D01*
X134612396Y-95326373D01*
X134467507Y-95266358D01*
X134337109Y-95179229D01*
X134226216Y-95068336D01*
X134139087Y-94937938D01*
X134079072Y-94793049D01*
X134048476Y-94639235D01*
X134048476Y-94482407D01*
X134079072Y-94328593D01*
X134139087Y-94183704D01*
X134226216Y-94053306D01*
X134337109Y-93942413D01*
X134467507Y-93855284D01*
X134612396Y-93795269D01*
X134766210Y-93764673D01*
X134923038Y-93764673D01*
X135076852Y-93795269D01*
G37*
G36*
X137076852Y-93795269D02*
G01*
X137221741Y-93855284D01*
X137352139Y-93942413D01*
X137463032Y-94053306D01*
X137550161Y-94183704D01*
X137610176Y-94328593D01*
X137640772Y-94482407D01*
X137640772Y-94639235D01*
X137610176Y-94793049D01*
X137550161Y-94937938D01*
X137463032Y-95068336D01*
X137352139Y-95179229D01*
X137221741Y-95266358D01*
X137076852Y-95326373D01*
X136923038Y-95356969D01*
X136766210Y-95356969D01*
X136612396Y-95326373D01*
X136467507Y-95266358D01*
X136337109Y-95179229D01*
X136226216Y-95068336D01*
X136139087Y-94937938D01*
X136079072Y-94793049D01*
X136048476Y-94639235D01*
X136048476Y-94482407D01*
X136079072Y-94328593D01*
X136139087Y-94183704D01*
X136226216Y-94053306D01*
X136337109Y-93942413D01*
X136467507Y-93855284D01*
X136612396Y-93795269D01*
X136766210Y-93764673D01*
X136923038Y-93764673D01*
X137076852Y-93795269D01*
G37*
G36*
X163146662Y-94576776D02*
G01*
X163190459Y-94606041D01*
X163219724Y-94649838D01*
X163230000Y-94701500D01*
X163230000Y-95071500D01*
X163219724Y-95123162D01*
X163190459Y-95166959D01*
X163146662Y-95196224D01*
X163095000Y-95206500D01*
X162825000Y-95206500D01*
X162773338Y-95196224D01*
X162729541Y-95166959D01*
X162700276Y-95123162D01*
X162690000Y-95071500D01*
X162690000Y-94701500D01*
X162700276Y-94649838D01*
X162729541Y-94606041D01*
X162773338Y-94576776D01*
X162825000Y-94566500D01*
X163095000Y-94566500D01*
X163146662Y-94576776D01*
G37*
G36*
X164166662Y-94576776D02*
G01*
X164210459Y-94606041D01*
X164239724Y-94649838D01*
X164250000Y-94701500D01*
X164250000Y-95071500D01*
X164239724Y-95123162D01*
X164210459Y-95166959D01*
X164166662Y-95196224D01*
X164115000Y-95206500D01*
X163845000Y-95206500D01*
X163793338Y-95196224D01*
X163749541Y-95166959D01*
X163720276Y-95123162D01*
X163710000Y-95071500D01*
X163710000Y-94701500D01*
X163720276Y-94649838D01*
X163749541Y-94606041D01*
X163793338Y-94576776D01*
X163845000Y-94566500D01*
X164115000Y-94566500D01*
X164166662Y-94576776D01*
G37*
G36*
X167270000Y-94281500D02*
G01*
X165410000Y-94281500D01*
X165410000Y-93051500D01*
X167270000Y-93051500D01*
X167270000Y-94281500D01*
G37*
G36*
X163146662Y-93576776D02*
G01*
X163190459Y-93606041D01*
X163219724Y-93649838D01*
X163230000Y-93701500D01*
X163230000Y-94071500D01*
X163219724Y-94123162D01*
X163190459Y-94166959D01*
X163146662Y-94196224D01*
X163095000Y-94206500D01*
X162825000Y-94206500D01*
X162773338Y-94196224D01*
X162729541Y-94166959D01*
X162700276Y-94123162D01*
X162690000Y-94071500D01*
X162690000Y-93701500D01*
X162700276Y-93649838D01*
X162729541Y-93606041D01*
X162773338Y-93576776D01*
X162825000Y-93566500D01*
X163095000Y-93566500D01*
X163146662Y-93576776D01*
G37*
G36*
X164166662Y-93576776D02*
G01*
X164210459Y-93606041D01*
X164239724Y-93649838D01*
X164250000Y-93701500D01*
X164250000Y-94071500D01*
X164239724Y-94123162D01*
X164210459Y-94166959D01*
X164166662Y-94196224D01*
X164115000Y-94206500D01*
X163845000Y-94206500D01*
X163793338Y-94196224D01*
X163749541Y-94166959D01*
X163720276Y-94123162D01*
X163710000Y-94071500D01*
X163710000Y-93701500D01*
X163720276Y-93649838D01*
X163749541Y-93606041D01*
X163793338Y-93576776D01*
X163845000Y-93566500D01*
X164115000Y-93566500D01*
X164166662Y-93576776D01*
G37*
G36*
X163699850Y-91837464D02*
G01*
X163750040Y-91843287D01*
X163767189Y-91850859D01*
X163790671Y-91855530D01*
X163815810Y-91872327D01*
X163835696Y-91881108D01*
X163849277Y-91894689D01*
X163871777Y-91909723D01*
X163886810Y-91932222D01*
X163900391Y-91945803D01*
X163909170Y-91965686D01*
X163925970Y-91990829D01*
X163930641Y-92014312D01*
X163938212Y-92031459D01*
X163944033Y-92081639D01*
X163945000Y-92086500D01*
X163945000Y-92586500D01*
X163944032Y-92591363D01*
X163938212Y-92641540D01*
X163930641Y-92658685D01*
X163925970Y-92682171D01*
X163909169Y-92707315D01*
X163900391Y-92727196D01*
X163886812Y-92740774D01*
X163871777Y-92763277D01*
X163849274Y-92778312D01*
X163835696Y-92791891D01*
X163815815Y-92800669D01*
X163790671Y-92817470D01*
X163767185Y-92822141D01*
X163750040Y-92829712D01*
X163699861Y-92835532D01*
X163695000Y-92836500D01*
X162745000Y-92836500D01*
X162740138Y-92835532D01*
X162689959Y-92829712D01*
X162672812Y-92822141D01*
X162649329Y-92817470D01*
X162624186Y-92800670D01*
X162604303Y-92791891D01*
X162590722Y-92778310D01*
X162568223Y-92763277D01*
X162553189Y-92740777D01*
X162539608Y-92727196D01*
X162530827Y-92707310D01*
X162514030Y-92682171D01*
X162509359Y-92658689D01*
X162501787Y-92641540D01*
X162495964Y-92591349D01*
X162495000Y-92586500D01*
X162495000Y-92086500D01*
X162495964Y-92081650D01*
X162501787Y-92031459D01*
X162509359Y-92014308D01*
X162514030Y-91990829D01*
X162530826Y-91965691D01*
X162539608Y-91945803D01*
X162553191Y-91932219D01*
X162568223Y-91909723D01*
X162590719Y-91894691D01*
X162604303Y-91881108D01*
X162624191Y-91872326D01*
X162649329Y-91855530D01*
X162672808Y-91850859D01*
X162689959Y-91843287D01*
X162740151Y-91837464D01*
X162745000Y-91836500D01*
X163695000Y-91836500D01*
X163699850Y-91837464D01*
G37*
G36*
X167220000Y-92351500D02*
G01*
X165360000Y-92351500D01*
X165360000Y-91121500D01*
X167220000Y-91121500D01*
X167220000Y-92351500D01*
G37*
G36*
X169662640Y-91107351D02*
G01*
X169758724Y-91162825D01*
X169837175Y-91241276D01*
X169892649Y-91337360D01*
X169921364Y-91444526D01*
X169921364Y-91555474D01*
X169892649Y-91662640D01*
X169837175Y-91758724D01*
X169758724Y-91837175D01*
X169662640Y-91892649D01*
X169555474Y-91921364D01*
X169444526Y-91921364D01*
X169337360Y-91892649D01*
X169241276Y-91837175D01*
X169162825Y-91758724D01*
X169107351Y-91662640D01*
X169078636Y-91555474D01*
X169078636Y-91444526D01*
X169107351Y-91337360D01*
X169162825Y-91241276D01*
X169241276Y-91162825D01*
X169337360Y-91107351D01*
X169444526Y-91078636D01*
X169555474Y-91078636D01*
X169662640Y-91107351D01*
G37*
G36*
X152045412Y-90800276D02*
G01*
X152089209Y-90829541D01*
X152118474Y-90873338D01*
X152128750Y-90925000D01*
X152128750Y-91195000D01*
X152118474Y-91246662D01*
X152089209Y-91290459D01*
X152045412Y-91319724D01*
X151993750Y-91330000D01*
X151623750Y-91330000D01*
X151572088Y-91319724D01*
X151528291Y-91290459D01*
X151499026Y-91246662D01*
X151488750Y-91195000D01*
X151488750Y-90925000D01*
X151499026Y-90873338D01*
X151528291Y-90829541D01*
X151572088Y-90800276D01*
X151623750Y-90790000D01*
X151993750Y-90790000D01*
X152045412Y-90800276D01*
G37*
G36*
X153365412Y-90800276D02*
G01*
X153409209Y-90829541D01*
X153438474Y-90873338D01*
X153448750Y-90925000D01*
X153448750Y-91195000D01*
X153438474Y-91246662D01*
X153409209Y-91290459D01*
X153365412Y-91319724D01*
X153313750Y-91330000D01*
X152943750Y-91330000D01*
X152892088Y-91319724D01*
X152848291Y-91290459D01*
X152819026Y-91246662D01*
X152808750Y-91195000D01*
X152808750Y-90925000D01*
X152819026Y-90873338D01*
X152848291Y-90829541D01*
X152892088Y-90800276D01*
X152943750Y-90790000D01*
X153313750Y-90790000D01*
X153365412Y-90800276D01*
G37*
G36*
X137724850Y-89645964D02*
G01*
X137775040Y-89651787D01*
X137792189Y-89659359D01*
X137815671Y-89664030D01*
X137840810Y-89680827D01*
X137860696Y-89689608D01*
X137874277Y-89703189D01*
X137896777Y-89718223D01*
X137911810Y-89740722D01*
X137925391Y-89754303D01*
X137934170Y-89774186D01*
X137950970Y-89799329D01*
X137955641Y-89822812D01*
X137963212Y-89839959D01*
X137969033Y-89890139D01*
X137970000Y-89895000D01*
X137970000Y-90845000D01*
X137969032Y-90849863D01*
X137963212Y-90900040D01*
X137955641Y-90917185D01*
X137950970Y-90940671D01*
X137934169Y-90965815D01*
X137925391Y-90985696D01*
X137911812Y-90999274D01*
X137896777Y-91021777D01*
X137874274Y-91036812D01*
X137860696Y-91050391D01*
X137840815Y-91059169D01*
X137815671Y-91075970D01*
X137792185Y-91080641D01*
X137775040Y-91088212D01*
X137724861Y-91094032D01*
X137720000Y-91095000D01*
X137220000Y-91095000D01*
X137215138Y-91094032D01*
X137164959Y-91088212D01*
X137147812Y-91080641D01*
X137124329Y-91075970D01*
X137099186Y-91059170D01*
X137079303Y-91050391D01*
X137065722Y-91036810D01*
X137043223Y-91021777D01*
X137028189Y-90999277D01*
X137014608Y-90985696D01*
X137005827Y-90965810D01*
X136989030Y-90940671D01*
X136984359Y-90917189D01*
X136976787Y-90900040D01*
X136970964Y-90849849D01*
X136970000Y-90845000D01*
X136970000Y-89895000D01*
X136970964Y-89890150D01*
X136976787Y-89839959D01*
X136984359Y-89822808D01*
X136989030Y-89799329D01*
X137005826Y-89774191D01*
X137014608Y-89754303D01*
X137028191Y-89740719D01*
X137043223Y-89718223D01*
X137065719Y-89703191D01*
X137079303Y-89689608D01*
X137099191Y-89680826D01*
X137124329Y-89664030D01*
X137147808Y-89659359D01*
X137164959Y-89651787D01*
X137215151Y-89645964D01*
X137220000Y-89645000D01*
X137720000Y-89645000D01*
X137724850Y-89645964D01*
G37*
G36*
X139624850Y-89645964D02*
G01*
X139675040Y-89651787D01*
X139692189Y-89659359D01*
X139715671Y-89664030D01*
X139740810Y-89680827D01*
X139760696Y-89689608D01*
X139774277Y-89703189D01*
X139796777Y-89718223D01*
X139811810Y-89740722D01*
X139825391Y-89754303D01*
X139834170Y-89774186D01*
X139850970Y-89799329D01*
X139855641Y-89822812D01*
X139863212Y-89839959D01*
X139869033Y-89890139D01*
X139870000Y-89895000D01*
X139870000Y-90845000D01*
X139869032Y-90849863D01*
X139863212Y-90900040D01*
X139855641Y-90917185D01*
X139850970Y-90940671D01*
X139834169Y-90965815D01*
X139825391Y-90985696D01*
X139811812Y-90999274D01*
X139796777Y-91021777D01*
X139774274Y-91036812D01*
X139760696Y-91050391D01*
X139740815Y-91059169D01*
X139715671Y-91075970D01*
X139692185Y-91080641D01*
X139675040Y-91088212D01*
X139624861Y-91094032D01*
X139620000Y-91095000D01*
X139120000Y-91095000D01*
X139115138Y-91094032D01*
X139064959Y-91088212D01*
X139047812Y-91080641D01*
X139024329Y-91075970D01*
X138999186Y-91059170D01*
X138979303Y-91050391D01*
X138965722Y-91036810D01*
X138943223Y-91021777D01*
X138928189Y-90999277D01*
X138914608Y-90985696D01*
X138905827Y-90965810D01*
X138889030Y-90940671D01*
X138884359Y-90917189D01*
X138876787Y-90900040D01*
X138870964Y-90849849D01*
X138870000Y-90845000D01*
X138870000Y-89895000D01*
X138870964Y-89890150D01*
X138876787Y-89839959D01*
X138884359Y-89822808D01*
X138889030Y-89799329D01*
X138905826Y-89774191D01*
X138914608Y-89754303D01*
X138928191Y-89740719D01*
X138943223Y-89718223D01*
X138965719Y-89703191D01*
X138979303Y-89689608D01*
X138999191Y-89680826D01*
X139024329Y-89664030D01*
X139047808Y-89659359D01*
X139064959Y-89651787D01*
X139115151Y-89645964D01*
X139120000Y-89645000D01*
X139620000Y-89645000D01*
X139624850Y-89645964D01*
G37*
G36*
X135662640Y-90197351D02*
G01*
X135758724Y-90252825D01*
X135837175Y-90331276D01*
X135892649Y-90427360D01*
X135921364Y-90534526D01*
X135921364Y-90645474D01*
X135892649Y-90752640D01*
X135837175Y-90848724D01*
X135758724Y-90927175D01*
X135662640Y-90982649D01*
X135555474Y-91011364D01*
X135444526Y-91011364D01*
X135337360Y-90982649D01*
X135241276Y-90927175D01*
X135162825Y-90848724D01*
X135107351Y-90752640D01*
X135078636Y-90645474D01*
X135078636Y-90534526D01*
X135107351Y-90427360D01*
X135162825Y-90331276D01*
X135241276Y-90252825D01*
X135337360Y-90197351D01*
X135444526Y-90168636D01*
X135555474Y-90168636D01*
X135662640Y-90197351D01*
G37*
G36*
X163699850Y-89937464D02*
G01*
X163750040Y-89943287D01*
X163767189Y-89950859D01*
X163790671Y-89955530D01*
X163815810Y-89972327D01*
X163835696Y-89981108D01*
X163849277Y-89994689D01*
X163871777Y-90009723D01*
X163886810Y-90032222D01*
X163900391Y-90045803D01*
X163909170Y-90065686D01*
X163925970Y-90090829D01*
X163930641Y-90114312D01*
X163938212Y-90131459D01*
X163944033Y-90181639D01*
X163945000Y-90186500D01*
X163945000Y-90686500D01*
X163944032Y-90691363D01*
X163938212Y-90741540D01*
X163930641Y-90758685D01*
X163925970Y-90782171D01*
X163909169Y-90807315D01*
X163900391Y-90827196D01*
X163886812Y-90840774D01*
X163871777Y-90863277D01*
X163849274Y-90878312D01*
X163835696Y-90891891D01*
X163815815Y-90900669D01*
X163790671Y-90917470D01*
X163767185Y-90922141D01*
X163750040Y-90929712D01*
X163699861Y-90935532D01*
X163695000Y-90936500D01*
X162745000Y-90936500D01*
X162740138Y-90935532D01*
X162689959Y-90929712D01*
X162672812Y-90922141D01*
X162649329Y-90917470D01*
X162624186Y-90900670D01*
X162604303Y-90891891D01*
X162590722Y-90878310D01*
X162568223Y-90863277D01*
X162553189Y-90840777D01*
X162539608Y-90827196D01*
X162530827Y-90807310D01*
X162514030Y-90782171D01*
X162509359Y-90758689D01*
X162501787Y-90741540D01*
X162495964Y-90691349D01*
X162495000Y-90686500D01*
X162495000Y-90186500D01*
X162495964Y-90181650D01*
X162501787Y-90131459D01*
X162509359Y-90114308D01*
X162514030Y-90090829D01*
X162530826Y-90065691D01*
X162539608Y-90045803D01*
X162553191Y-90032219D01*
X162568223Y-90009723D01*
X162590719Y-89994691D01*
X162604303Y-89981108D01*
X162624191Y-89972326D01*
X162649329Y-89955530D01*
X162672808Y-89950859D01*
X162689959Y-89943287D01*
X162740151Y-89937464D01*
X162745000Y-89936500D01*
X163695000Y-89936500D01*
X163699850Y-89937464D01*
G37*
G36*
X169662640Y-90107351D02*
G01*
X169758724Y-90162825D01*
X169837175Y-90241276D01*
X169892649Y-90337360D01*
X169921364Y-90444526D01*
X169921364Y-90555474D01*
X169892649Y-90662640D01*
X169837175Y-90758724D01*
X169758724Y-90837175D01*
X169662640Y-90892649D01*
X169555474Y-90921364D01*
X169444526Y-90921364D01*
X169337360Y-90892649D01*
X169241276Y-90837175D01*
X169162825Y-90758724D01*
X169107351Y-90662640D01*
X169078636Y-90555474D01*
X169078636Y-90444526D01*
X169107351Y-90337360D01*
X169162825Y-90241276D01*
X169241276Y-90162825D01*
X169337360Y-90107351D01*
X169444526Y-90078636D01*
X169555474Y-90078636D01*
X169662640Y-90107351D01*
G37*
G36*
X152045412Y-89780276D02*
G01*
X152089209Y-89809541D01*
X152118474Y-89853338D01*
X152128750Y-89905000D01*
X152128750Y-90175000D01*
X152118474Y-90226662D01*
X152089209Y-90270459D01*
X152045412Y-90299724D01*
X151993750Y-90310000D01*
X151623750Y-90310000D01*
X151572088Y-90299724D01*
X151528291Y-90270459D01*
X151499026Y-90226662D01*
X151488750Y-90175000D01*
X151488750Y-89905000D01*
X151499026Y-89853338D01*
X151528291Y-89809541D01*
X151572088Y-89780276D01*
X151623750Y-89770000D01*
X151993750Y-89770000D01*
X152045412Y-89780276D01*
G37*
G36*
X153365412Y-89780276D02*
G01*
X153409209Y-89809541D01*
X153438474Y-89853338D01*
X153448750Y-89905000D01*
X153448750Y-90175000D01*
X153438474Y-90226662D01*
X153409209Y-90270459D01*
X153365412Y-90299724D01*
X153313750Y-90310000D01*
X152943750Y-90310000D01*
X152892088Y-90299724D01*
X152848291Y-90270459D01*
X152819026Y-90226662D01*
X152808750Y-90175000D01*
X152808750Y-89905000D01*
X152819026Y-89853338D01*
X152848291Y-89809541D01*
X152892088Y-89780276D01*
X152943750Y-89770000D01*
X153313750Y-89770000D01*
X153365412Y-89780276D01*
G37*
G36*
X146003576Y-89520657D02*
G01*
X146048995Y-89551005D01*
X146079343Y-89596424D01*
X146090000Y-89650000D01*
X146090000Y-89990000D01*
X146079343Y-90043576D01*
X146048995Y-90088995D01*
X146003576Y-90119343D01*
X145950000Y-90130000D01*
X145670000Y-90130000D01*
X145616424Y-90119343D01*
X145571005Y-90088995D01*
X145540657Y-90043576D01*
X145530000Y-89990000D01*
X145530000Y-89650000D01*
X145540657Y-89596424D01*
X145571005Y-89551005D01*
X145616424Y-89520657D01*
X145670000Y-89510000D01*
X145950000Y-89510000D01*
X146003576Y-89520657D01*
G37*
G36*
X146963576Y-89520657D02*
G01*
X147008995Y-89551005D01*
X147039343Y-89596424D01*
X147050000Y-89650000D01*
X147050000Y-89990000D01*
X147039343Y-90043576D01*
X147008995Y-90088995D01*
X146963576Y-90119343D01*
X146910000Y-90130000D01*
X146630000Y-90130000D01*
X146576424Y-90119343D01*
X146531005Y-90088995D01*
X146500657Y-90043576D01*
X146490000Y-89990000D01*
X146490000Y-89650000D01*
X146500657Y-89596424D01*
X146531005Y-89551005D01*
X146576424Y-89520657D01*
X146630000Y-89510000D01*
X146910000Y-89510000D01*
X146963576Y-89520657D01*
G37*
G36*
X135662640Y-89197351D02*
G01*
X135758724Y-89252825D01*
X135837175Y-89331276D01*
X135892649Y-89427360D01*
X135921364Y-89534526D01*
X135921364Y-89645474D01*
X135892649Y-89752640D01*
X135837175Y-89848724D01*
X135758724Y-89927175D01*
X135662640Y-89982649D01*
X135555474Y-90011364D01*
X135444526Y-90011364D01*
X135337360Y-89982649D01*
X135241276Y-89927175D01*
X135162825Y-89848724D01*
X135107351Y-89752640D01*
X135078636Y-89645474D01*
X135078636Y-89534526D01*
X135107351Y-89427360D01*
X135162825Y-89331276D01*
X135241276Y-89252825D01*
X135337360Y-89197351D01*
X135444526Y-89168636D01*
X135555474Y-89168636D01*
X135662640Y-89197351D01*
G37*
G36*
X169662640Y-89107351D02*
G01*
X169758724Y-89162825D01*
X169837175Y-89241276D01*
X169892649Y-89337360D01*
X169921364Y-89444526D01*
X169921364Y-89555474D01*
X169892649Y-89662640D01*
X169837175Y-89758724D01*
X169758724Y-89837175D01*
X169662640Y-89892649D01*
X169555474Y-89921364D01*
X169444526Y-89921364D01*
X169337360Y-89892649D01*
X169241276Y-89837175D01*
X169162825Y-89758724D01*
X169107351Y-89662640D01*
X169078636Y-89555474D01*
X169078636Y-89444526D01*
X169107351Y-89337360D01*
X169162825Y-89241276D01*
X169241276Y-89162825D01*
X169337360Y-89107351D01*
X169444526Y-89078636D01*
X169555474Y-89078636D01*
X169662640Y-89107351D01*
G37*
G36*
X155465412Y-88790276D02*
G01*
X155509209Y-88819541D01*
X155538474Y-88863338D01*
X155548750Y-88915000D01*
X155548750Y-89285000D01*
X155538474Y-89336662D01*
X155509209Y-89380459D01*
X155465412Y-89409724D01*
X155413750Y-89420000D01*
X155143750Y-89420000D01*
X155092088Y-89409724D01*
X155048291Y-89380459D01*
X155019026Y-89336662D01*
X155008750Y-89285000D01*
X155008750Y-88915000D01*
X155019026Y-88863338D01*
X155048291Y-88819541D01*
X155092088Y-88790276D01*
X155143750Y-88780000D01*
X155413750Y-88780000D01*
X155465412Y-88790276D01*
G37*
G36*
X156485412Y-88790276D02*
G01*
X156529209Y-88819541D01*
X156558474Y-88863338D01*
X156568750Y-88915000D01*
X156568750Y-89285000D01*
X156558474Y-89336662D01*
X156529209Y-89380459D01*
X156485412Y-89409724D01*
X156433750Y-89420000D01*
X156163750Y-89420000D01*
X156112088Y-89409724D01*
X156068291Y-89380459D01*
X156039026Y-89336662D01*
X156028750Y-89285000D01*
X156028750Y-88915000D01*
X156039026Y-88863338D01*
X156068291Y-88819541D01*
X156112088Y-88790276D01*
X156163750Y-88780000D01*
X156433750Y-88780000D01*
X156485412Y-88790276D01*
G37*
G36*
X163146662Y-88576776D02*
G01*
X163190459Y-88606041D01*
X163219724Y-88649838D01*
X163230000Y-88701500D01*
X163230000Y-89071500D01*
X163219724Y-89123162D01*
X163190459Y-89166959D01*
X163146662Y-89196224D01*
X163095000Y-89206500D01*
X162825000Y-89206500D01*
X162773338Y-89196224D01*
X162729541Y-89166959D01*
X162700276Y-89123162D01*
X162690000Y-89071500D01*
X162690000Y-88701500D01*
X162700276Y-88649838D01*
X162729541Y-88606041D01*
X162773338Y-88576776D01*
X162825000Y-88566500D01*
X163095000Y-88566500D01*
X163146662Y-88576776D01*
G37*
G36*
X164166662Y-88576776D02*
G01*
X164210459Y-88606041D01*
X164239724Y-88649838D01*
X164250000Y-88701500D01*
X164250000Y-89071500D01*
X164239724Y-89123162D01*
X164210459Y-89166959D01*
X164166662Y-89196224D01*
X164115000Y-89206500D01*
X163845000Y-89206500D01*
X163793338Y-89196224D01*
X163749541Y-89166959D01*
X163720276Y-89123162D01*
X163710000Y-89071500D01*
X163710000Y-88701500D01*
X163720276Y-88649838D01*
X163749541Y-88606041D01*
X163793338Y-88576776D01*
X163845000Y-88566500D01*
X164115000Y-88566500D01*
X164166662Y-88576776D01*
G37*
G36*
X135662640Y-88197351D02*
G01*
X135758724Y-88252825D01*
X135837175Y-88331276D01*
X135892649Y-88427360D01*
X135921364Y-88534526D01*
X135921364Y-88645474D01*
X135892649Y-88752640D01*
X135837175Y-88848724D01*
X135758724Y-88927175D01*
X135662640Y-88982649D01*
X135555474Y-89011364D01*
X135444526Y-89011364D01*
X135337360Y-88982649D01*
X135241276Y-88927175D01*
X135162825Y-88848724D01*
X135107351Y-88752640D01*
X135078636Y-88645474D01*
X135078636Y-88534526D01*
X135107351Y-88427360D01*
X135162825Y-88331276D01*
X135241276Y-88252825D01*
X135337360Y-88197351D01*
X135444526Y-88168636D01*
X135555474Y-88168636D01*
X135662640Y-88197351D01*
G37*
G36*
X169662640Y-88107351D02*
G01*
X169758724Y-88162825D01*
X169837175Y-88241276D01*
X169892649Y-88337360D01*
X169921364Y-88444526D01*
X169921364Y-88555474D01*
X169892649Y-88662640D01*
X169837175Y-88758724D01*
X169758724Y-88837175D01*
X169662640Y-88892649D01*
X169555474Y-88921364D01*
X169444526Y-88921364D01*
X169337360Y-88892649D01*
X169241276Y-88837175D01*
X169162825Y-88758724D01*
X169107351Y-88662640D01*
X169078636Y-88555474D01*
X169078636Y-88444526D01*
X169107351Y-88337360D01*
X169162825Y-88241276D01*
X169241276Y-88162825D01*
X169337360Y-88107351D01*
X169444526Y-88078636D01*
X169555474Y-88078636D01*
X169662640Y-88107351D01*
G37*
G36*
X149602641Y-88216881D02*
G01*
X149634369Y-88248609D01*
X149651540Y-88290065D01*
X149653750Y-88312500D01*
X149653750Y-88747500D01*
X149651540Y-88769935D01*
X149634369Y-88811391D01*
X149602641Y-88843119D01*
X149561185Y-88860290D01*
X149516315Y-88860290D01*
X149474859Y-88843119D01*
X149443131Y-88811391D01*
X149425960Y-88769935D01*
X149423750Y-88747500D01*
X149423750Y-88312500D01*
X149425960Y-88290065D01*
X149443131Y-88248609D01*
X149474859Y-88216881D01*
X149516315Y-88199710D01*
X149561185Y-88199710D01*
X149602641Y-88216881D01*
G37*
G36*
X150052641Y-88216881D02*
G01*
X150084369Y-88248609D01*
X150101540Y-88290065D01*
X150103750Y-88312500D01*
X150103750Y-88747500D01*
X150101540Y-88769935D01*
X150084369Y-88811391D01*
X150052641Y-88843119D01*
X150011185Y-88860290D01*
X149966315Y-88860290D01*
X149924859Y-88843119D01*
X149893131Y-88811391D01*
X149875960Y-88769935D01*
X149873750Y-88747500D01*
X149873750Y-88312500D01*
X149875960Y-88290065D01*
X149893131Y-88248609D01*
X149924859Y-88216881D01*
X149966315Y-88199710D01*
X150011185Y-88199710D01*
X150052641Y-88216881D01*
G37*
G36*
X150502641Y-88216881D02*
G01*
X150534369Y-88248609D01*
X150551540Y-88290065D01*
X150553750Y-88312500D01*
X150553750Y-88747500D01*
X150551540Y-88769935D01*
X150534369Y-88811391D01*
X150502641Y-88843119D01*
X150461185Y-88860290D01*
X150416315Y-88860290D01*
X150374859Y-88843119D01*
X150343131Y-88811391D01*
X150325960Y-88769935D01*
X150323750Y-88747500D01*
X150323750Y-88312500D01*
X150325960Y-88290065D01*
X150343131Y-88248609D01*
X150374859Y-88216881D01*
X150416315Y-88199710D01*
X150461185Y-88199710D01*
X150502641Y-88216881D01*
G37*
G36*
X150952641Y-88216881D02*
G01*
X150984369Y-88248609D01*
X151001540Y-88290065D01*
X151003750Y-88312500D01*
X151003750Y-88747500D01*
X151001540Y-88769935D01*
X150984369Y-88811391D01*
X150952641Y-88843119D01*
X150911185Y-88860290D01*
X150866315Y-88860290D01*
X150824859Y-88843119D01*
X150793131Y-88811391D01*
X150775960Y-88769935D01*
X150773750Y-88747500D01*
X150773750Y-88312500D01*
X150775960Y-88290065D01*
X150793131Y-88248609D01*
X150824859Y-88216881D01*
X150866315Y-88199710D01*
X150911185Y-88199710D01*
X150952641Y-88216881D01*
G37*
G36*
X151402641Y-88216881D02*
G01*
X151434369Y-88248609D01*
X151451540Y-88290065D01*
X151453750Y-88312500D01*
X151453750Y-88747500D01*
X151451540Y-88769935D01*
X151434369Y-88811391D01*
X151402641Y-88843119D01*
X151361185Y-88860290D01*
X151316315Y-88860290D01*
X151274859Y-88843119D01*
X151243131Y-88811391D01*
X151225960Y-88769935D01*
X151223750Y-88747500D01*
X151223750Y-88312500D01*
X151225960Y-88290065D01*
X151243131Y-88248609D01*
X151274859Y-88216881D01*
X151316315Y-88199710D01*
X151361185Y-88199710D01*
X151402641Y-88216881D01*
G37*
G36*
X151852641Y-88216881D02*
G01*
X151884369Y-88248609D01*
X151901540Y-88290065D01*
X151903750Y-88312500D01*
X151903750Y-88747500D01*
X151901540Y-88769935D01*
X151884369Y-88811391D01*
X151852641Y-88843119D01*
X151811185Y-88860290D01*
X151766315Y-88860290D01*
X151724859Y-88843119D01*
X151693131Y-88811391D01*
X151675960Y-88769935D01*
X151673750Y-88747500D01*
X151673750Y-88312500D01*
X151675960Y-88290065D01*
X151693131Y-88248609D01*
X151724859Y-88216881D01*
X151766315Y-88199710D01*
X151811185Y-88199710D01*
X151852641Y-88216881D01*
G37*
G36*
X152302641Y-88216881D02*
G01*
X152334369Y-88248609D01*
X152351540Y-88290065D01*
X152353750Y-88312500D01*
X152353750Y-88747500D01*
X152351540Y-88769935D01*
X152334369Y-88811391D01*
X152302641Y-88843119D01*
X152261185Y-88860290D01*
X152216315Y-88860290D01*
X152174859Y-88843119D01*
X152143131Y-88811391D01*
X152125960Y-88769935D01*
X152123750Y-88747500D01*
X152123750Y-88312500D01*
X152125960Y-88290065D01*
X152143131Y-88248609D01*
X152174859Y-88216881D01*
X152216315Y-88199710D01*
X152261185Y-88199710D01*
X152302641Y-88216881D01*
G37*
G36*
X145174850Y-87879964D02*
G01*
X145219317Y-87885123D01*
X145234510Y-87891831D01*
X145256104Y-87896127D01*
X145279222Y-87911574D01*
X145296567Y-87919233D01*
X145308412Y-87931078D01*
X145329099Y-87944901D01*
X145342921Y-87965587D01*
X145354766Y-87977432D01*
X145362423Y-87994774D01*
X145377873Y-88017896D01*
X145382168Y-88039491D01*
X145388876Y-88054682D01*
X145394033Y-88099139D01*
X145395000Y-88104000D01*
X145395000Y-88604000D01*
X145394032Y-88608862D01*
X145388876Y-88653317D01*
X145382168Y-88668506D01*
X145377873Y-88690104D01*
X145362422Y-88713227D01*
X145354766Y-88730567D01*
X145342923Y-88742409D01*
X145329099Y-88763099D01*
X145308409Y-88776923D01*
X145296567Y-88788766D01*
X145279227Y-88796422D01*
X145256104Y-88811873D01*
X145234506Y-88816168D01*
X145219317Y-88822876D01*
X145174861Y-88828032D01*
X145170000Y-88829000D01*
X144720000Y-88829000D01*
X144715138Y-88828033D01*
X144670682Y-88822876D01*
X144655491Y-88816168D01*
X144633896Y-88811873D01*
X144610774Y-88796423D01*
X144593432Y-88788766D01*
X144581587Y-88776921D01*
X144560901Y-88763099D01*
X144547078Y-88742412D01*
X144535233Y-88730567D01*
X144527574Y-88713222D01*
X144512127Y-88690104D01*
X144507831Y-88668510D01*
X144501123Y-88653317D01*
X144495964Y-88608849D01*
X144495000Y-88604000D01*
X144495000Y-88104000D01*
X144495964Y-88099150D01*
X144501123Y-88054682D01*
X144507832Y-88039487D01*
X144512127Y-88017896D01*
X144527573Y-87994779D01*
X144535233Y-87977432D01*
X144547080Y-87965584D01*
X144560901Y-87944901D01*
X144581584Y-87931080D01*
X144593432Y-87919233D01*
X144610779Y-87911573D01*
X144633896Y-87896127D01*
X144655487Y-87891832D01*
X144670682Y-87885123D01*
X144715151Y-87879964D01*
X144720000Y-87879000D01*
X145170000Y-87879000D01*
X145174850Y-87879964D01*
G37*
G36*
X146724850Y-87879964D02*
G01*
X146769317Y-87885123D01*
X146784510Y-87891831D01*
X146806104Y-87896127D01*
X146829222Y-87911574D01*
X146846567Y-87919233D01*
X146858412Y-87931078D01*
X146879099Y-87944901D01*
X146892921Y-87965587D01*
X146904766Y-87977432D01*
X146912423Y-87994774D01*
X146927873Y-88017896D01*
X146932168Y-88039491D01*
X146938876Y-88054682D01*
X146944033Y-88099139D01*
X146945000Y-88104000D01*
X146945000Y-88604000D01*
X146944032Y-88608862D01*
X146938876Y-88653317D01*
X146932168Y-88668506D01*
X146927873Y-88690104D01*
X146912422Y-88713227D01*
X146904766Y-88730567D01*
X146892923Y-88742409D01*
X146879099Y-88763099D01*
X146858409Y-88776923D01*
X146846567Y-88788766D01*
X146829227Y-88796422D01*
X146806104Y-88811873D01*
X146784506Y-88816168D01*
X146769317Y-88822876D01*
X146724861Y-88828032D01*
X146720000Y-88829000D01*
X146270000Y-88829000D01*
X146265138Y-88828033D01*
X146220682Y-88822876D01*
X146205491Y-88816168D01*
X146183896Y-88811873D01*
X146160774Y-88796423D01*
X146143432Y-88788766D01*
X146131587Y-88776921D01*
X146110901Y-88763099D01*
X146097078Y-88742412D01*
X146085233Y-88730567D01*
X146077574Y-88713222D01*
X146062127Y-88690104D01*
X146057831Y-88668510D01*
X146051123Y-88653317D01*
X146045964Y-88608849D01*
X146045000Y-88604000D01*
X146045000Y-88104000D01*
X146045964Y-88099150D01*
X146051123Y-88054682D01*
X146057832Y-88039487D01*
X146062127Y-88017896D01*
X146077573Y-87994779D01*
X146085233Y-87977432D01*
X146097080Y-87965584D01*
X146110901Y-87944901D01*
X146131584Y-87931080D01*
X146143432Y-87919233D01*
X146160779Y-87911573D01*
X146183896Y-87896127D01*
X146205487Y-87891832D01*
X146220682Y-87885123D01*
X146265151Y-87879964D01*
X146270000Y-87879000D01*
X146720000Y-87879000D01*
X146724850Y-87879964D01*
G37*
G36*
X137787403Y-87253918D02*
G01*
X137836066Y-87286434D01*
X137868582Y-87335097D01*
X137880000Y-87392500D01*
X137880000Y-88417500D01*
X137868582Y-88474903D01*
X137836066Y-88523566D01*
X137787403Y-88556082D01*
X137730000Y-88567500D01*
X137430000Y-88567500D01*
X137372597Y-88556082D01*
X137323934Y-88523566D01*
X137291418Y-88474903D01*
X137280000Y-88417500D01*
X137280000Y-87392500D01*
X137291418Y-87335097D01*
X137323934Y-87286434D01*
X137372597Y-87253918D01*
X137430000Y-87242500D01*
X137730000Y-87242500D01*
X137787403Y-87253918D01*
G37*
G36*
X138737403Y-87253918D02*
G01*
X138786066Y-87286434D01*
X138818582Y-87335097D01*
X138830000Y-87392500D01*
X138830000Y-88417500D01*
X138818582Y-88474903D01*
X138786066Y-88523566D01*
X138737403Y-88556082D01*
X138680000Y-88567500D01*
X138380000Y-88567500D01*
X138322597Y-88556082D01*
X138273934Y-88523566D01*
X138241418Y-88474903D01*
X138230000Y-88417500D01*
X138230000Y-87392500D01*
X138241418Y-87335097D01*
X138273934Y-87286434D01*
X138322597Y-87253918D01*
X138380000Y-87242500D01*
X138680000Y-87242500D01*
X138737403Y-87253918D01*
G37*
G36*
X139687403Y-87253918D02*
G01*
X139736066Y-87286434D01*
X139768582Y-87335097D01*
X139780000Y-87392500D01*
X139780000Y-88417500D01*
X139768582Y-88474903D01*
X139736066Y-88523566D01*
X139687403Y-88556082D01*
X139630000Y-88567500D01*
X139330000Y-88567500D01*
X139272597Y-88556082D01*
X139223934Y-88523566D01*
X139191418Y-88474903D01*
X139180000Y-88417500D01*
X139180000Y-87392500D01*
X139191418Y-87335097D01*
X139223934Y-87286434D01*
X139272597Y-87253918D01*
X139330000Y-87242500D01*
X139630000Y-87242500D01*
X139687403Y-87253918D01*
G37*
G36*
X155482326Y-87673157D02*
G01*
X155527745Y-87703505D01*
X155558093Y-87748924D01*
X155568750Y-87802500D01*
X155568750Y-88142500D01*
X155558093Y-88196076D01*
X155527745Y-88241495D01*
X155482326Y-88271843D01*
X155428750Y-88282500D01*
X155148750Y-88282500D01*
X155095174Y-88271843D01*
X155049755Y-88241495D01*
X155019407Y-88196076D01*
X155008750Y-88142500D01*
X155008750Y-87802500D01*
X155019407Y-87748924D01*
X155049755Y-87703505D01*
X155095174Y-87673157D01*
X155148750Y-87662500D01*
X155428750Y-87662500D01*
X155482326Y-87673157D01*
G37*
G36*
X156442326Y-87673157D02*
G01*
X156487745Y-87703505D01*
X156518093Y-87748924D01*
X156528750Y-87802500D01*
X156528750Y-88142500D01*
X156518093Y-88196076D01*
X156487745Y-88241495D01*
X156442326Y-88271843D01*
X156388750Y-88282500D01*
X156108750Y-88282500D01*
X156055174Y-88271843D01*
X156009755Y-88241495D01*
X155979407Y-88196076D01*
X155968750Y-88142500D01*
X155968750Y-87802500D01*
X155979407Y-87748924D01*
X156009755Y-87703505D01*
X156055174Y-87673157D01*
X156108750Y-87662500D01*
X156388750Y-87662500D01*
X156442326Y-87673157D01*
G37*
G36*
X163146662Y-87576776D02*
G01*
X163190459Y-87606041D01*
X163219724Y-87649838D01*
X163230000Y-87701500D01*
X163230000Y-88071500D01*
X163219724Y-88123162D01*
X163190459Y-88166959D01*
X163146662Y-88196224D01*
X163095000Y-88206500D01*
X162825000Y-88206500D01*
X162773338Y-88196224D01*
X162729541Y-88166959D01*
X162700276Y-88123162D01*
X162690000Y-88071500D01*
X162690000Y-87701500D01*
X162700276Y-87649838D01*
X162729541Y-87606041D01*
X162773338Y-87576776D01*
X162825000Y-87566500D01*
X163095000Y-87566500D01*
X163146662Y-87576776D01*
G37*
G36*
X164166662Y-87576776D02*
G01*
X164210459Y-87606041D01*
X164239724Y-87649838D01*
X164250000Y-87701500D01*
X164250000Y-88071500D01*
X164239724Y-88123162D01*
X164210459Y-88166959D01*
X164166662Y-88196224D01*
X164115000Y-88206500D01*
X163845000Y-88206500D01*
X163793338Y-88196224D01*
X163749541Y-88166959D01*
X163720276Y-88123162D01*
X163710000Y-88071500D01*
X163710000Y-87701500D01*
X163720276Y-87649838D01*
X163749541Y-87606041D01*
X163793338Y-87576776D01*
X163845000Y-87566500D01*
X164115000Y-87566500D01*
X164166662Y-87576776D01*
G37*
G36*
X149198685Y-87837210D02*
G01*
X149240141Y-87854381D01*
X149271869Y-87886109D01*
X149289040Y-87927565D01*
X149289040Y-87972435D01*
X149271869Y-88013891D01*
X149240141Y-88045619D01*
X149198685Y-88062790D01*
X149176250Y-88065000D01*
X149173302Y-88065000D01*
X148744198Y-88065000D01*
X148741250Y-88065000D01*
X148718815Y-88062790D01*
X148677359Y-88045619D01*
X148645631Y-88013891D01*
X148628460Y-87972435D01*
X148628460Y-87927565D01*
X148645631Y-87886109D01*
X148677359Y-87854381D01*
X148718815Y-87837210D01*
X148741250Y-87835000D01*
X149176250Y-87835000D01*
X149198685Y-87837210D01*
G37*
G36*
X153058685Y-87837210D02*
G01*
X153100141Y-87854381D01*
X153131869Y-87886109D01*
X153149040Y-87927565D01*
X153149040Y-87972435D01*
X153131869Y-88013891D01*
X153100141Y-88045619D01*
X153058685Y-88062790D01*
X153036250Y-88065000D01*
X153033302Y-88065000D01*
X152604198Y-88065000D01*
X152601250Y-88065000D01*
X152578815Y-88062790D01*
X152537359Y-88045619D01*
X152505631Y-88013891D01*
X152488460Y-87972435D01*
X152488460Y-87927565D01*
X152505631Y-87886109D01*
X152537359Y-87854381D01*
X152578815Y-87837210D01*
X152601250Y-87835000D01*
X153036250Y-87835000D01*
X153058685Y-87837210D01*
G37*
G36*
X135662640Y-87197351D02*
G01*
X135758724Y-87252825D01*
X135837175Y-87331276D01*
X135892649Y-87427360D01*
X135921364Y-87534526D01*
X135921364Y-87645474D01*
X135892649Y-87752640D01*
X135837175Y-87848724D01*
X135758724Y-87927175D01*
X135662640Y-87982649D01*
X135555474Y-88011364D01*
X135444526Y-88011364D01*
X135337360Y-87982649D01*
X135241276Y-87927175D01*
X135162825Y-87848724D01*
X135107351Y-87752640D01*
X135078636Y-87645474D01*
X135078636Y-87534526D01*
X135107351Y-87427360D01*
X135162825Y-87331276D01*
X135241276Y-87252825D01*
X135337360Y-87197351D01*
X135444526Y-87168636D01*
X135555474Y-87168636D01*
X135662640Y-87197351D01*
G37*
G36*
X167220000Y-87991500D02*
G01*
X165360000Y-87991500D01*
X165360000Y-86761500D01*
X167220000Y-86761500D01*
X167220000Y-87991500D01*
G37*
G36*
X169662640Y-87107351D02*
G01*
X169758724Y-87162825D01*
X169837175Y-87241276D01*
X169892649Y-87337360D01*
X169921364Y-87444526D01*
X169921364Y-87555474D01*
X169892649Y-87662640D01*
X169837175Y-87758724D01*
X169758724Y-87837175D01*
X169662640Y-87892649D01*
X169555474Y-87921364D01*
X169444526Y-87921364D01*
X169337360Y-87892649D01*
X169241276Y-87837175D01*
X169162825Y-87758724D01*
X169107351Y-87662640D01*
X169078636Y-87555474D01*
X169078636Y-87444526D01*
X169107351Y-87337360D01*
X169162825Y-87241276D01*
X169241276Y-87162825D01*
X169337360Y-87107351D01*
X169444526Y-87078636D01*
X169555474Y-87078636D01*
X169662640Y-87107351D01*
G37*
G36*
X152088750Y-87800000D02*
G01*
X149688750Y-87800000D01*
X149688750Y-85400000D01*
X152088750Y-85400000D01*
X152088750Y-87800000D01*
G37*
G36*
X149198685Y-87387210D02*
G01*
X149240141Y-87404381D01*
X149271869Y-87436109D01*
X149289040Y-87477565D01*
X149289040Y-87522435D01*
X149271869Y-87563891D01*
X149240141Y-87595619D01*
X149198685Y-87612790D01*
X149176250Y-87615000D01*
X149173302Y-87615000D01*
X148744198Y-87615000D01*
X148741250Y-87615000D01*
X148718815Y-87612790D01*
X148677359Y-87595619D01*
X148645631Y-87563891D01*
X148628460Y-87522435D01*
X148628460Y-87477565D01*
X148645631Y-87436109D01*
X148677359Y-87404381D01*
X148718815Y-87387210D01*
X148741250Y-87385000D01*
X149176250Y-87385000D01*
X149198685Y-87387210D01*
G37*
G36*
X153058685Y-87387210D02*
G01*
X153100141Y-87404381D01*
X153131869Y-87436109D01*
X153149040Y-87477565D01*
X153149040Y-87522435D01*
X153131869Y-87563891D01*
X153100141Y-87595619D01*
X153058685Y-87612790D01*
X153036250Y-87615000D01*
X153033302Y-87615000D01*
X152604198Y-87615000D01*
X152601250Y-87615000D01*
X152578815Y-87612790D01*
X152537359Y-87595619D01*
X152505631Y-87563891D01*
X152488460Y-87522435D01*
X152488460Y-87477565D01*
X152505631Y-87436109D01*
X152537359Y-87404381D01*
X152578815Y-87387210D01*
X152601250Y-87385000D01*
X153036250Y-87385000D01*
X153058685Y-87387210D01*
G37*
G36*
X145988576Y-86670657D02*
G01*
X146033995Y-86701005D01*
X146064343Y-86746424D01*
X146075000Y-86800000D01*
X146075000Y-87140000D01*
X146064343Y-87193576D01*
X146033995Y-87238995D01*
X145988576Y-87269343D01*
X145935000Y-87280000D01*
X145655000Y-87280000D01*
X145601424Y-87269343D01*
X145556005Y-87238995D01*
X145525657Y-87193576D01*
X145515000Y-87140000D01*
X145515000Y-86800000D01*
X145525657Y-86746424D01*
X145556005Y-86701005D01*
X145601424Y-86670657D01*
X145655000Y-86660000D01*
X145935000Y-86660000D01*
X145988576Y-86670657D01*
G37*
G36*
X146948576Y-86670657D02*
G01*
X146993995Y-86701005D01*
X147024343Y-86746424D01*
X147035000Y-86800000D01*
X147035000Y-87140000D01*
X147024343Y-87193576D01*
X146993995Y-87238995D01*
X146948576Y-87269343D01*
X146895000Y-87280000D01*
X146615000Y-87280000D01*
X146561424Y-87269343D01*
X146516005Y-87238995D01*
X146485657Y-87193576D01*
X146475000Y-87140000D01*
X146475000Y-86800000D01*
X146485657Y-86746424D01*
X146516005Y-86701005D01*
X146561424Y-86670657D01*
X146615000Y-86660000D01*
X146895000Y-86660000D01*
X146948576Y-86670657D01*
G37*
G36*
X149198685Y-86937210D02*
G01*
X149240141Y-86954381D01*
X149271869Y-86986109D01*
X149289040Y-87027565D01*
X149289040Y-87072435D01*
X149271869Y-87113891D01*
X149240141Y-87145619D01*
X149198685Y-87162790D01*
X149176250Y-87165000D01*
X149173302Y-87165000D01*
X148744198Y-87165000D01*
X148741250Y-87165000D01*
X148718815Y-87162790D01*
X148677359Y-87145619D01*
X148645631Y-87113891D01*
X148628460Y-87072435D01*
X148628460Y-87027565D01*
X148645631Y-86986109D01*
X148677359Y-86954381D01*
X148718815Y-86937210D01*
X148741250Y-86935000D01*
X149176250Y-86935000D01*
X149198685Y-86937210D01*
G37*
G36*
X153058685Y-86937210D02*
G01*
X153100141Y-86954381D01*
X153131869Y-86986109D01*
X153149040Y-87027565D01*
X153149040Y-87072435D01*
X153131869Y-87113891D01*
X153100141Y-87145619D01*
X153058685Y-87162790D01*
X153036250Y-87165000D01*
X153033302Y-87165000D01*
X152604198Y-87165000D01*
X152601250Y-87165000D01*
X152578815Y-87162790D01*
X152537359Y-87145619D01*
X152505631Y-87113891D01*
X152488460Y-87072435D01*
X152488460Y-87027565D01*
X152505631Y-86986109D01*
X152537359Y-86954381D01*
X152578815Y-86937210D01*
X152601250Y-86935000D01*
X153036250Y-86935000D01*
X153058685Y-86937210D01*
G37*
G36*
X155793600Y-86110964D02*
G01*
X155838067Y-86116123D01*
X155853260Y-86122831D01*
X155874854Y-86127127D01*
X155897972Y-86142574D01*
X155915317Y-86150233D01*
X155927162Y-86162078D01*
X155947849Y-86175901D01*
X155961671Y-86196587D01*
X155973516Y-86208432D01*
X155981173Y-86225774D01*
X155996623Y-86248896D01*
X156000918Y-86270491D01*
X156007626Y-86285682D01*
X156012783Y-86330139D01*
X156013750Y-86335000D01*
X156013750Y-86835000D01*
X156012782Y-86839862D01*
X156007626Y-86884317D01*
X156000918Y-86899506D01*
X155996623Y-86921104D01*
X155981172Y-86944227D01*
X155973516Y-86961567D01*
X155961673Y-86973409D01*
X155947849Y-86994099D01*
X155927159Y-87007923D01*
X155915317Y-87019766D01*
X155897977Y-87027422D01*
X155874854Y-87042873D01*
X155853256Y-87047168D01*
X155838067Y-87053876D01*
X155793611Y-87059032D01*
X155788750Y-87060000D01*
X155338750Y-87060000D01*
X155333888Y-87059033D01*
X155289432Y-87053876D01*
X155274241Y-87047168D01*
X155252646Y-87042873D01*
X155229524Y-87027423D01*
X155212182Y-87019766D01*
X155200337Y-87007921D01*
X155179651Y-86994099D01*
X155165828Y-86973412D01*
X155153983Y-86961567D01*
X155146324Y-86944222D01*
X155130877Y-86921104D01*
X155126581Y-86899510D01*
X155119873Y-86884317D01*
X155114714Y-86839849D01*
X155113750Y-86835000D01*
X155113750Y-86335000D01*
X155114714Y-86330150D01*
X155119873Y-86285682D01*
X155126582Y-86270487D01*
X155130877Y-86248896D01*
X155146323Y-86225779D01*
X155153983Y-86208432D01*
X155165830Y-86196584D01*
X155179651Y-86175901D01*
X155200334Y-86162080D01*
X155212182Y-86150233D01*
X155229529Y-86142573D01*
X155252646Y-86127127D01*
X155274237Y-86122832D01*
X155289432Y-86116123D01*
X155333901Y-86110964D01*
X155338750Y-86110000D01*
X155788750Y-86110000D01*
X155793600Y-86110964D01*
G37*
G36*
X157343600Y-86110964D02*
G01*
X157388067Y-86116123D01*
X157403260Y-86122831D01*
X157424854Y-86127127D01*
X157447972Y-86142574D01*
X157465317Y-86150233D01*
X157477162Y-86162078D01*
X157497849Y-86175901D01*
X157511671Y-86196587D01*
X157523516Y-86208432D01*
X157531173Y-86225774D01*
X157546623Y-86248896D01*
X157550918Y-86270491D01*
X157557626Y-86285682D01*
X157562783Y-86330139D01*
X157563750Y-86335000D01*
X157563750Y-86835000D01*
X157562782Y-86839862D01*
X157557626Y-86884317D01*
X157550918Y-86899506D01*
X157546623Y-86921104D01*
X157531172Y-86944227D01*
X157523516Y-86961567D01*
X157511673Y-86973409D01*
X157497849Y-86994099D01*
X157477159Y-87007923D01*
X157465317Y-87019766D01*
X157447977Y-87027422D01*
X157424854Y-87042873D01*
X157403256Y-87047168D01*
X157388067Y-87053876D01*
X157343611Y-87059032D01*
X157338750Y-87060000D01*
X156888750Y-87060000D01*
X156883888Y-87059033D01*
X156839432Y-87053876D01*
X156824241Y-87047168D01*
X156802646Y-87042873D01*
X156779524Y-87027423D01*
X156762182Y-87019766D01*
X156750337Y-87007921D01*
X156729651Y-86994099D01*
X156715828Y-86973412D01*
X156703983Y-86961567D01*
X156696324Y-86944222D01*
X156680877Y-86921104D01*
X156676581Y-86899510D01*
X156669873Y-86884317D01*
X156664714Y-86839849D01*
X156663750Y-86835000D01*
X156663750Y-86335000D01*
X156664714Y-86330150D01*
X156669873Y-86285682D01*
X156676582Y-86270487D01*
X156680877Y-86248896D01*
X156696323Y-86225779D01*
X156703983Y-86208432D01*
X156715830Y-86196584D01*
X156729651Y-86175901D01*
X156750334Y-86162080D01*
X156762182Y-86150233D01*
X156779529Y-86142573D01*
X156802646Y-86127127D01*
X156824237Y-86122832D01*
X156839432Y-86116123D01*
X156883901Y-86110964D01*
X156888750Y-86110000D01*
X157338750Y-86110000D01*
X157343600Y-86110964D01*
G37*
G36*
X135662640Y-86197351D02*
G01*
X135758724Y-86252825D01*
X135837175Y-86331276D01*
X135892649Y-86427360D01*
X135921364Y-86534526D01*
X135921364Y-86645474D01*
X135892649Y-86752640D01*
X135837175Y-86848724D01*
X135758724Y-86927175D01*
X135662640Y-86982649D01*
X135555474Y-87011364D01*
X135444526Y-87011364D01*
X135337360Y-86982649D01*
X135241276Y-86927175D01*
X135162825Y-86848724D01*
X135107351Y-86752640D01*
X135078636Y-86645474D01*
X135078636Y-86534526D01*
X135107351Y-86427360D01*
X135162825Y-86331276D01*
X135241276Y-86252825D01*
X135337360Y-86197351D01*
X135444526Y-86168636D01*
X135555474Y-86168636D01*
X135662640Y-86197351D01*
G37*
G36*
X169662640Y-86107351D02*
G01*
X169758724Y-86162825D01*
X169837175Y-86241276D01*
X169892649Y-86337360D01*
X169921364Y-86444526D01*
X169921364Y-86555474D01*
X169892649Y-86662640D01*
X169837175Y-86758724D01*
X169758724Y-86837175D01*
X169662640Y-86892649D01*
X169555474Y-86921364D01*
X169444526Y-86921364D01*
X169337360Y-86892649D01*
X169241276Y-86837175D01*
X169162825Y-86758724D01*
X169107351Y-86662640D01*
X169078636Y-86555474D01*
X169078636Y-86444526D01*
X169107351Y-86337360D01*
X169162825Y-86241276D01*
X169241276Y-86162825D01*
X169337360Y-86107351D01*
X169444526Y-86078636D01*
X169555474Y-86078636D01*
X169662640Y-86107351D01*
G37*
G36*
X149198685Y-86487210D02*
G01*
X149240141Y-86504381D01*
X149271869Y-86536109D01*
X149289040Y-86577565D01*
X149289040Y-86622435D01*
X149271869Y-86663891D01*
X149240141Y-86695619D01*
X149198685Y-86712790D01*
X149176250Y-86715000D01*
X149173302Y-86715000D01*
X148744198Y-86715000D01*
X148741250Y-86715000D01*
X148718815Y-86712790D01*
X148677359Y-86695619D01*
X148645631Y-86663891D01*
X148628460Y-86622435D01*
X148628460Y-86577565D01*
X148645631Y-86536109D01*
X148677359Y-86504381D01*
X148718815Y-86487210D01*
X148741250Y-86485000D01*
X149176250Y-86485000D01*
X149198685Y-86487210D01*
G37*
G36*
X153058685Y-86487210D02*
G01*
X153100141Y-86504381D01*
X153131869Y-86536109D01*
X153149040Y-86577565D01*
X153149040Y-86622435D01*
X153131869Y-86663891D01*
X153100141Y-86695619D01*
X153058685Y-86712790D01*
X153036250Y-86715000D01*
X153033302Y-86715000D01*
X152604198Y-86715000D01*
X152601250Y-86715000D01*
X152578815Y-86712790D01*
X152537359Y-86695619D01*
X152505631Y-86663891D01*
X152488460Y-86622435D01*
X152488460Y-86577565D01*
X152505631Y-86536109D01*
X152537359Y-86504381D01*
X152578815Y-86487210D01*
X152601250Y-86485000D01*
X153036250Y-86485000D01*
X153058685Y-86487210D01*
G37*
G36*
X137787403Y-84978918D02*
G01*
X137836066Y-85011434D01*
X137868582Y-85060097D01*
X137880000Y-85117500D01*
X137880000Y-86142500D01*
X137868582Y-86199903D01*
X137836066Y-86248566D01*
X137787403Y-86281082D01*
X137730000Y-86292500D01*
X137430000Y-86292500D01*
X137372597Y-86281082D01*
X137323934Y-86248566D01*
X137291418Y-86199903D01*
X137280000Y-86142500D01*
X137280000Y-85117500D01*
X137291418Y-85060097D01*
X137323934Y-85011434D01*
X137372597Y-84978918D01*
X137430000Y-84967500D01*
X137730000Y-84967500D01*
X137787403Y-84978918D01*
G37*
G36*
X139687403Y-84978918D02*
G01*
X139736066Y-85011434D01*
X139768582Y-85060097D01*
X139780000Y-85117500D01*
X139780000Y-86142500D01*
X139768582Y-86199903D01*
X139736066Y-86248566D01*
X139687403Y-86281082D01*
X139630000Y-86292500D01*
X139330000Y-86292500D01*
X139272597Y-86281082D01*
X139223934Y-86248566D01*
X139191418Y-86199903D01*
X139180000Y-86142500D01*
X139180000Y-85117500D01*
X139191418Y-85060097D01*
X139223934Y-85011434D01*
X139272597Y-84978918D01*
X139330000Y-84967500D01*
X139630000Y-84967500D01*
X139687403Y-84978918D01*
G37*
G36*
X149198685Y-86037210D02*
G01*
X149240141Y-86054381D01*
X149271869Y-86086109D01*
X149289040Y-86127565D01*
X149289040Y-86172435D01*
X149271869Y-86213891D01*
X149240141Y-86245619D01*
X149198685Y-86262790D01*
X149176250Y-86265000D01*
X149173302Y-86265000D01*
X148744198Y-86265000D01*
X148741250Y-86265000D01*
X148718815Y-86262790D01*
X148677359Y-86245619D01*
X148645631Y-86213891D01*
X148628460Y-86172435D01*
X148628460Y-86127565D01*
X148645631Y-86086109D01*
X148677359Y-86054381D01*
X148718815Y-86037210D01*
X148741250Y-86035000D01*
X149176250Y-86035000D01*
X149198685Y-86037210D01*
G37*
G36*
X153058685Y-86037210D02*
G01*
X153100141Y-86054381D01*
X153131869Y-86086109D01*
X153149040Y-86127565D01*
X153149040Y-86172435D01*
X153131869Y-86213891D01*
X153100141Y-86245619D01*
X153058685Y-86262790D01*
X153036250Y-86265000D01*
X153033302Y-86265000D01*
X152604198Y-86265000D01*
X152601250Y-86265000D01*
X152578815Y-86262790D01*
X152537359Y-86245619D01*
X152505631Y-86213891D01*
X152488460Y-86172435D01*
X152488460Y-86127565D01*
X152505631Y-86086109D01*
X152537359Y-86054381D01*
X152578815Y-86037210D01*
X152601250Y-86035000D01*
X153036250Y-86035000D01*
X153058685Y-86037210D01*
G37*
G36*
X135662640Y-85197351D02*
G01*
X135758724Y-85252825D01*
X135837175Y-85331276D01*
X135892649Y-85427360D01*
X135921364Y-85534526D01*
X135921364Y-85645474D01*
X135892649Y-85752640D01*
X135837175Y-85848724D01*
X135758724Y-85927175D01*
X135662640Y-85982649D01*
X135555474Y-86011364D01*
X135444526Y-86011364D01*
X135337360Y-85982649D01*
X135241276Y-85927175D01*
X135162825Y-85848724D01*
X135107351Y-85752640D01*
X135078636Y-85645474D01*
X135078636Y-85534526D01*
X135107351Y-85427360D01*
X135162825Y-85331276D01*
X135241276Y-85252825D01*
X135337360Y-85197351D01*
X135444526Y-85168636D01*
X135555474Y-85168636D01*
X135662640Y-85197351D01*
G37*
G36*
X145159850Y-85005964D02*
G01*
X145204317Y-85011123D01*
X145219510Y-85017831D01*
X145241104Y-85022127D01*
X145264222Y-85037574D01*
X145281567Y-85045233D01*
X145293412Y-85057078D01*
X145314099Y-85070901D01*
X145327921Y-85091587D01*
X145339766Y-85103432D01*
X145347423Y-85120774D01*
X145362873Y-85143896D01*
X145367168Y-85165491D01*
X145373876Y-85180682D01*
X145379033Y-85225139D01*
X145380000Y-85230000D01*
X145380000Y-85730000D01*
X145379032Y-85734862D01*
X145373876Y-85779317D01*
X145367168Y-85794506D01*
X145362873Y-85816104D01*
X145347422Y-85839227D01*
X145339766Y-85856567D01*
X145327923Y-85868409D01*
X145314099Y-85889099D01*
X145293409Y-85902923D01*
X145281567Y-85914766D01*
X145264227Y-85922422D01*
X145241104Y-85937873D01*
X145219506Y-85942168D01*
X145204317Y-85948876D01*
X145159861Y-85954032D01*
X145155000Y-85955000D01*
X144705000Y-85955000D01*
X144700138Y-85954033D01*
X144655682Y-85948876D01*
X144640491Y-85942168D01*
X144618896Y-85937873D01*
X144595774Y-85922423D01*
X144578432Y-85914766D01*
X144566587Y-85902921D01*
X144545901Y-85889099D01*
X144532078Y-85868412D01*
X144520233Y-85856567D01*
X144512574Y-85839222D01*
X144497127Y-85816104D01*
X144492831Y-85794510D01*
X144486123Y-85779317D01*
X144480964Y-85734849D01*
X144480000Y-85730000D01*
X144480000Y-85230000D01*
X144480964Y-85225150D01*
X144486123Y-85180682D01*
X144492832Y-85165487D01*
X144497127Y-85143896D01*
X144512573Y-85120779D01*
X144520233Y-85103432D01*
X144532080Y-85091584D01*
X144545901Y-85070901D01*
X144566584Y-85057080D01*
X144578432Y-85045233D01*
X144595779Y-85037573D01*
X144618896Y-85022127D01*
X144640487Y-85017832D01*
X144655682Y-85011123D01*
X144700151Y-85005964D01*
X144705000Y-85005000D01*
X145155000Y-85005000D01*
X145159850Y-85005964D01*
G37*
G36*
X146709850Y-85005964D02*
G01*
X146754317Y-85011123D01*
X146769510Y-85017831D01*
X146791104Y-85022127D01*
X146814222Y-85037574D01*
X146831567Y-85045233D01*
X146843412Y-85057078D01*
X146864099Y-85070901D01*
X146877921Y-85091587D01*
X146889766Y-85103432D01*
X146897423Y-85120774D01*
X146912873Y-85143896D01*
X146917168Y-85165491D01*
X146923876Y-85180682D01*
X146929033Y-85225139D01*
X146930000Y-85230000D01*
X146930000Y-85730000D01*
X146929032Y-85734862D01*
X146923876Y-85779317D01*
X146917168Y-85794506D01*
X146912873Y-85816104D01*
X146897422Y-85839227D01*
X146889766Y-85856567D01*
X146877923Y-85868409D01*
X146864099Y-85889099D01*
X146843409Y-85902923D01*
X146831567Y-85914766D01*
X146814227Y-85922422D01*
X146791104Y-85937873D01*
X146769506Y-85942168D01*
X146754317Y-85948876D01*
X146709861Y-85954032D01*
X146705000Y-85955000D01*
X146255000Y-85955000D01*
X146250138Y-85954033D01*
X146205682Y-85948876D01*
X146190491Y-85942168D01*
X146168896Y-85937873D01*
X146145774Y-85922423D01*
X146128432Y-85914766D01*
X146116587Y-85902921D01*
X146095901Y-85889099D01*
X146082078Y-85868412D01*
X146070233Y-85856567D01*
X146062574Y-85839222D01*
X146047127Y-85816104D01*
X146042831Y-85794510D01*
X146036123Y-85779317D01*
X146030964Y-85734849D01*
X146030000Y-85730000D01*
X146030000Y-85230000D01*
X146030964Y-85225150D01*
X146036123Y-85180682D01*
X146042832Y-85165487D01*
X146047127Y-85143896D01*
X146062573Y-85120779D01*
X146070233Y-85103432D01*
X146082080Y-85091584D01*
X146095901Y-85070901D01*
X146116584Y-85057080D01*
X146128432Y-85045233D01*
X146145779Y-85037573D01*
X146168896Y-85022127D01*
X146190487Y-85017832D01*
X146205682Y-85011123D01*
X146250151Y-85005964D01*
X146255000Y-85005000D01*
X146705000Y-85005000D01*
X146709850Y-85005964D01*
G37*
G36*
X169662640Y-85107351D02*
G01*
X169758724Y-85162825D01*
X169837175Y-85241276D01*
X169892649Y-85337360D01*
X169921364Y-85444526D01*
X169921364Y-85555474D01*
X169892649Y-85662640D01*
X169837175Y-85758724D01*
X169758724Y-85837175D01*
X169662640Y-85892649D01*
X169555474Y-85921364D01*
X169444526Y-85921364D01*
X169337360Y-85892649D01*
X169241276Y-85837175D01*
X169162825Y-85758724D01*
X169107351Y-85662640D01*
X169078636Y-85555474D01*
X169078636Y-85444526D01*
X169107351Y-85337360D01*
X169162825Y-85241276D01*
X169241276Y-85162825D01*
X169337360Y-85107351D01*
X169444526Y-85078636D01*
X169555474Y-85078636D01*
X169662640Y-85107351D01*
G37*
G36*
X149198685Y-85587210D02*
G01*
X149240141Y-85604381D01*
X149271869Y-85636109D01*
X149289040Y-85677565D01*
X149289040Y-85722435D01*
X149271869Y-85763891D01*
X149240141Y-85795619D01*
X149198685Y-85812790D01*
X149176250Y-85815000D01*
X149173302Y-85815000D01*
X148744198Y-85815000D01*
X148741250Y-85815000D01*
X148718815Y-85812790D01*
X148677359Y-85795619D01*
X148645631Y-85763891D01*
X148628460Y-85722435D01*
X148628460Y-85677565D01*
X148645631Y-85636109D01*
X148677359Y-85604381D01*
X148718815Y-85587210D01*
X148741250Y-85585000D01*
X149176250Y-85585000D01*
X149198685Y-85587210D01*
G37*
G36*
X153058685Y-85587210D02*
G01*
X153100141Y-85604381D01*
X153131869Y-85636109D01*
X153149040Y-85677565D01*
X153149040Y-85722435D01*
X153131869Y-85763891D01*
X153100141Y-85795619D01*
X153058685Y-85812790D01*
X153036250Y-85815000D01*
X153033302Y-85815000D01*
X152604198Y-85815000D01*
X152601250Y-85815000D01*
X152578815Y-85812790D01*
X152537359Y-85795619D01*
X152505631Y-85763891D01*
X152488460Y-85722435D01*
X152488460Y-85677565D01*
X152505631Y-85636109D01*
X152537359Y-85604381D01*
X152578815Y-85587210D01*
X152601250Y-85585000D01*
X153036250Y-85585000D01*
X153058685Y-85587210D01*
G37*
G36*
X155482326Y-84898157D02*
G01*
X155527745Y-84928505D01*
X155558093Y-84973924D01*
X155568750Y-85027500D01*
X155568750Y-85367500D01*
X155558093Y-85421076D01*
X155527745Y-85466495D01*
X155482326Y-85496843D01*
X155428750Y-85507500D01*
X155148750Y-85507500D01*
X155095174Y-85496843D01*
X155049755Y-85466495D01*
X155019407Y-85421076D01*
X155008750Y-85367500D01*
X155008750Y-85027500D01*
X155019407Y-84973924D01*
X155049755Y-84928505D01*
X155095174Y-84898157D01*
X155148750Y-84887500D01*
X155428750Y-84887500D01*
X155482326Y-84898157D01*
G37*
G36*
X156442326Y-84898157D02*
G01*
X156487745Y-84928505D01*
X156518093Y-84973924D01*
X156528750Y-85027500D01*
X156528750Y-85367500D01*
X156518093Y-85421076D01*
X156487745Y-85466495D01*
X156442326Y-85496843D01*
X156388750Y-85507500D01*
X156108750Y-85507500D01*
X156055174Y-85496843D01*
X156009755Y-85466495D01*
X155979407Y-85421076D01*
X155968750Y-85367500D01*
X155968750Y-85027500D01*
X155979407Y-84973924D01*
X156009755Y-84928505D01*
X156055174Y-84898157D01*
X156108750Y-84887500D01*
X156388750Y-84887500D01*
X156442326Y-84898157D01*
G37*
G36*
X149198685Y-85137210D02*
G01*
X149240141Y-85154381D01*
X149271869Y-85186109D01*
X149289040Y-85227565D01*
X149289040Y-85272435D01*
X149271869Y-85313891D01*
X149240141Y-85345619D01*
X149198685Y-85362790D01*
X149176250Y-85365000D01*
X149173302Y-85365000D01*
X148744198Y-85365000D01*
X148741250Y-85365000D01*
X148718815Y-85362790D01*
X148677359Y-85345619D01*
X148645631Y-85313891D01*
X148628460Y-85272435D01*
X148628460Y-85227565D01*
X148645631Y-85186109D01*
X148677359Y-85154381D01*
X148718815Y-85137210D01*
X148741250Y-85135000D01*
X149176250Y-85135000D01*
X149198685Y-85137210D01*
G37*
G36*
X153058685Y-85137210D02*
G01*
X153100141Y-85154381D01*
X153131869Y-85186109D01*
X153149040Y-85227565D01*
X153149040Y-85272435D01*
X153131869Y-85313891D01*
X153100141Y-85345619D01*
X153058685Y-85362790D01*
X153036250Y-85365000D01*
X153033302Y-85365000D01*
X152604198Y-85365000D01*
X152601250Y-85365000D01*
X152578815Y-85362790D01*
X152537359Y-85345619D01*
X152505631Y-85313891D01*
X152488460Y-85272435D01*
X152488460Y-85227565D01*
X152505631Y-85186109D01*
X152537359Y-85154381D01*
X152578815Y-85137210D01*
X152601250Y-85135000D01*
X153036250Y-85135000D01*
X153058685Y-85137210D01*
G37*
G36*
X135662640Y-84197351D02*
G01*
X135758724Y-84252825D01*
X135837175Y-84331276D01*
X135892649Y-84427360D01*
X135921364Y-84534526D01*
X135921364Y-84645474D01*
X135892649Y-84752640D01*
X135837175Y-84848724D01*
X135758724Y-84927175D01*
X135662640Y-84982649D01*
X135555474Y-85011364D01*
X135444526Y-85011364D01*
X135337360Y-84982649D01*
X135241276Y-84927175D01*
X135162825Y-84848724D01*
X135107351Y-84752640D01*
X135078636Y-84645474D01*
X135078636Y-84534526D01*
X135107351Y-84427360D01*
X135162825Y-84331276D01*
X135241276Y-84252825D01*
X135337360Y-84197351D01*
X135444526Y-84168636D01*
X135555474Y-84168636D01*
X135662640Y-84197351D01*
G37*
G36*
X149602641Y-84356881D02*
G01*
X149634369Y-84388609D01*
X149651540Y-84430065D01*
X149653750Y-84452500D01*
X149653750Y-84887500D01*
X149651540Y-84909935D01*
X149634369Y-84951391D01*
X149602641Y-84983119D01*
X149561185Y-85000290D01*
X149516315Y-85000290D01*
X149474859Y-84983119D01*
X149443131Y-84951391D01*
X149425960Y-84909935D01*
X149423750Y-84887500D01*
X149423750Y-84452500D01*
X149425960Y-84430065D01*
X149443131Y-84388609D01*
X149474859Y-84356881D01*
X149516315Y-84339710D01*
X149561185Y-84339710D01*
X149602641Y-84356881D01*
G37*
G36*
X150052641Y-84356881D02*
G01*
X150084369Y-84388609D01*
X150101540Y-84430065D01*
X150103750Y-84452500D01*
X150103750Y-84887500D01*
X150101540Y-84909935D01*
X150084369Y-84951391D01*
X150052641Y-84983119D01*
X150011185Y-85000290D01*
X149966315Y-85000290D01*
X149924859Y-84983119D01*
X149893131Y-84951391D01*
X149875960Y-84909935D01*
X149873750Y-84887500D01*
X149873750Y-84452500D01*
X149875960Y-84430065D01*
X149893131Y-84388609D01*
X149924859Y-84356881D01*
X149966315Y-84339710D01*
X150011185Y-84339710D01*
X150052641Y-84356881D01*
G37*
G36*
X150502641Y-84356881D02*
G01*
X150534369Y-84388609D01*
X150551540Y-84430065D01*
X150553750Y-84452500D01*
X150553750Y-84887500D01*
X150551540Y-84909935D01*
X150534369Y-84951391D01*
X150502641Y-84983119D01*
X150461185Y-85000290D01*
X150416315Y-85000290D01*
X150374859Y-84983119D01*
X150343131Y-84951391D01*
X150325960Y-84909935D01*
X150323750Y-84887500D01*
X150323750Y-84452500D01*
X150325960Y-84430065D01*
X150343131Y-84388609D01*
X150374859Y-84356881D01*
X150416315Y-84339710D01*
X150461185Y-84339710D01*
X150502641Y-84356881D01*
G37*
G36*
X150952641Y-84356881D02*
G01*
X150984369Y-84388609D01*
X151001540Y-84430065D01*
X151003750Y-84452500D01*
X151003750Y-84887500D01*
X151001540Y-84909935D01*
X150984369Y-84951391D01*
X150952641Y-84983119D01*
X150911185Y-85000290D01*
X150866315Y-85000290D01*
X150824859Y-84983119D01*
X150793131Y-84951391D01*
X150775960Y-84909935D01*
X150773750Y-84887500D01*
X150773750Y-84452500D01*
X150775960Y-84430065D01*
X150793131Y-84388609D01*
X150824859Y-84356881D01*
X150866315Y-84339710D01*
X150911185Y-84339710D01*
X150952641Y-84356881D01*
G37*
G36*
X151402641Y-84356881D02*
G01*
X151434369Y-84388609D01*
X151451540Y-84430065D01*
X151453750Y-84452500D01*
X151453750Y-84887500D01*
X151451540Y-84909935D01*
X151434369Y-84951391D01*
X151402641Y-84983119D01*
X151361185Y-85000290D01*
X151316315Y-85000290D01*
X151274859Y-84983119D01*
X151243131Y-84951391D01*
X151225960Y-84909935D01*
X151223750Y-84887500D01*
X151223750Y-84452500D01*
X151225960Y-84430065D01*
X151243131Y-84388609D01*
X151274859Y-84356881D01*
X151316315Y-84339710D01*
X151361185Y-84339710D01*
X151402641Y-84356881D01*
G37*
G36*
X151852641Y-84356881D02*
G01*
X151884369Y-84388609D01*
X151901540Y-84430065D01*
X151903750Y-84452500D01*
X151903750Y-84887500D01*
X151901540Y-84909935D01*
X151884369Y-84951391D01*
X151852641Y-84983119D01*
X151811185Y-85000290D01*
X151766315Y-85000290D01*
X151724859Y-84983119D01*
X151693131Y-84951391D01*
X151675960Y-84909935D01*
X151673750Y-84887500D01*
X151673750Y-84452500D01*
X151675960Y-84430065D01*
X151693131Y-84388609D01*
X151724859Y-84356881D01*
X151766315Y-84339710D01*
X151811185Y-84339710D01*
X151852641Y-84356881D01*
G37*
G36*
X152302641Y-84356881D02*
G01*
X152334369Y-84388609D01*
X152351540Y-84430065D01*
X152353750Y-84452500D01*
X152353750Y-84887500D01*
X152351540Y-84909935D01*
X152334369Y-84951391D01*
X152302641Y-84983119D01*
X152261185Y-85000290D01*
X152216315Y-85000290D01*
X152174859Y-84983119D01*
X152143131Y-84951391D01*
X152125960Y-84909935D01*
X152123750Y-84887500D01*
X152123750Y-84452500D01*
X152125960Y-84430065D01*
X152143131Y-84388609D01*
X152174859Y-84356881D01*
X152216315Y-84339710D01*
X152261185Y-84339710D01*
X152302641Y-84356881D01*
G37*
G36*
X169662640Y-84107351D02*
G01*
X169758724Y-84162825D01*
X169837175Y-84241276D01*
X169892649Y-84337360D01*
X169921364Y-84444526D01*
X169921364Y-84555474D01*
X169892649Y-84662640D01*
X169837175Y-84758724D01*
X169758724Y-84837175D01*
X169662640Y-84892649D01*
X169555474Y-84921364D01*
X169444526Y-84921364D01*
X169337360Y-84892649D01*
X169241276Y-84837175D01*
X169162825Y-84758724D01*
X169107351Y-84662640D01*
X169078636Y-84555474D01*
X169078636Y-84444526D01*
X169107351Y-84337360D01*
X169162825Y-84241276D01*
X169241276Y-84162825D01*
X169337360Y-84107351D01*
X169444526Y-84078636D01*
X169555474Y-84078636D01*
X169662640Y-84107351D01*
G37*
G36*
X155465412Y-83760276D02*
G01*
X155509209Y-83789541D01*
X155538474Y-83833338D01*
X155548750Y-83885000D01*
X155548750Y-84255000D01*
X155538474Y-84306662D01*
X155509209Y-84350459D01*
X155465412Y-84379724D01*
X155413750Y-84390000D01*
X155143750Y-84390000D01*
X155092088Y-84379724D01*
X155048291Y-84350459D01*
X155019026Y-84306662D01*
X155008750Y-84255000D01*
X155008750Y-83885000D01*
X155019026Y-83833338D01*
X155048291Y-83789541D01*
X155092088Y-83760276D01*
X155143750Y-83750000D01*
X155413750Y-83750000D01*
X155465412Y-83760276D01*
G37*
G36*
X156485412Y-83760276D02*
G01*
X156529209Y-83789541D01*
X156558474Y-83833338D01*
X156568750Y-83885000D01*
X156568750Y-84255000D01*
X156558474Y-84306662D01*
X156529209Y-84350459D01*
X156485412Y-84379724D01*
X156433750Y-84390000D01*
X156163750Y-84390000D01*
X156112088Y-84379724D01*
X156068291Y-84350459D01*
X156039026Y-84306662D01*
X156028750Y-84255000D01*
X156028750Y-83885000D01*
X156039026Y-83833338D01*
X156068291Y-83789541D01*
X156112088Y-83760276D01*
X156163750Y-83750000D01*
X156433750Y-83750000D01*
X156485412Y-83760276D01*
G37*
G36*
X145803576Y-83740657D02*
G01*
X145848995Y-83771005D01*
X145879343Y-83816424D01*
X145890000Y-83870000D01*
X145890000Y-84210000D01*
X145879343Y-84263576D01*
X145848995Y-84308995D01*
X145803576Y-84339343D01*
X145750000Y-84350000D01*
X145470000Y-84350000D01*
X145416424Y-84339343D01*
X145371005Y-84308995D01*
X145340657Y-84263576D01*
X145330000Y-84210000D01*
X145330000Y-83870000D01*
X145340657Y-83816424D01*
X145371005Y-83771005D01*
X145416424Y-83740657D01*
X145470000Y-83730000D01*
X145750000Y-83730000D01*
X145803576Y-83740657D01*
G37*
G36*
X146763576Y-83740657D02*
G01*
X146808995Y-83771005D01*
X146839343Y-83816424D01*
X146850000Y-83870000D01*
X146850000Y-84210000D01*
X146839343Y-84263576D01*
X146808995Y-84308995D01*
X146763576Y-84339343D01*
X146710000Y-84350000D01*
X146430000Y-84350000D01*
X146376424Y-84339343D01*
X146331005Y-84308995D01*
X146300657Y-84263576D01*
X146290000Y-84210000D01*
X146290000Y-83870000D01*
X146300657Y-83816424D01*
X146331005Y-83771005D01*
X146376424Y-83740657D01*
X146430000Y-83730000D01*
X146710000Y-83730000D01*
X146763576Y-83740657D01*
G37*
G36*
X138489850Y-83015964D02*
G01*
X138540040Y-83021787D01*
X138557189Y-83029359D01*
X138580671Y-83034030D01*
X138605810Y-83050827D01*
X138625696Y-83059608D01*
X138639277Y-83073189D01*
X138661777Y-83088223D01*
X138676810Y-83110722D01*
X138690391Y-83124303D01*
X138699170Y-83144186D01*
X138715970Y-83169329D01*
X138720641Y-83192812D01*
X138728212Y-83209959D01*
X138734033Y-83260139D01*
X138735000Y-83265000D01*
X138735000Y-83765000D01*
X138734032Y-83769863D01*
X138728212Y-83820040D01*
X138720641Y-83837185D01*
X138715970Y-83860671D01*
X138699169Y-83885815D01*
X138690391Y-83905696D01*
X138676812Y-83919274D01*
X138661777Y-83941777D01*
X138639274Y-83956812D01*
X138625696Y-83970391D01*
X138605815Y-83979169D01*
X138580671Y-83995970D01*
X138557185Y-84000641D01*
X138540040Y-84008212D01*
X138489861Y-84014032D01*
X138485000Y-84015000D01*
X137535000Y-84015000D01*
X137530138Y-84014032D01*
X137479959Y-84008212D01*
X137462812Y-84000641D01*
X137439329Y-83995970D01*
X137414186Y-83979170D01*
X137394303Y-83970391D01*
X137380722Y-83956810D01*
X137358223Y-83941777D01*
X137343189Y-83919277D01*
X137329608Y-83905696D01*
X137320827Y-83885810D01*
X137304030Y-83860671D01*
X137299359Y-83837189D01*
X137291787Y-83820040D01*
X137285964Y-83769849D01*
X137285000Y-83765000D01*
X137285000Y-83265000D01*
X137285964Y-83260150D01*
X137291787Y-83209959D01*
X137299359Y-83192808D01*
X137304030Y-83169329D01*
X137320826Y-83144191D01*
X137329608Y-83124303D01*
X137343191Y-83110719D01*
X137358223Y-83088223D01*
X137380719Y-83073191D01*
X137394303Y-83059608D01*
X137414191Y-83050826D01*
X137439329Y-83034030D01*
X137462808Y-83029359D01*
X137479959Y-83021787D01*
X137530151Y-83015964D01*
X137535000Y-83015000D01*
X138485000Y-83015000D01*
X138489850Y-83015964D01*
G37*
G36*
X135662640Y-83197351D02*
G01*
X135758724Y-83252825D01*
X135837175Y-83331276D01*
X135892649Y-83427360D01*
X135921364Y-83534526D01*
X135921364Y-83645474D01*
X135892649Y-83752640D01*
X135837175Y-83848724D01*
X135758724Y-83927175D01*
X135662640Y-83982649D01*
X135555474Y-84011364D01*
X135444526Y-84011364D01*
X135337360Y-83982649D01*
X135241276Y-83927175D01*
X135162825Y-83848724D01*
X135107351Y-83752640D01*
X135078636Y-83645474D01*
X135078636Y-83534526D01*
X135107351Y-83427360D01*
X135162825Y-83331276D01*
X135241276Y-83252825D01*
X135337360Y-83197351D01*
X135444526Y-83168636D01*
X135555474Y-83168636D01*
X135662640Y-83197351D01*
G37*
G36*
X169662640Y-83107351D02*
G01*
X169758724Y-83162825D01*
X169837175Y-83241276D01*
X169892649Y-83337360D01*
X169921364Y-83444526D01*
X169921364Y-83555474D01*
X169892649Y-83662640D01*
X169837175Y-83758724D01*
X169758724Y-83837175D01*
X169662640Y-83892649D01*
X169555474Y-83921364D01*
X169444526Y-83921364D01*
X169337360Y-83892649D01*
X169241276Y-83837175D01*
X169162825Y-83758724D01*
X169107351Y-83662640D01*
X169078636Y-83555474D01*
X169078636Y-83444526D01*
X169107351Y-83337360D01*
X169162825Y-83241276D01*
X169241276Y-83162825D01*
X169337360Y-83107351D01*
X169444526Y-83078636D01*
X169555474Y-83078636D01*
X169662640Y-83107351D01*
G37*
G36*
X152401662Y-82705276D02*
G01*
X152445459Y-82734541D01*
X152474724Y-82778338D01*
X152485000Y-82830000D01*
X152485000Y-83100000D01*
X152474724Y-83151662D01*
X152445459Y-83195459D01*
X152401662Y-83224724D01*
X152350000Y-83235000D01*
X151980000Y-83235000D01*
X151928338Y-83224724D01*
X151884541Y-83195459D01*
X151855276Y-83151662D01*
X151845000Y-83100000D01*
X151845000Y-82830000D01*
X151855276Y-82778338D01*
X151884541Y-82734541D01*
X151928338Y-82705276D01*
X151980000Y-82695000D01*
X152350000Y-82695000D01*
X152401662Y-82705276D01*
G37*
G36*
X153616662Y-82705276D02*
G01*
X153660459Y-82734541D01*
X153689724Y-82778338D01*
X153700000Y-82830000D01*
X153700000Y-83100000D01*
X153689724Y-83151662D01*
X153660459Y-83195459D01*
X153616662Y-83224724D01*
X153565000Y-83235000D01*
X153195000Y-83235000D01*
X153143338Y-83224724D01*
X153099541Y-83195459D01*
X153070276Y-83151662D01*
X153060000Y-83100000D01*
X153060000Y-82830000D01*
X153070276Y-82778338D01*
X153099541Y-82734541D01*
X153143338Y-82705276D01*
X153195000Y-82695000D01*
X153565000Y-82695000D01*
X153616662Y-82705276D01*
G37*
G36*
X150944850Y-82230964D02*
G01*
X150989317Y-82236123D01*
X151004510Y-82242831D01*
X151026104Y-82247127D01*
X151049222Y-82262574D01*
X151066567Y-82270233D01*
X151078412Y-82282078D01*
X151099099Y-82295901D01*
X151112921Y-82316587D01*
X151124766Y-82328432D01*
X151132423Y-82345774D01*
X151147873Y-82368896D01*
X151152168Y-82390491D01*
X151158876Y-82405682D01*
X151164033Y-82450139D01*
X151165000Y-82455000D01*
X151165000Y-82905000D01*
X151164032Y-82909862D01*
X151158876Y-82954317D01*
X151152168Y-82969506D01*
X151147873Y-82991104D01*
X151132422Y-83014227D01*
X151124766Y-83031567D01*
X151112923Y-83043409D01*
X151099099Y-83064099D01*
X151078409Y-83077923D01*
X151066567Y-83089766D01*
X151049227Y-83097422D01*
X151026104Y-83112873D01*
X151004506Y-83117168D01*
X150989317Y-83123876D01*
X150944861Y-83129032D01*
X150940000Y-83130000D01*
X150440000Y-83130000D01*
X150435138Y-83129033D01*
X150390682Y-83123876D01*
X150375491Y-83117168D01*
X150353896Y-83112873D01*
X150330774Y-83097423D01*
X150313432Y-83089766D01*
X150301587Y-83077921D01*
X150280901Y-83064099D01*
X150267078Y-83043412D01*
X150255233Y-83031567D01*
X150247574Y-83014222D01*
X150232127Y-82991104D01*
X150227831Y-82969510D01*
X150221123Y-82954317D01*
X150215964Y-82909849D01*
X150215000Y-82905000D01*
X150215000Y-82455000D01*
X150215964Y-82450150D01*
X150221123Y-82405682D01*
X150227832Y-82390487D01*
X150232127Y-82368896D01*
X150247573Y-82345779D01*
X150255233Y-82328432D01*
X150267080Y-82316584D01*
X150280901Y-82295901D01*
X150301584Y-82282080D01*
X150313432Y-82270233D01*
X150330779Y-82262573D01*
X150353896Y-82247127D01*
X150375487Y-82242832D01*
X150390682Y-82236123D01*
X150435151Y-82230964D01*
X150440000Y-82230000D01*
X150940000Y-82230000D01*
X150944850Y-82230964D01*
G37*
G36*
X135662640Y-82197351D02*
G01*
X135758724Y-82252825D01*
X135837175Y-82331276D01*
X135892649Y-82427360D01*
X135921364Y-82534526D01*
X135921364Y-82645474D01*
X135892649Y-82752640D01*
X135837175Y-82848724D01*
X135758724Y-82927175D01*
X135662640Y-82982649D01*
X135555474Y-83011364D01*
X135444526Y-83011364D01*
X135337360Y-82982649D01*
X135241276Y-82927175D01*
X135162825Y-82848724D01*
X135107351Y-82752640D01*
X135078636Y-82645474D01*
X135078636Y-82534526D01*
X135107351Y-82427360D01*
X135162825Y-82331276D01*
X135241276Y-82252825D01*
X135337360Y-82197351D01*
X135444526Y-82168636D01*
X135555474Y-82168636D01*
X135662640Y-82197351D01*
G37*
G36*
X145024850Y-82015964D02*
G01*
X145069317Y-82021123D01*
X145084510Y-82027831D01*
X145106104Y-82032127D01*
X145129222Y-82047574D01*
X145146567Y-82055233D01*
X145158412Y-82067078D01*
X145179099Y-82080901D01*
X145192921Y-82101587D01*
X145204766Y-82113432D01*
X145212423Y-82130774D01*
X145227873Y-82153896D01*
X145232168Y-82175491D01*
X145238876Y-82190682D01*
X145244033Y-82235139D01*
X145245000Y-82240000D01*
X145245000Y-82740000D01*
X145244032Y-82744862D01*
X145238876Y-82789317D01*
X145232168Y-82804506D01*
X145227873Y-82826104D01*
X145212422Y-82849227D01*
X145204766Y-82866567D01*
X145192923Y-82878409D01*
X145179099Y-82899099D01*
X145158409Y-82912923D01*
X145146567Y-82924766D01*
X145129227Y-82932422D01*
X145106104Y-82947873D01*
X145084506Y-82952168D01*
X145069317Y-82958876D01*
X145024861Y-82964032D01*
X145020000Y-82965000D01*
X144570000Y-82965000D01*
X144565138Y-82964033D01*
X144520682Y-82958876D01*
X144505491Y-82952168D01*
X144483896Y-82947873D01*
X144460774Y-82932423D01*
X144443432Y-82924766D01*
X144431587Y-82912921D01*
X144410901Y-82899099D01*
X144397078Y-82878412D01*
X144385233Y-82866567D01*
X144377574Y-82849222D01*
X144362127Y-82826104D01*
X144357831Y-82804510D01*
X144351123Y-82789317D01*
X144345964Y-82744849D01*
X144345000Y-82740000D01*
X144345000Y-82240000D01*
X144345964Y-82235150D01*
X144351123Y-82190682D01*
X144357832Y-82175487D01*
X144362127Y-82153896D01*
X144377573Y-82130779D01*
X144385233Y-82113432D01*
X144397080Y-82101584D01*
X144410901Y-82080901D01*
X144431584Y-82067080D01*
X144443432Y-82055233D01*
X144460779Y-82047573D01*
X144483896Y-82032127D01*
X144505487Y-82027832D01*
X144520682Y-82021123D01*
X144565151Y-82015964D01*
X144570000Y-82015000D01*
X145020000Y-82015000D01*
X145024850Y-82015964D01*
G37*
G36*
X146574850Y-82015964D02*
G01*
X146619317Y-82021123D01*
X146634510Y-82027831D01*
X146656104Y-82032127D01*
X146679222Y-82047574D01*
X146696567Y-82055233D01*
X146708412Y-82067078D01*
X146729099Y-82080901D01*
X146742921Y-82101587D01*
X146754766Y-82113432D01*
X146762423Y-82130774D01*
X146777873Y-82153896D01*
X146782168Y-82175491D01*
X146788876Y-82190682D01*
X146794033Y-82235139D01*
X146795000Y-82240000D01*
X146795000Y-82740000D01*
X146794032Y-82744862D01*
X146788876Y-82789317D01*
X146782168Y-82804506D01*
X146777873Y-82826104D01*
X146762422Y-82849227D01*
X146754766Y-82866567D01*
X146742923Y-82878409D01*
X146729099Y-82899099D01*
X146708409Y-82912923D01*
X146696567Y-82924766D01*
X146679227Y-82932422D01*
X146656104Y-82947873D01*
X146634506Y-82952168D01*
X146619317Y-82958876D01*
X146574861Y-82964032D01*
X146570000Y-82965000D01*
X146120000Y-82965000D01*
X146115138Y-82964033D01*
X146070682Y-82958876D01*
X146055491Y-82952168D01*
X146033896Y-82947873D01*
X146010774Y-82932423D01*
X145993432Y-82924766D01*
X145981587Y-82912921D01*
X145960901Y-82899099D01*
X145947078Y-82878412D01*
X145935233Y-82866567D01*
X145927574Y-82849222D01*
X145912127Y-82826104D01*
X145907831Y-82804510D01*
X145901123Y-82789317D01*
X145895964Y-82744849D01*
X145895000Y-82740000D01*
X145895000Y-82240000D01*
X145895964Y-82235150D01*
X145901123Y-82190682D01*
X145907832Y-82175487D01*
X145912127Y-82153896D01*
X145927573Y-82130779D01*
X145935233Y-82113432D01*
X145947080Y-82101584D01*
X145960901Y-82080901D01*
X145981584Y-82067080D01*
X145993432Y-82055233D01*
X146010779Y-82047573D01*
X146033896Y-82032127D01*
X146055487Y-82027832D01*
X146070682Y-82021123D01*
X146115151Y-82015964D01*
X146120000Y-82015000D01*
X146570000Y-82015000D01*
X146574850Y-82015964D01*
G37*
G36*
X169662640Y-82107351D02*
G01*
X169758724Y-82162825D01*
X169837175Y-82241276D01*
X169892649Y-82337360D01*
X169921364Y-82444526D01*
X169921364Y-82555474D01*
X169892649Y-82662640D01*
X169837175Y-82758724D01*
X169758724Y-82837175D01*
X169662640Y-82892649D01*
X169555474Y-82921364D01*
X169444526Y-82921364D01*
X169337360Y-82892649D01*
X169241276Y-82837175D01*
X169162825Y-82758724D01*
X169107351Y-82662640D01*
X169078636Y-82555474D01*
X169078636Y-82444526D01*
X169107351Y-82337360D01*
X169162825Y-82241276D01*
X169241276Y-82162825D01*
X169337360Y-82107351D01*
X169444526Y-82078636D01*
X169555474Y-82078636D01*
X169662640Y-82107351D01*
G37*
G36*
X152401662Y-81685276D02*
G01*
X152445459Y-81714541D01*
X152474724Y-81758338D01*
X152485000Y-81810000D01*
X152485000Y-82080000D01*
X152474724Y-82131662D01*
X152445459Y-82175459D01*
X152401662Y-82204724D01*
X152350000Y-82215000D01*
X151980000Y-82215000D01*
X151928338Y-82204724D01*
X151884541Y-82175459D01*
X151855276Y-82131662D01*
X151845000Y-82080000D01*
X151845000Y-81810000D01*
X151855276Y-81758338D01*
X151884541Y-81714541D01*
X151928338Y-81685276D01*
X151980000Y-81675000D01*
X152350000Y-81675000D01*
X152401662Y-81685276D01*
G37*
G36*
X153616662Y-81685276D02*
G01*
X153660459Y-81714541D01*
X153689724Y-81758338D01*
X153700000Y-81810000D01*
X153700000Y-82080000D01*
X153689724Y-82131662D01*
X153660459Y-82175459D01*
X153616662Y-82204724D01*
X153565000Y-82215000D01*
X153195000Y-82215000D01*
X153143338Y-82204724D01*
X153099541Y-82175459D01*
X153070276Y-82131662D01*
X153060000Y-82080000D01*
X153060000Y-81810000D01*
X153070276Y-81758338D01*
X153099541Y-81714541D01*
X153143338Y-81685276D01*
X153195000Y-81675000D01*
X153565000Y-81675000D01*
X153616662Y-81685276D01*
G37*
G36*
X138489850Y-81115964D02*
G01*
X138540040Y-81121787D01*
X138557189Y-81129359D01*
X138580671Y-81134030D01*
X138605810Y-81150827D01*
X138625696Y-81159608D01*
X138639277Y-81173189D01*
X138661777Y-81188223D01*
X138676810Y-81210722D01*
X138690391Y-81224303D01*
X138699170Y-81244186D01*
X138715970Y-81269329D01*
X138720641Y-81292812D01*
X138728212Y-81309959D01*
X138734033Y-81360139D01*
X138735000Y-81365000D01*
X138735000Y-81865000D01*
X138734032Y-81869863D01*
X138728212Y-81920040D01*
X138720641Y-81937185D01*
X138715970Y-81960671D01*
X138699169Y-81985815D01*
X138690391Y-82005696D01*
X138676812Y-82019274D01*
X138661777Y-82041777D01*
X138639274Y-82056812D01*
X138625696Y-82070391D01*
X138605815Y-82079169D01*
X138580671Y-82095970D01*
X138557185Y-82100641D01*
X138540040Y-82108212D01*
X138489861Y-82114032D01*
X138485000Y-82115000D01*
X137535000Y-82115000D01*
X137530138Y-82114032D01*
X137479959Y-82108212D01*
X137462812Y-82100641D01*
X137439329Y-82095970D01*
X137414186Y-82079170D01*
X137394303Y-82070391D01*
X137380722Y-82056810D01*
X137358223Y-82041777D01*
X137343189Y-82019277D01*
X137329608Y-82005696D01*
X137320827Y-81985810D01*
X137304030Y-81960671D01*
X137299359Y-81937189D01*
X137291787Y-81920040D01*
X137285964Y-81869849D01*
X137285000Y-81865000D01*
X137285000Y-81365000D01*
X137285964Y-81360150D01*
X137291787Y-81309959D01*
X137299359Y-81292808D01*
X137304030Y-81269329D01*
X137320826Y-81244191D01*
X137329608Y-81224303D01*
X137343191Y-81210719D01*
X137358223Y-81188223D01*
X137380719Y-81173191D01*
X137394303Y-81159608D01*
X137414191Y-81150826D01*
X137439329Y-81134030D01*
X137462808Y-81129359D01*
X137479959Y-81121787D01*
X137530151Y-81115964D01*
X137535000Y-81115000D01*
X138485000Y-81115000D01*
X138489850Y-81115964D01*
G37*
G36*
X135662640Y-81197351D02*
G01*
X135758724Y-81252825D01*
X135837175Y-81331276D01*
X135892649Y-81427360D01*
X135921364Y-81534526D01*
X135921364Y-81645474D01*
X135892649Y-81752640D01*
X135837175Y-81848724D01*
X135758724Y-81927175D01*
X135662640Y-81982649D01*
X135555474Y-82011364D01*
X135444526Y-82011364D01*
X135337360Y-81982649D01*
X135241276Y-81927175D01*
X135162825Y-81848724D01*
X135107351Y-81752640D01*
X135078636Y-81645474D01*
X135078636Y-81534526D01*
X135107351Y-81427360D01*
X135162825Y-81331276D01*
X135241276Y-81252825D01*
X135337360Y-81197351D01*
X135444526Y-81168636D01*
X135555474Y-81168636D01*
X135662640Y-81197351D01*
G37*
G36*
X169662640Y-81107351D02*
G01*
X169758724Y-81162825D01*
X169837175Y-81241276D01*
X169892649Y-81337360D01*
X169921364Y-81444526D01*
X169921364Y-81555474D01*
X169892649Y-81662640D01*
X169837175Y-81758724D01*
X169758724Y-81837175D01*
X169662640Y-81892649D01*
X169555474Y-81921364D01*
X169444526Y-81921364D01*
X169337360Y-81892649D01*
X169241276Y-81837175D01*
X169162825Y-81758724D01*
X169107351Y-81662640D01*
X169078636Y-81555474D01*
X169078636Y-81444526D01*
X169107351Y-81337360D01*
X169162825Y-81241276D01*
X169241276Y-81162825D01*
X169337360Y-81107351D01*
X169444526Y-81078636D01*
X169555474Y-81078636D01*
X169662640Y-81107351D01*
G37*
G36*
X150944850Y-80680964D02*
G01*
X150989317Y-80686123D01*
X151004510Y-80692831D01*
X151026104Y-80697127D01*
X151049222Y-80712574D01*
X151066567Y-80720233D01*
X151078412Y-80732078D01*
X151099099Y-80745901D01*
X151112921Y-80766587D01*
X151124766Y-80778432D01*
X151132423Y-80795774D01*
X151147873Y-80818896D01*
X151152168Y-80840491D01*
X151158876Y-80855682D01*
X151164033Y-80900139D01*
X151165000Y-80905000D01*
X151165000Y-81355000D01*
X151164032Y-81359862D01*
X151158876Y-81404317D01*
X151152168Y-81419506D01*
X151147873Y-81441104D01*
X151132422Y-81464227D01*
X151124766Y-81481567D01*
X151112923Y-81493409D01*
X151099099Y-81514099D01*
X151078409Y-81527923D01*
X151066567Y-81539766D01*
X151049227Y-81547422D01*
X151026104Y-81562873D01*
X151004506Y-81567168D01*
X150989317Y-81573876D01*
X150944861Y-81579032D01*
X150940000Y-81580000D01*
X150440000Y-81580000D01*
X150435138Y-81579033D01*
X150390682Y-81573876D01*
X150375491Y-81567168D01*
X150353896Y-81562873D01*
X150330774Y-81547423D01*
X150313432Y-81539766D01*
X150301587Y-81527921D01*
X150280901Y-81514099D01*
X150267078Y-81493412D01*
X150255233Y-81481567D01*
X150247574Y-81464222D01*
X150232127Y-81441104D01*
X150227831Y-81419510D01*
X150221123Y-81404317D01*
X150215964Y-81359849D01*
X150215000Y-81355000D01*
X150215000Y-80905000D01*
X150215964Y-80900150D01*
X150221123Y-80855682D01*
X150227832Y-80840487D01*
X150232127Y-80818896D01*
X150247573Y-80795779D01*
X150255233Y-80778432D01*
X150267080Y-80766584D01*
X150280901Y-80745901D01*
X150301584Y-80732080D01*
X150313432Y-80720233D01*
X150330779Y-80712573D01*
X150353896Y-80697127D01*
X150375487Y-80692832D01*
X150390682Y-80686123D01*
X150435151Y-80680964D01*
X150440000Y-80680000D01*
X150940000Y-80680000D01*
X150944850Y-80680964D01*
G37*
G36*
X145633576Y-80720657D02*
G01*
X145678995Y-80751005D01*
X145709343Y-80796424D01*
X145720000Y-80850000D01*
X145720000Y-81190000D01*
X145709343Y-81243576D01*
X145678995Y-81288995D01*
X145633576Y-81319343D01*
X145580000Y-81330000D01*
X145300000Y-81330000D01*
X145246424Y-81319343D01*
X145201005Y-81288995D01*
X145170657Y-81243576D01*
X145160000Y-81190000D01*
X145160000Y-80850000D01*
X145170657Y-80796424D01*
X145201005Y-80751005D01*
X145246424Y-80720657D01*
X145300000Y-80710000D01*
X145580000Y-80710000D01*
X145633576Y-80720657D01*
G37*
G36*
X146593576Y-80720657D02*
G01*
X146638995Y-80751005D01*
X146669343Y-80796424D01*
X146680000Y-80850000D01*
X146680000Y-81190000D01*
X146669343Y-81243576D01*
X146638995Y-81288995D01*
X146593576Y-81319343D01*
X146540000Y-81330000D01*
X146260000Y-81330000D01*
X146206424Y-81319343D01*
X146161005Y-81288995D01*
X146130657Y-81243576D01*
X146120000Y-81190000D01*
X146120000Y-80850000D01*
X146130657Y-80796424D01*
X146161005Y-80751005D01*
X146206424Y-80720657D01*
X146260000Y-80710000D01*
X146540000Y-80710000D01*
X146593576Y-80720657D01*
G37*
G36*
X135662640Y-80197351D02*
G01*
X135758724Y-80252825D01*
X135837175Y-80331276D01*
X135892649Y-80427360D01*
X135921364Y-80534526D01*
X135921364Y-80645474D01*
X135892649Y-80752640D01*
X135837175Y-80848724D01*
X135758724Y-80927175D01*
X135662640Y-80982649D01*
X135555474Y-81011364D01*
X135444526Y-81011364D01*
X135337360Y-80982649D01*
X135241276Y-80927175D01*
X135162825Y-80848724D01*
X135107351Y-80752640D01*
X135078636Y-80645474D01*
X135078636Y-80534526D01*
X135107351Y-80427360D01*
X135162825Y-80331276D01*
X135241276Y-80252825D01*
X135337360Y-80197351D01*
X135444526Y-80168636D01*
X135555474Y-80168636D01*
X135662640Y-80197351D01*
G37*
G36*
X169662640Y-80107351D02*
G01*
X169758724Y-80162825D01*
X169837175Y-80241276D01*
X169892649Y-80337360D01*
X169921364Y-80444526D01*
X169921364Y-80555474D01*
X169892649Y-80662640D01*
X169837175Y-80758724D01*
X169758724Y-80837175D01*
X169662640Y-80892649D01*
X169555474Y-80921364D01*
X169444526Y-80921364D01*
X169337360Y-80892649D01*
X169241276Y-80837175D01*
X169162825Y-80758724D01*
X169107351Y-80662640D01*
X169078636Y-80555474D01*
X169078636Y-80444526D01*
X169107351Y-80337360D01*
X169162825Y-80241276D01*
X169241276Y-80162825D01*
X169337360Y-80107351D01*
X169444526Y-80078636D01*
X169555474Y-80078636D01*
X169662640Y-80107351D01*
G37*
G36*
X135662640Y-79197351D02*
G01*
X135758724Y-79252825D01*
X135837175Y-79331276D01*
X135892649Y-79427360D01*
X135921364Y-79534526D01*
X135921364Y-79645474D01*
X135892649Y-79752640D01*
X135837175Y-79848724D01*
X135758724Y-79927175D01*
X135662640Y-79982649D01*
X135555474Y-80011364D01*
X135444526Y-80011364D01*
X135337360Y-79982649D01*
X135241276Y-79927175D01*
X135162825Y-79848724D01*
X135107351Y-79752640D01*
X135078636Y-79645474D01*
X135078636Y-79534526D01*
X135107351Y-79427360D01*
X135162825Y-79331276D01*
X135241276Y-79252825D01*
X135337360Y-79197351D01*
X135444526Y-79168636D01*
X135555474Y-79168636D01*
X135662640Y-79197351D01*
G37*
G36*
X169662640Y-79107351D02*
G01*
X169758724Y-79162825D01*
X169837175Y-79241276D01*
X169892649Y-79337360D01*
X169921364Y-79444526D01*
X169921364Y-79555474D01*
X169892649Y-79662640D01*
X169837175Y-79758724D01*
X169758724Y-79837175D01*
X169662640Y-79892649D01*
X169555474Y-79921364D01*
X169444526Y-79921364D01*
X169337360Y-79892649D01*
X169241276Y-79837175D01*
X169162825Y-79758724D01*
X169107351Y-79662640D01*
X169078636Y-79555474D01*
X169078636Y-79444526D01*
X169107351Y-79337360D01*
X169162825Y-79241276D01*
X169241276Y-79162825D01*
X169337360Y-79107351D01*
X169444526Y-79078636D01*
X169555474Y-79078636D01*
X169662640Y-79107351D01*
G37*
G36*
X135662640Y-78197351D02*
G01*
X135758724Y-78252825D01*
X135837175Y-78331276D01*
X135892649Y-78427360D01*
X135921364Y-78534526D01*
X135921364Y-78645474D01*
X135892649Y-78752640D01*
X135837175Y-78848724D01*
X135758724Y-78927175D01*
X135662640Y-78982649D01*
X135555474Y-79011364D01*
X135444526Y-79011364D01*
X135337360Y-78982649D01*
X135241276Y-78927175D01*
X135162825Y-78848724D01*
X135107351Y-78752640D01*
X135078636Y-78645474D01*
X135078636Y-78534526D01*
X135107351Y-78427360D01*
X135162825Y-78331276D01*
X135241276Y-78252825D01*
X135337360Y-78197351D01*
X135444526Y-78168636D01*
X135555474Y-78168636D01*
X135662640Y-78197351D01*
G37*
G36*
X169662640Y-78107351D02*
G01*
X169758724Y-78162825D01*
X169837175Y-78241276D01*
X169892649Y-78337360D01*
X169921364Y-78444526D01*
X169921364Y-78555474D01*
X169892649Y-78662640D01*
X169837175Y-78758724D01*
X169758724Y-78837175D01*
X169662640Y-78892649D01*
X169555474Y-78921364D01*
X169444526Y-78921364D01*
X169337360Y-78892649D01*
X169241276Y-78837175D01*
X169162825Y-78758724D01*
X169107351Y-78662640D01*
X169078636Y-78555474D01*
X169078636Y-78444526D01*
X169107351Y-78337360D01*
X169162825Y-78241276D01*
X169241276Y-78162825D01*
X169337360Y-78107351D01*
X169444526Y-78078636D01*
X169555474Y-78078636D01*
X169662640Y-78107351D01*
G37*
G36*
X135662640Y-77197351D02*
G01*
X135758724Y-77252825D01*
X135837175Y-77331276D01*
X135892649Y-77427360D01*
X135921364Y-77534526D01*
X135921364Y-77645474D01*
X135892649Y-77752640D01*
X135837175Y-77848724D01*
X135758724Y-77927175D01*
X135662640Y-77982649D01*
X135555474Y-78011364D01*
X135444526Y-78011364D01*
X135337360Y-77982649D01*
X135241276Y-77927175D01*
X135162825Y-77848724D01*
X135107351Y-77752640D01*
X135078636Y-77645474D01*
X135078636Y-77534526D01*
X135107351Y-77427360D01*
X135162825Y-77331276D01*
X135241276Y-77252825D01*
X135337360Y-77197351D01*
X135444526Y-77168636D01*
X135555474Y-77168636D01*
X135662640Y-77197351D01*
G37*
G36*
X146195000Y-78010000D02*
G01*
X145295000Y-78010000D01*
X145295000Y-76510000D01*
X146195000Y-76510000D01*
X146195000Y-78010000D01*
G37*
G36*
X147465000Y-78010000D02*
G01*
X146565000Y-78010000D01*
X146565000Y-76510000D01*
X147465000Y-76510000D01*
X147465000Y-78010000D01*
G37*
G36*
X148735000Y-78010000D02*
G01*
X147835000Y-78010000D01*
X147835000Y-76510000D01*
X148735000Y-76510000D01*
X148735000Y-78010000D01*
G37*
G36*
X150005000Y-78010000D02*
G01*
X149105000Y-78010000D01*
X149105000Y-76510000D01*
X150005000Y-76510000D01*
X150005000Y-78010000D01*
G37*
G36*
X151275000Y-78010000D02*
G01*
X150375000Y-78010000D01*
X150375000Y-76510000D01*
X151275000Y-76510000D01*
X151275000Y-78010000D01*
G37*
G36*
X152545000Y-78010000D02*
G01*
X151645000Y-78010000D01*
X151645000Y-76510000D01*
X152545000Y-76510000D01*
X152545000Y-78010000D01*
G37*
G36*
X153815000Y-78010000D02*
G01*
X152915000Y-78010000D01*
X152915000Y-76510000D01*
X153815000Y-76510000D01*
X153815000Y-78010000D01*
G37*
G36*
X155085000Y-78010000D02*
G01*
X154185000Y-78010000D01*
X154185000Y-76510000D01*
X155085000Y-76510000D01*
X155085000Y-78010000D01*
G37*
G36*
X156355000Y-78010000D02*
G01*
X155455000Y-78010000D01*
X155455000Y-76510000D01*
X156355000Y-76510000D01*
X156355000Y-78010000D01*
G37*
G36*
X157625000Y-78010000D02*
G01*
X156725000Y-78010000D01*
X156725000Y-76510000D01*
X157625000Y-76510000D01*
X157625000Y-78010000D01*
G37*
G36*
X158895000Y-78010000D02*
G01*
X157995000Y-78010000D01*
X157995000Y-76510000D01*
X158895000Y-76510000D01*
X158895000Y-78010000D01*
G37*
G36*
X160165000Y-78010000D02*
G01*
X159265000Y-78010000D01*
X159265000Y-76510000D01*
X160165000Y-76510000D01*
X160165000Y-78010000D01*
G37*
G36*
X169662640Y-77107351D02*
G01*
X169758724Y-77162825D01*
X169837175Y-77241276D01*
X169892649Y-77337360D01*
X169921364Y-77444526D01*
X169921364Y-77555474D01*
X169892649Y-77662640D01*
X169837175Y-77758724D01*
X169758724Y-77837175D01*
X169662640Y-77892649D01*
X169555474Y-77921364D01*
X169444526Y-77921364D01*
X169337360Y-77892649D01*
X169241276Y-77837175D01*
X169162825Y-77758724D01*
X169107351Y-77662640D01*
X169078636Y-77555474D01*
X169078636Y-77444526D01*
X169107351Y-77337360D01*
X169162825Y-77241276D01*
X169241276Y-77162825D01*
X169337360Y-77107351D01*
X169444526Y-77078636D01*
X169555474Y-77078636D01*
X169662640Y-77107351D01*
G37*
G36*
X135662640Y-76197351D02*
G01*
X135758724Y-76252825D01*
X135837175Y-76331276D01*
X135892649Y-76427360D01*
X135921364Y-76534526D01*
X135921364Y-76645474D01*
X135892649Y-76752640D01*
X135837175Y-76848724D01*
X135758724Y-76927175D01*
X135662640Y-76982649D01*
X135555474Y-77011364D01*
X135444526Y-77011364D01*
X135337360Y-76982649D01*
X135241276Y-76927175D01*
X135162825Y-76848724D01*
X135107351Y-76752640D01*
X135078636Y-76645474D01*
X135078636Y-76534526D01*
X135107351Y-76427360D01*
X135162825Y-76331276D01*
X135241276Y-76252825D01*
X135337360Y-76197351D01*
X135444526Y-76168636D01*
X135555474Y-76168636D01*
X135662640Y-76197351D01*
G37*
G36*
X169662640Y-76107351D02*
G01*
X169758724Y-76162825D01*
X169837175Y-76241276D01*
X169892649Y-76337360D01*
X169921364Y-76444526D01*
X169921364Y-76555474D01*
X169892649Y-76662640D01*
X169837175Y-76758724D01*
X169758724Y-76837175D01*
X169662640Y-76892649D01*
X169555474Y-76921364D01*
X169444526Y-76921364D01*
X169337360Y-76892649D01*
X169241276Y-76837175D01*
X169162825Y-76758724D01*
X169107351Y-76662640D01*
X169078636Y-76555474D01*
X169078636Y-76444526D01*
X169107351Y-76337360D01*
X169162825Y-76241276D01*
X169241276Y-76162825D01*
X169337360Y-76107351D01*
X169444526Y-76078636D01*
X169555474Y-76078636D01*
X169662640Y-76107351D01*
G37*
G36*
X144730000Y-76460000D02*
G01*
X143230000Y-76460000D01*
X143230000Y-75560000D01*
X144730000Y-75560000D01*
X144730000Y-76460000D01*
G37*
G36*
X162230000Y-76460000D02*
G01*
X160730000Y-76460000D01*
X160730000Y-75560000D01*
X162230000Y-75560000D01*
X162230000Y-76460000D01*
G37*
G36*
X135662640Y-75197351D02*
G01*
X135758724Y-75252825D01*
X135837175Y-75331276D01*
X135892649Y-75427360D01*
X135921364Y-75534526D01*
X135921364Y-75645474D01*
X135892649Y-75752640D01*
X135837175Y-75848724D01*
X135758724Y-75927175D01*
X135662640Y-75982649D01*
X135555474Y-76011364D01*
X135444526Y-76011364D01*
X135337360Y-75982649D01*
X135241276Y-75927175D01*
X135162825Y-75848724D01*
X135107351Y-75752640D01*
X135078636Y-75645474D01*
X135078636Y-75534526D01*
X135107351Y-75427360D01*
X135162825Y-75331276D01*
X135241276Y-75252825D01*
X135337360Y-75197351D01*
X135444526Y-75168636D01*
X135555474Y-75168636D01*
X135662640Y-75197351D01*
G37*
G36*
X169662640Y-75107351D02*
G01*
X169758724Y-75162825D01*
X169837175Y-75241276D01*
X169892649Y-75337360D01*
X169921364Y-75444526D01*
X169921364Y-75555474D01*
X169892649Y-75662640D01*
X169837175Y-75758724D01*
X169758724Y-75837175D01*
X169662640Y-75892649D01*
X169555474Y-75921364D01*
X169444526Y-75921364D01*
X169337360Y-75892649D01*
X169241276Y-75837175D01*
X169162825Y-75758724D01*
X169107351Y-75662640D01*
X169078636Y-75555474D01*
X169078636Y-75444526D01*
X169107351Y-75337360D01*
X169162825Y-75241276D01*
X169241276Y-75162825D01*
X169337360Y-75107351D01*
X169444526Y-75078636D01*
X169555474Y-75078636D01*
X169662640Y-75107351D01*
G37*
G36*
X144730000Y-75190000D02*
G01*
X143230000Y-75190000D01*
X143230000Y-74290000D01*
X144730000Y-74290000D01*
X144730000Y-75190000D01*
G37*
G36*
X162230000Y-75190000D02*
G01*
X160730000Y-75190000D01*
X160730000Y-74290000D01*
X162230000Y-74290000D01*
X162230000Y-75190000D01*
G37*
G36*
X135662640Y-74197351D02*
G01*
X135758724Y-74252825D01*
X135837175Y-74331276D01*
X135892649Y-74427360D01*
X135921364Y-74534526D01*
X135921364Y-74645474D01*
X135892649Y-74752640D01*
X135837175Y-74848724D01*
X135758724Y-74927175D01*
X135662640Y-74982649D01*
X135555474Y-75011364D01*
X135444526Y-75011364D01*
X135337360Y-74982649D01*
X135241276Y-74927175D01*
X135162825Y-74848724D01*
X135107351Y-74752640D01*
X135078636Y-74645474D01*
X135078636Y-74534526D01*
X135107351Y-74427360D01*
X135162825Y-74331276D01*
X135241276Y-74252825D01*
X135337360Y-74197351D01*
X135444526Y-74168636D01*
X135555474Y-74168636D01*
X135662640Y-74197351D01*
G37*
G36*
X169662640Y-74107351D02*
G01*
X169758724Y-74162825D01*
X169837175Y-74241276D01*
X169892649Y-74337360D01*
X169921364Y-74444526D01*
X169921364Y-74555474D01*
X169892649Y-74662640D01*
X169837175Y-74758724D01*
X169758724Y-74837175D01*
X169662640Y-74892649D01*
X169555474Y-74921364D01*
X169444526Y-74921364D01*
X169337360Y-74892649D01*
X169241276Y-74837175D01*
X169162825Y-74758724D01*
X169107351Y-74662640D01*
X169078636Y-74555474D01*
X169078636Y-74444526D01*
X169107351Y-74337360D01*
X169162825Y-74241276D01*
X169241276Y-74162825D01*
X169337360Y-74107351D01*
X169444526Y-74078636D01*
X169555474Y-74078636D01*
X169662640Y-74107351D01*
G37*
G36*
X135662640Y-73197351D02*
G01*
X135758724Y-73252825D01*
X135837175Y-73331276D01*
X135892649Y-73427360D01*
X135921364Y-73534526D01*
X135921364Y-73645474D01*
X135892649Y-73752640D01*
X135837175Y-73848724D01*
X135758724Y-73927175D01*
X135662640Y-73982649D01*
X135555474Y-74011364D01*
X135444526Y-74011364D01*
X135337360Y-73982649D01*
X135241276Y-73927175D01*
X135162825Y-73848724D01*
X135107351Y-73752640D01*
X135078636Y-73645474D01*
X135078636Y-73534526D01*
X135107351Y-73427360D01*
X135162825Y-73331276D01*
X135241276Y-73252825D01*
X135337360Y-73197351D01*
X135444526Y-73168636D01*
X135555474Y-73168636D01*
X135662640Y-73197351D01*
G37*
G36*
X169662640Y-73107351D02*
G01*
X169758724Y-73162825D01*
X169837175Y-73241276D01*
X169892649Y-73337360D01*
X169921364Y-73444526D01*
X169921364Y-73555474D01*
X169892649Y-73662640D01*
X169837175Y-73758724D01*
X169758724Y-73837175D01*
X169662640Y-73892649D01*
X169555474Y-73921364D01*
X169444526Y-73921364D01*
X169337360Y-73892649D01*
X169241276Y-73837175D01*
X169162825Y-73758724D01*
X169107351Y-73662640D01*
X169078636Y-73555474D01*
X169078636Y-73444526D01*
X169107351Y-73337360D01*
X169162825Y-73241276D01*
X169241276Y-73162825D01*
X169337360Y-73107351D01*
X169444526Y-73078636D01*
X169555474Y-73078636D01*
X169662640Y-73107351D01*
G37*
G36*
X144730000Y-73920000D02*
G01*
X143230000Y-73920000D01*
X143230000Y-73020000D01*
X144730000Y-73020000D01*
X144730000Y-73920000D01*
G37*
G36*
X162230000Y-73920000D02*
G01*
X160730000Y-73920000D01*
X160730000Y-73020000D01*
X162230000Y-73020000D01*
X162230000Y-73920000D01*
G37*
G36*
X135662640Y-72197351D02*
G01*
X135758724Y-72252825D01*
X135837175Y-72331276D01*
X135892649Y-72427360D01*
X135921364Y-72534526D01*
X135921364Y-72645474D01*
X135892649Y-72752640D01*
X135837175Y-72848724D01*
X135758724Y-72927175D01*
X135662640Y-72982649D01*
X135555474Y-73011364D01*
X135444526Y-73011364D01*
X135337360Y-72982649D01*
X135241276Y-72927175D01*
X135162825Y-72848724D01*
X135107351Y-72752640D01*
X135078636Y-72645474D01*
X135078636Y-72534526D01*
X135107351Y-72427360D01*
X135162825Y-72331276D01*
X135241276Y-72252825D01*
X135337360Y-72197351D01*
X135444526Y-72168636D01*
X135555474Y-72168636D01*
X135662640Y-72197351D01*
G37*
G36*
X169662640Y-72107351D02*
G01*
X169758724Y-72162825D01*
X169837175Y-72241276D01*
X169892649Y-72337360D01*
X169921364Y-72444526D01*
X169921364Y-72555474D01*
X169892649Y-72662640D01*
X169837175Y-72758724D01*
X169758724Y-72837175D01*
X169662640Y-72892649D01*
X169555474Y-72921364D01*
X169444526Y-72921364D01*
X169337360Y-72892649D01*
X169241276Y-72837175D01*
X169162825Y-72758724D01*
X169107351Y-72662640D01*
X169078636Y-72555474D01*
X169078636Y-72444526D01*
X169107351Y-72337360D01*
X169162825Y-72241276D01*
X169241276Y-72162825D01*
X169337360Y-72107351D01*
X169444526Y-72078636D01*
X169555474Y-72078636D01*
X169662640Y-72107351D01*
G37*
G36*
X144730000Y-72650000D02*
G01*
X143230000Y-72650000D01*
X143230000Y-71750000D01*
X144730000Y-71750000D01*
X144730000Y-72650000D01*
G37*
G36*
X162230000Y-72650000D02*
G01*
X160730000Y-72650000D01*
X160730000Y-71750000D01*
X162230000Y-71750000D01*
X162230000Y-72650000D01*
G37*
G36*
X135662640Y-71197351D02*
G01*
X135758724Y-71252825D01*
X135837175Y-71331276D01*
X135892649Y-71427360D01*
X135921364Y-71534526D01*
X135921364Y-71645474D01*
X135892649Y-71752640D01*
X135837175Y-71848724D01*
X135758724Y-71927175D01*
X135662640Y-71982649D01*
X135555474Y-72011364D01*
X135444526Y-72011364D01*
X135337360Y-71982649D01*
X135241276Y-71927175D01*
X135162825Y-71848724D01*
X135107351Y-71752640D01*
X135078636Y-71645474D01*
X135078636Y-71534526D01*
X135107351Y-71427360D01*
X135162825Y-71331276D01*
X135241276Y-71252825D01*
X135337360Y-71197351D01*
X135444526Y-71168636D01*
X135555474Y-71168636D01*
X135662640Y-71197351D01*
G37*
G36*
X169662640Y-71107351D02*
G01*
X169758724Y-71162825D01*
X169837175Y-71241276D01*
X169892649Y-71337360D01*
X169921364Y-71444526D01*
X169921364Y-71555474D01*
X169892649Y-71662640D01*
X169837175Y-71758724D01*
X169758724Y-71837175D01*
X169662640Y-71892649D01*
X169555474Y-71921364D01*
X169444526Y-71921364D01*
X169337360Y-71892649D01*
X169241276Y-71837175D01*
X169162825Y-71758724D01*
X169107351Y-71662640D01*
X169078636Y-71555474D01*
X169078636Y-71444526D01*
X169107351Y-71337360D01*
X169162825Y-71241276D01*
X169241276Y-71162825D01*
X169337360Y-71107351D01*
X169444526Y-71078636D01*
X169555474Y-71078636D01*
X169662640Y-71107351D01*
G37*
G36*
X144730000Y-71380000D02*
G01*
X143230000Y-71380000D01*
X143230000Y-70480000D01*
X144730000Y-70480000D01*
X144730000Y-71380000D01*
G37*
G36*
X162230000Y-71380000D02*
G01*
X160730000Y-71380000D01*
X160730000Y-70480000D01*
X162230000Y-70480000D01*
X162230000Y-71380000D01*
G37*
G36*
X135662640Y-70197351D02*
G01*
X135758724Y-70252825D01*
X135837175Y-70331276D01*
X135892649Y-70427360D01*
X135921364Y-70534526D01*
X135921364Y-70645474D01*
X135892649Y-70752640D01*
X135837175Y-70848724D01*
X135758724Y-70927175D01*
X135662640Y-70982649D01*
X135555474Y-71011364D01*
X135444526Y-71011364D01*
X135337360Y-70982649D01*
X135241276Y-70927175D01*
X135162825Y-70848724D01*
X135107351Y-70752640D01*
X135078636Y-70645474D01*
X135078636Y-70534526D01*
X135107351Y-70427360D01*
X135162825Y-70331276D01*
X135241276Y-70252825D01*
X135337360Y-70197351D01*
X135444526Y-70168636D01*
X135555474Y-70168636D01*
X135662640Y-70197351D01*
G37*
G36*
X169925000Y-70925000D02*
G01*
X169075000Y-70925000D01*
X169075000Y-70075000D01*
X169925000Y-70075000D01*
X169925000Y-70925000D01*
G37*
G36*
X144730000Y-70110000D02*
G01*
X143230000Y-70110000D01*
X143230000Y-69210000D01*
X144730000Y-69210000D01*
X144730000Y-70110000D01*
G37*
G36*
X162230000Y-70110000D02*
G01*
X160730000Y-70110000D01*
X160730000Y-69210000D01*
X162230000Y-69210000D01*
X162230000Y-70110000D01*
G37*
G36*
X135925000Y-70015000D02*
G01*
X135075000Y-70015000D01*
X135075000Y-69165000D01*
X135925000Y-69165000D01*
X135925000Y-70015000D01*
G37*
G36*
X153180000Y-69170000D02*
G01*
X149280000Y-69170000D01*
X149280000Y-65270000D01*
X153180000Y-65270000D01*
X153180000Y-69170000D01*
G37*
G36*
X144730000Y-68840000D02*
G01*
X143230000Y-68840000D01*
X143230000Y-67940000D01*
X144730000Y-67940000D01*
X144730000Y-68840000D01*
G37*
G36*
X162230000Y-68840000D02*
G01*
X160730000Y-68840000D01*
X160730000Y-67940000D01*
X162230000Y-67940000D01*
X162230000Y-68840000D01*
G37*
G36*
X134274850Y-66823964D02*
G01*
X134325040Y-66829787D01*
X134342189Y-66837359D01*
X134365671Y-66842030D01*
X134390810Y-66858827D01*
X134410696Y-66867608D01*
X134424277Y-66881189D01*
X134446777Y-66896223D01*
X134461810Y-66918722D01*
X134475391Y-66932303D01*
X134484170Y-66952186D01*
X134500970Y-66977329D01*
X134505641Y-67000812D01*
X134513212Y-67017959D01*
X134519033Y-67068139D01*
X134520000Y-67073000D01*
X134520000Y-68023000D01*
X134519032Y-68027863D01*
X134513212Y-68078040D01*
X134505641Y-68095185D01*
X134500970Y-68118671D01*
X134484169Y-68143815D01*
X134475391Y-68163696D01*
X134461812Y-68177274D01*
X134446777Y-68199777D01*
X134424274Y-68214812D01*
X134410696Y-68228391D01*
X134390815Y-68237169D01*
X134365671Y-68253970D01*
X134342185Y-68258641D01*
X134325040Y-68266212D01*
X134274861Y-68272032D01*
X134270000Y-68273000D01*
X133770000Y-68273000D01*
X133765138Y-68272032D01*
X133714959Y-68266212D01*
X133697812Y-68258641D01*
X133674329Y-68253970D01*
X133649186Y-68237170D01*
X133629303Y-68228391D01*
X133615722Y-68214810D01*
X133593223Y-68199777D01*
X133578189Y-68177277D01*
X133564608Y-68163696D01*
X133555827Y-68143810D01*
X133539030Y-68118671D01*
X133534359Y-68095189D01*
X133526787Y-68078040D01*
X133520964Y-68027849D01*
X133520000Y-68023000D01*
X133520000Y-67073000D01*
X133520964Y-67068150D01*
X133526787Y-67017959D01*
X133534359Y-67000808D01*
X133539030Y-66977329D01*
X133555826Y-66952191D01*
X133564608Y-66932303D01*
X133578191Y-66918719D01*
X133593223Y-66896223D01*
X133615719Y-66881191D01*
X133629303Y-66867608D01*
X133649191Y-66858826D01*
X133674329Y-66842030D01*
X133697808Y-66837359D01*
X133714959Y-66829787D01*
X133765151Y-66823964D01*
X133770000Y-66823000D01*
X134270000Y-66823000D01*
X134274850Y-66823964D01*
G37*
G36*
X136174850Y-66823964D02*
G01*
X136225040Y-66829787D01*
X136242189Y-66837359D01*
X136265671Y-66842030D01*
X136290810Y-66858827D01*
X136310696Y-66867608D01*
X136324277Y-66881189D01*
X136346777Y-66896223D01*
X136361810Y-66918722D01*
X136375391Y-66932303D01*
X136384170Y-66952186D01*
X136400970Y-66977329D01*
X136405641Y-67000812D01*
X136413212Y-67017959D01*
X136419033Y-67068139D01*
X136420000Y-67073000D01*
X136420000Y-68023000D01*
X136419032Y-68027863D01*
X136413212Y-68078040D01*
X136405641Y-68095185D01*
X136400970Y-68118671D01*
X136384169Y-68143815D01*
X136375391Y-68163696D01*
X136361812Y-68177274D01*
X136346777Y-68199777D01*
X136324274Y-68214812D01*
X136310696Y-68228391D01*
X136290815Y-68237169D01*
X136265671Y-68253970D01*
X136242185Y-68258641D01*
X136225040Y-68266212D01*
X136174861Y-68272032D01*
X136170000Y-68273000D01*
X135670000Y-68273000D01*
X135665138Y-68272032D01*
X135614959Y-68266212D01*
X135597812Y-68258641D01*
X135574329Y-68253970D01*
X135549186Y-68237170D01*
X135529303Y-68228391D01*
X135515722Y-68214810D01*
X135493223Y-68199777D01*
X135478189Y-68177277D01*
X135464608Y-68163696D01*
X135455827Y-68143810D01*
X135439030Y-68118671D01*
X135434359Y-68095189D01*
X135426787Y-68078040D01*
X135420964Y-68027849D01*
X135420000Y-68023000D01*
X135420000Y-67073000D01*
X135420964Y-67068150D01*
X135426787Y-67017959D01*
X135434359Y-67000808D01*
X135439030Y-66977329D01*
X135455826Y-66952191D01*
X135464608Y-66932303D01*
X135478191Y-66918719D01*
X135493223Y-66896223D01*
X135515719Y-66881191D01*
X135529303Y-66867608D01*
X135549191Y-66858826D01*
X135574329Y-66842030D01*
X135597808Y-66837359D01*
X135614959Y-66829787D01*
X135665151Y-66823964D01*
X135670000Y-66823000D01*
X136170000Y-66823000D01*
X136174850Y-66823964D01*
G37*
G36*
X138274850Y-66823964D02*
G01*
X138325040Y-66829787D01*
X138342189Y-66837359D01*
X138365671Y-66842030D01*
X138390810Y-66858827D01*
X138410696Y-66867608D01*
X138424277Y-66881189D01*
X138446777Y-66896223D01*
X138461810Y-66918722D01*
X138475391Y-66932303D01*
X138484170Y-66952186D01*
X138500970Y-66977329D01*
X138505641Y-67000812D01*
X138513212Y-67017959D01*
X138519033Y-67068139D01*
X138520000Y-67073000D01*
X138520000Y-68023000D01*
X138519032Y-68027863D01*
X138513212Y-68078040D01*
X138505641Y-68095185D01*
X138500970Y-68118671D01*
X138484169Y-68143815D01*
X138475391Y-68163696D01*
X138461812Y-68177274D01*
X138446777Y-68199777D01*
X138424274Y-68214812D01*
X138410696Y-68228391D01*
X138390815Y-68237169D01*
X138365671Y-68253970D01*
X138342185Y-68258641D01*
X138325040Y-68266212D01*
X138274861Y-68272032D01*
X138270000Y-68273000D01*
X137770000Y-68273000D01*
X137765138Y-68272032D01*
X137714959Y-68266212D01*
X137697812Y-68258641D01*
X137674329Y-68253970D01*
X137649186Y-68237170D01*
X137629303Y-68228391D01*
X137615722Y-68214810D01*
X137593223Y-68199777D01*
X137578189Y-68177277D01*
X137564608Y-68163696D01*
X137555827Y-68143810D01*
X137539030Y-68118671D01*
X137534359Y-68095189D01*
X137526787Y-68078040D01*
X137520964Y-68027849D01*
X137520000Y-68023000D01*
X137520000Y-67073000D01*
X137520964Y-67068150D01*
X137526787Y-67017959D01*
X137534359Y-67000808D01*
X137539030Y-66977329D01*
X137555826Y-66952191D01*
X137564608Y-66932303D01*
X137578191Y-66918719D01*
X137593223Y-66896223D01*
X137615719Y-66881191D01*
X137629303Y-66867608D01*
X137649191Y-66858826D01*
X137674329Y-66842030D01*
X137697808Y-66837359D01*
X137714959Y-66829787D01*
X137765151Y-66823964D01*
X137770000Y-66823000D01*
X138270000Y-66823000D01*
X138274850Y-66823964D01*
G37*
G36*
X140174850Y-66823964D02*
G01*
X140225040Y-66829787D01*
X140242189Y-66837359D01*
X140265671Y-66842030D01*
X140290810Y-66858827D01*
X140310696Y-66867608D01*
X140324277Y-66881189D01*
X140346777Y-66896223D01*
X140361810Y-66918722D01*
X140375391Y-66932303D01*
X140384170Y-66952186D01*
X140400970Y-66977329D01*
X140405641Y-67000812D01*
X140413212Y-67017959D01*
X140419033Y-67068139D01*
X140420000Y-67073000D01*
X140420000Y-68023000D01*
X140419032Y-68027863D01*
X140413212Y-68078040D01*
X140405641Y-68095185D01*
X140400970Y-68118671D01*
X140384169Y-68143815D01*
X140375391Y-68163696D01*
X140361812Y-68177274D01*
X140346777Y-68199777D01*
X140324274Y-68214812D01*
X140310696Y-68228391D01*
X140290815Y-68237169D01*
X140265671Y-68253970D01*
X140242185Y-68258641D01*
X140225040Y-68266212D01*
X140174861Y-68272032D01*
X140170000Y-68273000D01*
X139670000Y-68273000D01*
X139665138Y-68272032D01*
X139614959Y-68266212D01*
X139597812Y-68258641D01*
X139574329Y-68253970D01*
X139549186Y-68237170D01*
X139529303Y-68228391D01*
X139515722Y-68214810D01*
X139493223Y-68199777D01*
X139478189Y-68177277D01*
X139464608Y-68163696D01*
X139455827Y-68143810D01*
X139439030Y-68118671D01*
X139434359Y-68095189D01*
X139426787Y-68078040D01*
X139420964Y-68027849D01*
X139420000Y-68023000D01*
X139420000Y-67073000D01*
X139420964Y-67068150D01*
X139426787Y-67017959D01*
X139434359Y-67000808D01*
X139439030Y-66977329D01*
X139455826Y-66952191D01*
X139464608Y-66932303D01*
X139478191Y-66918719D01*
X139493223Y-66896223D01*
X139515719Y-66881191D01*
X139529303Y-66867608D01*
X139549191Y-66858826D01*
X139574329Y-66842030D01*
X139597808Y-66837359D01*
X139614959Y-66829787D01*
X139665151Y-66823964D01*
X139670000Y-66823000D01*
X140170000Y-66823000D01*
X140174850Y-66823964D01*
G37*
G36*
X144730000Y-67570000D02*
G01*
X143230000Y-67570000D01*
X143230000Y-66670000D01*
X144730000Y-66670000D01*
X144730000Y-67570000D01*
G37*
G36*
X162230000Y-67570000D02*
G01*
X160730000Y-67570000D01*
X160730000Y-66670000D01*
X162230000Y-66670000D01*
X162230000Y-67570000D01*
G37*
G36*
X144730000Y-66300000D02*
G01*
X143230000Y-66300000D01*
X143230000Y-65400000D01*
X144730000Y-65400000D01*
X144730000Y-66300000D01*
G37*
G36*
X162230000Y-66300000D02*
G01*
X160730000Y-66300000D01*
X160730000Y-65400000D01*
X162230000Y-65400000D01*
X162230000Y-66300000D01*
G37*
G36*
X144730000Y-65030000D02*
G01*
X143230000Y-65030000D01*
X143230000Y-64130000D01*
X144730000Y-64130000D01*
X144730000Y-65030000D01*
G37*
G36*
X162230000Y-65030000D02*
G01*
X160730000Y-65030000D01*
X160730000Y-64130000D01*
X162230000Y-64130000D01*
X162230000Y-65030000D01*
G37*
G36*
X137841408Y-60783626D02*
G01*
X138062519Y-60842872D01*
X138274005Y-60930473D01*
X138472248Y-61044928D01*
X138653855Y-61184280D01*
X138815720Y-61346145D01*
X138955072Y-61527752D01*
X139069527Y-61725995D01*
X139157128Y-61937481D01*
X139216374Y-62158592D01*
X139246253Y-62385545D01*
X139246253Y-62614455D01*
X139216374Y-62841408D01*
X139157128Y-63062519D01*
X139069527Y-63274005D01*
X138955072Y-63472248D01*
X138815720Y-63653855D01*
X138653855Y-63815720D01*
X138472248Y-63955072D01*
X138274005Y-64069527D01*
X138062519Y-64157128D01*
X137841408Y-64216374D01*
X137614455Y-64246253D01*
X137385545Y-64246253D01*
X137158592Y-64216374D01*
X136937481Y-64157128D01*
X136725995Y-64069527D01*
X136527752Y-63955072D01*
X136346145Y-63815720D01*
X136184280Y-63653855D01*
X136044928Y-63472248D01*
X135930473Y-63274005D01*
X135842872Y-63062519D01*
X135783626Y-62841408D01*
X135753747Y-62614455D01*
X135753747Y-62385545D01*
X135783626Y-62158592D01*
X135842872Y-61937481D01*
X135930473Y-61725995D01*
X136044928Y-61527752D01*
X136184280Y-61346145D01*
X136346145Y-61184280D01*
X136527752Y-61044928D01*
X136725995Y-60930473D01*
X136937481Y-60842872D01*
X137158592Y-60783626D01*
X137385545Y-60753747D01*
X137614455Y-60753747D01*
X137841408Y-60783626D01*
G37*
G36*
X168841408Y-60783626D02*
G01*
X169062519Y-60842872D01*
X169274005Y-60930473D01*
X169472248Y-61044928D01*
X169653855Y-61184280D01*
X169815720Y-61346145D01*
X169955072Y-61527752D01*
X170069527Y-61725995D01*
X170157128Y-61937481D01*
X170216374Y-62158592D01*
X170246253Y-62385545D01*
X170246253Y-62614455D01*
X170216374Y-62841408D01*
X170157128Y-63062519D01*
X170069527Y-63274005D01*
X169955072Y-63472248D01*
X169815720Y-63653855D01*
X169653855Y-63815720D01*
X169472248Y-63955072D01*
X169274005Y-64069527D01*
X169062519Y-64157128D01*
X168841408Y-64216374D01*
X168614455Y-64246253D01*
X168385545Y-64246253D01*
X168158592Y-64216374D01*
X167937481Y-64157128D01*
X167725995Y-64069527D01*
X167527752Y-63955072D01*
X167346145Y-63815720D01*
X167184280Y-63653855D01*
X167044928Y-63472248D01*
X166930473Y-63274005D01*
X166842872Y-63062519D01*
X166783626Y-62841408D01*
X166753747Y-62614455D01*
X166753747Y-62385545D01*
X166783626Y-62158592D01*
X166842872Y-61937481D01*
X166930473Y-61725995D01*
X167044928Y-61527752D01*
X167184280Y-61346145D01*
X167346145Y-61184280D01*
X167527752Y-61044928D01*
X167725995Y-60930473D01*
X167937481Y-60842872D01*
X168158592Y-60783626D01*
X168385545Y-60753747D01*
X168614455Y-60753747D01*
X168841408Y-60783626D01*
G37*
G36*
X144730000Y-63760000D02*
G01*
X143230000Y-63760000D01*
X143230000Y-62860000D01*
X144730000Y-62860000D01*
X144730000Y-63760000D01*
G37*
G36*
X162230000Y-63760000D02*
G01*
X160730000Y-63760000D01*
X160730000Y-62860000D01*
X162230000Y-62860000D01*
X162230000Y-63760000D01*
G37*
G36*
X144730000Y-62490000D02*
G01*
X143230000Y-62490000D01*
X143230000Y-61590000D01*
X144730000Y-61590000D01*
X144730000Y-62490000D01*
G37*
G36*
X162230000Y-62490000D02*
G01*
X160730000Y-62490000D01*
X160730000Y-61590000D01*
X162230000Y-61590000D01*
X162230000Y-62490000D01*
G37*
G36*
X144730000Y-61220000D02*
G01*
X143230000Y-61220000D01*
X143230000Y-60320000D01*
X144730000Y-60320000D01*
X144730000Y-61220000D01*
G37*
G36*
X162230000Y-61220000D02*
G01*
X160730000Y-61220000D01*
X160730000Y-60320000D01*
X162230000Y-60320000D01*
X162230000Y-61220000D01*
G37*
G36*
X144730000Y-59950000D02*
G01*
X143230000Y-59950000D01*
X143230000Y-59050000D01*
X144730000Y-59050000D01*
X144730000Y-59950000D01*
G37*
G36*
X162230000Y-59950000D02*
G01*
X160730000Y-59950000D01*
X160730000Y-59050000D01*
X162230000Y-59050000D01*
X162230000Y-59950000D01*
G37*
%LPD*%
M02*
