M48
; DRILL file KiCad 10.0.1 date 2026-09-08T18:33:28
; FORMAT={-:-/ absolute / inch / decimal}
; #@! TF.CreationDate,2026-09-08T18:33:28+02:00
; #@! TF.GenerationSoftware,Kicad,Pcbnew,10.0.1
; #@! TF.FileFunction,Plated,1,2,PTH
FMAT,2
INCH
; #@! TA.AperFunction,Plated,PTH,ViaDrill
T1C0.0118
; #@! TA.AperFunction,Plated,PTH,ComponentDrill
T2C0.0118
; #@! TA.AperFunction,Plated,PTH,ComponentDrill
T3C0.0197
; #@! TA.AperFunction,Plated,PTH,ComponentDrill
T4C0.0236
; #@! TA.AperFunction,Plated,PTH,ComponentDrill
T5C0.0354
%
G90
G05
T1
X5.4335Y-3.2132
X5.4539Y-3.4608
X5.6669Y-2.7925
X5.6685Y-2.8425
X5.6689Y-2.8925
X5.6693Y-2.4425
X5.6693Y-2.9425
X5.6693Y-2.9925
X5.672Y-2.6949
X5.6781Y-3.9104
X5.7006Y-3.2476
X5.7059Y-3.3654
X5.7065Y-3.4785
X5.7106Y-4.2295
X5.726Y-3.1898
X5.7327Y-3.3087
X5.74Y-3.424
X5.752Y-4.11
X5.8189Y-4.0029
X5.8563Y-4.0925
X5.8937Y-4.0029
X5.9236Y-3.6614
X5.928Y-3.2972
X5.9405Y-3.4094
X5.9433Y-3.5217
X5.9441Y-4.1252
X5.9555Y-3.7008
X5.9626Y-4.2295
X5.9767Y-3.5449
X6.0287Y-3.5449
X6.0319Y-3.1083
X6.035Y-4.0606
X6.0748Y-3.6614
X6.0803Y-3.3535
X6.128Y-3.9579
X6.1374Y-3.1787
X6.1488Y-3.1177
X6.1492Y-3.8006
X6.1492Y-3.901
X6.1515Y-3.3542
X6.1515Y-3.4635
X6.1535Y-3.3098
X6.1535Y-3.5079
X6.1856Y-3.4089
X6.188Y-3.0457
X6.3583Y-2.4925
X6.3583Y-2.5425
X6.426Y-3.5605
X6.426Y-3.6353
T2
X5.8988Y-2.6189
X5.8988Y-2.674
X5.9264Y-2.5913
X5.9264Y-2.6465
X5.9264Y-2.7016
X5.9539Y-2.6189
X5.9539Y-2.674
X5.9815Y-2.5913
X5.9815Y-2.6465
X5.9815Y-2.7016
X6.0091Y-2.6189
X6.0091Y-2.674
T3
X5.3346Y-2.7398
X5.3346Y-2.7791
X5.3346Y-2.8185
X5.3346Y-2.8579
X5.3346Y-2.8972
X5.3346Y-2.9366
X5.3346Y-2.976
X5.3346Y-3.0154
X5.3346Y-3.0547
X5.3346Y-3.0941
X5.3346Y-3.1335
X5.3346Y-3.1728
X5.3346Y-3.2122
X5.3346Y-3.2516
X5.3346Y-3.2909
X5.3346Y-3.3303
X5.3346Y-3.3697
X5.3346Y-3.4091
X5.3346Y-3.4484
X5.3346Y-3.4878
X5.3346Y-3.5272
X5.3346Y-3.5665
X6.6732Y-2.7756
X6.6732Y-2.815
X6.6732Y-2.8543
X6.6732Y-2.8937
X6.6732Y-2.9331
X6.6732Y-2.9724
X6.6732Y-3.0118
X6.6732Y-3.0512
X6.6732Y-3.0906
X6.6732Y-3.1299
X6.6732Y-3.1693
X6.6732Y-3.2087
X6.6732Y-3.248
X6.6732Y-3.2874
X6.6732Y-3.3268
X6.6732Y-3.3661
X6.6732Y-3.4055
X6.6732Y-3.4449
X6.6732Y-3.4843
X6.6732Y-3.5236
X6.6732Y-3.563
X6.6732Y-3.6024
T5
X5.3088Y-3.7229
X5.3876Y-3.7229
T4
G00X5.6665Y-4.2315
M15
G01X5.6665Y-4.2748
M16
G05
G00X5.6665Y-4.4028
M15
G01X5.6665Y-4.4343
M16
G05
G00X6.0067Y-4.2315
M15
G01X6.0067Y-4.2748
M16
G05
G00X6.0067Y-4.4028
M15
G01X6.0067Y-4.4343
M16
G05
M30
