%TF.GenerationSoftware,KiCad,Pcbnew,10.0.1*%
%TF.CreationDate,2026-09-08T18:33:28+02:00*%
%TF.ProjectId,esp32s3_adc_mini_bat,65737033-3273-4335-9f61-64635f6d696e,rev?*%
%TF.SameCoordinates,Original*%
%TF.FileFunction,Paste,Top*%
%TF.FilePolarity,Positive*%
%FSLAX46Y46*%
G04 Gerber Fmt 4.6, Leading zero omitted, Abs format (unit mm)*
G04 Created by KiCad (PCBNEW 10.0.1) date 2026-09-08 18:33:28*
%MOMM*%
%LPD*%
G01*
G04 APERTURE LIST*
G04 Aperture macros list*
%AMRoundRect*
0 Rectangle with rounded corners*
0 $1 Rounding radius*
0 $2 $3 $4 $5 $6 $7 $8 $9 X,Y pos of 4 corners*
0 Add a 4 corners polygon primitive as box body*
4,1,4,$2,$3,$4,$5,$6,$7,$8,$9,$2,$3,0*
0 Add four circle primitives for the rounded corners*
1,1,$1+$1,$2,$3*
1,1,$1+$1,$4,$5*
1,1,$1+$1,$6,$7*
1,1,$1+$1,$8,$9*
0 Add four rect primitives between the rounded corners*
20,1,$1+$1,$2,$3,$4,$5,0*
20,1,$1+$1,$4,$5,$6,$7,0*
20,1,$1+$1,$6,$7,$8,$9,0*
20,1,$1+$1,$8,$9,$2,$3,0*%
G04 Aperture macros list end*
%ADD10R,1.860000X1.230000*%
%ADD11RoundRect,0.250000X-0.475000X0.250000X-0.475000X-0.250000X0.475000X-0.250000X0.475000X0.250000X0*%
%ADD12RoundRect,0.135000X0.135000X0.185000X-0.135000X0.185000X-0.135000X-0.185000X0.135000X-0.185000X0*%
%ADD13RoundRect,0.135000X-0.135000X-0.185000X0.135000X-0.185000X0.135000X0.185000X-0.135000X0.185000X0*%
%ADD14R,1.680000X1.520000*%
%ADD15RoundRect,0.147500X0.147500X0.172500X-0.147500X0.172500X-0.147500X-0.172500X0.147500X-0.172500X0*%
%ADD16RoundRect,0.150000X0.150000X-0.512500X0.150000X0.512500X-0.150000X0.512500X-0.150000X-0.512500X0*%
%ADD17RoundRect,0.250000X0.475000X-0.250000X0.475000X0.250000X-0.475000X0.250000X-0.475000X-0.250000X0*%
%ADD18R,3.000000X1.500000*%
%ADD19RoundRect,0.225000X0.225000X0.250000X-0.225000X0.250000X-0.225000X-0.250000X0.225000X-0.250000X0*%
%ADD20RoundRect,0.140000X0.140000X0.170000X-0.140000X0.170000X-0.140000X-0.170000X0.140000X-0.170000X0*%
%ADD21RoundRect,0.225000X0.250000X-0.225000X0.250000X0.225000X-0.250000X0.225000X-0.250000X-0.225000X0*%
%ADD22RoundRect,0.250000X0.250000X0.475000X-0.250000X0.475000X-0.250000X-0.475000X0.250000X-0.475000X0*%
%ADD23RoundRect,0.150000X-0.150000X-0.470000X0.150000X-0.470000X0.150000X0.470000X-0.150000X0.470000X0*%
%ADD24RoundRect,0.075000X-0.075000X-0.545000X0.075000X-0.545000X0.075000X0.545000X-0.075000X0.545000X0*%
%ADD25RoundRect,0.135000X0.185000X-0.135000X0.185000X0.135000X-0.185000X0.135000X-0.185000X-0.135000X0*%
%ADD26RoundRect,0.135000X-0.185000X0.135000X-0.185000X-0.135000X0.185000X-0.135000X0.185000X0.135000X0*%
%ADD27RoundRect,0.075000X0.075000X0.225000X-0.075000X0.225000X-0.075000X-0.225000X0.075000X-0.225000X0*%
%ADD28O,0.665000X0.230000*%
%ADD29O,0.230000X0.665000*%
%ADD30R,2.400000X2.400000*%
%ADD31R,0.900000X0.900000*%
%ADD32R,1.500000X0.900000*%
%ADD33R,0.900000X1.500000*%
%ADD34R,1.600000X0.800000*%
%ADD35R,0.800000X1.000000*%
%ADD36R,1.200000X0.600000*%
%ADD37R,2.400000X3.300000*%
%ADD38RoundRect,0.250000X-0.250000X-0.475000X0.250000X-0.475000X0.250000X0.475000X-0.250000X0.475000X0*%
G04 APERTURE END LIST*
D10*
%TO.C,BOT*%
X166290000Y-91736500D03*
X166290000Y-87376500D03*
%TD*%
%TO.C,RST*%
X166340000Y-98026500D03*
X166340000Y-93666500D03*
%TD*%
D11*
%TO.C,C8*%
X163220000Y-92336500D03*
X163220000Y-90436500D03*
%TD*%
D12*
%TO.C,R7*%
X162960000Y-88886500D03*
X163980000Y-88886500D03*
%TD*%
D13*
%TO.C,R4*%
X163980000Y-93886500D03*
X162960000Y-93886500D03*
%TD*%
D12*
%TO.C,R5*%
X162960000Y-94886500D03*
X163980000Y-94886500D03*
%TD*%
D11*
%TO.C,C7*%
X163220000Y-98286500D03*
X163220000Y-96386500D03*
%TD*%
D14*
%TO.C,D2*%
X144270000Y-95360000D03*
X144270000Y-99280000D03*
%TD*%
D15*
%TO.C,D4*%
X148670000Y-97820000D03*
X147700000Y-97820000D03*
%TD*%
D16*
%TO.C,U1*%
X147800000Y-103948750D03*
X148750000Y-103948750D03*
X149700000Y-103948750D03*
X149700000Y-101673750D03*
X148750000Y-101673750D03*
X147800000Y-101673750D03*
%TD*%
D13*
%TO.C,R10*%
X146820000Y-95330000D03*
X147840000Y-95330000D03*
%TD*%
D12*
%TO.C,R16*%
X156298750Y-89100000D03*
X155278750Y-89100000D03*
%TD*%
D13*
%TO.C,R6*%
X162960000Y-87886500D03*
X163980000Y-87886500D03*
%TD*%
D17*
%TO.C,C23*%
X159810000Y-100650000D03*
X159810000Y-98750000D03*
%TD*%
D18*
%TO.C,CN1*%
X163500000Y-102392500D03*
X156500000Y-110792500D03*
X156500000Y-107792500D03*
X156500000Y-103792500D03*
%TD*%
D19*
%TO.C,C21*%
X146495000Y-88354000D03*
X144945000Y-88354000D03*
%TD*%
D16*
%TO.C,U3*%
X137580000Y-87905000D03*
X138530000Y-87905000D03*
X139480000Y-87905000D03*
X139480000Y-85630000D03*
X137580000Y-85630000D03*
%TD*%
D20*
%TO.C,C25*%
X156248750Y-85197500D03*
X155288750Y-85197500D03*
%TD*%
%TO.C,C20*%
X146770000Y-89820000D03*
X145810000Y-89820000D03*
%TD*%
D21*
%TO.C,C24*%
X150690000Y-82680000D03*
X150690000Y-81130000D03*
%TD*%
D11*
%TO.C,C4*%
X138010000Y-81615000D03*
X138010000Y-83515000D03*
%TD*%
D22*
%TO.C,C1*%
X144650000Y-103230000D03*
X142750000Y-103230000D03*
%TD*%
D23*
%TO.C,J1*%
X145050000Y-107430000D03*
X145850000Y-107430000D03*
D24*
X147000000Y-107430000D03*
X148000000Y-107430000D03*
X148500000Y-107430000D03*
X149500000Y-107430000D03*
D23*
X150650000Y-107430000D03*
X151450000Y-107430000D03*
X151450000Y-107430000D03*
X150650000Y-107430000D03*
D24*
X150000000Y-107430000D03*
X149000000Y-107430000D03*
X147500000Y-107430000D03*
X146500000Y-107430000D03*
D23*
X145850000Y-107430000D03*
X145050000Y-107430000D03*
%TD*%
D25*
%TO.C,R2*%
X146100000Y-105415000D03*
X146100000Y-104395000D03*
%TD*%
D19*
%TO.C,C27*%
X157113750Y-86585000D03*
X155563750Y-86585000D03*
%TD*%
D26*
%TO.C,R13*%
X152165000Y-81945000D03*
X152165000Y-82965000D03*
%TD*%
D27*
%TO.C,D1*%
X144200000Y-105155000D03*
X143500000Y-105155000D03*
%TD*%
D25*
%TO.C,R1*%
X150980000Y-105800000D03*
X150980000Y-104780000D03*
%TD*%
D20*
%TO.C,C18*%
X146755000Y-86970000D03*
X145795000Y-86970000D03*
%TD*%
D13*
%TO.C,R9*%
X146890000Y-99090000D03*
X147910000Y-99090000D03*
%TD*%
D12*
%TO.C,R15*%
X156298750Y-84070000D03*
X155278750Y-84070000D03*
%TD*%
D28*
%TO.C,U5*%
X152818750Y-87950000D03*
X152818750Y-87500000D03*
X152818750Y-87050000D03*
X152818750Y-86600000D03*
X152818750Y-86150000D03*
X152818750Y-85700000D03*
X152818750Y-85250000D03*
D29*
X152238750Y-84670000D03*
X151788750Y-84670000D03*
X151338750Y-84670000D03*
X150888750Y-84670000D03*
X150438750Y-84670000D03*
X149988750Y-84670000D03*
X149538750Y-84670000D03*
D28*
X148958750Y-85250000D03*
X148958750Y-85700000D03*
X148958750Y-86150000D03*
X148958750Y-86600000D03*
X148958750Y-87050000D03*
X148958750Y-87500000D03*
X148958750Y-87950000D03*
D29*
X149538750Y-88530000D03*
X149988750Y-88530000D03*
X150438750Y-88530000D03*
X150888750Y-88530000D03*
X151338750Y-88530000D03*
X151788750Y-88530000D03*
X152238750Y-88530000D03*
D30*
X150888750Y-86600000D03*
%TD*%
D22*
%TO.C,C2*%
X140350000Y-103020000D03*
X138450000Y-103020000D03*
%TD*%
D31*
%TO.C,U2*%
X149830000Y-65820000D03*
X149830000Y-67220000D03*
X149830000Y-68620000D03*
X151230000Y-65820000D03*
X151230000Y-67220000D03*
X151230000Y-68620000D03*
X152630000Y-65820000D03*
X152630000Y-67220000D03*
X152630000Y-68620000D03*
D32*
X143980000Y-59500000D03*
X143980000Y-60770000D03*
X143980000Y-62040000D03*
X143980000Y-63310000D03*
X143980000Y-64580000D03*
X143980000Y-65850000D03*
X143980000Y-67120000D03*
X143980000Y-68390000D03*
X143980000Y-69660000D03*
X143980000Y-70930000D03*
X143980000Y-72200000D03*
X143980000Y-73470000D03*
X143980000Y-74740000D03*
X143980000Y-76010000D03*
D33*
X145745000Y-77260000D03*
X147015000Y-77260000D03*
X148285000Y-77260000D03*
X149555000Y-77260000D03*
X150825000Y-77260000D03*
X152095000Y-77260000D03*
X153365000Y-77260000D03*
X154635000Y-77260000D03*
X155905000Y-77260000D03*
X157175000Y-77260000D03*
X158445000Y-77260000D03*
X159715000Y-77260000D03*
D32*
X161480000Y-76010000D03*
X161480000Y-74740000D03*
X161480000Y-73470000D03*
X161480000Y-72200000D03*
X161480000Y-70930000D03*
X161480000Y-69660000D03*
X161480000Y-68390000D03*
X161480000Y-67120000D03*
X161480000Y-65850000D03*
X161480000Y-64580000D03*
X161480000Y-63310000D03*
X161480000Y-62040000D03*
X161480000Y-60770000D03*
X161480000Y-59500000D03*
%TD*%
D19*
%TO.C,C10*%
X146345000Y-82490000D03*
X144795000Y-82490000D03*
%TD*%
D22*
%TO.C,C5*%
X135920000Y-67548000D03*
X134020000Y-67548000D03*
%TD*%
D19*
%TO.C,C19*%
X146480000Y-85480000D03*
X144930000Y-85480000D03*
%TD*%
D25*
%TO.C,R11*%
X153128750Y-91060000D03*
X153128750Y-90040000D03*
%TD*%
D20*
%TO.C,C11*%
X146400000Y-81020000D03*
X145440000Y-81020000D03*
%TD*%
D13*
%TO.C,R8*%
X155650000Y-100530000D03*
X156670000Y-100530000D03*
%TD*%
D34*
%TO.C,PWR*%
X136035090Y-102923153D03*
X136035090Y-101423153D03*
X136035090Y-98423153D03*
D35*
X133135090Y-97023153D03*
X135335090Y-97023153D03*
X133135090Y-104323153D03*
X135335090Y-104323153D03*
%TD*%
D14*
%TO.C,D3*%
X140420000Y-95360000D03*
X140420000Y-99280000D03*
%TD*%
D20*
%TO.C,C26*%
X156248750Y-87972500D03*
X155288750Y-87972500D03*
%TD*%
D15*
%TO.C,D5*%
X148660000Y-96500000D03*
X147690000Y-96500000D03*
%TD*%
D20*
%TO.C,C9*%
X146570000Y-84040000D03*
X145610000Y-84040000D03*
%TD*%
D25*
%TO.C,R12*%
X151808750Y-91060000D03*
X151808750Y-90040000D03*
%TD*%
D17*
%TO.C,C22*%
X153290000Y-105040000D03*
X153290000Y-103140000D03*
%TD*%
D36*
%TO.C,U4*%
X156190000Y-99085000D03*
X156190000Y-97805000D03*
X156190000Y-96535000D03*
X156190000Y-95265000D03*
X150370000Y-95265000D03*
X150370000Y-96535000D03*
X150370000Y-97805000D03*
X150370000Y-99085000D03*
D37*
X153280000Y-97175000D03*
%TD*%
D38*
%TO.C,C3*%
X137470000Y-90370000D03*
X139370000Y-90370000D03*
%TD*%
D26*
%TO.C,R14*%
X153380000Y-81945000D03*
X153380000Y-82965000D03*
%TD*%
D22*
%TO.C,C6*%
X139920000Y-67548000D03*
X138020000Y-67548000D03*
%TD*%
M02*
