%TF.GenerationSoftware,KiCad,Pcbnew,10.0.1*%
%TF.CreationDate,2026-09-08T18:33:28+02:00*%
%TF.ProjectId,esp32s3_adc_mini_bat,65737033-3273-4335-9f61-64635f6d696e,rev?*%
%TF.SameCoordinates,Original*%
%TF.FileFunction,Copper,L2,Bot*%
%TF.FilePolarity,Positive*%
%FSLAX46Y46*%
G04 Gerber Fmt 4.6, Leading zero omitted, Abs format (unit mm)*
G04 Created by KiCad (PCBNEW 10.0.1) date 2026-09-08 18:33:28*
%MOMM*%
%LPD*%
G01*
G04 APERTURE LIST*
%TA.AperFunction,ComponentPad*%
%ADD10C,1.600000*%
%TD*%
%TA.AperFunction,ComponentPad*%
%ADD11R,0.850000X0.850000*%
%TD*%
%TA.AperFunction,ComponentPad*%
%ADD12C,0.850000*%
%TD*%
%TA.AperFunction,ComponentPad*%
%ADD13O,1.000000X2.100000*%
%TD*%
%TA.AperFunction,ComponentPad*%
%ADD14O,1.000000X1.800000*%
%TD*%
%TA.AperFunction,HeatsinkPad*%
%ADD15C,0.600000*%
%TD*%
%TA.AperFunction,ViaPad*%
%ADD16C,0.600000*%
%TD*%
%TA.AperFunction,Conductor*%
%ADD17C,0.200000*%
%TD*%
%TA.AperFunction,Conductor*%
%ADD18C,0.383800*%
%TD*%
%TA.AperFunction,Conductor*%
%ADD19C,0.600000*%
%TD*%
%TA.AperFunction,Conductor*%
%ADD20C,0.127000*%
%TD*%
G04 APERTURE END LIST*
D10*
%TO.P,BAT,1,1_1*%
%TO.N,GND*%
X136844624Y-94560821D03*
%TO.P,BAT,2,2_2*%
%TO.N,Net-(CN2-Pad2)*%
X134844624Y-94560821D03*
%TD*%
D11*
%TO.P,J4,1,Pin_1_1*%
%TO.N,+3V3*%
X135500000Y-69590000D03*
D12*
%TO.P,J4,2,Pin_2_2*%
X135500000Y-70590000D03*
%TO.P,J4,3,Pin_3_3*%
%TO.N,EN*%
X135500000Y-71590000D03*
%TO.P,J4,4,Pin_4_4*%
%TO.N,IO4*%
X135500000Y-72590000D03*
%TO.P,J4,5,Pin_5_5*%
%TO.N,IO5*%
X135500000Y-73590000D03*
%TO.P,J4,6,Pin_6_6*%
%TO.N,IO6*%
X135500000Y-74590000D03*
%TO.P,J4,7,Pin_7_7*%
%TO.N,IO7*%
X135500000Y-75590000D03*
%TO.P,J4,8,Pin_8_8*%
%TO.N,DOUT*%
X135500000Y-76590000D03*
%TO.P,J4,9,Pin_9_9*%
%TO.N,IO16*%
X135500000Y-77590000D03*
%TO.P,J4,10,Pin_10_10*%
%TO.N,unconnected-(J4-Pin_10-Pad10)*%
X135500000Y-78590000D03*
%TO.P,J4,11,Pin_11_11*%
%TO.N,BCK*%
X135500000Y-79590000D03*
%TO.P,J4,12,Pin_12_12*%
%TO.N,I2C_DAT*%
X135500000Y-80590000D03*
%TO.P,J4,13,Pin_13_13*%
%TO.N,unconnected-(J4-Pin_13-Pad13)*%
X135500000Y-81590000D03*
%TO.P,J4,14,Pin_14_14*%
%TO.N,unconnected-(J4-Pin_14-Pad14)*%
X135500000Y-82590000D03*
%TO.P,J4,15,Pin_15_15*%
%TO.N,unconnected-(J4-Pin_15-Pad15)*%
X135500000Y-83590000D03*
%TO.P,J4,16,Pin_16_16*%
%TO.N,unconnected-(J4-Pin_16-Pad16)*%
X135500000Y-84590000D03*
%TO.P,J4,17,Pin_17_17*%
%TO.N,unconnected-(J4-Pin_17-Pad17)*%
X135500000Y-85590000D03*
%TO.P,J4,18,Pin_18_18*%
%TO.N,unconnected-(J4-Pin_18-Pad18)*%
X135500000Y-86590000D03*
%TO.P,J4,19,Pin_19_19*%
%TO.N,unconnected-(J4-Pin_19-Pad19)*%
X135500000Y-87590000D03*
%TO.P,J4,20,Pin_20_20*%
%TO.N,unconnected-(J4-Pin_20-Pad20)*%
X135500000Y-88590000D03*
%TO.P,J4,21,Pin_21_21*%
%TO.N,VBUS*%
X135500000Y-89590000D03*
%TO.P,J4,22,Pin_22_22*%
%TO.N,GND*%
X135500000Y-90590000D03*
%TD*%
D13*
%TO.P,J1,SH,SHIELD_SH*%
%TO.N,GND*%
X143930000Y-108030000D03*
D14*
X143930000Y-112230000D03*
D13*
X152570000Y-108030000D03*
D14*
X152570000Y-112230000D03*
%TD*%
D15*
%TO.P,U2,41,GND_41*%
%TO.N,GND*%
X149830000Y-66520000D03*
X149830000Y-67920000D03*
X150530000Y-65820000D03*
X150530000Y-67220000D03*
X150530000Y-68620000D03*
X151230000Y-66520000D03*
X151230000Y-67920000D03*
X151930000Y-65820000D03*
X151930000Y-67220000D03*
X151930000Y-68620000D03*
X152630000Y-66520000D03*
X152630000Y-67920000D03*
%TD*%
D11*
%TO.P,J5,1,Pin_1_1*%
%TO.N,GND*%
X169500000Y-70500000D03*
D12*
%TO.P,J5,2,Pin_2_2*%
%TO.N,TXD0*%
X169500000Y-71500000D03*
%TO.P,J5,3,Pin_3_3*%
%TO.N,RXD0*%
X169500000Y-72500000D03*
%TO.P,J5,4,Pin_4_4*%
%TO.N,IO1*%
X169500000Y-73500000D03*
%TO.P,J5,5,Pin_5_5*%
%TO.N,SCKI*%
X169500000Y-74500000D03*
%TO.P,J5,6,Pin_6_6*%
%TO.N,IO42*%
X169500000Y-75500000D03*
%TO.P,J5,7,Pin_7_7*%
%TO.N,IO41*%
X169500000Y-76500000D03*
%TO.P,J5,8,Pin_8_8*%
%TO.N,IO40*%
X169500000Y-77500000D03*
%TO.P,J5,9,Pin_9_9*%
%TO.N,IO39*%
X169500000Y-78500000D03*
%TO.P,J5,10,Pin_10_10*%
%TO.N,IO38*%
X169500000Y-79500000D03*
%TO.P,J5,11,Pin_11_11*%
%TO.N,IO37*%
X169500000Y-80500000D03*
%TO.P,J5,12,Pin_12_12*%
%TO.N,IO36*%
X169500000Y-81500000D03*
%TO.P,J5,13,Pin_13_13*%
%TO.N,IO35*%
X169500000Y-82500000D03*
%TO.P,J5,14,Pin_14_14*%
%TO.N,IO0*%
X169500000Y-83500000D03*
%TO.P,J5,15,Pin_15_15*%
%TO.N,IO45*%
X169500000Y-84500000D03*
%TO.P,J5,16,Pin_16_16*%
%TO.N,IO48*%
X169500000Y-85500000D03*
%TO.P,J5,17,Pin_17_17*%
%TO.N,LRCK*%
X169500000Y-86500000D03*
%TO.P,J5,18,Pin_18_18*%
%TO.N,IO21*%
X169500000Y-87500000D03*
%TO.P,J5,19,Pin_19_19*%
%TO.N,unconnected-(J5-Pin_19-Pad19)*%
X169500000Y-88500000D03*
%TO.P,J5,20,Pin_20_20*%
%TO.N,unconnected-(J5-Pin_20-Pad20)*%
X169500000Y-89500000D03*
%TO.P,J5,21,Pin_21_21*%
%TO.N,GND*%
X169500000Y-90500000D03*
%TO.P,J5,22,Pin_22_22*%
X169500000Y-91500000D03*
%TD*%
D16*
%TO.N,VBUS*%
X144225000Y-99325000D03*
%TO.N,GND*%
X156248750Y-87972500D03*
X150980000Y-104780000D03*
X156190000Y-99085000D03*
X150960000Y-89450000D03*
X156190000Y-96535000D03*
X138530000Y-87905000D03*
X144945000Y-88354000D03*
X151450000Y-107430000D03*
X148750000Y-103948750D03*
X145795000Y-86970000D03*
X156248750Y-85197500D03*
X150570000Y-83750000D03*
X145610000Y-84040000D03*
X154440000Y-85180000D03*
X144930000Y-85480000D03*
X145440000Y-81020000D03*
X150888750Y-86600000D03*
X146100000Y-104395000D03*
X157113750Y-86585000D03*
X155650000Y-100530000D03*
X145050000Y-107430000D03*
X163220000Y-92336500D03*
X144795000Y-82490000D03*
%TO.N,USB_D+*%
X144000000Y-76010000D03*
X149700000Y-101673750D03*
%TO.N,USB_D-*%
X144000000Y-74740000D03*
X147800000Y-101673750D03*
%TO.N,SCKI*%
X156298750Y-89100000D03*
%TO.N,+3V3*%
X150460000Y-93000000D03*
X138010000Y-81615000D03*
X154300000Y-93000000D03*
%TO.N,EN*%
X156180000Y-79190000D03*
X144000000Y-62040000D03*
%TO.N,DOUT*%
X153210000Y-78950000D03*
X144070000Y-68450000D03*
%TO.N,BCK*%
X143940000Y-70930000D03*
X156298750Y-84070000D03*
%TO.N,I2C_DAT*%
X151808750Y-90040000D03*
X143990000Y-73470000D03*
%TO.N,IO0*%
X163220000Y-90436500D03*
%TO.N,Net-(U5-RIN1)*%
X153290000Y-103140000D03*
X151270000Y-94000000D03*
%TO.N,I2C_CLK*%
X153128750Y-90040000D03*
X143980000Y-72200000D03*
%TO.N,LRCK*%
X155890000Y-80740000D03*
X157175000Y-77360000D03*
%TO.N,RXD0*%
X161500000Y-64580000D03*
%TO.N,TXD0*%
X161500000Y-63310000D03*
%TD*%
%TO.N,VBUS*%
D17*
X144225000Y-99325000D02*
X144225000Y-98315000D01*
X144225000Y-98315000D02*
X135500000Y-89590000D01*
%TO.N,USB_D+*%
D18*
X149031900Y-82394564D02*
X146173536Y-79536200D01*
X146173536Y-79536200D02*
X140640656Y-79536200D01*
X149700000Y-101673750D02*
X149031900Y-101005650D01*
X149271900Y-91727465D02*
X149465039Y-91727465D01*
X143646900Y-75656900D02*
X144000000Y-76010000D01*
X149705039Y-91487465D02*
X149705039Y-91367465D01*
X140640656Y-79536200D02*
X140357402Y-79252946D01*
X149031900Y-101005650D02*
X149031900Y-91967465D01*
X140357402Y-79252946D02*
X140357402Y-78711266D01*
X149465039Y-91127465D02*
X149271900Y-91127465D01*
X149031900Y-90767465D02*
X149031900Y-90113947D01*
X149031900Y-90113947D02*
X149031900Y-82394564D01*
X149031900Y-90887465D02*
X149031900Y-90767465D01*
X143411768Y-75656900D02*
X143646900Y-75656900D01*
X140357402Y-78711266D02*
X143411768Y-75656900D01*
X149705039Y-91367465D02*
G75*
G03*
X149465039Y-91127461I-240039J-35D01*
G01*
X149271900Y-91127465D02*
G75*
G02*
X149031935Y-90887465I0J239965D01*
G01*
X149031900Y-91967465D02*
G75*
G02*
X149271900Y-91727500I240000J-35D01*
G01*
X149465039Y-91727465D02*
G75*
G03*
X149704965Y-91487465I-39J239965D01*
G01*
%TO.N,USB_D-*%
X148468100Y-101005650D02*
X147800000Y-101673750D01*
X145940000Y-80100000D02*
X148468100Y-82628100D01*
X139793602Y-79486480D02*
X140407122Y-80100000D01*
X148468100Y-91118867D02*
X148468100Y-91498503D01*
X140407122Y-80100000D02*
X145940000Y-80100000D01*
X148468100Y-91498503D02*
X148468100Y-101005650D01*
X143646900Y-75093100D02*
X143178234Y-75093100D01*
X144000000Y-74740000D02*
X143646900Y-75093100D01*
X148468100Y-82628100D02*
X148468100Y-91118867D01*
X143178234Y-75093100D02*
X139793602Y-78477730D01*
X139793602Y-78477730D02*
X139793602Y-79486480D01*
%TO.N,SCKI*%
D17*
X156298750Y-89100000D02*
X156720000Y-89100000D01*
X161040000Y-84780000D02*
X161040000Y-79830000D01*
X156720000Y-89100000D02*
X161040000Y-84780000D01*
X166370000Y-74500000D02*
X169500000Y-74500000D01*
X161040000Y-79830000D02*
X166370000Y-74500000D01*
%TO.N,+3V3*%
D19*
X137970000Y-72458960D02*
X136101040Y-70590000D01*
X135500000Y-70590000D02*
X135500000Y-69590000D01*
D17*
X150460000Y-93000000D02*
X154300000Y-93000000D01*
D19*
X136101040Y-70590000D02*
X135500000Y-70590000D01*
X138010000Y-81615000D02*
X137970000Y-81575000D01*
X137970000Y-81575000D02*
X137970000Y-72458960D01*
%TO.N,EN*%
D17*
X156180000Y-79190000D02*
X146020000Y-69030000D01*
X144460000Y-62040000D02*
X144000000Y-62040000D01*
X146020000Y-63600000D02*
X144460000Y-62040000D01*
X146020000Y-69030000D02*
X146020000Y-63600000D01*
%TO.N,DOUT*%
X144070000Y-68450000D02*
X153210000Y-77590000D01*
X153210000Y-77590000D02*
X153210000Y-78950000D01*
%TO.N,BCK*%
X143940000Y-70930000D02*
X156298750Y-83288750D01*
X156298750Y-83288750D02*
X156298750Y-84070000D01*
%TO.N,I2C_DAT*%
D20*
X151808750Y-90040000D02*
X151808750Y-81288750D01*
X151808750Y-81288750D02*
X143990000Y-73470000D01*
%TO.N,IO0*%
D17*
X165613500Y-90436500D02*
X163220000Y-90436500D01*
X169500000Y-83500000D02*
X168800000Y-83500000D01*
X168260000Y-84040000D02*
X168260000Y-87790000D01*
X168800000Y-83500000D02*
X168260000Y-84040000D01*
X168260000Y-87790000D02*
X165613500Y-90436500D01*
%TO.N,Net-(U5-RIN1)*%
D20*
X151270000Y-94000000D02*
X151270000Y-94900000D01*
X151270000Y-94900000D02*
X153290000Y-96920000D01*
X153290000Y-96920000D02*
X153290000Y-103140000D01*
%TO.N,I2C_CLK*%
X153128750Y-81348750D02*
X143980000Y-72200000D01*
X153128750Y-90040000D02*
X153128750Y-81348750D01*
%TO.N,LRCK*%
X155890000Y-80740000D02*
X157175000Y-79455000D01*
X157175000Y-79455000D02*
X157175000Y-77360000D01*
%TO.N,RXD0*%
D17*
X161580000Y-64580000D02*
X169500000Y-72500000D01*
X161500000Y-64580000D02*
X161580000Y-64580000D01*
%TO.N,TXD0*%
X169210000Y-71500000D02*
X168360000Y-70650000D01*
X168360000Y-70350000D02*
X161500000Y-63490000D01*
X169500000Y-71490000D02*
X169490000Y-71500000D01*
X169490000Y-71500000D02*
X169210000Y-71500000D01*
X169500000Y-71500000D02*
X169500000Y-71490000D01*
X168360000Y-70650000D02*
X168360000Y-70350000D01*
X161500000Y-63490000D02*
X161500000Y-63310000D01*
%TD*%
%TA.AperFunction,Conductor*%
%TO.N,GND*%
G36*
X172025677Y-58029685D02*
G01*
X172046319Y-58046319D01*
X173463181Y-59463181D01*
X173496666Y-59524504D01*
X173499500Y-59550862D01*
X173499500Y-111449138D01*
X173479815Y-111516177D01*
X173463181Y-111536819D01*
X171536819Y-113463181D01*
X171475496Y-113496666D01*
X171449138Y-113499500D01*
X153414077Y-113499500D01*
X153347038Y-113479815D01*
X153301283Y-113427011D01*
X153291339Y-113357853D01*
X153320364Y-113294297D01*
X153326396Y-113287819D01*
X153346748Y-113267466D01*
X153346751Y-113267462D01*
X153456185Y-113103684D01*
X153456192Y-113103671D01*
X153531569Y-112921693D01*
X153531572Y-112921681D01*
X153569999Y-112728495D01*
X153570000Y-112728492D01*
X153570000Y-112480000D01*
X152870000Y-112480000D01*
X152870000Y-112366420D01*
X159249499Y-112366420D01*
X159278340Y-112511407D01*
X159278343Y-112511417D01*
X159334912Y-112647988D01*
X159334919Y-112648001D01*
X159417048Y-112770915D01*
X159417051Y-112770919D01*
X159521580Y-112875448D01*
X159521584Y-112875451D01*
X159644498Y-112957580D01*
X159644511Y-112957587D01*
X159781082Y-113014156D01*
X159781087Y-113014158D01*
X159781091Y-113014158D01*
X159781092Y-113014159D01*
X159926079Y-113043000D01*
X159926082Y-113043000D01*
X160073920Y-113043000D01*
X160171462Y-113023596D01*
X160218913Y-113014158D01*
X160355495Y-112957584D01*
X160478416Y-112875451D01*
X160582951Y-112770916D01*
X160665084Y-112647995D01*
X160721658Y-112511413D01*
X160750500Y-112366418D01*
X160750500Y-112218582D01*
X160750500Y-112218579D01*
X160721659Y-112073592D01*
X160721658Y-112073591D01*
X160721658Y-112073587D01*
X160682893Y-111980000D01*
X160665087Y-111937011D01*
X160665080Y-111936998D01*
X160582951Y-111814084D01*
X160582948Y-111814080D01*
X160478419Y-111709551D01*
X160478415Y-111709548D01*
X160355501Y-111627419D01*
X160355488Y-111627412D01*
X160218917Y-111570843D01*
X160218907Y-111570840D01*
X160073920Y-111542000D01*
X160073918Y-111542000D01*
X159926082Y-111542000D01*
X159926080Y-111542000D01*
X159781092Y-111570840D01*
X159781082Y-111570843D01*
X159644511Y-111627412D01*
X159644498Y-111627419D01*
X159521584Y-111709548D01*
X159521580Y-111709551D01*
X159417051Y-111814080D01*
X159417048Y-111814084D01*
X159334919Y-111936998D01*
X159334912Y-111937011D01*
X159278343Y-112073582D01*
X159278340Y-112073592D01*
X159249500Y-112218579D01*
X159249500Y-112218582D01*
X159249500Y-112366418D01*
X159249500Y-112366420D01*
X159249499Y-112366420D01*
X152870000Y-112366420D01*
X152870000Y-111980000D01*
X153570000Y-111980000D01*
X153570000Y-111731508D01*
X153569999Y-111731504D01*
X153531572Y-111538318D01*
X153531569Y-111538306D01*
X153456192Y-111356328D01*
X153456185Y-111356315D01*
X153346751Y-111192537D01*
X153346748Y-111192533D01*
X153207466Y-111053251D01*
X153207462Y-111053248D01*
X153043684Y-110943814D01*
X153043671Y-110943807D01*
X152861691Y-110868429D01*
X152861683Y-110868427D01*
X152820000Y-110860135D01*
X152820000Y-111663011D01*
X152810060Y-111645795D01*
X152754205Y-111589940D01*
X152685796Y-111550444D01*
X152609496Y-111530000D01*
X152530504Y-111530000D01*
X152454204Y-111550444D01*
X152385795Y-111589940D01*
X152329940Y-111645795D01*
X152320000Y-111663011D01*
X152320000Y-110860136D01*
X152319999Y-110860135D01*
X152278316Y-110868427D01*
X152278308Y-110868429D01*
X152096328Y-110943807D01*
X152096315Y-110943814D01*
X151932537Y-111053248D01*
X151932533Y-111053251D01*
X151793251Y-111192533D01*
X151793248Y-111192537D01*
X151683814Y-111356315D01*
X151683807Y-111356328D01*
X151608430Y-111538306D01*
X151608427Y-111538318D01*
X151570000Y-111731504D01*
X151570000Y-111980000D01*
X152270000Y-111980000D01*
X152270000Y-112480000D01*
X151570000Y-112480000D01*
X151570000Y-112728495D01*
X151608427Y-112921681D01*
X151608430Y-112921693D01*
X151683807Y-113103671D01*
X151683814Y-113103684D01*
X151793248Y-113267462D01*
X151793251Y-113267466D01*
X151813604Y-113287819D01*
X151847089Y-113349142D01*
X151842105Y-113418834D01*
X151800233Y-113474767D01*
X151734769Y-113499184D01*
X151725923Y-113499500D01*
X144774077Y-113499500D01*
X144707038Y-113479815D01*
X144661283Y-113427011D01*
X144651339Y-113357853D01*
X144680364Y-113294297D01*
X144686396Y-113287819D01*
X144706748Y-113267466D01*
X144706751Y-113267462D01*
X144816185Y-113103684D01*
X144816192Y-113103671D01*
X144891569Y-112921693D01*
X144891572Y-112921681D01*
X144929999Y-112728495D01*
X144930000Y-112728492D01*
X144930000Y-112480000D01*
X144230000Y-112480000D01*
X144230000Y-111980000D01*
X144930000Y-111980000D01*
X144930000Y-111731508D01*
X144929999Y-111731504D01*
X144891572Y-111538318D01*
X144891569Y-111538306D01*
X144816192Y-111356328D01*
X144816185Y-111356315D01*
X144706751Y-111192537D01*
X144706748Y-111192533D01*
X144567466Y-111053251D01*
X144567462Y-111053248D01*
X144403684Y-110943814D01*
X144403671Y-110943807D01*
X144221691Y-110868429D01*
X144221683Y-110868427D01*
X144180000Y-110860135D01*
X144180000Y-111663011D01*
X144170060Y-111645795D01*
X144114205Y-111589940D01*
X144045796Y-111550444D01*
X143969496Y-111530000D01*
X143890504Y-111530000D01*
X143814204Y-111550444D01*
X143745795Y-111589940D01*
X143689940Y-111645795D01*
X143680000Y-111663011D01*
X143680000Y-110860136D01*
X143679999Y-110860135D01*
X143638316Y-110868427D01*
X143638308Y-110868429D01*
X143456328Y-110943807D01*
X143456315Y-110943814D01*
X143292537Y-111053248D01*
X143292533Y-111053251D01*
X143153251Y-111192533D01*
X143153248Y-111192537D01*
X143043814Y-111356315D01*
X143043807Y-111356328D01*
X142968430Y-111538306D01*
X142968427Y-111538318D01*
X142930000Y-111731504D01*
X142930000Y-111980000D01*
X143630000Y-111980000D01*
X143630000Y-112480000D01*
X142930000Y-112480000D01*
X142930000Y-112728495D01*
X142968427Y-112921681D01*
X142968430Y-112921693D01*
X143043807Y-113103671D01*
X143043814Y-113103684D01*
X143153248Y-113267462D01*
X143153251Y-113267466D01*
X143173604Y-113287819D01*
X143207089Y-113349142D01*
X143202105Y-113418834D01*
X143160233Y-113474767D01*
X143094769Y-113499184D01*
X143085923Y-113499500D01*
X134550862Y-113499500D01*
X134483823Y-113479815D01*
X134463181Y-113463181D01*
X132536819Y-111536819D01*
X132503334Y-111475496D01*
X132500500Y-111449138D01*
X132500500Y-108368872D01*
X135499500Y-108368872D01*
X135499500Y-108631127D01*
X135524375Y-108820060D01*
X135533730Y-108891116D01*
X135596533Y-109125500D01*
X135601602Y-109144418D01*
X135601605Y-109144428D01*
X135701953Y-109386690D01*
X135701958Y-109386700D01*
X135833075Y-109613803D01*
X135992718Y-109821851D01*
X135992726Y-109821860D01*
X136178140Y-110007274D01*
X136178148Y-110007281D01*
X136386196Y-110166924D01*
X136613299Y-110298041D01*
X136613309Y-110298046D01*
X136855571Y-110398394D01*
X136855581Y-110398398D01*
X137108884Y-110466270D01*
X137368880Y-110500500D01*
X137368887Y-110500500D01*
X137631113Y-110500500D01*
X137631120Y-110500500D01*
X137891116Y-110466270D01*
X138144419Y-110398398D01*
X138386697Y-110298043D01*
X138613803Y-110166924D01*
X138821851Y-110007282D01*
X138821855Y-110007277D01*
X138821860Y-110007274D01*
X139007274Y-109821860D01*
X139007277Y-109821855D01*
X139007282Y-109821851D01*
X139166924Y-109613803D01*
X139298043Y-109386697D01*
X139398398Y-109144419D01*
X139466270Y-108891116D01*
X139500500Y-108631120D01*
X139500500Y-108368880D01*
X139466270Y-108108884D01*
X139398398Y-107855581D01*
X139398394Y-107855571D01*
X139298046Y-107613309D01*
X139298041Y-107613299D01*
X139196496Y-107437417D01*
X139166924Y-107386196D01*
X139163324Y-107381504D01*
X142930000Y-107381504D01*
X142930000Y-107780000D01*
X143630000Y-107780000D01*
X143630000Y-108280000D01*
X142930000Y-108280000D01*
X142930000Y-108678495D01*
X142968427Y-108871681D01*
X142968430Y-108871693D01*
X143043807Y-109053671D01*
X143043814Y-109053684D01*
X143153248Y-109217462D01*
X143153251Y-109217466D01*
X143292533Y-109356748D01*
X143292537Y-109356751D01*
X143456315Y-109466185D01*
X143456328Y-109466192D01*
X143638308Y-109541569D01*
X143680000Y-109549862D01*
X143680000Y-108746988D01*
X143689940Y-108764205D01*
X143745795Y-108820060D01*
X143814204Y-108859556D01*
X143890504Y-108880000D01*
X143969496Y-108880000D01*
X144045796Y-108859556D01*
X144114205Y-108820060D01*
X144170060Y-108764205D01*
X144180000Y-108746988D01*
X144180000Y-109549862D01*
X144221690Y-109541569D01*
X144221692Y-109541569D01*
X144403671Y-109466192D01*
X144403684Y-109466185D01*
X144567462Y-109356751D01*
X144567466Y-109356748D01*
X144706748Y-109217466D01*
X144706751Y-109217462D01*
X144816181Y-109053690D01*
X144819037Y-109048346D01*
X144867993Y-108998495D01*
X144936128Y-108983025D01*
X145001811Y-109006847D01*
X145003895Y-109008412D01*
X145006632Y-109010512D01*
X145006635Y-109010515D01*
X145137865Y-109086281D01*
X145284234Y-109125500D01*
X145284236Y-109125500D01*
X145435764Y-109125500D01*
X145435766Y-109125500D01*
X145582135Y-109086281D01*
X145713365Y-109010515D01*
X145820515Y-108903365D01*
X145896281Y-108772135D01*
X145935500Y-108625766D01*
X145935500Y-108474234D01*
X150564500Y-108474234D01*
X150564500Y-108625766D01*
X150578628Y-108678492D01*
X150603719Y-108772136D01*
X150641602Y-108837750D01*
X150679485Y-108903365D01*
X150786635Y-109010515D01*
X150917865Y-109086281D01*
X151064234Y-109125500D01*
X151064236Y-109125500D01*
X151215764Y-109125500D01*
X151215766Y-109125500D01*
X151362135Y-109086281D01*
X151493365Y-109010515D01*
X151493373Y-109010506D01*
X151496105Y-109008412D01*
X151498834Y-109007356D01*
X151500403Y-109006451D01*
X151500544Y-109006695D01*
X151561274Y-108983215D01*
X151629719Y-108997251D01*
X151679710Y-109046064D01*
X151680955Y-109048335D01*
X151683812Y-109053680D01*
X151793248Y-109217462D01*
X151793251Y-109217466D01*
X151932533Y-109356748D01*
X151932537Y-109356751D01*
X152096315Y-109466185D01*
X152096328Y-109466192D01*
X152278308Y-109541569D01*
X152320000Y-109549862D01*
X152320000Y-108746988D01*
X152329940Y-108764205D01*
X152385795Y-108820060D01*
X152454204Y-108859556D01*
X152530504Y-108880000D01*
X152609496Y-108880000D01*
X152685796Y-108859556D01*
X152754205Y-108820060D01*
X152810060Y-108764205D01*
X152820000Y-108746988D01*
X152820000Y-109549862D01*
X152861690Y-109541569D01*
X152861692Y-109541569D01*
X153043671Y-109466192D01*
X153043684Y-109466185D01*
X153207462Y-109356751D01*
X153207466Y-109356748D01*
X153346748Y-109217466D01*
X153346751Y-109217462D01*
X153456185Y-109053684D01*
X153456192Y-109053671D01*
X153531569Y-108871693D01*
X153531572Y-108871681D01*
X153569999Y-108678495D01*
X153570000Y-108678492D01*
X153570000Y-108368872D01*
X166499500Y-108368872D01*
X166499500Y-108631127D01*
X166524375Y-108820060D01*
X166533730Y-108891116D01*
X166596533Y-109125500D01*
X166601602Y-109144418D01*
X166601605Y-109144428D01*
X166701953Y-109386690D01*
X166701958Y-109386700D01*
X166833075Y-109613803D01*
X166992718Y-109821851D01*
X166992726Y-109821860D01*
X167178140Y-110007274D01*
X167178148Y-110007281D01*
X167386196Y-110166924D01*
X167613299Y-110298041D01*
X167613309Y-110298046D01*
X167855571Y-110398394D01*
X167855581Y-110398398D01*
X168108884Y-110466270D01*
X168368880Y-110500500D01*
X168368887Y-110500500D01*
X168631113Y-110500500D01*
X168631120Y-110500500D01*
X168891116Y-110466270D01*
X169144419Y-110398398D01*
X169386697Y-110298043D01*
X169613803Y-110166924D01*
X169821851Y-110007282D01*
X169821855Y-110007277D01*
X169821860Y-110007274D01*
X170007274Y-109821860D01*
X170007277Y-109821855D01*
X170007282Y-109821851D01*
X170166924Y-109613803D01*
X170298043Y-109386697D01*
X170398398Y-109144419D01*
X170466270Y-108891116D01*
X170500500Y-108631120D01*
X170500500Y-108368880D01*
X170466270Y-108108884D01*
X170398398Y-107855581D01*
X170398394Y-107855571D01*
X170298046Y-107613309D01*
X170298041Y-107613299D01*
X170166924Y-107386196D01*
X170007281Y-107178148D01*
X170007274Y-107178140D01*
X169821860Y-106992726D01*
X169821851Y-106992718D01*
X169613803Y-106833075D01*
X169386700Y-106701958D01*
X169386690Y-106701953D01*
X169144428Y-106601605D01*
X169144421Y-106601603D01*
X169144419Y-106601602D01*
X168891116Y-106533730D01*
X168833339Y-106526123D01*
X168631127Y-106499500D01*
X168631120Y-106499500D01*
X168368880Y-106499500D01*
X168368872Y-106499500D01*
X168137772Y-106529926D01*
X168108884Y-106533730D01*
X167884646Y-106593814D01*
X167855581Y-106601602D01*
X167855571Y-106601605D01*
X167613309Y-106701953D01*
X167613299Y-106701958D01*
X167386196Y-106833075D01*
X167178148Y-106992718D01*
X166992718Y-107178148D01*
X166833075Y-107386196D01*
X166701958Y-107613299D01*
X166701953Y-107613309D01*
X166601605Y-107855571D01*
X166601602Y-107855581D01*
X166538928Y-108089487D01*
X166533730Y-108108885D01*
X166499500Y-108368872D01*
X153570000Y-108368872D01*
X153570000Y-108280000D01*
X152870000Y-108280000D01*
X152870000Y-107780000D01*
X153570000Y-107780000D01*
X153570000Y-107381508D01*
X153569999Y-107381504D01*
X153531572Y-107188318D01*
X153531569Y-107188306D01*
X153456192Y-107006328D01*
X153456185Y-107006315D01*
X153346751Y-106842537D01*
X153346748Y-106842533D01*
X153207466Y-106703251D01*
X153207462Y-106703248D01*
X153043684Y-106593814D01*
X153043671Y-106593807D01*
X152861691Y-106518429D01*
X152861683Y-106518427D01*
X152820000Y-106510135D01*
X152820000Y-107313011D01*
X152810060Y-107295795D01*
X152754205Y-107239940D01*
X152685796Y-107200444D01*
X152609496Y-107180000D01*
X152530504Y-107180000D01*
X152454204Y-107200444D01*
X152385795Y-107239940D01*
X152329940Y-107295795D01*
X152320000Y-107313011D01*
X152320000Y-106510136D01*
X152319999Y-106510135D01*
X152278316Y-106518427D01*
X152278308Y-106518429D01*
X152096328Y-106593807D01*
X152096315Y-106593814D01*
X151932537Y-106703248D01*
X151932533Y-106703251D01*
X151793251Y-106842533D01*
X151793248Y-106842537D01*
X151683814Y-107006315D01*
X151683807Y-107006328D01*
X151608430Y-107188306D01*
X151608427Y-107188318D01*
X151570000Y-107381504D01*
X151570000Y-107780000D01*
X152270000Y-107780000D01*
X152270000Y-108280000D01*
X151720237Y-108280000D01*
X151653198Y-108260315D01*
X151612850Y-108218000D01*
X151600515Y-108196635D01*
X151493365Y-108089485D01*
X151427750Y-108051602D01*
X151362136Y-108013719D01*
X151288950Y-107994109D01*
X151215766Y-107974500D01*
X151064234Y-107974500D01*
X150917863Y-108013719D01*
X150786635Y-108089485D01*
X150786632Y-108089487D01*
X150679487Y-108196632D01*
X150679485Y-108196635D01*
X150603719Y-108327863D01*
X150564500Y-108474234D01*
X145935500Y-108474234D01*
X145896281Y-108327865D01*
X145820515Y-108196635D01*
X145713365Y-108089485D01*
X145647750Y-108051602D01*
X145582136Y-108013719D01*
X145508950Y-107994109D01*
X145435766Y-107974500D01*
X145284234Y-107974500D01*
X145137863Y-108013719D01*
X145006635Y-108089485D01*
X145006632Y-108089487D01*
X144899487Y-108196632D01*
X144899483Y-108196638D01*
X144887150Y-108218000D01*
X144836583Y-108266216D01*
X144779763Y-108280000D01*
X144230000Y-108280000D01*
X144230000Y-107780000D01*
X144930000Y-107780000D01*
X144930000Y-107381508D01*
X144929999Y-107381504D01*
X144891572Y-107188318D01*
X144891569Y-107188306D01*
X144816192Y-107006328D01*
X144816185Y-107006315D01*
X144706751Y-106842537D01*
X144706748Y-106842533D01*
X144567466Y-106703251D01*
X144567462Y-106703248D01*
X144403684Y-106593814D01*
X144403671Y-106593807D01*
X144221691Y-106518429D01*
X144221683Y-106518427D01*
X144180000Y-106510135D01*
X144180000Y-107313011D01*
X144170060Y-107295795D01*
X144114205Y-107239940D01*
X144045796Y-107200444D01*
X143969496Y-107180000D01*
X143890504Y-107180000D01*
X143814204Y-107200444D01*
X143745795Y-107239940D01*
X143689940Y-107295795D01*
X143680000Y-107313011D01*
X143680000Y-106510136D01*
X143679999Y-106510135D01*
X143638316Y-106518427D01*
X143638308Y-106518429D01*
X143456328Y-106593807D01*
X143456315Y-106593814D01*
X143292537Y-106703248D01*
X143292533Y-106703251D01*
X143153251Y-106842533D01*
X143153248Y-106842537D01*
X143043814Y-107006315D01*
X143043807Y-107006328D01*
X142968430Y-107188306D01*
X142968427Y-107188318D01*
X142930000Y-107381504D01*
X139163324Y-107381504D01*
X139007281Y-107178148D01*
X139007274Y-107178140D01*
X138821860Y-106992726D01*
X138821851Y-106992718D01*
X138613803Y-106833075D01*
X138386700Y-106701958D01*
X138386690Y-106701953D01*
X138144428Y-106601605D01*
X138144421Y-106601603D01*
X138144419Y-106601602D01*
X137891116Y-106533730D01*
X137833339Y-106526123D01*
X137631127Y-106499500D01*
X137631120Y-106499500D01*
X137368880Y-106499500D01*
X137368872Y-106499500D01*
X137137772Y-106529926D01*
X137108884Y-106533730D01*
X136884646Y-106593814D01*
X136855581Y-106601602D01*
X136855571Y-106601605D01*
X136613309Y-106701953D01*
X136613299Y-106701958D01*
X136386196Y-106833075D01*
X136178148Y-106992718D01*
X135992718Y-107178148D01*
X135833075Y-107386196D01*
X135701958Y-107613299D01*
X135701953Y-107613309D01*
X135601605Y-107855571D01*
X135601602Y-107855581D01*
X135538928Y-108089487D01*
X135533730Y-108108885D01*
X135499500Y-108368872D01*
X132500500Y-108368872D01*
X132500500Y-105366420D01*
X159249499Y-105366420D01*
X159278340Y-105511407D01*
X159278343Y-105511417D01*
X159334912Y-105647988D01*
X159334919Y-105648001D01*
X159417048Y-105770915D01*
X159417051Y-105770919D01*
X159521580Y-105875448D01*
X159521584Y-105875451D01*
X159644498Y-105957580D01*
X159644511Y-105957587D01*
X159781082Y-106014156D01*
X159781087Y-106014158D01*
X159781091Y-106014158D01*
X159781092Y-106014159D01*
X159926079Y-106043000D01*
X159926082Y-106043000D01*
X160073920Y-106043000D01*
X160171462Y-106023596D01*
X160218913Y-106014158D01*
X160355495Y-105957584D01*
X160478416Y-105875451D01*
X160582951Y-105770916D01*
X160665084Y-105647995D01*
X160721658Y-105511413D01*
X160750500Y-105366418D01*
X160750500Y-105218582D01*
X160750500Y-105218579D01*
X160721659Y-105073592D01*
X160721658Y-105073591D01*
X160721658Y-105073587D01*
X160721656Y-105073582D01*
X160665087Y-104937011D01*
X160665080Y-104936998D01*
X160582951Y-104814084D01*
X160582948Y-104814080D01*
X160478419Y-104709551D01*
X160478415Y-104709548D01*
X160355501Y-104627419D01*
X160355488Y-104627412D01*
X160218917Y-104570843D01*
X160218907Y-104570840D01*
X160073920Y-104542000D01*
X160073918Y-104542000D01*
X159926082Y-104542000D01*
X159926080Y-104542000D01*
X159781092Y-104570840D01*
X159781082Y-104570843D01*
X159644511Y-104627412D01*
X159644498Y-104627419D01*
X159521584Y-104709548D01*
X159521580Y-104709551D01*
X159417051Y-104814080D01*
X159417048Y-104814084D01*
X159334919Y-104936998D01*
X159334912Y-104937011D01*
X159278343Y-105073582D01*
X159278340Y-105073592D01*
X159249500Y-105218579D01*
X159249500Y-105218582D01*
X159249500Y-105366418D01*
X159249500Y-105366420D01*
X159249499Y-105366420D01*
X132500500Y-105366420D01*
X132500500Y-102237224D01*
X133584589Y-102237224D01*
X133609587Y-102362891D01*
X133609589Y-102362897D01*
X133658623Y-102481277D01*
X133658628Y-102481286D01*
X133729813Y-102587821D01*
X133729816Y-102587825D01*
X133820417Y-102678426D01*
X133820421Y-102678429D01*
X133926956Y-102749614D01*
X133926962Y-102749617D01*
X133926963Y-102749618D01*
X134045346Y-102798654D01*
X134045350Y-102798654D01*
X134045351Y-102798655D01*
X134171018Y-102823653D01*
X134171021Y-102823653D01*
X134299161Y-102823653D01*
X134383705Y-102806835D01*
X134424834Y-102798654D01*
X134543217Y-102749618D01*
X134649759Y-102678429D01*
X134740366Y-102587822D01*
X134811555Y-102481280D01*
X134860591Y-102362897D01*
X134885590Y-102237222D01*
X134885590Y-102109084D01*
X134885590Y-102109081D01*
X134860592Y-101983414D01*
X134860591Y-101983413D01*
X134860591Y-101983409D01*
X134811555Y-101865026D01*
X134811554Y-101865025D01*
X134811551Y-101865019D01*
X134740366Y-101758484D01*
X134740363Y-101758480D01*
X134649762Y-101667879D01*
X134649758Y-101667876D01*
X134543223Y-101596691D01*
X134543214Y-101596686D01*
X134424834Y-101547652D01*
X134424828Y-101547650D01*
X134299161Y-101522653D01*
X134299159Y-101522653D01*
X134171021Y-101522653D01*
X134171019Y-101522653D01*
X134045351Y-101547650D01*
X134045345Y-101547652D01*
X133926965Y-101596686D01*
X133926956Y-101596691D01*
X133820421Y-101667876D01*
X133820417Y-101667879D01*
X133729816Y-101758480D01*
X133729813Y-101758484D01*
X133658628Y-101865019D01*
X133658623Y-101865028D01*
X133609589Y-101983408D01*
X133609587Y-101983414D01*
X133584590Y-102109081D01*
X133584590Y-102109084D01*
X133584590Y-102237222D01*
X133584590Y-102237224D01*
X133584589Y-102237224D01*
X132500500Y-102237224D01*
X132500500Y-99237224D01*
X133584589Y-99237224D01*
X133609587Y-99362891D01*
X133609589Y-99362897D01*
X133658623Y-99481277D01*
X133658628Y-99481286D01*
X133729813Y-99587821D01*
X133729816Y-99587825D01*
X133820417Y-99678426D01*
X133820421Y-99678429D01*
X133926956Y-99749614D01*
X133926962Y-99749617D01*
X133926963Y-99749618D01*
X134045346Y-99798654D01*
X134045350Y-99798654D01*
X134045351Y-99798655D01*
X134171018Y-99823653D01*
X134171021Y-99823653D01*
X134299161Y-99823653D01*
X134383705Y-99806835D01*
X134424834Y-99798654D01*
X134543217Y-99749618D01*
X134649759Y-99678429D01*
X134740366Y-99587822D01*
X134811555Y-99481280D01*
X134860591Y-99362897D01*
X134881236Y-99259110D01*
X134885590Y-99237224D01*
X134885590Y-99109081D01*
X134860592Y-98983414D01*
X134860591Y-98983413D01*
X134860591Y-98983409D01*
X134811555Y-98865026D01*
X134811554Y-98865025D01*
X134811551Y-98865019D01*
X134740366Y-98758484D01*
X134740363Y-98758480D01*
X134649762Y-98667879D01*
X134649758Y-98667876D01*
X134543223Y-98596691D01*
X134543214Y-98596686D01*
X134424834Y-98547652D01*
X134424828Y-98547650D01*
X134299161Y-98522653D01*
X134299159Y-98522653D01*
X134171021Y-98522653D01*
X134171019Y-98522653D01*
X134045351Y-98547650D01*
X134045345Y-98547652D01*
X133926965Y-98596686D01*
X133926956Y-98596691D01*
X133820421Y-98667876D01*
X133820417Y-98667879D01*
X133729816Y-98758480D01*
X133729813Y-98758484D01*
X133658628Y-98865019D01*
X133658623Y-98865028D01*
X133609589Y-98983408D01*
X133609587Y-98983414D01*
X133584590Y-99109081D01*
X133584590Y-99109084D01*
X133584590Y-99237222D01*
X133584590Y-99237224D01*
X133584589Y-99237224D01*
X132500500Y-99237224D01*
X132500500Y-94659364D01*
X133844123Y-94659364D01*
X133882571Y-94852650D01*
X133882574Y-94852660D01*
X133957988Y-95034728D01*
X133957995Y-95034741D01*
X134067484Y-95198602D01*
X134067487Y-95198606D01*
X134206838Y-95337957D01*
X134206842Y-95337960D01*
X134370703Y-95447449D01*
X134370716Y-95447456D01*
X134445604Y-95478475D01*
X134552789Y-95522872D01*
X134552793Y-95522872D01*
X134552794Y-95522873D01*
X134746080Y-95561321D01*
X134746083Y-95561321D01*
X134943167Y-95561321D01*
X135073206Y-95535453D01*
X135136459Y-95522872D01*
X135177788Y-95505752D01*
X135243645Y-95478475D01*
X135318531Y-95447456D01*
X135318531Y-95447455D01*
X135318538Y-95447453D01*
X135482406Y-95337960D01*
X135565059Y-95255306D01*
X135626380Y-95221822D01*
X135696071Y-95226806D01*
X135752005Y-95268676D01*
X135753057Y-95270102D01*
X135765147Y-95286742D01*
X135765148Y-95286743D01*
X136402476Y-94649415D01*
X136425280Y-94734519D01*
X136484525Y-94837135D01*
X136568310Y-94920920D01*
X136670926Y-94980165D01*
X136756029Y-95002968D01*
X136118700Y-95640295D01*
X136163274Y-95672680D01*
X136345592Y-95765576D01*
X136540206Y-95828811D01*
X136742307Y-95860821D01*
X136946941Y-95860821D01*
X137149041Y-95828811D01*
X137343655Y-95765576D01*
X137525973Y-95672680D01*
X137570545Y-95640295D01*
X136933218Y-95002968D01*
X137018322Y-94980165D01*
X137120938Y-94920920D01*
X137204723Y-94837135D01*
X137263968Y-94734519D01*
X137286771Y-94649416D01*
X137924098Y-95286743D01*
X137924098Y-95286742D01*
X137956483Y-95242170D01*
X138049379Y-95059852D01*
X138112614Y-94865238D01*
X138144624Y-94663138D01*
X138144624Y-94458503D01*
X138112614Y-94256403D01*
X138049379Y-94061789D01*
X137956483Y-93879471D01*
X137924098Y-93834898D01*
X137924098Y-93834897D01*
X137286771Y-94472225D01*
X137263968Y-94387123D01*
X137204723Y-94284507D01*
X137120938Y-94200722D01*
X137018322Y-94141477D01*
X136933217Y-94118673D01*
X137570546Y-93481345D01*
X137570545Y-93481344D01*
X137525983Y-93448968D01*
X137525974Y-93448962D01*
X137343655Y-93356065D01*
X137149041Y-93292830D01*
X136946941Y-93260821D01*
X136742307Y-93260821D01*
X136540206Y-93292830D01*
X136345592Y-93356065D01*
X136163268Y-93448964D01*
X136118701Y-93481344D01*
X136118701Y-93481345D01*
X136756030Y-94118673D01*
X136670926Y-94141477D01*
X136568310Y-94200722D01*
X136484525Y-94284507D01*
X136425280Y-94387123D01*
X136402476Y-94472226D01*
X135765148Y-93834898D01*
X135765147Y-93834898D01*
X135753059Y-93851537D01*
X135697729Y-93894204D01*
X135628116Y-93900184D01*
X135566321Y-93867578D01*
X135565059Y-93866334D01*
X135482409Y-93783684D01*
X135482405Y-93783681D01*
X135318544Y-93674192D01*
X135318531Y-93674185D01*
X135243640Y-93643165D01*
X135136463Y-93598771D01*
X135136453Y-93598768D01*
X134943167Y-93560321D01*
X134943165Y-93560321D01*
X134746083Y-93560321D01*
X134746081Y-93560321D01*
X134552794Y-93598768D01*
X134552784Y-93598771D01*
X134370716Y-93674185D01*
X134370703Y-93674192D01*
X134206842Y-93783681D01*
X134206838Y-93783684D01*
X134067487Y-93923035D01*
X134067484Y-93923039D01*
X133957995Y-94086900D01*
X133957988Y-94086913D01*
X133882574Y-94268981D01*
X133882571Y-94268991D01*
X133844124Y-94462277D01*
X133844124Y-94462280D01*
X133844124Y-94659362D01*
X133844124Y-94659364D01*
X133844123Y-94659364D01*
X132500500Y-94659364D01*
X132500500Y-91398500D01*
X135045050Y-91398500D01*
X135061849Y-91409725D01*
X135061855Y-91409728D01*
X135230182Y-91479451D01*
X135230194Y-91479454D01*
X135408890Y-91514999D01*
X135408894Y-91515000D01*
X135591106Y-91515000D01*
X135591109Y-91514999D01*
X135769805Y-91479454D01*
X135769813Y-91479452D01*
X135938151Y-91409724D01*
X135938154Y-91409723D01*
X135954947Y-91398500D01*
X135954948Y-91398500D01*
X135500001Y-90943553D01*
X135500000Y-90943553D01*
X135045050Y-91398500D01*
X132500500Y-91398500D01*
X132500500Y-90498890D01*
X134575000Y-90498890D01*
X134575000Y-90681109D01*
X134610545Y-90859805D01*
X134610548Y-90859817D01*
X134680271Y-91028145D01*
X134691498Y-91044947D01*
X135146446Y-90590000D01*
X135146446Y-90589999D01*
X135096719Y-90540272D01*
X135250000Y-90540272D01*
X135250000Y-90639728D01*
X135288060Y-90731614D01*
X135358386Y-90801940D01*
X135450272Y-90840000D01*
X135549728Y-90840000D01*
X135641614Y-90801940D01*
X135711940Y-90731614D01*
X135750000Y-90639728D01*
X135750000Y-90540272D01*
X135711940Y-90448386D01*
X135641614Y-90378060D01*
X135549728Y-90340000D01*
X135450272Y-90340000D01*
X135358386Y-90378060D01*
X135288060Y-90448386D01*
X135250000Y-90540272D01*
X135096719Y-90540272D01*
X134691498Y-90135050D01*
X134680274Y-90151848D01*
X134610547Y-90320186D01*
X134610545Y-90320194D01*
X134575000Y-90498890D01*
X132500500Y-90498890D01*
X132500500Y-69145247D01*
X134874500Y-69145247D01*
X134874500Y-70034752D01*
X134886131Y-70093229D01*
X134886132Y-70093230D01*
X134937233Y-70169707D01*
X134933541Y-70172173D01*
X134955567Y-70212510D01*
X134950583Y-70282202D01*
X134947943Y-70288054D01*
X134948020Y-70288086D01*
X134898538Y-70407545D01*
X134898535Y-70407555D01*
X134874500Y-70528389D01*
X134874500Y-70651610D01*
X134898535Y-70772444D01*
X134898538Y-70772454D01*
X134945687Y-70886283D01*
X134945692Y-70886292D01*
X135014141Y-70988732D01*
X135014144Y-70988736D01*
X135027727Y-71002319D01*
X135061212Y-71063642D01*
X135056228Y-71133334D01*
X135027727Y-71177681D01*
X135014144Y-71191263D01*
X135014141Y-71191267D01*
X134945692Y-71293707D01*
X134945687Y-71293716D01*
X134898538Y-71407545D01*
X134898535Y-71407555D01*
X134874500Y-71528389D01*
X134874500Y-71651610D01*
X134898535Y-71772444D01*
X134898538Y-71772454D01*
X134945687Y-71886283D01*
X134945692Y-71886292D01*
X135014141Y-71988732D01*
X135014144Y-71988736D01*
X135027727Y-72002319D01*
X135061212Y-72063642D01*
X135056228Y-72133334D01*
X135027727Y-72177681D01*
X135014144Y-72191263D01*
X135014141Y-72191267D01*
X134945692Y-72293707D01*
X134945687Y-72293716D01*
X134898538Y-72407545D01*
X134898535Y-72407555D01*
X134874500Y-72528389D01*
X134874500Y-72651610D01*
X134898535Y-72772444D01*
X134898538Y-72772454D01*
X134945687Y-72886283D01*
X134945692Y-72886292D01*
X135014141Y-72988732D01*
X135014144Y-72988736D01*
X135027727Y-73002319D01*
X135061212Y-73063642D01*
X135056228Y-73133334D01*
X135027727Y-73177681D01*
X135014144Y-73191263D01*
X135014141Y-73191267D01*
X134945692Y-73293707D01*
X134945687Y-73293716D01*
X134898538Y-73407545D01*
X134898535Y-73407555D01*
X134874500Y-73528389D01*
X134874500Y-73651610D01*
X134898535Y-73772444D01*
X134898538Y-73772454D01*
X134945687Y-73886283D01*
X134945692Y-73886292D01*
X135014141Y-73988732D01*
X135014144Y-73988736D01*
X135027727Y-74002319D01*
X135061212Y-74063642D01*
X135056228Y-74133334D01*
X135027727Y-74177681D01*
X135014144Y-74191263D01*
X135014141Y-74191267D01*
X134945692Y-74293707D01*
X134945687Y-74293716D01*
X134898538Y-74407545D01*
X134898535Y-74407555D01*
X134874500Y-74528389D01*
X134874500Y-74651610D01*
X134898535Y-74772444D01*
X134898538Y-74772454D01*
X134945687Y-74886283D01*
X134945692Y-74886292D01*
X135014141Y-74988732D01*
X135014144Y-74988736D01*
X135027727Y-75002319D01*
X135061212Y-75063642D01*
X135056228Y-75133334D01*
X135027727Y-75177681D01*
X135014144Y-75191263D01*
X135014141Y-75191267D01*
X134945692Y-75293707D01*
X134945687Y-75293716D01*
X134898538Y-75407545D01*
X134898535Y-75407555D01*
X134874500Y-75528389D01*
X134874500Y-75651610D01*
X134898535Y-75772444D01*
X134898538Y-75772454D01*
X134945687Y-75886283D01*
X134945692Y-75886292D01*
X135014141Y-75988732D01*
X135014144Y-75988736D01*
X135027727Y-76002319D01*
X135061212Y-76063642D01*
X135056228Y-76133334D01*
X135027727Y-76177681D01*
X135014144Y-76191263D01*
X135014141Y-76191267D01*
X134945692Y-76293707D01*
X134945687Y-76293716D01*
X134898538Y-76407545D01*
X134898535Y-76407555D01*
X134874500Y-76528389D01*
X134874500Y-76651610D01*
X134898535Y-76772444D01*
X134898538Y-76772454D01*
X134945687Y-76886283D01*
X134945692Y-76886292D01*
X135014141Y-76988732D01*
X135014144Y-76988736D01*
X135027727Y-77002319D01*
X135061212Y-77063642D01*
X135056228Y-77133334D01*
X135027727Y-77177681D01*
X135014144Y-77191263D01*
X135014141Y-77191267D01*
X134945692Y-77293707D01*
X134945687Y-77293716D01*
X134898538Y-77407545D01*
X134898535Y-77407555D01*
X134874500Y-77528389D01*
X134874500Y-77651610D01*
X134898535Y-77772444D01*
X134898537Y-77772452D01*
X134907246Y-77793477D01*
X134945687Y-77886283D01*
X134945692Y-77886292D01*
X135014141Y-77988732D01*
X135014144Y-77988736D01*
X135027727Y-78002319D01*
X135061212Y-78063642D01*
X135056228Y-78133334D01*
X135027727Y-78177681D01*
X135014144Y-78191263D01*
X135014141Y-78191267D01*
X134945692Y-78293707D01*
X134945687Y-78293716D01*
X134898538Y-78407545D01*
X134898535Y-78407555D01*
X134874500Y-78528389D01*
X134874500Y-78651610D01*
X134898535Y-78772444D01*
X134898538Y-78772454D01*
X134945687Y-78886283D01*
X134945692Y-78886292D01*
X135014141Y-78988732D01*
X135014144Y-78988736D01*
X135027727Y-79002319D01*
X135061212Y-79063642D01*
X135056228Y-79133334D01*
X135027727Y-79177681D01*
X135014144Y-79191263D01*
X135014141Y-79191267D01*
X134945692Y-79293707D01*
X134945687Y-79293716D01*
X134898538Y-79407545D01*
X134898535Y-79407555D01*
X134874500Y-79528389D01*
X134874500Y-79651610D01*
X134898535Y-79772444D01*
X134898538Y-79772454D01*
X134945687Y-79886283D01*
X134945692Y-79886292D01*
X135014141Y-79988732D01*
X135014144Y-79988736D01*
X135027727Y-80002319D01*
X135061212Y-80063642D01*
X135056228Y-80133334D01*
X135027727Y-80177681D01*
X135014144Y-80191263D01*
X135014141Y-80191267D01*
X134945692Y-80293707D01*
X134945687Y-80293716D01*
X134898538Y-80407545D01*
X134898535Y-80407555D01*
X134874500Y-80528389D01*
X134874500Y-80651610D01*
X134898535Y-80772444D01*
X134898538Y-80772454D01*
X134945687Y-80886283D01*
X134945692Y-80886292D01*
X135014141Y-80988732D01*
X135014144Y-80988736D01*
X135027727Y-81002319D01*
X135061212Y-81063642D01*
X135056228Y-81133334D01*
X135027727Y-81177681D01*
X135014144Y-81191263D01*
X135014141Y-81191267D01*
X134945692Y-81293707D01*
X134945687Y-81293716D01*
X134898538Y-81407545D01*
X134898535Y-81407555D01*
X134874500Y-81528389D01*
X134874500Y-81651610D01*
X134898535Y-81772444D01*
X134898538Y-81772454D01*
X134945687Y-81886283D01*
X134945692Y-81886292D01*
X135014141Y-81988732D01*
X135014144Y-81988736D01*
X135027727Y-82002319D01*
X135061212Y-82063642D01*
X135056228Y-82133334D01*
X135027727Y-82177681D01*
X135014144Y-82191263D01*
X135014141Y-82191267D01*
X134945692Y-82293707D01*
X134945687Y-82293716D01*
X134898538Y-82407545D01*
X134898535Y-82407555D01*
X134874500Y-82528389D01*
X134874500Y-82651610D01*
X134898535Y-82772444D01*
X134898538Y-82772454D01*
X134945687Y-82886283D01*
X134945692Y-82886292D01*
X135014141Y-82988732D01*
X135014144Y-82988736D01*
X135027727Y-83002319D01*
X135061212Y-83063642D01*
X135056228Y-83133334D01*
X135027727Y-83177681D01*
X135014144Y-83191263D01*
X135014141Y-83191267D01*
X134945692Y-83293707D01*
X134945687Y-83293716D01*
X134898538Y-83407545D01*
X134898535Y-83407555D01*
X134874500Y-83528389D01*
X134874500Y-83651610D01*
X134898535Y-83772444D01*
X134898538Y-83772454D01*
X134945687Y-83886283D01*
X134945692Y-83886292D01*
X135014141Y-83988732D01*
X135014144Y-83988736D01*
X135027727Y-84002319D01*
X135061212Y-84063642D01*
X135056228Y-84133334D01*
X135027727Y-84177681D01*
X135014144Y-84191263D01*
X135014141Y-84191267D01*
X134945692Y-84293707D01*
X134945687Y-84293716D01*
X134898538Y-84407545D01*
X134898535Y-84407555D01*
X134874500Y-84528389D01*
X134874500Y-84651610D01*
X134898535Y-84772444D01*
X134898538Y-84772454D01*
X134945687Y-84886283D01*
X134945692Y-84886292D01*
X135014141Y-84988732D01*
X135014144Y-84988736D01*
X135027727Y-85002319D01*
X135061212Y-85063642D01*
X135056228Y-85133334D01*
X135027727Y-85177681D01*
X135014144Y-85191263D01*
X135014141Y-85191267D01*
X134945692Y-85293707D01*
X134945687Y-85293716D01*
X134898538Y-85407545D01*
X134898535Y-85407555D01*
X134874500Y-85528389D01*
X134874500Y-85651610D01*
X134898535Y-85772444D01*
X134898538Y-85772454D01*
X134945687Y-85886283D01*
X134945692Y-85886292D01*
X135014141Y-85988732D01*
X135014144Y-85988736D01*
X135027727Y-86002319D01*
X135061212Y-86063642D01*
X135056228Y-86133334D01*
X135027727Y-86177681D01*
X135014144Y-86191263D01*
X135014141Y-86191267D01*
X134945692Y-86293707D01*
X134945687Y-86293716D01*
X134898538Y-86407545D01*
X134898535Y-86407555D01*
X134874500Y-86528389D01*
X134874500Y-86651610D01*
X134898535Y-86772444D01*
X134898538Y-86772454D01*
X134945687Y-86886283D01*
X134945692Y-86886292D01*
X135014141Y-86988732D01*
X135014144Y-86988736D01*
X135027727Y-87002319D01*
X135061212Y-87063642D01*
X135056228Y-87133334D01*
X135027727Y-87177681D01*
X135014144Y-87191263D01*
X135014141Y-87191267D01*
X134945692Y-87293707D01*
X134945687Y-87293716D01*
X134898538Y-87407545D01*
X134898535Y-87407555D01*
X134874500Y-87528389D01*
X134874500Y-87651610D01*
X134898535Y-87772444D01*
X134898538Y-87772454D01*
X134945687Y-87886283D01*
X134945692Y-87886292D01*
X135014141Y-87988732D01*
X135014144Y-87988736D01*
X135027727Y-88002319D01*
X135061212Y-88063642D01*
X135056228Y-88133334D01*
X135027727Y-88177681D01*
X135014144Y-88191263D01*
X135014141Y-88191267D01*
X134945692Y-88293707D01*
X134945687Y-88293716D01*
X134898538Y-88407545D01*
X134898535Y-88407555D01*
X134874500Y-88528389D01*
X134874500Y-88651610D01*
X134898535Y-88772444D01*
X134898538Y-88772454D01*
X134945687Y-88886283D01*
X134945692Y-88886292D01*
X135014141Y-88988732D01*
X135014144Y-88988736D01*
X135027727Y-89002319D01*
X135061212Y-89063642D01*
X135056228Y-89133334D01*
X135027727Y-89177681D01*
X135014144Y-89191263D01*
X135014141Y-89191267D01*
X134945692Y-89293707D01*
X134945687Y-89293716D01*
X134898538Y-89407545D01*
X134898535Y-89407555D01*
X134874500Y-89528389D01*
X134874500Y-89651610D01*
X134898535Y-89772444D01*
X134898538Y-89772454D01*
X134945687Y-89886283D01*
X134945692Y-89886292D01*
X135014141Y-89988732D01*
X135014144Y-89988736D01*
X135101263Y-90075855D01*
X135101267Y-90075858D01*
X135203707Y-90144307D01*
X135203713Y-90144310D01*
X135203714Y-90144311D01*
X135317548Y-90191463D01*
X135374292Y-90202749D01*
X135435858Y-90214996D01*
X135435860Y-90214996D01*
X135438394Y-90215500D01*
X135561606Y-90215500D01*
X135612475Y-90205381D01*
X135682063Y-90211607D01*
X135724346Y-90239317D01*
X135876610Y-90391581D01*
X135910095Y-90452904D01*
X135905111Y-90522596D01*
X135876610Y-90566943D01*
X135853553Y-90590000D01*
X136308499Y-91044947D01*
X136313270Y-91037808D01*
X136366884Y-90993005D01*
X136436210Y-90984300D01*
X136499236Y-91014458D01*
X136504051Y-91019022D01*
X143888181Y-98403152D01*
X143921666Y-98464475D01*
X143924500Y-98490833D01*
X143924500Y-98866323D01*
X143904815Y-98933362D01*
X143888182Y-98954004D01*
X143824500Y-99017686D01*
X143758608Y-99131812D01*
X143724500Y-99259108D01*
X143724500Y-99390891D01*
X143758608Y-99518187D01*
X143791554Y-99575250D01*
X143824500Y-99632314D01*
X143917686Y-99725500D01*
X144031814Y-99791392D01*
X144159108Y-99825500D01*
X144159110Y-99825500D01*
X144290890Y-99825500D01*
X144290892Y-99825500D01*
X144418186Y-99791392D01*
X144532314Y-99725500D01*
X144625500Y-99632314D01*
X144691392Y-99518186D01*
X144725500Y-99390892D01*
X144725500Y-99259108D01*
X144691392Y-99131814D01*
X144625500Y-99017686D01*
X144561818Y-98954004D01*
X144528334Y-98892680D01*
X144525500Y-98866323D01*
X144525500Y-98275439D01*
X144505020Y-98199009D01*
X144505017Y-98199004D01*
X144465464Y-98130495D01*
X144465458Y-98130487D01*
X136149317Y-89814346D01*
X136115832Y-89753023D01*
X136115381Y-89702476D01*
X136125500Y-89651606D01*
X136125500Y-89528394D01*
X136101463Y-89407548D01*
X136054311Y-89293714D01*
X136054310Y-89293713D01*
X136054307Y-89293707D01*
X135985858Y-89191267D01*
X135985855Y-89191263D01*
X135972273Y-89177681D01*
X135938788Y-89116358D01*
X135943772Y-89046666D01*
X135972273Y-89002319D01*
X135985855Y-88988736D01*
X135985858Y-88988733D01*
X136054311Y-88886286D01*
X136101463Y-88772452D01*
X136125500Y-88651606D01*
X136125500Y-88528394D01*
X136101463Y-88407548D01*
X136054311Y-88293714D01*
X136054310Y-88293713D01*
X136054307Y-88293707D01*
X135985858Y-88191267D01*
X135985855Y-88191263D01*
X135972273Y-88177681D01*
X135938788Y-88116358D01*
X135943772Y-88046666D01*
X135972273Y-88002319D01*
X135985855Y-87988736D01*
X135985858Y-87988733D01*
X136054311Y-87886286D01*
X136101463Y-87772452D01*
X136125500Y-87651606D01*
X136125500Y-87528394D01*
X136101463Y-87407548D01*
X136054311Y-87293714D01*
X136054310Y-87293713D01*
X136054307Y-87293707D01*
X135985858Y-87191267D01*
X135985855Y-87191263D01*
X135972273Y-87177681D01*
X135938788Y-87116358D01*
X135943772Y-87046666D01*
X135972273Y-87002319D01*
X135985855Y-86988736D01*
X135985858Y-86988733D01*
X136054311Y-86886286D01*
X136101463Y-86772452D01*
X136125500Y-86651606D01*
X136125500Y-86528394D01*
X136101463Y-86407548D01*
X136054311Y-86293714D01*
X136054310Y-86293713D01*
X136054307Y-86293707D01*
X135985858Y-86191267D01*
X135985855Y-86191263D01*
X135972273Y-86177681D01*
X135938788Y-86116358D01*
X135943772Y-86046666D01*
X135972273Y-86002319D01*
X135985855Y-85988736D01*
X135985858Y-85988733D01*
X136054311Y-85886286D01*
X136101463Y-85772452D01*
X136125500Y-85651606D01*
X136125500Y-85528394D01*
X136101463Y-85407548D01*
X136054311Y-85293714D01*
X136054310Y-85293713D01*
X136054307Y-85293707D01*
X135985858Y-85191267D01*
X135985855Y-85191263D01*
X135972273Y-85177681D01*
X135938788Y-85116358D01*
X135943772Y-85046666D01*
X135972273Y-85002319D01*
X135985855Y-84988736D01*
X135985858Y-84988733D01*
X136054311Y-84886286D01*
X136101463Y-84772452D01*
X136125500Y-84651606D01*
X136125500Y-84528394D01*
X136101463Y-84407548D01*
X136054311Y-84293714D01*
X136054310Y-84293713D01*
X136054307Y-84293707D01*
X135985858Y-84191267D01*
X135985855Y-84191263D01*
X135972273Y-84177681D01*
X135938788Y-84116358D01*
X135943772Y-84046666D01*
X135972273Y-84002319D01*
X135985855Y-83988736D01*
X135985858Y-83988733D01*
X136054311Y-83886286D01*
X136101463Y-83772452D01*
X136125500Y-83651606D01*
X136125500Y-83528394D01*
X136101463Y-83407548D01*
X136054311Y-83293714D01*
X136054310Y-83293713D01*
X136054307Y-83293707D01*
X135985858Y-83191267D01*
X135985855Y-83191263D01*
X135972273Y-83177681D01*
X135938788Y-83116358D01*
X135943772Y-83046666D01*
X135972273Y-83002319D01*
X135985855Y-82988736D01*
X135985858Y-82988733D01*
X136054311Y-82886286D01*
X136101463Y-82772452D01*
X136125500Y-82651606D01*
X136125500Y-82528394D01*
X136101463Y-82407548D01*
X136054311Y-82293714D01*
X136054310Y-82293713D01*
X136054307Y-82293707D01*
X135985858Y-82191267D01*
X135985855Y-82191263D01*
X135972273Y-82177681D01*
X135938788Y-82116358D01*
X135943772Y-82046666D01*
X135972273Y-82002319D01*
X135985855Y-81988736D01*
X135985858Y-81988733D01*
X136054311Y-81886286D01*
X136101463Y-81772452D01*
X136125500Y-81651606D01*
X136125500Y-81528394D01*
X136101463Y-81407548D01*
X136063020Y-81314739D01*
X136054312Y-81293716D01*
X136054307Y-81293707D01*
X135985858Y-81191267D01*
X135985855Y-81191263D01*
X135972273Y-81177681D01*
X135938788Y-81116358D01*
X135943772Y-81046666D01*
X135972273Y-81002319D01*
X135985855Y-80988736D01*
X135985858Y-80988733D01*
X136054311Y-80886286D01*
X136101463Y-80772452D01*
X136125500Y-80651606D01*
X136125500Y-80528394D01*
X136101463Y-80407548D01*
X136054311Y-80293714D01*
X136054310Y-80293713D01*
X136054307Y-80293707D01*
X135985858Y-80191267D01*
X135985855Y-80191263D01*
X135972273Y-80177681D01*
X135938788Y-80116358D01*
X135943772Y-80046666D01*
X135972273Y-80002319D01*
X135985855Y-79988736D01*
X135985858Y-79988733D01*
X136054311Y-79886286D01*
X136101463Y-79772452D01*
X136125500Y-79651606D01*
X136125500Y-79528394D01*
X136101463Y-79407548D01*
X136054311Y-79293714D01*
X136054310Y-79293713D01*
X136054307Y-79293707D01*
X135985858Y-79191267D01*
X135985855Y-79191263D01*
X135972273Y-79177681D01*
X135938788Y-79116358D01*
X135943772Y-79046666D01*
X135972273Y-79002319D01*
X135985855Y-78988736D01*
X135985858Y-78988733D01*
X136054311Y-78886286D01*
X136101463Y-78772452D01*
X136125500Y-78651606D01*
X136125500Y-78528394D01*
X136101463Y-78407548D01*
X136054311Y-78293714D01*
X136054310Y-78293713D01*
X136054307Y-78293707D01*
X135985858Y-78191267D01*
X135985855Y-78191263D01*
X135972273Y-78177681D01*
X135938788Y-78116358D01*
X135943772Y-78046666D01*
X135972273Y-78002319D01*
X135985855Y-77988736D01*
X135985858Y-77988733D01*
X136054311Y-77886286D01*
X136101463Y-77772452D01*
X136125500Y-77651606D01*
X136125500Y-77528394D01*
X136101463Y-77407548D01*
X136054311Y-77293714D01*
X136054310Y-77293713D01*
X136054307Y-77293707D01*
X135985858Y-77191267D01*
X135985855Y-77191263D01*
X135972273Y-77177681D01*
X135938788Y-77116358D01*
X135943772Y-77046666D01*
X135972273Y-77002319D01*
X135985855Y-76988736D01*
X135985858Y-76988733D01*
X136054311Y-76886286D01*
X136101463Y-76772452D01*
X136125500Y-76651606D01*
X136125500Y-76528394D01*
X136101463Y-76407548D01*
X136054311Y-76293714D01*
X136054310Y-76293713D01*
X136054307Y-76293707D01*
X135985858Y-76191267D01*
X135985855Y-76191263D01*
X135972273Y-76177681D01*
X135938788Y-76116358D01*
X135943772Y-76046666D01*
X135972273Y-76002319D01*
X135985855Y-75988736D01*
X135985858Y-75988733D01*
X136054311Y-75886286D01*
X136101463Y-75772452D01*
X136125500Y-75651606D01*
X136125500Y-75528394D01*
X136101463Y-75407548D01*
X136054311Y-75293714D01*
X136054310Y-75293713D01*
X136054307Y-75293707D01*
X135985858Y-75191267D01*
X135985855Y-75191263D01*
X135972273Y-75177681D01*
X135938788Y-75116358D01*
X135943772Y-75046666D01*
X135972273Y-75002319D01*
X135985855Y-74988736D01*
X135985858Y-74988733D01*
X136054311Y-74886286D01*
X136101463Y-74772452D01*
X136125500Y-74651606D01*
X136125500Y-74528394D01*
X136101463Y-74407548D01*
X136054311Y-74293714D01*
X136054310Y-74293713D01*
X136054307Y-74293707D01*
X135985858Y-74191267D01*
X135985855Y-74191263D01*
X135972273Y-74177681D01*
X135938788Y-74116358D01*
X135943772Y-74046666D01*
X135972273Y-74002319D01*
X135985855Y-73988736D01*
X135985858Y-73988733D01*
X136054311Y-73886286D01*
X136101463Y-73772452D01*
X136125500Y-73651606D01*
X136125500Y-73528394D01*
X136101463Y-73407548D01*
X136054311Y-73293714D01*
X136054310Y-73293713D01*
X136054307Y-73293707D01*
X135985858Y-73191267D01*
X135985855Y-73191263D01*
X135972273Y-73177681D01*
X135938788Y-73116358D01*
X135943772Y-73046666D01*
X135972273Y-73002319D01*
X135985855Y-72988736D01*
X135985858Y-72988733D01*
X136054311Y-72886286D01*
X136101463Y-72772452D01*
X136125500Y-72651606D01*
X136125500Y-72528394D01*
X136101463Y-72407548D01*
X136054311Y-72293714D01*
X136054310Y-72293713D01*
X136054307Y-72293707D01*
X135985858Y-72191267D01*
X135985855Y-72191263D01*
X135972273Y-72177681D01*
X135938788Y-72116358D01*
X135943772Y-72046666D01*
X135972273Y-72002319D01*
X135985855Y-71988736D01*
X135985858Y-71988733D01*
X136054311Y-71886286D01*
X136101463Y-71772452D01*
X136125500Y-71651606D01*
X136125500Y-71621636D01*
X136145185Y-71554597D01*
X136197989Y-71508842D01*
X136267147Y-71498898D01*
X136330703Y-71527923D01*
X136337181Y-71533955D01*
X137433181Y-72629955D01*
X137466666Y-72691278D01*
X137469500Y-72717636D01*
X137469500Y-81640891D01*
X137503608Y-81768187D01*
X137519835Y-81796292D01*
X137569500Y-81882314D01*
X137609500Y-81922314D01*
X137702686Y-82015500D01*
X137786070Y-82063642D01*
X137816810Y-82081390D01*
X137816814Y-82081392D01*
X137944108Y-82115500D01*
X137944110Y-82115500D01*
X138075891Y-82115500D01*
X138075893Y-82115500D01*
X138203186Y-82081392D01*
X138317315Y-82015500D01*
X138410500Y-81922315D01*
X138476392Y-81808186D01*
X138510500Y-81680893D01*
X138510500Y-81549108D01*
X138503801Y-81524108D01*
X138480835Y-81438394D01*
X138474725Y-81415590D01*
X138470500Y-81383498D01*
X138470500Y-78426070D01*
X139401202Y-78426070D01*
X139401202Y-79434819D01*
X139401202Y-79538141D01*
X139414524Y-79587859D01*
X139427943Y-79637942D01*
X139441938Y-79662181D01*
X139479604Y-79727420D01*
X140166182Y-80413998D01*
X140255661Y-80465659D01*
X140355461Y-80492400D01*
X140355462Y-80492400D01*
X145726100Y-80492400D01*
X145793139Y-80512085D01*
X145813781Y-80528719D01*
X148039381Y-82754319D01*
X148072866Y-82815642D01*
X148075700Y-82842000D01*
X148075700Y-100791750D01*
X148056015Y-100858789D01*
X148039381Y-100879431D01*
X147773248Y-101145563D01*
X147717661Y-101177656D01*
X147606814Y-101207358D01*
X147606812Y-101207358D01*
X147606812Y-101207359D01*
X147492686Y-101273250D01*
X147492683Y-101273252D01*
X147399502Y-101366433D01*
X147399500Y-101366436D01*
X147333608Y-101480562D01*
X147299500Y-101607858D01*
X147299500Y-101739641D01*
X147333608Y-101866937D01*
X147366554Y-101924000D01*
X147399500Y-101981064D01*
X147492686Y-102074250D01*
X147606814Y-102140142D01*
X147734108Y-102174250D01*
X147734110Y-102174250D01*
X147865890Y-102174250D01*
X147865892Y-102174250D01*
X147993186Y-102140142D01*
X148107314Y-102074250D01*
X148200500Y-101981064D01*
X148266392Y-101866936D01*
X148296094Y-101756085D01*
X148328184Y-101700503D01*
X148662319Y-101366369D01*
X148723642Y-101332884D01*
X148793334Y-101337868D01*
X148837681Y-101366369D01*
X149171813Y-101700501D01*
X149203906Y-101756086D01*
X149233608Y-101866936D01*
X149299500Y-101981064D01*
X149392686Y-102074250D01*
X149506814Y-102140142D01*
X149634108Y-102174250D01*
X149634110Y-102174250D01*
X149765890Y-102174250D01*
X149765892Y-102174250D01*
X149893186Y-102140142D01*
X150007314Y-102074250D01*
X150100500Y-101981064D01*
X150166392Y-101866936D01*
X150200500Y-101739642D01*
X150200500Y-101607858D01*
X150166392Y-101480564D01*
X150100500Y-101366436D01*
X150007314Y-101273250D01*
X149893186Y-101207358D01*
X149782336Y-101177656D01*
X149726751Y-101145563D01*
X149460619Y-100879431D01*
X149427134Y-100818108D01*
X149424300Y-100791750D01*
X149424300Y-92934108D01*
X149959500Y-92934108D01*
X149959500Y-93065891D01*
X149993608Y-93193187D01*
X150026554Y-93250250D01*
X150059500Y-93307314D01*
X150152686Y-93400500D01*
X150266814Y-93466392D01*
X150394108Y-93500500D01*
X150394110Y-93500500D01*
X150525890Y-93500500D01*
X150525892Y-93500500D01*
X150653186Y-93466392D01*
X150767314Y-93400500D01*
X150830995Y-93336819D01*
X150857922Y-93322115D01*
X150883741Y-93305523D01*
X150889941Y-93304631D01*
X150892318Y-93303334D01*
X150918676Y-93300500D01*
X151017794Y-93300500D01*
X151084833Y-93320185D01*
X151130588Y-93372989D01*
X151140532Y-93442147D01*
X151111507Y-93505703D01*
X151079794Y-93531887D01*
X150962689Y-93599497D01*
X150962683Y-93599502D01*
X150869502Y-93692683D01*
X150869500Y-93692686D01*
X150803608Y-93806812D01*
X150769500Y-93934108D01*
X150769500Y-94065891D01*
X150803608Y-94193187D01*
X150836554Y-94250250D01*
X150869500Y-94307314D01*
X150869502Y-94307316D01*
X150968433Y-94406247D01*
X150966211Y-94408468D01*
X150998676Y-94452900D01*
X151006000Y-94494885D01*
X151006000Y-94847487D01*
X151006000Y-94952513D01*
X151046192Y-95049544D01*
X151046193Y-95049545D01*
X152989681Y-96993033D01*
X153023166Y-97054356D01*
X153026000Y-97080714D01*
X153026000Y-102645113D01*
X153006315Y-102712152D01*
X152987399Y-102732719D01*
X152988433Y-102733753D01*
X152889500Y-102832686D01*
X152823608Y-102946812D01*
X152789500Y-103074108D01*
X152789500Y-103205891D01*
X152823608Y-103333187D01*
X152856554Y-103390250D01*
X152889500Y-103447314D01*
X152982686Y-103540500D01*
X153096814Y-103606392D01*
X153224108Y-103640500D01*
X153224110Y-103640500D01*
X153355890Y-103640500D01*
X153355892Y-103640500D01*
X153483186Y-103606392D01*
X153597314Y-103540500D01*
X153690500Y-103447314D01*
X153756392Y-103333186D01*
X153790500Y-103205892D01*
X153790500Y-103074108D01*
X153756392Y-102946814D01*
X153690500Y-102832686D01*
X153597314Y-102739500D01*
X153597313Y-102739499D01*
X153591567Y-102733753D01*
X153593780Y-102731539D01*
X153561298Y-102687025D01*
X153554000Y-102645113D01*
X153554000Y-96867488D01*
X153554000Y-96867487D01*
X153513808Y-96770456D01*
X153439544Y-96696192D01*
X151570319Y-94826967D01*
X151555615Y-94800039D01*
X151539023Y-94774221D01*
X151538131Y-94768020D01*
X151536834Y-94765644D01*
X151534000Y-94739286D01*
X151534000Y-94494885D01*
X151553685Y-94427846D01*
X151572605Y-94407285D01*
X151571567Y-94406247D01*
X151590691Y-94387123D01*
X151670500Y-94307314D01*
X151736392Y-94193186D01*
X151770500Y-94065892D01*
X151770500Y-93934108D01*
X151736392Y-93806814D01*
X151670500Y-93692686D01*
X151577314Y-93599500D01*
X151577312Y-93599499D01*
X151577310Y-93599497D01*
X151460206Y-93531887D01*
X151411990Y-93481320D01*
X151398768Y-93412713D01*
X151424736Y-93347848D01*
X151481650Y-93307320D01*
X151522206Y-93300500D01*
X153841324Y-93300500D01*
X153908363Y-93320185D01*
X153929005Y-93336819D01*
X153992686Y-93400500D01*
X154106814Y-93466392D01*
X154234108Y-93500500D01*
X154234110Y-93500500D01*
X154365890Y-93500500D01*
X154365892Y-93500500D01*
X154493186Y-93466392D01*
X154607314Y-93400500D01*
X154700500Y-93307314D01*
X154766392Y-93193186D01*
X154800500Y-93065892D01*
X154800500Y-92934108D01*
X154766392Y-92806814D01*
X154700500Y-92692686D01*
X154607314Y-92599500D01*
X154550250Y-92566554D01*
X154493187Y-92533608D01*
X154429539Y-92516554D01*
X154365892Y-92499500D01*
X154234108Y-92499500D01*
X154106812Y-92533608D01*
X153992686Y-92599500D01*
X153992683Y-92599502D01*
X153929005Y-92663181D01*
X153867682Y-92696666D01*
X153841324Y-92699500D01*
X150918676Y-92699500D01*
X150851637Y-92679815D01*
X150830995Y-92663181D01*
X150767316Y-92599502D01*
X150767314Y-92599500D01*
X150710250Y-92566554D01*
X150653187Y-92533608D01*
X150589539Y-92516554D01*
X150525892Y-92499500D01*
X150394108Y-92499500D01*
X150266812Y-92533608D01*
X150152686Y-92599500D01*
X150152683Y-92599502D01*
X150059502Y-92692683D01*
X150059500Y-92692686D01*
X149993608Y-92806812D01*
X149959500Y-92934108D01*
X149424300Y-92934108D01*
X149424300Y-92308500D01*
X169045050Y-92308500D01*
X169061849Y-92319725D01*
X169061855Y-92319728D01*
X169230182Y-92389451D01*
X169230194Y-92389454D01*
X169408890Y-92424999D01*
X169408894Y-92425000D01*
X169591106Y-92425000D01*
X169591109Y-92424999D01*
X169769805Y-92389454D01*
X169769813Y-92389452D01*
X169938151Y-92319724D01*
X169938154Y-92319723D01*
X169954947Y-92308500D01*
X169954948Y-92308500D01*
X169500001Y-91853553D01*
X169500000Y-91853553D01*
X169045050Y-92308500D01*
X149424300Y-92308500D01*
X149424300Y-92243297D01*
X149443985Y-92176258D01*
X149496789Y-92130503D01*
X149529508Y-92121438D01*
X149529503Y-92121416D01*
X149529994Y-92121303D01*
X149534430Y-92120075D01*
X149536283Y-92119865D01*
X149536292Y-92119866D01*
X149675228Y-92088155D01*
X149803625Y-92026323D01*
X149915044Y-91937470D01*
X150003897Y-91826051D01*
X150065729Y-91697654D01*
X150097440Y-91558718D01*
X150097439Y-91487463D01*
X150097439Y-91431044D01*
X150097439Y-91335064D01*
X150097440Y-91296212D01*
X150097439Y-91296207D01*
X150065729Y-91157275D01*
X150003899Y-91028883D01*
X150003896Y-91028878D01*
X149915044Y-90917460D01*
X149803625Y-90828607D01*
X149803620Y-90828604D01*
X149675227Y-90766774D01*
X149675228Y-90766774D01*
X149536290Y-90735063D01*
X149534416Y-90734852D01*
X149533287Y-90734377D01*
X149529503Y-90733514D01*
X149529654Y-90732851D01*
X149470002Y-90707785D01*
X149430447Y-90650190D01*
X149424300Y-90611632D01*
X149424300Y-82342906D01*
X149424300Y-82342904D01*
X149402740Y-82262441D01*
X149402740Y-82262440D01*
X149402740Y-82262439D01*
X149397559Y-82243103D01*
X149345898Y-82153624D01*
X146414476Y-79222202D01*
X146360895Y-79191267D01*
X146324998Y-79170541D01*
X146267989Y-79155266D01*
X146225197Y-79143800D01*
X146225196Y-79143800D01*
X140873802Y-79143800D01*
X140865116Y-79141249D01*
X140856155Y-79142538D01*
X140832114Y-79131559D01*
X140806763Y-79124115D01*
X140800835Y-79117274D01*
X140792599Y-79113513D01*
X140778309Y-79091278D01*
X140761008Y-79071311D01*
X140758720Y-79060796D01*
X140754825Y-79054735D01*
X140749802Y-79019800D01*
X140749802Y-78925164D01*
X140769487Y-78858125D01*
X140786116Y-78837488D01*
X143377911Y-76245692D01*
X143439232Y-76212209D01*
X143508924Y-76217193D01*
X143564857Y-76259065D01*
X143572977Y-76271375D01*
X143599500Y-76317314D01*
X143692686Y-76410500D01*
X143806814Y-76476392D01*
X143934108Y-76510500D01*
X143934110Y-76510500D01*
X144065890Y-76510500D01*
X144065892Y-76510500D01*
X144193186Y-76476392D01*
X144307314Y-76410500D01*
X144400500Y-76317314D01*
X144466392Y-76203186D01*
X144500500Y-76075892D01*
X144500500Y-75944108D01*
X144466392Y-75816814D01*
X144400500Y-75702686D01*
X144307314Y-75609500D01*
X144193186Y-75543608D01*
X144082338Y-75513906D01*
X144068453Y-75505890D01*
X144055009Y-75502966D01*
X144026754Y-75481816D01*
X144022162Y-75477225D01*
X144007620Y-75462682D01*
X143974134Y-75401361D01*
X143979117Y-75331669D01*
X144007619Y-75287319D01*
X144026752Y-75268186D01*
X144082337Y-75236093D01*
X144193186Y-75206392D01*
X144307314Y-75140500D01*
X144400500Y-75047314D01*
X144466392Y-74933186D01*
X144500500Y-74805892D01*
X144500500Y-74674108D01*
X144500499Y-74674105D01*
X144499625Y-74667466D01*
X144510389Y-74598430D01*
X144556768Y-74546174D01*
X144624037Y-74527287D01*
X144690838Y-74547766D01*
X144710245Y-74563597D01*
X151508431Y-81361783D01*
X151541916Y-81423106D01*
X151544750Y-81449464D01*
X151544750Y-89545113D01*
X151525065Y-89612152D01*
X151506149Y-89632719D01*
X151507183Y-89633753D01*
X151408250Y-89732686D01*
X151342358Y-89846812D01*
X151308250Y-89974108D01*
X151308250Y-90105891D01*
X151342358Y-90233187D01*
X151374040Y-90288060D01*
X151408250Y-90347314D01*
X151501436Y-90440500D01*
X151615564Y-90506392D01*
X151742858Y-90540500D01*
X151742860Y-90540500D01*
X151874640Y-90540500D01*
X151874642Y-90540500D01*
X152001936Y-90506392D01*
X152116064Y-90440500D01*
X152209250Y-90347314D01*
X152275142Y-90233186D01*
X152309250Y-90105892D01*
X152309250Y-89974108D01*
X152275142Y-89846814D01*
X152209250Y-89732686D01*
X152116064Y-89639500D01*
X152116063Y-89639499D01*
X152110317Y-89633753D01*
X152112530Y-89631539D01*
X152080048Y-89587025D01*
X152072750Y-89545113D01*
X152072750Y-81236238D01*
X152072750Y-81236237D01*
X152032558Y-81139206D01*
X151958294Y-81064942D01*
X144526613Y-73633261D01*
X144493128Y-73571938D01*
X144490301Y-73546886D01*
X144490197Y-73537022D01*
X144490500Y-73535892D01*
X144490500Y-73404108D01*
X144488728Y-73397494D01*
X144488571Y-73382584D01*
X144496111Y-73355866D01*
X144500389Y-73328430D01*
X144505469Y-73322705D01*
X144507548Y-73315341D01*
X144528337Y-73296940D01*
X144546768Y-73276174D01*
X144554136Y-73274105D01*
X144559868Y-73269032D01*
X144587309Y-73264791D01*
X144614037Y-73257287D01*
X144621353Y-73259530D01*
X144628918Y-73258361D01*
X144654294Y-73269628D01*
X144680838Y-73277766D01*
X144690652Y-73285772D01*
X144692776Y-73286715D01*
X144693895Y-73288417D01*
X144700245Y-73293597D01*
X152828431Y-81421783D01*
X152861916Y-81483106D01*
X152864750Y-81509464D01*
X152864750Y-89545113D01*
X152845065Y-89612152D01*
X152826149Y-89632719D01*
X152827183Y-89633753D01*
X152728250Y-89732686D01*
X152662358Y-89846812D01*
X152628250Y-89974108D01*
X152628250Y-90105891D01*
X152662358Y-90233187D01*
X152694040Y-90288060D01*
X152728250Y-90347314D01*
X152821436Y-90440500D01*
X152935564Y-90506392D01*
X153062858Y-90540500D01*
X153062860Y-90540500D01*
X153194640Y-90540500D01*
X153194642Y-90540500D01*
X153321936Y-90506392D01*
X153436064Y-90440500D01*
X153529250Y-90347314D01*
X153595142Y-90233186D01*
X153629250Y-90105892D01*
X153629250Y-89974108D01*
X153595142Y-89846814D01*
X153529250Y-89732686D01*
X153436064Y-89639500D01*
X153436063Y-89639499D01*
X153430317Y-89633753D01*
X153432530Y-89631539D01*
X153400048Y-89587025D01*
X153392750Y-89545113D01*
X153392750Y-89034108D01*
X155798250Y-89034108D01*
X155798250Y-89165892D01*
X155808384Y-89203714D01*
X155832358Y-89293187D01*
X155859652Y-89340460D01*
X155898250Y-89407314D01*
X155991436Y-89500500D01*
X156105564Y-89566392D01*
X156232858Y-89600500D01*
X156232860Y-89600500D01*
X156364640Y-89600500D01*
X156364642Y-89600500D01*
X156491936Y-89566392D01*
X156606064Y-89500500D01*
X156669745Y-89436819D01*
X156731068Y-89403334D01*
X156757426Y-89400500D01*
X156759560Y-89400500D01*
X156759562Y-89400500D01*
X156835989Y-89380021D01*
X156904511Y-89340460D01*
X156960460Y-89284511D01*
X161280460Y-84964511D01*
X161320022Y-84895988D01*
X161340500Y-84819562D01*
X161340500Y-84740438D01*
X161340500Y-80005833D01*
X161360185Y-79938794D01*
X161376819Y-79918152D01*
X166458152Y-74836819D01*
X166519475Y-74803334D01*
X166545833Y-74800500D01*
X168882225Y-74800500D01*
X168885939Y-74801590D01*
X168889714Y-74800726D01*
X168919203Y-74811358D01*
X168949264Y-74820185D01*
X168952853Y-74823490D01*
X168955443Y-74824424D01*
X168967268Y-74836764D01*
X168980671Y-74849106D01*
X168983112Y-74852294D01*
X169014142Y-74898733D01*
X169033510Y-74918101D01*
X169038492Y-74924606D01*
X169048234Y-74949874D01*
X169061212Y-74973642D01*
X169060615Y-74981988D01*
X169063626Y-74989798D01*
X169058159Y-75016321D01*
X169056228Y-75043334D01*
X169050876Y-75051660D01*
X169049523Y-75058230D01*
X169041161Y-75066776D01*
X169027727Y-75087681D01*
X169014144Y-75101263D01*
X169014141Y-75101267D01*
X168945692Y-75203707D01*
X168945687Y-75203716D01*
X168898538Y-75317545D01*
X168898535Y-75317555D01*
X168874500Y-75438389D01*
X168874500Y-75561610D01*
X168898535Y-75682444D01*
X168898538Y-75682454D01*
X168945687Y-75796283D01*
X168945692Y-75796292D01*
X169014141Y-75898732D01*
X169014144Y-75898736D01*
X169027727Y-75912319D01*
X169061212Y-75973642D01*
X169056228Y-76043334D01*
X169027727Y-76087681D01*
X169014144Y-76101263D01*
X169014141Y-76101267D01*
X168945692Y-76203707D01*
X168945687Y-76203716D01*
X168898538Y-76317545D01*
X168898535Y-76317555D01*
X168874500Y-76438389D01*
X168874500Y-76561610D01*
X168898535Y-76682444D01*
X168898538Y-76682454D01*
X168945687Y-76796283D01*
X168945692Y-76796292D01*
X169014141Y-76898732D01*
X169014144Y-76898736D01*
X169027727Y-76912319D01*
X169061212Y-76973642D01*
X169056228Y-77043334D01*
X169027727Y-77087681D01*
X169014144Y-77101263D01*
X169014141Y-77101267D01*
X168945692Y-77203707D01*
X168945687Y-77203716D01*
X168898538Y-77317545D01*
X168898535Y-77317555D01*
X168874500Y-77438389D01*
X168874500Y-77561610D01*
X168898535Y-77682444D01*
X168898538Y-77682454D01*
X168945687Y-77796283D01*
X168945692Y-77796292D01*
X169014141Y-77898732D01*
X169014144Y-77898736D01*
X169027727Y-77912319D01*
X169061212Y-77973642D01*
X169056228Y-78043334D01*
X169027727Y-78087681D01*
X169014144Y-78101263D01*
X169014141Y-78101267D01*
X168945692Y-78203707D01*
X168945687Y-78203716D01*
X168898538Y-78317545D01*
X168898535Y-78317555D01*
X168874500Y-78438389D01*
X168874500Y-78561610D01*
X168896023Y-78669815D01*
X168898537Y-78682452D01*
X168902300Y-78691536D01*
X168945687Y-78796283D01*
X168945692Y-78796292D01*
X169014141Y-78898732D01*
X169014144Y-78898736D01*
X169027727Y-78912319D01*
X169061212Y-78973642D01*
X169056228Y-79043334D01*
X169027727Y-79087681D01*
X169014144Y-79101263D01*
X169014141Y-79101267D01*
X168945692Y-79203707D01*
X168945687Y-79203716D01*
X168898538Y-79317545D01*
X168898535Y-79317555D01*
X168874500Y-79438389D01*
X168874500Y-79561610D01*
X168898535Y-79682444D01*
X168898538Y-79682454D01*
X168945687Y-79796283D01*
X168945692Y-79796292D01*
X169014141Y-79898732D01*
X169014144Y-79898736D01*
X169027727Y-79912319D01*
X169061212Y-79973642D01*
X169056228Y-80043334D01*
X169027727Y-80087681D01*
X169014144Y-80101263D01*
X169014141Y-80101267D01*
X168945692Y-80203707D01*
X168945687Y-80203716D01*
X168898538Y-80317545D01*
X168898535Y-80317555D01*
X168874500Y-80438389D01*
X168874500Y-80561610D01*
X168898535Y-80682444D01*
X168898538Y-80682454D01*
X168945687Y-80796283D01*
X168945692Y-80796292D01*
X169014141Y-80898732D01*
X169014144Y-80898736D01*
X169027727Y-80912319D01*
X169061212Y-80973642D01*
X169056228Y-81043334D01*
X169027727Y-81087681D01*
X169014144Y-81101263D01*
X169014141Y-81101267D01*
X168945692Y-81203707D01*
X168945687Y-81203716D01*
X168898538Y-81317545D01*
X168898535Y-81317555D01*
X168874500Y-81438389D01*
X168874500Y-81561610D01*
X168898535Y-81682444D01*
X168898538Y-81682454D01*
X168945687Y-81796283D01*
X168945692Y-81796292D01*
X169014141Y-81898732D01*
X169014144Y-81898736D01*
X169027727Y-81912319D01*
X169061212Y-81973642D01*
X169056228Y-82043334D01*
X169027727Y-82087681D01*
X169014144Y-82101263D01*
X169014141Y-82101267D01*
X168945692Y-82203707D01*
X168945687Y-82203716D01*
X168898538Y-82317545D01*
X168898535Y-82317555D01*
X168874500Y-82438389D01*
X168874500Y-82561610D01*
X168898535Y-82682444D01*
X168898538Y-82682454D01*
X168945687Y-82796283D01*
X168945692Y-82796292D01*
X169014141Y-82898732D01*
X169014144Y-82898736D01*
X169027727Y-82912319D01*
X169028065Y-82912939D01*
X169028683Y-82913285D01*
X169044793Y-82943573D01*
X169061212Y-82973642D01*
X169061161Y-82974347D01*
X169061494Y-82974972D01*
X169058672Y-83009154D01*
X169056228Y-83043334D01*
X169055784Y-83044135D01*
X169055746Y-83044605D01*
X169054266Y-83046879D01*
X169038492Y-83075394D01*
X169033510Y-83081898D01*
X169014142Y-83101267D01*
X168983112Y-83147705D01*
X168980671Y-83150894D01*
X168955579Y-83169251D01*
X168931715Y-83189196D01*
X168926968Y-83190184D01*
X168924282Y-83192150D01*
X168914759Y-83192726D01*
X168882225Y-83199500D01*
X168760438Y-83199500D01*
X168722224Y-83209739D01*
X168684009Y-83219979D01*
X168684004Y-83219982D01*
X168615495Y-83259535D01*
X168615487Y-83259541D01*
X168019541Y-83855487D01*
X168019535Y-83855495D01*
X167979982Y-83924004D01*
X167979979Y-83924009D01*
X167974754Y-83943511D01*
X167959618Y-84000000D01*
X167959500Y-84000439D01*
X167959500Y-87614167D01*
X167939815Y-87681206D01*
X167923181Y-87701848D01*
X165525348Y-90099681D01*
X165464025Y-90133166D01*
X165437667Y-90136000D01*
X163678676Y-90136000D01*
X163611637Y-90116315D01*
X163590995Y-90099681D01*
X163527316Y-90036002D01*
X163527314Y-90036000D01*
X163445451Y-89988736D01*
X163413187Y-89970108D01*
X163349539Y-89953054D01*
X163285892Y-89936000D01*
X163154108Y-89936000D01*
X163026812Y-89970108D01*
X162912686Y-90036000D01*
X162912683Y-90036002D01*
X162819502Y-90129183D01*
X162819500Y-90129186D01*
X162753608Y-90243312D01*
X162719500Y-90370608D01*
X162719500Y-90502391D01*
X162753608Y-90629687D01*
X162780902Y-90676960D01*
X162819500Y-90743814D01*
X162912686Y-90837000D01*
X163026814Y-90902892D01*
X163154108Y-90937000D01*
X163154110Y-90937000D01*
X163285890Y-90937000D01*
X163285892Y-90937000D01*
X163413186Y-90902892D01*
X163527314Y-90837000D01*
X163590995Y-90773319D01*
X163652318Y-90739834D01*
X163678676Y-90737000D01*
X165653060Y-90737000D01*
X165653062Y-90737000D01*
X165729489Y-90716521D01*
X165798011Y-90676960D01*
X165853960Y-90621011D01*
X166066081Y-90408890D01*
X168575000Y-90408890D01*
X168575000Y-90591109D01*
X168610545Y-90769805D01*
X168610547Y-90769813D01*
X168680278Y-90938159D01*
X168682092Y-90941553D01*
X168682504Y-90943533D01*
X168682606Y-90943779D01*
X168682559Y-90943798D01*
X168696331Y-91009956D01*
X168682092Y-91058447D01*
X168680278Y-91061840D01*
X168610547Y-91230186D01*
X168610545Y-91230194D01*
X168575000Y-91408890D01*
X168575000Y-91591109D01*
X168610545Y-91769805D01*
X168610548Y-91769817D01*
X168680271Y-91938145D01*
X168691498Y-91954947D01*
X169235542Y-91410904D01*
X169275298Y-91389195D01*
X169250000Y-91450272D01*
X169250000Y-91549728D01*
X169288060Y-91641614D01*
X169358386Y-91711940D01*
X169450272Y-91750000D01*
X169549728Y-91750000D01*
X169641614Y-91711940D01*
X169711940Y-91641614D01*
X169750000Y-91549728D01*
X169750000Y-91450272D01*
X169722533Y-91383961D01*
X169764457Y-91410904D01*
X170308500Y-91954948D01*
X170308500Y-91954947D01*
X170319723Y-91938154D01*
X170319724Y-91938151D01*
X170389452Y-91769813D01*
X170389454Y-91769805D01*
X170424999Y-91591109D01*
X170425000Y-91591106D01*
X170425000Y-91408894D01*
X170424999Y-91408890D01*
X170389454Y-91230194D01*
X170389451Y-91230182D01*
X170319726Y-91061851D01*
X170317915Y-91058462D01*
X170317502Y-91056480D01*
X170317394Y-91056219D01*
X170317443Y-91056198D01*
X170303667Y-90990061D01*
X170317915Y-90941538D01*
X170319726Y-90938148D01*
X170389451Y-90769817D01*
X170389454Y-90769805D01*
X170424999Y-90591109D01*
X170425000Y-90591106D01*
X170425000Y-90408894D01*
X170424999Y-90408890D01*
X170389454Y-90230194D01*
X170389451Y-90230182D01*
X170319728Y-90061855D01*
X170319725Y-90061849D01*
X170308500Y-90045050D01*
X169764457Y-90589095D01*
X169724702Y-90610802D01*
X169750000Y-90549728D01*
X169750000Y-90450272D01*
X169711940Y-90358386D01*
X169641614Y-90288060D01*
X169549728Y-90250000D01*
X169450272Y-90250000D01*
X169358386Y-90288060D01*
X169288060Y-90358386D01*
X169250000Y-90450272D01*
X169250000Y-90549728D01*
X169277466Y-90616039D01*
X169235542Y-90589095D01*
X168691498Y-90045050D01*
X168680274Y-90061848D01*
X168610547Y-90230186D01*
X168610545Y-90230194D01*
X168575000Y-90408890D01*
X166066081Y-90408890D01*
X168500460Y-87974511D01*
X168517100Y-87945689D01*
X168540021Y-87905989D01*
X168560500Y-87829562D01*
X168560500Y-84215833D01*
X168580185Y-84148794D01*
X168596819Y-84128152D01*
X168710829Y-84014142D01*
X168832703Y-83892267D01*
X168841176Y-83887640D01*
X168847040Y-83879965D01*
X168871343Y-83871168D01*
X168894024Y-83858784D01*
X168903656Y-83859472D01*
X168912738Y-83856186D01*
X168937934Y-83861924D01*
X168963715Y-83863768D01*
X168973263Y-83869969D01*
X168980864Y-83871701D01*
X168998041Y-83886064D01*
X169008911Y-83893125D01*
X169013566Y-83897872D01*
X169014142Y-83898733D01*
X169028116Y-83912707D01*
X169028575Y-83913175D01*
X169044759Y-83943511D01*
X169061212Y-83973642D01*
X169061167Y-83974266D01*
X169061463Y-83974821D01*
X169058678Y-84009074D01*
X169056228Y-84043334D01*
X169055844Y-84043931D01*
X169055801Y-84044461D01*
X169053927Y-84046914D01*
X169027727Y-84087681D01*
X169014144Y-84101263D01*
X169014141Y-84101267D01*
X168945692Y-84203707D01*
X168945687Y-84203716D01*
X168898538Y-84317545D01*
X168898535Y-84317555D01*
X168874500Y-84438389D01*
X168874500Y-84561610D01*
X168898535Y-84682444D01*
X168898538Y-84682454D01*
X168945687Y-84796283D01*
X168945692Y-84796292D01*
X169014141Y-84898732D01*
X169014144Y-84898736D01*
X169027727Y-84912319D01*
X169061212Y-84973642D01*
X169056228Y-85043334D01*
X169027727Y-85087681D01*
X169014144Y-85101263D01*
X169014141Y-85101267D01*
X168945692Y-85203707D01*
X168945687Y-85203716D01*
X168898538Y-85317545D01*
X168898535Y-85317555D01*
X168874500Y-85438389D01*
X168874500Y-85561610D01*
X168898535Y-85682444D01*
X168898538Y-85682454D01*
X168945687Y-85796283D01*
X168945692Y-85796292D01*
X169014141Y-85898732D01*
X169014144Y-85898736D01*
X169027727Y-85912319D01*
X169061212Y-85973642D01*
X169056228Y-86043334D01*
X169027727Y-86087681D01*
X169014144Y-86101263D01*
X169014141Y-86101267D01*
X168945692Y-86203707D01*
X168945687Y-86203716D01*
X168898538Y-86317545D01*
X168898535Y-86317555D01*
X168874500Y-86438389D01*
X168874500Y-86561610D01*
X168898535Y-86682444D01*
X168898538Y-86682454D01*
X168945687Y-86796283D01*
X168945692Y-86796292D01*
X169014141Y-86898732D01*
X169014144Y-86898736D01*
X169027727Y-86912319D01*
X169061212Y-86973642D01*
X169056228Y-87043334D01*
X169027727Y-87087681D01*
X169014144Y-87101263D01*
X169014141Y-87101267D01*
X168945692Y-87203707D01*
X168945687Y-87203716D01*
X168898538Y-87317545D01*
X168898535Y-87317555D01*
X168874500Y-87438389D01*
X168874500Y-87561610D01*
X168898535Y-87682444D01*
X168898538Y-87682454D01*
X168945687Y-87796283D01*
X168945692Y-87796292D01*
X169014141Y-87898732D01*
X169014144Y-87898736D01*
X169027727Y-87912319D01*
X169061212Y-87973642D01*
X169056228Y-88043334D01*
X169027727Y-88087681D01*
X169014144Y-88101263D01*
X169014141Y-88101267D01*
X168945692Y-88203707D01*
X168945687Y-88203716D01*
X168898538Y-88317545D01*
X168898535Y-88317555D01*
X168874500Y-88438389D01*
X168874500Y-88561610D01*
X168898535Y-88682444D01*
X168898538Y-88682454D01*
X168945687Y-88796283D01*
X168945692Y-88796292D01*
X169014141Y-88898732D01*
X169014144Y-88898736D01*
X169027727Y-88912319D01*
X169061212Y-88973642D01*
X169056228Y-89043334D01*
X169027727Y-89087681D01*
X169014144Y-89101263D01*
X169014141Y-89101267D01*
X168945692Y-89203707D01*
X168945687Y-89203716D01*
X168898538Y-89317545D01*
X168898535Y-89317555D01*
X168874500Y-89438389D01*
X168874500Y-89561610D01*
X168898535Y-89682444D01*
X168898538Y-89682454D01*
X168945687Y-89796283D01*
X168945692Y-89796292D01*
X169014141Y-89898732D01*
X169014144Y-89898736D01*
X169101263Y-89985855D01*
X169101267Y-89985858D01*
X169203707Y-90054307D01*
X169203713Y-90054310D01*
X169203714Y-90054311D01*
X169317548Y-90101463D01*
X169374292Y-90112749D01*
X169435858Y-90124996D01*
X169435860Y-90124996D01*
X169438394Y-90125500D01*
X169561606Y-90125500D01*
X169564140Y-90124996D01*
X169564142Y-90124996D01*
X169613666Y-90115144D01*
X169682452Y-90101463D01*
X169796286Y-90054311D01*
X169898733Y-89985858D01*
X169985858Y-89898733D01*
X170054311Y-89796286D01*
X170101463Y-89682452D01*
X170125500Y-89561606D01*
X170125500Y-89438394D01*
X170101463Y-89317548D01*
X170054311Y-89203714D01*
X170054310Y-89203713D01*
X170054307Y-89203707D01*
X169985858Y-89101267D01*
X169985855Y-89101263D01*
X169972273Y-89087681D01*
X169938788Y-89026358D01*
X169943772Y-88956666D01*
X169972273Y-88912319D01*
X169985855Y-88898736D01*
X169985858Y-88898733D01*
X170054311Y-88796286D01*
X170101463Y-88682452D01*
X170125500Y-88561606D01*
X170125500Y-88438394D01*
X170101463Y-88317548D01*
X170054311Y-88203714D01*
X170054310Y-88203713D01*
X170054307Y-88203707D01*
X169985858Y-88101267D01*
X169985855Y-88101263D01*
X169972273Y-88087681D01*
X169938788Y-88026358D01*
X169943772Y-87956666D01*
X169972273Y-87912319D01*
X169985855Y-87898736D01*
X169985858Y-87898733D01*
X170054311Y-87796286D01*
X170101463Y-87682452D01*
X170125500Y-87561606D01*
X170125500Y-87438394D01*
X170101463Y-87317548D01*
X170054311Y-87203714D01*
X170054310Y-87203713D01*
X170054307Y-87203707D01*
X169985858Y-87101267D01*
X169985855Y-87101263D01*
X169972273Y-87087681D01*
X169938788Y-87026358D01*
X169943772Y-86956666D01*
X169972273Y-86912319D01*
X169985855Y-86898736D01*
X169985858Y-86898733D01*
X170054311Y-86796286D01*
X170101463Y-86682452D01*
X170125500Y-86561606D01*
X170125500Y-86438394D01*
X170101463Y-86317548D01*
X170054311Y-86203714D01*
X170054310Y-86203713D01*
X170054307Y-86203707D01*
X169985858Y-86101267D01*
X169985855Y-86101263D01*
X169972273Y-86087681D01*
X169938788Y-86026358D01*
X169943772Y-85956666D01*
X169972273Y-85912319D01*
X169985855Y-85898736D01*
X169985858Y-85898733D01*
X170054311Y-85796286D01*
X170101463Y-85682452D01*
X170125500Y-85561606D01*
X170125500Y-85438394D01*
X170101463Y-85317548D01*
X170054311Y-85203714D01*
X170054310Y-85203713D01*
X170054307Y-85203707D01*
X169985858Y-85101267D01*
X169985855Y-85101263D01*
X169972273Y-85087681D01*
X169938788Y-85026358D01*
X169943772Y-84956666D01*
X169972273Y-84912319D01*
X169985855Y-84898736D01*
X169985858Y-84898733D01*
X170054311Y-84796286D01*
X170101463Y-84682452D01*
X170125500Y-84561606D01*
X170125500Y-84438394D01*
X170101463Y-84317548D01*
X170054311Y-84203714D01*
X170054310Y-84203713D01*
X170054307Y-84203707D01*
X169985858Y-84101267D01*
X169985855Y-84101263D01*
X169972273Y-84087681D01*
X169938788Y-84026358D01*
X169943772Y-83956666D01*
X169972273Y-83912319D01*
X169985855Y-83898736D01*
X169985858Y-83898733D01*
X170054311Y-83796286D01*
X170101463Y-83682452D01*
X170125500Y-83561606D01*
X170125500Y-83438394D01*
X170101463Y-83317548D01*
X170063020Y-83224739D01*
X170054312Y-83203716D01*
X170054307Y-83203707D01*
X169985858Y-83101267D01*
X169985855Y-83101263D01*
X169972273Y-83087681D01*
X169938788Y-83026358D01*
X169943772Y-82956666D01*
X169972273Y-82912319D01*
X169985855Y-82898736D01*
X169985858Y-82898733D01*
X170054311Y-82796286D01*
X170101463Y-82682452D01*
X170125500Y-82561606D01*
X170125500Y-82438394D01*
X170101463Y-82317548D01*
X170054311Y-82203714D01*
X170054310Y-82203713D01*
X170054307Y-82203707D01*
X169985858Y-82101267D01*
X169985855Y-82101263D01*
X169972273Y-82087681D01*
X169938788Y-82026358D01*
X169943772Y-81956666D01*
X169972273Y-81912319D01*
X169985855Y-81898736D01*
X169985858Y-81898733D01*
X170054311Y-81796286D01*
X170101463Y-81682452D01*
X170125500Y-81561606D01*
X170125500Y-81438394D01*
X170101463Y-81317548D01*
X170054311Y-81203714D01*
X170054310Y-81203713D01*
X170054307Y-81203707D01*
X169985858Y-81101267D01*
X169985855Y-81101263D01*
X169972273Y-81087681D01*
X169938788Y-81026358D01*
X169943772Y-80956666D01*
X169972273Y-80912319D01*
X169985855Y-80898736D01*
X169985858Y-80898733D01*
X170054311Y-80796286D01*
X170101463Y-80682452D01*
X170125500Y-80561606D01*
X170125500Y-80438394D01*
X170101463Y-80317548D01*
X170054311Y-80203714D01*
X170054310Y-80203713D01*
X170054307Y-80203707D01*
X169985858Y-80101267D01*
X169985855Y-80101263D01*
X169972273Y-80087681D01*
X169938788Y-80026358D01*
X169943772Y-79956666D01*
X169972273Y-79912319D01*
X169985855Y-79898736D01*
X169985858Y-79898733D01*
X170054311Y-79796286D01*
X170101463Y-79682452D01*
X170125500Y-79561606D01*
X170125500Y-79438394D01*
X170101463Y-79317548D01*
X170054311Y-79203714D01*
X170054310Y-79203713D01*
X170054307Y-79203707D01*
X169985858Y-79101267D01*
X169985855Y-79101263D01*
X169972273Y-79087681D01*
X169938788Y-79026358D01*
X169943772Y-78956666D01*
X169972273Y-78912319D01*
X169985855Y-78898736D01*
X169985858Y-78898733D01*
X170054311Y-78796286D01*
X170101463Y-78682452D01*
X170125500Y-78561606D01*
X170125500Y-78438394D01*
X170101463Y-78317548D01*
X170054311Y-78203714D01*
X170054310Y-78203713D01*
X170054307Y-78203707D01*
X169985858Y-78101267D01*
X169985855Y-78101263D01*
X169972273Y-78087681D01*
X169938788Y-78026358D01*
X169943772Y-77956666D01*
X169972273Y-77912319D01*
X169985855Y-77898736D01*
X169985858Y-77898733D01*
X170054311Y-77796286D01*
X170101463Y-77682452D01*
X170125500Y-77561606D01*
X170125500Y-77438394D01*
X170101463Y-77317548D01*
X170054311Y-77203714D01*
X170054310Y-77203713D01*
X170054307Y-77203707D01*
X169985858Y-77101267D01*
X169985855Y-77101263D01*
X169972273Y-77087681D01*
X169938788Y-77026358D01*
X169943772Y-76956666D01*
X169972273Y-76912319D01*
X169985855Y-76898736D01*
X169985858Y-76898733D01*
X170054311Y-76796286D01*
X170101463Y-76682452D01*
X170125500Y-76561606D01*
X170125500Y-76438394D01*
X170101463Y-76317548D01*
X170054311Y-76203714D01*
X170054310Y-76203713D01*
X170054307Y-76203707D01*
X169985858Y-76101267D01*
X169985855Y-76101263D01*
X169972273Y-76087681D01*
X169938788Y-76026358D01*
X169943772Y-75956666D01*
X169972273Y-75912319D01*
X169985855Y-75898736D01*
X169985858Y-75898733D01*
X170054311Y-75796286D01*
X170101463Y-75682452D01*
X170125500Y-75561606D01*
X170125500Y-75438394D01*
X170101463Y-75317548D01*
X170054311Y-75203714D01*
X170054310Y-75203713D01*
X170054307Y-75203707D01*
X169985858Y-75101267D01*
X169985855Y-75101263D01*
X169972273Y-75087681D01*
X169938788Y-75026358D01*
X169943772Y-74956666D01*
X169972273Y-74912319D01*
X169985855Y-74898736D01*
X169985858Y-74898733D01*
X170054311Y-74796286D01*
X170101463Y-74682452D01*
X170125500Y-74561606D01*
X170125500Y-74438394D01*
X170101463Y-74317548D01*
X170063020Y-74224739D01*
X170054312Y-74203716D01*
X170054307Y-74203707D01*
X169985858Y-74101267D01*
X169985855Y-74101263D01*
X169972273Y-74087681D01*
X169938788Y-74026358D01*
X169943772Y-73956666D01*
X169972273Y-73912319D01*
X169985855Y-73898736D01*
X169985858Y-73898733D01*
X170054311Y-73796286D01*
X170101463Y-73682452D01*
X170125500Y-73561606D01*
X170125500Y-73438394D01*
X170101463Y-73317548D01*
X170054311Y-73203714D01*
X170054310Y-73203713D01*
X170054307Y-73203707D01*
X169985858Y-73101267D01*
X169985855Y-73101263D01*
X169972273Y-73087681D01*
X169938788Y-73026358D01*
X169943772Y-72956666D01*
X169972273Y-72912319D01*
X169985855Y-72898736D01*
X169985858Y-72898733D01*
X170054311Y-72796286D01*
X170101463Y-72682452D01*
X170125500Y-72561606D01*
X170125500Y-72438394D01*
X170101463Y-72317548D01*
X170054311Y-72203714D01*
X170054310Y-72203713D01*
X170054307Y-72203707D01*
X169985858Y-72101267D01*
X169985855Y-72101263D01*
X169972273Y-72087681D01*
X169938788Y-72026358D01*
X169943772Y-71956666D01*
X169972273Y-71912319D01*
X169985855Y-71898736D01*
X169985858Y-71898733D01*
X170054311Y-71796286D01*
X170101463Y-71682452D01*
X170125500Y-71561606D01*
X170125500Y-71461556D01*
X170145185Y-71394517D01*
X170175189Y-71362290D01*
X170282187Y-71282190D01*
X170282190Y-71282187D01*
X170368350Y-71167093D01*
X170368354Y-71167086D01*
X170418596Y-71032379D01*
X170418598Y-71032372D01*
X170424999Y-70972844D01*
X170425000Y-70972827D01*
X170425000Y-70750000D01*
X169624000Y-70750000D01*
X169580538Y-70737238D01*
X169641614Y-70711940D01*
X169711940Y-70641614D01*
X169750000Y-70549728D01*
X169750000Y-70450272D01*
X169711940Y-70358386D01*
X169641614Y-70288060D01*
X169549728Y-70250000D01*
X169750000Y-70250000D01*
X170425000Y-70250000D01*
X170425000Y-70027172D01*
X170424999Y-70027155D01*
X170418598Y-69967627D01*
X170418596Y-69967620D01*
X170368354Y-69832913D01*
X170368350Y-69832906D01*
X170282190Y-69717812D01*
X170282187Y-69717809D01*
X170167093Y-69631649D01*
X170167086Y-69631645D01*
X170032379Y-69581403D01*
X170032372Y-69581401D01*
X169972844Y-69575000D01*
X169750000Y-69575000D01*
X169750000Y-70250000D01*
X169549728Y-70250000D01*
X169450272Y-70250000D01*
X169358386Y-70288060D01*
X169288060Y-70358386D01*
X169260593Y-70424696D01*
X169250000Y-70376000D01*
X169250000Y-69575000D01*
X169027155Y-69575000D01*
X168967627Y-69581401D01*
X168967620Y-69581403D01*
X168832913Y-69631645D01*
X168832906Y-69631649D01*
X168717812Y-69717809D01*
X168717809Y-69717812D01*
X168631649Y-69832906D01*
X168631643Y-69832917D01*
X168600254Y-69917074D01*
X168558383Y-69973008D01*
X168492918Y-69997424D01*
X168424645Y-69982572D01*
X168396392Y-69961421D01*
X162011047Y-63576076D01*
X161977562Y-63514753D01*
X161978952Y-63456307D01*
X162000500Y-63375892D01*
X162000500Y-63244108D01*
X161966392Y-63116814D01*
X161900500Y-63002686D01*
X161807314Y-62909500D01*
X161750250Y-62876554D01*
X161693187Y-62843608D01*
X161629539Y-62826554D01*
X161565892Y-62809500D01*
X161434108Y-62809500D01*
X161306812Y-62843608D01*
X161192686Y-62909500D01*
X161192683Y-62909502D01*
X161099502Y-63002683D01*
X161099500Y-63002686D01*
X161033608Y-63116812D01*
X161026211Y-63144419D01*
X160999500Y-63244108D01*
X160999500Y-63375892D01*
X161016554Y-63439539D01*
X161033608Y-63503187D01*
X161066554Y-63560250D01*
X161099500Y-63617314D01*
X161192686Y-63710500D01*
X161306814Y-63776392D01*
X161349314Y-63787779D01*
X161363199Y-63795796D01*
X161376648Y-63798722D01*
X161404902Y-63819873D01*
X161463967Y-63878938D01*
X161497452Y-63940261D01*
X161492468Y-64009953D01*
X161450596Y-64065886D01*
X161408381Y-64086393D01*
X161306814Y-64113608D01*
X161306812Y-64113608D01*
X161306812Y-64113609D01*
X161192686Y-64179500D01*
X161192683Y-64179502D01*
X161099502Y-64272683D01*
X161099500Y-64272686D01*
X161033608Y-64386812D01*
X160999500Y-64514108D01*
X160999500Y-64645891D01*
X161033608Y-64773187D01*
X161066554Y-64830250D01*
X161099500Y-64887314D01*
X161192686Y-64980500D01*
X161306814Y-65046392D01*
X161434108Y-65080500D01*
X161434110Y-65080500D01*
X161565891Y-65080500D01*
X161565892Y-65080500D01*
X161567429Y-65080088D01*
X161568776Y-65080120D01*
X161573949Y-65079439D01*
X161574055Y-65080245D01*
X161637279Y-65081747D01*
X161687209Y-65112180D01*
X168850681Y-72275652D01*
X168884166Y-72336975D01*
X168884618Y-72387522D01*
X168874500Y-72438393D01*
X168874500Y-72561610D01*
X168898535Y-72682444D01*
X168898538Y-72682454D01*
X168945687Y-72796283D01*
X168945692Y-72796292D01*
X169014141Y-72898732D01*
X169014144Y-72898736D01*
X169027727Y-72912319D01*
X169061212Y-72973642D01*
X169056228Y-73043334D01*
X169027727Y-73087681D01*
X169014144Y-73101263D01*
X169014141Y-73101267D01*
X168945692Y-73203707D01*
X168945687Y-73203716D01*
X168898538Y-73317545D01*
X168898535Y-73317555D01*
X168874500Y-73438389D01*
X168874500Y-73561610D01*
X168898535Y-73682444D01*
X168898538Y-73682454D01*
X168945687Y-73796283D01*
X168945692Y-73796292D01*
X169014141Y-73898732D01*
X169014144Y-73898736D01*
X169027727Y-73912319D01*
X169028065Y-73912939D01*
X169028683Y-73913285D01*
X169044793Y-73943573D01*
X169061212Y-73973642D01*
X169061161Y-73974347D01*
X169061494Y-73974972D01*
X169058672Y-74009154D01*
X169056228Y-74043334D01*
X169055784Y-74044135D01*
X169055746Y-74044605D01*
X169054266Y-74046879D01*
X169038492Y-74075394D01*
X169033510Y-74081898D01*
X169014142Y-74101267D01*
X168983112Y-74147705D01*
X168980671Y-74150894D01*
X168955579Y-74169251D01*
X168931715Y-74189196D01*
X168926968Y-74190184D01*
X168924282Y-74192150D01*
X168914759Y-74192726D01*
X168882225Y-74199500D01*
X166330438Y-74199500D01*
X166292224Y-74209739D01*
X166254009Y-74219979D01*
X166254004Y-74219982D01*
X166185495Y-74259535D01*
X166185487Y-74259541D01*
X160799541Y-79645487D01*
X160799535Y-79645495D01*
X160759982Y-79714004D01*
X160759979Y-79714009D01*
X160756386Y-79727419D01*
X160744320Y-79772452D01*
X160739500Y-79790439D01*
X160739500Y-84604166D01*
X160719815Y-84671205D01*
X160703181Y-84691847D01*
X156730062Y-88664965D01*
X156668739Y-88698450D01*
X156599047Y-88693466D01*
X156580381Y-88684671D01*
X156491939Y-88633609D01*
X156491936Y-88633608D01*
X156364642Y-88599500D01*
X156232858Y-88599500D01*
X156105562Y-88633608D01*
X155991436Y-88699500D01*
X155991433Y-88699502D01*
X155898252Y-88792683D01*
X155898250Y-88792686D01*
X155832358Y-88906812D01*
X155811178Y-88985858D01*
X155798250Y-89034108D01*
X153392750Y-89034108D01*
X153392750Y-81296238D01*
X153392750Y-81296237D01*
X153352558Y-81199206D01*
X153278294Y-81124942D01*
X144516613Y-72363261D01*
X144501836Y-72336200D01*
X144485228Y-72310211D01*
X144484836Y-72305067D01*
X144483128Y-72301938D01*
X144480294Y-72275264D01*
X144480316Y-72266578D01*
X144480500Y-72265892D01*
X144480500Y-72194517D01*
X144490422Y-72161041D01*
X144500185Y-72127794D01*
X144500309Y-72127686D01*
X144500356Y-72127528D01*
X144526831Y-72104704D01*
X144552989Y-72082039D01*
X144553151Y-72082015D01*
X144553276Y-72081908D01*
X144587624Y-72077058D01*
X144622147Y-72072095D01*
X144622297Y-72072163D01*
X144622460Y-72072141D01*
X144653891Y-72086592D01*
X144685703Y-72101120D01*
X144685911Y-72101313D01*
X144685942Y-72101328D01*
X144685964Y-72101363D01*
X144692181Y-72107152D01*
X155961931Y-83376902D01*
X155995416Y-83438225D01*
X155998250Y-83464583D01*
X155998250Y-83611323D01*
X155978565Y-83678362D01*
X155961932Y-83699004D01*
X155898250Y-83762686D01*
X155832358Y-83876812D01*
X155814487Y-83943511D01*
X155798250Y-84004108D01*
X155798250Y-84135892D01*
X155813088Y-84191267D01*
X155832358Y-84263187D01*
X155863742Y-84317545D01*
X155898250Y-84377314D01*
X155991436Y-84470500D01*
X156105564Y-84536392D01*
X156232858Y-84570500D01*
X156232860Y-84570500D01*
X156364640Y-84570500D01*
X156364642Y-84570500D01*
X156491936Y-84536392D01*
X156606064Y-84470500D01*
X156699250Y-84377314D01*
X156765142Y-84263186D01*
X156799250Y-84135892D01*
X156799250Y-84004108D01*
X156765142Y-83876814D01*
X156699250Y-83762686D01*
X156635568Y-83699004D01*
X156602084Y-83637680D01*
X156599250Y-83611323D01*
X156599250Y-83249189D01*
X156591423Y-83219979D01*
X156578771Y-83172761D01*
X156546207Y-83116358D01*
X156539214Y-83104245D01*
X156539208Y-83104237D01*
X153097152Y-79662181D01*
X153063667Y-79600858D01*
X153068651Y-79531166D01*
X153110523Y-79475233D01*
X153175987Y-79450816D01*
X153184833Y-79450500D01*
X153275890Y-79450500D01*
X153275892Y-79450500D01*
X153403186Y-79416392D01*
X153517314Y-79350500D01*
X153610500Y-79257314D01*
X153676392Y-79143186D01*
X153710500Y-79015892D01*
X153710500Y-78884108D01*
X153676392Y-78756814D01*
X153610500Y-78642686D01*
X153546818Y-78579004D01*
X153513334Y-78517680D01*
X153510500Y-78491323D01*
X153510500Y-77550439D01*
X153490020Y-77474009D01*
X153490017Y-77474004D01*
X153450464Y-77405495D01*
X153450458Y-77405487D01*
X144606819Y-68561848D01*
X144573334Y-68500525D01*
X144570500Y-68474167D01*
X144570500Y-68384110D01*
X144570500Y-68384108D01*
X144536392Y-68256814D01*
X144470500Y-68142686D01*
X144377314Y-68049500D01*
X144320250Y-68016554D01*
X144263187Y-67983608D01*
X144199539Y-67966554D01*
X144135892Y-67949500D01*
X144004108Y-67949500D01*
X143876812Y-67983608D01*
X143762686Y-68049500D01*
X143762683Y-68049502D01*
X143669502Y-68142683D01*
X143669500Y-68142686D01*
X143603608Y-68256812D01*
X143569500Y-68384108D01*
X143569500Y-68515892D01*
X143581814Y-68561848D01*
X143603608Y-68643187D01*
X143636554Y-68700250D01*
X143669500Y-68757314D01*
X143762686Y-68850500D01*
X143876814Y-68916392D01*
X144004108Y-68950500D01*
X144004110Y-68950500D01*
X144094167Y-68950500D01*
X144161206Y-68970185D01*
X144181848Y-68986819D01*
X152873181Y-77678152D01*
X152906666Y-77739475D01*
X152909500Y-77765833D01*
X152909500Y-78491323D01*
X152889815Y-78558362D01*
X152873182Y-78579004D01*
X152809500Y-78642686D01*
X152743608Y-78756812D01*
X152709500Y-78884108D01*
X152709500Y-78975167D01*
X152689815Y-79042206D01*
X152637011Y-79087961D01*
X152567853Y-79097905D01*
X152504297Y-79068880D01*
X152497819Y-79062848D01*
X144476819Y-71041848D01*
X144443334Y-70980525D01*
X144440500Y-70954167D01*
X144440500Y-70864110D01*
X144440500Y-70864108D01*
X144406392Y-70736814D01*
X144340500Y-70622686D01*
X144247314Y-70529500D01*
X144190250Y-70496554D01*
X144133187Y-70463608D01*
X144069539Y-70446554D01*
X144005892Y-70429500D01*
X143874108Y-70429500D01*
X143746812Y-70463608D01*
X143632686Y-70529500D01*
X143632683Y-70529502D01*
X143539502Y-70622683D01*
X143539500Y-70622686D01*
X143473608Y-70736812D01*
X143464061Y-70772444D01*
X143439500Y-70864108D01*
X143439500Y-70995892D01*
X143444390Y-71014142D01*
X143473608Y-71123187D01*
X143498954Y-71167086D01*
X143539500Y-71237314D01*
X143632686Y-71330500D01*
X143746814Y-71396392D01*
X143874108Y-71430500D01*
X143874110Y-71430500D01*
X143964167Y-71430500D01*
X143993607Y-71439144D01*
X144023594Y-71445668D01*
X144028609Y-71449422D01*
X144031206Y-71450185D01*
X144051848Y-71466819D01*
X144072848Y-71487819D01*
X144106333Y-71549142D01*
X144101349Y-71618834D01*
X144059477Y-71674767D01*
X143994013Y-71699184D01*
X143985167Y-71699500D01*
X143914108Y-71699500D01*
X143786812Y-71733608D01*
X143672686Y-71799500D01*
X143672683Y-71799502D01*
X143579502Y-71892683D01*
X143579500Y-71892686D01*
X143513608Y-72006812D01*
X143488287Y-72101313D01*
X143479500Y-72134108D01*
X143479500Y-72265892D01*
X143489997Y-72305067D01*
X143513608Y-72393187D01*
X143521904Y-72407555D01*
X143579500Y-72507314D01*
X143672686Y-72600500D01*
X143761204Y-72651606D01*
X143786609Y-72666274D01*
X143786814Y-72666392D01*
X143914108Y-72700500D01*
X143914110Y-72700500D01*
X144054019Y-72700500D01*
X144054019Y-72702194D01*
X144077390Y-72707278D01*
X144108395Y-72712104D01*
X144112349Y-72714883D01*
X144115007Y-72715462D01*
X144143261Y-72736613D01*
X144166402Y-72759754D01*
X144199887Y-72821077D01*
X144194903Y-72890769D01*
X144153031Y-72946702D01*
X144087567Y-72971119D01*
X144062540Y-72970375D01*
X144055892Y-72969500D01*
X143924108Y-72969500D01*
X143796812Y-73003608D01*
X143682686Y-73069500D01*
X143682683Y-73069502D01*
X143589502Y-73162683D01*
X143589500Y-73162686D01*
X143523608Y-73276812D01*
X143502426Y-73355866D01*
X143489500Y-73404108D01*
X143489500Y-73535892D01*
X143502445Y-73584203D01*
X143523608Y-73663187D01*
X143534731Y-73682452D01*
X143589500Y-73777314D01*
X143682686Y-73870500D01*
X143796814Y-73936392D01*
X143924108Y-73970500D01*
X143924110Y-73970500D01*
X144064019Y-73970500D01*
X144064019Y-73972194D01*
X144087390Y-73977278D01*
X144118395Y-73982104D01*
X144122349Y-73984883D01*
X144125007Y-73985462D01*
X144153261Y-74006613D01*
X144176402Y-74029754D01*
X144209887Y-74091077D01*
X144204903Y-74160769D01*
X144163031Y-74216702D01*
X144097567Y-74241119D01*
X144072540Y-74240375D01*
X144065892Y-74239500D01*
X143934108Y-74239500D01*
X143806812Y-74273608D01*
X143692686Y-74339500D01*
X143692683Y-74339502D01*
X143599502Y-74432683D01*
X143599500Y-74432686D01*
X143533978Y-74546174D01*
X143533608Y-74546814D01*
X143529111Y-74563597D01*
X143517001Y-74608794D01*
X143480636Y-74668454D01*
X143417789Y-74698983D01*
X143397226Y-74700700D01*
X143126574Y-74700700D01*
X143026771Y-74727441D01*
X142937294Y-74779102D01*
X142937291Y-74779104D01*
X139479606Y-78236787D01*
X139479602Y-78236793D01*
X139427942Y-78326269D01*
X139422762Y-78345605D01*
X139422762Y-78345606D01*
X139422762Y-78345607D01*
X139401202Y-78426070D01*
X138470500Y-78426070D01*
X138470500Y-72393070D01*
X138470500Y-72393068D01*
X138436392Y-72265774D01*
X138370500Y-72151646D01*
X138277314Y-72058460D01*
X136408354Y-70189500D01*
X136294226Y-70123608D01*
X136217405Y-70103024D01*
X136157745Y-70066658D01*
X136127217Y-70003811D01*
X136125500Y-69983249D01*
X136125500Y-69145249D01*
X136125499Y-69145247D01*
X136113868Y-69086770D01*
X136113867Y-69086769D01*
X136069552Y-69020447D01*
X136003230Y-68976132D01*
X136003229Y-68976131D01*
X135944752Y-68964500D01*
X135944748Y-68964500D01*
X135055252Y-68964500D01*
X135055247Y-68964500D01*
X134996770Y-68976131D01*
X134996769Y-68976132D01*
X134930447Y-69020447D01*
X134886132Y-69086769D01*
X134886131Y-69086770D01*
X134874500Y-69145247D01*
X132500500Y-69145247D01*
X132500500Y-62368872D01*
X135499500Y-62368872D01*
X135499500Y-62631127D01*
X135522985Y-62809500D01*
X135533730Y-62891116D01*
X135601602Y-63144418D01*
X135601605Y-63144428D01*
X135701953Y-63386690D01*
X135701958Y-63386700D01*
X135833075Y-63613803D01*
X135992718Y-63821851D01*
X135992726Y-63821860D01*
X136178140Y-64007274D01*
X136178148Y-64007281D01*
X136386196Y-64166924D01*
X136613299Y-64298041D01*
X136613309Y-64298046D01*
X136855571Y-64398394D01*
X136855581Y-64398398D01*
X137108884Y-64466270D01*
X137368880Y-64500500D01*
X137368887Y-64500500D01*
X137631113Y-64500500D01*
X137631120Y-64500500D01*
X137891116Y-64466270D01*
X138144419Y-64398398D01*
X138386697Y-64298043D01*
X138613803Y-64166924D01*
X138821851Y-64007282D01*
X138821855Y-64007277D01*
X138821860Y-64007274D01*
X139007274Y-63821860D01*
X139007277Y-63821855D01*
X139007282Y-63821851D01*
X139166924Y-63613803D01*
X139298043Y-63386697D01*
X139398398Y-63144419D01*
X139466270Y-62891116D01*
X139500500Y-62631120D01*
X139500500Y-62368880D01*
X139466270Y-62108884D01*
X139430157Y-61974108D01*
X143499500Y-61974108D01*
X143499500Y-62105891D01*
X143533608Y-62233187D01*
X143566554Y-62290250D01*
X143599500Y-62347314D01*
X143692686Y-62440500D01*
X143806814Y-62506392D01*
X143934108Y-62540500D01*
X143934110Y-62540500D01*
X144065890Y-62540500D01*
X144065892Y-62540500D01*
X144193186Y-62506392D01*
X144306199Y-62441143D01*
X144374097Y-62424671D01*
X144440124Y-62447523D01*
X144455879Y-62460850D01*
X145683181Y-63688152D01*
X145716666Y-63749475D01*
X145719500Y-63775833D01*
X145719500Y-69069562D01*
X145724111Y-69086769D01*
X145739979Y-69145990D01*
X145739980Y-69145991D01*
X145765100Y-69189500D01*
X145765101Y-69189501D01*
X145779539Y-69214510D01*
X155643181Y-79078152D01*
X155676666Y-79139475D01*
X155679500Y-79165833D01*
X155679500Y-79255892D01*
X155689634Y-79293714D01*
X155713608Y-79383187D01*
X155743418Y-79434819D01*
X155779500Y-79497314D01*
X155872686Y-79590500D01*
X155986814Y-79656392D01*
X156114108Y-79690500D01*
X156114110Y-79690500D01*
X156245887Y-79690500D01*
X156245892Y-79690500D01*
X156245896Y-79690498D01*
X156252532Y-79689625D01*
X156321568Y-79700389D01*
X156373825Y-79746767D01*
X156392712Y-79814036D01*
X156372233Y-79880837D01*
X156356402Y-79900245D01*
X156053260Y-80203386D01*
X155991937Y-80236871D01*
X155964019Y-80238037D01*
X155964019Y-80239500D01*
X155824108Y-80239500D01*
X155696812Y-80273608D01*
X155582686Y-80339500D01*
X155582683Y-80339502D01*
X155489502Y-80432683D01*
X155489500Y-80432686D01*
X155423608Y-80546812D01*
X155389500Y-80674108D01*
X155389500Y-80805891D01*
X155423608Y-80933187D01*
X155437164Y-80956666D01*
X155489500Y-81047314D01*
X155582686Y-81140500D01*
X155670610Y-81191263D01*
X155692175Y-81203714D01*
X155696814Y-81206392D01*
X155824108Y-81240500D01*
X155824110Y-81240500D01*
X155955890Y-81240500D01*
X155955892Y-81240500D01*
X156083186Y-81206392D01*
X156197314Y-81140500D01*
X156290500Y-81047314D01*
X156356392Y-80933186D01*
X156390500Y-80805892D01*
X156390500Y-80674108D01*
X156390500Y-80665981D01*
X156393638Y-80665981D01*
X156402113Y-80611584D01*
X156426610Y-80576740D01*
X157398808Y-79604544D01*
X157401671Y-79597632D01*
X157405720Y-79587859D01*
X157438999Y-79507515D01*
X157439000Y-79507513D01*
X157439000Y-77854885D01*
X157458685Y-77787846D01*
X157477605Y-77767285D01*
X157476567Y-77766247D01*
X157503339Y-77739475D01*
X157575500Y-77667314D01*
X157641392Y-77553186D01*
X157675500Y-77425892D01*
X157675500Y-77294108D01*
X157641392Y-77166814D01*
X157575500Y-77052686D01*
X157482314Y-76959500D01*
X157425250Y-76926554D01*
X157368187Y-76893608D01*
X157304539Y-76876554D01*
X157240892Y-76859500D01*
X157109108Y-76859500D01*
X156981812Y-76893608D01*
X156867686Y-76959500D01*
X156867683Y-76959502D01*
X156774502Y-77052683D01*
X156774500Y-77052686D01*
X156708608Y-77166812D01*
X156698720Y-77203716D01*
X156674500Y-77294108D01*
X156674500Y-77425892D01*
X156687393Y-77474009D01*
X156708608Y-77553187D01*
X156741554Y-77610250D01*
X156774500Y-77667314D01*
X156774502Y-77667316D01*
X156873433Y-77766247D01*
X156871211Y-77768468D01*
X156903676Y-77812900D01*
X156911000Y-77854885D01*
X156911000Y-79042472D01*
X156891315Y-79109511D01*
X156838511Y-79155266D01*
X156769353Y-79165210D01*
X156705797Y-79136185D01*
X156668023Y-79077407D01*
X156667225Y-79074566D01*
X156666353Y-79071311D01*
X156646392Y-78996814D01*
X156580500Y-78882686D01*
X156487314Y-78789500D01*
X156430250Y-78756554D01*
X156373187Y-78723608D01*
X156309539Y-78706554D01*
X156245892Y-78689500D01*
X156155833Y-78689500D01*
X156088794Y-78669815D01*
X156068152Y-78653181D01*
X146356819Y-68941848D01*
X146323334Y-68880525D01*
X146320500Y-68854167D01*
X146320500Y-63560439D01*
X146300020Y-63484009D01*
X146300017Y-63484004D01*
X146260464Y-63415495D01*
X146260458Y-63415487D01*
X145213843Y-62368872D01*
X166499500Y-62368872D01*
X166499500Y-62631127D01*
X166522985Y-62809500D01*
X166533730Y-62891116D01*
X166601602Y-63144418D01*
X166601605Y-63144428D01*
X166701953Y-63386690D01*
X166701958Y-63386700D01*
X166833075Y-63613803D01*
X166992718Y-63821851D01*
X166992726Y-63821860D01*
X167178140Y-64007274D01*
X167178148Y-64007281D01*
X167386196Y-64166924D01*
X167613299Y-64298041D01*
X167613309Y-64298046D01*
X167855571Y-64398394D01*
X167855581Y-64398398D01*
X168108884Y-64466270D01*
X168368880Y-64500500D01*
X168368887Y-64500500D01*
X168631113Y-64500500D01*
X168631120Y-64500500D01*
X168891116Y-64466270D01*
X169144419Y-64398398D01*
X169386697Y-64298043D01*
X169613803Y-64166924D01*
X169821851Y-64007282D01*
X169821855Y-64007277D01*
X169821860Y-64007274D01*
X170007274Y-63821860D01*
X170007277Y-63821855D01*
X170007282Y-63821851D01*
X170166924Y-63613803D01*
X170298043Y-63386697D01*
X170398398Y-63144419D01*
X170466270Y-62891116D01*
X170500500Y-62631120D01*
X170500500Y-62368880D01*
X170466270Y-62108884D01*
X170398398Y-61855581D01*
X170375185Y-61799540D01*
X170298046Y-61613309D01*
X170298041Y-61613299D01*
X170166924Y-61386196D01*
X170007281Y-61178148D01*
X170007274Y-61178140D01*
X169821860Y-60992726D01*
X169821851Y-60992718D01*
X169613803Y-60833075D01*
X169386700Y-60701958D01*
X169386690Y-60701953D01*
X169144428Y-60601605D01*
X169144421Y-60601603D01*
X169144419Y-60601602D01*
X168891116Y-60533730D01*
X168833339Y-60526123D01*
X168631127Y-60499500D01*
X168631120Y-60499500D01*
X168368880Y-60499500D01*
X168368872Y-60499500D01*
X168137772Y-60529926D01*
X168108884Y-60533730D01*
X167855581Y-60601602D01*
X167855571Y-60601605D01*
X167613309Y-60701953D01*
X167613299Y-60701958D01*
X167386196Y-60833075D01*
X167178148Y-60992718D01*
X166992718Y-61178148D01*
X166833075Y-61386196D01*
X166701958Y-61613299D01*
X166701953Y-61613309D01*
X166601605Y-61855571D01*
X166601602Y-61855581D01*
X166533730Y-62108885D01*
X166499500Y-62368872D01*
X145213843Y-62368872D01*
X144645759Y-61800788D01*
X144644511Y-61799540D01*
X144635066Y-61794087D01*
X144575989Y-61759979D01*
X144499562Y-61739500D01*
X144440554Y-61739500D01*
X144423190Y-61734314D01*
X144408471Y-61724758D01*
X144391637Y-61719815D01*
X144370995Y-61703181D01*
X144307316Y-61639502D01*
X144307314Y-61639500D01*
X144250250Y-61606554D01*
X144193187Y-61573608D01*
X144129539Y-61556554D01*
X144065892Y-61539500D01*
X143934108Y-61539500D01*
X143806812Y-61573608D01*
X143692686Y-61639500D01*
X143692683Y-61639502D01*
X143599502Y-61732683D01*
X143599500Y-61732686D01*
X143533608Y-61846812D01*
X143499500Y-61974108D01*
X139430157Y-61974108D01*
X139398398Y-61855581D01*
X139375185Y-61799540D01*
X139298046Y-61613309D01*
X139298041Y-61613299D01*
X139166924Y-61386196D01*
X139007281Y-61178148D01*
X139007274Y-61178140D01*
X138821860Y-60992726D01*
X138821851Y-60992718D01*
X138613803Y-60833075D01*
X138386700Y-60701958D01*
X138386690Y-60701953D01*
X138144428Y-60601605D01*
X138144421Y-60601603D01*
X138144419Y-60601602D01*
X137891116Y-60533730D01*
X137833339Y-60526123D01*
X137631127Y-60499500D01*
X137631120Y-60499500D01*
X137368880Y-60499500D01*
X137368872Y-60499500D01*
X137137772Y-60529926D01*
X137108884Y-60533730D01*
X136855581Y-60601602D01*
X136855571Y-60601605D01*
X136613309Y-60701953D01*
X136613299Y-60701958D01*
X136386196Y-60833075D01*
X136178148Y-60992718D01*
X135992718Y-61178148D01*
X135833075Y-61386196D01*
X135701958Y-61613299D01*
X135701953Y-61613309D01*
X135601605Y-61855571D01*
X135601602Y-61855581D01*
X135533730Y-62108885D01*
X135499500Y-62368872D01*
X132500500Y-62368872D01*
X132500500Y-59550862D01*
X132520185Y-59483823D01*
X132536819Y-59463181D01*
X133953681Y-58046319D01*
X134015004Y-58012834D01*
X134041362Y-58010000D01*
X171958638Y-58010000D01*
X172025677Y-58029685D01*
G37*
%TD.AperFunction*%
%TD*%
M02*
